<svg width="42" height="35" viewBox="0 0 42 35" fill="none" xmlns="http://www.w3.org/2000/svg">
<g clip-path="url(#clip0_12_65)">
<path d="M0 6.67121C0.105999 6.42555 0.189575 6.16674 0.322073 5.93623C0.788876 5.12543 1.49927 4.67959 2.44205 4.60478C2.60309 4.59164 2.76514 4.58052 2.96695 4.56535C2.96695 4.17309 2.96287 3.796 2.96695 3.4189C2.98428 2.046 3.96884 1.06636 5.35498 1.06434C9.04557 1.05827 12.7362 1.06434 16.4268 1.06131C18.3358 1.0603 19.8248 1.83369 20.8797 3.41789C20.9093 3.46238 20.9439 3.50484 20.9786 3.54629C20.9857 3.55437 21.0041 3.55437 21.0296 3.56145C21.2202 3.30871 21.3965 3.03777 21.6085 2.79816C22.6104 1.66789 23.8783 1.09265 25.3928 1.06838C25.6395 1.06434 25.7699 1.02087 25.8688 0.761047C26.0523 0.274767 26.4518 0.0119132 26.9798 0.0078693C28.265 -0.00325144 29.5492 -0.00426242 30.8344 0.0078693C31.3797 0.0129242 31.7813 0.290943 31.9597 0.798453C32.0443 1.03805 32.1676 1.06535 32.3776 1.06434C33.7718 1.05827 35.1661 1.05928 36.5604 1.06232C38.0546 1.06535 39.0249 2.02275 39.0341 3.49877C39.0361 3.84857 39.0341 4.19837 39.0341 4.56131C39.2889 4.58456 39.505 4.59972 39.72 4.625C41.0144 4.77664 41.9969 5.84525 41.9969 7.13424C42.001 15.5678 42.001 24.0014 41.9969 32.4349C41.9969 33.8169 40.8727 34.9411 39.4836 34.9806C39.3062 34.9856 39.1278 34.9826 38.9505 34.9826C27.0307 34.9826 15.112 34.9695 3.1922 34.9988C1.64808 35.0038 0.474956 34.4862 0 32.8727C0 24.1389 0 15.405 0 6.67121ZM20.3915 30.8042C20.3915 30.6081 20.3915 30.4757 20.3915 30.3422C20.3915 22.3272 20.3925 14.3122 20.3874 6.29816C20.3874 5.94837 20.3711 5.58846 20.2937 5.24877C19.8778 3.42396 18.4 2.30279 16.4074 2.29571C14.0693 2.28762 11.7312 2.29369 9.39313 2.29369C8.08037 2.29369 6.76762 2.28964 5.45588 2.29571C4.82193 2.29874 4.38672 2.56665 4.27563 3.03878C4.22365 3.26018 4.22568 3.49675 4.22568 3.72624C4.22365 10.4523 4.22365 17.1793 4.22365 23.9053C4.22365 24.0681 4.22874 24.2319 4.21142 24.3926C4.17269 24.7485 3.98413 24.9679 3.60498 24.978C3.25437 24.9871 3.00772 24.7505 2.97204 24.3694C2.95879 24.2349 2.96695 24.0984 2.96695 23.963C2.96695 18.1043 2.96695 12.2457 2.96695 6.38713V5.87962C1.85294 5.75325 1.2302 6.30929 1.2302 7.38496C1.2302 15.6163 1.2302 23.8487 1.2302 32.0801C1.2302 33.2619 1.73267 33.7583 2.92924 33.7583C14.9744 33.7583 27.0195 33.7583 39.0646 33.7583C40.2816 33.7583 40.7739 33.2649 40.7739 32.0487C40.7739 23.871 40.7739 15.6932 40.7739 7.51639C40.7739 7.39406 40.779 7.27174 40.7708 7.15042C40.7117 6.24762 39.9728 5.70472 39.0371 5.90489C39.0371 6.07171 39.0371 6.24559 39.0371 6.41948C39.0371 14.0817 39.0371 21.7439 39.0371 29.406C39.0371 31.1419 38.1321 32.0477 36.3963 32.0477C26.1287 32.0477 15.8611 32.0477 5.59348 32.0477C5.47015 32.0477 5.34683 32.0508 5.22452 32.0447C4.10236 31.9952 3.1657 31.2571 3.04135 30.1552C2.93026 29.1776 2.9751 28.1807 2.98326 27.192C2.98631 26.8452 3.28596 26.5996 3.60804 26.6168C3.97598 26.637 4.17778 26.8493 4.21549 27.2092C4.22976 27.3437 4.2267 27.4801 4.22772 27.6156C4.23078 28.3344 4.21447 29.0532 4.23995 29.772C4.26136 30.3907 4.62318 30.7375 5.24083 30.7941C5.36313 30.8052 5.48646 30.8042 5.60978 30.8042C10.3818 30.8042 15.1527 30.8042 19.9247 30.8042C20.0593 30.8042 20.1938 30.8042 20.3966 30.8042H20.3915ZM30.6632 9.82243C30.7101 9.79817 30.758 9.7739 30.8049 9.75065C30.8049 9.61922 30.8049 9.48779 30.8049 9.35738C30.8049 8.5031 30.7998 7.64883 30.8079 6.79455C30.812 6.30726 31.0352 6.03834 31.4123 6.02722C31.8088 6.0161 32.0585 6.30221 32.0606 6.79658C32.0657 7.92179 32.0596 9.04701 32.0636 10.1732C32.0657 10.6807 31.8792 11.0781 31.395 11.2833C30.9017 11.4926 30.4859 11.3247 30.1404 10.9567C29.752 10.5443 29.3739 10.1227 28.9153 9.62124C28.4525 10.1227 28.0866 10.5261 27.7146 10.9224C27.362 11.2985 26.9461 11.5017 26.4314 11.2863C25.9086 11.068 25.7577 10.6393 25.7598 10.0994C25.772 7.65894 25.7649 5.21844 25.7649 2.77794V2.31593C23.4431 2.1845 21.6503 3.85059 21.6492 6.10102C21.6441 14.1959 21.6472 22.2908 21.6482 30.3857C21.6482 30.5151 21.6635 30.6445 21.6717 30.7881C21.8021 30.7951 21.8959 30.8052 21.9897 30.8052C26.8422 30.8052 31.6947 30.8083 36.5482 30.8032C37.4023 30.8032 37.7774 30.4302 37.7774 29.583C37.7804 20.9048 37.7804 12.2275 37.7774 3.54932C37.7774 2.66876 37.3911 2.29773 36.4911 2.2947C35.1376 2.28964 33.7841 2.29268 32.4316 2.2947C32.3256 2.2947 32.2186 2.30784 32.0962 2.31492C32.084 2.39782 32.0667 2.46151 32.0657 2.52621C32.0616 2.91948 32.0759 3.31275 32.0575 3.70602C32.0392 4.08716 31.7844 4.33485 31.4439 4.34091C31.0944 4.34698 30.8508 4.1185 30.8171 3.72826C30.7988 3.51292 30.808 3.29455 30.8069 3.0782C30.8069 2.47162 30.8069 1.86503 30.8069 1.25845H27.0379V9.77896C27.0705 9.79918 27.1031 9.8194 27.1357 9.84063C27.4221 9.53329 27.6983 9.21382 27.999 8.92064C28.6554 8.27766 29.1711 8.28069 29.8346 8.93176C30.1251 9.21685 30.3891 9.52621 30.6663 9.82445L30.6632 9.82243Z" fill="#E6DAC8"/>
</g>
<defs>
<clipPath id="clip0_12_65">
<rect width="42" height="35" fill="white"/>
</clipPath>
</defs>
</svg>
