<svg height="1080" viewBox="0 0 1080 1080" width="1080" xmlns="http://www.w3.org/2000/svg"><clipPath><path d="m67 47h946.22v985.65h-946.22z"/></clipPath><path d="m484.8 168.6q0-.5 0-1 .5 1.8.6 3.6.2 2.6.4 3.9 1 4.8 1.8 10.1c.3 1.7.2 3.7.4 5.5q1.2 7.4 2.1 14.8.3 2.5.6 5.5 4 39 6.7 79 2.8 42.4 5.4 97.9.6 13.1 3.4 27.6 1.8 9.5 5.4 17.2c3.5 7.6 8.6 11.7 15.5 15.9q2.7 1.7 5.3 3.1.2.1.3 0 .2 0 .3-.1.1 0 .2-.2 0-.1 0-.3-.8-5.2-2.2-9.6c-.4-1.3-.3-2.8-.7-4q-.8-2.3-1.5-4.9-.8-2.7-1.7-5.3-5.3-14.4-13.7-28.9-.2-.4-.1-.8l5.2-29.9q.8-4.5 3.1-.5c6.6 11.2 15.7 21.5 27.3 27.7q.2.1.3.1.1 0 .2 0 .2-.1.3-.2.1-.1.1-.2 4-7.9 7.7-14.9 4.8-9 13.9-22 9.5-13.6 19.9-24.7 11.9-12.7 27.6-23.5 8.8-6 17.3-8.8c6.4-2.1 12.9-1.9 19.4-.2q21.4 5.4 36.2 20.6c6 6.1 11.5 14.4 13.8 22.7 2.5 9.1 2.3 18.6 0 27.8q-1.3 4.7-2.4 9.6c-2.9 12-11.9 22.6-21.7 29.7-12.5 9.1-27.2 15.4-42.4 19.7-25.9 7.3-53.2 9.1-79 2.8q-2.7-.7-5.6-1.8-2.6-.9-5.5-1.8-1.9-.6-3.8-2.2-1.5-1.2-1.4.8.3 3.9.4 8 0 .1 0 .3-.1 0-.1.1 0 0 0 0 0 5.8 0 11.3 0 2.2-.4 4.1-.4 2-.6 4.1-.1.4.3.6 2.2 1 4.9 2 5 1.8 8.6 2.7-.3 0-.6.1-.6.1 0 .2c.6.1 1 .1 1.7.3q16 4.7 33.6 6c28.6 2.3 57.3-.7 85.3-6.8q51.6-11.2 100.5-34.3 3.8-1.8 6.9-4.4.2-.2.3-.4.2-.2.2-.5.1-.2 0-.5 0-.3-.1-.5c-2.5-5.5-4.7-11.3-7.4-16.7q-3.8-7.5-7.4-15.3-7.1-15.3-11.8-31.9 0-.1-.1-.2 0-.2-.1-.3-.1-.1-.3-.2-.1-.1-.2-.1l-4.7-2q-.8-.4-.6-1.2 3.4-14.5 6.8-29.7.1-.7.5-1.2.1-.2.3-.4.2-.1.4-.1.3 0 .5.1.2 0 .4.2 4.6 4.9 8.9 9.5c1.8 1.8 3.1 3.9 4.7 5.8q9 9.9 19.2 20.1.3.2.4.5.1.4.1.7 0 .3-.2.6-.2.3-.4.5c-2.2 1.6-9.1.5-11.8 0q-.4 0-.3.4.7 1.9 1.6 3.8 5.1 10.3 8.1 17.3 6.3 14.4 6.8 30.7.4 11.2-3.9 22.8-5.4 14.8-17.4 23-4.8 3.3-13.4 7.1-35.6 15.7-70.4 25-15.2 4.1-33.5 7.6c-2.1.4-4.1 1.2-6.2 1.2q-1.5 0-3.2.3-4.1.6-8.2 1.4-4.2.7-7.8.9-7.3.5-7.8.5-26.1 2.2-52.2-1.1-4.6-.6-16.5-3.5-13.5-3.2-26.2-9.3-.2 0-.3 0-.1 0-.3 0-.1 0-.2.1-.1.1-.2.2c-4.9 6.5-10.7 12.4-17.1 17.5q-14.5 11.7-31.9 20.2-25.6 12.7-54.4 19.3-3.8.9-7.5 2c-.7.2-1.3.1-2 .2q-6.2 1.1-12.1 2.3-2.2.5-4.5.7-1.9.1-4.1.4-43.8 5.7-85.4-1.3-19.6-3.4-39.7-10.7-9.8-3.7-17.8-10.3-7.8-6.4-13.5-12.4-14.4-15.3-31.7-33.3-.6-.7-.9-1.7-.4-1.6 1.2-1.9 1-.1 3.6 1.2c15.3 8 29.8 15.5 46.6 22.6 18.4 7.8 38 12.5 58.5 15q10.3 1.2 18.6 1.6 53.8 2.8 105.1-10.8c25.2-6.7 49.7-16.9 70.9-31.9q.3-.2 0-.5-11.3-8.8-16.9-22.5c-4.9-12.2-7.1-25.2-7.7-37.8-2.8-55.1-6.3-111.7-11-164.8q-1.9-20.3-4.2-39.9-.4-3-.8-5.6-.5-2.9-.9-5.6-2-12.6-5.3-25.4c-.1-.7-.2-1.3 0-2q2.4-5.9 4.9-11.5 1.1-2.5 1.9-5.1.8-2.3 1.8-4.4 1.7-3.4 3.1-7.2.2-.7.8-1.1.2-.2.4-.2.2 0 .5.1.2 0 .3.2.2.2.2.4 1.2 4.4 2.3 8.6.6 2.2 1 4.7.2 1.9.9 4.6.6 2.5 1 7 .1.8.2 0zm0-1q0-.1 0-.3 0 0 0 0 0 .2 0 .3zm72.1 294q.2 0 .4 0 0 0 0 0 0 .1-.1.1-.1-.1-.3-.1zm.4 0q0 0 0 0zm4-62.1c3.4.9 6.7 1.8 10.2 2.3 34 4.9 71.5 0 102.2-16.3q10.9-5.7 21.4-15 .3-.2.2-.6-.7-1.8-1.7-3.4-15.7-24.8-43.7-33c-16.6-4.8-33.6 4.2-46.4 13.6q-15.5 11.5-26.6 26.8-8.5 11.6-12.4 18.4c-.5.8-.7 1.6-1.3 2.4q-.8.9-1.2 2.1-.3.9-1 1.6-.1.1-.1.3-.1.2 0 .3 0 .2.1.3.1.1.3.2z" fill-rule="evenodd"/><path d="m554.6 192.6q.5 1.9.7-.1 1-8.3 2.5-16.2c.3-1.6.3-3.2.7-4.8q.8-3.6 1.5-7.2.5-3 1.4-5.5 1-3 2.1-5.7 1.1-2.7 3.3-4.9c2-2 5.3-2.8 7.7-1q.5.4 1.1.7.6.2 1.2.7 3.9 3.5 6.6 8 .1.2.2.3 0 .2 0 .4 0 .2 0 .4 0 .1-.1.3-1.2 2.9-2.2 5.7c-.4 1.2-.8 3.4-2.1 3.9q-1.3.5-2-.7 0-.1-.1-.2 0-.1-.1-.1-.1-.1-.1-.2-.1 0-.2-.1-2.5-1.4-4.2-3.4-.3-.3-.7-.4l-3.1-.4q-.4-.1-.7.2c-2.8 2.2-3.3 4.9-4.2 8.2q-.4 1.4-.6 2.8-1.7 12.8-3.2 25.7-.4 3.3-2.5 11.1-.4 1.8-1.6 2.8-1.9 1.5-3.6 2.9-.3.1-.5.2-.3 0-.6-.1-.2-.1-.4-.3-.2-.2-.2-.5-2.5-14.2-8.1-27.4-2.8-6.6-7-12.2 0 0-.1-.1-.1 0-.1 0-.1 0-.2 0 0 .1-.1.1l-1.8 2.5q-.1.1-.2.2-.1.1-.2.1-.1.1-.2.1-.1 0-.3 0c-4.6-.8-9.6-2.9-12.3-6.9q-2.3-3.5-.3-7.3 2.3-4.4 4.8-8.9c.6-1.2 1.9-1.6 3.1-1.3q7.8 1.8 13.1 7.9 5.1 5.9 8.4 13.9 3.4 8 5.5 16.8z"/><path d="m764.7 178-74.9 27.5q-.2.1-.5 0-.3 0-.5-.2-.2-.2-.3-.5-.1-.2-.1-.5l1.9-10.5q0-.1 0-.2.1-.2.2-.3.1-.1.2-.2.1-.1.2-.1l74.8-27.3q.3-.1.6-.1.3.1.5.3.2.1.3.4.1.3 0 .6l-1.7 10.3q0 .2-.1.3-.1.1-.2.2 0 .1-.2.2-.1.1-.2.1z"/><path d="m636.5 230.3c2.5-3.4 3.6-7.7 4.3-11.9q0-.1.1-.3 0-.1.1-.2.1-.1.2-.2.2 0 .3-.1.8-.1.9.7c1.7 8.6 1.3 17.5-3.3 25.4-2.7 4.4-8.2 8.7-13.5 7-5.4-1.8-9.2-9-10.3-14q-1.7-7.6.1-15.8c2.4-11.4 6.9-22.2 11-32.9q2.1-5.3 3.4-11.4 0-.3.2-.5.2-.2.5-.3.3 0 .6 0 .3.1.5.4c1.3 1.5 0 8.4-.6 10.5-2.4 9.1-5.7 18.7-7.4 28-.9 5.1-1.2 12.9 2.6 16.9 3 3.2 7.9 2 10.3-1.3z"/><path d="m422.8 236.6q3 .7 5.1-.6c4.6-3 6-9.1 7-14.4q0-.2.2-.4.1-.2.4-.2.2 0 .4.1.2 0 .3.2.4.7.5 1.4c1.1 8.3 1 16.1-3.1 23.5-3.7 6.6-12 11.9-18.4 5-6.2-6.7-7.8-16.1-6.2-24.8q.5-2.4 1-4.8.5-2.6 1.2-4.6 3.9-12.2 9.1-25.2c1.6-4.1 2.6-7.7 3.4-11.6q0-.2.1-.4.1-.1.3-.3.1-.1.3-.2.2 0 .4-.1 1.1 0 1.2 1.2.3 5.2-.9 9.6-3.2 11.2-6.4 23.1-1.3 4.4-1.6 10.3-.4 6.1 2.6 10.8 1.2 2 3.1 2.4z"/><path d="m738 284.5q-3.6-1.5-6.5-.3-1.9.8-3.6 3-1.6 2.1-3.4 4.1-.1.1-.2.2-.2.1-.3.1-.2 0-.3 0-.2 0-.3-.1-.8-.2-.6-1 .9-6.4 2.8-12.1 2.2-6.4 7.4-9 .4-.2.3-.6c-2.7-11.9-6.8-24.4-13.9-34.5q-.1-.2-.2-.2-.2-.1-.4-.1-.1 0-.3.1-.1 0-.2.2l-1.3 2q-.1.1-.2.2-.2.1-.3.2-.2 0-.4.1-.1 0-.3-.1-2.7-.5-5.1-1.4c-5.2-2.1-10.5-6.9-7.4-12.8q2.3-4.2 4.8-8.8c.9-1.8 3.4-1.7 4.9-1.2 15 5.7 21.8 23.9 25.1 38.2q.5 2.1.8-.1 1.6-11.8 3.7-22.9 1.3-7.4 3.6-14 1.4-3.9 3.8-6.8 1.8-2.1 4.3-2.3 2.7-.2 5 1.6 4.1 3.1 6.9 7.4.3.5.7.9.4.3.4.8.1.4 0 .8-.9 2.8-2.2 5.3-.9 1.9-1.7 4-.1.3-.3.4-.2.2-.4.3-.3 0-.5 0-.2-.1-.4-.2-2.8-2.2-5.9-4.4-1.2-1-2.4-1c-3.3-.3-4.8 3.5-5.7 6.3q-1 3.5-1.8 10.8-1.7 15.2-3.7 26.8-.4 2.2-1.3 4.5-.1.1-.1.2.1.2.1.3.1.1.1.2.1.1.3.2c7.2 3 13.3 9.9 17.6 16.8q.3.5.2 1l-2.6 11.2q0 .1-.1.3-.1.1-.2.2-.1.1-.3.1-.2 0-.3 0-7.7-1.3-14.9-.9-2.9.2-7.4 1.7c-3.1 1.1-9 4.9-8.6 8.9.3 2.5.9 4.5 1.2 6.9.6 5.4 2.5 10.6 3 16.1q.2 1.7.7 3.6.5 1.7.8 3.5 1.3 7.7 2.9 15.2.3 1.3.5 2.6 1 6.7 2.1 15.1c1.8 15 1.9 29.7-2.1 44.4q-.4 1.4-1.5 1.3-.1-.1-.2-.1-.1-.1-.2-.2-.1-.1-.1-.2-.1-.1-.1-.2.5-27-4.7-52.8-1-5-2-10.2-1.7-8.6-4.2-18.7-.9-3.4-1.6-7.1-.7-3.4-1.3-7.1-1-5.6-.5-12.6c.3-5.9 2.5-11.7 6.7-15.8q1.9-2 4.2-3.1 1.3-.7 2.8-1.4 1.6-.8 3.2-1.3 2-.7 4.1-1.1.1-.1.2-.1.1-.1.1-.2 0-.1 0-.2 0-.1 0-.2-.3-.4-.8-.3-.2.1-.1-.1 0-.1.1-.2 0 0 0-.1z"/><path d="m315.8 222.5c1.3 1.7 2.7 3.2 3.8 4.9.7 1.1.4 2.4-.3 3.4q-.5.7-.7 1.5-.8 3.2-2.3 5.9-.2.3-.5.5-.3.2-.6.3-.4 0-.7-.1-.3-.1-.6-.3-2-1.8-4.3-3.6-2.1-1.5-3.3-1.7-2.2-.2-3.8 1.9-.3.5-1 2-.5 1-.7 2.1-1.7 7-2.5 14.4-.7 6.5-1.4 12.6-1.1 8.6-3.4 16.2 0 .2-.1.3-.1.2-.2.4-.1.1-.2.2-.1.2-.2.3l-4.2 3.3q-.2.2-.5.2-.2.1-.5 0-.2-.1-.4-.3-.2-.2-.2-.5c-2.6-13.9-6.9-28-15.1-39.6q0-.1-.1-.1-.1-.1-.2-.1-.1 0-.1.1-.1 0-.2.1l-1.7 2.4q-.4.5-1 .4c-6.7-1.2-17.1-6.4-12.2-15q2.2-3.9 4.2-7.7 1.1-2.1 3.3-1.7c3.6.8 6.3 2 9.1 4.2q2 1.6 3.5 3.3 4.8 5.2 8 12.3 4.5 9.6 6.5 19.4.2.9.4 0 .6-3.2 1-6.3.4-3.2.9-6.4 1.2-6.2 2.2-12 .3-2.1.8-4.1.6-2 1-4.1.6-2.5 1.6-4.9c1.8-4.3 5.2-11.4 11.3-8.5q3.4 1.6 5.6 4.4z"/><path d="m366.3 276.2q.2-.4.5-.8 7.7-7.9 16.9-9.9 3.9-.8 7.5 1.4 2.8 1.7 3.8 5.2 1.8 6 .8 11.8-.3 2.1-.7 4.3-.4 2.3-1.2 4.2-1.2 2.9-2.3 5.5-.1.4.2.6 1.2 1.1 2.5 1.9 2.2 1.4 4.4 3.3.7.6.2 1.4l-6.9 12.7q-.1.2-.4.4-.2.2-.4.2-.3.1-.5 0-.3 0-.5-.2l-6.7-4.5q-.8-.5-1.4.3-8.6 11.2-19.8 22.3-7.3 7.3-13.9 12.2-6.9 5-15.8 10-20.2 11.4-37.3 19.7-3.7 1.8-7.7 3.2-.2.1-.5.1-.2 0-.4-.1-.2-.1-.4-.3-.1-.2-.2-.4-.2-.8.4-1.4 1.6-1.4 3.1-2.4 25.6-16.8 40.6-27.4 18-12.9 36.1-29.7 6.1-5.7 9.8-10.3.1-.1.1-.2.1-.1 0-.3 0-.1-.1-.2 0-.1-.2-.2c-7.9-4.9-16.6-11.1-14.8-21.9q.8-4.2 2.7-7.5.7-1.2 2-2.4.3-.2.5-.6zm18.2 17.3c1.3-8-1.4-15.8-11.2-10.4q-1.3.7-.5 2 1.3 2 3.4 3.5 1.1.8 2.2 1.6 1.1.8 2.3 1.3 1.8.9 3.2 2.2.1.1.2.1.1.1.2 0 .1 0 .1-.1.1-.1.1-.2z" fill-rule="evenodd"/><path d="m539.4 324.5q3.1-1.7 4.8-5.8 1.5-3.9 2.2-8.3.2-.8.9-.9.7 0 .9.7 1.4 8.3.3 15c-1 6.8-4.9 14.8-11.7 17.1-5 1.7-8.9-.9-11.7-4.7-7-9.7-5.5-22-2-32.7q3.7-11.6 9-25 2.2-5.7 3.3-11.3.3-1.3 1.5-.8.2 0 .3.1.2.1.2.2.1.1.2.3 0 .1.1.3.3 6-1.8 12.9c-1.3 4.6-2.6 9.2-4 13.8-2.2 7.9-3.8 14.5-3 21.2.2 2.2 1.7 6.3 4 7.6q1.3.8 3.4.9 1.9.1 3.1-.6z"/><path d="m818 345.4c.5-1.3.8-2.7 1.2-4q3.6-9.4 7.1-18.8 1.8-4.6 2.7-9.6 0-.1.1-.3.1-.1.2-.2.1-.1.3-.2.1-.1.3-.1 1.1-.1 1.2 1 .6 4.8-.8 10-3.1 10.8-6 21.3c-1.8 6.4-3.1 14.6-.5 21q.6 1.7 2 2.6 1 .8 2.3 1.3 1.3.5 2.5.3 4.2-.7 6.2-4.7 2.4-4.6 3.3-10.2 0 0 0-.1 0-.1 0-.1.1-.1.1-.1 0-.1.1-.1.5-.7 1-.4.3.2.4.6 1.5 8.4.5 14.8c-1.2 7.4-5.3 16.1-13.1 17.8-6.3 1.4-11-4.9-13.1-9.9-4.2-9.9-1.7-21.9 2-31.9z"/><path d="m884 364.3q-.8-.3-.5.5c.8 2.5 1.8 4.9 3.1 7.1.7 1.3.9 2.9 1.6 4.2 9.5 18.3 14.2 39 6.9 58.6-1.4 3.5-2.4 7.1-3.8 10.6q-4.1 9.8-13.8 19.7c-11 11.4-23.5 21.2-35.9 30.1q-37.3 26.9-75.8 47.5-7.5 4-13.4 6.5-4.3 1.9-9.2 2.7-7.3 1.3-14.5 2.2-30.6 3.9-62.4 4.6-5.2.1-9.9-.6-1.1-.1-1.6-1.1-.1-.2-.1-.4 0-.3.1-.5 0-.3.2-.4.2-.2.4-.3 3.6-1.6 7-2.8c29.6-9.8 58.4-21.6 87.3-35q4.9-2.3 9.9-4.9 23.9-12.4 56.8-33.4 24.4-15.5 45.8-32.4 12.2-9.7 23-21.9.1-.1.2-.3 0-.1.1-.3 0-.1 0-.3 0-.1-.1-.3c-.5-1.7-1.1-3.4-1.8-5q-4-8.1-8-16.4-9.6-19.5-14.5-39.8c-.5-2-4.2-5.2-5.6-6.5q-.1-.1-.2-.2-.1-.1-.1-.2 0-.1-.1-.3 0-.1.1-.2 3.1-14.7 6.2-29.6.2-.9.5-1.7.1-.3.4-.5.2-.2.5-.2.3-.1.6 0 .3.2.4.4 1.9 2.7 3.8 5.1 11.7 15 22.9 29.9 2.2 2.9 3.8 6.5.1.3.1.5.1.3 0 .5 0 .3-.1.5-.1.2-.2.4c-.9 1.2-2 .4-3.1.2q-.6-.1-1.2-.4-2.8-1.4-5.8-2.4z"/><path d="m464.8 445c1.4-2.3 1.4-5.7 1.6-8.4q0-.8.7-1.2.2-.1.5-.1.2-.1.4 0 .3.1.4.3.2.2.3.4c2.1 6.8.7 18.7-3.6 24.2-4.1 5.1-11.2 3.6-14.7-1.2-4.8-6.4-4.2-17.6-2.9-25.7q1.6-9.1 4.2-18.9c1.8-6.6 4-13.5 4.2-20.2.4-13.2-5.9-24.9-15.7-34.1q-.1-.1-.2-.2 0-.1-.1-.2 0-.2 0-.3 0-.2.1-.3l4.8-12.4q.1-.2.2-.3.2-.1.3-.2.2 0 .4.1.2 0 .3.2c9.5 10.3 15.4 21.5 16 35.4q.5 11.8-2.2 22.3-2.2 8.4-4.9 17.6c-2 6.6-5.7 25.5 5.2 26.6 2.1.2 3.7-1.8 4.7-3.4z"/><path d="m237.2 407.9q-1.1 1.3-2.2 2.6c-1.4 1.7-2.5 3.4-3.5 5.3q-.5.9-1.3 1.2-.2.1-.5.1-.2-.1-.4-.2-.1-.1-.2-.4-.1-.2-.1-.4c.3-1.4.3-2.9.7-4.3q1.1-3.6 2.2-7.1 1.4-4.5 2.7-7 2.9-5.8 7.1-10c3.1-3.1 8.1-6.3 12.3-5.5 3.7.6 6.6 4.4 7.9 7.8q2.6 7.2 1.4 16.4c-2.8 21-16.2 37-31.3 50.9q-.9.9-1.8.2-.2 0-.3-.2-.1-.1-.2-.3 0-.2 0-.4.1-.2.2-.3 4.5-6.8 10.9-15.1 5.2-6.7 8.6-14.4c2.3-5.2 4-11.2 3.2-16.8-.7-5-4-8.5-9.5-6.3q-3.8 1.6-5.9 4.2z"/><path d="m351 432.4 13.4-28.7q.1-.2.3-.4.2-.2.5-.3.3-.1.6-.1.3.1.5.2l27.7 14.4q.2.1.4.3.2.2.2.5.1.2.1.5 0 .3-.1.5l-13.3 28.6q-.1.2-.4.4-.2.2-.4.3-.3.1-.6.1-.3 0-.5-.2l-27.7-14.3q-.3-.1-.5-.3-.1-.2-.2-.4-.1-.3-.1-.6 0-.2.1-.5z"/><path d="m534.9 586.3q0 0 .1 0 0 0 0 .1 2.1 21.5 4.1 43 .4 4.3 1.3 18.8c1 15.6 1.5 31.8-1.1 47.3q-.6 3.7-1.9 8.3-1.3 4-2.5 8.1-.9 2.8-1.9 5.1-1.6 3.9-2.4 5-1.6 2.2-3.3 4.4-.1.1-.1.1 0 .1.1.1 0 .1 0 .1.1 0 .1 0 5.7.5 11.8 1.7 2.3.5 8.2.8 0 .1 0 .1-.3 0-.6 0-.6.1 0 .2l29 4.1q0 0 .1 0 .1 0 .1-.1.1 0 .1-.1.1-.1.1-.2-3.4-61.1-9.2-123.3-.7-7.4-1.5-14.8-1-8.8-2.1-17.5-1.6-13.4-6.7-34.4-.1-.4 0-.8c.5-1.4.9-2.8 1.5-4.1q2.8-5.8 4.8-11.8.6-1.8 1.5-3.3 1-1.8 1.5-3.4.4-1.6 1.1-2.9.7-1.5 1.3-2.9 1.5-3.5 2.7.1.9 2.4 1.7 5.8.3 1.1.3 2.2c-.1 1.1.5 1.7.7 2.7q.2 1.4.6 2.6c.4 1.5.2 3 .7 4.4q.3.9.4 1.7 0 .8.1 1.7 1.2 6.4 2.3 12.7c.4 2.3.4 4.6.8 7q1 6.2 1.8 11.4c0 .6-.2.8-.1 1.3q3.2 26.2 5.5 54.4 4.6 56.6 7.1 113.3 0 .3.4.4 21.5 2.5 42 3.5c12.7.7 25.3.5 38.5.4q1 0 2 .3.2 0 .3.1.2.2.3.4.1.1.1.3 0 .2-.1.4l-14.4 30.8q-.1.1-.1.3-.1.1-.3.1-.1.1-.2.2-.2 0-.3 0-9.5.2-19.5.1-10.4 0-14.9.2-15.6.9-30 4-.1 0-.2.1-.1 0-.2.1-.1.1-.1.3 0 .1 0 .2.9 7.6 3.2 15.3.9 3 1.9 5.6 5.2 14.5 18.7 19.9 6.4 2.5 14.3 2.9c16.2.9 34.5-3.8 46.4-15.7q8.2-8.2 15.4-15.3 3.6-3.6 7.5-6.5 1.9-1.5 4.5-2.1.2-.1.5 0 .3 0 .6.1.2.1.4.3.2.2.3.4c.6.9.3 2.3 0 3.2-1.5 4.6-2.5 9-1.3 13.9q3.1 13.1 14.9 20 .7.4 1-.3c10.7-20.8 24.4-41.4 39.3-59.1 8.2-9.8 17.7-17.7 28.3-25.1q9.9-6.8 19.2-9.5 8.4-2.4 18.8.4c28 7.3 52.3 30.4 52.2 61q0 6.7-2.3 14.2-2.5 8.2-6.7 15.8 0 .1 0 .2 0 .1 0 .2.1.1.2.1.1.1.2 0c18-4.8 36.1-11.2 52.5-19.8q.2-.1.3-.3.2-.2.3-.4.1-.2.2-.4 0-.2 0-.4-.9-17.5-2.4-36.6-4.9-67.3-13.8-176.7-1.6-20.3-3.4-39.6-.1-1.1-.5-2.1l-4.7-13.1q0-.1 0-.3-.1-.1-.1-.3 0-.2.1-.3 0-.2.1-.3 2.9-7 5.6-13.7.2-.4.2-.9 0-.3.2-.6 1.6-2.9 2.7-5.9.7-1.9 1.5-3.8.9-1.9 1.7-3.9.3-.7.7-.9.4-.2.8 0 .4.1.5.5 1.5 3.9 3.3 7.9 0 .1.1 0 0 0 0 0 .1-.1.1 0c.7 1.7 1 3.4 1.8 5q1.5 2.6 2.2 6 .1.6.4 1.3 4.7 12.1 10.1 27.4 4.1 11.6 6.2 20.9c.2 1 .2 2.6 0 3.7q-.1.3-.4.6-.2.3-.6.5-.3.2-.7.2-.4 0-.7-.2-1.3-.6-2.4-1.7c-3-3.1-5.7-6.3-8.7-9.4q-.5-.6-.5.2 1 13.9 2.1 27.8 5.8 71.4 11.1 141 1.8 23.9 1.7 46.1c-.1 10.2-1.2 20.7-4.3 30.4q-1 3.3-2.2 7-4.5 14.8-18.5 21.4-18.2 8.7-38 14.6-39.7 11.7-81.4 14.2-16 1-32.5 1.7-13.2.6-26.1-2.2c-17.6-3.9-31.4-13.8-37.6-31.2-1.5-4-2.1-8.1-3.1-12.2q-.1-.2-.2-.4-.2-.1-.4-.2-.2-.1-.4-.1-.3 0-.5.2-1.2.8-2.2 1.9-10.3 11.9-18.8 19.7c-12.2 11.3-30.8 15.8-47.3 14.8-7.8-.5-15.2-2.6-21.9-7.2q-12.5-8.7-18.7-23.1-2.6-5.9-4.1-11.4-2.3-8.5-3.6-17.9-.4-3-.4-5.8 0-3.1-.3-6-.1-.6-.7-.4-5.3 2.3-10.4 4.8-15.9 7.9-31.1 15.2-5 2.4-14.6 6.3-21.9 9-42.5 13.6c-21.3 4.7-50.7 6.8-65.8-11.8q-4-5.1-7.5-13-4-9.4-6.7-19.7-3.6-14.4-5.6-25.1-1.1-6.4-2.7-10.8-.3-.6-1.1-3.5-.5-2-2-4.4-.7-1.1-2.2-1c-1.5 0-2.4 1.6-3 2.8q-1.8 3.6-3.8 7.8c-3.9 8.2-9.8 17.2-17.2 21.9q-8.2 5.3-17.5 5.1-.1 0-.2 0-.1.1-.1.2-.1 0-.1.1 0 .1 0 .2 2.1 8.9 3.5 17.5.5 2.6.7 5.5c1.3 14.1 1.2 27.4-1.4 40.4-3.3 15.5-12.5 28.2-25.1 38.2-36.8 29.1-79.5 51.8-125.1 60q-14.8 2.6-30.6 1.2c-43-3.8-66.6-40.7-70.1-80.6q-1.5-17.1 1.4-35.5 1.1-6.8 2.9-12.7 1.8-5.7 3.6-11.1.2-.5-.3-.4c-15.1 2.4-25.1-9.7-27-23.7-1.9-13.3 1.1-27.4 5.7-40.4q5.6-16 12.4-31.5.5-1.3.9-2.5c.4-1.2 1.1-2.3 1.5-3.5q4.5-12.4 9-25.6.5-1.3 1.7-1.5.3-.1.5.1 1 .8.8 2.3-2.9 18.1-8 32.8-3.8 11.2-7.7 22.3-2.7 7.8-4.2 15.8c-1.7 9.6-1.1 20 5.6 27.5q3.4 3.8 7.4 4.4 3.9.6 8-.6c5.6-1.6 7.3-7 9.3-11.9q.4-1 1.6-.7.4.1.5.5.2.8.1 1.7-1 11.5-4.8 21.2-2.1 5.6-3.5 10.5-4.1 15.3-5.6 31.4c-1.6 15.7 1.7 32.4 9 46.6 7.3 14 19.4 24.1 34.5 28.6q7.5 2.2 16.9 2.8 15 1.1 30.3-1.6c43.2-7.6 83.3-28.7 118.6-55.7q9.5-7.3 18.7-17.1c.8-.8.5-1.4.4-2.4q-1-8-2.6-15.7 0-.1.1-.3.1-.2 0-.4-2.1-9.5-3.4-14.5-6.3-23.3-17.7-44.6-.4-.7-.2-1.7 2.8-15.5 5.5-31 .7-4.1 3.1-.6 5.3 7.8 11.1 13.8 2.5 2.6 6.5 5.4 2.8 1.9 5.7 2.7 4.6 1.3 9.7.6 12-1.7 19.2-10.9.9-1.2 2-3.2c.8-1.5 2.2-3.5 2.4-5.2.2-.8.8-1.5 1-2.3q1.5-5.3 3.4-10.3c.4-.9.4-1.9.7-2.7q1.3-2.9 2.6-6.1.8-2.1 3.2-3.8 1.7-1.3 3.5-.8 2.5.8 3.5 1.9 2.3 2.7 3.8 5.2c1.1 1.8 1.4 4 2.2 6q.9 2.3 1.4 4.7.6 3.5 1.3 6.6.9 4 1.3 8.5 1 10.6 2.6 21c.3 2.5.9 4.9 1.7 7.4q.9 3.1 1.7 6.1 1.8 6.6 6.9 15.1c14.8 24.3 52.2 18.7 74.7 12.7q28.8-7.8 58.2-22.6.4-.2-.1-.3-43.2-7.1-83.6-12.4-6.9-.9-14.8-1.6-15.3-1.5-30.5-2.5-.7-.1-.9-.8-.2-.6.1-1.2 1.7-4 3.2-8.1 4-10.6 8-20.8c.8-2.1 3.4-2.9 6.2-3.5 6.7-1.3 13.5-2.6 20.5-3.6 19.1-2.7 37.5-5.3 56.2-8.6 3.6-.7 6.9-1.7 10.2-2.9q.1-.1.2-.1.1-.1.2-.2 0-.1 0-.2.1-.1.1-.3-.3-5-.6-10.2-3.7-62.8-10.3-123.3-.1-1.3-.3-2.5-.1-1.3-.5-2.5-2.3-6.7-5.1-13.5-.1-.3 0-.7 1.4-3.8 3-7.4.8-1.9 1.5-3.8.4-1.3 1-2.5.6-1.1 1.1-2.6.7-2.4 1.9-4.4c.8-1.5 1-3.1 1.8-4.5q.7-1.5 1.4-3.1 1.5-3.6 3 0 .9 2.3 1.9 4.6.2.3.1.7c0 1.5 1.6 4.1 2.3 5.5q.4.9.5 1.8c.5 2.8 1.9 5 2.8 7.6.1.4 0 .7.1 1.1q3.7 10.6 7.1 21 2.3 7 5 15.9c.2.5.5.8.6 1.4q1.5 6.2 2.1 10.1c.1.8.2 2.1-.4 2.7q-.8.8-1.8.2c-.6-.4-1.2-.7-1.7-1.3q-4.4-5.1-8.2-10.1-.5-.7-.4.1c.1 2.7.6 5.4.6 8.2q0 .1.1.2zm12.5 143q0 0 0 0zm192.5 96.7q.1 0 .1 0 .1.1.2.1 6.2 1.7 11.7 2.3c28.3 3 57.6-2.4 84.4-12.6q17.7-6.7 32.1-20.4.4-.3.2-.7-.6-2.1-2.1-4.4-14.8-22-38.6-30.2-6.4-2.3-11-2.7c-11.7-1-23.7 4.3-33.7 10.9-10.9 7.2-19.9 14.9-27.9 24.7q-9.9 12.3-17.7 25.5 0 0-1.1 2.1-.7 1.5-1.9 2.9-.1.1-.1.3-.1.2 0 .3 0 .2.1.3.2.1.3.1 2.4.6 5 1.4 0 0 0 .1z" fill-rule="evenodd"/><path d="m658.3 513.1q5.4 3.3 10.5 6.4.3.2.4.4.2.2.2.4.1.3.1.5 0 .3-.1.5l-13.7 28.6q-.1.3-.3.5-.3.2-.6.3-.3.1-.6 0-.3 0-.5-.2-14.1-8.7-28.7-16.9-.1-.1-.3-.1-.2 0-.3 0-.2 0-.3.2-.2.1-.3.2l-13 23.5q-.9 1.5-2.4.6-13.3-8.1-26.4-15.2-.2-.1-.3-.3-.2-.1-.2-.3-.1-.2-.1-.4 0-.2.1-.4c.5-1.2.8-2.6 1.6-3.8q.9-1.6 1.6-3.3.7-1.8 1.5-3.4 1.7-3.2 3.4-7.1 1.3-2.8 2.7-5.6 1.4-2.9 2.6-5.7.1-.2.3-.4.2-.2.4-.2.2-.1.5-.1.2 0 .4.1 1.3.5 2.5 1.2 13.3 7.4 26.1 15.3.7.4 1-.2c3.8-6.8 7.6-13.5 11.2-20.3q1.1-2.3 2.6-4.3.1-.1.3-.2.2-.1.4-.2.2 0 .4 0 .2.1.4.2 4.1 2.6 8.6 4.7 1.1.5 1.9 1.2.9.7 1.8 1.1 1.2.6 2.3 1.3 1.2.8 2.3 1.4z"/><path d="m871.9 560c3.8 2.6 8.3-.5 10.1-4q2.3-4.2 3.2-10 .1-.9.9-.9.1 0 .3 0 .1 0 .2.1.1.1.2.2.1.1.1.3c1.5 8.4 1.3 16.4-2.5 23.8-4.1 8.1-13.3 13.1-20.1 4.2-5.6-7.4-6.4-17-4.4-25.8 2.8-12.1 7.6-23.7 12-35.3q1.4-3.7 2.2-8.3.3-1.2 1.4-1.1.4.1.6.5c1.2 3.6-.3 9.8-1.4 13.5q-5.1 16.8-6.5 23.8c-1.1 5.8-1.7 15.3 3.7 19z"/><path d="m997.2 584.4c.2 1.9.2 3.9.7 5.8.2 1 0 2 .1 3q.2 3.1.5 6.3 6.8 91.7 14.2 185.3.8 10.8.4 21.5-.4 7.2-1.8 14.3-2.7 14.1-6.9 26-.5 1.3-1.2 2.3-.2.3-.5.5-.4.1-.7 0-.4 0-.7-.3-.2-.2-.3-.5-.6-2-.7-4.2c-.6-12.1-1.1-23.6-2.1-35.5q-4.7-58-9.6-115.9-.4-4.9-.8-10-4.5-56.3-8.9-112.3c-.2-3-1.3-5.2-2-8q-1-4.4-2.9-8.4-.1-.1-.1-.3 0-.2 0-.3 0-.2 0-.4 0-.2.1-.3 1.2-3.2 2.7-6.6c.3-.5.2-1.1.5-1.6q1-1.8 1.5-3.5.7-2.3 1.3-3.5 2.7-5.3 4.5-10.5.5-1.6 1.3-3.2.7-1.4 2.1-.6.7.4.8 1.3.5 2.6 1.5 4.6.9 1.7 1.5 3.7c.6 2.2 1.9 4.3 2.5 6.6q.4 1.7.8 2.6.8 2.2 1.5 4.5 1 3.3 1.5 4.6 6.1 17 11.6 36.6 1.2 4.2 1.5 7.7.1.9-.4 1.5-.2.3-.5.4-.3.1-.6.2-.3 0-.6-.1-.3-.2-.5-.4-4.4-4.3-8-9c-1-1.3-1.8-2.8-2.9-4.1q-.5-.5-.4.2z"/><path d="m209.6 557c.5.3 1.2.5 1.6.9q4 3.7 7.1 8.2.2.2.3.5 0 .2.1.5 0 .2 0 .5-.1.2-.2.5l-3.9 9.1q0 .2-.2.4-.2.1-.4.2-.2 0-.4-.1-.2 0-.4-.2-2.5-2.2-5.2-4.3-2.5-2-5.3-.9c-3 1.3-4.5 10.4-4.9 13.9q-1.2 10.6-2.6 21-1 7.5-3.1 14.1-.1.2-.1.3-.1.1-.1.2-.1.1-.2.2-.1.1-.2.2l-4.2 3.4q-.2.2-.4.2-.3 0-.6 0-.2-.1-.4-.3-.2-.2-.2-.5c-2.7-13.5-6.9-28.7-15.2-39.6q-.2-.3-.5 0l-1.9 2.6q-.3.3-.8.3-3.3-.7-6.2-2c-4.8-2.2-9.3-6.9-6.4-12.3q2.3-4.3 4.5-8.4 1.3-2.5 4.4-1.6c6.8 2 12 6.6 16 12.9q5.9 9.6 8.8 21.2.7 2.4 1.4 4.9.2.9.3 0 1.4-9.7 3.2-20.2 1.7-10.2 4.6-18.4 1.7-4.5 4.5-7 3.1-2.8 7.2-.4z"/><path d="m386.6 577.7q-2.2 1.1-4.3 1.8-1.6.5-3.1 1-24.9 8.5-48.1 16.7-5.5 2-9.8 3.3-3.7 1.2-7.1 2.5-3.5 1.4-7 2.5-1.5.4-3.1 1.1-1 .4-2 .7-1.1.2-2.1.5-6.9 2.7-14.3 5.1-2.2.7-4.2 1.4-2.1.8-4.2 1.5-16.3 5.5-32.3 11.3-.6.2-1.1-.4-.1 0-.1-.1-.1-.1-.1-.2 0-.1 0-.3 0-.1 0-.2l1.8-10.2q0-.2.1-.4.1-.2.2-.3.2-.2.3-.3.2-.1.4-.2 11.6-4 12.8-4.4 5.7-2.2 11.1-4 5.1-1.8 10.3-3.6 2.9-1 5.7-1.9 3.1-1.1 6.1-2.3c.4-.2.7-.1 1.2-.3q46.3-15.9 93.5-32.3 2.3-.8 4.5-1.8 2.2-1 4.4-1.6 2.5-.6 4.1-1.4 2.1-1.2 3.9-1.5 1.6-.2 2.9-.9 1.9-1 3.9-1.5.3-.1.6 0 .3.1.5.3.2.2.3.5.1.3.1.6l-1.6 10.2q0 .1 0 .3-.1.1-.2.2-.1.1-.2.2-.1.1-.3.2-2.6.9-5.2 2c-.7.3-1.6.2-2.3.5q-3.6 1.8-5.4 2.3-4.7 1.5-8.9 3-.5.2-1 .2-.4.1-.7.2z"/><path d="m484.3 616.7c3.4-2.1 5.5-7.8 6-11.5q.2-1.4.5-2 1.3-2.9 1.8.2 1 5.5.6 11.7c-.4 7.2-4 15.8-10.6 19.2-9.4 4.7-15.9-6.7-17.3-13.8-2-9.9.8-20 4.3-29.6q3.8-10.5 7.4-19.9 1.8-4.6 2.8-9.7 0-.1 0-.2.1-.1.1-.2.1-.1.1-.2.1-.1.2-.2.7-.7 1.2-.2.4.2.5.6c.9 3.1-.2 8.5-1.1 11.4q-5 16.8-6.9 25.5-1.2 5.6-.4 11.8c.6 5.5 5 10.5 10.8 7.1z"/><path d="m827.8 581.2q-.1 0-.2.1-7 2.4-13.2 4.6-2.2.8-4.5 1.6-2.3.7-4.5 1.5-8.4 3.1-17.1 6-4.8 1.6-9.6 3.4-4.7 1.6-9.7 3.3-4.1 1.4-8.6 3-1 .4-2.2.8-3.4 1.2-6.4 2.1-1.3.4-5.3 2.1c-1.1.5-2.4.4-3.5.9q-3.4 1.5-6 2.3-2.2.6-4.3 1.4-2.2 1-4.4 1.6-2 .6-4.1 1.4-2.1.8-4.2 1.4-3 .9-6.3 2.3c-.7.2-1.3.2-1.9.4q-3.6 1.4-6.9 2.5-14.2 4.8-32.7 11.5-.1 0-.2 0-.1 0-.1 0-.1 0-.2 0-.1 0-.2 0-1.1-.1-1-.9.9-5.5 1.9-10.7 0-.2.1-.3 0-.1.1-.2.1-.1.2-.1.1-.1.2-.2 17.2-6.1 33-11.5c2-.7 4.8-2 7.3-2.7 1.6-.4 3.5-1.3 5.4-1.7q1.3-.3 2.2-.6c2.1-.9 4.2-1.9 6.5-2.5 3.4-.9 6.6-2.6 10-3.5q2.5-.7 4.8-1.8.9-.4 1.9-.6 1.2-.3 2.4-.7 35.3-12 82.4-28.6 4.2-1.5 8.7-3.3.2-.1.3-.1.1 0 .3 0 .1 0 .3.1.1 0 .2.1.7.4.6 1.2-1 5.5-2 10.6 0 .1 0 .2-.1 0-.1.1-.1.1-.1.1-.1 0-.1.1l-8.9 3.1q-.2.1-.3.2z"/><path d="m659.1 603.1q-2.6-2.2-4.2-3-4.6-2.2-6.6 2.3c-1.4 3.4-2.4 7.3-2.8 11.1q-1.4 13.2-3.1 24.6-.6 3.8-2.1 9.3-.5 1.8-1.6 2.8-1.9 1.7-3.8 3-.2.1-.4.1-.3.1-.5 0-.3-.1-.4-.3-.2-.2-.2-.5c-2.5-13.5-7-28.1-15-39.4q0-.1-.1-.2-.1 0-.2 0-.2 0-.3 0-.1.1-.1.2l-1.8 2.4q-.3.4-.7.3c-6.5-1.1-17.4-6.4-12.4-15q2.2-3.8 4.2-7.8c1.3-2.5 4-1.6 6.1-.9 14.6 5.5 21.1 24.4 24.4 38.4q.2 1.1.4 0 1.2-7.7 2.3-15.5.2-1.1.4-2.3 1.2-6.9 2.9-13.7 1.5-6.4 4.2-11.2 1-1.9 3.1-3.2 2.9-1.8 6.3-.2 2.8 1.4 4.6 3.6 2.3 2.8 4.5 5.9.1.1.2.3 0 .1 0 .3.1.2 0 .3 0 .2 0 .4c-.4.9-.5 1.8-.9 2.7q-1.6 3.3-3 6.6-.1.2-.2.4-.2.1-.4.2-.2.1-.4 0-.2 0-.4-.1c-.9-.5-1.3-1.4-2-1.9z"/><path d="m960.5 602.3q.4.2.6.6c.9 1.8 2.1 3.3 2.9 5.1q3.9 10 4.3 18.5.6 14.1-2.9 25.6-3.7 11.6-5.8 21.8-1.7 8.1.7 15c.3.7.8 1.4 1.2 2q.3.4.8.6.8.3 1.3.9c.9 1 2.4 1 3.6.9q.9-.1 1.6-.7 2.2-2.1 2.9-4.4.8-3.2 1-6.8 0-.1 0-.2.1-.2.2-.3 0-.1.1-.2.1-.1.2-.2 1-.5 1.4.3 1 1.5 1.2 3.7.5 7.3-.9 13.3-.7 3.2-2.8 6.5-3 4.6-8.2 4c-7.4-.8-10.4-8.9-10.7-15.1q-.2-3.8-.2-8.4.1-3.2 1.9-13.3.2-1.1.5-2.1.3-1.1.6-2.1 1.5-5.7 3.1-11.6.6-2.3 1-4.4c.4-2.1 1.1-4 1.5-6 2.6-15.7-3.5-29.2-15.1-40.2q-.4-.4-.2-.9l4.8-12.4q0-.2.2-.3.2-.2.4-.2.2 0 .4 0 .2.1.3.2 4.3 4.8 8 10.2.1.2 0 .4 0 .1.1.2z"/><path d="m302.9 666.7q8.5-3.6 14.7-6.8.7-.3 1.5-.6 3.5-1.6 6.3-3.6.5-.3-.1-.4-10.2-2.2-20-1.8c-3.1.2-6.4 0-9.5.4q-1.9.2-3.8.3-4.3.1-8.3 1.2-1.1.3-2.1.1-.5-.1-.6-.7-.1-1.1.8-2.6 7.2-12 14.3-23.8.1-.2.3-.3.1-.2.2-.3.2-.1.4-.1.1-.1.3-.1 21.3-3.2 42.7 1.8c3.2.7 6.5 2 9.3 3.7q.3.2.4.4.2.1.2.4.1.2.1.5-.1.2-.2.4-6.3 11.5-12.6 22.4-5.7 9.9-15.6 17.5-1.6 1.3-5.1 1.9-4.9.8-9.7 1.4-13.8 1.5-26 2.6c-1.1.1-3.5.4-4.1-1q-.1-.3-.1-.6 0-.3.1-.5.1-.3.3-.5.2-.2.5-.2 7.6-2.8 14.1-6.3 2.2-1.2 4.5-2 2.8-.9 5.1-2.2.4-.2.9-.3.4-.1.8-.3z"/><path d="m405 651.5c.2-1.2.9-2.1 1.3-3.2q3-6.8 3.9-14.2.1-.4.4-.7.7-.6 1.3-.1.3.2.4.5.8 2.7 1.5 5.3.6 2 .3 4.2-.3 2.1-.5 4.1 0 .2.1.3 0 .1.1.2.1.1.2.2.2 0 .3 0 3.6-.3 6.9.8 3.6 1.2 5.7 3.6c4 4.4 4.5 10.4 3.7 16.1q-.7 4.7-1.5 9.5-.8 5.1-4.4 9.5-4.5 5.3-10.9 6-6.2.7-11.2-3.6-.9-.8-2.8-4.2-.6-1-.8-2.3-.3-1.3-.6-2.4-1.3-5.3.2-12.5c.4-1.9.6-3.8 1.4-5.6q2-4.9 4-9.7.3-.7.7-1.2 0 0 .1-.1 0-.1.1-.2 0 0 0-.1.1-.1.1-.2zm18.1 23.9q1.7-1 3-2.3.5-.5.2-1.1c-1.2-3.5-3.4-5.6-6.8-6.9-3.9-1.6-7.8-2.3-11.9-1.3q-.2.1-.3.1-.1.1-.2.2-.1.1-.1.2-.1.1-.1.2-2.1 6.5 1.9 9.9c3.9 3.4 9.7 3.7 14.3 1z" fill-rule="evenodd"/><path d="m759 686.3q5.3 2.5 10 .1 5.1-2.5 7.6-7 1.5-2.8 1.1-7.1-.9-8.9-4.4-17.8-.3-.8 0-1.4 1.7-4.2 3.5-8.4.1-.1.2-.2.1-.1.2-.2.1-.1.2-.1.1-.1.2-.1.7 0 1 .5 1.7 3.2 2.3 6.5 1.6 8.1 2.9 17.5.5 3.1 1.9 6.7 2 5.1 7.5 6.7c4.8 1.5 13.8.3 9.7-7.4q-2.8-5.4-5.2-10c-2.4-4.7-2.7-9.3-.9-14.4.7-2.2 1.7-6.1 3.2-7.6q.2-.2.5-.3.3-.1.6 0 .2.1.4.3.2.3.2.5 1 7.5 4 13.7 1.7 3.5 3.4 7.6 4.9 11.8-1.5 22.4c-2.4 4-5.9 8.1-10.2 9.8-6.9 2.8-13.9-1.5-17.3-7.5q0-.1-.1-.1-.1-.1-.2-.1-.1 0-.1.1-.1 0-.2.1c-5.5 10.4-16.2 19.7-27.5 9.3q-3.8-3.5-5.2-9.5-2.2-9.9-.6-20.6.4-3.1-.8-5.7c-1.5-3.1-.2-6.4 1.7-8.9q2.5-3.2 5-6.3.2-.1.4-.2.2-.1.4-.1.2 0 .4.1.2.1.3.3 2.6 4.1 1.8 9.5-1 5.6-2 10.6-.4 2-.3 4.2c0 2.1-.2 4.2.3 6.2q.9 3.2 3.6 6.7.8 1 2 1.3.4.1 0 .1 0 0-.1 0-.1.1.1.2z"/><path d="m892.2 698.2c.8-2 1.1-4.2 1.6-6.4q.1-.4.4-.5.4-.3.8 0 .3.1.4.4 1.4 7.4.6 14.1c-.9 7.1-4.9 16.3-12.6 18.4q-5.5 1.6-9.9-3.6c-9.9-11.7-5.7-27.8-1-40.6q3.7-10.1 7.5-20 1.6-4.2 2.7-9.8.1-.4.4-.6.5-.4 1.2-.1.1 0 .1.1.1 0 .2.1 0 0 .1.1 0 .1.1.2c.8 3.7-.4 9.2-1.4 12.7q-4.9 16.3-6.6 24.2-1.1 5.3-.7 10.6c.4 4.4 2.8 10 8 9.5 3.3-.2 6-3.2 7.2-6.4q.4-1.2.9-2.4z"/><path d="m160.8 715.6c8.3 1.8 10.4-9.9 11.6-15q0-.1 0-.2.1-.1.2-.2.1-.1.2-.1.1-.1.2-.1.4-.1.7.2.2.2.3.6c1.6 8.4 1.2 17.3-3.2 24.9-3.9 6.8-12.2 11.2-18.4 4.1-10.5-11.8-5.9-28.5-1.1-41.8q3.3-9 6.7-17.7 2-5.3 3.2-11 .2-1.1 1.2-1.1.2 0 .4.1.2.1.3.2.1.1.2.3.1.1.1.3c.4 3.6-.1 7.4-1 10.9q-2.9 9.8-5.7 19.7-1.6 5.9-2.1 12.1-.4 6.3 2.3 11.1 1.1 2 3.9 2.7z"/><path d="m202.9 706.5 13.4-28.7q.1-.3.3-.4.2-.2.5-.3.2-.1.5-.1.3 0 .6.2l27.7 14.4q.2.1.4.3.2.2.2.5.1.2.1.5 0 .2-.1.5l-13.3 28.6q-.2.2-.4.4-.2.2-.4.3-.3.1-.6.1-.3 0-.5-.2l-27.8-14.3q-.2-.1-.4-.3-.1-.2-.2-.4-.1-.3-.1-.6 0-.2.1-.5z"/><path d="m711.3 739.1q-.6 9.2-3.3 18.2-.5 1.5-1.6 2.4-1.7 1.5-3.6 2.9-.2.1-.4.1-.2.1-.4 0-.2 0-.4-.2-.2-.1-.2-.3-.3-.6-.4-1.2-2.6-15.1-9.2-29.3-2.5-5.2-5.7-9.3-.1-.1-.1-.1-.1 0-.2 0-.1 0-.2 0 0 0-.1.1l-1.6 2.3q-.1.1-.2.2-.1.1-.3.1-.1.1-.2.1-.2 0-.3 0-7.5-1.2-11.5-5.7c-2.7-3.1-2.5-6.3-.4-9.9q2.2-3.8 3.8-7 1.2-2.2 3.4-1.7 7 1.6 11.9 6.6 4.9 5.2 8.3 12.4 4.4 9.2 6.6 19.2.3 1 .5 0 1.8-8.1 2.9-16.9.4-3 1.1-6.2.7-3 1.3-6.2.5-2.8 1.4-4.9c.9-2.1 1.2-4.3 2.4-6.2q2.2-3.4 4.5-4.9 2.2-1.3 4.9-.3c1.3.5 2.4 1.1 3.3 2q1.6 1.5 3 2.8 1.1 1 1.9 2.4.8 1.3 1.6 2.5.7 1.1.2 2.4l-3.3 7.9q-.2.4-.5.7-.3.3-.7.4-.4 0-.8-.1-.5-.1-.8-.3-2.2-2-4.4-4-.5-.5-1.3-.8c-1.8-.6-3.5-1.2-4.8.8q-2.5 3.6-2.8 6.1-.4 2.4-.9 4.9-.4 2.4-.7 4.8-.8 7.1-1.4 14.6 0 0-.1 0 0 0 0 0l-.1-1.4q-.1-.8-.1 0z"/><path d="m246 810.1q-.4.8-1.2.2-.9-.7-1.8-1.5-.7-.7-1.8-1.3-1.2-.7-2.3-1.5-1.4-1-2.4-1.2-2.4-.4-3.8 2.1-2.2 3.9-2.9 9.2-1.8 13.5-3.3 26.1-.5 3.7-2.4 10.7-.5 1.7-1.6 2.7-1.9 1.8-3.8 2.9-1.2.8-1.5-.6c-2.7-14.1-6.9-27.8-15-39.5q0-.1-.1-.1-.1-.1-.2-.1-.2 0-.3.1-.1 0-.1.1l-1.8 2.4q-.3.5-.8.4c-5.6-1-13.3-4.4-13.5-10.6q-.1-2 1.7-5.3 1.9-3.5 4-7.4.2-.3.5-.5.2-.3.5-.4.3-.2.7-.3.3 0 .6 0c5.9.7 11.6 4.9 15.1 9.5q7.4 9.8 11.1 23.5.9 3.4 1.9 6.7.1.4.2 0 1.8-13.5 4.1-25.7c.9-4.5 2.2-9.2 3.6-13.7q.4-1.2 2.2-3.9c2.1-3.1 4.4-4.9 8.5-3.8q1.6.4 3.3 2 1.8 1.8 3.3 3.4 2 2.3 3.5 4.8.1.1.1.2.1.1.1.1 0 .1 0 .2 0 .2 0 .3-.1.4-.4.8-.3.3-.4.6-.7 2.2-1.7 4.5-.8 2-1.9 3.9z"/><path d="m452 887.4q-1.4.7-3 1.4-1 .5-2.1.9-2.3.7-3.9 2.5-.7.8-1.6.6-.2-.1-.4-.2-.2-.1-.2-.2-.1-.2-.2-.4 0-.2.1-.4 1.7-5 3.6-10.1.4-1 1.3-3.7c.8-2.3 1.6-5.2 3.8-6.6q2.5-1.5 5.1-2.5 57.3-21.9 115.1-43.9.1-.1.2-.1.1 0 .2 0 .1 0 .3 0 .1 0 .2.1.8.4.5 1.2-3.3 9.1-6.3 17.4-.1.2-.3.5-.1.2-.3.4-.2.2-.4.3-.2.1-.5.2-45.5 17.3-95.6 36.5-6.2 2.4-12.6 4.8-1.5.6-3 1.3z"/><path d="m953.9 860.8c4-4.6 12.1-9.5 17.6-3.7 5.8 6.1 5.9 17.2 4.2 24.9-.6 2.6-1.1 5.2-2 7.8-5.7 15.8-16.2 28.4-28.7 39.8q-.5.4-1.1.5-.3.1-.5 0-.3-.1-.5-.3-.1-.3-.2-.5 0-.3.2-.6c3.6-6.3 8.3-11.7 12.6-17.6q4.5-6.3 7.7-14.2 3.5-8.5 1.6-16.9-.6-2.7-3.1-3.7c-6-2.3-9.8 2-13.3 5.8-2 2.1-3.1 4.7-4.9 7.1q-.2.1-.4.2-.2.1-.5 0-.2 0-.4-.2-.1-.2-.2-.4-.1-1 .1-2 1.8-7.5 3.8-13.4.7-1.9 1.6-3.7c1.3-2.2 2.4-4.5 4.1-6.4q1.2-1.2 2.3-2.5z"/><path d="m683.8 856.2c4.9-1.1 8.9 2.9 10.6 7.2q2.4 5.7 2.1 12.8-.2 6.7-1.7 11.7c-5 16.5-14.8 29.5-27.6 41.3-1.1 1-1.9 1.9-3.2 2.6q-.2.2-.4.1-.3 0-.5-.1-.2-.2-.3-.4 0-.2 0-.4.2-1.2 1-2.3 4.3-6.3 9.2-12.5 7.1-9 10.6-18.8c.4-1.1.7-2.3 1-3.4 1.5-4.9 2.4-17.3-6.1-16.6q-4.3.3-7.7 3.7-3.8 3.9-6.3 8.6-.5.9-1.4 1.3-.2.1-.5.1-.2 0-.4-.2-.2-.1-.3-.3-.1-.2 0-.5 1.5-8.6 4.4-15.7 3.3-8.4 9.9-14.2 3.5-3 7.6-4z"/><path d="m351.6 891.2c2.5 1.1 5 2.6 7.5 4q10.4 6 21.1 12.6.5.3.7-.2l13.5-24.1q.1-.3.3-.5.3-.1.5-.2.3-.1.6-.1.3 0 .6.2 3.4 1.7 7 3.7 10.1 6 20.3 12.2.3.2.4.4.2.2.2.4.1.3.1.5 0 .3-.1.5l-13.6 28.4q-.8 1.6-2.3.7-14.2-8.8-28.8-17-.1-.1-.2-.1-.1 0-.2 0-.1.1-.2.1-.1.1-.1.2-6.3 11.3-12.7 22.7-.3.5-.5 1-.8 1.6-2.3.6-14.1-8.4-26.5-15.1-.2-.1-.3-.3-.2-.1-.2-.4-.1-.2-.1-.4 0-.3.1-.5l13.4-28.6q.1-.3.3-.5.2-.2.5-.2.2-.1.5-.1.3 0 .5.1z"/></svg>