<svg height="1080" viewBox="0 0 1080 1080" width="1080" xmlns="http://www.w3.org/2000/svg"><clipPath><path d="m67 47h946.22v985.65h-946.22z"/></clipPath><path d="m851.7 209.7q-.2-.4-.2-.8 0-3.1-.3-6.7-1.6-17.4-2.9-33.8-.7-8.7-1.8-17.8-.1-1.2-.5-2.3-2-6.7-4.5-12.7-.5-1.3 0-2.6 5.6-13.4 11.1-26.5c.5-1.2.5-2.6 1.6-3.3q.2-.2.5-.2.2 0 .4 0 .3.1.4.3.2.1.3.3l2.9 6.6q.2.4.2.8 0 .2.1.5.7 1.4 1.4 2.9.7 1.3 1.1 3.1.6 2.6 1.9 4.9.2.3.2.7.1.8.4 1.4 1.4 3.1 2.6 6.7 1.2 3.8 2.4 6.9 6.3 16.2 10.4 30.6 1.4 4.7 1.5 7.9c.1 1.9-1.5 3.6-3.3 2.1q-4.5-3.5-8.1-7.9-1.3-1.6-2.7-3.2-.8-.9-.6.2 1.3 12.8 2.2 25.3.1 1.3.2 2.5 5.4 71.3 11.1 144.3 1.4 18.3 2 37.5.4 16.7-1.5 31.2-1 7.4-5.7 21.3-4.1 12.2-15.7 19-9.7 5.7-19.7 6.8c-18.1 2-40.1-4.5-47.1-23.3q-1.1-2.9-2.1-6-.1-.2-.3-.3-.2-.2-.4-.3-.3 0-.5.1-.2 0-.4.2c-1.1 1.2-2.2 2.5-2.9 4-7.5 15.3-18.4 27.9-36 30.4q-5.4.8-11.2-.8c-8.6-2.4-14.6-8.8-17-17.4q-1-3.5-1.7-7.1-.3-1.6-1.1-.2c-7.3 12.6-16.4 24.2-30.2 30-17.5 7.3-38.3 4.7-49.7-11.6-3.5-5.2-6.1-12.2-9-18.2-1.5-2.9-4-8-7.4-8.3q-2.9-.3-6.7.5c-18 3.6-36.4 15.5-45.6 31.9-.7 1.2-.8 2.6-1.6 3.7q-.4.7-.6 1.5-.7 3.4.3 6.8.7 2.1 1.3 4.3.7 2.8 2.1 5.3 5 9.4 14 16.6c9.6 7.6 20.6 13.3 31.5 18.7q.2.1.3.2.1.1.2.3.1.2.2.3 0 .2 0 .4l-1.2 34.5q0 .4-.1.7-.2.3-.5.5-.3.2-.6.2-.4.1-.7-.1-11.2-4-23.1-9c-14.2-5.8-28.2-13.1-39.7-23-25.3-21.6-31.8-52.3-33.4-84.8q-2.7-55.5-6.7-104.7 0-.2-.1-.3-.1-.2-.1-.4-.4-8-1.3-15.8-.8-7.9-1.5-15.5-.9-10-2.2-19.8c-.1-1.2-.1-2.4-.2-3.6q-1.2-9.9-2.5-19.4c-.4-3.2-.6-6.3-1-9.6q0 0-.1-.1 0-.1-.1-.1 0 0-.1-.1-.1 0-.2.1l-30.5 10.6q-.2.1-.5 0-.2 0-.4-.2-.2-.1-.3-.3-.1-.2-.1-.5 0-.2 0-.6.9-5.3 1.9-10.5 0-.1.1-.2 0-.2.1-.3.1-.1.2-.1.1-.1.2-.2l27.6-9.6q.1-.1.2-.1.1-.1.1-.2.1-.1.1-.2 0-.1 0-.2-.7-3.4-1.3-7-.6-3.5-1.4-6.8-1.4-6.2-2.9-12.9-.1-.4 0-.8c.7-1.9 1.3-3.9 2.3-5.7q.8-1.6 1.2-3.4.2-.8.6-1.4.4-.6.7-1.2 3.9-9.2 7.6-18.5.6-1.3 1.8-.5.3.2.4.6.4 2.2 1.2 4.3.9 2.2 1 4.5.2 2.2.9 4.2 1 2.9 1.4 6.3.3 2.6.8 5.1.5 2.9 1 6.1.2 1.3.5 2.5.4 1.1.5 2.3.8 7.6 2.3 15.4 0 .4.5.4c2.9-.2 5.2-1.8 7.9-2.6q1.8-.5 3.6-1.2 1.7-.7 3.4-1.2 5.6-1.5 11.2-3.9c1.8-.8 3.8-1 5.5-1.8 1.8-.9 3.7-1.3 5.6-1.9q29.3-10.1 59.3-20.9.2-.1.3-.1.2 0 .3 0 .2.1.3.1.2.1.3.2.3.3.2.7-.9 5.3-1.8 10.6 0 .2-.1.4-.1.3-.3.4-.1.2-.3.4-.2.1-.5.2-5.9 2.2-11.2 4.2-1.8.7-3.9 1.4-2 .6-3.9 1.5-.5.3-.9.2-.6 0-1 .2-2.6 1.2-5.4 2.1-2.7.8-5.4 1.8-2.5 1-5 1.7-2.6.8-5 1.7-4.7 1.8-9.3 3.3-3 1-5.8 2.1-2.8 1.1-5.8 2.1c-2.3.7-4.4 1.6-6.7 2.3q-1.4.4-2.8 1c-1.8.8-3.8 1.2-5.7 1.8q-1.4.5-2.7 1-7.2 2.5-12.3 4.4-.2 0-.3.1-.1.1-.2.2-.1.2-.2.3 0 .2 0 .3-.1 1 .1 1.9.2.9.3 2 .3 6.5 1.3 14.3.3 2 .6 4.4 1.4 12.4 2.3 22.5 4 43.1 6.3 88.3.9 18.1 1.8 36.6.9 18.2 4.2 34.9.5 2.8 1.3 5.4.8 2.7 1.5 5.4.3 1.6 1.2 3.5c.7 1.5.9 3 1.6 4.6q4 9.8 10.6 18.1.7.8.4-.2-1-4.7-1.1-9.5c0-1.7.3-3.7.4-5.6q.1-1.2.3-2.3.9-4 1.5-7.8.4-2.3 1.2-4.5 9.1-24.8 27.5-41.7c11.9-11 26.7-18.2 43.2-18.5 6.4-.1 9.4 4.8 11.6 10.1q2.6 6.7 5.8 13.9c5.8 13.6 21.1 18.4 35 17.4 10.9-.7 19.7-6.2 27-14.3q4.4-4.8 7.9-9.9 5.8-8.7 10.7-15.2 2.5-3.2 5.8-5.2c2.6-1.6 8.1-2.2 5.6 3.1q-2.7 5.8-3.6 11.4-2 11.2 5.2 18.3c3 2.9 7.5 4 11.7 3.9q14.1-.1 24.3-10.3 7-6.9 11.9-15.5 2.5-4.4 3.4-5.9 1.9-2.8 3.7-5.7 1.5-2.5 3.9-3.8c2.2-1.2 3.6.4 3.2 2.6q-.5 2.4-1.1 4.8-1.3 5.4 1.5 10.4 5.8 10.4 17.5 14.9 17.7 6.8 35.5.7 5.9-2 12-5.8.3-.2.4-.6.2-1.1.2-2.4-3.1-47.9-7.4-100.9-.7-7.5-1.2-15.6c-.8-10.8-1.8-21.5-2.5-32.3q-1.1-14.1-2.4-28.1-.5-5.1-.8-11.1-.2-5.4-1-11.1 0-.3.1-.5.2-.3 0-.5z"/><path d="m664.2 130.2c.7-1.9.8-3.9 1.4-5.8q.2-.4.6-.6c.8-.3 1.6.3 1.6 1.2q.4 6-1.4 11.9-3.9 12.8-6.5 23.5c-1.4 5.7-2.3 14.5.9 19.6 3.3 5 9.3 3.9 12.2-.7q2.9-4.6 3.9-11.5 0-.2.1-.3 0-.1.1-.3.1-.1.3-.2.1-.1.3-.1.8-.2.9.6c1.7 8.9 1.4 17.9-3.2 25.9-4.2 7.3-12.9 11.5-19.4 3.8-10.2-12-5.8-29.3-.8-42.4q4.9-13 9-24.6z"/><path d="m300.2 151.3q1 1.3 1.8 2.7.2.3.1.8l-2 5.3q-.1.3-.3.5-.1.1-.2.2-.1.1-.2.2-.4 1.4-.7 2.7c-.3 1.8-2.1 2.2-3.3.8q-2.8-3.2-5.7-4.3-1.7-.7-3.9-.5-.4.1-.6.4-2.4 2.6-3.1 6.1c-.7 3.2-1.4 6.4-1.8 9.6q-1.3 11.2-2.7 21.6-.7 5.7-3 13.3 0 0-.1.1 0 .1 0 .1-.1.1-.1.2-.1 0-.2.1l-4.5 3.7q-.2.1-.5.2-.3 0-.5-.1-.3-.1-.5-.3-.2-.2-.2-.5c-2.6-14.2-7.1-29.1-15.5-40.8q0-.1-.1-.1-.1-.1-.2-.1-.1 0-.2.1-.1 0-.2.1l-1.8 2.5q-.3.5-.8.4c-7.4-1.3-17.7-6.6-12.7-15.5q2.2-4.1 4.5-8.3c.7-1.3 1.9-1.7 3.3-1.4q7.7 1.7 13.4 8.1 3.1 3.6 5.1 7.1c4.3 7.6 7.6 16.3 9.3 25.2q0 .1.1.1.1.1.2.1.1 0 .2-.1.1-.1.1-.2 1.5-11.1 3.3-21.3.9-5 2-10 .8-3.6 1.9-6.5 1.1-3 2.6-5.7c1.8-3.1 4.9-5.8 8.7-4.6q2.4.8 4.5 2.8 2.3 2.3 4.5 5.2z"/><path d="m463.7 171.9q-.1.4-.1.8-.1.3-.4.6-.2.2-.5.3-.4.1-.7.1-.3-.1-.6-.4-3.4-3.4-7.5-5.4c-5.3-2.5-7.3 9.1-7.7 12.1q-1.5 10.9-2.8 22-1 8.8-3.4 16.6-.1.2-.1.3-.1.1-.2.3-.1.1-.2.2-.1.1-.2.2l-4.3 3.6q-.2.2-.5.2-.3.1-.6 0-.2-.1-.4-.4-.2-.2-.3-.5c-2.5-14-7-28.5-15.2-40.4q-.1-.2-.3-.3-.1-.1-.3-.1-.2 0-.4.1-.2.1-.3.3l-1.3 2q-.1.1-.2.2-.1.1-.2.2-.2 0-.3 0-.2.1-.3 0c-5.2-.7-11.4-3.4-13.5-8.5q-1.2-3 .4-6 2.7-5.3 5.2-9.6.6-1 1.7-1.2.7-.2 1.6.1 9.2 2.7 15.1 10.6c6.2 8.5 10.1 18.9 12.3 29.1q.5 2 .8 0 .9-6.3 2-12.7 2.2-14.2 4.2-21.4c1.1-3.9 2.9-8.6 5.8-11.5q2.5-2.6 5.7-1.8 3.6.9 6.3 3.8 2.7 3.1 5.2 6.7.2.4.1.8-1.2 4.7-3.5 8.5-.1.2-.1.5z"/><path d="m394 487.2q-.5-1.1-.8-2.2-.1-.4-.3-.7-.3-.3-.4-.6-.7-2.4-1.5-4.5-.4-.9-.5.1-.8 4.7-1.8 9.2-1.3 5.6-3.7 12-4.2 11.1-13.2 19.9-8.9 8.7-16 14.7-35.8 30.3-79 47.6-18.6 7.4-37.9 10.8c-19 3.4-40.6 3.4-58.1-6-29.9-16-43.5-43.5-44.7-76.6q-1.4-37 12.1-72.9 2.1-5.7 5.5-11.6.9-1.5 2.2-2.5.3-.3.7-.3.4 0 .7.1.4.2.6.4.2.3.2.7.2 1.4-.2 3c-6.7 26.8-13.8 54.1-7.7 82 4.1 18.3 14.9 32.8 31.5 42.4q7.5 4.2 14.8 6c10.7 2.6 22 3.1 33.3 1.9q21.3-2.4 42.6-10.3c37.7-13.9 74.6-37.5 102.5-67.4q3.9-4.1 7.4-9 .7-1.1.6-2.4c0-4.7-.1-9.6-.4-14.3q-2.8-45.9-5.7-92.9-3.3-53.1-7.1-105.9-2-28.6-4.4-52.5c-.1-1.1 0-2.1.5-3.1q2-4.1 3.5-8.5.6-1.8 1.6-3.5c.8-1.5.9-3 1.8-4.5q1.1-1.8 1.8-3.8c1-2.9 2.5-5.6 3.6-8.5q.1-.2.2-.3.1-.1.2-.2.1-.1.3-.2.1 0 .3 0c.6 0 1.1.5 1.2 1.1q.9 4.4 1.8 8.4.6 2.7.9 5.6.2 2.7.9 5.8.5 2 .8 4.2.3 2.2.4 4.2c.4 4.9 1.2 9.7 1.6 14.6q3.1 31.8 4.5 59.3 2.7 55.4 5 95c1.1 18.3 3.1 39.3 4 52.3.7 11.6 2.3 24.1 5.9 35.2 2.9 8.9 7.8 17 16.5 21.2 10.7 5.3 25.9 3.6 37-.7q3.7-1.4 6.7-3.9.1 0 .1-.1.1-.1.1-.2 0-.1 0-.2 0-.1 0-.2-.7-2.1-1-4.2-.5-4.6-2.5-11-4.3-13.3-11.2-25.3c-.3-.6-.2-1.2-.1-1.8q2.9-15.5 5.6-31.4 0-.2.1-.3 0-.1.1-.2.1-.1.2-.1 0-.1.1-.2 1-.5 1.7.5 16.7 22.8 19.7 52 2.1 20.8-6.1 40.7c-3.6 8.7-9.1 16.4-18 20-10 4.1-22.3 5.4-32.5 3.1-9.7-2.1-16.6-8.7-22.1-16.8q-3.6-5.2-5.5-10.2-.2-.5-1-2z"/><path d="m681.2 227.1q-2.1.9-4.4 1.7-16 5.4-33.1 11.6-.8.2-1.4-.4-.3-.3-.1-1.3.9-5.4 1.8-10.3.1-.7.8-.9 11.6-4 22.7-8.1 1.1-.4 2-.7 2.7-.7 5.1-1.9c.6-.2 1.1-.1 1.7-.3q3.1-1.1 7-2.8c1.1-.4 2.4-.5 3.5-1q2.2-1 4.3-1.6 2.4-.6 4.3-1.4c1.8-.8 3.9-1.3 5.8-1.9q26.7-9.3 53.3-18.6c1.3-.4 2.5-1.2 3.9-1.4 1.6-.2 3.3-1.1 4.9-1.7q15.4-5.3 30.9-11 .2-.1.5 0 .3 0 .5.2.3.2.4.5 0 .2 0 .5l-1.9 10.6q0 .2-.1.4 0 .1-.1.2-.1.1-.3.2-.1.1-.2.2-5.6 2.3-11.8 4.4-6.1 2-12 4.2-2.2.9-4.4 1.6-2.2.7-4.2 1.5-1.4.6-4.4 1.5-2.1.6-4.2 1.6c-.7.4-1.6.2-2.2.5q-2.3 1.1-4.9 1.9-2 .6-4.2 1.4c-1.8.8-3.7 1.2-5.6 1.9q-3 1.2-5.9 2.1-5.2 1.7-10.3 3.7-1.8.7-3.7 1.2c-1.7.4-3.2 1.4-5 1.8q-1.9.5-3.8 1.2c-2.6 1.2-5.4 1.8-8.1 3-1.3.6-2.7.6-4 1.2q-3.4 1.5-7.1 2.5c-1.5.4-2.8 1.2-4.3 1.5q-.9.1-1.7.5z"/><path d="m939.5 461.5q-.1 1.3-.1 2.7 0 .1 0 .1-.1 0-.1-.1c.2-1.9-.3-3.8-.4-5.8q0-1.7-.1-3.3-10.5-128.4-18.4-227.8-.3-3.5-1.3-6.7-1.3-4.3-2.6-8.1-.5-1.4-1.2-3.1-.1-.1-.1-.2-.1-.2-.1-.3 0-.1.1-.3 0-.1.1-.3l11.9-29.1q1.6-3.7 2.9.1.8 2.1 1.8 4.3.5 1.2 1.6 4.4.8 2.2 2 4.3.2.3.1.7c-.1 1.8 1.4 4.2 2 6q.9 2.8 1.9 5.2.1.3 0 .6 0 .3.1.6c5 14.2 10.1 29 13.5 43.5q.5 2 .4 4.3 0 .3-.1.6-.2.3-.5.5-.3.2-.6.2-.3.1-.6-.1-.9-.3-1.5-1-5.8-6.7-10.1-12.3-1.1-1.3-.8.4.5 3.1.6 6.2c.2 6.4.9 12.9 1.4 19.2q7.1 91.9 14.1 183.8 1.1 14.6-.9 31.7-.1 1.2-1 4.6-.6 2-1.1 4.7-.7 3.8-1.9 7.5-.5 1.7-.8 3.6-.2 1.3-.8 2.5c-1.2 2.4-1.8 5.2-2.8 7.4q-1.8 3.8-3.2-.1c-.6-1.8-.5-4.8-.7-7q-.3-2.1-.4-4.3-.1-4.1-.5-7.9c-.4-4.7 0-9.5-.5-14.2q-.9-9.4-1.2-17.7-.1-.7-.1 0z"/><path d="m805.3 231.1q-2.4 3.2-4.7 7-.1.3-.4.4-.3.1-.5.1-.3-.1-.5-.2-.3-.2-.3-.5-.2-.8-.1-1.5c2.7-12.4 6.8-25.6 18.4-32.2q7.4-4.3 12.6 1.7 3.3 3.7 4.4 10.5 1.2 7.1.1 11.6-.7 3-1.3 6-.5 2.7-1.5 5.1-1 2.4-2 4.9c-6 13.9-16.4 26.3-27.7 36q-2.3 2-2-1.1 0-.5 1-1.9 5.1-7.1 10.4-13.9 5.2-6.6 9.6-17.1c.9-2 1.1-4.4 1.7-6.6.9-3.2 1-6.9-.1-10q-.6-1.6-1.2-3.1-.1-.2-.2-.5-.2-.2-.3-.3-.2-.2-.4-.3-.2-.2-.5-.2-2.4-.8-5.3-.4-2.3.3-4.8 2.2-2.7 2-4.4 4.3z"/><path d="m196.6 290.5q-.3.9-.9 2.2-3.6 8.1-8 14.4-9.1 13-20.6 22.6-.2.1-.4.1-.3.1-.5 0-.2-.2-.3-.4-.2-.2-.1-.5.1-1.4 1-2.6 5.4-7.6 10.6-14.3 5.4-7.1 9.4-16.7.8-2 1.2-4c1.2-4.6 2-8.6.6-13.3q-.9-3-2.5-3.8-2.3-1.4-5-.7-4.5 1-7.6 4.2-3.7 3.9-6.3 8.9-.5.8-1.4 1-.2 0-.4 0-.2-.1-.4-.2-.1-.2-.2-.4-.1-.2 0-.4 1.3-8.5 4.6-16.7 4.7-11.4 15-17.4 2.2-1.2 5.5-1.1 2.4.1 4.2 1.6 2.2 1.9 3.4 4.1 2.8 5.4 3.1 11.8.3 10-3.2 19.3-.1.1-.8 2.3z"/><path d="m317.2 258.2q1.7 1.5 2.4 3.3c3.2 8.8.8 19.3-3.2 27.5q0 .1 0 .2-.1.1 0 .3 0 .1.1.2 0 .1.1.2l7 5.1q.2.2.4.3.1.2.1.5.1.2 0 .4 0 .2-.1.4l-7.4 13.3q-.1.2-.3.3-.1.2-.3.2-.3.1-.5.1-.2-.1-.4-.2l-7.4-4.9q-.4-.3-.7.1-8.4 10.5-18.3 21-14 14.6-32 24.7-15.4 8.5-31.8 17.1-8.3 4.4-15.3 7-.7.2-1.5 0-.2-.1-.4-.2-.2-.2-.2-.4-.1-.2-.1-.5.1-.2.2-.4 1-1.3 2.3-2.2 16.6-10.8 34.5-23.1 25.5-17.4 47.9-38.6 4.8-4.5 8.2-8.7 0-.1.1-.2 0-.2 0-.3 0-.1-.1-.2-.1-.1-.2-.2c-7.4-4.7-16-10.4-15.6-20.3q.2-4.3 1.8-7.8 1.6-3.4 4.4-6.3c5.7-5.8 18.6-14.6 26.3-7.7zm-10.7 14.7q-1-1-2.2-1-4-.2-7.3 2.6-.5.4-.2 1 .5 1.1 1.4 2 4.5 4.4 10.4 7.4.1 0 .2 0 .1 0 .2 0 0 0 .1-.1 0-.1.1-.2c.5-2.9.7-7-1.1-9.6q-.7-1.1-1.6-2.1z" fill-rule="evenodd"/><path d="m737.4 261.8q10.2 5.1 17.8 9.6.2.1.3.2.1.1.1.3.1.2.1.4 0 .2-.1.3l-13.7 29.7q-.2.3-.5.6-.3.2-.7.3-.4.1-.7 0-.4-.2-.7-.4-.9-.9-2.1-1.3-1.1-.4-2-1.1-1.2-1-2.6-1.4-1.3-.5-2.4-1.5-1-.9-2.3-1.4c-1.5-.6-2.9-1.6-4.4-2.1q-1.8-.5-3.2-1.7-.3-.3-.8-.4-2.2-.5-3.9-2-.4-.3-.8-.4-1.6-.3-2.9-1.1-.3-.2-.5-.5-.2-.2-.3-.5-.1-.3-.1-.7 0-.3.2-.6l13.6-29.3q.1-.2.3-.3.2-.2.4-.2.2-.1.4-.1.2 0 .4.1 5.6 2.8 11.1 5.5z"/><path d="m619.6 288.3c-2.1-.1-3.3-.9-4.9 1.1-2.9 3.7-3.7 10.2-4.2 14.7q-1 8.1-2 16.6-.9 8.3-3.3 17.1-.5 1.7-1.6 2.7-2.1 1.7-4 3.1-.5.3-.9.1-.5-.4-.6-.9c-2.8-14.4-7.1-28.6-15.4-40.7q-.1-.1-.2-.2-.1 0-.2 0-.1 0-.2 0-.2.1-.2.2c-.7.9-1.7 3-3.1 2.7q-.4-.1-.8-.2-7.8-1.5-11.4-6.6c-2.3-3.3-1.4-6.3.4-9.5q2.2-3.9 4.1-7.3c1.4-2.7 3.9-1.2 6-.8q1.3.3 2.4.9c13.5 7.8 18.6 23.1 22.5 37.3q.1.4.5.6.1 0 .1 0 .1 0 .2 0 0 0 .1-.1 0-.1 0-.1 1-6.5 2-13 1.4-9.6 3.8-19c.1-.6 0-1.1.2-1.8q.7-1.9 1.6-4.1c1.7-4.1 4.1-10 9.7-9.3q2.4.2 4.5 2 4.3 3.8 7.2 8.4.1.2.2.5.1.3.1.6 0 .3-.1.5-.1.3-.3.6-.2.4-.1.9 0 .4-.2.7-2 3.5-3.2 7.2-.1.2-.2.4-.2.1-.4.2-.2.1-.4.1-.2 0-.4 0c-1.1-.4-1.7-1.4-2.7-2.1q-2.1-1.6-4-3.2 0-.1-.1-.2-.1 0-.2 0-.1-.1-.2-.1-.1 0-.1 0z"/><path d="m775.1 337.7-29.3-17.3q-.1-.1-.3-.1-.1 0-.3 0-.1.1-.3.2-.1 0-.1.2l-14.1 25.1q-.7 1.3-2 .6-13.1-8.1-27.2-15.7-.2-.1-.3-.2-.1-.1-.2-.3-.1-.2 0-.4 0-.2 0-.3l13.7-29.7q.1-.2.3-.3.1-.2.4-.3.2-.1.4-.1.3.1.5.2 4.9 2.2 10.2 5.2c.9.5 1.7 1.2 2.7 1.8q7.7 4.7 16 9.7.8.5 1.2-.4 1.4-3.1 3.2-6.2 3.8-6.6 7.1-12.7 1.9-3.5 4.2-6.8.1-.1.2-.2 0-.1.2-.1.1 0 .2 0 .1 0 .2 0 2.1.8 3.9 2c1.2.7 2.5.7 3.4 1.6q.5.5 1.1.9 11 6.5 20.3 12.1.1.2.3.3.1.2.2.4 0 .2 0 .4 0 .2-.1.4l-14.1 29.5q-.1.2-.3.3-.1.2-.4.3-.2 0-.5 0-.2 0-.4-.1z"/><path d="m447.3 325.7q2 .2 4 .5 6 .8 12.1-2.3 10-5.1 19.9-11.5.1-.1.3-.1.1 0 .2 0 .2-.1.3 0 .1 0 .3.1.9.5.8 1.5-.6 5.2-.9 10.7-.1.3-.1.6-.1.3-.3.6-.2.2-.4.5-.2.2-.5.4-16.6 10.2-33.1 20.6-9.4 5.9-18.4 12.4-.1.1-.3.2-.1 0-.3.1-.1 0-.3 0-.1 0-.3 0-.9-.3-.6-1.2 1.1-4.6 2-9.4c.7-3.2 2.5-5.9 4.9-8.1q.1-.1.1-.2.1-.1.1-.3 0-.1-.1-.2-.1-.1-.2-.2-2.4-1.5-4.6-3.3c-3.8-3.3-7.7-8.8-7.1-14.1q.3-2.3 2.1-5.4 5.3-9.7 10.5-16.5c3.1-4.1 7.8-8.6 12.9-10.3q3.6-1.2 7.2 0c4.5 1.5 8.9 7.4 7.5 12.6q-.4 1.6-.7 3.4-.3 1.6-.9 3.1-1.3 2.7-2.1 5.1 0 .2-.1.3-.1.2-.3.3-.1.1-.3.2-.2.1-.3.1-1.7.4-2.2-1-.4-1.1-.7-2.1 0-.1-.2-.1-.1-.1-.1.1 0 0 0 0 0 .1 0 .1 0 0 0-.1 0 0 0 0-2.9-4.5-7.2-6c-5.4-1.9-11.8 2.4-15.5 6.2q-.1.1-.2.2 0 .1 0 .2-.1.1-.1.2 0 .1.1.2c.8 2.7 2.5 6.1 4.9 7.8q1.9 1.3 3.8 2.5.4.3.8.2.2 0 .4 0 .3 0 .5.1 1.6.9 3.3.9.2 0 .3.1.1.1.1.1.3 0 0 0-.5 0-1 0-.7.2 0 .2z"/><path d="m325.3 434.8c7.8 1.2 10.6-9.5 11.4-15.1q.1-.8.8-1 .1-.1.3 0 .2 0 .3.1.2.1.3.2.1.1.1.3c1.5 8.4 1.3 16.4-2.2 23.8-4.1 8.5-13.5 14.7-20.9 5.4-9.9-12.5-5-29.3-.1-42.6q3.8-10.4 7.5-20.1 1.7-4.5 2.6-9.5 0-.1 0-.2.1-.1.2-.2.1-.1.1-.2.1-.1.3-.1c.8-.4 1.6.2 1.6 1.1q.4 5.6-1 10.5-3.4 11.9-6.4 22.7c-1.6 6.1-4.4 23.6 5.1 24.9z"/><path d="m435.3 848.2q-.9 4.7-2.1 9.2c-.4 1.2-.3 2.4-.7 3.6-1.6 5.6-3.1 10.8-5.7 16.1-4.4 8.8-10.8 16.7-18 24.2q-25.6 26.8-53.8 46.3-18.2 12.7-37.3 21.3c-12.5 5.6-26.4 9.3-39.4 6.8-29.9-5.7-31.1-43.8-28.8-66.9q.9-9.2 2.4-17.9 0 0 .3-3.7.2-1.8.8-3.5 1-2.6 1.3-5.3.2-2.3.9-4.7.9-2.9 1.7-6.3 1.2-5 7.3-23.9.2-.4-.2-.6-7.3-4.6-13.6-12-6.5-7.7-9.7-13.1-4.3-6.9-8.8-14.7c-3.4-5.9-8.7-12.2-13.9-15-6.1-3.3-11.9-1.9-17.4 1.7-10 6.4-16.5 14.5-22.2 24.6q-3.7 6.6-6.7 13.3-4.5 10.1-9.5 22.8-6.1 15.6-12.9 27.8-4.4 8-10.5 13.8c-7.3 7-17.4 10.7-26.8 5.8q-6-3-10.5-8.5-13.4-16.2-18.4-35.1-1.6-5.8-2.6-11.7-1.8-9.7-2.4-21.8-.5-8.8-.4-15.9.1-19.3 4.8-38.4c.4-2 1.8-7.6 3.6-8.9q.3-.2.6-.2.4-.1.7.1.3.1.6.4.2.2.3.6.5 2.4.3 4.6-1.3 12.4-2.2 25.3-.6 9.1 0 26.8.2 3.9.7 8.1.6 4.2 1 8 .5 4.9 1.9 8.9c.1.4 0 .8.1 1.1 2.8 9.2 8.2 19.4 15.1 25.6q8.4 7.5 19 3.5c11-4.2 18.9-16.9 23.6-27.3.2-.4.6-.7.8-1.1q1.7-3.2 3.1-6.6.5-1.3 1.2-2.5c.7-1.1.8-2.4 1.4-3.5q2.5-4.4 4.3-9.3.9-2.3 2.1-4.5 1.3-2.2 2.1-4.5.7-1.9 1.7-3.7.7-1.3 1.2-2.5.5-1.3 1.2-2.6 1.2-2.2 2.4-4.6c6.5-13 15-26.1 25.4-35.6 9.6-8.7 21.7-15.5 33.7-6.3q5.8 4.5 9.9 11.7 3.9 6.7 8 13.9 5.8 9.8 14.3 19c17.5 18.8 43.4 18.4 65.6 9.6q9.5-3.8 16.5-11c7.4-7.6 12.9-15 19-23.6q6.1-8.5 13-15.5 4.4-4.5 9.9-7.8 3.7-2.3 6.9-2.1 4.8.2 7 4.4 1.1 2.1 1.3 5.9.5 8.2-.7 14.2-1.6 8.3-4.9 16.4c-.4 1-1.3 1.9-1.9 2.7q-2.2 2.9-4.5.4c-1.1-1-.9-2.4-1.7-3.5q-2.1-2.8-5.4-2.6c-4.4.3-7.8 3.9-10.6 7.3q-7.1 9-15.2 19.7c-6.7 8.8-14.8 17.8-23.9 24.2q-4.8 3.4-12.1 6.1-9.6 3.7-19.7 4.7-10.6 1.2-21.5-1.1-1.6-.3-3-1-1.3-.5-2.4-.9-.5-.2-.7.3-4.9 15.8-8.4 31.9c-.2 1.1 0 2.1-.3 3.2q-1.1 5.3-1.8 10.5c-1.3 9.2-1.3 20.5.8 29.1q1.1 4.2 3.5 8.4c8.4 14.4 25.7 13.1 39.2 8.5q12.5-4.2 24.9-10.7c30.6-16.2 58.2-38.9 82.8-63.7 5.8-5.8 11.7-12.9 15.6-20.3.4-.9.6-2 .7-2.9q.6-17.4-2-36.4-1.6-12-3.9-22.5c-.3-1.1-.2-2.2-.5-3.3-1.4-5.3-2.4-10.8-4-16.2q-.6-2.2-1.1-4.7c-.5-2.2-1.4-4.3-1.9-6.4q-.6-2.9-1.4-5.3-.9-2.4-1.4-4.7-.6-2.3-1.6-4.7c-.9-2.1-1.2-4.5-1.9-6.8q-.2-.5-.6-.3c-2 1.1-4.1 1.8-6.3 2.3-1.8.5-3.2 1.4-5 1.9q-2.9.7-5.5 2.1c-.9.4-2 .7-3 .8q-.3 0-.5-.1-.3-.1-.5-.3-.1-.3-.2-.5-.1-.3 0-.6 1.2-5.4 1.8-10.2.1-.3.2-.5.1-.2.2-.4.2-.2.4-.3.2-.2.4-.3 6.6-2 12.9-4.7.4-.2.7-.2h.5q.7 0 .4-.6l-7.8-20.8q-.1-.3 0-.6l8.3-33.1q1-3.9 3-.4 3.5 6.4 6.6 12.5 1.8 3.7 3.6 7.4 1.8 3.7 3.3 7.4 3.9 9.3 7.4 18.6.1.1.2.2 0 .1.2.2.1 0 .2 0 .2 0 .3 0 1.8-.7 3.7-1.2c1.9-.4 3.5-1.5 5.5-1.9 1.7-.3 3.1-1 4.6-1.6q.9-.4 1.9-.7 10.3-3.1 16.8-5.8 2.1-.8 4-1.4 1.5-.3 2.8-.8 8.4-2.8 15.8-5.6c.5-.2 1-.2 1.5-.4q34.1-11.8 62.6-22.1.6-.2 1.1-.2.2 0 .4.1.2.1.4.3.1.2.2.4 0 .2 0 .5l-1.8 10.2q0 .3-.2.5-.1.2-.2.4-.2.2-.4.4-.2.1-.4.2-23.8 8.6-48.3 17.1-.7.2-1.3.4-.7.3-1.3.5-.6.2-1.2.5-.7.2-1.3.4-1.6.6-3.1 1.1c-1.7.5-3.4 1.5-4.8 1.8q-2.8.6-5.3 1.7-1.7.7-3.5 1.2-1.8.5-3.6 1.2-1.8.8-3.8 1.3c-2 .6-3.9 1.7-5.9 2.1q-1.6.4-2.1.6-1.8.8-3.2 1.2-2.2.6-3.2 1.1-3.2 1.4-4.8 1.8-2.1.5-4.2 1.4-1.7.7-3.4 1.1-1.6.5-3.3 1.3c-2.2.9-4.7 1.4-6.9 2.3q-.1 0-.2.1-.1.1-.1.2-.1.1-.1.2 0 .2 0 .3c.7 1.9 1.6 3.7 2 5.8q.4 2 1.1 4.1.6 2 1.2 4.2.9 3.4 1.8 6.9 9.4 37.1 11.9 72 1.7 22.4 4.7 40.5c.4 2.7 1 5.6 1.9 8.3q.4 1.1.5 2.1.1 1.1.4 2.1 1.1 3.5 2.4 7.3 1.7 5 4.4 10 4.2 7.7 10.6 11.2c14.5 8 33.7 5.7 48.8-.4 14-5.6 24.9-16.8 30.8-30.2 1.1-2.4 3.7-1.1 4.8.4q.1.1.2.2.2.1.3.1.2 0 .3-.1.1-.1.2-.2 6.7-9.9 14.9-18.2c7.8-8 17.2-14.2 28.6-12.9 10.2 1.1 17 10.9 23.2 18.1q6.5 7.4 15.2 14.4 3.3 2.7 7.2 4.3c19.1 7.7 40.3 5.9 60.3.6q21.8-5.7 40.8-15.3 13.6-6.8 28-14.6.4-.3-.1-.3-53.9-4.7-109.9-11.7-3.4-.4-7.1-.6-3.8-.2-7.7-1-5.7-1.1-12.4-1.7-.3 0-.5-.1-.2-.2-.4-.4-.1-.2-.1-.5-.1-.3 0-.5l11.7-30.6q.2-.4.5-.5 1.4-.7 2.8-1.1 10.6-2.7 20.9-5 10.6-2.4 29.4-7.6 22.7-6.4 43-14.5 8.9-3.5 18.2-8.5c22-11.8 40.2-31.6 53-52.9 1.8-3 6.8-9.7 10.6-6.6q1.7 1.5 2.3 4.2 1.6 7.3 5.1 13.3c3.9 6.7 12.1 14.7 19.4 18.8 10.6 6 21 9 33 8.7q17-.6 32-9.7.1-.1.2-.2.1-.1.1-.2.1-.1.1-.3.1-.1 0-.2-1.4-25.7-3.1-48.1-5.7-73.3-11.4-146.3-2.7-34.5-5.7-66.9-.1-1.4-.6-2.7l-4.6-12.6q-.4-1.1.1-2.3l12.1-29.3q.2-.4.5-.6.3-.2.6-.2.4 0 .7.3.3.2.4.5c1.1 2.8 2.6 5.4 3.4 8.2q.6 1.9 1.7 3.7c.8 1.4.7 3.2 1.5 4.6.7 1.2 1.9 3.6 1.8 4.9q0 .5.3.9.3.3.5.7.9 2.4 1.6 4.8.3.8 1.1 2.5c.6 1.1.8 2.4 1.2 3.6q3.1 8.7 6.3 17.4.4 1.1.7 2.2.4 1.5.7 2.2 1.1 2.4 1.7 4.9.6 2.5 1.2 4.4c1 3 1.7 5.8 1.2 8.9q-.1 1-.9 1.4c-1.7 1-3.3-1.2-4.4-2.1q-1-.8-1.8-1.8-.9-1.2-1.9-2.1c-1.8-1.5-3.2-3.3-4.6-5.1q-1-1.3-.9.3.9 12.7 2.1 24 .3 2.3.3 4.6.2 2.3.3 4.4 5.6 72.6 11.2 144.3 1.5 19.4 1.5 36.7c.1 11.1-.3 22.7-2.8 33q-1 4.4-2.5 8.9-2 6.3-3 8.7-3.9 9-12.1 14.5c-14.5 9.7-32.9 11.9-50 7.6q-.5-.1-.6.4-2.8 11.1-7 25.6c-4.5 15.9-27.9-6-32.8-11.2-10.8-11.4-15.1-28.6-14.8-44.4q0-1.2-.7-.2c-10 13.2-21.5 26.5-33.9 36.1q-12 9.3-22.4 13.6-3.6 1.5-6.5 3-.2 0-.3 0-.3-.1-.6 0-6.8 3-13.3 4.7-.1 0-.1.1-.1 0-.1.1 0 .1.1.1 0 .1.1.1 2.2.4 4.8.6 12.6 1.2 24.8 2.5 19 2 52.7 4.3 27.9 1.9 55.2 2.4 12.4.3 26-.3.2 0 .5.1.3.2.4.4.2.2.3.5 0 .3-.1.6l-11.2 30.7q-.3.8-1.2.9-26.8 1.6-53.3 6.8-3.1.6-6.2 1.4-3.1.8-6.1 1.6c-10.2 2.5-20.5 6.4-30.1 11.6q-23.3 12.4-46.5 24.7-9.2 4.8-24.4 10.1c-24.5 8.6-54.5 13.6-78.7 2.5q-3.6-1.7-6.3-4.2-.1-.1-.2-.2-.1 0-.3 0-.1.1-.2.2-.1 0-.1.2-3.5 11.3-8.6 21.5c-1.3 2.4-4.1 7.5-7.3 7.2q-6.5-.6-13.7-2.3c-12.6-3-25-6.8-35.7-13.3q-10.2-6.1-19-14.1-.1-.1-.3-.1-.1-.1-.3-.1-.1.1-.3.2-.1.1-.2.2-5.3 10-12.2 18.4-2.4 3-6.8 6c-11.2 7.6-26.2 11.1-39.7 11-10.6-.2-21.9-2.7-29.6-9.7q-3.4-3.2-6.3-8.2-4-7.1-6.8-14.6-5.5-14.9-9.1-33.2-1.3-6.6-2.5-12.5-.4-2.3-.6-4.7-.1-2.5-.9-4.8-.1-.4-.2 0zm152.4 20.8c-5.6 1.1-10.3 3.5-14.7 6.9q0 .1-.1.2 0 .1 0 .1 0 .1 0 .2.1.1.1.2 6.2 4.9 11.5 7.6 2.5 1.3 5.4 2.6 12.6 5.5 25 8.8 0 0 .1 0 0 0 .1 0 0-.1 0-.1 0-.1 0-.1-2.8-10.7-8.4-19.6-3.1-4.9-7.2-6.3-5.5-1.9-11.8-.5z" fill-rule="evenodd"/><path d="m210.2 450.1q.2-1.6.4-2.2 1.6-4 2.6.1.3 1 .1 2.8-.4 4.6-1.6 8.7-2.5 8.7-5.3 18.6c-2 6.9-3.5 14.9-1.4 21.7.8 2.7 3 5.5 6 5.8 7.8.6 10.4-9.7 11.3-15.5q0-.1.1-.3 0-.1.1-.2.1-.1.2-.2.2-.1.3-.1.8-.3.9.5c1.7 7.9 1.4 16.4-2.1 24-3.6 7.8-13 14.6-20.4 5.9-7.7-9.1-7.3-21.7-4-32.7q3.6-11.9 9.3-26 .8-2.2 1.6-4.4c.7-2.1 1.6-4.3 1.9-6.5z"/><path d="m782.4 486.8q-2.2-.4-3.5-2 0-.1-.2-.2-.1 0-.2 0-.1 0-.2.1-.1.1-.2.2c-3.7 9.4-12.6 16.7-23.2 13.8-1.7-.4-4.3-1.5-6.3-2.4-9.1-4.6-20.4 5.5-26.1 11.6-6.7 7.2-12.8 14.7-20.8 20.5q-15.4 11.3-33.1 15.7-11 2.6-23.9 4.9-.9.2-1.6-.5-.1-.2-.2-.4-.1-.2 0-.4 0-.2.1-.4.1-.2.3-.3 1.9-1.2 3.7-1.9c13.7-5.9 27.7-11.4 40.8-18.8 9.7-5.4 17.7-11.9 24.9-20q8.1-9 14.5-15.5c3.9-3.9 8.6-7.7 13.7-9.5q5.3-1.7 10.1 1.4 3.4 2.2 7.6 2.4c5.8.2 11.2-2.1 14.2-7.2 2-3.5 4.1-7 6.7-9.9q0-.1.1-.1.1-.1.2-.1 0-.1.1-.1.1 0 .2 0 1.2-.2 1.2 1.2.1 2.1-.2 4 0 .2 0 .5 0 .2.1.3.1.2.2.4.1.2.3.3c3.6 2.8 9.9 2.1 14 1.2q.6-.1.4-.7-.7-2.3-2.5-4.3-.2-.3-.2-.7 0-.9.2-1.7 1.1-4 2.4-8.3.1-.5.6-.5 1.1 0 1.7 1.2 3.5 6.8 2.1 12.5-1.7 6.6-2.3 8.5c-.7 2.1-2.3 3.9-4.4 4.7q-4.9 1.8-10.4.9-.1-.1-.3-.1-.2 0-.3-.2 0 0-.1 0 0-.1 0-.1 0 0-.1 0 0 0-.1 0z"/><path d="m841.4 536.4q-.6-.6-1-1.4c-6.4-11.6-2.3-26.6 2-38.2q3.7-9.9 7.9-21.1c1-2.7 1.8-5.6 2.3-8.4q.7-3.2 2.5-.5.2.2.2 1.7 0 4.6-1.4 9.2-3.5 12.1-6.5 23.6-1.7 6.4-1.4 13.3.2 5.8 3.8 9.3.3.3.7.4 1.1.2 2.2.4 1 .2 2.1.1c6.6-.6 8.4-10.2 9.4-15.3q.1-.4.6-.5 1-.3 1.2.7c1.7 10.3 1.1 20.4-5.3 28.4q-3.3 4.2-8.5 5.1c-2.6.4-5.5-.2-7.2-2.3-1.1-1.3-2.5-2.4-3.2-3.9q-.1-.1-.1-.2-.1 0-.1-.1-.1-.1-.1-.1-.1-.1-.1-.2z"/><path d="m398.8 583.2q-3.6 1.4-7.2 2.7-1.6.6-3.1 1.3-1.6.7-3.2 1.1-1.6.4-2.9 1.2-1.8 1-3.6 1.4c-1.6.4-2.7 1.6-4.3 2q-2.6.6-4.3 2.8-.1.1-.2.2-.1 0-.2.1-.1 0-.2 0-.1.1-.3 0-.9 0-.9-.8-.1-.5.1-.9c.8-1.9 1-3.9 2-5.7q.7-1.3 1-2.8.3-1.5.9-2.8 1.2-2.8 2.3-6.2.6-2 2.7-3.1 3.4-1.9 7.6-3.5 58.1-22.3 116.3-44.5.1 0 .1 0 .1 0 .2 0 .1 0 .2 0 .1 0 .2 0 1.1.3.7 1.4-2.6 7.5-6.5 17.9-.1.3-.2.5-.1.2-.3.4-.2.2-.4.3-.2.1-.4.2-45.1 17.1-96.1 36.8z"/><path d="m480.6 609.4q-.4.3-.8.5-3.7 2-7.3 3.8c-1.7.9-3.7 1.3-5.5 2q-2.3 1-5.2 1.5c-2 .4-3.8 1.3-5.9 1.7q-5.4 1.1-10.8 2.4-.6.1-1.2.3-10.5 1.7-21.6 3.7c-1.2.2-2.6 1.1-3.6-.2q-.1-.3-.2-.5 0-.3.1-.6 0-.3.2-.5.2-.2.5-.4 7.6-3.1 14.8-6 .3-.1.5-.4.2-.3.7-.4 1.9-.4 3.4-1.2 1.7-.9 3.4-1.6 2.5-.8 4.8-1.9 6.1-2.7 12-5.7 21.3-10.7 45.1-24.8 8-4.8 15-11.2c4.9-4.5 8.2-10.3 10.8-16.5.8-1.9 1.8-3.4 3-5.1q1.3-1.9 2.9-.1.1 0 .1 0 .1.1.2.1 0-.1.1-.1.1 0 .1-.1 5.1-8.1 15.2-8.4c3.4-.2 6.5 1.3 8.5 4.1q1.7 2.4 1.8 5.9.2 4.4-.4 7.4-.9 4.6-4.3 11.2-1.3 2.5-3.2 3.6-2.5 1.4-5.9.8-1.8-.4-3.6-.8-1.2-.3-2.3-.9-6.8-3.9-11-8.4 0-.1-.1-.1-.1 0-.2 0-.1 0-.2.1-.1 0-.1.1-5.6 16.4-18.8 27.3c-3.9 3.1-8.1 6.2-12.5 8.8q-9.5 5.7-17.1 9.8-.4.2-.8.4-.3.1-.6.4zm68.1-55.9q-.1-.2-.4-.3-2.4-.8-5-.2-.1.1-.2.2-.1.1-.2.2 0 .1.1.3 0 .1.1.2 4.3 3.3 9.4 5.3.1.1.3 0 .1 0 .2-.1.1-.1.1-.2 0-.1 0-.2-1-3.2-4-4.8-.2-.2-.4-.4z" fill-rule="evenodd"/><path d="m562 553.5c-.2-1.4 0-3.1 0-4.5q0-.4 0 0 0 2.3 0 4.5 0 0 0 0z"/><path d="m549.1 553.9q3 1.6 4 4.8 0 .1 0 .2 0 .1-.1.2-.1.1-.2.1-.2.1-.3 0-5.1-2-9.4-5.3-.1-.1-.1-.2-.1-.2-.1-.3.1-.1.2-.2.1-.1.2-.2 2.6-.6 5 .2.3.1.4.3.2.2.4.4z" fill="#fff"/><path d="m620.1 624.2q-.1.1-.2.1-3.6 1.3-6.9 2.3-.3.1-.5.1-.3-.1-.5-.3-.2-.1-.3-.4-.1-.3-.1-.5l2-10.8q.1-.6.6-.7 9.5-3.4 18.3-6.7 1.2-.4 2.4-.8 1.6-.4 3.2-1.1 1.6-.6 3.2-1.1 6.1-1.9 12.5-4.4 1.5-.6 3-1 1.4-.3 2.8-1 1.8-.8 4-1.3 1.3-.2 2.8-1 1.4-.7 2.6-1 1.9-.5 3.7-1.1 1.2-.4 2.4-1c1-.6 2.2-.5 3.3-1q1.5-.6 3-1.2 1.4-.6 3-1 3.7-1.1 7.3-2.4 4.3-1.6 8.2-2.9 4.4-1.4 8.2-2.9 2.3-.9 4.7-1.6 9.5-3.1 18.8-6.6c.6-.2 1-.2 1.5-.4q18.8-6.5 41.2-14.6.5-.2 1 .2.1.1.2.2.1.1.1.3 0 .1.1.2 0 .2-.1.3l-1.8 10.7q0 .1-.1.3-.1.2-.2.3-.1.2-.3.3-.2.1-.4.2l-41.7 14.9q0 0-.1 0 0 0 0 0-.1 0-.1 0-.5 0-1 .2-6.7 2.5-13.2 4.7-2.2.7-3.9 1.5-1.7.7-3.4 1.1c-1.6.3-3 1.1-4.6 1.5q-2.7.8-5.5 2-1.5.7-3.2 1.2c-1.9.5-3.6 1.3-5.5 1.8-.9.2-2 .4-2.9.9q-3.2 1.6-6.7 2.5c-1.4.4-2.8 1-4.2 1.5-1.6.7-3.3.9-4.9 1.7q-1.1.6-2.4.9-1.1.4-2.3.7-1.3.2-2.5.9c-1.1.7-2.4.5-3.6 1q-3.5 1.5-6.7 2.4-2.2.7-4.2 1.5c-1.8.8-3.7 1.2-5.6 1.9q-11.1 3.9-22.2 7.7-1 .4-2 .5-.2.1-.3.3z"/><path d="m858.2 619.8c-4.7-4.8-5-10.6-3.2-17q.6-2.1 1.7-3.8c3.8-5.8 8.9-9.7 15.1-12.9q1.7-.9 3.4-1.2 4.1-1 7.7-.2 1.9.4 3.2 1.7c4.6 4.2 4.9 12 3.7 18.5q-.8 4.3-2.1 7.5-.4 1.1-.5 2.2-.2 1.5-1.3 2.7-.2.1-.2.3-.1.2 0 .4.1.2.2.3.1.2.3.2.3.1.5.3 3 2.5 6 4.7 1.2.8.4 2.1-2.8 4.8-5.3 9.6-.9 1.9-2.1 3.4-.2.4-.7.3c-1.2-.1-1.8-.8-2.7-1.5q-2.5-1.6-5.3-3.4-.1-.1-.2-.1-.2 0-.3 0-.1 0-.2.1-.1 0-.2.1-10.8 14.1-24.2 26.9-10.8 10.3-24.9 18.2c-14.3 8-29.2 16.2-44.2 23.1q-2.3 1.1-4.8 1.7-.3.1-.6 0-.2-.1-.4-.3-.2-.2-.3-.4 0-.3.1-.6.2-.8 1.1-1.4 5.6-4 11.4-7.8 18.7-12.2 33.4-22.8c13.5-9.6 26.9-20.9 39.7-33q3.7-3.5 7.2-7.7.1-.2.1-.3.1-.2 0-.3 0-.2-.1-.3-.1-.2-.2-.3c-1.3-.8-2.4-1.6-3.8-2.3-1.2-.5-1.9-1.6-3.1-2.3q-1.3-.7-2.4-2.1-.9-1.2-1.9-2.3zm19.5-6.8q.1.1.3.1.1 0 .2-.1.1-.1.2-.2 0-.1 0-.2 1.1-6.2-1.8-10.8-.1-.1-.1-.2-.1-.1-.2-.2-.1 0-.2-.1-.1-.1-.2-.1-3.5-1.5-6.8.3-.8.4-1.7.8-.6.2-1 .7-.9 1 .5 2.5 4.4 4.8 10.8 7.5z" fill-rule="evenodd"/><path d="m176.1 628.9 7.1 5.3q.2.1.3.3.1.2.2.4 0 .2 0 .4 0 .2-.1.4l-7.4 13.3q-.2.2-.3.4-.2.1-.4.2-.2 0-.5 0-.2-.1-.4-.2l-7.1-4.8q-.1-.1-.3-.1-.2 0-.3 0-.2 0-.4.1-.1.1-.2.2-12 15.4-25.9 28.3-9.7 9-24.1 17.1-15.8 8.9-31.5 17-8.1 4.2-15.2 7.1-.9.3-1.8.2-.2 0-.4-.2-.2-.1-.3-.3-.1-.2-.1-.4 0-.2.1-.4.5-1.3 1.7-2 19.6-12.9 37.1-24.9 23.6-16.3 45.4-36.7 4.7-4.5 8.8-9.4.1-.1.1-.2 0-.1 0-.2 0-.1-.1-.2 0-.1-.1-.1c-4.6-2.8-9.5-6.1-12.7-10.5-5.2-7.2-3.3-16.6 2.2-22.8 5.6-6.5 18.8-15.8 27-9.1 4.2 3.4 4.8 12.2 3.8 17.1q-1.3 7.4-4.4 14 0 .1 0 .2 0 .1 0 .2 0 .1.1.1 0 .1.1.2zm-8-13.7c-.7-2.9-3.5-4.5-6.3-3.8q-1.5.3-3.1.8c-.8.3-1.5.8-2.2 1.4q-.1.1-.2.2-.1.2-.1.3 0 .2 0 .3 0 .2.1.3 1.8 2.7 4.4 4.6 3.4 2.4 7.4 4.7.1 0 .2 0 .1 0 .2 0 .1-.1.2-.2 0 0 0-.2.6-3.6-.6-8.4z" fill-rule="evenodd"/><path d="m996.7 658.9q-.2.6-.1 1.4.4 2.3.5 4.8.1 2.2.3 4.5 4.6 61.5 9.4 123 2.9 37.7 5.8 75 .4 5.7.4 15.1-.1 9.1-1.3 16.2-2.8 17.1-8.1 31.4-.3 1-1.1 1.9-.2.2-.5.3-.3.1-.6.1-.3-.1-.5-.2-.2-.2-.3-.5-.8-1.9-.9-3.9c-.6-12.6-1.1-25.4-2.2-38.1q-10.4-125-19.7-243-.4-4.8-1.5-8.4-1.7-5.8-3.9-11.2-.1-.4 0-.8l12.4-30q.1-.3.3-.5.3-.2.6-.2.2-.1.5 0 .3 0 .5.2 1 .9 1.4 2.5c.2 1.2.6 2.5 1.2 3.5q.9 1.7 1.4 3.6c.5 1.8 1.1 3 1.9 4.5.4.9 0 1.6.3 2.4q1.2 2.6 2.3 5.2c.3.9.2 1.9.6 2.9q7.6 20.9 13.3 41.2c.7 2.3 2.3 7.9 1.4 10q-.1.4-.4.6-.3.2-.7.3-.3.1-.7-.1-.3-.1-.6-.3-5.7-6.5-11.1-13.5-.1 0-.1-.1-.1 0-.1 0-.1 0-.1.1 0 0 0 .1z"/><path d="m724.9 654.4q4.5.6 7.5-1.5c2.3-1.7.9-5.4-.2-7.5q-2.4-4.5-4.5-8.6-1.3-2.6-2.1-5.4c-1.2-4.4-.1-8.2 1.5-12.6q1-2.8 2.1-5.2.1-.2.3-.4.2-.2.4-.2.3-.1.5-.1.3.1.5.2.7.5.7 1.3.5 5.5 2.9 11 2.2 5.2 4.5 10.4 4.1 9.5.7 18.5c-2.6 6.7-9.1 15.5-16.8 15.7q-3.1 0-6.3-1.6-4.8-2.3-7.5-7.3-.1-.1-.1-.1-.1 0-.2 0-.1 0-.1 0-.1 0-.1.1c-4.5 8.8-13.8 18.6-24.7 12.6-4.8-2.6-7.7-6.8-9-12.1q-1.9-7.7-1.4-15.4.4-4.9.7-9.8 0-.4-.2-.7-1.5-2.8-1.2-5.7c.2-2.5 2.1-5.4 3.7-7.2q1.8-2.3 3.7-4.6.1-.2.3-.3.2-.1.4-.1.2.1.4.2.2.1.3.2c1 1.4 1.9 2.8 2 4.6 0 2 .2 4-.2 6q-.8 5-1.7 9.8-.6 2.8-.6 5.9 0 3.2.6 5.7c1.4 5.5 4.9 9.4 10.9 9.4 4.6.1 8.5-2.8 11.5-6.3 3.1-3.5 2.9-8.5 2.1-12.9q-1.6-8.1-4.2-15.4-.1-.1-.1-.2 0-.1 0-.2 0-.1 0-.2 0-.1.1-.2l3.8-8.9q.1-.2.3-.4.2-.1.4-.1.3-.1.5.1.2.1.3.3 1.6 2.6 2.3 5.4 2.3 10.2 3.7 21c.2 1.7 1.1 3.1 1.3 4.8q0 .1.1.2 0 .1 0 .1.1.1.1.2.1.1.1.1c.6.7.6 1.6 1.2 2.4q1.3 2.1 3.2 3.1 2.5 1.2 5.8 1.6.1 0-.2.1 0 0-.1 0-.1.1.1.2z"/><path d="m683.9 626.9q0-1.2 0-2.5 0 0 0 0v2.5q0 .1 0 0z"/><path d="m330.8 645.1q-1 4.3-3.4 8-.1.2-.3.3-.1.1-.3.2-.3 0-.5-.1-.2 0-.3-.2-2.6-2.1-5.5-4.2c-.9-.7-1.7-.9-2.7-1.3-1.8-.6-3.4.5-4.2 2q-2.5 4.8-3.2 10.5-1.5 12.1-3.1 24.9-.5 4.5-2.5 12-.5 1.9-1.7 2.9-1.9 1.6-3.8 3-.2.2-.5.2-.3.1-.5 0-.3-.1-.5-.4-.2-.2-.2-.4c-2.1-11.4-5.5-22.9-10.8-33.3q-2.1-4-4.7-7.5-.1 0-.2-.1-.1 0-.2 0-.1 0-.2 0-.1.1-.2.2l-1.6 2.3q-.1.1-.2.2-.1.1-.2.1-.1.1-.2.1-.1 0-.2 0-6.8-.9-11.3-5.1c-2.4-2.3-3.7-5.9-2.2-8.9q2.6-5.2 5.2-9.7 1-1.9 3.3-1.4 4.6 1.1 7.8 3.2 1.8 1.2 3.8 3.1c8 7.6 11.5 18.1 15 28.4q.5 1.5.8 3.2.2 1.4.6 2.7.2.7.3 0 .5-2.2.7-4.3.2-2.1.5-4.2 1.5-8.6 3-17.4c.3-1.8 1.1-3.6 1.2-5.5q.1-1 .4-2 1.2-3.6 2.4-7 1.7-4.8 4.8-7.1 2.1-1.7 4.9-1.1 2.7.7 5.1 2.9 3.2 3 6.2 7.4c.6.9.3 2-.3 2.7q-.2.3-.3.7z"/><path d="m617.5 752.9q3.2 1.9 6.7-.2c4.4-2.6 6.1-9.6 6.8-14.5q0-.1.1-.2.1-.2.2-.3.1-.1.2-.1.1-.1.3-.1 1-.2 1.1.8c1.1 8.5 1.4 15.5-2.2 23.5-2.2 4.9-6.6 9.6-12.1 10.1-7.9.7-13.1-10-14.2-16.5-1.6-10.2 1.6-21.1 5.2-30.9q4.5-12 8-21.4 1.2-3.3 2-7.8.1-.2.1-.3.1-.1.2-.3 0-.1.2-.2.1-.1.2-.2.5-.2 1 0 .3.2.4.6c.9 2.7.1 7.6-.6 10.1q-2.3 8.8-5.3 18.9c-2.1 7.1-6.4 24.2 1.7 29z"/><path d="m116.8 704.8q.6.1 1.1.4 4.2 2.6 8.4 4.6.1.1.2.2 0 .2.2.2l17.4 10.5q.1.1.2.1.1 0 .2 0 .2-.1.3-.1 0-.1.1-.2 5.7-9.9 11.1-20.1 1.6-3 3.1-5.1.1-.2.3-.3.1-.1.3-.2.2 0 .5 0 .2 0 .4.1 2.4 1.1 4.9 2.6 11.2 6.5 23.6 14 .2.1.4.3.1.2.2.5.1.2.1.5-.1.3-.2.5l-13.9 29.3q-.8 1.7-2.4.8-12-7.4-24.6-14.7-2.6-1.5-5.2-2.8-.1-.1-.2-.1-.1 0-.2.1-.1 0-.2.1-.1 0-.2.1l-13.7 24.7q-.1.2-.4.4-.2.2-.5.3-.3.1-.6 0-.3 0-.6-.2-13.7-8.3-27.2-15.6-1.3-.7-.7-2l13.9-29.8q0-.1.1-.2.1-.1.2-.1.1-.1.2-.1.1 0 .2 0 1.5 0 2.7 1.1.2.2.5.2z"/><path d="m508.2 759.9q.2-1 .2-1.9c-.3-7.2-2.1-14-4.5-20.8q-.1-.2-.2-.5 0-.2 0-.5 0-.3.1-.5 0-.3.1-.6 1.7-4.1 3.4-7.9.2-.4.6-.8.1-.1.2-.1.1-.1.2-.1.2 0 .3.1.1.1.2.2 1.7 2.3 2.4 5.5 1.4 6.3 2.7 13 .4 2.4.6 5 .1 2.9 1.5 7.2c2.2 6.7 8 9.7 15.1 8.5 1.7-.3 4.2-1.6 4.3-3.7q0-2-.9-3.8-2.4-4.7-5-9.5c-3.2-6-3.5-11.9-1-17.9q1-2.4 1.9-4.8.3-1 1.1-1.4.3-.2.5-.2.3 0 .6.2.2.1.4.3.1.3.2.5c.6 4.4 1.5 8.3 3.3 12.4 3.9 8.6 8.4 16.8 5.4 26.4-2.5 8-10.2 18.6-19.7 17.1-4.6-.8-9.3-4.4-11.3-8.6q-.1-.1-.2-.1-.1-.1-.2-.1-.1 0-.2.1-.1 0-.1.1c-4 8.1-11.9 16.5-21.7 13.7-4.2-1.2-8.4-4.8-10.3-8.9-4.3-8.9-3.2-19.6-2.2-29.1q0-.5-.2-1c-1.8-3.6-2.1-6.9.4-10.4q2.6-3.7 5.8-7.4.1-.1.2-.2.2 0 .3 0 .2 0 .3 0 .2.1.3.2c2.6 3 2.6 7.1 1.9 11.4-1.5 8.1-4.9 20.2 1.6 27 3.8 3.9 9.8 4 14.3 1.1q3.8-2.4 6.1-6c.6-.9.9-2.1 1.2-3.2z"/><path d="m308.2 894.1q-15.9 6.2-32.1 12.5-4.8 1.8-7.8 4.7-.1.1-.3.2-.1.1-.3.1-.2 0-.4 0-.1-.1-.3-.1-.8-.5-.5-1.6.5-1.9 1.2-3.6.7-1.6 1.2-3.4.5-1.6 1.2-3.4.7-1.6 1.2-3.3.8-2.7 2.2-5.2.6-1.1 1.8-1.9 4.3-2.6 9.2-4.1 2.6-.8 5.1-2 1.7-.8 3.4-1.3 1.8-.6 3.5-1.3 51.6-19.7 95.1-36.2 4.1-1.5 7.5-3.1.1 0 .3-.1.2 0 .3 0 .2.1.3.1.1.1.3.2.7.6.4 1.5-3.1 8.7-6.5 17.7-.1.2-.2.5-.2.2-.4.4-.2.2-.4.4-.2.1-.5.2-42.3 16-84.2 32.1-.1 0-.2 0-.1 0-.1 0z"/><path d="m236.5 874.5q.1-.1.2 0c2.3 1.3 4.4 2.9 6.8 4q2.7 1.3 4.9 3.3.1.1.2.2.1.1.1.3 0 .1 0 .3 0 .1-.1.2l-14.2 29.6q-.8 1.7-2.5.7-14.5-9-29.5-17.4-.6-.3-.9.2l-13.8 24.7q-.1.3-.3.5-.3.1-.5.2-.3.1-.6.1-.3-.1-.6-.2-12.4-7.6-24.7-14.4c-.7-.4-2.3-.8-3-1.7q-.2-.2-.2-.3-.1-.2-.2-.4 0-.2 0-.4.1-.2.2-.3l13.6-29.5q.1-.3.4-.5.2-.2.5-.3.3-.1.7-.1.3 0 .6.2 4.8 2.5 10.1 5.6.6.3 1.1.6 9.4 5.6 18.4 11 .1 0 .1 0 0 0 .1 0 0 0 0 0 .1 0 .1-.1l14.2-25.4q.1-.2.3-.3.1-.2.4-.2.2-.1.4-.1.3 0 .5.1 1.7.9 3.4 1.6 1.7.7 3.3 1.8 2.7 1.8 5.5 3.4.2.1.3.1.2 0 .4 0 .1-.1.2 0l3.8 2.8q.1.1.3.1z"/></svg>