<svg height="1080" viewBox="0 0 1080 1080" width="1080" xmlns="http://www.w3.org/2000/svg"><clipPath><path d="m67 47h946.22v985.65h-946.22z"/></clipPath><path d="m645.6 425.5q-.2.2-.2.4-.1.2 0 .4.1.2.3.4.2.1.4.1 7.6.6 15.9.3 15.8-.7 34.2-3.7c26.2-4.3 52.5-9.7 78.6-11.1q12.9-.7 26.2 1.2c27.2 3.8 46.9 18.8 56 45.3q4.7 13.9 4.8 29.3 0 9.1-1.3 17.6-1.9 11.9-7.4 25.3-12.5 30.8-37.8 53.6-12.7 11.4-27.4 20-6.1 3.6-9.7 5.3-5 2.4-9.9 4.4-1.5.7-3 1.2-1.6.5-3.1 1.1c-32 11.3-68.9 12.4-99.1-4.3q-30.9-17.1-43.8-51.9-4.6-12.4-6.8-25.7-4.4-27-.4-53.1 2-13.2 5.2-24.9.2-.5-.3-.6-13-4.1-24.1-12.5-12.3-9.4-18.1-25.7-5.4-15.2-6.3-32.2-2.7-53.9-5.9-101.2-2.8-42.3-6.9-82.8-1.2-12.7-2.9-25.4-2.4-18.6-6.6-34.5c-.7-2.4 1.3-5.8 2.4-7.7q.3-.5.4-1 .1-.6.3-1.2 4.6-10.6 8.6-20.9.3-.7 1.1-1 .2 0 .3 0 .2 0 .4.1.2.1.3.3.1.1.2.3 1.2 5.3 2.5 10.7.3.9.3 1.9 0 .9.3 2 .9 3.9 1.9 8.6c.2 1.2-.1 2.4.2 3.6q.9 3 1.4 6.5c1.3 9 2.5 18.2 3.6 27.8q1.6 12.6 2.8 25.2c4.8 50.4 7.8 102 9.9 152.1.4 9.8 1.3 19 2.8 28.4q1.5 10.3 5.5 20.5 3.8 9.9 12.5 15.6 11.5 7.6 25 10.8.6.1.8-.4c10.2-20.5 23.9-37.8 40.5-53.4q0-.1 0-.1.1-.1.1-.2 0-.1-.1-.2 0 0-.1-.1c-10.8-8.9-22.4-16.4-34.3-24.6q-10.1-6.9-17.5-14.1c-7.6-7.6-12.7-16.4-13.2-27.4q-.2-5.9 2.6-12.1c5.6-12.4 15.3-20 28.2-23.8q11.2-3.2 24.8-3.6 12.1-.4 22.5-.1 27.1.7 49.7 1.6 8.6.4 15.6.6 47.1 1.2 88.8 1.7.3 0 .5.1.3.1.4.4.2.2.2.5 0 .3-.1.5l-10.6 29.3q-.1.2-.2.4-.1.2-.3.4-.1.1-.3.3-.2.1-.4.2-23.1 12.3-46.8 25c-29.8 15.9-58.1 32.7-84.6 52.3q-.1.1-.1.1-.1.1-.1.2 0 .1 0 .1 0 .1 0 .2 1.8 8.6 2.8 17.6 0 .2 0 .3 0 .1-.1.2-.1.1-.2.2-.1.1-.2.1-1.4.5-2.4-.7-4.5-5.2-8.7-10.4-.1-.1-.3-.2-.1-.1-.3-.1-.1 0-.3 0-.1.1-.2.2-7.6 5.9-15 12.5-11.1 9.7-19.6 21.4-.6.8-1.4 1.5-.5.4-.6 1.1 0 .1-.1.1 0 .1 0 .2 0 0-.1.1 0 0 0 .1zm-21.4-122.3c-.3.3-.7.4-1 .7q0 .1-.1.2 0 .1 0 .2 0 .1.1.2 0 0 .1.1 1.5 1 3.2 1.9 12.7 6.9 28.5 17.7 7.4 5.1 12.1 9.4 10.7 9.8 18.3 22.8 0 0 .1.1.1.1.2.1.1 0 .2 0 .1 0 .2-.1 21.1-17.1 44.6-31.5 17.9-11 36.5-20.5 4-2 7.3-3.9 1.2-.7-.2-.7-20.8.1-42.4-.5-38.4-1.2-64.6-1.7-12.6-.2-24.1.6-8.6.6-15.6 2.9-1.8.6-3.4 2zm2.2 223.9q2.9 9.8 8.1 18.5 9.9 16.4 26.3 28c40.5 28.7 97.9 20.3 137.8-5.9 14.7-9.7 28.6-21.3 39.5-35.1q5.5-6.9 9.2-14.8 2.9-6 3.3-12.1.4-5.5-.1-11.6-1.2-13.8-8.5-23.7c-11.2-15.3-32-22-49.9-23.9-17.1-1.9-34.6-.6-51.3 2q-18.3 2.9-43.3 7.2c-22.1 3.9-45.1 6.5-67.5 3.5q0 0-.1 0 0 0-.1 0 0 .1 0 .1-.1 0-.1.1-4.3 13.1-5.9 27.2-2.4 19.9 1 34.5.6 3 1.6 6z" fill-rule="evenodd"/><path d="m655.7 160.4q-.3.9-.6 1.9-1.7 4.2-2.4 10.4-1.3 10.8-2.6 21.3-.9 6.4-3 13.3-.3 1-.9 1.5-1.9 1.5-3.9 3.2-.2.2-.5.2-.3.1-.6 0-.3-.2-.5-.4-.2-.2-.2-.5-2.9-16-9.2-29.6c-1.6-3.5-3.6-6.8-5.8-9.9q-.4-.4-.7 0l-1.7 2.4q-.1.1-.2.2-.1.1-.2.1-.1.1-.2.1-.1 0-.3 0c-7.3-1.3-17-6.5-12.2-15.1q2.3-4.1 4.3-7.9c.5-1.1 1.7-1.8 2.9-1.5 10.3 2.2 16.9 10.9 21.1 20.2q4 9 6 18 .4 2 .8 0 .9-4.6 1.5-8.8 1.5-11.6 4.1-22.3c.4-1.3 1.1-2.4 1.3-3.7q1.2-5.7 5.2-9.6c1-.9 2.2-1.4 3.6-1.4q3.8.1 6.7 2.9 2.8 2.7 4.8 5.7.8 1.2 1 2.6.1.4-.2.8-.4.7-.5 1.5-.2.8-.6 1.6-1.1 2-1.7 4.5c-.3 1.6-2.1 2-3.2.8q-1.6-1.9-3.5-3.3-1.5-1.1-3.8-1.4-1.5-.3-2.4.7-.2.2-.5.3-.6 0-1 .5 0 .1 0 .2-.1 0-.1.1-.1.1-.1.2 0 .1 0 .2z"/><path d="m698.7 230.9q-1.8.9-3.6 1.2-.3 0-.5 0-.2-.1-.3-.3-.2-.1-.2-.3-.1-.3-.1-.5l1.9-10.3q0-.2.1-.4 0-.1.2-.3.1-.1.2-.2.1-.1.3-.1 34.3-12.4 74.6-27.3.4-.2 1 0 .1 0 .3.1.1.1.2.2.1.2.1.3 0 .2 0 .4l-1.8 10.3q0 .1-.1.3-.1.2-.2.3-.1.2-.3.3-.1.1-.3.2-4.5 1.7-9.7 3.6-34.3 12.6-58 21-.9.4-1.9.7-.9.2-1.9.8z"/><path d="m520.9 234.6q-.6.8-1.4.2-1.8-1.3-3.4-2.9-1.9-1.8-3.7-2.2-3.5-.7-5.2 3-1.8 3.7-2.4 8.5-1.6 12.3-3.3 25.9-.4 3.8-1.9 7.9-.4 1.2-.4 2.3c-.1 1.2-.5 2.3-1.5 3.1q-2 1.4-3.8 3.1-.2.1-.4.2-.3.1-.5 0-.3-.1-.5-.3-.2-.2-.2-.5-2.1-10-5.3-20-3.4-10.3-9.6-19.4-.5-.7-1 0l-1.5 2q-.1.2-.3.3-.1.1-.2.1-.2.1-.4.1-.1 0-.3 0c-4.8-1-9.2-2.7-12-6.6-1.8-2.6-1.7-5.4-.2-8.2q2.7-4.8 4.5-8.2c.5-.9 1.5-1.6 2.6-1.4 7.7 1.3 13.5 6.6 17.6 13.3q5.5 8.9 8.3 19.4.9 3.3 1.9 6.6.1.6.3 0 .7-2.4.9-4.6.4-3.8.5-4.6 1-6.1 2.1-12.6.4-2.4 1-4.9.6-2.4 1.1-5.1.5-2.5 1.7-5 .5-1.2.8-2.4c.4-1.4 1.4-3.2 2.2-4.4q3.7-5.2 9.2-2.6.1 0 .2.1.1 0 .1.1.1.1.2.2 0 0 .1.1.4.6 1.1.8.5 0 .9.4l4.7 5.1q.3.3.3.8 0 1 .8 1.3.4.2.5.6.5 1.4-.5 2.5c-.7.8-.6 1.3-.9 2.3q-.7 2.3-1.9 4.5-.2.5-.7.9-.1.1-.2.2z"/><path d="m293.5 234.6q1.4-4 3.2-6.3c5.3-6.4 18.7-16.3 26.8-9.7 5.5 4.3 4.7 15.7 2.6 21.7q-.8 2.3-1.4 4.7-.6 2-1.5 3.9-.2.4.2.7l6.7 5.1q.2.1.3.3.1.2.2.4 0 .2 0 .4 0 .2-.1.4l-7 12.5q-.7 1.3-2 .5l-6.8-4.5q-.5-.4-.9.1-8.6 11.4-21.3 23.9c-8.9 8.8-17.9 15.1-28.9 21.3q-20.2 11.2-37.4 19.7-3.4 1.7-7.3 2.9-.3.1-.6 0-.3 0-.5-.3-.2-.2-.3-.5-.1-.3 0-.6.4-.8 1.3-1.5c18-12.4 36.6-23.8 53.5-37.1q16.2-12.7 30.2-26.3 2.8-2.7 5.2-5.8.1-.1.1-.2 0-.1 0-.2 0-.1-.1-.2 0-.1-.1-.1c-9.4-6-18.5-12.5-14.1-25.2zm22.3 2.3q-.5-2.2-1.9-4 0-.1-.1-.2-.1 0-.2-.1-.1 0-.2-.1 0 0-.1 0-5.1-1-8.8 1.9-.2.2-.3.4-.2.2-.2.5 0 .3.1.5 0 .3.2.5 4 4.9 11.3 8.4.4.2.5-.3.6-3.5-.3-7.5z" fill-rule="evenodd"/><path d="m315.8 236.9q.9 4 .3 7.5-.1.5-.5.3-7.3-3.5-11.3-8.4-.2-.2-.2-.5-.1-.2-.1-.5 0-.3.2-.5.1-.2.3-.4 3.7-2.9 8.8-1.9.1 0 .1 0 .1.1.2.1.1.1.2.1.1.1.1.2 1.4 1.8 1.9 4z" fill="#fff"/><path d="m550.9 309.6c1.6 9.3 1.3 19-4.2 26.8-5.1 7-13.1 8.5-18.6.9-8.7-11.8-4.7-27.3.3-40.7q3.7-10 7.2-19.1c1.1-2.9 1.9-6.2 2.6-9.3q.2-1.1 1.3-1.1.2 0 .3 0 .2.1.3.2.1.1.2.3.1.1.1.3.4 5.7-1.1 10.9-3.2 11.2-6.1 22.1c-1.8 6.3-2.8 14.6 0 19.9 2 4.1 6.2 5.4 10 2.6s5.4-9.2 6-13.6q.1-.1.1-.2.1-.2.2-.3.1-.1.2-.2.1 0 .3-.1.8-.2.9.6z"/><path d="m798.8 374.5q0 0 .1 0 .1 0 .1.1 2.7 5.5 8.9 3.6.8-.3 1.3-.9.6-.6 1.2-1.1.9-.9 1.4-1.9.2-.7.6-1.2.5-.6.7-1.3 1.4-4 2-7.8c.1-.6.4-1 1-1.1q.2 0 .3 0 .1.1.2.1.1.1.1.2.1.1.1.2 1.4 7.3.7 13.8-.8 7.1-4.8 12.9c-3.9 5.7-11.5 9.1-17.1 3.1q-5-5.4-6.2-12.7-1.3-8.4.9-16.9 1.7-6.6 3.4-11.2.1-.3.1-.5.1-.4.2-.8 3.4-9 7.1-18.8 1.9-4.9 2.9-10.3.1-.2.2-.4.1-.2.3-.4.2-.1.5-.1.2-.1.4 0 .8.2.9 1.2.3 5.3-1.1 10.3-3 10.8-6.1 21.7-.6 2.1-.9 4.3c-.5 3.9-.9 7.3-.6 11.5q.1 2.7 1.1 4.4 0 0 .1 0z"/><path d="m477.7 657.3q.1 0 .1 0 .2 0 .1.1-2.3 1-4.6 1.9-.4.2-.3.7 6.6 27.5 9.1 52.9.5 5.3 2.3 25.2 1.5 17.2 3.3 25.5.9 3.9 1.6 7.7.5 2.7 1.3 5.1.7 1.7 1.1 3.5.5 1.8 1.2 3.4 3.3 8.2 6.4 12.6 5.7 8 16.7 10.3 19 3.9 38.1-4.8 3.9-1.8 8.2-5.2 8.9-7 15-16.8 2.1-3.4 7.2-12.8c1.3-2.5 4.6-8.4 8-4.1q.1.1.2.2.2 0 .3 0 .1 0 .2 0 .2-.1.2-.2 7.9-11.5 16.3-20c7.4-7.5 17-14.3 27.9-12q3.7.7 7.1 3.2c14.7 10.7 21.8 33.8 21.5 50.9-.1 3.9-.6 7.6-1.8 11.3-1.6 5-8.8 25.8-14 26.3q-1.7.1-3.4-.1-13.3-2.2-24.1-5.8-2-.6-4-1.3-3.9-1.4-8.3-3.2-.4-.1-.6.3c-3.2 7.7-6.2 15.7-8.6 23.4q-5.5 17.8-3.8 35.9.3 3.4 1.3 6.8.1.2.2.3.1.1.2.2.2.1.3.1.2 0 .3-.1l72.4-27.5q.1 0 .1-.1.1 0 .2 0 .1 0 .1 0 .1 0 .2.1.6.1.7.7 0 .4-.2 1-2.3 6.4-4.9 12.8-.3.8-.6 2.5-.3 1.3-1 2.5-.2.3-.5.4l-6.9 2.5q-.1 0-.4 0-.3.1-.5.3-.3.3-.7.4-24.6 9.5-49 18.6-.2.1-.3.2-.1.2-.1.3 0 .2.1.3.1.1.2.2 2 1.3 4.1 2.6 1.6.9 3.7 1.2 1.4.2 2.7.5 1.2.3 2.5.4 7 .3 13.8-1.5 2.1-.5 3.9-1.3c1.8-.8 3.6-1.3 5.3-2.2q10.4-5.6 20-14.1 18.1-16.1 31.7-30.5 17.6-18.7 35.4-38 15.4-16.9 34.2-29.5 14.1-9.5 27.6-14.8c16.7-6.6 34.2-5.6 47.8 5.7q3.4 2.9 6.8 7c6.5 7.7 13.8 15.4 21.8 20.4q7.8 4.8 18.2 5.8 20 2 38.2-9.1.1-.1.2-.2.1-.1.2-.2.1-.1.1-.3 0-.1 0-.2-.9-17.8-2.3-36.7-7.1-94-14.3-182.5-1.4-17.2-3-34.3-.1-.3-.1-.6 0-.3-.1-.6-.1-.3-.2-.6-.1-.3-.2-.6l-4.7-12.9q-.1-.4 0-.7 1.3-3.8 3-7.4.6-1.4 1.2-2.8.5-1.4 1.2-2.8.7-1.5 1.3-3.1 1.8-4.9 4-9.9.1-.1.2-.1.2-.1.2-.3.2-1.7 1.1-3.2.2-.3.5-.4.2-.2.6-.2.3 0 .6.2.2.2.3.5c.6 1.2 1.2 2.5 1.4 3.8q.2 1.5 1 2.7 1.6 2.4 1.9 4.9 0 .3.2.6 1.6 2.2 2 5 .2 1.2.8 2.3.9 1.5 1.3 2.8.6 2.2 1.5 4.2.7 1.4 1.1 2.7.5 1.5 1 2.9 7 18.1 11.5 34.2.8 2.7.4 6-.1.4-.4.7-1.5 1.3-3.2-.2-1.8-1.8-3.2-3.4-2.4-2.8-5.9-6.2-1.4-1.5-1.3.6.5 4.9.9 10c.1 1.1-.1 2.4.2 3.5q.3.7.3 1.6 0 4.1.3 7.1 1.1 10.4 1.9 20.8 4.9 63.8 9.9 127.5.6 9 1.3 26.4.5 13.9-.4 26.9c-.6 9-2.4 16.2-5 24.9-3 10.1-7.1 16.8-16.2 22.3-13.8 8.5-30.4 9.8-46.1 5.9-13.8-3.3-24.6-14.3-33.6-25.3q-5.6-6.9-9.7-9.8-9.6-7-21.7-5.4-9.4 1.3-19.4 6-19 9-35.4 22.4-11.8 9.7-24.2 23.3-17.6 19.4-32.8 35.8c-9.5 10.3-20.4 21.2-31.9 30.3-9.2 7.3-21.4 15.1-33.6 13.1q-26.2-4.3-37.2-28.3 0-.1-.1-.1-.1-.1-.2-.2-.1 0-.2 0-.1 0-.2 0-15.2 5.9-30.4 11.6c-.3.2-.5.1-.8.1q-.2 0-.4.1c-1.7.9-3.9 2.1-5.8 2.3q-1.4.2-2.4 1-1.2.9-2.6 1.3-1.6.3-2.8 1.2-1.9 1.2-3.4 2.7-.2.2-.4.2-.2 0-.4 0-.2-.1-.3-.3-.1-.2-.1-.4c0-2.2.9-4.5 1.9-6.5q.8-1.6 1.2-3.3.5-1.8 1.2-3.5c.4-1 1.1-1.6 1.2-2.6q.2-3.7 3.4-5.4 2.5-1.3 4.8-2.2 2.4-.8 4.3-1.7 2.1-.9 4.3-1.8 11.8-4.4 23.1-8.7 0-.1.1-.1 0 0 .1-.1 0-.1 0-.1 0-.1 0-.1-3.7-24.6 3.4-46.6 4.5-14 10.7-26.8.1-.1.1-.3 0-.1 0-.3-.1-.1-.2-.2-.1-.2-.2-.2-5.9-3.1-12.1-7.1c-1.4-1-2.7-2.3-4.2-3.1q-.9-.5-1.7-1.2-1.7-1.7-3.5-3.2-.6-.5-.9.3c-3.6 9.1-7.5 18.7-13.8 26.6q-11.7 14.9-31.3 18.8c-14.1 2.8-34.8 2.5-44.8-9.9-5.8-7.1-9.8-17.2-12.9-26.9q-1.2-3.9-2.1-7.1-.7-2.8-1.4-5.5-.8-2.8-1.3-5.4-.4-2.3-.9-4.5c-.7-2.7-1.4-5.4-1.6-8.2q-.1-2.1-.5-3.6-1.2-4.7-1.7-9.1-.4-4-1.4-.1-.2 1-.6 2.7-.4 1.3-.8 2.6-.3 1.1-.5 2.2-.2 1.8-.3 2.3-3.5 15.4-13.2 27.9-4.4 5.7-9.7 11.3-24.7 25.7-52 44.7-17.9 12.5-37.1 21c-19.9 8.9-47.1 13.2-59.4-10.3q-2.9-5.4-3.6-8.7-1.1-4.6-2-8.8-.8-3.7-.8-7.4 0-.5-.5-.4-8.5 2.1-17.2 3.9-.3 0-1.8.1-1 0-1.9.3-5.5 1.4-11.6 2-5.5.6-11.1 1.3-54.8 6.9-107.1-11.1-11.6-4-21-10.6-11.3-8-21.2-18.9-10.9-12.1-23-25.6-2.1-2.3-3.3-4.7-.1-.3-.1-.7 0-.3.2-.6.1-.3.4-.5.3-.2.6-.2 1.5-.1 2.8.6 10.8 5.8 22.4 11.8 9.8 5.1 24.6 11.5 8.3 3.6 14.5 5.7c26.2 8.6 54.5 12.8 82.3 11.6q37.2-1.6 73.1-10 .5-.1.6-.6 5.6-34.2 18.7-66.5 2-4.9 4-7.9.5-.8 1.4-.9.3-.1.5 0 .3.1.5.3.2.2.3.4.1.3.1.6-.4 7.8-2.1 13.9-3.6 13.2-7.5 26.7-.7 2.4-1.3 5c-.5 2.2-1.2 4.5-1.7 6.8-.7 4.1-1.7 8.1-2.2 12.3q-.5 3.3-.9 6.5 0 .1 0 .2.1.2.2.2.1.1.2.2.1 0 .2 0c28.1-7.6 54.8-19 78.3-36q10-7.2 16.9-16 .6-.8-.1-1.6-2-2.1-4.7-3.1-6-2.2-13.5-3.3-12.6-1.8-24.9-3.7c-19.6-3.1-40-10.7-41.9-33.5q-.9-11 1.2-22.3.1-.2 0-.3 0-.2-.1-.3-.1-.1-.2-.2-.1-.1-.3-.1-25.6-5.5-46.5-21.1c-17.5-13.1-29.1-32.3-35.1-53.6q-8.2-29.1-5.3-60.4 1.7-18.2 8-38.4 1.5-4.8 3.2-10 6.6-19.4 16.6-37.3 9.7-17.3 22.7-31.4 10.5-11.4 24.1-22.7.4-.3 0-.6c-9.3-7.4-19-14.8-29.6-19.9-8.2-3.9-17.3-5-26-2.4q-4.1 1.2-7.9 2.8-.2 0-.4 0-.2 0-.3-.1-.2-.1-.3-.2-.1-.2-.2-.4-.1-.9.2-1.8 5.4-14.5 10.4-28.7.1-.1.2-.2 0-.1.1-.2.1-.1.2-.2.1-.1.2-.1c24.8-14.5 53.6-20.1 82.3-19.2 17.3.6 34.8 5.7 50.8 13.1q8 3.8 16.3 7.7.1.1.2.2.2.1.2.3.1.1.1.3 0 .2-.1.3l-10.8 29.8q0 .1-.1.2 0 .1-.1.2-.1.1-.2.1-.1.1-.2.1l-10.4 4.6q-.3.1-.6 0-.3 0-.5.3-11.1 5.3-21.4 10.2-.2.1 0 .1.1.1.1.2 0 0-.1.1l-2.3 1.2q-.1.1-.2.2-.1.1-.1.3 0 .1.1.2 0 .2.2.2 2.6 1.8 5.4 3.6 1.6 1 3.2 1.7 1.2.4 2.3 1 1.1.5 2.2.9 20.2 6.3 42.2 1.1 22.8-5.3 36.1-23.8 2.6-3.6 5.1-7.6.6-1 1-2.1.3-1.1 1-2.2 2.2-3.8 4.6-7.7c1.7-2.8 3.6-3.9 6.3-1.4q.2.1.3.1.2.1.3.1.2 0 .3-.1.1-.1.2-.2 7.1-10.6 16-19.8c5.6-5.8 12.8-11.2 20.9-12.3q8.9-1.2 15.8 4.7c11.5 9.6 17.5 25.7 19.4 40.4 1.1 8.2.6 15.4-2.2 23.4q-3.2 8.9-7.2 16.8-1.5 3-3.6 5.3c-1.6 1.9-3.6 1.5-5.8 1.2-19.6-3-38.8-9.6-55.5-20.7q-5.2-3.5-10.1-7.8 0-.1-.2-.1-.1-.1-.2-.1-.1.1-.2.1 0 .1-.1.2-2.6 6.3-5.8 13.6-10 22.2-32.3 30.5-23.3 8.7-47.6 3-9.2-2.1-16.9-7.6-10.8-7.7-23.6-17.3-.2-.1-.3-.2-.1 0-.3 0-.1 0-.3 0-.1.1-.2.1c-18.7 12.7-34.8 27.1-50.2 43.6q-11.6 12.5-18.3 26.9-3.9 8.4-6.5 16.2-.9 2.9-1.7 6.1-5.2 20.2-6 38.4-.9 18.2 5.3 34.8 2.7 7.5 7.2 14.5 13.5 21.6 36.3 33.1 17.5 8.8 38.7 13 .5.1.7-.3 1.4-2.6 2.9-4.7.8-1 1.4-2.3.6-1.3 1.4-2.4 13-19.4 29.8-34.3c9.3-8.3 29.2-22.5 41.5-15.6q8 4.4 9.5 12.7.6 3.7-1 12.6-1.3 6.8-2.3 13.6-.2 1.4-1.4 2.2-.1.1-.2.1-.1.1-.1.1-.1 0-.2 0-.1 0-.2-.1-1.5-.4-2.5-1.4c-2.7-2.7-5.5-5.6-9-7.2-8.9-4.2-21.6 2.7-28.7 7.8q-12.8 9.1-23.5 21.8 0 0 0 .1 0 .1 0 .2 0 .1.1.1.1.1.1.1 34.2 3.8 68.9 1.2 17-1.3 34.3-3 .1 0 .2-.1 0 0 .1-.1 0-.1 0-.1 0-.1 0-.2-5.9-19.1-13.5-38-.3-.7-.1-1.4 3.9-15.7 8.3-33 .1-.1.2-.3 0-.1.1-.2.2-.1.3-.2.1-.1.3-.1.8-.2 1.2.5 3.6 6.6 6.9 13.2 10.6 21.3 17.6 43.3 1 3.4 1.9 5.8.2.7.2 1.4 0 .7.3 1.4 1 2.2 1.7 4.6.1.4.5.4 1.8.1 3.7-.2 13.2-1.8 26.1-2.7 1.4-.1 2.8.4.4.1.6.4.2.3.3.7 0 .3-.1.7-.1.3-.4.6-.9.6-1.9 1.1-11.2 5.8-23.2 9.9-.5.2 0 .2zm-153.9-270.3q11.9-7.5 24.4-13.7 1.1-.5-.1-.8-3.4-.7-6.5-1.6-3.3-.9-6.5-1.3-4-.5-7.9-1-4.4-.6-7.9-.7-9.9-.1-19.2.8-.5.1-.1.4l23.2 17.9q.1 0 .1.1.1 0 .2 0 .1 0 .2 0 0 0 .1-.1zm172.9-16.5q-1.2-1.2-2.9-1.5-5.2-1-8.8-.4-1.4.3-2.9.6-1.5.4-2.9 1-5.3 2.4-10 6.2-.9.7.1 1.3 4.4 2.8 8.7 5.1 3.6 1.9 7.4 3.4 3.7 1.6 7.5 3.1 7.9 3.2 15.9 5.2.1 0 .2-.1.1 0 .1-.1.1 0 .1-.1.1-.1 0-.2c-2.2-7.3-5.1-15.2-10-21.2-.7-.9-1.7-1.5-2.5-2.3zm-191.9 468.6c1.5 1.6 3.1 3.4 5 4.5 9.4 5.6 20.6 4.2 30.4.9 24.4-8.3 47.6-23 67.9-39.2q20.7-16.5 38.1-34.3 5.4-5.5 10.3-12.4c1.8-2.5 4.3-6.1 4.4-9q.4-13.9-.8-25.8-2.9-27.5-10.5-55.1 0-.2-.1-.3-.1-.1-.3-.2-.1-.1-.3-.1-.1 0-.3.1-20.1 7.4-39.2 12-8.1 2-18.4 3.2c-20.7 2.4-40.7 3.3-61 1q-4.1-.5-8-1.1-.1 0-.2.1-.2 0-.2.1-.1.1-.1.2-.1.2 0 .3 1.7 5.5 6.4 9.3 7.6 6.2 16.8 9.2c14.9 4.9 31 4.8 46.1 8.5 12 3 16.3 13.3 16.7 24.6.8 22.6-10.2 42.3-27.1 56.6-22 18.6-48.3 32.1-76 40.8q-1.2.4-2.4.9-.3.2-.2.5 1.1 2.7 3 4.7zm328.3-73.9c-4.6-3.8-12.5-2.6-17.8-.6q-5.2 2-10.4 6.3-.1.1-.1.2-.1.2-.1.3 0 .2.1.3.1.1.2.2c3 1.8 6 3.7 9 5.2q14.7 7.4 30.6 11.7.8.2.6-.5c-2.2-7.7-6-18.1-12.1-23.1z" fill-rule="evenodd"/><path d="m902.7 472.7c1.1-2.4 1.5-5.2 2-7.7q.1-.4.4-.5 1-.3 1.2.7c1.7 8.4 1.2 17.5-3.2 25.1-3.6 6-11.2 10.7-17.4 5-8.1-7.6-8.3-19.4-6.1-29.5q1-4.6 2.4-8.6 3.2-9.4 7.8-21.1 2.5-6.5 3.8-12.7.2-1 1.3-.9.5.1.7.6c1 2.9-.1 8.3-.9 11.1q-3.1 10.9-6.3 22.6-1.9 7-1.3 14.4.5 5.7 4.9 8.9 0 .1.1.1.1.1.2.1.1 0 .2 0 .1 0 .2 0c1.6-.1 3.2.4 4.6-.5 2.9-1.8 4.1-4.1 5.4-7.1z"/><path d="m190.9 444.9c1.1-2.9 1.8-6.1 2.5-9.2q.2-1.1 1.4-.9.4 0 .5.4c1.1 2.9 0 8.5-.8 11.3q-3.5 12.1-6.2 22.2-2 7.2-1.5 13.8c.3 4.4 2.6 10.7 8.3 9.9 6.4-.9 8.4-9.7 9.3-14.9q.1-.5.5-.8.4-.3.8 0 .3.1.4.5c1.7 9.8 1.2 19.8-4.8 27.6-4.4 5.6-12 7.6-17.1 1.4-8.5-10.5-6.8-23.8-2.6-36.1q4.6-13.3 9.3-25.2z"/><path d="m415.8 520.4q.1 0 .2.1.1.1-.1.1l-1.8.2q-.4.1-.7.3-.4.2-.7.5-2.1 1.7-4.2 3.3-.1.2-.4.2-.2 0-.4-.1-.2-.1-.3-.3-.2-.2-.2-.4.1-1.8 1.1-3.5.9-1.6 1.2-2.9.4-1.3.8-2.8.2-.9.7-1.7.6-.9.8-1.9.8-3.3 2.6-6.7.4-.8 1.2-1.2c.6-.5 1.4-1.1 2.2-1.4q5.9-2.5 12.1-4.8 51.1-19.5 102.1-39 .1-.1 1.8-.8 1.4-.6 2.8-.8.2 0 .4.1.3 0 .4.2.2.2.2.5.1.2 0 .5l-6.4 17.6q-.1.2-.2.4-.1.2-.3.3-.1.2-.3.3-.2.1-.4.2-48.1 18.2-96 36.6-.5.2-.9.2-.1 0-.2.1-.2 0-.3 0-.1 0-.2.1-.1 0-.2.1-6.6 3-12.2 4.7-1.9.6-3.6 1.5-.3.2-.6.1-.4 0 0 .1z"/><path d="m313.5 479.1-1.2 1.1q-.2.2-.2.3-.1.2-.1.4 0 .1 0 .3.1.2.2.3 5.4 7.2 13.6 10.6.7.3 1.5.3.7 0 1.5-.1.1 0 .2 0 .1 0 .2-.1.1 0 .1-.1.1 0 .2-.1.9-.9 3.4-3 6.6-5.6 12.1-12.3.1-.1.2-.2.1-.1.2-.1.1-.1.3-.1.1 0 .2.1.9.2.6 1.1-1.3 4.6-2.5 9.3-.4 1.4-2.6 4.5-2.3 3.2-9.4 9.1c-6.3 5.1-12.8 10.2-18.1 16.8q-3.6 4.3-3.6 8.6c-.2 8.8 9.5 9.8 16.2 9.1q20.4-2.1 35.8-15.4 2.5-2.2 5.1-4.5.1-.1.3-.1.1-.1.2 0 .2 0 .3.1.1.1.1.2.4.9-.2 1.8-4.5 7.9-10.5 14.5-12.4 13.4-30.2 15c-9.9.9-18.8-1-22.6-11-3.7-9.6 1.6-21.8 8.6-29.1q2-2.1 4.1-4.3.3-.3-.1-.5c-5.8-3-13.7-10.1-11.2-17.4q2.1-5.8 5.2-10.2 3.2-4.4 7.1-7 4.1-2.7 8.6-1.5.4 0 .8 0 .3-.1.6 0c4.4 1.6 3.9 5.9 2.3 9.3q-1 2.2-1.5 4.8 0 0 0 .1 0 0 0 .1 0 0-.1.1 0 0 0 .1-1.2 1.9-2.3 1.2-1-.6-1.7-1.9c-.6-1.2-1.7-2.2-3-2.3-1.8-.3-4.5-.5-6.1.3-.8.5-.9 1.4-2 1.5q0 0-.1 0-.1 0-.2.1-.1 0-.2.1 0 0-.1.1z"/><path d="m555.6 519.1c2.8-8.3 6.2-16.9 9.5-25.7 1-2.6 1.6-5.4 2.2-8.2q.3-1 1.4-.9.2 0 .3.1.2.1.3.2.1.1.2.2 0 .2.1.3.5 5.4-1.4 11.7-3.5 11.7-6.4 23c-1.3 5.1-2.1 12.9.4 17.9q2.1 4.4 6.3 4.2c6.4-.2 8.9-9.1 9.7-14.3q.1-.6.5-1 1.1-1.3 1.4.4 1 5.7.8 11.5c-.4 7.5-4.1 17.3-11.7 20.4-5 2-9.2-.5-12.1-4.5-7.5-10.4-5.3-23.5-1.5-35.3z"/><path d="m741.3 496.7q1 .7 1.9 1 1.3.5 1.9.7 6 3.1 13 7.1.2.1.4.3.2.2.2.5.1.2.1.4 0 .3-.1.5l-13.4 28.8q-.2.3-.4.4-.1.2-.4.3-.2.1-.5 0-.3 0-.5-.1-13.6-7.5-27.6-14.3-1.4-.7-.8-2.1l13.2-28.3q.7-1.5 2.3-.8l9 4.6q.8.5 1.7 1z"/><path d="m1006.6 583.6q-.1 0-.2-.2-2.3-2.6-4.4-5.5c-.7-.9-1.5-1.5-2.2-2.5q-.9-1.4-2.1-2.6-.5-.4-.5.3 7.6 98.6 15.2 196.1c.7 9.9 1.2 19.7.5 29q-.5 6.1-2 13.4-2.7 13-6.5 23.7-.5 1.4-1.4 2.5-.2.3-.5.4-.2.1-.6 0-.3 0-.5-.2-.2-.2-.3-.5-.6-1.8-.7-3.9-.7-9.9-1.1-18.9-.3-7.5-.9-15.1-10-120.1-19.6-240.5-.2-2.8-.9-4.9-.8-2.3-1.4-4.7-.8-3.3-2.5-6.8-.1-.2-.1-.4 0-.2-.1-.4 0-.2.1-.3 0-.2.1-.4l11.9-28.9q.2-.3.5-.5.2-.2.6-.2.3 0 .6.1.3.2.5.5c.9 1.9 1.1 4 2.1 5.8q.7 1.4 1 2.8.1 1.1.6 1.9c.8 1.5 1.8 3 1.8 4.8q0 1.4.8 2.9 1.3 2.1 1.9 4.3.6 2 1.3 4 .7 2.2 1.4 4.1 5.5 15.2 9.9 30.9c1 3.5 2.3 7.5 2.1 11.1q0 .4-.2.7-.2.2-.4.4-.3.2-.7.2-.3 0-.6-.1-1.2-.6-2.1-2-.1-.2-.4-.4z"/><path d="m276.6 576q3.2-.2 5.4-2.7 2.6-3 3.7-7.4.8-2.8 1.3-5.4 0-.1 0-.1.1-.1.1-.2.1 0 .1-.1.1-.1.1-.1.6-.3 1 0 .2.1.3.5 1.6 9 .2 16.3c-1.2 6.4-5.4 14.5-12.4 16.2-7.2 1.9-12.5-5.9-14.4-12q-2.6-8-.4-18.1 1.3-6.2 3.4-12.5 1.7-5 8.6-23c1-2.8 1.6-5.7 2.3-8.5q.2-1.1 1.4-.9.4.1.6.5c.8 2.8 0 7.5-.7 10.1q-2.6 9.5-5.8 20.8-1.6 5.6-2.1 11.5c-.3 4.8-.1 9.5 3.1 13q2 2.2 4.2 2.1z"/><path d="m407.2 538.5q.4-1.7 1.2-2.9.5-.8.7-1.6c.4-1.3 1.1-2.4 1.6-3.6q.1-.2.2-.3.2-.2.4-.3.2-.1.4-.1.2 0 .4 0 1.4.3 2.5 1.3.3.3.7.3c1.6-.1 3.4 1.6 5 2.2q1.3.5 2.3 1.2 1.4 1 3.1 1.7.1 0 .1 0 .1.1.2.1 0 0 .1.1 0 0 .1 0 2.2 1.2 4.4 2.3 5 2.5 9.9 5.4.2.2.3.4.2.1.2.4.1.2.1.4 0 .3-.1.5l-13.4 28.7q-.7 1.3-1.9.6-13.2-7.4-27.6-14.3-.3-.2-.5-.4-.2-.2-.3-.5-.1-.2-.1-.5 0-.3.2-.6 4.4-9.5 8.8-18.8.2-.5.6-1 .3-.3.4-.7z"/><path d="m828.2 632.6q.1 0 .2 0 0 .1.1.1.9 4.1 2.9 6.9 2.1 2.9 5.7 3.9 4.9 1.3 8.7-.4c3.5-1.6 2.2-5.4.8-7.9q-3.3-6.1-5.4-10.7c-3.1-6.8-.4-13.9 2.5-20.1q.1-.2.2-.4.2-.1.4-.2.2-.1.4-.1.2 0 .4.1.8.3.9 1.2c.5 3.6 1.2 7.1 2.7 10.5q2.1 4.8 4.2 9.5 5.6 12.7-1.6 24-3.7 5.8-8.3 8.4c-7.1 4-15-.1-18.7-6.7q0-.1-.1-.2-.1 0-.3 0-.1 0-.2.1-.1 0-.2.1c-3 5.9-8.3 12.4-15 13.5-8.5 1.4-15.6-5.4-17.5-13.3q-1.9-8-1.2-16.3.3-4.1.6-7.9 0-.5-.3-1-1.2-2.2-1.1-5.1 0-2.2 1.5-4.5 2.6-4.1 5.7-7.3 0-.1.1-.1.1-.1.1-.1.1 0 .2 0 .1-.1.1-.1.6 0 1 .6 2.8 4.7 1.5 10.3-2 7.7-2.2 15.8-.1 1.4.3 2.9.4 1.1.4 2.2 0 .9.5 1.8c5.4 10.5 15.9 7.9 21.9-.1 3.2-4.4 1.3-10.7.5-15.4q-.4-2.2-1-4.2-1.1-3.4-2.3-6.9-.1-.4.1-.8l3.5-8.5q0-.1.1-.2 0-.1.1-.2.1-.1.2-.1.1-.1.2-.1.9-.1 1.3.7c2.6 5.3 3.1 11 4.1 16.9.4 2.3-.1 4.5.7 6.9q.4 1.2.4 2.4 0 .1.2.1z"/><path d="m162.9 637.5c-5.3-2.8-8.7-3.8-12.6 1.9q-.1.1-.4.2-.3.1-.5.4-.9 1.7-2.2 3-.4.3-.9.3-.2 0-.4-.1-.2-.1-.4-.3-.1-.2-.2-.4 0-.2 0-.5.5-2.9 1.1-5.2.6-2.2 1-4.2.6-2.5 1.9-5 5.1-9.6 14.2-6.3 3.8 1.3 7.5 4.5 5.5 4.6 10.7 12.5.3.3.2.7l-2.6 11.4q0 .2-.1.3-.1.1-.3.2-.1.1-.3.2-.1 0-.3 0-2.8-.4-5.6-.7-9.3-.9-15.5 1-5.6 1.7-9 6.4-1.1 1.6-.8 3.6.8 5.5 2.1 10.4c.4 1.6 0 3.3.4 4.7q1.1 4.1 1.8 8.2.6 3.1 1.2 6 .5 2.1.8 4 .4 2.2.7 4 3.5 16 5 34.5c1 11.6.5 24.8-3.3 36q-.1.2-.2.3-.2.2-.4.2-.2 0-.4-.1-.2 0-.3-.2-.4-.7-.4-1.5c.5-21.2-2.3-42.5-7.2-63.5-.2-.9-.1-1.8-.3-2.7q-3.6-14.9-5.9-26.2-1.7-8.7-.7-17.1.6-5.2 3.5-10.1 3.2-5.4 8.4-7.5 4.4-1.8 10.7-3.1.3-.1 0-.2z"/><path d="m624.1 671.6q.2 1.2.4 0 1-7.5 2.3-15 .1-.7.3-1.3.4-1.8.6-3.8.3-3.3 1.2-6.8.7-2.3 1.1-4.8.3-1.7 1-3.3.7-1.6 1.1-3.3.8-2.9 2.8-5.6c1.6-2.2 4.7-4.1 7.4-2.8q.6.4 1.3.4.1 0 .2 0 .2.1.3.1.1.1.2.1.1.1.2.2 5 3.7 8.4 9.3.2.4 0 .7l-3.8 9.6q-.1.2-.2.3-.1.1-.3.2-.2.1-.3.1-.2 0-.4-.1-1.5-.5-2.5-1.8-.8-1-1.8-1.8-1.4-1.1-3.2-1.7c-2.7-.8-4.3.5-5.6 2.6q-.7 1.2-1 2.9-.4 1.9-.9 3.8-.4 1.6-.6 3.4-1.3 10.7-2.7 21.7-.8 6.5-2.9 13.9c-.7 2.3-3.2 3.9-5.1 5.3q-.2.1-.5.2-.3 0-.5-.1-.3-.1-.4-.3-.2-.2-.3-.5c-2.5-13.5-7-28-14.8-39.3q-.1-.1-.3-.2-.1-.1-.3-.1-.2.1-.4.2-.1.1-.2.2-.6 1.3-1.6 2.2-.1.1-.2.1-.1.1-.2.1-.1 0-.1.1-.1 0-.2-.1c-5.5-.9-14-4.6-13.6-11.3q.1-1.4 1.6-4 2-3.8 4.1-7.6 1-1.9 2.9-1.5c11.4 2.2 18.7 13.5 22.7 23.9q3 7.8 4.8 15.5z"/><path d="m538.4 683.6c3.5-.5 5.9-3.3 7.1-6.4q1.7-4.3 2.4-8.6.1-.5.5-.7.4-.2.9-.1 0 0 .1.1 0 0 0 0 .1.1.1.1 0 .1 0 .1c2 9.8 1.2 20.7-5.3 28.5-4.5 5.2-11.4 6.5-16.3.9-6.8-7.9-7.4-18.4-5-28.2 2.8-11.8 7.6-22.9 11.8-34.4 1-2.7 1.6-5.3 2.2-8.1q.2-.9 1.1-.9.2 0 .4 0 .2.1.3.2.2.1.2.3.1.2.1.4c.5 4.4-.3 8.6-1.5 12.8q-3 10-5.7 19.9c-1.8 6.8-3.4 17.9 2.2 22.8q1.8 1.7 4.4 1.3z"/><path d="m700.3 691.1q.2-1.2.5-2.3 1.1-3.6 1.5-7.7.1-.3.2-.5.2-.2.4-.4.3-.1.6-.1.3 0 .5.2.6.4.7 1 .1.5.2 1.1 2.1 5.7.8 11.5-.4 1.7 1.4 1.5 11.2-.8 15.1 9.3 1.3 3.4.7 9.4-.3 3-.7 6.2c-1 7.1-2.6 13-8.7 17.4-5.2 3.8-11.9 4.3-17.2.5-7.4-5.4-7.1-17.6-4.8-25.3q2.5-8.3 6.4-16.1c.6-1.1 1.1-2.4 1.7-3.6q.5-1.1.7-2.1zm3.4 32.1q7.3 3 13.8-2.2 1.5-1.2.7-2.8-1.4-2.7-3-4.2-1.6-1.6-4.2-2.5-4.7-1.6-10.4-.9-.3 0-.6 0-.8 0-1.1.8-2.7 8.7 4.8 11.8z" fill-rule="evenodd"/><path d="m771.7 697.4q.9-2.8 2.1-5.1.2-.3.4-.4.2-.2.5-.3.3-.1.5 0 .3 0 .6.1 14.9 8.3 28.4 16.7.1 0 .2 0 .1 0 .2 0 .1 0 .2-.1.1 0 .2-.1l13.4-24.2q.1-.2.4-.4.2-.2.6-.3.3-.1.6-.1.3 0 .6.2 13.9 7.6 27.4 16.2.2.1.3.2.1.2.2.4 0 .2 0 .4 0 .2-.1.4-6.9 14.6-13.5 28.3-.3.5-.6.9-.1.2-.3.3-.2.1-.4.1-.3 0-.5 0-.2 0-.4-.2-13.7-8.5-28.9-17.1-.1 0-.2 0-.2-.1-.3 0-.2 0-.3.1-.1.1-.2.2l-13.3 23.9q-.1.3-.4.5-.2.1-.5.2-.2.1-.5 0-.3 0-.5-.2-13.5-8.2-26.7-15.3-.2-.1-.3-.3-.2-.1-.3-.4 0-.2 0-.4 0-.3.1-.5 5.5-11.9 10.9-23.2 0-.2.1-.2.2-.1.3-.3z"/><path d="m205.1 712.2q-.6-1.7-1.2-3.5-.2-.4 0-.7l3.6-8.6q.1-.1.1-.2.1 0 .2-.1 0-.1.1-.1.1-.1.2-.1.7-.3 1.2.4c1.8 3.2 2.4 6.8 3.2 10.5q.4 1.9.6 3.9.8 7 2.5 13.8.7 2.6 1.7 4.4 1.2 1.8 3.1 3.2 1.4 1 3 1.8 1.2.6 2.6.6 3.3.1 6-1c3.7-1.3 3-4.6 1.6-7.3q-2-4.1-4.3-8.3c-.8-1.3-.9-2.7-1.7-4-1.7-3-1.5-7.6-.4-10.9q1.4-4.3 3-8.2.1-.2.2-.4.2-.2.4-.3.2-.1.4-.1.3 0 .5 0 .9.3 1 1.2.5 5.8 2.5 10.4 2.3 5.1 4.7 10.9.2.4.4.8 3.3 8.4.3 16.5c-3.6 9.8-14 21-25.2 12.3q-2.9-2.2-4.6-5.4-.1 0-.1-.1-.1 0-.2 0 0 0-.1 0 0 .1-.1.1c-2.9 5.7-7.5 11.5-13.4 13.3-7.5 2.3-15-2.4-17.9-9-1.3-2.9-2.1-6.5-2.4-9.8q-.8-8.4.6-17.9 0-.1 0-.2 0-.1-.1-.2 0-.1 0-.2 0-.1-.1-.2-3.3-6.1 1.1-11.5 2.4-3 4.7-5.9.1-.1.3-.2.2-.1.4-.1.2 0 .4.1.2.1.3.2c3.1 4.1 2 9.9 1 14.5q-2 8.5-1.2 15.4c.3 2.4 1.9 6 3.9 7.7 6.7 5.7 15 1.2 19.2-5.1q1.2-1.8 1.3-4.5.3-4.6-.2-6.3-1-3.8-1.8-7.7-.5-1.8-1.3-3.9z"/><path d="m245.5 862.8q.4-1.6 1.3-2.6c.8-.9 1.1-1.8 1.4-2.9q.1-.2.3-.4.1-.2.4-.4.2-.1.5-.1.2 0 .5.1 2.2.9 4.4 2.1c1.2.7 2.5 1.1 3.6 1.9q.7.6 1.4.8 1 .5 1.8 1.1.7.6 1.5.9 1.5.6 2.7 1.5 1.8 1.4 2.5 1.7 5.1 3 9.9 6.1.3.1.4.3.2.2.2.4.1.3.1.5 0 .3-.1.5-6.2 13.1-12.4 25.9c-.5 1-1.1 1.8-1.6 2.6q-.1.3-.4.5-.2.2-.5.2-.3.1-.7.1-.3-.1-.5-.2-12.7-7.9-24-14.3-2.4-1.4-4.8-2.7-.1 0-.2 0 0 0-.1 0-.1 0-.1.1-.1 0-.1.1l-13.5 24.1q-.1.2-.3.4-.3.2-.5.3-.3 0-.6 0-.3-.1-.5-.2-12.9-7.9-26.6-15.3-.2-.1-.4-.3-.2-.2-.2-.4-.1-.2-.1-.5 0-.2.1-.4l13.3-28.7q.1-.3.4-.5.2-.2.5-.3.3-.1.6-.1.3.1.6.2 4.4 2.3 8.6 4.8.5.3 1 .6 9.3 5.4 18.8 11.2.1.1.2.1.2 0 .3 0 .1-.1.2-.1 0-.1.1-.2 4.8-8.6 9.5-17.2.2-.4.7-.6 0-.1.1-.2.1-.1.2-.1 0-.1.1-.2 0-.1 0-.2z"/><path d="m734.9 929.2q-.8 1-1.6 1.4-2.7 1.6-1.7-1.3 2.7-7.7 5.7-16 1.3-3.7 4.9-5.1 2.8-1.1 5.7-2.2 55.3-21.2 112.4-43 .1 0 .1 0 .1 0 .2 0 .1 0 .2 0 .1 0 .2 0 .7.2.7.9 0 .4-.1.8-3.1 8.4-6.3 17.3-.1.1-.2.3 0 .1-.2.2-.1.2-.2.3-.2 0-.3.1-2.9 1.3-5.8 2.3c-1.7.6-3.2 1.5-4.9 1.9q-1 .3-2 .7-13.3 5-26.6 10.1-1.2.5-2.5.8-.8.2-1.6.7-.7.4-1.5.7-26.9 10.2-53.3 20.4-.6.2-1.2.2-.4 0-.7.2-2 1.1-3.9 1.7-1.6.4-3 1.1-1.5.7-3 1.4-1.6.7-3.2 1.2-1.6.5-3.1 1.4-.5.3-1 .2-.1 0-.2 0-.2.1-.3.1-.1 0-.2.1-.1.1-.2.2-.3.4-.8.5 0 .1-.1.1-.1 0-.1.1-.1 0-.2.1 0 0-.1.1z"/><path d="m347.4 958q-2.9 1.4-5.3 2.2-2.1.7-4.2 1.7-1.9.9-3.9 1.7-2.6 1-4.5 3-.6.7-1.3 0-.3-.2-.3-.6 0-1 .3-1.7 1.5-3.6 2.7-7.3 1.6-4.9 3.7-10c.5-1.3 3-2.4 4.4-3.1q1.2-.7 2.8-1.3 55.5-21.2 114.1-43.6.8-.3 1.4-.3.2 0 .4.1.2.1.4.3.1.2.1.5.1.2 0 .4l-6.2 17.1q-.1.3-.3.6-.2.3-.4.5-.2.2-.5.4-.3.2-.6.3-49.5 18.7-100.2 38.2c-.9.4-1.7.5-2.6.9z"/><path d="m173.6 967.7q-.9 1.2-2.1 1.9-3.2 2-2-1.6.6-1.8 1.5-4.2.1-.2.3-.3 0-.1.1-.1.1-.1.1-.2.1-.1.1-.2 0-.1.1-.2.6-3.1 2.1-6.3.8-1.6 1.2-3.4c.4-1.9 1.4-3.6 3.2-4.5q3.7-2.1 7-3 .3-.1.5-.3 0-.1.1-.1 0 0 0-.1.1 0 .1 0 .1 0 .1-.1 45.4-17.4 87.6-33.4 2.8-1 5.6-2.2 1.1-.5 5.2-2 3.3-1.1 5.2-1.9 4.2-1.8 8.6-3.3.2-.1.3-.1.2 0 .3.1.1 0 .2.1.2.1.2.2.4.6.2 1.3-3 8.3-6.3 17.4-.3.7-1 1l-98.1 37.4q-.1 0-.3 0c-.1 0-.3 0-.4 0q-2.4 1.3-4.9 2.2-.8.3-1.7.4-.7.1-1.2.4-4.7 2.7-11.2 4.6-.4.1-.7.5z"/></svg>