<svg height="1080" viewBox="0 0 1080 1080" width="1080" xmlns="http://www.w3.org/2000/svg"><clipPath><path d="m67 47h946.22v985.65h-946.22z"/></clipPath><path d="m813.6 264.3 47.2-17.3q.2 0 .4 0 .2 0 .3.2.1.1.2.3.1.1 0 .3l-1.1 6.5q0 .1-.1.2 0 .1-.1.2 0 0-.1.1-.1 0-.2.1l-47.2 17.3q-.2 0-.4 0-.2 0-.3-.2-.2-.1-.2-.3-.1-.1 0-.3l1.1-6.6q.1 0 .1-.1 0-.1.1-.2 0-.1.1-.1.1-.1.2-.1z"/><path d="m829 287.7c2.6 2.9 7.3 3.7 11.1 3.3q2.5-.3 6.5-2.5 5.4-2.9 10.1-6 .2-.1.4-.1.2 0 .3.1.2.1.3.3.1.2.1.4l-.5 6.6q0 .3-.1.5 0 .2-.2.4-.1.3-.3.4-.1.2-.3.3-10.4 6.4-21.7 13.5-4.9 3.1-9.5 6.5-.1.1-.2.1 0 .1-.1.1 0 0-.1 0-.1.1-.1.1-1 .1-.8-.7.6-2.7 1.1-5.5.7-3.1 3.1-5.2.1-.1.1-.1 0-.1 0-.2 0-.1 0-.2-.1 0-.1-.1-4.5-2.7-6.5-6.7-1.6-3.3.2-6.7 3.5-6.5 7.1-11c4.1-5.2 12.1-10.4 16.3-1.7 1.3 2.8-.8 7.9-2.1 10.6q-.1.2-.3.3-.3.1-.5.1-.3 0-.5-.1-.2-.1-.3-.4-1.1-2.6-3.3-4.1c-3.9-2.7-8.2-.2-11.2 2.6q-.6.6-.3 1.4.8 2 2.3 3.7z"/><path d="m803.3 306.1q2.2-3.5 2.7-7.5 0-.1 0-.2.1-.1.2-.1.1-.1.2-.1.1 0 .2 0 .5.2.6.8c.8 5.7.7 11.2-2.6 16.1-2.7 4.1-7.6 6.1-11.4 1.8-3.9-4.5-4.5-10.9-3.3-16.5 1.7-8 5.1-15.7 7.8-23.2.6-1.6.9-3.3 1.4-5q0-.1 0-.1.1-.1.2-.2 0 0 .1-.1.1 0 .2 0 .6 0 .7.7.4 2.5-.4 5.7-1.6 6.1-3.4 12.3c-1.4 4.5-3.2 12.7.3 16.5q.4.4 1 .6.6.1 1.2.3 1.4.4 2.6-.2.9-.4 1.7-1.6z"/><path d="m259.8 292.8c2.5-5.9 4.8-12 7.5-18q.1-.2.3-.3.3-.2.7.2.1 0 .1 0 0 .1.1.1 0 .1 0 .1 0 .1 0 .1 2.2 8.5 3.6 17.4c3.4 21.1 5.5 43.9 7 64.5q2.6 37.3 4.2 74 .6 12 4.1 23.4c1.5 4.9 4.7 9.5 9.3 12.3 9.5 5.8 20.1 7.4 31.1 7.1 26.1-.7 51.9-7.5 76.4-17q16.3-6.4 33.8-13.3 4.6-1.8 9.6-3.4 5.2-1.6 8.7-1.7c4.5-.1 11.1 1.5 12.9 6.2 3.6 9.5-3 19.5-9.2 26.4q-8 8.9-15.2 17.2c-2.7 3.2-5.6 7.1-7.7 10.7q-2.2 3.7-4.5 7.7-.5.8-1.2 1.2-.2.2-.5.2-.2 0-.4-.1-.3-.2-.4-.4-.1-.2-.1-.5-.1-2 .6-4c3.1-9.8 9.6-19.9 16.1-26.8q4.4-4.7 9-9.5c1.1-1.2 4.7-5.5 2.4-6.9-2.1-1.2-5.7-.8-7.9-.2q-7.6 1.9-15.6 5-14.7 5.8-29.8 11.7c-26.5 10.5-53.3 17.9-81.6 18.6-13.5.3-28-3-37.6-12.8-5-5.2-8.1-12.3-9.7-19.3q-1.7-7.5-2.1-13.9c-1.8-33.2-3.6-65.8-6.5-99.5q-1.6-18.9-3.3-32.5-1.5-11.6-4.3-22.4-.2-.8.1-1.6z"/><path d="m435.9 308.4q1.6-3.1 2.1-6.4 0-.3.1-.4.2-.2.5-.2.1 0 .2 0 0 0 .1.1.1 0 .1.1.1.1.1.2c.9 5.7.8 11.5-2.5 16.5-1.7 2.7-5.3 5.2-8.5 3.8-2.9-1.2-5.1-4.8-5.9-7.6q-1.5-5.1-.2-11.2c1.6-7.4 4.7-14.7 7.3-21.7q1.1-2.9 1.8-6.3 0-.1.1-.2.1-.1.2-.1.2-.1.3-.1.1 0 .2.1.5.4.6 1.1.1 3.6-1 7.2-2.8 9.2-4.2 15.4-.7 3.2-.4 6.7c.2 3.4 2.6 7.4 6.6 5.5q1.5-.8 2.4-2.5z"/><path d="m310.5 303.1c1.3 6.8.4 16.6-6.3 19.9q-3.5 1.8-6.5-.7c-4.7-4-5.6-10.9-4.4-17q1.1-6 3.7-12.5 3.6-8.9 5.7-16.3 0-.1.1-.2.1-.1.2-.1.1 0 .2 0 .1 0 .2.1.4.3.5.8.2 3.5-1 7.4-2 6.8-3.7 13.1c-.9 3.4-1.6 8.4-.3 11.8 1.8 4.4 6.4 4.1 8.5.3q1.6-3.1 2-6.5 0-.3.3-.5.2-.1.3 0 .4 0 .5.4z"/><path d="m587.4 313c1.6 1.1 3.9.5 5.2-.9 2-2.2 2.7-5.4 3.2-8.3q0 0 .1-.1 0-.1.1-.1 0-.1.1-.1.1 0 .2 0 .5 0 .5.5 0 .1 0 .3c1.4 6.7.2 17.3-7.1 20-4.7 1.7-8.2-3.2-9.6-7.2-1.9-5.8-.6-12.3 1.4-18.1q2.7-7.9 5.6-15.2c.8-2.1 1.3-4.2 1.8-6.4q.1-.1.1-.1.1-.1.1-.2.1 0 .2 0 .1-.1.2 0 .6.1.7.7.2 2.8-.4 5.2-1.6 6.4-3.6 13.1c-1.3 4.3-3.4 13.9 1.2 16.9z"/><path d="m699.6 313.8c2 2.2 5.2 1.1 6.7-1.2q1.8-2.7 2.4-7.1 0 0 .1-.1 0 0 0 0 0-.1 0-.1.1 0 .1-.1.3-.3.6-.2.2.1.3.4 1.5 7.9-1 13.9c-2.1 5.1-8.2 10-13 4.2-6.6-8.3-2.8-19.6.5-28.3q2.3-5.9 4.3-11.8.7-1.9 1.2-4.3 0-.1 0-.2.1-.1.2-.2.1-.1.2-.1.1 0 .2 0 .8.1.8.8c.2 2.3-.2 4.7-.8 6.9q-1.9 6.5-3.7 12.9c-1.1 4.2-2.3 11.1.9 14.6z"/><path d="m189.9 366.8q-.1.1 0 .2 0 .1.1 0c12.9-8.9 25-19.7 36.3-31q5.3-5.3 9.4-11.5.1-.1.1-.2 0-.1 0-.1 0-.1-.1-.2 0-.1-.1-.1c-4.7-3.3-9.5-6.8-8.5-13.4.8-5.8 7.7-11.3 12.6-12.8 5.3-1.7 8.5 1.7 9 6.7.5 4.5-.6 9.2-2.4 13.4q-.1.4.2.6l5 3.7q.1 0 .2.1 0 .1.1.2 0 .1 0 .2-.1.1-.1.2l-4.8 8.3q-.1.1-.2.2-.1 0-.2.1-.1 0-.2 0-.1-.1-.2-.1l-4.7-3.5q-.3-.2-.5.1-5.4 8-11.9 14.4-18.9 18.7-43 32-2.5 1.4-5.3 2.2-.4.2-.9.1-1-.2-.6-1.3.7-1.5 1.5-2.5 5.9-6.7 10.3-12 .7-.9 1.3-1.8.2-.3.1-.6c-1-4-3.9-6.2-5.7-9.6q-3.6-6.5-1.4-13.8c1.9-6.2 6.2-11.2 12.4-13.1 5.6-1.6 11 .8 12.3 6.7 3.2 13.1-11.2 29.5-20.1 38.2zm50.4-58.2c-1.5-1.4-3.7-2.3-5.7-1.2q-.1.1-.2.2-.1.1-.2.3 0 .1 0 .3 0 .1.1.3c.9 2.1 4.2 4.4 6.1 5.8q.4.2.5-.2c.4-1.7.9-4.1-.6-5.5zm-43.6 44.6c3.1-4.3 6.8-10.1 7.5-15.5.5-4.5-2.9-7.8-7.4-6.6-5 1.2-10.1 7.3-4.9 12 3.1 2.8 5 5.6 4.5 10q-.1.6.3.1z" fill-rule="evenodd"/><path d="m376.3 309.1-47.3 17.4q-.2 0-.3 0-.2-.1-.4-.2-.1-.1-.2-.2 0-.2 0-.4l1.2-6.6q0-.1 0-.1.1-.1.1-.2.1-.1.2-.1 0-.1.1-.1l47.3-17.3q.2-.1.4 0 .2 0 .3.1.1.1.2.3 0 .2 0 .4l-1.2 6.5q0 .1 0 .2 0 .1-.1.1-.1.1-.1.2-.1 0-.2 0z"/><path d="m849.2 343.4q-.4-.4-.3.1 4.9 64 9.8 128.3c.7 8.5.1 17.1-1.8 25.4q-1.6 6.6-4 13.1-.1.1-.2.2 0 .1-.2.2-.1.1-.2.1-.2.1-.3.1-.9-.1-.9-1c-.7-8.3-1-17.7-1.8-26.8q-6.1-73.5-12.2-149.4-.2-3-3-9.7-.1-.3 0-.6l7.6-18.3q0-.1.1-.2.1-.1.1-.1.1-.1.2-.1.1-.1.2-.1.5-.2.8.4 1.2 3.3 2.4 6.6 5.9 16.4 8.4 24.4 1.8 5.9 3.4 11.9.4 1.6.2 3 0 .3-.2.5-.2.3-.4.4-.3 0-.6 0-.3-.1-.5-.4z"/><path d="m773.4 321.7q-.8 1.9-1.4 4.1 0 .3.2.5l4.2 3.4q.2.3.1.6l-4.6 8.3q-.1.1-.2.2-.1.1-.2.1-.2 0-.3 0-.2 0-.3-.1l-4.5-3q-.1-.1-.2-.1 0 0-.1 0 0 0-.1.1-.1 0-.1 0-4.9 6.5-12.3 14-6.8 7-14.4 11.6c-9.5 5.8-19.8 11.2-29.8 16.1q-1.7.8-3.5 1.1-.1 0-.2 0 0 0-.1 0-.1 0-.1 0-.1 0-.2-.1-.3-.2-.2-.6 0-.3.3-.5 1.4-1.2 1.9-1.6c6.1-3.9 12-8 18-12q15.9-10.5 30.7-24.3 3.3-3 5.9-6.2.1-.1.1-.2 0-.1 0-.2 0-.1-.1-.2 0 0-.1-.1-3.8-2.2-6.5-5c-4.1-4.2-3.6-10-.4-14.5 2.7-3.7 8.6-7.9 13.5-7.6q4.8.2 5.9 5.2.3 1.4.2 3.9-.1 2.2-.3 4-.1 1.4-.8 3.1zm-13.2-3.6c1.8 2.5 4.2 3.5 6.6 5.2q.4.2.5-.2c.5-2.8.5-5.8-2.2-7.2-1.5-.7-3.2-.1-4.5.6q-.2.1-.4.3-.1.2-.2.4 0 .2 0 .5.1.2.2.4z" fill-rule="evenodd"/><path d="m634.8 343.5c0 3.1 1.2 7.4 5.2 7.2q2.2-.1 3.6-2.5 1.5-2.8 2.1-5.6.1-.7.4-1.3.7-1.2 1 .2c1.2 5.9.5 12.6-3.4 17.4-1.8 2.3-5.2 3.9-8 2.5q-2.1-1.1-3.7-3.5c-4.7-7.6-2.3-16.4.7-24.4 2.2-6.3 4.9-12.3 6.4-18.7q0-.1 0-.1.1-.1.1-.1.1-.1.1-.1.1 0 .1-.1.4-.1.7.1.3.2.3.6.2 3-.4 5.4-1.8 6.9-4 14.3-1.2 4.2-1.2 8.7z"/><path d="m485.6 356.5q1.2-10.9 3.5-20.1c1-4.3 4-12.6 10-7.3q2.3 2 4.1 4.8.1.1.1.2 0 .1 0 .2 0 .1 0 .2 0 .1 0 .2l-2.4 5.9q-.1.2-.2.3-.1.1-.3.1-.1 0-.3 0-.1-.1-.2-.2c-1.6-1.5-3.4-3.1-5.6-3.5q-.1 0-.2 0-.1 0-.2 0 0 0-.1.1-.1 0-.2 0-1.6 1.1-2.2 3.2-1.1 3.8-1.5 8.4c-.6 6.4-1.3 12.6-2.8 18.7-.5 1.9-2 2.7-3.4 3.7q-.1.2-.3.2-.2 0-.4-.1-.1 0-.2-.2-.1-.1-.2-.3-1.9-10.3-6.1-19.2 0-.1-.1-.1 0 0-.1 0 0 0-.1 0 0 .1 0 .1c-.9 5-2.5 9.6-5.4 13.9-9.8 14.3-23.9 25.6-40.3 31q-11 3.6-21.7 7.2-.7.3-1.3.1-.2-.1-.3-.2-.2-.2-.2-.4 0-.1 0-.3.1-.2.3-.3 1.4-1.1 3-2 7.1-4 15.4-8.3 14.8-7.6 27.9-18.5c8.3-6.8 15.9-14.7 20.7-23.6q.2-.3-.1-.4-7.1-1.6-10.6-7.3c-.8-1.3-1.1-2.8-.3-4.2q1.4-2.7 2.9-5.5.1-.1.2-.2.1-.2.3-.2.1-.1.3-.2.2 0 .3 0c10.4 1.4 15.6 15.3 17.7 24.1q.4 1.7.6 0z"/><path d="m353.9 361.8c-2.5 5-8 10.8-14.3 7.9-8.2-3.7-7.4-14.4-6.7-21.9.2-1.7-.7-2.6-.8-4.2-.3-3 2.6-5.9 4.4-8.1q.1-.2.3-.2.1-.1.3-.1.1 0 .3.1.1.1.2.2 1.7 2.6 1 6c-.8 4.4-2.1 9.4-.9 13.9 1.4 5.2 6.7 6.9 11 3.8 2.5-1.7 4.4-4 4.1-7.1q-.4-6.2-2.9-12.4 0 0 0-.1 0-.1 0-.2 0-.1 0-.2 0-.1 0-.2l2.3-5.4q.1-.1.3-.2.1-.1.3-.1.2 0 .3.1.2 0 .3.2 1 2 1.4 4.3 1.1 5 1.8 10.6c.8 5.4 3.1 9.4 9.2 9.1q1.5-.1 2.8-1c1.5-1.1.5-3.6-.3-4.9q-2.5-4.4-3.7-7.6c-1.2-3.5.2-7.2 1.5-10.4q.3-.8.8-1.4.1-.1.3-.2.2 0 .3 0 .2 0 .3.2.2.1.2.3.3 1.8.7 3.6c1.2 5.6 5.1 10.1 5.3 15.9.2 4.8-2.5 9.6-6.1 12.8-4.8 4.2-10.6 1.8-13.5-3.1q-.3-.5-.5 0z"/><path d="m779.2 349.5 47.3-17.3q.2-.1.4 0 .1 0 .3.1.1.1.2.3 0 .1 0 .3l-1.1 6.6q0 .1-.1.2 0 0-.1.1 0 .1-.1.1-.1.1-.1.1l-47.4 17.3q-.2.1-.4.1-.1-.1-.3-.2-.1-.1-.2-.2 0-.2 0-.4l1.2-6.6q0-.1 0-.2.1 0 .1-.1.1-.1.1-.1.1-.1.2-.1z"/><path d="m208 397.9q-.4 0-.1.3l10.9 11.5q.3.2.5 0 8.5-12.1 16.2-25.1c2.6-4.4 4.7-9.1 7-13.7q.3-.5.6-.9.2-.2.3-.2.2-.1.3 0 .2 0 .3.1.1.1.2.3.1.5.1 1.1-1.1 14-8.2 27.5-4.9 9.3-10.4 17.9 0 0-.1.1 0 0 0 .1 0 0 .1.1 0 .1 0 .1 5.6 5.6 9.6 11.4c1.8 2.7 3 6 3.6 9.1q2.9 15.5-3.7 30.3-2.7 6.2-7.7 10.1-10.2 8-21.3 9.7c-4.5.7-9.7 0-11.4-5.1-4.2-12.8-2.8-27.5 2.5-39.4 2.9-6.5 8.1-13.3 12.3-19.6q0 0 0-.1 0-.1 0-.1 0-.1 0-.2 0-.1-.1-.1-7.8-8.4-15.2-17.9c-2.2-2.8-4.5-4.5-7.5-6.2q-.1-.1-.2-.2-.1-.1-.2-.3-.1-.1-.1-.3 0-.2 0-.3 1.7-9.3 3.5-19.5 0-.3.2-.5.6-.4 1.1 0c7.4 6 15 12.1 23.2 17q.2.1.3.3.1.1.2.3 0 .2 0 .3 0 .2-.1.4-.3.6-1.1.8-2.7.7-5.6.9zm-8.4 61.1c-4.9 10.7 8.4 7.5 12.9 5.9 7.5-2.8 15.8-7.6 20-14.6q.1-.2 0-.6-.3-.8-.9-1.6-6.6-8.7-14.8-17-.1 0-.1 0-.1-.1-.2-.1-.1.1-.1.1-.1 0-.1.1-6.9 10.3-13.1 21-2.1 3.6-3.6 6.8z" fill-rule="evenodd"/><path d="m658.9 494.2c14-10.2 27.9-22.6 38.1-36.7q.2-.2.1-.5-.1-.7-.4-1.3-1.4-3.3-2.7-6.1 0-.1-.1-.2-.1 0-.1-.1-.1 0-.2 0-.1 0-.2 0c-6.2 1.5-12.5 2.4-19.1 2.6q-6.7.2-10.8-1.4c-17.2-6.9-13.9-28.3-5.1-40.2 3.5-4.7 9.6-10.1 15.7-9.1 11.3 1.9 20.8 16.1 24.8 25.9q.2.5.6.4c9.4-2.6 17.4-6.6 26-11.6q.4-.3 0-.5-4.2-3.1-8.4-5.9c-8.1-5.4-16.1-8.1-25.8-4.5q-.1.1-.2.1-.1 0-.2 0-.2-.1-.3-.1-.1-.1-.1-.2-.3-.3-.1-.9 3.3-9.3 6.6-18.3.1-.2.2-.3 0-.1.1-.2.1-.2.3-.3.1-.1.2-.1c12.1-6.2 26.3-8.8 40.4-9.7q11.6-.7 20.6 1 11.4 2.3 21.8 7.2 5.2 2.4 10.2 4.8.6.2.4.8l-6.9 18.8q-.2.5-.6.4c-2.2-.1-4.5.2-6.5.8q-8.6 2.4-18.1 7.4-.2.1 0 .2c11.6 9.1 26.6 13 41.3 12.3q10.3-.5 18.5-3.7 2.3-.8 4.3-2.3.3-.2.2-.5-2-13.2-8.8-24.6-.3-.6-.2-1.2 1.8-9.8 3.4-19.2 0-.1 0-.1.1-.1.1-.1 0-.1 0-.1.1-.1.1-.2.6-.7 1.1 0 10.9 14.8 12.2 33.4c.7 10.2-1.5 20.7-6.8 29-2.7 4.3-6.7 6.6-11.6 8-18.3 5.2-40.3 3.1-56-8.4q-7.5-5.4-16.1-11.9-.1-.1-.1-.1-.1 0-.2 0-.1 0-.1 0-.1 0-.1 0-2.4 1.6-4.7 2.9-9.4 5.3-19.4 10.8-6.5 3.6-12.5 5.8-.3.1-.3.4 1.2 13.5-3.1 23.6-3.3 8-9.9 15.7-16 18.5-36.4 32.5-.1.1-.2.2-.1.1-.2.2 0 .1-.1.2 0 .2 0 .3c0 7.3 1.8 16 6.4 21.3 7.7 8.8 20.4 7.1 29.4 1.9 7.4-4.2 14.1-10 20.2-15.8 10.8-10.4 20.6-21.6 30.9-32.7 9.3-10 20.2-19.3 31.7-26.4 8.4-5.2 18.2-9.2 28-9.3q10.3 0 18.1 7c5.8 5.2 6.5 16.3 6 23.7q-.1.2-.2.4 0 .2-.2.3-.1.1-.3.2-.2.1-.4.1-.8.1-1.5-.4c-6.9-4.7-14.7-9.9-23.2-10-11-.2-21.6 5-31 11.4q-10.7 7.1-20.4 17.6-11.5 12.4-25.1 27.2-7 7.6-16.3 16-7.6 6.7-15.7 11.4c-8.2 4.7-17.8 4.6-25.7-.6-12.5-8.4-16.8-25.7-16.1-39.9q.1-.5-.3-.3-10.2 6.6-21.3 10.7c-6.8 2.5-15 4.3-21.9 2.8-16.1-3.2-24.1-19.6-26.7-34.3q-2.1-12-.6-23.3 2-14.2 7.6-28.2.7-1.7-.5-.4-15.7 15.6-32.4 30.8-5.2 4.7-13.3 10.9c-12.1 9.3-25 16.7-40.1 14.8-9.5-1.1-15.5-8.6-18.6-17.1q-5.7-16-1.5-33.4c3.6-15.3 11.6-30.7 20.9-43.4 1-1.4 4.2-5.8 5.9-6.3q.3 0 .5 0 .3.1.5.3.1.2.2.5 0 .3-.1.5c-1 2.4-2 4.7-3.3 6.9-7.6 13.1-15.5 27.2-18.2 42.1-1.4 7.7-.8 19.2 5.6 24.6 5.7 4.7 13 5.2 20.2 3.9 7.4-1.2 14.2-4.6 20.3-8.7 11.7-7.7 22.3-17.3 32.2-26.9q15.6-15.1 32-31c11.6-11.3 23.7-22.1 36.9-31.5q10.9-7.8 21.7-12.4c11.9-5 23.7-5 31.7 6.2 3 4.2 3.6 8.4 3.3 13.5q-.3 5.5-.5 10.5 0 .2-.1.3-.1.2-.2.3-.1.2-.3.2-.2.1-.4.1-.9-.1-1.5-.9-2.1-2.7-4.2-5.3c-5.8-7.3-15.6-7.9-23.8-5.1q-9.9 3.3-20.2 10c-16.7 10.9-31.9 24.9-46.5 39.1q-.7.7-.9 1.6-.9 4.1-2.2 8.4c-4.1 13.1-7.5 25.8-5.6 38.5 2.8 18.4 19.2 26.2 36.3 22.5 11.5-2.4 23.1-8.4 32.9-15q.6-.4.8-1c3.4-10.3 7.5-20.1 13.3-28.8q.8-1.3 1.8-2.1.2-.2.5-.2.3 0 .5.1.3.1.4.4.1.2.1.5-.2 1.9-1 3.7-4.3 9.6-7.9 18.4-.8 1.8-1.4 3.8-.2.5.2.2zm85.7-88.9 14.2-7.2q0 0 .1-.1 0 0 0-.1 0 0-.1 0 0-.1 0-.1-12.2-2.7-26.3-1.5-.4 0-.1.3l11.6 8.6q.1.1.2.1.1 0 .1 0 .1 0 .2 0 .1 0 .1 0zm-69.7 18c-4.4-1.9-10.6-1.1-12.4 4q-.1.1-.1.2 0 .1.1.2 0 .1.1.2 0 0 .1.1c5.8 3.2 13.5 3.1 19.9 2.5q.5 0 .2-.4-3.8-5-7.9-6.8z" fill-rule="evenodd"/><path d="m569.5 381.1-47.3 17.3q-.1.1-.3 0-.2 0-.4-.1-.1-.1-.2-.3 0-.2 0-.4l1.2-6.5q0-.1 0-.2.1 0 .1-.1.1-.1.2-.1 0-.1.1-.1l47.3-17.3q.2-.1.4 0 .1 0 .3.1.1.1.2.3 0 .2 0 .4l-1.1 6.5q-.1.1-.1.2 0 .1-.1.1-.1.1-.1.1-.1.1-.2.1z"/><path d="m345.1 396.1 8.4-18.1q.1-.1.2-.2.1-.1.2-.2.2 0 .3 0 .2 0 .3.1l17.5 9q.1.1.2.2.1.1.1.2.1.2.1.3 0 .1-.1.3l-8.4 18q-.1.1-.2.2-.1.1-.2.2-.2 0-.3 0-.2 0-.3-.1l-17.5-9q-.1 0-.2-.1-.1-.1-.1-.3-.1-.1-.1-.3 0-.1.1-.2z"/><path d="m897.3 452.9c2.3.5 3.9-2.2 4.2-4q.3-1.8.4-3.6.1-.2.2-.3.1-.2.2-.3.2 0 .4 0 .2 0 .3.1.5.4.6 1.1c.7 4.6.3 12.8-3.9 15.7-2.7 1.9-6.4.4-8.1-2.2-3.1-4.8-2.5-12.6-1.3-18.2q1.5-7.3 3.8-15.5c3.1-11.4-.6-20.7-8.8-28.6q0-.1-.1-.2 0-.1-.1-.1 0-.1 0-.2 0-.1.1-.2 1.6-4.2 3-7.5.1-.3.2-.4.4-.3.7 0c5.2 5.8 8.9 12.1 9.8 19.9q.9 8.4-1.2 16.3-1.5 6.1-3.2 11.7c-1.3 4.3-3.2 15 2.8 16.5z"/><path d="m366.7 413.9 8.7-15.5q0-.1.1-.2.1-.1.2-.1.1-.1.3 0 .1 0 .2 0l17.4 10.3q.1 0 .2.1.1.1.1.2 0 .1 0 .2 0 .1 0 .2l-8.7 18.3q-.1.1-.2.2-.1.1-.2.1-.1.1-.3.1-.1-.1-.2-.1l-17.9-10.6q-.1-.1-.2-.1-.1 0-.3 0-.1.1-.2.1-.1.1-.1.2l-8.6 15.4q-.1.1-.2.2-.1.1-.2.1-.1 0-.2 0-.1 0-.3-.1l-16.9-9.7q-.1-.1-.2-.2-.1 0-.1-.2 0-.1 0-.2 0-.1 0-.2l8.6-18.3q0-.1.1-.2.1-.1.2-.1.2 0 .3 0 .1 0 .2.1l17.5 10.2q.1.1.3.1.1 0 .2 0 .1 0 .2-.1.1-.1.2-.2z"/><path d="m560 408.9-8.4 18.1q-.1.1-.2.3-.1.1-.3.1-.2.1-.4.1-.1 0-.3-.1l-17.5-9.1q-.2 0-.3-.2-.1-.1-.1-.3-.1-.1-.1-.3 0-.2.1-.3l8.4-18.1q.1-.1.2-.3.2-.1.3-.1.2-.1.4-.1.2 0 .3.1l17.5 9q.2.1.3.2.1.1.2.3 0 .2 0 .3 0 .2-.1.4z"/><path d="m308.9 414.6c1.8-4.7 3.8-9.4 4.8-14.3q.1-.1.1-.1 0-.1.1-.2 0 0 .1-.1 0 0 .1 0 .5-.3.8.2.2.3.2.7.2 3.4-.6 6-2 7-4.1 14.7c-1 3.8-2 10.9 1.5 13.9 2 1.6 4.8.7 6.1-1.3q2-2.7 2.7-7.3 0-.3.3-.5.2-.2.5 0 0 0 .1 0 0 .1 0 .1.1 0 .1.1 0 0 0 .1c1.3 6.3.7 13.2-3.5 18-3.2 3.6-7.7 3.6-10.7-.3-6.7-8.7-2-20.7 1.4-29.7z"/><path d="m153.6 410.7q-1.3 0-1.2-1.3.1-2.2.6-4.8.6-3.3 4.4-2.8 9.7 1 16.7 8.7c2.7 2.9 4.2 6.5 3.6 10.6q-.1.8-.9 1.4-.1.1-.1.2-.1.1-.1.2 0 .1 0 .2.1.1.1.2 1.1 1.5.4 3.6c-2 5.3-9.6 3.5-13.4 2.2q-.1-.1-.2-.1-.2 0-.3.1-.1 0-.1.1-.1 0-.2.1c-2 3.5-4.9 6.2-8.3 8.4q-4.9 3.2-10.2 6.4c-2.1 1.2-5.4 3.4-6.1 5.7q-.1.2-.1.5 0 .3.1.5.1.3.3.5.2.2.4.3c2.1 1.4 5.9 1 8.4.6q9.6-1.7 19.8-6.6 6.1-2.8 12.8-6.6.1 0 .3 0 .1 0 .2 0 .1.1.2.2.1.1.1.3 0 .7-.5 1.2-3.7 3.7-7.8 7.5c-6.8 6.2-17.5 11-26.9 11.1-5.1 0-11.9-2.3-11.4-8.5.4-5.1 5-10.4 9.3-13.4 4.6-3.1 9.3-6 13.5-9.7q.6-.5-.2-.6c-4.5-.9-6-3.8-5.5-8.3q.6-4.1 2.6-7.6.2-.5-.3-.5zm3.6-1.8c2.1 0 4.1.5 6.1 1.3q1.2.5.2-.4c-1.5-1.1-4.8-2.6-6.5-1.2q-.3.3.2.3zm-1.6 9.8q3.1 1.3 6.8 1.7.4 0 .4-.3.8-3.5-1.4-6.4-.1-.3-.4-.4-.2-.1-.5-.2-.2 0-.5 0-.2.1-.5.2-2.4 1.5-4.3 3.7-.1.2-.2.5 0 .2 0 .5.1.2.2.4.2.2.4.3zm10.8 2.5q0 0 0 .1 0 .1 0 .1 0 .1.1.1 0 .1.1.1 4.3 1.3 8.1 1 .1 0 .2-.1.1 0 .2-.1 0-.1 0-.2 0-.1 0-.2-2.8-5.3-7.7-8.6-.4-.3-.3.2.7 3.6-.7 7.6z" fill-rule="evenodd"/><path d="m163.3 410.2c-2-.8-4-1.3-6.1-1.3q-.5 0-.2-.3c1.7-1.4 5 .1 6.5 1.2q1 .9-.2.4z" fill="#fff"/><path d="m260.5 453.4c2.4-1.8 3.4-5.7 3.8-8.6q.1-.3.4-.4.6-.2.7.4.8 4.5.4 8.4c-.4 4.3-2.6 9.5-6.7 11.5-3.6 1.8-6.6 0-8.5-3-4.3-6.5-3.1-14.4-.7-21.4q2.6-7.7 5.8-15.9.6-1.5 1.7-6.1 0 0 .1 0 0-.1 0-.1 0-.1 0-.1.1 0 .1-.1.4-.3.9.1 0 0 .1.1 0 0 0 .1.1 0 .1.1 0 0 0 .1.3 2.8-.4 5.8c-1.8 7-4.6 14.2-5.2 21.2-.2 3 .5 7.8 3.8 8.7q1.9.5 3.6-.8z"/><path d="m734.6 443.3q.8-.1 1.5 0 7.6.5 9 7.6c.7 3.4-.2 7.6-.8 11.1-.8 5-4.7 9.6-9.7 10.1-5.9.6-9.5-3.8-10-9.3-.6-6.2 1.8-12.4 4.6-17.9 1.7-3.3 2.6-6.8 3-10.4q.1-.1.1-.2 0-.1.1-.2 0 0 .1-.1.1 0 .2-.1.6-.2.8.4 2 4.5.8 8.6-.1.5.3.4zm-4.4 10.2c-1.1 3.1-.4 6.3 2.9 7.6q4.4 1.7 8.4-1.1c.7-.5 1.2-1.4.7-2.3-2.2-4.3-7-5.2-11.6-4.6q0 0-.1 0-.1.1-.1.1-.1.1-.1.1-.1.1-.1.2z" fill-rule="evenodd"/><path d="m168.5 524.4c-2 5.2-8.1 10.1-12.9 4.3-3.8-4.6-4.5-10.7-3.2-16.4 1.6-7.7 5-15.3 7.7-22.9q.8-2.4 1.5-5.3 0-.1.1-.2 0-.1.1-.1.2-.1.3-.1.1 0 .2.1.6.3.6 1.1.1 3.5-.8 6.4-2.2 7.6-4.1 14.9-.7 2.9-.7 6.7c0 3.1 1.5 8.1 5.4 7.2 3.8-.8 5.2-5.9 5.6-9.2q0-.1.1-.2 0-.1.1-.2 0-.1.1-.1.1-.1.2-.2.5-.3.6.3 1.7 7.5-.9 13.9z"/><path d="m255.1 527.2c1.8 2.5 5.1 2 6.8-.2s2.3-5 2.9-7.8q0 0 0-.1 0 0 0 0 .1-.1.1-.1 0 0 .1-.1.2-.1.5-.1.2.1.2.4 1 5.1.3 9.6c-.6 4.3-3.1 9.2-7.3 10.8-6 2.2-9.9-5.8-10.4-10.5-.7-5.7.9-11.5 2.8-16.8q2.7-7.2 5.3-14.3c.6-1.6.9-3.3 1.3-4.9q.1-.4.4-.6.3-.2.6-.1.1.1.1.1.1.1.2.2 0 0 0 .1.1.1.1.2.3 3.4-.5 6.2-3.5 12.2-4.4 16c-.8 3.6-1.4 8.9.9 12z"/><path d="m809 772.2q-7.1 0-15-1-7.1-.9-11.4-3.9c-7.2-5.2-5.7-14.6-3.4-22q3.5-11.2 8.9-20.4 4.6-7.7 13.2-13.8c16.4-11.7 35.9-16.8 55.1-22.1 4.4-1.2 8.7-3 12.7-5.3q.1 0 .2-.1.1-.1.1-.2.1-.1.1-.2 0-.1 0-.2-.9-15-1.9-29c-3.3-42.8-6.5-85.5-10.3-128.1q-.3-3.8-1.1-6.1-1.2-3.2-2.4-6.1-.1-.2-.1-.4 0-.1 0-.3 0-.2 0-.3.1-.2.1-.3 1.3-2.8 2.4-5.6c.4-.8.4-1.8.7-2.5q2.4-5.1 4.5-10 .1-.1.2-.2.1-.1.2-.1.1-.1.3-.1.1 0 .2.1.5.2.7.7.7 1.7 1.5 3.5.4 1 .7 2.1c.2 1 .8 1.9 1.1 2.9q2.9 7.9 5.9 16c2.1 5.5 4.6 12.6 5.8 18.9q.3 1.3-.4 2.2-.1.1-.3.2-.1.1-.3.2-.2 0-.4-.1-.1 0-.3-.1c-2.6-1.8-4.9-4.8-7-7.2q-.3-.3-.3.2 5.1 61.7 8.8 112.9.6 8.2.7 17.5c.1 6.6-.1 13.6-1.5 20.2q-1.5 6.7-3.6 11.8c-3.3 8.1-11.9 12.3-20.1 14.3q-15 3.6-29.7 9c-14 5.1-28.3 12.5-37.8 24q-.1.1-.2.3-.1.1-.1.3 0 .2.1.3 0 .2.1.4 1.9 2.8 5 4 4.3 1.7 9.6 2.4 7.2 1 17.6 1.3 13.5.4 32 .4 1.9 0 3.4-.9 29.6-16.2 55.6-34.4c9-6.3 17.8-13.1 25-20.9q1.7-2 3-4.1.4-.6.1-1.2-1.3-2.9-4.1-5.1c-3.6-2.5-7.5-3-11.9-2.7q-6.1.4-11.7.3c-18.1-.2-21.4-15.3-16.9-29.7 2.5-7.8 8.3-16.7 16.2-19.4 9.1-3.2 19 7.1 23.9 13.8q4.5 6.1 7.4 14.6 5.9 16.9 1.9 34.9c-1.7 7.4-5.2 13.2-10 18.7q-6 6.8-13 12.8-14.2 12-30.2 22.3-.4.3.1.3 17.2-.3 34.6-1.4 26.8-1.6 50-2.7 7.5-.4 14.6-.2.9 0 1.8.2.2.1.4.2.1.1.2.2.1.2.1.4 0 .2-.1.3c-.9 2.1-3.2 3.2-5.6 4.1q-9 3.6-18.3 6.4-19.5 5.9-38.8 10.3c-2.5.6-5.2.7-7.8.8q-34.1 1.9-71.1 2.2-1.4 0-2.8.3-23.6 4.4-45.7 7.6-4.7.7-9.3 1-.1 0-.3-.1-.2-.1-.3-.2-.1-.2-.1-.4 0-.2.1-.3.2-.5.7-.7 9.6-3.5 18.1-7.4.7-.3-.1-.3zm105.7-116c-4.7-2.1-10.7-1.2-12.8 3.9q0 .1 0 .2-.1.1 0 .2 0 .1 0 .2.1.1.1.1c1.2 1.3 3.7 1.9 5.2 2q6.5.3 14.5-.6.5 0 .2-.4-3.5-4-7.2-5.6z" fill-rule="evenodd"/><path d="m787.9 514.1 8.5-18.2q.1-.1.2-.3.1-.1.3-.1.1-.1.3-.1.2 0 .3.1l17.6 9.1q.2.1.3.2.1.1.1.3.1.1.1.3 0 .1-.1.3l-8.5 18.2q0 .1-.2.2-.1.1-.3.2-.1.1-.3 0-.2 0-.3-.1l-17.6-9q-.1-.1-.3-.2-.1-.2-.1-.3-.1-.2-.1-.3.1-.2.1-.3z"/><path d="m556.8 532c2.8-1.4 4-5.9 4.5-8.9q0-.3.2-.5.2-.1.4-.1.4.1.4.4 1.2 6.1-.1 11.2c-.9 4.1-3.7 8.7-8 9.4q-2.9.5-5-1.7c-6.8-6.8-4.6-17.2-1.7-25.3q2.6-7.1 5.2-14.3 1-2.6 1.7-5.7 0-.1.1-.2.1-.1.2-.2.2 0 .3 0 .2 0 .3.1.4.3.4.8c.2 2.5-.2 5.1-1 7.5q-2.3 7.6-3.9 14.4-1.2 5-.3 9.3c.6 2.9 3.1 5.4 6.3 3.8z"/><path d="m496.6 602.7c-.3-.3-.8-.5-1.1-.9q-1.8-2.1-3.6-4-.5-.6-.4.1 4.2 53.2 8.3 106.1c1 13 1.9 27.4.3 40.3q-.7 5.5-3.2 13.1-2.1 6.1-5.7 9.4c-9.7 8.7-25.6 10.2-37.3 6.4q-7.6-2.5-11.7-10.1c-3.8-7.1-6.1-14.6-7.9-22.6q-2-8.6-3.5-18.3-.3-2.1-.7 0-.9 5.3-2.6 10.8c-2.1 6.9-6.2 13-10.9 18.2q-18.5 19.9-39.6 33.7-11.9 7.8-23.7 12.2-7.9 3-16 2.6c-17.3-.9-21.3-18.7-21.2-32.6q.1-6.2.8-11.7 2.9-22.3 11.7-45.1.2-.4-.2-.3c-7.4 2.3-16 2.9-22.4-.7-10.8-6-15.3-15.9-18.2-27.1q-.2-.6-.3 0-1.7 6.3-5.7 12.4-5 7.7-10.6 12.2-.3.3-.2.6.2 2.6.3 4.9 1 12.5-3.8 24-.1.3.2.3 14.4-1 26.7-1.5 3.3-.1 7 0 .6 0 1.1.2.2.1.4.2.1.2.2.4 0 .2 0 .4-.1.2-.2.4-.8.8-1.9 1.4-4.1 2.3-9.7 4.2-17.2 5.9-34.8 10.4c-.4.1-1.1.6-1.4 1q-9.5 10.6-23.6 21.7-12.8 10.2-26.1 17.1c-8.6 4.4-19.1 8.3-28.5 8.1q-6.2-.1-11.8-3.2c-13.2-7.2-18.8-23.3-20.2-37.4q0-.1 0-.1 0-.1 0-.1-.1 0-.1 0-.1-.1-.1-.1-10.8 0-21.7-.3-9-.2-17.9-1.4-3-.4-6.5-1.8c-8.5-3.5-10-11.2-8.1-19.3q2.3-9.3 6.7-16.9 6.2-10.8 18.6-15.4 13.2-4.9 24.3-10.6c5.2-2.6 10.9-6 15-9.9q4.3-4.1 7.8-9.1 5-7.3 10.8-16.1c2.7-4.2 6.6-8.7 10.9-10.4 6.4-2.4 10.2 3.7 11.8 8.8q2.4 7.2 1.6 15.1-1.2 11-5.5 21.7-.1.2-.2.3-.1.1-.3.2-.2 0-.4-.1-.1 0-.2-.2-.6-.5-.6-1.3.1-4.7.2-9c.1-4.1-1.2-11-4.9-13.8-5.5-4.1-13 6.3-15.2 10.1q-5.4 9.1-9.5 15.4-4.9 7.5-10.7 11.6-4.1 2.9-8.9 5.4c-9.1 4.8-18.9 8.7-28.7 12.4-4.9 1.8-9.7 4.3-13.6 7.6q-.1 0-.1.1-.1.1-.1.3 0 .1.1.2 0 .1.1.1 2.7 2.1 6 3 6.7 1.8 13.8 2.3 13 .8 25.9 1 .1 0 .1 0 .1-.1.2-.1 0-.1 0-.1.1-.1.1-.1 2.7-15.3 9-29.3.9-2.1 2.3-4.1.1-.1.3-.2.2-.1.4-.1.2 0 .4.2.1.1.2.3c.5 1.3-.8 5.6-1.2 7-2.5 8.6-5.3 17.3-6.6 26.2q0 .1 0 .2 0 0 0 .1.1 0 .1.1.1 0 .2 0 41.7.3 84.7-1.4 7.1-.3 15.4-.9.1 0 .2 0 .1 0 .1-.1.1 0 .2 0 0-.1.1-.1 7.3-7.1 13.6-15.9 0 0 0-.1 0-.1.1-.1 0-.1-.1-.2 0-.1 0-.1l-3.6-8.3q-.1 0-.2-.1 0-.1-.1-.1-.1-.1-.2-.1-.1 0-.2.1c-6.1 2.2-12.3 3.4-19.1 3.6q-6.4.3-10.4-1.4c-20.5-8.6-11.9-38.3 2.7-47.3q5-3 9.8-1.6c10.1 3.1 18.4 14.8 22.4 24.1q0 .1.1.1.1.1.1.1.1.1.2.1.1 0 .2-.1 9.2-4.1 15.8-10.6.9-.8 1-2.3.2-6.9-.2-14.1-2.2-42.5-5.2-88.3 0-.7-.7-.5l-31.7 11.1q-.1.1-.3.1-.2-.1-.3-.2-.1-.1-.2-.3-.1-.1 0-.3l1.1-6.4q0-.2.1-.3 0-.1.1-.2.1-.1.2-.1.1-.1.2-.1l30.7-10.8q.3-.1.3-.4-1.5-24.7-3.6-49.8 0-1 .4-2 3.9-9.3 7.5-17.5 0-.1.1-.2 0-.1.1-.1.1-.1.2-.1.1 0 .2 0 .4 0 .5.4 1.8 6.9 2.9 16.3 2.8 23.3 4 48.5 0 .1 0 .2.1.1.1.1.1.1.2.1.1 0 .2-.1l37.2-13q.3-.1.3-.5-.7-6.9 1.7-14.2 2.6-7.7 5.6-15.1c.9-2.4 1.6-4.8 2.1-7.3q.1-.7.8-.7.1 0 .2.1.2 0 .2.1.1.1.2.2 0 .1 0 .2.2 3.6-.6 6.6-2.1 7.3-4 14.3c-1 3.6-1.6 8.2-.3 11.6.9 2.5 3.7 4.1 6 2.7 2.6-1.6 4-6 4.5-8.9q.1-.5.6-.4.4 0 .4.4 1.8 8.5-1.5 15.1c-2.4 4.7-8.5 8.3-12.6 2.6q0-.1-.1-.1-.1-.1-.3-.1-.1-.1-.2-.1-.1 0-.2.1l-39.7 13.9q-.1.1-.1.1-.1 0-.1.1 0 0 0 .1-.1 0-.1.1c1.5 26.7 3 53.5 5.2 80.1.9 10.8 1.4 17.2 4.1 25.5q3 9.1 10.6 12.9c6.2 3.1 14.1 2.7 20.5.7q.3-.1.2-.4c-5-10.6-3.4-25.2.9-35.7 3.1-7.5 7.2-14.9 12.8-20.8q.1-.1.1-.3.1-.1 0-.3 0-.1-.1-.2-.1-.2-.2-.2-1.2-.5-1-1.8 1.3-10 2.4-19.2 0-.2.1-.4.2-.1.3-.2.2-.1.4-.1.2 0 .3.1 13.3 8.6 28.2 16.4.7.3 1.2 1 .2.1.2.3 0 .3 0 .5-.1.2-.3.3-.1.1-.3.2-3.9.8-8.2.7-.5 0-.1.4c8 7.3 17 13.4 26.3 19.2 5.9 3.8 11.7 7.9 14.3 14.6 3.9 9.7 2.8 21.1-1.2 30.8-2.5 6.3-7.3 14-14.2 15.5-6.8 1.5-13.8.6-20.6-1.3q-10.9-2.9-21.9-7.8-.2-.1-.4 0l-16.6 7.8q-.3.2-.3.5-.8 4.4-1.9 7.9c-4.7 15.8-8.7 29.3-7.8 44.5q.3 3.4 1.2 6.4c4.6 13.7 17.9 12.4 28.9 8 20.4-8.1 38.1-21.3 54.4-36.4 6.8-6.2 13.1-12.1 17.5-19.5q.9-1.6 1-3.7.1-5.4-.3-10.7-1.1-16.3-5.5-34-5.3-21.6-13.4-41.6c-.5-1.1-.1-1.9.1-3q2.5-9.5 4.9-19.1.1-.3.4-.4.2-.1.5-.1.3.1.5.4c14.3 25.8 22.9 55.3 25.8 84.3q1.1 10.2 2 20.8 1 11.7 4.1 22.6c1.5 5.3 4.4 11.7 8.9 14.8q4.6 3.1 10.7 3.8 13.2 1.4 25.4-5.3.7-.4 1.2-.9.2-.2.2-.5-.7-12.3-1.8-27-4.4-57.9-8.5-108.1-.9-10.6-1.9-22.2-.3-3.4-1.1-5.8-1.2-3.1-2.3-6.2-.1-.1-.1-.3-.1-.1-.1-.3 0-.1.1-.3 0-.1.1-.2l7.4-18.1q.1-.1.1-.2.1-.1.2-.1.1-.1.2-.1.2-.1.3 0 1.1.1 1 1.1 0 .3.1.6 1.7 3.7 3.1 7.6 2.2 6.1 2.9 7.7 4.8 12.4 8.3 24.2c.3 1.2.5 2.6.5 4 .1 1.3-1.1 1.9-2.1 1.1q-1-.8-1.7-1.8zm-157.9 54.5c-8.8 12.1 6.6 18 14.9 21.4q.4.2.7 0c4.4-2.8 10.4-7.5 12.6-12.3q.2-.3.1-.7c-1-6.5-4.6-13.6-10.3-17.1-6.4-3.8-14.4 3.6-18 8.7zm37 4.2c-.8 8.3-3.1 15.5-7.4 22.2q-.2.3.2.5 8.4 2.8 17.3 4.4c5.4 1 11.7 1.5 16.2 0 3.5-1.2 1.7-4.3.1-6.2-3.5-4.5-7.4-8-12.3-11.3q-7.1-4.7-13.7-9.7-.4-.3-.4.1zm-132 26.5c-4.5-2.4-11.4-1.9-13.4 3.6q0 .1 0 .2 0 .1.1.2 0 .1.1.2.1.1.2.1c5.9 3.1 12.9 3.1 19.5 2.3q0 0 0 0 .1-.1.1-.1 0 0 .1-.1 0 0 0 0 0-.3-.1-.5-2.9-3.9-6.6-5.9zm-42.2 85.5q13.4-6.2 25.4-15.2.5-.3-.1-.3-38.3 1.8-75.3 1.8-.5 0-.3.5 3.2 10.5 12.2 15.5c12 6.5 26.2 3.2 38.1-2.3z" fill-rule="evenodd"/><path d="m831.8 530c1.4 5.6 7 5.2 9 .5q1.3-2.8 1.8-6 0-.1 0-.2 0 0 .1-.1 0 0 .1-.1.1 0 .2 0 .5-.1.6.5 0 .3 0 .6c1.3 6.7.1 17.2-7.2 19.7-4.8 1.7-8.3-3.4-9.6-7.4-1.9-5.8-.5-12.5 1.6-18.4q2.6-7.5 5.8-15.7c.6-1.6.9-3.5 1.4-5.2q.2-.6.9-.4.1 0 .2 0 .1.1.1.2.1 0 .1.1.1.1.1.2.2 3.8-1.1 8.2-1.6 5.4-3.1 10.7c-1.1 4-2.1 8.8-1 12.8z"/><path d="m404.6 506.5-47.3 17.3q-.2.1-.4.1-.2-.1-.3-.2-.1-.1-.2-.3-.1-.1 0-.3l1.1-6.6q.1-.1.1-.1 0-.1.1-.2 0-.1.1-.1.1-.1.2-.1l47.3-17.3q.2-.1.3 0 .2 0 .3.1.2.1.2.3.1.2.1.3l-1.2 6.6q0 .1 0 .2-.1.1-.1.1-.1.1-.2.2 0 0-.1 0z"/><path d="m760.5 517.4q4 5.1 9.5 6.8.2.1.3.1.2 0 .4 0 .1 0 .3-.1.1-.1.3-.2 5.7-4.3 10-9.8.3-.2.6-.1.1.1.1.1.1.1.2.2 0 .1 0 .2 0 .1 0 .2c-1 4.3-1.8 7.7-5.2 11q-4 3.6-9.3 8c-2.8 2.3-5.6 5-7.3 7.9-3.7 6.7 2.3 10 7.9 9.5q15.9-1.3 26.8-12.4.1-.1.2-.2.1 0 .2 0 .2 0 .3 0 .1.1.2.2.2.3 0 .7c-6.2 11.1-15.2 18.9-28.3 19.1-9.1.1-14.1-6.2-12.1-15 1.2-5.1 4.3-9.5 8.3-13.1q.3-.2 0-.4c-3.7-2-8.6-6.3-7.1-10.9 1.7-5.2 6.8-13.5 13.2-12.1q3.7.7 2.9 4.4-.7 2.9-2 5.6-.1.1-.2.2-.1.1-.2.1-.2 0-.3 0-.1-.1-.2-.2c-.9-.9-2-2.2-3.2-2.6-2.3-.7-4.6.6-6.3 2.2q-.3.3 0 .6z"/><path d="m473.3 544.5c4.8.6 6.3-6.3 7-9.6q0-.4.4-.5.5 0 .6.5.4 2.8.5 5.6c.1 5.4-2 12.3-7.3 14.6-3 1.3-5.7-.1-7.5-2.6-5.2-6.8-3.5-15.8-.8-23.5q2.9-7.8 5.9-15.8c.5-1.5.7-3.1 1.3-4.6q.5-1.3 1 0 .4.7.3 1.7-.3 3.8-1.4 7.4-1.8 6-3.4 12.2-1.2 4.8-.7 9.1c.2 2.2 1.6 5.2 4.1 5.5z"/><path d="m389.1 545.9c-3 5.6-8.7 11.5-15.6 7.5-5.9-3.5-6.4-12.3-5.8-18.4.2-1.8.7-3.8-.1-5.5q-1.3-2.9 1-6 1.6-2.2 3.2-4.1.1 0 .2-.1.1 0 .2 0 .1 0 .1 0 .1.1.2.2 1.9 2.8 1.2 6.6c-.8 3.8-1.8 8.1-1.3 11.9 1 7.1 7.4 9.2 12.7 4.4q3.2-2.8 2.8-6.5-.6-5.6-2.7-11.5-.3-.7 0-1.5 1-2.5 2.2-5.1 0-.1.1-.2.2-.1.3-.1.1 0 .2 0 .2.1.2.2 1 1.5 1.4 3.1 1.2 4.9 2.3 12.9c.7 5.4 4.2 9.1 10 7.9 3.4-.7 2.8-3.3 1.6-5.4-2.3-4.2-5.4-8.8-3.9-13.8.4-1.4 1.3-4.9 2.4-5.8q.1-.2.3-.2.2 0 .4 0 .1.1.2.2.2.2.2.4c.3 2.6.9 5.2 2 7.6q2.3 4.7 3.4 8.2c1.9 6.3-1.4 13.3-6.4 17q-3.3 2.3-7.2 1-3.4-1.1-5.4-4.9-.2-.4-.4 0z"/><path d="m210.6 559.8q.8-5.8 1.9-12.3c.7-4.2 2.8-18 8.5-17.7 3.1.1 6.1 4.1 7.6 6.6q.2.3.1.6l-2.4 5.9q-.1.2-.2.3-.2.1-.4.2-.2 0-.3-.1-.2 0-.3-.2-2.2-2.3-4.9-3.4c-3-1.2-4.3 6.2-4.5 8-1 7.1-1.5 14.3-3.2 21.3-.3 1.4-.7 2.6-2 3.5q-.8.6-1.6 1.3-.2.1-.3.1-.2 0-.3 0-.2-.1-.3-.2-.1-.1-.1-.3c-2-9-4.3-17.3-9.4-25q-.3-.4-.6 0l-1.1 1.5q-.3.3-.6.2c-3.7-.7-10.5-3.9-8-8.8q1.5-3 3.1-5.8.7-1.2 2.1-.8 6 1.5 9.7 7 5.4 7.9 7.3 18.1.1.6.2 0z"/><path d="m623.8 573.2c2 2.1 5 1.2 6.5-1q2-2.8 2.6-7.3 0-.1.1-.2 0 0 0-.1.1 0 .1-.1.1 0 .1-.1.8-.2.9.5.7 4.4.3 8.1c-.4 4.5-2.6 10-6.9 11.8q-3.6 1.6-6.4-1c-7.4-6.8-4.6-18.4-1.5-26.7q2.7-7.3 5.1-13.6c.6-1.7.9-3.4 1.4-5.1q0-.1 0-.2.1-.1.1-.1.1-.1.2-.1.1 0 .1-.1.7 0 .8.6.5 2.6-.5 6-1.5 5.8-3.4 12.2c-1.3 4.5-3.2 12.7.4 16.5z"/><path d="m369.1 567.2q9.7-.2 10.6 8.6.4 4-1.1 10.7c-1.3 5.9-6.6 11-13 9.2-3.8-1.1-5.8-4.3-6.4-8.1-1-5.8 1.1-12.2 3.9-17.5 1.9-3.7 3-7.2 3.6-11.3q.1-.7.5-1 .1-.1.2-.1.1 0 .2 0 .1 0 .2.1.1.1.1.2 2.1 4.8.9 8.8-.1.4.3.4zm7.8 14.9c-2-4.6-7.3-5.9-11.8-5.1q-.4.1-.5.5-1.4 4.4 1.5 6.6c2.8 2.3 8.6 2 10.8-1.3q.2-.3 0-.7z" fill-rule="evenodd"/><path d="m168.2 581.2c-.5 1.4-.9 2.8-1.7 4.2q0 0 0 .1-.1 0 0 .1 0 .1 0 .1 0 .1.1.1l4.6 3.4q0 .1.1.2 0 .1.1.2 0 0 0 .1 0 .1-.1.2l-4.5 8.2q-.1.2-.3.3-.1.1-.2.1-.2 0-.3 0-.2 0-.3-.1l-4.4-3q-.3-.2-.6.1-9.9 12.7-19.6 20.7-4.3 3.5-12.5 8.1-12.2 6.8-24.4 12.8-1.6.8-3.5 1.2-.2 0-.4-.1-.2 0-.3-.2-.1-.2-.1-.4 0-.2.1-.3.5-.7 1.3-1.2 12.3-8.1 22.8-15.4 16.2-11.2 29.4-24.2 1.8-1.7 3.3-3.7.1-.1.1-.1 0-.1 0-.2 0 0-.1-.1 0-.1-.1-.1c-4.8-2.9-9.9-6.7-9.5-12.7q.4-5.4 4.9-9.5c3.7-3.3 11.5-7.8 15.4-3 2.9 3.5 2.1 10 .7 14.1zm-10.8-6.1q-.7.3-1.4.5-2.5.9-.7 2.7 2.5 2.4 5.9 4.3.8.4.9-.5.6-3.2-.9-5.6-1.3-2.2-3.8-1.4z" fill-rule="evenodd"/><path d="m761.3 603.7q-.3-.4-.3.1 5 65.4 9.6 123.6c.5 7.3.9 15.4-.1 22.3q-1.5 10.3-5.2 20.3-.2.7-.7 1.1-.1.1-.3.2-.2 0-.4 0-.2-.1-.3-.2-.2-.2-.2-.4-.4-1.7-.5-3.7-.6-12.3-1.2-20.7-6.4-77.4-12.2-150.1-.2-2.9-1-5.5-.9-3.2-2.1-6.1-.1-.1-.1-.2-.1-.2-.1-.3 0-.1.1-.3 0-.1.1-.2l7.2-17.5q1-2.4 1.9 0 1.6 4.3 3.5 9c.2.5.2 1.1.3 1.6q5.3 14.6 9 27.3 1.1 3.5 1.5 7 0 .3-.1.5-.1.2-.3.4-.2.1-.4.2-.3 0-.5-.1-.6-.3-1.2-.9-3.3-4-6-7.4z"/><path d="m536.2 605.5q5.3 68.8 9.6 123.8c.7 8.9.9 18-.9 26.7q-1.8 8.3-4.4 15.6-.2.7-.8 1.1-.2.1-.3.1-.2.1-.4 0-.1-.1-.2-.2-.2-.1-.2-.3-.4-1.4-.4-2.9c-.5-7.3-.7-14.4-1.3-21.8q-6.2-74.4-12.4-151.7-.3-3.5-3.1-9.9 0-.1 0-.2 0 0 0-.1 0-.1 0-.2 0 0 0-.1l7.4-17.7q1-2.4 1.9.1 1.5 3.9 3.4 8.7c.2.6.2 1.2.4 1.8q5.1 13.8 9 27.3c.6 2.2 1.6 5.2 1.3 7.6q0 0 0 .1 0 .1-.1.1 0 .1-.1.1 0 .1-.1.1-1 .2-1.6-.6-3.4-4-6.4-7.6-.3-.5-.3.1z"/><path d="m452.1 599.4c.6-1.8 1.1-3.5 1.4-5.4q.1-.3.4-.5.1-.1.3 0 .4 0 .4.4c1.4 6.7.5 15.8-5.7 19.6-3.6 2.2-6.9.6-9-2.6-3.9-5.8-3.4-13.1-1.3-19.6q2.5-8 6-16.9 1.3-3.1 2-6.9.1-.1.1-.2.1-.1.2-.2.1-.1.2-.1.1 0 .2 0 .6 0 .6.6c.3 2.5-.1 5.1-.8 7.6q-2 6.8-3.8 13.4c-1 3.7-2.2 12.3 2.2 14.5 2.9 1.3 5.6-1.2 6.6-3.7z"/><path d="m809.9 597.3q.3 1.6.6-.1 1.1-7.5 2.6-15.5c.7-3.6 2.7-13.8 7.6-13.5 3.2.2 6.2 4.1 7.7 6.6q0 .1.1.2 0 0 0 .1 0 .1 0 .2 0 0-.1.1l-2.4 5.9q-.1.2-.2.3-.1.1-.3.1-.1.1-.3 0-.1 0-.3-.1c-2.7-2.6-6.8-6.3-8.6.2-1.5 6-1.8 12.5-2.7 18.8q-.5 3.5-1.4 7.3c-.5 2.1-1.9 3.2-3.6 4.2q-.2.1-.3.1-.2 0-.3 0-.2-.1-.3-.2-.1-.2-.1-.3c-1.7-8.7-4.4-17.9-9.5-24.9q0 0-.1-.1-.1 0-.1 0-.1 0-.2 0-.1.1-.1.1l-1 1.5q-.2.3-.6.2c-4.4-.8-10.7-4.1-7.8-9.5q1.4-2.5 2.8-5.1.2-.3.4-.4.2-.2.4-.3.3-.2.6-.2.2 0 .5 0c10.1 2.2 15.3 15.4 17 24.3z"/><path d="m599.2 576.2-2.4 5.7q-.1.2-.2.3-.1.1-.3.1-.1 0-.3 0-.1-.1-.2-.2-2.2-2.3-4.7-3.4c-3.5-1.5-4.8 6.7-5 8.7q-.9 8.5-2 15.6-.4 2.7-1.2 5.6-.7 2.7-3.7 4.1-.1 0-.3 0-.1 0-.2 0-.1-.1-.2-.2-.1-.1-.1-.2c-1.7-9-4.3-17.4-9.3-24.9q-.1-.1-.2-.2-.1 0-.3 0-.1 0-.2.1-.1 0-.1.1-.4.9-1 1.4 0 .1-.1.1-.1.1-.1.1-.1 0-.2 0-.1 0-.2 0c-4.9-.9-10.7-4.3-7.3-10.1q1.3-2.3 2.5-4.5.2-.3.3-.4.2-.2.5-.3.2-.1.4-.2.3 0 .5 0c10.4 2 15.6 16 17.4 25.2q.1.1.1.1.1 0 .1 0 .1 0 .1 0c.9-7.2 2-15.1 4-22.4 1.2-4.2 4.3-10.9 9.9-6q2 1.8 3.9 4.6.4.6.1 1.2z"/><path d="m157.4 575.1q2.5-.8 3.8 1.4 1.5 2.4.9 5.6-.1.9-.9.5-3.4-1.9-5.9-4.3-1.8-1.8.7-2.7.7-.2 1.4-.5z" fill="#fff"/><path d="m624.4 601.1 47.2-17.3q.2-.1.4 0 .1 0 .3.1.1.1.2.3.1.2 0 .4l-1.1 6.5q0 .1-.1.1 0 .1-.1.2 0 .1-.1.1-.1.1-.1.1l-47.3 17.3q-.2 0-.4 0-.2 0-.3-.1-.1-.2-.2-.3-.1-.2 0-.4l1.1-6.5q0-.1.1-.2 0-.1.1-.1 0-.1.1-.2.1 0 .2 0z"/><path d="m892 607 47.3-17.4q.2 0 .4 0 .1 0 .3.2.1.1.2.2 0 .2 0 .4l-1.1 6.6q0 0-.1.1 0 .1-.1.2 0 0-.1.1-.1 0-.2.1l-47.3 17.3q-.1 0-.3 0-.2 0-.3-.1-.2-.2-.2-.3-.1-.2-.1-.4l1.2-6.5q0-.1 0-.2.1-.1.1-.1.1-.1.1-.2.1 0 .2 0z"/><path d="m724.2 616.4c2.3-8.6 6.5-17.1 8.6-25.6q.5-1.9 1.3-.2c.8 1.7-.6 6.9-1.1 8.8q-1.7 5.5-3.2 11.2c-1.2 4.4-2.1 10.2.3 13.9 1.4 2.2 4.2 2.5 6.1.8 2.2-1.9 3.1-5.6 3.6-8.4q0-.1.1-.2.1-.1.1-.2.1 0 .2-.1.2 0 .3 0 .3.1.4.4c1.1 6.2.7 12.5-3.2 17.5-1.8 2.3-5.1 4-8 2.8q-1.6-.8-3-2.5c-4-5.2-4.2-11.9-2.5-18.2z"/><path d="m219.6 632.9c1.6 1.8 4.5 1.2 6-.5 1.8-2.1 2.6-5.1 3-7.8q0-.4.3-.5.2-.2.4-.1.3.1.4.4 1.4 7.4-.7 13.1c-1.9 5.3-8.1 11.2-13.3 4.9-3.9-4.7-4.4-11.1-3-17.1 1.8-7.5 5-14.9 7.6-22.1.6-1.7 1-3.5 1.4-5.3q.1 0 .1-.1 0 0 .1-.1 0 0 .1 0 0-.1.1-.1.9-.1 1 .9.2 2.9-.5 5.2c-1.1 4.3-2.3 8.9-3.7 13.5-1.4 4.4-2.8 12 .7 15.7z"/><path d="m654.9 633.2c-2.4 4.7-6.9 9.6-12.6 8.4-3.9-.8-6.9-4.1-7.9-7.9-1.2-4.9-1-9.8-.5-14.7q.1-.9-.2-1.7c-.9-2.2-1-4.1.5-6.2q1.6-2.2 3.4-4.3.1-.1.2-.2.2 0 .3 0 .1 0 .2 0 .1.1.2.2 1.9 2.6 1 6.8c-1 5.4-3.8 16.9 4.5 18.5q2.6.5 5.3-1.2c2.8-1.8 4.9-4.4 4.5-7.9q-.7-6.2-2.9-11.9-.1-.4 0-.7l2.4-5.4q0-.2.2-.3.1 0 .2-.1.2 0 .3.1.1.1.2.2 1 1.5 1.4 3.4 1.1 5.1 1.9 10.9c.3 2.4 1 5.7 2.7 7.4q3.3 3.4 8.3 2c2.5-.7 2-3.1 1.2-4.8-1.9-3.6-4.4-7.2-4.6-11.3-.1-2.6 1.4-5.8 2.3-8.2q.1-.2.2-.3 0-.1.1-.2.1 0 .2-.1.1-.1.2-.1.7-.2.8.4c.5 1.8.6 3.6 1.3 5.4 1.7 4.4 4.4 8.9 4.8 13.6.4 5.8-4.4 14.4-10.6 15.4-3.6.6-7.3-2.2-9-5.2q-.3-.5-.5 0z"/><path d="m156.2 646.5c-2.9 6-9 11.5-15.9 7.2-6.3-4.1-6-14.4-5.1-21.2q.2-1.1-.3-2.2c-2-3.8 1.7-7.4 3.9-10q.1-.1.3-.2.1-.1.3 0 .2 0 .3.1.1.1.2.2 1.5 2.5 1.1 5.3-.7 4-1.4 8.2-.4 2.7.2 5.9c1.2 5.4 6.5 7.4 11 4.3 3.1-2.1 4.7-4.5 4.2-8.3q-.6-5.5-2.6-10.8-.3-.7 0-1.5 1.1-2.8 2.2-5.2.1-.2.2-.2.1-.1.2-.1.2 0 .3.1.1 0 .2.1.9 1.6 1.4 3.4c1.1 4.8 1.5 9.7 2.6 14.5q1.1 4.6 5.1 5.9c2.6.8 8.8.5 6.7-4-1.8-3.6-4.5-7.4-4.9-11.4-.2-2.7 1-5.7 2-8.2q.3-.8.9-1.4.1-.1.2-.2.1 0 .2 0 .2.1.3.2.1 0 .1.2c.6 1.9.7 3.9 1.4 5.8 2.6 6.4 6.6 12.2 3.8 19.4-2 5-7.3 11.6-13.6 8.8q-3.4-1.5-5.1-4.8-.2-.3-.4.1z"/><path d="m842.9 658c4.5.4 6.1-6.2 6.6-9.5q0 0 .1-.1 0-.1 0-.1 0-.1.1-.1 0 0 .1-.1.2-.1.4-.1.3 0 .4.4c1.1 5.8.8 12-2.7 16.9-2.1 3-6.2 5.2-9.5 2.8-4.9-3.6-6.1-10.6-5.2-16.4q.7-4.3 1.8-7.5 2.6-7.6 6-16.4.7-1.6 1.6-5.6.1-.3.2-.5.4-.4.9.1.1 0 .1.1 0 0 .1.1 0 .1 0 .1.1.1.1.2c.2 2.4-.2 4.8-.9 7.1q-1.8 6.5-3.6 12.9c-1 3.7-3 15.1 3.4 15.7z"/><path d="m584.1 666.9c4.6 1.2 6.4-5.1 7.2-8.3q.7-3.6 1.4 0 1.2 6.6-1.3 12.9c-1.7 4.2-6.8 8.9-11.3 5.4-6.5-5-5.9-14.9-3.7-22q2.3-7.4 6-16.6 1.4-3.5 2.1-7.3 0-.1.1-.1 0-.1.1-.2 0 0 .1-.1.1 0 .2 0 .7-.1.8.6c.4 2.6-.2 5.6-1 8q-1.9 6.6-3.6 13c-.9 3.5-2.4 13.3 2.9 14.7z"/><path d="m676.1 731.2q-2.3 11.2-7.9 21.1c-6.5 11.5-18 17.6-31.2 17.8-13.4.3-22.7-8.1-26.9-20.4-4.4-13.3-3-28.5-.1-42.7q1.3-6.8 2.3-13.5.1-.5 0-1-.1-.1-.1-.2-.1 0-.2 0 0-.1-.1 0-.1 0-.2 0c-3.2 3.2-5 8.5-6.3 12.8q-2.3 7.3-3.9 14.7-2.3 11.2-4.7 23.1-1.5 7.4-4.2 13.6c-3.2 7.5-11.4 13.8-19.6 9.3-10.6-5.7-14.6-21.1-15.4-32.2q-1.4-18.8 3.6-37.7 1-3.8 2.5-6.8.1-.2.3-.3.1-.1.3-.1.2 0 .4.1.1.1.2.2.5.7.4 1.5c-1.8 13.4-3.6 27.1-2.1 40.2.7 6 3.8 15.7 9.5 18.6 7.8 3.9 12.3-2.6 14.5-9q2.2-6 3.5-11.9 2.4-10.8 4.7-20.7c3-12.6 7-24.5 14.2-34.8 1.6-2.4 7.4-9.6 10.8-5.8 2.1 2.5 2.2 7.3 2 10.7-.8 12-2.9 23.9-4.9 35.8-2 12.2-1.6 30.2 13.1 34.2q8.1 2.2 16.5-.1c12.3-3.4 19.9-11.8 22.6-23.8q1.4-6.4 1-12.5c-1-15.6-3.8-30.9-9.4-45.4-.2-.8-.1-1.9.2-2.6q3.2-8.8 6.4-17.6 0-.1.1-.2.1-.1.2-.2.1-.1.2-.1.1-.1.2-.1.6 0 .8.5c5.1 14.5 9.8 29.2 11.9 43.9q1.9 14.1 3.5 23.1c1 6 2.5 12.2 5.3 17.6 4.5 8.8 14.3 14.1 24.1 12.5 3.5-.5 13.7-3.4 12.5-8.7q-.9-3.8-2.5-7.4-4.3-9.4-7.6-17.4-6.9-17.3-9.1-34.8-.4-2.7-1.3-4.7-1.5-3.4-3.1-6.8-.3-.7-.1-1.5l6.6-19.2q.1-.2.3-.3.1-.1.3-.2.2 0 .4.1.2.1.3.3 6.7 11 14.4 23.5 2 3.2 3.8 7.2 0 .1 0 .3.1.2 0 .3 0 .2-.1.3-.1.1-.2.2-.5.5-1.2.3-4-1.4-7.4-3-.7-.3-.5.4 4.3 13.7 9 27.1 3.9 11 6.1 22 2.9 15.1-4.1 28.8c-5.7 11.2-15.5 17-28.3 14.1-15.6-3.5-22.9-18-26.1-32.5q-.1-.5-.2 0z"/><path d="m795 683.6q1.2-2.8 1.7-5.9.1-.5.6-.5 0 0 .1 0 .1.1.2.1 0 .1.1.1 0 .1 0 .2c1 5.7.8 11.4-2.2 16.3-1.8 2.7-5.4 5.3-8.7 4.1-3.1-1.3-5.3-5.3-6.1-8.2-1.8-7 .6-14.7 3.3-21.6q2.9-7.8 4.8-13.4.6-1.7.9-3.7.1-.1.2-.2 0-.1.2-.2.1 0 .2 0 .2 0 .3.1.5.3.6 1 .2 3-.8 6.1-2.2 7.7-4.1 14.9c-1 3.9-2 12.2 2.6 14.1 2.5 1.1 5.1-1.1 6.1-3.3z"/><path d="m465.2 690.1q1.5-.3 2.6-1.8 2.3-3.1 3-7.5 0-.3.3-.6.1-.2.4-.1.3.1.4.4 1.5 7.7-.9 13.7c-2 4.7-7.3 9.8-12.1 5.3-6.8-6.2-4.9-16.7-2.2-24.4q2.8-7.9 5.7-15.4c.6-1.7 1-3.6 1.4-5.4q.1-.4.5-.5.3-.2.5 0 .1 0 .2 0 0 .1.1.1 0 .1 0 .2.1 0 .1.1.3 3.2-.4 5.8-1.9 6.8-4 14.4-1.3 4.8-1.1 9.4c.1 2.7 1.9 7.1 5.5 6.3z"/><path d="m895.9 714.9c-23.8 9.1-48 18.3-71.3 27.2-1.9.7-3.6 1.7-5.1 3q-.1.1-.2.1-.1 0-.2 0-.1 0-.2 0-.1 0-.1-.1-.4-.3-.2-.8 2-5.7 4-11c.7-2.1 4.4-3.3 6.2-4q30.4-11.6 71.3-27.2 0 0 .1 0 .1 0 .2 0 .1.1.2.1.1.1.1.2.2.3.1.7-2.1 5.6-3.9 10.7-.1.2-.2.4-.1.1-.2.3-.1.1-.3.2-.2.1-.3.2z"/><path d="m616.4 764.1-4 10.9q-.3.8-1.1 1.1-34.9 13.3-72.1 27.5-2 .8-4.1 2.6-.1.1-.2.1-.2.1-.3.1-.1 0-.2-.1-.1 0-.2-.1-.3-.3-.1-.7 2-5.8 4-11.1.3-.9 1.1-1.5 1.3-1 5.1-2.4 35.8-13.6 70.8-27.1.5-.2.9 0 .1 0 .2.1.1.1.1.2.1.1.1.2 0 .1 0 .2z"/><path d="m126.8 772.5 17.6 10.4q.1 0 .2.1.1.1.1.2 0 .1 0 .3 0 .1 0 .2l-8.8 18.4q-.1.1-.2.2-.1.1-.2.1-.1.1-.3.1-.1 0-.2-.1l-18.3-10.8q-.1-.1-.2-.1-.2 0-.3 0-.1.1-.2.2-.1 0-.2.1l-8.4 15.1q-.1.1-.2.2-.1.1-.2.1-.1.1-.3.1-.1-.1-.2-.1l-17.2-9.9q-.1 0-.2-.1 0-.1-.1-.2 0-.2 0-.3 0-.1.1-.2l8.6-18.5q0-.1.1-.2.1-.1.3-.2.1 0 .3 0 .1 0 .2.1l17.9 10.5q.1 0 .2.1.2 0 .3-.1.1 0 .2-.1.1-.1.2-.2l8.5-15.1q0-.2.1-.2.1-.1.3-.2.1 0 .2 0 .2 0 .3.1z"/><path d="m405.7 783.4q-1.5-.3-1.3-1.9c.6-4 .2-8.1 6.1-7q11.8 2.2 17.8 11.4c1 1.6 2.8 7.4.6 9.2q-.3.2-.2.5c.3.7.7 1.3.7 2-.2 7.6-9.4 5.4-13.7 4.1q-.4-.1-.7.3-3.2 5.3-9.6 9.2-6 3.7-11.5 7.2-2 1.3-3.2 3.1c-1.5 2.5 1.3 3.6 3.1 3.7q5.6.2 12.7-2 11.7-3.6 24.5-10.9.6-.4 1.3-.6.1-.1.2-.1.2.1.2.1.1.1.2.2 0 .1 0 .2-.2.9-.9 1.6-2.4 2.3-5 4.8-9.5 9.5-22.5 12.6c-6.1 1.4-17.3 1.5-18.2-6.3-.7-5.5 4.9-11.8 9.3-14.7 4.6-3.2 9.5-6.2 13.8-9.9q0-.1.1-.2 0 0 0-.1-.1 0-.1-.1-.1 0-.1 0-6.9-1.1-5.9-8.3.5-4.3 2.5-7.7.2-.4-.2-.4zm9.9-.4q.1.1.2-.1.1 0 .1 0 0 0 0-.1 0 0 0 0 0 0-.1-.1c-1.3-1.1-5.1-2.9-6.6-1.5q-.4.3.1.4 3.1.1 6.1 1.2.1.1.2.2zm-1.3 4.7c-.7-1.7-1.8-2.5-3.5-1.3q-2.3 1.7-3.7 3.6-.2.3 0 .6c1.1 1.6 5.6 2.2 7.4 2.5q.2.1.3-.1.7-2.6-.5-5.3zm12.6 6.5q-2.9-5.1-7.6-8.2-.1-.1-.1-.1 0 0-.1.1 0 0 0 0 0 .1 0 .1.7 3.9-.6 7.7-.1.3.2.4 4 1.3 7.9 1 .1 0 .2 0 .1-.1.2-.2.1-.1.1-.2 0-.1 0-.3-.1-.1-.2-.3z" fill-rule="evenodd"/><path d="m899.5 775 17.6 10.3q.1.1.2.2.1.1.1.2.1.1.1.3 0 .1-.1.2l-8.8 18.4q0 .1-.1.2-.2.1-.3.1-.1.1-.3 0-.1 0-.2 0l-18.3-10.8q-.1-.1-.2-.1-.1 0-.3 0-.1 0-.2.1-.1.1-.2.2l-8.4 15.1q0 .1-.2.2-.1.1-.2.1-.1.1-.2 0-.2 0-.3 0l-17.1-9.9q-.1-.1-.2-.2-.1-.1-.1-.2-.1-.1-.1-.2 0-.1.1-.3l8.6-18.3q0-.2.1-.3.1 0 .3-.1.1 0 .2 0 .2 0 .3.1l17.9 10.4q.1.1.2.1.2 0 .3 0 .1 0 .2-.1.1-.1.2-.2l8.5-15.3q.1-.1.2-.1.1-.1.2-.2.1 0 .3 0 .1 0 .2.1z"/><path d="m750.8 792.6c-5.1-1-8.7 4.8-10.9 8.5q-.1.1-.3.2-.1.1-.3.1-.2-.1-.3-.2-.2-.1-.2-.2-.2-.4-.1-.7 1.1-5.2 2.6-9.1c1.9-4.9 6-10.7 11.2-11.9q3-.6 5.1 1.9c3.6 4.2 3.4 11.2 2.2 16.5-2.7 11.5-10.3 21.2-19.5 29.2q-.4.4-.9 0-.1-.1-.2-.2 0-.1 0-.2 0-.1 0-.3 0-.1.1-.2 3.1-4.6 6.8-9.4 5.1-6.5 7.1-13.9c.7-2.7 1.2-9.3-2.4-10.1z"/><path d="m415.4 782.8q-3-1.1-6.1-1.2-.5-.1-.1-.4c1.5-1.4 5.3.4 6.6 1.5q.1.1.1.1 0 .1 0 .1 0 0-.1 0-.1.2-.2.1-.1-.1-.2-.2z" fill="#fff"/><path d="m523 799c-4.8-2.1-9.4 4.5-11.3 7.9q-.5.8-1.1.5-.1 0-.2-.1 0 0-.1-.1 0-.1 0-.2 0 0 0-.1c1.3-7.7 4-15.6 10.5-20 1.6-1 3.9-2 5.8-1.3 3.2 1.1 4.8 4.9 5.3 8 1.5 10.4-3.7 21.5-10.4 29.7q-4.2 5.1-9.6 9.9-.1 0-.2 0 0 .1-.1.1-.1 0-.2 0-.1 0-.1-.1-.8-.4-.2-1.4 3.1-4.5 6.9-9.4 4.6-6 6.7-13c.8-2.7 1.4-8.9-1.7-10.4z"/><path d="m186.4 830.8c1.3-3.8 2.7-7.4 4.1-11.3.7-1.6 4.3-2.8 5.7-3.4q34.5-13.2 71.4-27.3.2-.1.4-.1.1 0 .3.1.1 0 .2.2.1.1.2.3 0 .1-.1.3l-3.9 10.9q-.1.2-.2.3-.1.2-.2.3-.1.1-.3.2-.1.1-.3.2-37.6 14.3-71.1 27.1c-2.1.8-3.8 1.8-5.4 3.2q0 0-.1 0-.1.1-.1.1-.1 0-.2-.1-.1 0-.1 0-.5-.4-.3-1z"/></svg>