<svg height="85" viewBox="0 0 960 85" width="960" xmlns="http://www.w3.org/2000/svg" xmlns:xlink="http://www.w3.org/1999/xlink"><clipPath id="a"><path d="m440 3h77.95v77.95h-77.95z"/></clipPath><g clip-path="url(#a)"><g fill="#e6dac8"><path d="m482.8 38.5q.6.5 1.1 1 .5.5 1 1.1 0 .7.1 1.4-.1.7-.1 1.4-.5.6-1 1.1-.5.5-1.1.9-.7 0-1.4.1-.7-.1-1.4-.1-.6-.4-1.1-.9-.5-.5-1-1.1 0-.7 0-1.4 0-.7 0-1.4.5-.6 1-1.1.5-.5 1.1-1 .7 0 1.4-.1.7.1 1.4.1z"/><path d="m483.3 35.2c-.3.9-1.1 1.2-1.9 1.2s-1.5-.3-1.8-1.2c-1.2-3.3-5.2-14.9 1.8-14.9s3.1 11.6 1.9 14.9z"/><path d="m487.5 38.5c-.8.4-1.6.1-2.1-.5-.6-.5-.9-1.3-.5-2.1 1.5-3.2 6.9-14.2 11.8-9.2 5 4.9-6 10.3-9.2 11.8z"/><path d="m488.2 43.8c-.9-.3-1.3-1-1.2-1.8-.1-.8.3-1.6 1.2-1.9 3.3-1.2 14.9-5.1 14.9 1.9s-11.6 3-14.9 1.8z"/><path d="m484.9 48.1c-.4-.9-.1-1.7.5-2.2.5-.5 1.3-.9 2.1-.5 3.2 1.5 14.2 6.9 9.2 11.9-4.9 4.9-10.3-6-11.8-9.2z"/><path d="m479.6 48.8c.3-.9 1-1.3 1.8-1.2.8-.1 1.6.3 1.9 1.2 1.2 3.2 5.1 14.9-1.9 14.9s-3-11.7-1.8-14.9z"/><path d="m475.3 45.4c.9-.4 1.6 0 2.1.5.6.5 1 1.3.5 2.2-1.5 3.2-6.8 14.1-11.8 9.2-5-5 6-10.4 9.2-11.9z"/><path d="m474.6 40.1c.9.3 1.3 1.1 1.2 1.9.1.8-.3 1.5-1.2 1.8-3.3 1.2-14.9 5.2-14.9-1.8s11.6-3.1 14.9-1.9z"/><path d="m477.9 35.9c.5.8.1 1.6-.5 2.1-.5.6-1.2.9-2.1.5-3.2-1.5-14.2-6.9-9.2-11.8 5-5 10.3 6 11.8 9.2z"/></g><path d="m482.9 3.9c2.1 3.6 5.2 5 8.1 7.6.9.8 1.5 1.6 2 2.6 1-.4 2-.5 3.2-.5 3.9.2 7.2 1.4 11.1.3.6-.1 1.2.1 1.7.5.4.4.6 1.1.5 1.7-1.2 3.9 0 7.2.3 11.1 0 1.2-.1 2.2-.5 3.2 1 .4 1.8 1.1 2.6 2 2.6 2.9 4 6 7.6 8.1.6.3.9.9.9 1.5 0 .5-.3 1.2-.9 1.5-3.6 2-5 5.1-7.6 8-.8 1-1.6 1.6-2.6 2 .4 1 .5 2.1.5 3.3-.3 3.9-1.5 7.1-.3 11 .1.7-.1 1.3-.5 1.7-.5.5-1.1.7-1.7.5-3.9-1.1-7.2.1-11.1.3-1.2.1-2.2-.1-3.2-.4-.5.9-1.1 1.8-2 2.5-2.9 2.7-6 4.1-8.1 7.7-.3.6-.9.8-1.5.8s-1.2-.2-1.5-.8c-2-3.6-5.2-5-8.1-7.7-.9-.7-1.5-1.6-1.9-2.5-1 .3-2.1.5-3.3.4-3.9-.2-7.2-1.4-11.1-.3-.6.2-1.2 0-1.7-.5-.4-.4-.6-1-.5-1.7 1.2-3.9 0-7.1-.2-11-.1-1.2 0-2.3.4-3.3-.9-.4-1.8-1-2.6-2-2.6-2.9-4-6-7.6-8-.6-.3-.9-1-.9-1.5 0-.6.3-1.2.9-1.5 3.6-2.1 5-5.2 7.6-8.1.8-.9 1.7-1.6 2.6-2-.4-1-.5-2-.4-3.2.2-3.9 1.4-7.2.2-11.1-.1-.6.1-1.3.5-1.7.5-.4 1.1-.6 1.7-.5 3.9 1.1 7.2-.1 11.1-.3 1.2 0 2.3.1 3.3.5.4-1 1-1.8 1.9-2.6 2.9-2.6 6.1-4 8.1-7.6.3-.6.9-.9 1.5-.9s1.2.3 1.5.9zm-20.1 19.5c-2.4 2.4-3.6 6-2.6 9.8-3.4 2-5.1 5.4-5.1 8.8s1.7 6.8 5.1 8.8c-1 3.8.2 7.3 2.6 9.7 2.5 2.4 6 3.7 9.8 2.7 2 3.4 5.4 5.1 8.8 5.1s6.8-1.7 8.8-5.1c3.8 1 7.4-.3 9.8-2.7s3.6-5.9 2.7-9.7c3.3-2 5-5.4 5-8.8s-1.7-6.8-5-8.8c.9-3.8-.3-7.4-2.7-9.8s-6-3.6-9.8-2.7c-2-3.3-5.4-5-8.8-5s-6.8 1.7-8.8 5c-3.8-.9-7.3.3-9.8 2.7zm18.7-15.4q0 0-.1 0-.1 0-.1 0zm24 10h-.1q.1 0 .1 0zm9.9 24h.1l-.1-.1zm-10 24h.1v-.1q0 0-.1 0zm-24 9.9q0 0 .1.1 0-.1 0-.1zm-23.9-10q0 .1 0 .1h.1v-.1q-.1 0-.1 0zm-9.9-24q0 0-.1.1.1 0 .1 0zm10-23.9q-.1 0-.1 0 0 0 0 .1h.1q0-.1 0-.1z" fill="#3c2a21" fill-rule="evenodd"/></g><g fill="#3c2a21"><path d="m592.8 38.5q.6.5 1.1 1 .5.5 1 1.1 0 .7.1 1.4-.1.7-.1 1.4-.5.6-1 1.1-.5.5-1.1.9-.7 0-1.4.1-.7-.1-1.4-.1-.6-.4-1.1-.9-.5-.5-1-1.1 0-.7 0-1.4 0-.7 0-1.4.5-.6 1-1.1.5-.5 1.1-1 .7 0 1.4-.1.7.1 1.4.1z"/><path d="m552.8 38.5q.6.5 1.1 1 .5.5 1 1.1 0 .7.1 1.4-.1.7-.1 1.4-.5.6-1 1.1-.5.5-1.1.9-.7 0-1.4.1-.7-.1-1.4-.1-.6-.4-1.1-.9-.5-.5-1-1.1 0-.7 0-1.4 0-.7 0-1.4.5-.6 1-1.1.5-.5 1.1-1 .7 0 1.4-.1.7.1 1.4.1z"/><path d="m553.3 35.2c-.3.9-1.1 1.2-1.9 1.2s-1.5-.3-1.8-1.2c-1.2-3.3-5.2-14.9 1.8-14.9s3.1 11.6 1.9 14.9z"/><path d="m557.5 38.5c-.8.4-1.6.1-2.1-.5-.6-.5-.9-1.3-.5-2.1 1.5-3.2 6.9-14.2 11.8-9.2 5 4.9-6 10.3-9.2 11.8z"/><path d="m558.2 43.8c-.9-.3-1.3-1-1.2-1.8-.1-.8.3-1.6 1.2-1.9 3.3-1.2 14.9-5.1 14.9 1.9s-11.6 3-14.9 1.8z"/><path d="m554.9 48.1c-.4-.9-.1-1.7.5-2.2.5-.5 1.3-.9 2.1-.5 3.2 1.5 14.2 6.9 9.2 11.9-4.9 4.9-10.3-6-11.8-9.2z"/><path d="m549.6 48.8c.3-.9 1-1.3 1.8-1.2.8-.1 1.6.3 1.9 1.2 1.2 3.2 5.1 14.9-1.9 14.9s-3-11.7-1.8-14.9z"/><path d="m545.3 45.4c.9-.4 1.6 0 2.1.5.6.5 1 1.3.5 2.2-1.5 3.2-6.8 14.1-11.8 9.2-5-5 6-10.4 9.2-11.9z"/><path d="m544.6 40.1c.9.3 1.3 1.1 1.2 1.9.1.8-.3 1.5-1.2 1.8-3.3 1.2-14.9 5.2-14.9-1.8s11.6-3.1 14.9-1.9z"/><path d="m547.9 35.9c.5.8.1 1.6-.5 2.1-.5.6-1.2.9-2.1.5-3.2-1.5-14.2-6.9-9.2-11.8 5-5 10.3 6 11.8 9.2z"/><path d="m409.8 38.5q.6.5 1.1 1 .5.5 1 1.1 0 .7.1 1.4-.1.7-.1 1.4-.5.6-1 1.1-.5.5-1.1.9-.7 0-1.4.1-.7-.1-1.4-.1-.6-.4-1.1-.9-.5-.5-1-1.1 0-.7 0-1.4 0-.7 0-1.4.5-.6 1-1.1.5-.5 1.1-1 .7 0 1.4-.1.7.1 1.4.1z"/><path d="m369.8 38.5q.6.5 1.1 1 .5.5 1 1.1 0 .7.1 1.4-.1.7-.1 1.4-.5.6-1 1.1-.5.5-1.1.9-.7 0-1.4.1-.7-.1-1.4-.1-.6-.4-1.1-.9-.5-.5-1-1.1 0-.7 0-1.4 0-.7 0-1.4.5-.6 1-1.1.5-.5 1.1-1 .7 0 1.4-.1.7.1 1.4.1z"/><path d="m610 42c0-1.7 1.3-3 3-3h340c1.7 0 3 1.3 3 3s-1.3 3-3 3h-340c-1.7 0-3-1.3-3-3z"/><path d="m6 42c0-1.7 1.3-3 3-3h340c1.7 0 3 1.3 3 3s-1.3 3-3 3h-340c-1.7 0-3-1.3-3-3z"/><path d="m410.3 35.2c-.3.9-1.1 1.2-1.9 1.2s-1.5-.3-1.8-1.2c-1.2-3.3-5.2-14.9 1.8-14.9s3.1 11.6 1.9 14.9z"/><path d="m414.5 38.5c-.8.4-1.6.1-2.1-.5-.6-.5-.9-1.3-.5-2.1 1.5-3.2 6.9-14.2 11.8-9.2 5 4.9-6 10.3-9.2 11.8z"/><path d="m415.2 43.8c-.9-.3-1.3-1-1.2-1.8-.1-.8.3-1.6 1.2-1.9 3.3-1.2 14.9-5.1 14.9 1.9s-11.6 3-14.9 1.8z"/><path d="m411.9 48.1c-.4-.9-.1-1.7.5-2.2.5-.5 1.3-.9 2.1-.5 3.2 1.5 14.2 6.9 9.2 11.9-4.9 4.9-10.3-6-11.8-9.2z"/><path d="m406.6 48.8c.3-.9 1-1.3 1.8-1.2.8-.1 1.6.3 1.9 1.2 1.2 3.2 5.1 14.9-1.9 14.9s-3-11.7-1.8-14.9z"/><path d="m402.3 45.4c.9-.4 1.6 0 2.1.5.6.5 1 1.3.5 2.2-1.5 3.2-6.8 14.1-11.8 9.2-5-5 6-10.4 9.2-11.9z"/><path d="m401.6 40.1c.9.3 1.3 1.1 1.2 1.9.1.8-.3 1.5-1.2 1.8-3.3 1.2-14.9 5.2-14.9-1.8s11.6-3.1 14.9-1.9z"/><path d="m404.9 35.9c.5.8.1 1.6-.5 2.1-.5.6-1.2.9-2.1.5-3.2-1.5-14.2-6.9-9.2-11.8 5-5 10.3 6 11.8 9.2z"/></g></svg>