<?xml version="1.0" encoding="UTF-8" standalone="no"?>
<!DOCTYPE svg PUBLIC "-//W3C//DTD SVG 1.1//EN" "http://www.w3.org/Graphics/SVG/1.1/DTD/svg11.dtd">
<svg xmlns="http://www.w3.org/2000/svg" version="1.1" viewBox="0.00 0.00 512.00 512.00">
<path fill="#000000" d="
  M 249.08 0.00
  L 260.80 0.00
  Q 343.14 2.22 408.88 50.66
  A 0.38 0.38 0.0 0 0 409.49 50.35
  Q 409.53 37.29 409.49 24.01
  C 409.45 11.41 413.91 2.44 427.57 0.00
  L 431.06 0.00
  Q 444.12 2.14 448.08 13.01
  Q 449.52 16.97 449.52 25.69
  Q 449.49 58.82 449.50 91.95
  C 449.50 102.41 446.60 110.90 436.36 114.61
  Q 432.42 116.03 423.97 116.02
  Q 391.80 115.98 359.64 116.00
  Q 349.90 116.01 346.07 114.48
  C 328.22 107.35 330.17 81.65 348.02 76.81
  C 354.62 75.02 366.07 76.18 374.48 75.93
  Q 375.48 75.90 374.63 75.36
  Q 303.61 30.01 220.59 42.97
  C 138.74 55.75 70.34 117.74 48.10 197.32
  C 5.19 350.88 136.49 495.60 293.68 468.64
  C 395.40 451.18 470.08 362.48 471.92 259.55
  Q 472.04 253.39 472.65 250.99
  C 478.21 229.28 508.80 232.10 512.00 254.32
  L 512.00 262.53
  C 507.62 399.80 399.03 507.96 261.91 512.00
  L 249.70 512.00
  C 113.12 507.14 4.76 400.78 0.00 263.42
  L 0.00 249.20
  C 5.01 112.82 111.60 4.45 249.08 0.00
  Z"
/>
<path fill="#000000" d="
  M 239.84 183.91
  C 254.60 198.29 255.31 221.41 244.18 237.95
  Q 236.93 248.72 225.37 257.34
  Q 207.03 271.03 200.99 274.99
  C 195.52 278.58 187.28 285.62 188.40 292.25
  Q 188.49 292.75 188.99 292.75
  Q 216.00 292.74 242.93 292.76
  C 244.92 292.77 247.90 295.20 249.04 297.12
  Q 255.10 307.35 248.09 317.60
  C 246.61 319.75 243.49 320.75 240.68 320.75
  Q 205.22 320.75 169.75 320.72
  C 164.69 320.72 157.58 318.40 155.46 313.20
  Q 154.79 311.56 154.76 307.60
  C 154.63 292.29 153.51 280.86 164.87 269.11
  C 179.06 254.43 198.45 243.24 211.16 230.67
  C 215.67 226.21 219.45 220.48 219.61 214.09
  C 219.92 202.07 208.78 197.04 198.13 200.25
  C 191.36 202.29 189.05 207.35 188.62 213.92
  C 187.62 229.41 158.97 231.94 157.58 213.92
  C 154.20 170.07 212.96 157.71 239.84 183.91
  Z"
/>
<path fill="#000000" d="
  M 343.27 289.49
  L 343.12 312.56
  A 0.85 0.82 -30.2 0 1 343.00 312.99
  C 336.97 322.84 323.18 322.31 314.03 317.02
  C 311.89 315.78 310.98 312.08 311.00 309.40
  Q 311.09 299.48 310.96 289.57
  Q 310.95 289.02 310.40 289.02
  Q 287.78 288.97 265.28 288.98
  C 252.82 288.99 249.21 280.66 254.56 270.14
  Q 277.66 224.73 300.84 179.36
  C 306.02 169.23 315.63 167.70 325.29 173.97
  C 332.95 178.95 331.05 183.73 327.40 190.99
  Q 310.33 224.93 293.56 258.93
  A 0.24 0.24 0.0 0 0 293.78 259.28
  L 310.50 259.28
  A 0.52 0.52 0.0 0 0 311.02 258.75
  C 310.95 246.49 307.88 237.12 324.52 235.38
  C 331.06 234.69 342.30 236.21 343.01 244.88
  Q 343.56 251.55 343.01 258.18
  A 1.06 1.06 0.0 0 0 344.13 259.33
  C 351.42 258.91 357.69 258.44 360.56 266.71
  C 362.94 273.55 361.89 283.78 355.14 287.90
  C 352.20 289.70 347.23 289.00 343.75 289.00
  Q 343.27 289.01 343.27 289.49
  Z"
/>
</svg>
