<?xml version="1.0" encoding="UTF-8" standalone="no"?>
<!DOCTYPE svg PUBLIC "-//W3C//DTD SVG 1.1//EN" "http://www.w3.org/Graphics/SVG/1.1/DTD/svg11.dtd">
<svg xmlns="http://www.w3.org/2000/svg" version="1.1" viewBox="0.00 0.00 512.00 512.00">
<path fill="#000000" d="
  M 251.83 0.00
  L 259.55 0.00
  C 399.69 2.76 508.44 113.01 512.00 252.08
  L 512.00 260.55
  C 509.98 327.25 484.57 389.98 437.32 436.71
  Q 364.10 509.15 258.71 512.00
  L 252.46 512.00
  C 113.52 508.86 3.58 400.32 0.00 260.91
  L 0.00 251.70
  C 1.68 177.13 34.84 106.27 92.68 58.82
  Q 161.27 2.56 251.83 0.00
  Z
  M 255.42 225.29
  Q 220.01 189.91 184.51 154.36
  Q 178.42 148.27 174.50 146.36
  C 156.58 137.63 137.62 156.76 146.42 174.58
  Q 148.39 178.57 154.79 184.95
  Q 190.20 220.27 225.36 255.50
  A 0.72 0.72 0.0 0 1 225.36 256.52
  Q 189.37 292.48 153.46 328.43
  Q 148.50 333.40 147.01 335.96
  C 136.66 353.79 155.97 374.65 174.44 365.70
  Q 178.36 363.80 184.59 357.56
  Q 220.10 321.99 255.50 286.64
  A 0.72 0.72 0.0 0 1 256.52 286.64
  Q 292.34 322.48 328.15 358.26
  Q 333.84 363.94 336.91 365.55
  C 354.48 374.72 374.29 355.78 365.85 337.75
  Q 364.06 333.93 357.38 327.26
  Q 321.92 291.80 286.64 256.51
  A 0.73 0.72 -45.3 0 1 286.64 255.48
  Q 322.40 219.74 358.09 184.02
  Q 363.94 178.17 365.59 174.86
  C 374.43 157.19 355.39 137.48 337.66 146.09
  Q 334.02 147.87 325.79 156.09
  Q 291.07 190.80 256.59 225.29
  A 0.83 0.83 0.0 0 1 255.42 225.29
  Z"
/>
</svg>
