<svg height="1080" viewBox="0 0 1080 1080" width="1080" xmlns="http://www.w3.org/2000/svg"><clipPath><path d="m67 47h946.22v985.65h-946.22z"/></clipPath><path d="m362.4 100.3q-.1 0 0 0 0-.1.1-.1 4.5-1.7 9.3-3.3 11.8-4.1 25.6-8.9.9-.3 1.9-.5c.9-.2 1.7-.8 2.5-1.1q15.9-5.5 32.8-11.4.1 0 2.7-.8.9-.3 1.8-.7 1.3-.5 1.9-.7 16.7-5.8 33.7-11.8 2.7-.9 5.4-1.9 4.7-1.7 9.8-3.3 1.8-.5 3.5-1.3 1.6-.7 3.3-1.2 9.1-3.1 18.1-6.6.3-.1.6 0 .3 0 .6.2.2.2.4.5.1.3 0 .7l-1.7 10.7q-.1.4-.2.7-.2.3-.4.6-.2.2-.4.4-.3.2-.6.4-2.5 1-4.8 1.7-2.3.7-4 1.6-1.3.7-2.6 1-1.4.4-2.8.9-14.8 5.3-29.7 10.3 0 .1-3 1.3c-1.4.5-2.8.7-4.1 1.2q-2.1 1-4.9 1.9-12.9 4.3-25.3 8.6-2.2.8-3.8 1.6c-1.1.5-2.3.4-3.3.9q-1.3.7-2.6 1.1-2.6.7-2.7.8-10.8 3.8-21.6 7.5c-1.4.5-2.8 1.4-4.3 1.6-1.6.2-2.9 1.2-4.4 1.6q-1.3.4-2.6.8-7.7 2.7-16.2 5.4-.2.1-.1.3.1 0 .1 0 0 .1 0 .1-.7 0-1.4.2-3.5 1.3-7.1 2.6-2 .7-4 1.6-2.7 1-5.6 1.4.2-.1.2 0 .1.1 0 .2-.5.2-1 .1-.3 0-.5-.1-.3-.2-.5-.4-.1-.2-.2-.5-.1-.3 0-.6l1.8-10.9q0-.2.1-.4.1-.2.2-.4.2-.2.4-.3.1-.1.3-.2 4.3-1.3 8.2-2.8c.4-.2.7-.1 1.1-.1q.3 0 0-.2z"/><path d="m376.1 125.2q.1-.2.3-.2 1.3-.4 2.7-.8c1.3-.3 2.4-1.4 3.8-1.8q5-1.4 10.3-4c1.1-.5 2.4-.7 3.5-.8q.5 0 .8-.3 1.2-1 2.7-1.2.4-.1.7-.3.6-.6 1.5-.6.5 0 .8-.2c1.8-1 3.8-1 5.7-2.1q2.7-1.7 6.1-2.1.1 0 .1 0 0 0 .1 0 0-.1 0-.1 0-.1 0-.1-.1-.1-.1-.2-.1-.1 0-.1 2.3-.5 4.3-1.5 1.3-.7 2.6-.9 1-.1 1.7-.6.9-.6 1.7-.8 2.3-.6 4.3-1.4 2.1-.8 4.2-1.5 4-1.3 8.5-3.2 2.7-1.2 5.2-2 1-.3 1.9-.5 1.5-.3 2.9-1.1c.8-.4 1.7-.2 2.4-.6 1.6-.9 3.4-1.1 5-1.8q3.4-1.5 7.5-2.4.3 0 0-.2-.1-.1-.2 0-.5.1-.1-.1 1.2-.6 2.5-.9 1.4-.2 2.5-.8 2.1-1.1 4-1.5 1-.3 1.9-.6 6.4-2.2 13.8-4.5 2.9-1 5.4-2.2.1-.1.2-.1.1 0 .2 0 .1-.1.2-.1.1 0 .2 0 1.1.1 1.9-.4.8-.4 1.6-.6 1.8-.5 3.6-.9.4-.1.7-.4.1-.2.3-.2 3.9-1.4 7.4-2.2 1.7-.5 3.4-1.2 1.7-.7 3.3-1.2 13.1-4 26.6-8.3 26.9-8.4 51.2-14.2 7.8-1.9 16.1-2.6c4.6-.5 11 .1 14.2 4 4.9 5.9 4.8 14.1 3.1 21.1q-2.3 9.9-7.4 20.2-7.9 16.1-18.1 31.7c-7.6 11.6-15 22.4-24 34.6q-16.2 21.9-28.9 45.4-2.3 4.3-4.8 8.3-.1.3-.3.4-.2.2-.5.3-.3 0-.5 0-.3-.1-.5-.2-.9-.5-.7-1.6c1.3-7 2.6-14.1 4.9-20.7q4.7-13.9 13-26.9c13.5-21.1 28.3-40.1 42.7-59.8q4.8-6.5 7.5-12c.9-1.7 1.6-4.2.7-5.9q-.2-.4-.6-.5-4-.6-8 .2-12.7 2.5-24.5 5.7-29.4 8.2-58.7 17.6-84.2 27.2-161.6 58.1-20.3 8.1-39.6 17c-11.7 5.4-23 10.7-33.3 17.7q-.1 0-.1.1 0 0 0 .1 0 0 0 .1 0 .1.1.1c34.5 25.3 67.9 53.2 100 82.1q56 50.4 118.2 110.6 17 16.5 31.3 27.8c8.9 7.1 22.6 8.3 33.6 6 9.1-2 15.9-6.9 22.2-13.5 7.7-8 15.1-16.8 23.8-22.9q2.6-1.9 5.7-2.7c2.2-.6 3.4 1.4 2.8 3.3-2 7-4.1 13.2-3.6 20.8q.2 1.8 1 3.7.8 1.9 1.6 3.6c4.3 8.3 13.7 13.2 22.8 14.8q23.7 4.2 40.1-12.8c8-8.2 14.1-18.4 20.7-27.4 2.6-3.7 7-8.6 11.9-8.8 3-.1 2.7 2.9 1.8 4.8-4.3 9.8-6.9 20.5-.4 29.5q4.5 6.3 12.5 6.8 15.6.9 27.5-10.1 9.5-8.8 17-22.7.8-1.5 1.9-3 1-1.6 1.9-3.1 1-1.7 2.3-3.4c1.1-1.4 3.8-3.5 5.6-2.4q1.2.8.8 2.4-.8 3.8-1.5 7.4c-.9 4.4.6 7.1 3.2 11q7.7 11.9 22.1 15.3 11.1 2.5 22.2 0c16-3.6 29.3-18.7 36.7-32.9q2.9-5.4 5.8-10.4c.8-1.4 2.1-3.1 3.5-3.9 1.7-1 3 0 4.2 1.1q.7.7 1.2-.1 5.4-7.4 11-14.3c11.5-13.9 30.9-31.2 48.7-15.7 15.2 13.2 22.3 37.7 21.5 57.2q-.2 4.8-1.6 9.3-5 16.1-11.7 26.9c-1.1 1.8-2.9 3.8-5.3 3.6q-4.8-.2-8.9-1.3-1.1-.2-2.2-.4-1.6-.1-3.1-.5c-22.4-5.6-44.6-13.9-62-29.9q-.1-.1-.2-.1-.1 0-.2 0-.1 0-.2.1-.1.1-.2.2c-3.8 9.4-7.9 19.9-13.9 27.9-6.5 8.9-16 17-26.7 19.9-14.8 4-33.5 1.7-44.3-10q-6.2-6.6-10.2-16.5-.3-.9-.9-1.8-.2-.2-.4-.4-.2-.1-.4-.1-.3.1-.5.2-.2.1-.3.3-3.5 6.8-7.5 13.6c-9.2 15.4-24.3 25-42.1 23.8q-6.9-.5-13.1-5.6c-6.7-5.5-9.5-13.5-10.9-22q-.3-2-1.3-.2c-11.3 20.4-28 36.1-52.2 36.6-18.3.3-33.5-9.2-38.3-27.6q-1.5-5.8-2.4-12.3-.1-.8-.4-1.6-.2-.3-.5-.5-.3-.2-.6-.3-.4-.1-.7 0-.4.1-.7.3c-3.1 2.4-5.8 5.4-8.2 8.6q-8.6 11.5-16.6 18.2c-14.3 12.2-38.6 11-52.9-.6q-16.4-13.3-35.8-31.5-29.7-28-59.8-55.5-.5-.4-.4.2 0 .2.2.4c8.1 12.4 16.5 27.4 18.4 41.7.4 2.6.3 5.2.7 7.8q.3 1.6.2 3.1-1.2 12.2-4.2 22.2c-4.4 14-14.1 23.3-27.1 29.5q-19.7 9.4-35.6 12.3-3.3.6-6.5 1.4-2.5.6-5.5.9-2.6.3-5.4.7c-16.2 2-33.9.8-49.2-4.4q-11.7-3.9-22.1-11.9c-21.6-16.6-26.4-45.4-27.6-71.2q-4.2-87.6-10.7-164.5-2.3-28.3-5.9-59-.9-7.7-2.3-16-2.5-14.1-5.8-27.3-.1-.6.1-1.2 1.5-4.6 3.7-8.8.2-.3.2-.7 0-.4.2-.8 1.8-4.4 3.6-8.4 1.3-3.1 2.4-6.3.5-1.5 1.3-3c.8-1.6 1.2-3.6 2.3-5.1q.2-.4.7-.4 1.3.1 1.5 1.4.6 3.1 1.5 6.2.7 2.4 1.1 5.1.4 2.5 1.1 5c.3 1.1.1 2 .4 3.1q.7 3.3 1.5 6.8.8 3.4 1.2 7 .3 2.6.6 5.7.3 2.6.8 5.7.9 4.9 1.5 10.5.8 7 2 14.4.4 2.6.5 5.3.1 2.7.6 5.4.1.3.3.3.2 0 .3-.1 0 0 0 0 0 0 .1 0 0-.1 0-.1.4-2.1 1.4-4.3c4.2-9.7 13.2-15.9 22.5-20.9q10.9-6 22.3-11.2 24.8-11.4 53-22.5 1.7-.6 3.2-1.1.4-.2.5-.5zm-98.3 119.4c3.2 43.4 5.7 87 7.5 130.1q1 21.4 5.3 39.6c2 8.9 5.8 18.8 12.7 25q5.9 5.4 14.8 9.4c17.2 7.8 37.5 9.2 56.4 6.9q26.3-3.2 49.9-14.5 6.9-3.3 12.4-7.5.1-.1.1-.2.1-.1.1-.2.1-.1.1-.2-.1-.1-.1-.2-7.3-15.5-16.9-28.4-8.7-11.6-19.2-24c-39.6-46.6-80.9-91.8-122.8-136.4q-.1 0-.1 0 0 0-.1 0 0 0 0 0 0 0-.1 0 0 .3 0 .6zm653.9 132.8q-1.1-1-2.4-1.3c-10.4-2.6-20.2 1.8-28.2 8.6q-.1 0-.1.1 0 .1 0 .2 0 .1 0 .2.1.1.2.1 5.1 3.5 11.1 6.5 15.8 7.9 33.4 12.7.1 0 .2 0 .2 0 .3-.1.1-.1.1-.3.1-.1 0-.3c-2.5-8.1-5.5-16.1-10.5-22.7-1.2-1.6-2.7-2.5-4.1-3.7z" fill-rule="evenodd"/><path d="m715.5 82.7q.3-1.2.7-2.3 3.5-8.7 6.7-17.5 1.7-4.5 2.4-9 0-.2.1-.4.1-.2.2-.3.1-.2.2-.3.1-.2.3-.3.5-.3 1 0 .4.1.5.5c1.1 3.1 0 9.1-.8 12q-3.4 12-6.8 23.9-.4 1.5-.6 3c-.2 1.4-.7 2.8-.9 4.2q-.7 5.7-.3 10.6.2 2.9 1.5 5.7 1.5 2.7 4.3 4.2 2.3 1.2 4.9.1 3-1.4 4.2-3.4 3.8-6 4.6-13.1 0-.1.1-.3.1-.2.2-.3.1-.2.3-.3.2-.1.4-.1.8-.1 1 .8c1.5 9.2 1.5 18.3-2.9 26.7q-3.1 6.1-8.4 8.8-.5.2-1 .2-.4-.1-.7.2-.4.3-.8.4-5 .9-8.5-2-3.2-2.6-5.4-6.6-2.1-3.8-2.9-8-1.8-9.3.9-19.7.2-.5.3-.9 1.6-7.1 4.5-14.6.1-.4.2-.7 0-.3.2-.5.3-.3.3-.7z"/><path d="m873.9 157.3q3.2.9 6-.9c4.6-2.9 6.6-10.3 7.3-15.5q0-.1.1-.3.1-.1.2-.3.1-.1.2-.2.1-.1.3-.1.9-.4 1.1.6 1.4 6.4.9 13.3c-.5 8.9-5.1 20.6-14.4 23-5 1.3-9-1.3-12-5.3-8.7-11.6-6-27.1-1.6-39.9q4.4-12.7 9.8-26.5 1.9-5 3.1-11.1.1-.3.2-.5.2-.2.5-.4.2-.1.5-.1.3 0 .5.1.7.3.8 1.2c.4 4-.3 8.7-1.4 12.6q-2.9 10-5.9 20.4-3.3 11.8-2.4 21.1.3 2.4 2.2 5.6 1.6 2.5 4 3.2z"/><path d="m213.8 162.8c-.8-.7-1.8-1.1-2.7-1.6q-.1-.1-.2-.1-.1 0-.2 0-.1 0-.2.1-.1 0-.2.1-11.1 14.2-23.9 26.8-13.6 13.5-30.8 22.9-10.5 5.7-21.3 11.6-15.1 8.3-29.3 14.4-1.3.6-2.3-.5-.7-.7 1.5-2.6.8-.7 1.7-1.3 29-19.2 43-29.1 26-18.3 48.9-40.8 3-2.9 5.5-6.1.1-.1.1-.2 0-.2 0-.3 0-.2-.1-.3-.1-.1-.2-.2c-5.1-3.1-10.6-6.7-13.8-11.5q-3.8-5.7-2.9-11.8.4-2.8 1.3-5.7c2.4-7.2 10.1-13.3 16.8-16.7 5.4-2.7 12.9-4.2 17.3.5 3.9 4 4.3 11.6 3.7 16.7q-1.1 8.5-4.9 16.1-.1.2-.1.4 0 .2 0 .4.1.3.2.4.2.2.4.3 4 2.5 7.5 5.5.1.2.2.3.1.2.2.4 0 .2 0 .4-.1.2-.2.3l-7.9 14.5q-.1.2-.3.3-.2.2-.4.2-.2.1-.5.1-.2-.1-.4-.2-3-1.6-5.5-3.7zm-5.6-26.1c1.3.7 2.5 1.6 3.9 2.3q.1.1.2.1.1 0 .2-.1.1 0 .2-.1 0-.1 0-.2c.5-4.2.7-8-1.6-11.7q-.6-1.1-1.7-1.6c-3-1.2-7.1.1-9.5 1.9q-1.3 1-.3 2.3 3.4 4 8.6 7.1z" fill-rule="evenodd"/><path d="m208.2 136.7q-5.2-3.1-8.6-7.1-1-1.3.3-2.3c2.4-1.8 6.5-3.1 9.5-1.9q1.1.5 1.7 1.6c2.3 3.7 2.1 7.5 1.6 11.7q0 .1 0 .2-.1.1-.2.1-.1.1-.2.1-.1 0-.2-.1c-1.4-.7-2.6-1.6-3.9-2.3z" fill="#fff"/><path d="m541.5 148.3c-2.1-1.3-6.2-3.6-8.2-1.3q-.4.5-.9.8-.4.2-.5.6-2.8 6.6-3.6 14.7-1.5 13-2.9 24.5-.6 4.7-2.4 11.2-.1.5-.4.8-.3.4-.2.9.2 1.1-.7 1.9-2.3 1.9-4.7 3.9-.1.1-.4.2-.2.1-.4.1-.3-.1-.5-.2-.2 0-.4-.2c-.6-.6-.4-1.5-.6-2.2q-1.9-8.8-3.6-14.2-1.4-4.5-3.3-9.8-.7-2-1.6-3.8-.8-1.9-1.7-3.9-.8-1.7-1.2.2c-1.1 5.8-2.7 12.1-5.5 17.4q-3.2 5.9-7.4 11.5-11.2 14.5-25.4 26.4c-12.9 10.7-27.1 18-43.4 23.4q-20 6.8-36.7 12.5-1.3.4-2.7.5-.3 0-.6-.2-.3-.2-.5-.5-.1-.3 0-.7 0-.3.2-.6 1.2-1.2 2.6-2.1c11.8-7.1 24-13.1 36-19.5q25.6-13.8 48.3-33.6 14.5-12.7 25.6-27.5 3.4-4.6 6.4-10.4.1-.1.1-.2 0-.2-.1-.3 0-.1-.1-.2-.1-.1-.3-.1-11.7-2.5-17.9-11.8c-1.9-2.9-2.6-5.8-.9-9q2.4-4.3 4.9-9.1.1-.3.3-.5.3-.3.6-.4.3-.2.6-.2.3 0 .6 0l4.2.8q.5.1.8.4.6.4 1.2.7.8.3 1.5.6c8.3 4.5 14.1 13.8 17.6 22.2q3.9 9.1 6.2 19.2.3 1 .4 0 .7-4 1.2-7.9 1.5-10.9 3.6-21.7 1-5.2 2.6-10.7 1.5-4.9 3.9-8.6 3.3-4.9 8.5-3.6 1.4.3 2.4 1.1 1.2.9 2.3 1.8 2.9 2.4 6.5 7.4 1.1 1.5.5 2.7-.7 1.4-1.2 3-.5 1.4-1.3 2.6-.9 1.5-1 3.5 0 .2-.1.5-.1.2-.3.4-.1.2-.4.4-.2.1-.4.2-1.5.5-2.2-1-.2-.4-.5-.6-1.2-.7-2-1.9 0 0-.1-.1-.1-.1-.1-.2-.1 0-.2-.1 0 0-.1-.1z"/><path d="m669.5 212.8q1.3-.8-.2-1.1-23.5-4-47.6.4-.2.1-.4 0-.3 0-.5-.1-.2-.1-.3-.2-.2-.2-.3-.4-.4-.8.3-1.9 8.2-13.8 16.5-27.7.1-.1.2-.3.2-.1.3-.2.2-.1.4-.2.2-.1.4-.1 19.9-3.2 42.2.7c5.4.9 11.5 2.4 16 5.4q.3.2.4.5.2.2.3.5.1.3 0 .6 0 .3-.2.6-5.6 9.8-11.4 20.4-3.4 6-6.6 10.2c-4.4 5.9-11.6 14.6-18.8 15.8q-1.2.2-2.4.4-4.3.8-8.4 1.2-5 .4-8.5.9c-5.6.7-11 .8-16.5 1.6q-3.9.5-7.3.4-1.7 0-1.9-1.5 0-.3 0-.5.1-.3.2-.5.2-.3.4-.4.2-.2.5-.3c3-1.1 6.1-2.1 8.9-3.6 4.3-2.2 8.4-4.2 12.9-6q13.7-5.4 27-12.1 2.6-1.3 4.4-2.5z"/><path d="m797.8 259.3q2.1-4.8 2.9-10.1.1-.7.6-1 .5-.4 1-.1.1.1.1.1.1.1.1.1.1.1.1.2 0 0 0 .1c1.9 10.2 1.5 20.4-4.2 29.3-2.5 3.9-6.9 7.3-11.5 7.5-9.4.3-14.8-13.1-15.4-20.8q-.6-9.4 2.5-20 3.6-11.8 10.4-28.9c1.7-4.3 3-8.7 4-13.2q.2-1 1-1.2.3-.1.5-.1.2.1.5.2.2.2.3.4.1.2.1.4.6 5.6-1 11.5-3 10.7-6.1 21.7-3.5 12.1-2.4 21.7.2 1.9 1.8 4.7 2.7 4.8 8.1 3.7 2.1-.4 3.8-2.2 1.8-1.8 2.8-4z"/><path d="m174.6 261.6q-5.5-2.8-10.9-5.8-.1-.1-.2-.1-.2 0-.3.1-.1 0-.2.1-.2.1-.2.2-7.7 13.6-14.7 26.2-1 1.9-2.9.8-1.4-.9-2.7-1.8-1.1-.7-2.3-1.2-1.3-.6-2.3-1.6-.1-.1-.3-.1-.1 0-.2 0-.1 0-.2-.1-10.1-6.1-21.2-11.9-.2-.2-.4-.4-.2-.2-.3-.5-.1-.3-.1-.6 0-.3.1-.6l15-31.9q.1-.3.3-.5.3-.2.6-.3.3-.1.7-.1.3 0 .6.2 5.3 2.8 10.5 5.8 10.1 5.9 21.5 12.8.1.1.1.1.1 0 .2 0 0 0 .1-.1.1 0 .1-.1l15.1-27.1q.9-1.6 2.5-.7 6.9 3.7 14 7.9 8.5 5.1 16.4 9.9 1.2.7.6 2l-14.7 30.8q-.2.4-.6.7-.4.2-.4.7-.1.5-.6.5-1.7 0-2.6-.7-2.1-1.6-3.9-2.6c-5-2.8-9.9-5.9-14.8-8.9-.5-.3-1-.8-1.4-1.1z"/><path d="m929.4 289.3q.1 3.7-1.3 7.5c-.6 1.6-.9 3.3-1.2 5q0 .3-.1.5 0 .2-.2.4-.1.1-.2.3-.2.2-.3.3l-4.8 3.9q-.2.1-.5.2-.3.1-.5 0-.3-.1-.5-.3-.2-.3-.3-.5-.6-2.4-1-5.2-.4-2.6-2.6-9.5-1.8-5.7-3.3-10.1-1.6-4.3-3.8-8.6-.8-1.6-1.1.1c-1.5 9.3-4.6 17.2-10.2 25.2q-6.4 9.2-15.9 18.9-15.2 15.5-31.3 24.3-10.6 5.9-26.7 11.3-17.8 5.9-36.4 12.2-.2.1-.4.1-.2-.1-.4-.1-.2-.1-.3-.2-.2-.1-.3-.3c-.6-1 0-2 .8-2.5q4.9-3.3 9.4-5.7 13.8-7.4 27.4-14.5 30.3-16 58-42.3 4-3.8 8.4-9c5.7-6.5 11-13.1 14.9-20.9q0-.1 0-.2 0-.1 0-.2-.1-.1-.2-.2 0 0-.2-.1-10.1-2-16.7-10c-2.3-2.8-4.2-6.8-2.4-10.2q2.8-5.2 5.1-9.6.7-1.4 2.2-1.2c12.9 2 21.1 14.4 25.9 26.2q3.2 7.9 4.9 15 .1.3.4.6.2.1.4.3.5.5.6-.3 1.7-13.8 4.5-27.8 1.4-7.5 4.1-14.7c1.4-3.6 4.9-8.8 9.3-8.1q4.2.6 7.3 3.9 3.4 3.6 5.9 7.4.1.2.1.4.1.2.1.4.1.2 0 .4 0 .3-.1.5l-4.2 10.3q-.1.3-.3.5-.3.2-.6.3-.3 0-.6-.1-.3-.1-.5-.4-2.9-3.7-7.6-5.6-1.6-.6-3.1-.2-1.6.4-2.6 2.2c-2.3 3.9-3.2 10-3.8 15.1q-1.4 13-2.8 24.3 0 .2-.2.3-.2 0-.2.3z"/><path d="m547 327.4c3.4-3.8 4.9-9.6 5.7-14.5q0-.2.2-.4.2-.2.4-.3.3 0 .5.1.3.1.4.3.4.7.6 1.6 1 7.6.4 13.8c-.7 6.7-3.8 14.7-9.3 18.9-4.4 3.3-10.1 3.9-14.3 0-8.9-8.5-9.8-21.4-7-32.9q2.2-8.9 5.4-17.5 4-10.4 7.9-21.3c1-2.7 1.7-5.5 2.3-8.4q.1-.7.7-1.2.2-.2.4-.2.2-.1.5 0 .2.1.4.2.1.2.2.4c1.2 3.1 0 9.3-.9 12.5q-3 10.5-6 21.2c-1.9 6.6-3.2 13.6-2.5 20.5q.4 3.6 2.3 6.3 2.3 3.5 6.5 3.4 2.9 0 5.2-2.5z"/><path d="m205.8 300q5.8-11.4 11.4-23.1.2-.3.5-.5.3-.3.6-.3.4-.1.7.1.4.1.6.4.5.6.4 1.4-1.1 11.3-3.3 20.2c-2.2 9.2-6.1 18.8-10.5 27.3q-8.3 16.4-19 33.1-.1.2-.1.3-.1.2 0 .4 0 .2 0 .3.1.2.2.3c6.5 7.1 13.3 14.6 18.1 22.6 2.2 3.7 3.7 8.3 4.6 12.6 4.2 19.3 1.2 41.6-8.5 59.2q-4.5 8.3-13.3 14.8c-10.9 8.2-25.1 15.1-38.9 16-6.5.5-13.8-1.2-16.4-7.8q-2.9-7.4-4-15.9-2.8-20.2 2.6-40.3.4-1.6.9-3.1.4-1.1.6-2.1.3-1.1.6-2.1 3.5-10.2 9-18.8 7.1-10.8 15.9-23.7.2-.4-.1-.7-15.1-16.1-26.9-31.6c-4-5.2-8.6-8.4-13.7-11.5q-.2-.1-.3-.2-.1-.2-.2-.3 0-.2-.1-.3 0-.2 0-.4l6.2-34.9q.1-.4.3-.7.2-.3.6-.4.3-.1.7-.1.4.1.6.3 4.3 3.5 9 7.1 4.5 3.4 9.1 7 10.8 8.5 22.1 15.4.6.4 1.2.7.4.3.5.8.6 1.8-1.2 2.4-5 1.9-10.7 2-.1 0-.2 0-.1.1-.1.2 0 0 0 .1 0 .1 0 .2l19.5 20.4q0 .1.2.1.1 0 .2 0 .1 0 .2 0 .1-.1.2-.2 10.5-15.1 20.7-31.1 0-.1 0-.1.1 0 .1-.1 0 0 .1 0 0 0 0-.1.3-.2.4-.5.3-.9.8-1.6.6-.7 1-1.5.6-1.2 1.4-2.4 2.1-3.2 3.7-6.4.5-.9 1.4-1.9.3-.5.6-1zm-62.4 128.5q-2.5 4.5-4.2 9.8-1.8 5.7 3.4 8.2 2 1 5.3 1c10.3.1 22.2-5 31.3-10.6 7.2-4.4 13.7-9.4 17.5-14.9 1.3-1.9 3.5-3.6 1.5-6.2-3.7-4.8-7.5-9.8-11.6-14.4q-7.4-8.4-15.5-16.9 0 0-.1 0 0-.1-.1-.1 0 0-.1 0-.1 0-.1 0-.4.1-.6.5-16.1 24.7-26.7 43.6z" fill-rule="evenodd"/><path d="m683 328-23.3-12.4q-.1-.1-.2-.1-.1.1-.2.1-.1 0-.2-.1-3.7-2-7.3-3.7-.2-.1-.3-.2-.2-.2-.2-.4-.1-.2-.1-.4 0-.2.1-.4l15-32.3q.1-.2.3-.3.1-.2.3-.2.2-.1.5-.1.2 0 .4.1 15.5 7.5 31.1 16.1.3.1.4.3.2.2.3.5 0 .2 0 .5 0 .2-.1.4l-14.9 32.1q-.1.2-.3.4-.1.1-.4.2-.2.1-.4.1-.3-.1-.5-.2z"/><path d="m685.5 340.6q1.5 1 3.2 1.8.4.2.6-.1l15.3-27.5q.8-1.4 2.3-.7 4.5 2.2 7.9 4.2 11.3 6.6 22.4 13.4 1 .7.5 1.7l-15.2 31.9q-.1.3-.3.5-.3.1-.5.2-.3.1-.6.1-.2-.1-.5-.2-12.7-7.8-25.5-15.4c-.5-.3-1-.3-1.5-.6q-2.5-1.7-5.1-2.7-.4-.2-.7.2l-15.3 27.4q-.1.3-.3.4-.3.2-.5.3-.3.1-.6 0-.3 0-.5-.2-14.9-9.1-29.6-17-.2-.1-.4-.3-.1-.1-.2-.3 0-.3 0-.5 0-.2.1-.4l15-32.1q.1-.2.3-.4.2-.1.4-.2.3-.1.5-.1.3 0 .5.2 13.3 7 28.3 16.4z"/><path d="m320.9 377.1q.3-1.3.7-2.5 4.5-12.2 9.2-24.4 1.9-5.1 3.1-11 .3-1.4 1.7-1.2.1 0 .2.1 0 0 .1.1.1 0 .1.1.1.1.1.2c1.2 3.9-.1 10-1.3 14q-2.3 7.9-5 17.3-2.4 8.5-3.2 15.9-.6 6 1 10.8.7 2.2 2.5 4.2c1.6 1.6 3.4 1.4 5.5 1.7 2.7.3 5.5-2.6 6.7-4.6q3-5.1 3.8-11.5.1-.9.7-1.4.2-.1.4-.1.2-.1.4 0 .2.1.3.2.2.2.2.4c2 10.1 1.4 21-4.5 29.8-2.9 4.2-8.3 7.9-13.6 6.7-7.6-1.7-12-12.3-12.8-19.3q-.7-6 .2-10.9.4-2.1.7-4.3.3-2.1.9-4.1.7-2 1.4-4.2.3-1 .5-2z"/><path d="m951 447.5q9.4-3.6 20.2-7.8 1.9-.8 4-1.5 5.8-2 11.7-4.5.2 0 .3 0 .2-.1.4-.1.1 0 .3.1.1 0 .3.1.8.4.6 1.1-3.6 9.8-7.4 20.3 0 .1-.1.1 0 .1-.1.2-.1.1-.1.1-.1.1-.2.1-6.8 3.1-13 4.9c-.6.2-.9.5-1.5.8q-53.5 20.2-101.5 38.8-7 2.7-12.6 5.1-1.1.5-2.4.9c-1.9.7-3.6 2-5 3.5q-.1.1-.4.2-.2.1-.5.1-.2-.1-.4-.2-.2-.2-.3-.4-.2-.4-.2-.8 0-.7.2-1.3 3.9-10.3 7-18.9c.9-2.5 5.5-4.6 9.1-6q46-17.5 91.6-34.9z"/><path d="m251.6 503.6q.2-.7.5-1.4.3-.7.4-1.4.5-2.2.7-4.2 0-.1.1-.2 0-.2.1-.3.1-.1.2-.2.1-.1.2-.1 1.1-.6 1.3.4 1.5 7.6.7 15.5-.8 8.4-6 15.4c-3.2 4.2-9.3 7.4-14.3 5.1q-3.6-1.6-6.2-5.2-2-2.8-3.3-6.2c-3.6-8.9-2.1-20 .6-28.8q4.1-13.1 10.9-30.2 2.2-5.6 3.4-11.9.2-1.2 1.6-1 .1 0 .3.1.2.1.3.3.1.1.2.3.1.1.1.3.4 5.3-.8 10-1.7 7.1-6.6 23.3-.6 2.2-1 4.4c-.3 2-.9 3.8-1.1 5.9q-.6 6.9 0 11.4.5 3.7 3.8 6.9 1.4 1.4 3.2 1.4c1.5.1 3.2.3 4.6-.7q3.5-2.7 5.4-6.7.3-.6.7-2.2z"/><path d="m832.2 507.9q1.2 1.7 1.4 3.7 0 .2.1.5 1.2 1.9 1.9 4.1.4 1.6 1.1 3 .7 1.5 1.3 2.9.1.1.1.6-.1.3 0 .6 3.5 9.6 7.8 22.6 3.8 11.2 5.7 21 .3 1.6-.1 3.4-.1.4-.4.7-.3.3-.6.5-.4.2-.8.2-.4-.1-.8-.3-1.3-.6-2.3-1.8-5.1-6.1-9.9-12-.8-1.1-.6.3 1.2 11.2 1.6 20.3 0 .8.1 1.5.1.5.2 1 9.8 123.8 12.9 161.3.9 10.6 3 25.4c.1.9.7 2.5.7 3.8 0 2.3.7 5.2 1.3 7.2q.4 1.4.5 2.7.1 1.2.3 2.3 1.4 6 2.8 12 0 .1.1.2.1.1.2.1.1.1.2.1.1 0 .2-.1c10.8-4.4 22.2-8.2 33.5-9.3q14.1-1.4 25.3 7.6c16.2 12.8 20.4 35.4 14.4 54.3-2.8 9-6.8 17.7-13.5 23.9-9.3 8.5-20.8 9.4-33 6.9-21.9-4.6-35-20.9-42-41.1q0-.1-.2-.2-.1-.1-.2-.2-.1 0-.3 0-.1 0-.2.1c-3.3 1.8-6.8 3.5-10 5.5-45.1 28.1-100.5 40.5-153.9 42.2q-8.2.3-16.4.9c-36.3 2.5-74.6-6.4-81.3-48.8q-.1-1.2-.7-2.2-.1-.3-.3-.4-.2-.2-.4-.2-.3 0-.5 0-.3.1-.4.3c-.9.8-2 1.6-2.8 2.5q-7.3 8.6-15.6 16.9-6.8 7-12 10.3c-14 8.9-32.1 12.5-48.5 10.8q-10.8-1.2-18.5-5.8c-13.6-8.1-22.3-20.1-27.1-34.9q-5.5-16.9-6.5-36.1-1.2-24.5-2.7-51-3.5-62.6-8.3-119.5-2.8-32.6-6-58.5-2.4-19.6-8-42.7 0-.4.1-.7.8-2.8 2.1-5.2.8-1.5 1.2-2.9.5-1.6 1.3-2.9c.4-.6.2-.9.5-1.5q4.3-10.2 7.6-18.7 2.1-5.2 3.4.3 1.3 5.2 2.9 12 .3 1.5.5 3.1.2 1.5.6 2.9 1 3.9 1.6 7.8.4 3.2.9 6.3.6 3.3 1 6.3 5.8 40.7 9.4 86.2.3 4.6.7 9.4 4.8 63.9 7.6 129c.5 11.8 1.5 22.3 3.2 33.4q1.3 7.8 3.5 15.4c3.4 12 9.2 21.8 20.9 27.2q6.7 3 15.3 3.9c15.5 1.5 32.8-1.9 46.1-10.5q5-3.2 10.2-8.5 9.1-9.3 18.1-17.9c3.1-3.1 6.4-6.1 10.9-7.2q.3-.1.6 0 .4 0 .7.2.3.1.5.4.2.2.3.5.5 1.4 0 3c-1.5 4.4-2.5 8.5-2.1 13q.2 2.2.8 4.3 3.9 13.8 16.8 21.2 0 0 .1 0 .1 0 .1 0 .1 0 .2 0 0-.1 0-.1 19.5-37.2 45-67.5 9.3-11 23.8-22.1c11.5-8.6 25.8-18.1 40.8-16.9q6.4.6 13.6 2.9c28.6 9.5 51.9 32.6 53.6 63.6q.3 5.4-.5 10.7-1 6.2-3 11.1-.2.6-.3 1.2 0 .3-.1.7-2.2 6.1-5.6 12.1-.3.6.4.4 31.1-9.2 58.6-26.1.2-.1.2-.4c-2.3-13.6-3.8-26.6-4.9-40.9q-6.5-86.4-12.9-171.2-1.7-21.9-4.7-53.2-.3-2.8-1.2-5.4-2.7-6.8-5.1-13.2-.2-.6 0-1.3l13.5-32.4q.1-.3.4-.5.2-.2.6-.2.3-.1.6.1.3.1.5.4c.9 1.5 1.1 3.2 1.8 4.7q1.1 2.1 1.8 4.5.4 1.2 1 2.4c.5.9.5 2.1 1.1 3.1q1 1.9 1.3 4 0 .4.2.6zm-207 329.2c-.3 1.9-1.2 3.3-2.4 4.7q0 0-.1.1 0 .1 0 .1.1.1.1.1.1.1.1.1 3.7 1 7.1 1.9 3.2 1 6.8 1.5 2.4.4 5 .8 2.5.3 5.1.5c30.9 2.3 62.8-3.7 91.6-15.1q18.4-7.3 34.3-22.1.7-.7.3-1.5-1.5-3-3.6-6-14.6-21.3-38.8-31c-7.5-3-15.1-5-23.1-4q-10.5 1.3-20.3 6.4-26.1 13.7-44.2 37.5-9.6 12.6-17.3 25.6-.1.1-.2.1-.1.1-.2.1-.1.1-.2.2zm256.2 0q5.2 3.1 10.9 4.4 4.2.9 8.5 1.4 8.2.8 16-1.3 1.4-.4 2.5-1.3.2-.1.2-.2.1-.2.2-.3 0-.2 0-.3 0-.2 0-.3-2.1-6.2-7.7-10.1-5-3.5-11.4-4.7c-10-1.8-19.1-.5-29.2 2.6q-.1.1-.2.1-.1.1-.1.2 0 .2 0 .3 0 .1.1.2 4.1 5.6 10.2 9.3z" fill-rule="evenodd"/><path d="m618.1 521.9q-.3 3.3-.8 6.4-.5 3-.8 6.4-.9 9.2-2.2 18.3-1 7.5-3.2 14.8c-.3 1.1-1 1.2-1.8 1.9q-1.9 1.7-3.7 3.1-.2.1-.5.2-.2 0-.5-.1-.3-.1-.4-.3-.2-.2-.3-.5-2.4-12.8-7.1-25.5c-.3-.7-.8-1.3-1-2q-1.1-3.2-2.6-6.2-.7-1.3-1 .1c-1.4 8.1-3.7 15.3-8 22.1q-4 6.2-8.7 11.8-10.6 12.7-22.4 22.3-13.2 10.9-28.6 17.5-7.4 3.3-14.7 5.7-18.6 6.2-37.3 12.5-.7.3-1.5.1-.4 0-.6-.2-.3-.2-.4-.5-.1-.4-.1-.7.1-.3.3-.6 1-1 2.2-1.8c10.6-6.7 25.5-13.6 38.2-20.7q26.7-14.9 49-34.9 14.3-12.8 24.4-27.1 3-4.3 5.1-8.7.1-.1.1-.2 0-.1-.1-.2 0-.1-.1-.1-.1-.1-.2-.1-11.2-2.3-17.8-11.5c-1.9-2.6-2.9-5.9-1.3-9q2.6-4.7 5-9.3c.5-1.1 1.6-1.4 2.6-1.2 13.1 2.1 21.7 15.9 25.8 27.1q.5 1.5 1.3 2.9.7 1.3.9 2.7.3 1.3.8 2.6c.9 2.1 1 4.4 1.7 6.5q.5 1.4 1 .1c.9-2.6 1.1-5.8 1.5-8.5q.6-3.5 1.1-7 1.7-12.4 5-23.6c2.1-7 7.6-16.4 16.2-9.2q4.6 3.9 7.9 9.3 0 .1.1.3 0 .1 0 .2 0 .1 0 .2-.1.2-.1.3-2.1 4.3-3.5 9.1c-.1.3-.5.8-.6 1.1q-.1.4-.4.6-.3.2-.7.3-.3.1-.7 0-.3-.2-.6-.4-2.9-3.1-6.1-5-1.6-.9-3.4-.9-1.2-.1-2.3.9-1.3 1.2-1.9 2.2-.8 1.5-1.9 6.1 0 .2-.2.3 0 0-.1 0 0 0 0 0z"/><path d="m140.4 650.8q13.2-.1 24.5.4 31.3 1.4 62.5 2.7 56.9 2.2 114.5 2.6.3 0 .6.1.3.2.4.4.2.3.2.5.1.3 0 .6l-12.2 33.4q-.1.4-.5.5-1.3.6-2.9.9-1.2.2-2.5.6-25.6 6.7-49.8 13.4c-22.4 6.2-44.5 14.1-64.5 24.6-21.8 11.6-41.8 27-59.9 44.3q-13.5 12.8-22.8 28.5-8.6 14.3-15.2 31.4c-.8 2-1.3 4.1-2.2 6.1q-.7 1.5-1 3.1c-.2 1.1-.6 2.9-1.3 3.8q-.2.3-.2.8.1.4 0 .8-3.7 12.8-5.8 28.6-4.2 32.3 12 59.5 12.5 21 32.1 33.7c17.8 11.6 41.1 17.1 62.8 19.5q31.5 3.5 65.4 1.6 49.7-2.7 98.2-6.5 8.7-.7 18.8-2.1c1.3-.2 3.9-.6 4.8.8q.1.2.2.4.1.3 0 .6 0 .2-.1.5-.1.2-.3.4-1.5 1.5-3.6 2.6-7.7 3.9-15.5 7.1-39 15.6-82 29.5c-5.6 1.8-10.9 3.2-16.7 3.8-38.5 4-78.8 4.1-115.3-9.1q-39-14-58.4-50.3-7.8-14.4-11.7-30-7.3-28.5-5-56.6 1.6-19.7 8.2-44 0-.1.8-2 .3-.8.3-1.6c.1-1.3.7-2.6 1-3.9q.3-1.2.8-2.3.9-2.4 1.7-4.8 1.3-4 2.7-8 .9-2.3 2-4.8 1-2.3 2.1-4.6 2.7-6.5 6.2-13.2 11.3-21.7 26.4-38.4 15.7-17.5 32.7-31.5c16.3-13.6 34.3-24.7 53.5-33.6q.7-.3 0-.4-33.1-1-66.9-2.7-26.1-1.3-49.6.2-4.4.3-8.8.5-4.3.3-8.5.7-4.2.4-8.4.6-.3 0-.5-.1-.3-.1-.5-.4-.1-.2-.2-.5 0-.3.1-.5 6-17 12.3-34.6c.7-2 2.4-3.3 4.1-4.6q42.3-35.2 87.8-64.3c19.9-12.7 42.3-25 63.9-32.9q10.8-4 21-4.9c7.1-.6 14.4 1.1 19 7.1q5.3 6.9 9.8 14.2 4.3 7.1 7.5 10.1c8.8 8.2 22.3 11 34.5 11.3q21.2.5 41.4-6.8 3.3-1.2 7-4 .3-.3.3-.7-.9-4.6-1.8-9.4-.5-2.3-1.2-4.7-.6-2.3-1.4-4.6-4.5-13.6-11.4-25.5-.1-.1-.1-.3-.1-.1-.1-.2 0-.2 0-.3 0-.2 0-.3l5.9-33.7q.7-3.7 3-.7c1.6 2.1 3.4 4.4 4.6 6.9q.2.6.7 1.1.4.4.7 1 5.9 10.1 9.9 22.6 4.1 12.8 5 25.1 1.1 14.1-1.1 25-1.5 7.3-4.1 14.5c-3 8.4-7.7 17-15 22q-4.7 3.2-11.1 5.1-19.9 5.9-38.7 5.2-14-.5-24.8-5.4c-7.2-3.2-12.3-8-16.4-14.8q-4.6-7.5-9.7-14.5-1.5-2-3.1-3.9c-9.3-10.7-30.5-2.7-41.1 1.7q-21.1 8.8-39.1 19.3c-21.2 12.4-41.3 26.2-61 40.5q-.3.2.1.2z"/><path d="m973 519.3q1 1.9 1.2 4.1 0 .4.2.8.4.7.8 1.6 5.6 15.5 10.8 31.6 4.2 13 6.7 23 .9 4.1.9 6.1-.1 1.5-1.4 1.9-.2 0-.3 0-.2 0-.4 0-.2-.1-.3-.2-.2 0-.3-.2c-4.4-4.6-8.2-9.6-12.2-14.4q-.6-.8-.5.2 8.3 109.9 16.9 219.7c1.2 15.1 1.7 30.7-1.4 45.5q-2.2 10.6-4.4 18-1.6 5.5-3.6 11-.4.9-.9 1.6-.3.3-.6.4-.3.1-.6.1-.3 0-.6-.2-.3-.2-.5-.5-.5-.9-.6-2-.7-6.9-.9-13.2-.5-15.2-1.7-28.6-4.4-53.7-8.8-107.3-.7-7.9-1.3-15.7-5.7-69.8-11.2-139.7-.2-2.4-.3-4.5-.1-2.4-.7-4.4-1.5-4.9-3.2-10.4-.6-2-1.6-3.8-.1-.2-.2-.4 0-.2-.1-.4 0-.2.1-.4 0-.2.1-.4 6.5-15.5 13.3-32.3.4-.7 1.1-.9.2-.1.4-.1.2.1.4.1.2.1.3.3.2.1.2.3c1.2 3.3 2.2 6.7 3.7 9.8.6 1.3.8 2.7 1.5 3.9z"/><path d="m730.1 584.3q-.5-.8-.8-1.7c-2.9-7.2-2.9-15.4-1.1-22.9q.9-3.8 1.8-7.6.6-2.4 1.5-4.8.9-2.3 1.8-4.8 3.3-9.3 7.4-19.7 2.2-5.6 3.3-11.7 0-.1.1-.3.1-.1.2-.3.1-.1.2-.2.2-.1.3-.1.9-.4 1.4.4c1.4 2.2-.3 10.5-1 12.8q-3.2 11.1-6.6 23.6-2.4 8.7-1.8 17.1.1 2.6 1.1 4.6.1.3 0 .6 0 .3.1.5 2.1 3.4 4.8 4.5 2.2.8 4.5-.1 3.4-1.4 5.1-4.4 3.1-5.3 3.9-11.7.1-.7.5-1 .4-.3.9-.2.5.2.6.7c1.9 11.2 1.2 22.7-5.8 31.2q-3 3.6-7 4.9-2.6.8-5.6.2c-3.8-.8-7.2-4.8-9-8.2q-.3-.8-.8-1.4z"/><path d="m113.2 589.6c4.1-3.1 6-10.1 6.7-15.1q.2-1.2 1.4-1.1.1 0 .2.1.1 0 .2.1 0 .1.1.2 0 .1 0 .2 1.2 6.3 1 12.1c-.3 8.7-3.8 19.2-11.8 23.3-4.5 2.4-9.2 1.7-12.7-2-11.9-12.3-7.7-30.7-2.5-45.2q4.1-11.5 8.5-23 2.2-5.6 3.2-11.2.2-.6.6-1 .9-1 1.6.1c1.7 2.8-.5 11.8-1.4 14.8q-3.4 11.3-6.2 22c-1.6 6.3-2.5 12.9-1.4 19.1.6 3.1 2.8 7.1 6 7.9q3.6.9 6.5-1.3z"/><path d="m651 622.1c.8.8 1.5 1.7 2.6 2q6.2 1.9 9.7-3.8 3.3-5.3 4.1-11.7.1-.9.7-1.5.1-.2.3-.2.2-.1.5 0 .2 0 .3.2.2.1.2.3 1.9 9.3.4 18.1c-1.3 7.1-5.5 15.4-12.7 18.1q-6.9 2.6-12.3-3.9c-7.1-8.6-7.8-19.8-5.4-30.3 2.9-12.7 8-25 12.7-37.3q2-5.1 3.2-11 0-.2.1-.4.1-.2.3-.3.2-.2.4-.2.2-.1.4-.1 1.1.1 1.2 1.2.5 5.3-.9 10.4-2.7 10.1-6 21.6-3.7 12.6-2.8 21.6.1 1.5.6 2.7c.5 1.5 1.2 3.3 2.4 4.5z"/><path d="m930 587q-.9.5-1.7.8-4.3 1.6-8.6 3.1-.7.3-1.5.5-17.9 6.7-32.5 12-16.5 6-35.6 12.8-.3.1-.7 0-.3 0-.6-.2-.2-.3-.4-.6-.1-.3 0-.7l1.9-11.1q0-.2.1-.4.1-.2.2-.3.1-.2.3-.3.1-.1.3-.2l83.6-30.5q.3-.2.6-.1.4.1.6.3.3.2.4.5.1.3 0 .6-1.1 5.2-1.8 10.3-.1.9-.5 1.6-.2.4-.6.6-.8.2-1.6.5-1 .3-1.9.8z"/><path d="m796.3 687.5c3.3-4.1 4.7-9.2 5.6-14.4q.2-1 1.2-.7.4.1.5.5c2.2 11.8 1.3 24.4-7.1 32.8-3 2.9-8.1 5.2-12.1 3.5-1.2-.5-2.3-.9-3.2-1.8-8.8-8.4-10.3-20.2-7.7-31.8 3-13.2 8.4-26.2 13.2-39q1.7-4.5 2.7-9.8.1-.6.6-1 .7-.6 1.5.1.1.1.2.2.1.1.1.2.1.1.1.2.1.1.1.3.3 6.3-1.4 12.2-3.3 11.2-6.6 23.5c-1.6 6-2.7 12.9-1.5 19.2q.6 3.4 2.7 5.9.8.9 2 1.4c2 .7 4 1.2 6.1.5q1.7-.5 3-2z"/><path d="m630.6 693.8q-1 .7-2 .4-.2 0-.4-.1-.2-.2-.3-.4-.2-.2-.2-.4 0-.2 0-.4l2.1-11.3q0-.2.1-.4.1-.2.2-.4.2-.1.3-.2.2-.2.4-.2 49-17.8 83.3-30.4.5-.2 1.1-.1.1.1.3.2.1.1.2.3.1.2.2.3 0 .2 0 .4l-2 11.5q-.1.2-.2.4-.1.2-.2.3-.2.2-.3.3-.2.2-.4.2-35.9 13.3-72 26.4c-1.7.6-3.2 1.5-5 1.8-1.6.3-2.9 1.2-4.5 1.5q-.4 0-.7.3z"/><path d="m395.1 693.9q-9.1-4.5-17.8-9-.3-.1-.5-.4-.1-.2-.2-.4-.1-.3-.1-.6 0-.3.1-.6l15-32.2q.1-.2.3-.4.2-.1.5-.2.2-.1.5-.1.2 0 .5.1 15.4 7.4 30.7 15.9c1.3.7 1.7 1.4 1.1 2.8q-7.6 16.2-14.7 31.3-.8 1.7-2.4.9c-4.3-2.3-8.7-5-13-7.1z"/><path d="m597.7 735.5q1.6 11.8.2 23.3c-.9 7.5-3.4 15.5-5 23.1q-.3 1.6-1.3 2.2-.3.2-.7.3-.3 0-.7-.1-.4-.2-.6-.5-.2-.3-.3-.7c-1-7.3-.5-14.8-.3-22.5q.2-6.5-.6-13.7-1.6-14.7-9.2-28.3c-7.3-13-18-24.2-29.5-34.1q-.1-.1-.2-.2-.1-.1-.1-.2-.1-.2-.1-.3 0-.1 0-.3 2.3-12.7 4.6-25.7 0-.4.3-.7.1-.2.3-.3.2-.1.5-.1.2 0 .4 0 .2.1.4.3 33.2 28.5 41 71.5c.5 2.3.6 4.7.9 7z"/><path d="m895.5 744.9q-2.6-2.6-3.9-5.5 0-.2-.2-.2-.2-.1-.2-.2-4.1-9-2.8-19.4.8-7.7 3.4-14.8.4-.8.5-1.7.2-.8.4-1.5 4.3-11.9 8.7-23.2 2.4-6.2 3.6-12.5.1-.2.2-.4 0-.2.1-.3.2-.2.3-.3.1-.1.3-.2c.6-.4 1.2-.1 1.5.5 1 3 0 8.7-.8 11.5q-2.5 9.2-5.3 18.8-2.6 8.8-3.4 14.8-.6 5.2.3 10.3.7 4.7 4.2 7.5.7.6 1.5.6c2.6.2 4.4.7 6.6-1.1q1.3-1.1 2.6-2.7 1.1-1.4 1.8-3.2 1.9-4.8 2.6-9.4.1-1.1 1.3-.9.1 0 .2 0 .1.1.2.2 0 .1.1.2 0 .1.1.2 1.5 8.5.5 16.3c-1 8-6.1 18.9-15.2 20.3q-5 .8-9.2-3.7z"/><path d="m322.5 734.9 15-27q1-1.9 2.9-.8 14.5 8 30.3 17.8.2.1.3.3.2.2.3.5 0 .2 0 .5 0 .2-.1.5l-15.2 31.8q-.9 1.9-2.7.8-15.6-9.7-29.5-17.5-1.3-.8-2.7-1.5-.1 0-.2 0-.1 0-.2 0-.1 0-.2.1-.1.1-.1.2l-14.8 26.5q-1 1.7-2.7.7-14.7-9-29.4-16.9-.2-.2-.4-.4-.2-.2-.3-.4-.1-.3-.1-.6.1-.3.2-.5l14.9-32q.1-.3.4-.6.2-.2.5-.3.3-.1.7-.1.3.1.6.2 4.8 2.5 9.3 5.2 11.1 6.5 22.8 13.6.1 0 .1 0 .1 0 .1 0 .1 0 .1-.1.1 0 .1 0z"/><path d="m379.5 796q.6-1.8 1.2-3.5 4-11.1 8.3-22.3 2.2-5.7 3.4-11.7 0-.3.1-.5.2-.2.4-.3.2-.2.4-.2.3-.1.5 0 1 .2 1.1 1.2.4 6.1-1.4 12.4-2.8 9.9-5.6 19.5-1.6 5.8-2.6 12-.8 5.5.1 11.5.3 1.8 1.2 3 .7 1 1.3 2 .6.9 1.5 1.6c4.2 3 9.1.5 11.4-3.6q3.2-5.5 3.8-11.6.1-1.2 1.2-1.2.1 0 .3.1.1 0 .2.1.1.1.2.2.1.1.1.3 1.6 7.8.6 15.8c-.9 7.1-4.5 15.8-11.2 19.3q-7.8 4.1-13.9-2.9c-6-6.9-7.6-16.3-6.4-25.3q.9-7.1 3.8-15.9z"/><path d="m135.2 852.4q-.8 1.4-2 1.2-.3 0-.4-.2-.2-.1-.3-.3-.1-.2-.2-.4 0-.3.1-.5 3.7-10.5 7.2-19.7 1-2.7 4.3-4.2 3.3-1.5 6.3-2.7 63-24.2 126.4-48.2.6-.3 1.1.1.2.1.3.3.1.1.2.3 0 .2 0 .4 0 .1-.1.3l-7.1 19.6q-.1.3-.2.5-.1.2-.3.4-.2.1-.4.3-.2.1-.4.2-43.8 16.6-87.2 33.2-15.5 5.9-31.6 12.2-1.5.7-3.1 1.1-.7.2-1.4.6-.5.4-1.1.4-.4 0-.7.2-1.6.9-3.6 1.6-2.5.9-5.2 2.6-.1 0-.2.1-.1.1-.2.2 0 .1-.1.2-.1.1-.1.2z"/><path d="m250.9 920.2c-.5.1-.9.5-1.3.7q-10.1 4.7-21.8 2.6-5.3-1-9-5-1.4-1.5-2.4-4-.9-2.3-1.1-4.5c-1.4-16.3 11.6-30.7 22.6-41.2q.1-.1.1-.2.1-.1 0-.3 0-.1 0-.2-.1-.1-.1-.2-.3-.2-.6-.2-4.1-.3-7.8-.6c-2.6-.3-4.9 0-7.4.2q-1.4 0-2.8.8-3.5 2-5.9 5.3-.8 1-1.8.2-.1 0-.2-.2-.1-.1-.2-.2-.1-.1-.1-.3 0-.1 0-.3.5-3.9 1.5-8.1c2-7.9 9-10.6 16.4-10.5q7.5 0 17.8 2.3c1.3.3 2.6.2 4 .3q.3.1.5.2.2.1.3.3.1.2.2.4 0 .2-.1.5-1.4 4.6-3 9.8-.4 1-1.8 2.7c-5.9 6.9-12.5 13.3-18.4 20.3-3.6 4.2-9 12.5-2.1 16.4q1.9 1 3.8 1.4 5.4.9 10.5.3 14.2-1.9 26-10.1 6.6-4.6 12.4-9.1.2-.1.4-.2.2-.1.4-.1.2 0 .4 0 .2 0 .4.1.8.4.4 1.3-.7 1.3-1.4 2.3-5.9 7.3-13.5 15.5-5.2 5.7-11.2 9.5-2 1.3-4.1 2.1z"/><path d="m310.2 933.6q-.1.1-.2.2-2.7 1.6-5 3.4-.2.2-.6.3-.7 0-1-1-.1-.1-.1-.2 0 0 0-.1 0-.1 0-.2 0-.1.1-.2.5-1.5 1.2-3.1.7-1.5 1.2-3.1 1-3.4 2.3-6.6.9-2.1 1.4-4 .6-2.4 1.5-3.8c1.6-2.5 6.8-4.4 9.4-5.4q61.2-23.5 127.2-48.6.4-.1.8.1.2.1.4.2.1.2.2.4.1.2.1.4 0 .2-.1.4l-7.1 19.6q-.1.2-.2.4-.1.2-.3.4-.1.2-.3.3-.2.1-.4.2l-113.9 43.4q-.5.2-.9.1-.6 0-1 .5-.2.4-.6.5l-14 5.3q-.1 0-.1.2z"/><path d="m557.3 912.2q.1.1-.1.1-.1.1-.2 0c-1.6-3.2-6.3-3.5-9.1-2.3q-4.7 2.1-7.9 5.9-2.8 3.6-5.6 8.4-.5.9-1.5.7-.2 0-.4-.1-.1-.2-.2-.3-.2-.2-.2-.4 0-.2 0-.4 1.9-10.3 5.3-18.5c3.2-7.7 9.8-16 17.6-18.8q5.6-2 9.8 2c6.4 6.1 6.9 17.8 5.6 25.9q-1.5 9.1-5.3 17.4c-6.8 15-16.7 26.1-29 37.7q-.8.8-1.8 1.1-.3.1-.5 0-.3-.1-.5-.3-.2-.3-.2-.6-.1-.3.1-.5 1.7-3.5 4-6.4 5.5-7.1 10.4-13.9 6.8-9.6 10.1-20.6.5-1.7.6-3.4.2-1.7.4-3.4c.2-1.5-.2-2.8.1-4.3q.1-.9-.2-1.8-.6-1.6-1.2-3.3-.2-.6-.1.1z"/><path d="m852 935.1q-1.2-.8-2.6-1.1c-8.8-1.9-15.4 8.1-19.2 14.6q-.3.6-1 .8-1.3.2-1.3-1 0-.9.2-1.9 1.7-7.8 4.3-14.8c3.1-8.5 10.7-19.4 20.2-21.3 9.1-1.8 13.3 9.6 13.9 17 1.2 15.6-5.4 31.6-14.5 44.4q-8.8 12.1-21.1 22.9-.6.5-1.4.2-.2 0-.3-.2-.2-.1-.3-.3 0-.2 0-.4 0-.3 0-.4.7-1.6 1.7-2.9c9.3-13.5 21-25.5 23.7-42.2q.9-5.7-.9-11.4-.4-1.3-1.4-2z"/></svg>