<svg height="1080" viewBox="0 0 1080 1080" width="1080" xmlns="http://www.w3.org/2000/svg"><clipPath><path d="m67 47h946.22v985.65h-946.22z"/></clipPath><path d="m781.4 52.8q.9-2.4 2.2-5.1.2-.3.5-.5.4-.2.8-.2.3 0 .7.3.3.2.4.5 3.1 8.5 6 15.7.5 1.1.7 2.2.5 1.6 1 3.1 10.5 29 18 54.9c1 3.3 1.6 6.7 2.1 10.1q.3 1.8-.9 3-.3.3-.7.2-1.3-.1-2.2-1.2-5.8-6.7-11.3-13.6-.5-.6-.4.1 8.3 91.1 16.5 182.1 3.7 40.9 2.8 80.6-.5 20.4-5.5 39.9-7.2 28.6-24.2 52.6-9.6 13.4-22.8 25.9-6.2 5.8-13.6 9.9-15.5 8.4-32.6 14.4-5 1.7-10 3.5-4.9 1.7-9.9 3.3-19.2 5.9-43.9 13-2 .6-4.1.6-.3.1-.6-.1-.3-.1-.4-.4-.2-.3-.3-.6 0-.3.1-.6.5-1.1 1.5-1.8 4.2-2.9 8.4-5.3 21.2-12.2 40.3-23.6 23.2-14 43.7-31.6c14.1-12.2 27.4-25 39.4-39.2q8.8-10.4 14.6-20.8 1.8-3.1 2.7-6.1 1.1-3.8 1.1-10.1 0-10.7-1.2-23.3c-1.6-16.3-3.4-33.3-4.8-50.1q-6.3-75.3-12.7-149.5-3.3-38-7.2-76.5-.6-6.2-1.8-10.5-2.2-7.5-5-14.2-.1-.3.1-.6l11.7-28.3q.4-1 .8-2.1z"/><path d="m716.2 84.1-90.4 33q-.3.2-.7.1-.3-.1-.6-.3-.2-.2-.3-.5-.2-.4-.1-.7l2.3-12.6q0-.2.1-.4.1-.1.2-.2.1-.2.2-.3.2-.1.3-.1l90.3-32.9q.3-.2.6-.1.4.1.6.3.3.2.4.5.1.4.1.7l-2.2 12.5q0 .2-.1.3-.1.2-.2.3-.1.1-.3.2-.1.1-.2.2z"/><path d="m879.1 95.5q.1.1.2.3 7.8 21.5 14.3 41.8 2.7 8.3 5 17.3 1.1 4.2 1.7 8.4.2 1.6-.9 2.8-.2.3-.6.2-1.3 0-2.1-.9-6.8-7.9-12.6-15.2-.6-.8-.5.2 8.6 112 18.2 236c1 12.2 1.5 24.5.6 36.8-.6 7.8-2.5 15.7-4.3 23.4q-2.4 10.6-6.1 20.6-.5 1.3-1.2 2.3-.2.3-.5.4-.3.2-.7.2-.4 0-.7-.2-.3-.1-.5-.4c-.3-.6-.8-1.3-.8-2-.9-14.6-1.4-28.9-2.5-43.3q-8.8-106.6-17.2-208.9-3.2-40.2-6.3-80.5-.4-4.1-1.3-7.2c-1.5-4.9-2.8-9.5-4.9-14.2q-.1-.1-.1-.2 0-.1 0-.2 0-.1 0-.2 0-.1.1-.2l14.1-34.2q1.9-4.4 3.5.1 2.5 7 5.7 14.8c.3.7.3 1.1.2 1.8q0 .2.2.4z"/><path d="m600.6 135.2q0 0-.1.1-.1.1-.1.2 0 0 0 .1 0 .1.1.2 21.8 28.9 44.5 56.2c33.1 39.8 63.6 76.2 94 116.8q16.2 21.5 28.1 45.9 9.7 19.6 14.3 42.4.2 1.5.3 2.9 0 1.4.3 2.7.9 5.7.9 8.4 0 8.2.2 16.9.2 4.1-.1 8.8 0 1.3-1.1 1.5-.2.1-.5 0-.2 0-.4-.1-.3-.2-.4-.4-.2-.2-.2-.4-3.2-13.1-9.1-27.1-11.5-27.1-28.8-52-9.1-13-19.2-25.8c-27.7-35.3-56.4-68.6-85.3-102.8q-17.7-21-34.5-43c-13.5-17.7-26.6-37.3-35-57.4q-1.1-2.8-2.8-4.8-3.1-3.5-6.2-6.1-.3-.2-.3-.6v-38.7q0-.4.2-.7.2-.3.5-.4.4-.1.7-.1.3.1.6.3 22 21.1 43.4 41.9 6.5 6.3 12.2 12.9 1.9 2.2 3 4.5.1.2.1.4.1.2.1.5 0 .2-.1.4-.1.2-.2.4-.8 1.2-2.2.9-8.7-1.5-16.6-4.9-.1 0-.3 0z"/><path d="m290.4 116.3q-1.4-1.1-3.1-1.6c-1.8-.5-3.7-.5-5 1.1q-1.8 2.2-2.5 4.8-2.1 7.3-3.1 16.8-.9 8.6-2.3 19.6-1 7.6-3.5 16c-.3 1.1-.4 1.7-1.4 2.5q-2.3 1.8-4.6 3.7-.2.2-.5.2-.3.1-.6 0-.3-.1-.6-.3-.2-.2-.3-.4-.1-.3-.2-.6-3-16.3-9.3-31.6-3.6-8.8-8.8-15.8-.1-.1-.2-.1-.1 0-.2 0-.1 0-.1 0-.1 0-.2.1l-2.2 3.1q0 .1-.1.1-.1.1-.2.2-.1 0-.2 0-.1 0-.2 0-4.6-.7-8.4-2.5c-4.2-2.1-8.8-6.3-8.1-11.3q.2-2 1.4-4.2 2.9-5.1 5.3-9.6c.7-1.4 2-2.2 3.7-1.8 11.5 2.5 19 11.7 24.2 22.2q4.8 9.7 7.2 19.3.6 2.4 1.3 4.9.6 2.1.8 0 2.1-15.5 5.3-31.6 1.6-8.1 4.3-15.1c2.3-5.8 7-11.6 13.9-7.8 4.4 2.4 7.9 7.1 10.6 11.3q.1.1.2.3 0 .1 0 .3.1.2 0 .4 0 .1-.1.3l-4.5 11.1q-.2.3-.4.5-.3.3-.6.3-.4.1-.7 0-.4-.1-.6-.3-2.5-2.3-5.4-4.5z"/><path d="m467.4 185.4q2.2.2 3.8-.4c6.2-2.3 8.7-11.6 9.5-17.7q.1-.1.1-.3.1-.2.2-.3.1-.1.3-.2.1-.1.3-.1 1-.3 1.2.7 1.4 7.9.8 15.5c-.7 8.9-5.4 20.2-14.4 23.4-11.4 4-18.6-10.9-19.7-19.4q-1.1-8.1.7-16.7 1.2-5.9 3.2-11.8 4-12.2 10.4-28.3 2.3-6 3.5-12.5.2-.9 1-1.3.2-.1.5-.2.2 0 .4.1.2.1.3.2.2.2.3.4c1.3 3.2 0 9.5-1 13.1q-3.2 11.7-6.5 23.4-2 7.2-2.7 13.7c-.6 6-.3 13.1 4.5 17.4q1.3 1.1 3.3 1.3z"/><path d="m681.9 170.4q-.1 0-.1 0-.1 0-.1 0-2.8-2.9-4.7-6.3-2.1-4-1.6-8.4.3-2.5 3.2-7.5 2.2-3.8 4.3-7.2 1.9-3.2 4.9-7.7c5.1-7.3 15-18.1 25.2-15.3q3.9 1.1 6.9 5.1 4 5.4 1.9 12.9-1.5 5.1-4 10.5c-.5 1.2-1.7 1.6-2.7.5q-.4-.5-.6-1.1-.2-.6-.6-1.2-2.5-4.1-4.8-5.9-.7-.5-2.8-1.5c-5-2.2-11.2 0-15.4 3.3q-2.2 1.8-4.5 3.6-.2.2-.1.5 2.2 8 8.9 12.1c1.5.9 3.1 1.3 4.8 1.8q1.8.6 3.5.7c1.6.1 3.1.7 4.7.7q6.7-.1 13.3-3.4c7.7-4 15-8.3 22.2-12.9q.4-.3.8-.3.4 0 .7.2.4.3.5.6.2.4.2.8l-1.2 13.4q0 .3-.1.5-.1.2-.2.4-.1.3-.3.4-.2.2-.4.3-19.1 11.8-37.6 23.4-11.6 7.2-23.2 15.7-.2.1-.4.1-.2.1-.3.1-.2-.1-.4-.2-.1 0-.2-.2-.6-.8-.4-1.7 1.1-4.5 2.1-9.6c.8-4.4 2.8-7.3 5.8-10.3q.2-.1.2-.2.1-.2 0-.3 0-.2-.1-.3 0-.1-.2-.2-3-1.8-5.6-4.4-.2-.3-.6-.5-.6-.2-.8-.9 0-.1-.1-.1z"/><path d="m831.2 282.3c-4-7.1-4.1-16.7-3.2-25 1.7-14.2 6.2-28.7 9.5-42.1 4.7-19.3-3.6-37.8-17.6-50.8q-.2-.1-.3-.2-.1-.2-.1-.4-.1-.2 0-.3 0-.2 0-.4l5.8-14.7q.1-.3.3-.5.2-.2.5-.2.2-.1.5 0 .3.1.5.3 4.2 4.9 7.7 9.7 10.5 14.8 11.3 33 .8 15.8-3.6 30.6-4.4 14.8-6.5 23.8-1.4 5.6-1.3 11.6.1 5.1 2.1 9.2 1.8 3.9 6.2 5c4.8 1.1 7.8-5.7 7.9-9.3.1-1.6.3-3.2.5-4.9q.1-1.3 1.1-1.6.3 0 .6 0 .4.1.6.2.3.2.5.5.1.2.2.5c1.7 8.5 1.2 21.1-4.2 28.4-5.3 7.3-15.1 4.5-19-2.4z"/><path d="m300.2 195.5q3-8.1 7.2-19 2.2-5.8 3.4-12.1 0-.4.3-.6.2-.3.5-.4.4-.1.7 0 .4.1.6.4c2 2.3-.4 12.7-1.3 15.8q-3.6 12-6.6 23.1c-1.9 7.1-3.2 15.3-1.5 22.5q.9 3.6 3.9 6.3 1.7 1.6 4.8 1.5 2.9-.2 5-2c4.2-3.6 6.1-10.8 6.9-16.2q0-.2.1-.3 0-.1.1-.3.1-.1.3-.1.1-.1.2-.2.6-.2 1 .2.3.3.3.6c2 10.3 1.4 21.1-3.7 30-5.2 9.1-15.6 13.8-23.3 4-12.2-15.3-5.2-36.2.8-52.5q.1-.2.1-.3 0-.1.1-.2.1-.1.1-.2z"/><path d="m733.7 235.2q2.4-7.9 5.1-15.1 3.5-9.1 7.2-19.1 2.1-5.5 3.1-11.2.1-.3.2-.6.2-.2.5-.3.2-.2.5-.2.3 0 .6.1.8.4.9 1.5.4 6.4-1.3 12.4-3.1 10.9-6.6 23c-2.2 7.9-4 17.3-1.9 25.1q.5 2 1.8 3.9 3 4.5 8.3 3.3c6.8-1.5 9.4-11.7 10.3-17.9q0-.2.1-.3.1-.2.2-.3.2-.2.3-.2.2-.1.4-.1.9-.1 1.1.8c2 11.6 1.4 23.1-5.6 32.8q-1.6 2.2-3.8 3.8-9.7 6.7-17.3-2.1c-5.8-6.6-7.8-16-7-24.7q.7-7 2.9-14.6z"/><path d="m453.8 250.6q-7.6 3-14.1 5-.3.1-.6.1-.4-.1-.6-.3-.3-.3-.4-.6-.1-.3-.1-.7l2.2-12.3q.1-.2.1-.4.1-.2.3-.4.1-.2.3-.3.2-.1.4-.2 58.2-20.5 116.2-40.9 13.6-4.8 27-9.8.8-.3 1.5-.1.2.1.3.2.2.2.3.4.1.2.1.4.1.2 0 .4l-2.2 12.4q0 .2-.1.4-.1.1-.2.3-.1.1-.3.3-.1.1-.3.1-4.4 1.7-8.7 3.2c-1.1.4-2.1 1-3.2 1.3q-.6.2-1.2.4-58.2 20.5-111.9 39.5-1.3.5-2.4.8-1.4.3-2.4.8z"/><path d="m405.1 273.4q-.1-.1-.2-.1-.2 0-.3 0-.2 0-.3.1-.1 0-.2.2-13.8 17.9-30.9 33.8c-8.2 7.6-17.2 13.5-27 19.1q-18.4 10.5-40.4 21.8-8.5 4.3-16.1 7.1-.3.2-.6.1-.3 0-.6-.2-.2-.1-.4-.4-.2-.3-.2-.6-.1-.9.7-1.7 2.1-1.7 4.6-3.4 18.3-11.9 36.4-24.2 30.2-20.5 57.9-46.7 4.9-4.6 9.1-9.8.1-.1.1-.2.1-.1.1-.2-.1-.1-.1-.2-.1-.1-.2-.2-3.7-2.4-7.1-4.9-3.2-2.3-6-5.1-2.6-2.7-4.2-6.8-1.2-3-1.1-6.3.4-10.7 8.4-18.3 7-6.7 15.1-9.7c7.9-2.8 15.5-.8 17.9 7.7q2.1 7.2.4 15.8-1.5 7.5-4.8 14.6 0 .1 0 .2 0 0 0 .1 0 .1.1.1 0 .1.1.2l8.3 6.1q1.1.7.5 1.9l-8.5 15.3q-.1.3-.4.5-.3.2-.6.3-.3.1-.7 0-.3-.1-.6-.3l-3.7-2.6q-.2-.2-.3-.3-.3-.4-.7-.4-.3-.1-.6-.3zm-10.6-31.8q.2.2.4.4 5.1 4.3 11.5 7.8 0 .1.1.1 0 0 .1-.1 0 0 0 0 .1-.1.1-.1.6-3.5.4-7.2-.1-1.4-.5-2.7c-.9-2.2-2.1-4.8-4.8-5.2q-5.2-.7-9.4 2.9-.5.5-.2 1.1.8 1.5 2 2.6.2.1.3.4z" fill-rule="evenodd"/><path d="m593.2 286.8c.3.2.6.3.9.5q11 8.5 21.6 14.6c16.1 9.3 33.3 16.8 50.5 24.5 10.2 4.5 19.1 9.5 28.5 15.6 13.4 8.6 22.4 19.1 24.4 35.4q1.2 9.7-.4 18.7c-.8 4.8-2.4 9.6-3.5 14.6q-2 9.3-5.8 16.4c-4.5 8.8-11.6 14.8-19.7 20.2-47.2 31.4-96.6 60.5-145.1 86.2-15 7.9-35.1 11-51.1 4.1-11.6-5-19.8-17.5-23.9-29.3-4.3-12.8-5.5-26.4-5-40.2.1-2.7.6-5.3.9-7.9q0-.5-.5-.3-26.2 8.7-53.7 15.1-45.6 10.6-88.7 13.4-21.9 1.5-45.7 0c-4.8-.3-9.8-1-14.7-1.5-10.1-1.2-20.9-3.4-30.1-6.4-22.2-7.2-40.9-22.3-49.1-44.4q-6.4-17.2-6.4-36.7-.1-28.1 10.5-55.8 2.6-6.8 6.4-12.9.7-1.3 2-2.3.2-.2.5-.3.4-.1.7-.1.4 0 .7.2.3.1.5.4c1.1 1.3.1 4.6-.2 6.2q-.6 2.3-1.2 4.3-2.5 6.8-4.2 13.8-3.6 14.4-2.9 27.3c.6 11.3 3.7 23 10.2 32.2 9.6 13.5 24.6 23 40.5 28.1q14.7 4.7 34.3 6.8c25.5 2.8 52.8 1.9 78.6-1.1q62.8-7.2 122.4-26.4.2-.1.4-.2.1-.1.3-.2.1-.2.2-.3.1-.2.2-.4 5.9-15.7 15-30.5 2.4-3.9 5.3-6.6c1.8-1.6 4-.7 3.9 1.8q-.3 5.6-2.8 10.8-4.5 9.1-9.4 20.1 0 .1 0 .3 0 .1.1.2.1.1.2.2.1 0 .3 0 .8-.1 1.6-.4.7-.3 1.4-.6 8.4-2.9 18.4-7.1c5.9-2.6 26.4-11.8 26.4-16.7 0-2.2-1.1-4.8-1.9-6.8q-9.9-22.4-25.3-40.9-.1-.1-.2-.3-.1-.1-.1-.3 0-.1 0-.3 0-.1.1-.3l14.5-35q0-.1.1-.2.1-.1.1-.2.1-.1.2-.2.1 0 .3-.1.8-.3 1.4.3c20 21.6 30.9 50.6 25.7 80q-2.4 13.7-7.9 26.1-2.8 6.6-6.2 11.2-2.9 3.9-8.5 7.7-6.2 4.4-13.5 8.1-18.2 9.3-37.3 16.1-.1 0-.2.1-.1 0-.1.1-.1.1-.1.2-.1.1-.1.2-.6 5.7-.2 11 1 12.6 7.9 22.4 4.4 6.3 11.9 9.3c17.9 7.2 37-.5 52.9-8.9q70.9-37.5 141.1-84.9 5.9-4 11.8-9.6 1-1 .3-2.1-7.7-11.4-18.4-17.7-5.7-3.3-12.7-6.5-15.5-7-30.4-13.8-19.6-8.9-36.9-19.9-31.7-20.2-53.5-49.2-.4-.5-.9-.5l-5.6-.4q-.2 0-.5-.1-.2-.1-.4-.3-.2-.2-.3-.5-.1-.2-.1-.5v-40.6q0-.4.1-.6.2-.3.5-.5.2-.2.5-.3.4 0 .7.1 1.5.5 3.2 1.5c5 3 10 6.3 15.1 9.2q18.1 10.4 31 18.8 3.9 2.6 7.3 5.6 1.7 1.4 2.2 3.1c1.1 3.5-3.9 3.4-6.1 3.3q-4.7-.4-9.3-.5-.8 0-.2.5 2.2 1.9 4.3 3.7z"/><path d="m235.5 375.8c-5.9-4.8-9-12.9-9.5-20.2q-.5-7.9 1.4-15.7 2.4-10.3 6.3-20.3 3.7-9.8 7.4-19.6 1.9-5.1 2.9-10.4c.2-.7.3-1.6 1-2 .8-.5 1.7.1 1.8 1 .6 4.4-.1 9.1-1.3 13.3-2.8 10.2-6 20.1-8.2 30.3q-1.8 8.2-.5 16.5.2 1.3 1.5 3.9.6 1.1 1.4 1.7.5.5 1 1.1.7.8 1.7 1.2c5.9 2.1 10.3-2.3 12.4-7.4q2-5.1 2.8-10.3 0-.2.1-.3 0-.1.1-.2.1-.2.2-.2.2-.1.3-.2 1.1-.3 1.3.8 1.2 7 1 13.4c-.3 9.4-4.8 21.4-14 25.2-3.9 1.6-7.9 1-11.1-1.6z"/><path d="m397.3 373.7q.7.7 1.3 1.5.7.8 1.9 1.1 7.1 1.7 10.8-4.6 3.3-5.6 4.4-13.3 0-.1 0-.3.1-.1.2-.2.1-.1.3-.2.1-.1.3-.1 1.1-.2 1.3.8c1.7 10.1 1.5 20.3-3.5 29.5q-3.3 6-8.4 8.6-6.6 3.3-12.1-1c-7.3-5.7-10-15.8-9.9-24.7q0-4 1-8.5 2.1-10.4 6.1-20.9 3.9-10.3 7.8-20.8 2.3-6 3.6-12.4.2-.9 1.1-1.1.2-.1.5 0 .2 0 .4.2.2.1.3.3.2.2.2.4c.8 4-.1 9-1.1 12.9q-2.8 10.2-5.9 20.7c-2.5 8.4-4.5 17.6-3.1 26.2q.3 1.5.9 2.8c.5 1 .8 2.2 1.6 3.1z"/><path d="m596.6 442.6c-4.4 1.4-8.7-.7-11.6-4.1q-6-6.9-7.1-16.2-.9-8 .6-15.2.7-2.9 1.4-5.9.6-2.9 1.5-5.5 4.6-13.3 11.3-30.8 2-5.2 3.2-11.3.1-1 1.1-1.3.2-.1.4-.1.3.1.5.2.2.1.3.3.2.1.2.4c1 3.6 0 9.1-1 12.6q-3.1 11.1-6.7 23.8-1.2 4.3-2 9.1-.6 4-.8 8c-.2 4.6.9 11.6 5.2 14.2 4.9 2.9 10-.2 12.4-4.8q2.8-5.5 3.8-12.4 0-.2.1-.3.1-.2.2-.3.2-.2.3-.2.2-.1.4-.1.9 0 1 .9c1.8 10.8 1.6 20.7-3.8 30.1q-2.1 3.7-5 6-1.3 1.1-2.9 1.8-1.4.7-3 1.1z"/><path d="m842.3 459.9q-4.8 4.9-8.2 11.2-.5.8-1.3 1.2-.3.1-.6.1-.3 0-.5-.2-.3-.2-.4-.5-.1-.3-.1-.6c.9-4.9 2.2-9.8 3.7-14.6 3.3-10.4 12-24.5 23.7-26.3 5.1-.8 9.2 3.1 11.4 7.5 3.8 7.7 3.7 17.6 1.9 26.2-4.7 23.1-19.9 41.5-37.1 57.1q-.6.5-1.4.5-.3 0-.6-.1-.2-.2-.4-.4-.1-.3-.1-.6 0-.3.1-.6c3.6-6.6 8.7-12.5 13.2-18.5 7.9-10.3 17.6-27.9 13.4-40.8q-.4-1.2-1-2.3-.6-1-1.7-1.6c-4-2.2-7.7-1-11.3 1.2q-1.5 1-2.7 2.1z"/><path d="m347.5 501.7 2.8-6.1q.1-.3.4-.5.2-.2.5-.4.3-.1.7 0 .3 0 .6.1 4.8 2.4 10.2 5.1.4.2.8.4 11.2 5.6 22.5 11.9.3.2.5.4.2.3.3.6.1.3.1.6 0 .4-.2.7l-16 34.4q-.2.3-.5.6-.2.2-.6.3-.3.1-.6.1-.4-.1-.7-.2-16-8.9-33-17.1-1.9-.9-.9-2.9 6.3-13.3 12.9-27.7 0-.1.1-.1 0-.1.1-.2z"/><path d="m279.2 498.6q0 0 .1 0c5.6 7 6.4 16.7 5.3 25.4-3.1 24.7-19.7 45.9-38.3 62.1q-.7.7-1.6.1-.2-.1-.3-.3-.1-.2-.2-.5 0-.2 0-.4 0-.3.2-.5c4.2-7.2 9.4-13.2 14.3-20 6-8.1 11.6-18.6 12.9-28.6q.9-7.3-1.5-12.3-.8-1.8-3.2-2.8-2.1-.8-4.1-.4-5.3 1-9 4.8-4.1 4.3-7.2 9.9-.7 1.1-.9 1.3-3 2.4-2.4-1.4c.6-3.9 1.9-8.1 3.1-12.1 2.9-10.6 9.9-22.1 20.1-26.7q7.3-3.3 12.5 2.3.1 0 .2.1z"/><path d="m217.2 546.4-4.1-3.8q-.2-.2-.5-.3-.9-.3-1.5-.9-.4-.5-1-.7-.7-.3-1.4-.7c-1.3-.7-3.9-.4-5 .8q-2.2 2.4-3.1 6.1-1.7 6.3-2.4 12.5-1.5 13.2-2.7 22.9-1.1 8.1-3.6 16.3-.1.4.2.5 1.8.8 3.6 1.7 1.7.9 3.2 2.1 8.9 6.8 15 16.9.3.4.1.9l-3.1 13.9q-.1.1-.1.2-.1.1-.2.2-.1.1-.3.1-.1.1-.2 0c-12-2.1-30.6-3.1-37.4 9.6q-.1.2-.2.4 0 .2-.1.3 0 .2 0 .4 0 .2 0 .4 1.3 8.8 3 17.6 3.7 18.6 7.4 37.1 3.1 15.8 4.5 36.6c.9 13.4-.3 27.2-4.1 39.6q0 .2-.1.3-.1.2-.3.3-.1.1-.3.2-.1.1-.3.1-1.2.1-1.2-1.1.8-30.2-6.1-65.3-4.2-21.8-8.6-39.6-3.4-13.8-2.5-26.3c.6-9.9 5.5-19.1 14.8-23.3q5.4-2.4 11.6-3.1 1.4-.1.3-.9-3.4-2.4-7.1-2.5-1.9 0-3.4 1c-2.8 1.7-5.2 5.3-7.3 7.9q-.4.6-1.1.8-.2.2-.6.1-.3 0-.5-.2-.3-.2-.4-.5-.1-.3-.1-.6 1-6.5 3-13.2c1.5-4.9 4.6-10.3 9.5-12.2q.3-.2.2-.5-.5-3-1.2-5.7-2.7-10.3-6.7-20.2-3.6-8.8-8.9-16.3-.1-.1-.3-.2-.1-.1-.3-.1-.1 0-.2.1-.2.1-.3.2l-1.9 2.8q-.1.1-.2.2-.1.1-.3.1-.1.1-.2.1-.2 0-.3 0-4.7-.7-8.8-2.9c-5.1-2.7-9.7-8.2-6.6-14q2.5-4.8 5.7-10.6c.8-1.6 2.2-2.4 4-2q6.9 1.8 11.1 5.3 6.5 5.3 11.4 14.1 5.3 9.7 8.3 20.9 1 3.7 1.9 7.3.2 1.1.4 0 1.8-12.1 3.7-23.8 1.8-11.2 5.1-21.3c1.6-5.2 5.8-13.6 12.8-11.5 5.2 1.6 9.9 7.9 12.8 12.4q.1.1.1.3 0 .1.1.2 0 .1-.1.2 0 .2 0 .3l-4.7 11.6q-.1.2-.4.4-.2.2-.5.3-.3 0-.5 0-.3-.1-.5-.3z"/><path d="m827.1 697.7q-1.3-.9-2.7-1.6-.4-.2-.6.2-15.4 19.9-33.2 35.8-6.2 5.6-13.2 10-.1.1-.2.2-.1.1-.1.2-.1.1-.1.2 0 .1 0 .3 2.1 29.6 4.8 58.9 2.4 26.7 8.8 52.4 0 .1.1.2 0 .1.1.1.2.1.3.1.1 0 .2-.1c12.2-5.2 25-9.3 37.5-10.2 17.8-1.3 33.5 10.9 40 27.1q7.6 18.8 2 38.2c-4.3 14.6-12 29.9-27.6 34.6-7.7 2.3-15.6 1.7-23.6 0q-12.8-2.7-22.1-10c-11-8.8-18.2-21.3-22.8-34.4q0-.1-.1-.2-.1 0-.2-.1-.1 0-.2 0-.1 0-.2.1c-3.6 2-7.4 3.9-11 6.1q-8.7 5.4-16 9-20.9 10.5-44.8 12.4-28.4 2.2-50.5-14.1-11.4-8.4-19.6-18.8-12.5-15.7-21.5-33.2-.1 0-.1-.1-.1 0-.2-.1 0 0-.1 0-.1 0-.2.1c-5.2 2.7-10.4 5.3-15.8 7.7q-10.5 4.7-21.1 9.6-42.6 19.8-76.4 50.8-15.8 14.5-28.6 29.3c-15.4 17.9-30.1 35.8-47.2 51.3-16 14.5-37.8 28.2-60.2 21.6-22.9-6.9-35-26.3-39.5-48.9q-4.8-24.4.1-49.2 1.3-6.5 4.4-15.2 2.8-7.8 5.8-15.2 3.5-8.7 7.8-17 .1-.1.1-.2 0-.1 0-.2-.1 0-.1-.1 0 0 0 0 0 0-.1 0 0 0 0 0-58 36.5-115.7 67.1-19.1 10.1-39.7 7.6-17.3-2.1-27.5-16.7-8.7-12.5-11.6-29.1-2.6-15.4-1.3-30.7 1.3-14.1 6.9-32.3 2.3-7.2 5.1-14.3 6.3-16.1 14.5-29.5 2.7-4.3 5.9-7.1.4-.3.8-.3 2.5-.3 2.5 2.3 0 5.2-2 9.4-8 16.8-10.9 23.9-4.5 11.3-5.5 15.2-1.5 6.6-3.2 13.3c-.1.5 0 1.4-.1 2q-2 11.6-.9 22.3.7 6.6 4.1 14c11.8 25.5 43.1 19.3 62.9 9 50.1-26 98.2-55.1 144.4-86.2q7.8-5.2 14.4-11.5.1-.1.1-.3.1-.1.1-.2 0-.1 0-.3 0-.1-.1-.2-6.7-10.8-17.4-17.5-6.2-3.9-15.3-7.9c-21.6-9.6-42.9-18.9-62.8-31.2q-33.9-20.8-56.6-51.1-.1-.1-.2-.2-.1-.1-.2-.1-.1-.1-.2-.1-.1-.1-.2-.1-2.7-.4-5.6-.3-1.4 0-1.4-1.3v-41q0-.3.2-.6.1-.3.4-.5.2-.1.5-.2.3 0 .6.1 1.9.8 3.6 1.8 13.4 8.3 30.2 18.1 9.6 5.5 18.7 11.9c2.2 1.5 9.7 7.1 5 9.3q-1.5.6-4 .4-5.1-.3-9.9-.4-1.1 0-.2.7 6 5.1 13.4 10.2c19.8 13.6 42.3 23.3 64.8 33.3q13.1 5.9 26.9 14.8c12.1 7.8 21 16.8 24 30.4q3.2 15.1-.6 29c-1.8 6.4-3 12.8-5.1 19.1q-5 14.5-17.9 23.6-9.1 6.5-19.1 12.8-.5.4-.8 1-4.7 9.9-9 19.8-4.2 9.9-8 21.4-8 23.4-6.2 45.6c.8 10 4.1 20.8 11.7 27.6 9 8.2 21.8 8.6 32.9 5.2q14.7-4.5 26.6-12.9c18-12.6 34.5-30.4 49.2-47.2q11-12.6 22-24.7c24.6-27 55-48.3 88-64.6q17.7-8.7 36.3-16.7.1-.1.1-.1.1-.1.1-.1 0-.1.1-.2 0 0-.1-.1c-5.7-16.8-9.8-33.9-10.5-51.5-.9-19.1 3.6-40.2 13.7-56.6 6-9.7 15.2-18.4 26.4-20 8.7-1.3 17.6 6.9 22.7 13.5q15.2 19.6 19.4 43.3 2.6 14.6.2 31.9-.1 1.1-.5 2.3-.2 1-.4 1.9-1.9 9.2-6.1 19.8c-5.4 13.3-14.5 24.1-26.6 31.8q-.2.1-.2.2-.1.1-.1.3-.1.1 0 .2 0 .1.1.3 10.7 16.6 27.4 28 19.8 13.7 45.6 11.9c21.2-1.5 41.3-8.8 59.3-20.6q.4-.2.3-.6-1.1-5.8-1.8-10.8-2.4-18-3.9-37.4-2.2-30.8-4.7-62.9-.1-.6-.6-.4-16.1 9.1-32.3 17.2-7.8 4-14.9 6.6-.3.1-.6.1-.3-.1-.6-.2-.2-.2-.4-.5-.2-.3-.2-.6c-.1-1.6 2.9-3.3 4.1-4.1q22.4-14.8 44.2-29.7.4-.3.3-.8-4.4-61-8.9-117.4-1.3-16.4-3.8-43.8-.3-3.5-1.4-6.2-2.8-7.9-5.6-15-.1-.1-.1-.2 0-.2 0-.3 0-.2 0-.3 0-.2.1-.3l14-34q1.7-4.1 3.4 0 8.1 20.5 16.1 43 4.3 12.2 8.3 24.9 2.3 7.6 3.7 15.3.2.7 0 3c0 1.4-1.5 2.5-2.9 1.8q-1.1-.6-1.9-1.6-5.8-6.6-11.4-13.6-.5-.7-.4.1l10.3 129.9q0 .1.1.2 0 0 .1.1.1 0 .2 0 .1 0 .2-.1 16.9-13.4 32.5-28.4 4.2-4 7.5-8.3.1-.1.1-.2.1-.1 0-.2 0-.1 0-.2-.1-.1-.2-.2c-8.9-5.4-19.6-12.8-18.3-24.8q.8-7.8 5.5-13.4 6-7.4 14.7-11.5c8.6-4.1 18.7-3.9 21.4 7.3 2.3 9.8-.4 20.1-4.7 29.3q0 .1 0 .2 0 .1 0 .2 0 .1.1.2 0 .1.1.1l8.3 6.2q.3.1.4.4.2.2.2.5.1.2 0 .5 0 .2-.1.5l-8.6 15.5q-.1.2-.4.4-.2.1-.4.2-.3.1-.6 0-.2 0-.4-.2-3.1-2-6.3-4.2zm-1.7-37.3c-2.5-5.4-9.8-3.3-13.2-.4q-.8.7-.2 1.6c3.1 4.5 9.1 8.2 13.8 10.7q.1.1.2.1.1 0 .2 0 0-.1.1-.1 0-.1.1-.2 1.3-6.7-1-11.7zm-173.5 117.7q-4.9-12.6-12.9-23.5c-4.4-6.1-13.7-17-22.4-11.3-8.2 5.6-15.9 18.4-15.3 28.2q.2 5.8 2.7 13.3 5.6 16.9 14.7 34 0 .1.1.1 0 .1.1.1 0 0 .1 0 .1 0 .2 0 11.2-5.8 21.9-13.1 7.6-5.2 12.6-12.7 1.7-2.6 1-6-1-4.7-2.4-8.4.1-.5-.4-.7zm151.1 110.9c5.8 7.9 14 12.9 23.6 15.1 8.1 1.8 16.6 2.2 24.7.2q2.3-.5 4-1.8.1 0 .1-.1.1-.1.1-.3.1-.1.1-.2 0-.1-.1-.2c-2.7-9.1-11.6-14.5-20.8-16.2-10.9-1.9-21.2-.3-31.5 2.9q-.1 0-.2.1 0 .1-.1.1 0 .1 0 .2 0 .1.1.2z" fill-rule="evenodd"/><path d="m585.7 608.7c-3.7-4.8-5.8-10.5-6.2-16.6q-.5-7.9 1.1-15.1 2.4-10.4 6.4-20.7 3.8-10.1 7.7-20.4 1.9-5.2 2.9-10.7.3-1.6 1.8-1.5.1.1.2.1.1 0 .2.1 0 0 .1.1.1.1.1.2c1.4 3.4 0 10.6-1 13.9q-3.2 11.2-7 24.7-2.3 8.4-2.3 16.8 0 6.7 3.4 11.1 1.4 1.9 3.5 2.4c10 2.3 13.4-11.1 14.5-18q0-.1 0-.2.1-.2.2-.3.1-.1.2-.2.1-.1.2-.1.4-.2.8 0 .5.2.6.6 2.3 13.2-.6 22.7c-2.2 7.6-7.1 15.4-15.1 16.8-5.1.8-8.8-2-11.7-5.7z"/><path d="m918.5 603.3q0 .3.1.7 9 118.4 18.3 236.9.6 8.5.8 15.2c.2 9.7.2 19.5-1.5 28.9q-3.5 19.6-9.5 36.2-.4 1.2-1.3 1.9-.3.3-.6.3-.3.1-.6 0-.3 0-.6-.2-.2-.2-.4-.5-.6-1.3-.7-3c-.9-10-1.2-20-1.7-30.1q-.4-6.9-1.1-15.2-10.3-125.2-20.6-252.9-1.3-16.4-2.5-32.8-.4-4.4-1.5-8-1.8-6.1-3.4-10.9-.5-1.3-1.2-2.7-.1-.2-.2-.3 0-.2 0-.4 0-.2 0-.3 0-.2.1-.4l14.6-35.1q0-.1.1-.2 0-.1.1-.2.1-.1.2-.2 0 0 .1-.1 1-.5 1.6.2.4.4.6 1 3.1 8.9 6.4 16.8c.3.8.3 1.8.6 2.5 7.1 19.3 14.5 40.8 19.6 60.8q.7 2.7.9 6.1c.1 2.2-1.9 3.2-3.4 1.5q-6.6-7.4-13-15.6-.3-.3-.3.1z"/><path d="m308.3 646.1q.9 1.6 2.4 3 1.4 1.3 3.2 1.5c9.5 1.4 12.6-10.9 13.7-17.8.1-.6.5-1.1 1-1.1q.2-.1.4 0 .2 0 .3.1.1.1.2.3.1.1.2.3c.7 3.9 1 8.1 1 12.1-.1 10-4.4 22.7-14.2 26.7-5 2-9.9.1-13.2-3.9q-6.5-7.7-7.2-17.9-.7-10.9 3.2-23.2 3-9.2 5.5-15.8 4.1-10.5 7.5-20.2c.9-2.3 1.3-4.9 1.9-7.4.2-1 .8-2 2-1.6q.1.1.2.1 0 .1.1.2.1 0 .1.1.1.1.1.2c1.2 3.7-.1 10.3-1.2 14q-2.9 10.4-5.7 20.1-2.6 9.1-3.3 15.8c-.5 4.8-.4 10.3 1.8 14.4z"/><path d="m374.1 659.4q-3 1.3-8.2 2.8c-.8.3-1.4.8-2.5.5q-.2-.1-.3-.2-.2-.2-.3-.3-.1-.2-.1-.4-.1-.2 0-.4l2.2-12.7q0-.2.1-.3 0-.1.1-.2.1-.2.2-.2.1-.1.3-.2l168-58.8q.3-.1.6 0 .3.1.6.3.2.2.3.4.1.3.1.6l-2.2 12.4q0 .2-.1.4-.1.2-.2.3-.2.2-.3.3-.2.1-.4.2-7.9 2.9-15.6 5.6-63.4 22.4-139.5 48.8-1.4.5-2.8 1.1z"/><path d="m682.2 692.4c-.4-.7-.9-1.1-1.2-1.8q-4.3-9.2-3.2-19.6 1-8.8 4-18.1 1.8-5.9 3.8-11 3.8-10 7.8-20.8 1.7-4.5 2.4-9.3.2-1.1 1.1-1.5.2-.1.5-.1.3 0 .5.1.3.1.4.4.2.2.2.5c1.1 5.5-.8 12.8-2.5 18.1q-4.5 14.6-6.4 22.7-2.4 9.8-1.3 18.4.5 3.6 3.6 7.2.6.8 1.6 1.1.6.2 1.3.5.6.3 1.3.3 1.8 0 3.7-.3 1.8-.4 3-1.7c3.9-3.9 5.7-10.1 6.5-16q0-.1.1-.2 0-.1.1-.2 0-.1.1-.2.1-.1.3-.1 1.3-.6 1.5.8 1.1 6.3.8 13.6-.2 7.9-3.8 14.9c-3.1 5.9-8.7 11.6-15.6 10.8q-3.8-.4-6.8-3.5-2.1-2.2-3.8-5z"/><path d="m521.2 644.2q2.4-7.2 3.5-14.9.1-1 1.1-1.2.3 0 .6 0 .2.1.5.2.2.2.3.4.2.3.2.5.5 2.4 1.3 4.7c1.2 3.8.9 7.8-.1 11.4q-.3 1 .8.9 4.8-.5 8.8 1.3c.5.3 1 0 1.5.3 8.1 3.8 10.8 12.4 9.8 20.9q-.8 6.5-1.9 13.1-1.9 11-10.7 16.6c-5.3 3.4-11.9 4-17.6 1-7.5-4.1-9.5-12.7-9.6-20.9q-.1-3.8.9-7.7 2.1-8.4 5-14.6 1.1-2.4 2.1-4.8.7-1.7 1.7-3.4 1-1.7 1.5-3.5.1-.2.2-.2 0 0 .1 0 0 0 0-.1zm17.5 23.8q-2.3-1.5-4.4-2.2-6.6-1.9-13.3-.8 0 0-.1 0 0 .1-.1.1 0 0-.1.1 0 0 0 .1c-.8 2.8-1.4 7.4 0 10q2.6 4.5 7.9 5.5 3.5.7 7.1.2 4.4-.7 7.9-4.4.7-.8.4-1.8-.8-2.2-2.3-4.1-1.1-1.4-3-2.7z" fill-rule="evenodd"/><path d="m593.7 647.3q.4-.1.8.1 10.7 5.4 21.6 11.5.2.2.4.4.2.2.3.5.1.3.1.7 0 .3-.2.6l-16 34.5q-.2.3-.4.5-.3.2-.6.4-.3.1-.7 0-.3 0-.6-.2-15.2-8.2-31.5-16.3-.6-.3-1.2-.5c-1.3-.5-2.1-1.5-1.4-2.8q8.4-18 16-34.4.1-.3.4-.5.2-.3.6-.4.3-.1.6-.1.3.1.6.2 5.5 2.6 11.1 5.6 0 0 .1.1 0 0-.1 0 0 .1.1.1z"/><path d="m852.9 775q.7 1.1 1.5 2.1.9 1.3 2.5 1.5.2 0 0 .2-.1 0 0 .2 0 0 .1.1 2.6.9 5.2.3 2.4-.6 4.1-2.6c3.6-4.3 5.1-10 6-15.4q0-.1 0-.2.1-.1.1-.2.1-.1.1-.2.1 0 .2-.1.7-.4 1.2 0 .3.3.4.7c2 11.8 1.4 23.8-5.9 33.1-5.6 7.2-14.5 9-20.8 1.4-6.6-8-8-17.7-6.6-27.9q.9-6.5 4.1-16 4.7-14.3 10.2-28.3 2.4-6.3 3.6-12.5 0-.1.1-.3.1-.1.2-.3.1-.1.2-.2.1-.1.3-.2c.8-.4 1.6.1 1.8.9q.1.5.2 1 .3 6.5-1.8 13.4-3.8 12.8-7.1 25.2-2.3 8.9-1.8 18c.1 1.7 1 4.9 1.9 6.3z"/><path d="m437.9 791c10.3 3.2 13.9-10.7 15-17.8q0-.1.1-.3.1-.1.2-.2.1-.1.2-.2.1-.1.3-.2.4-.1.8.2.3.2.4.6c2.2 11.5 1.4 22.8-5 32.1q-2.7 4-6.8 6-8.5 4.3-15.1-3.9c-8.1-10-8-23.3-4.8-35.4 3.4-12.2 7.8-23.3 12.3-34.9q2.6-6.9 4-13.8.3-1.2 1.3-1.3.2 0 .5.1.3.1.5.3.2.1.3.4.1.2.1.5.6 6.7-1.4 13.5-3.5 11.7-6.9 24.1-1.2 4.4-1.9 9.8-1 7.3.1 12.6.6 2.4 2.5 5.2 1.3 2 3.3 2.6z"/><path d="m538.6 752.9q-.8.9-1.3 1.9-2.3 4.3-3.2 10.3-1.7 11.4-2.7 22-1.3 12.2-4.6 24.2-.1.2-.1.4-.1.1-.2.3-.2.2-.3.3-.1.2-.3.3l-5.2 4.2q-.2.1-.3.2-.2 0-.3 0-.2 0-.4-.1-.1 0-.2-.1-.8-.7-.9-1.8 0-.9-.3-1.9-1.4-6.4-3-12.1-2.2-8.5-5.9-17.1-3.5-8.5-8.7-15.7-.1-.1-.2-.2-.1 0-.2 0-.1 0-.2 0-.1.1-.2.2l-2 2.8q-.4.7-1.2.5c-8.2-1.4-20.6-7.5-14.7-18q2.8-4.9 5.1-9.5c.7-1.3 2.1-2.2 3.7-1.9 18.2 3.5 27.7 26.2 31.7 42.3q.5 2.1 1.1 4.3.5 1.6.8 0 1.4-8.9 2.7-18.1 1.9-12.2 5.2-23.8c1.8-6 6.4-17.4 14.9-13.2 4.7 2.3 8.4 7.2 11.2 11.5q.1.2.2.4.1.3.1.5 0 .2 0 .4 0 .2-.1.5l-4.7 11.1q-.1.3-.3.5-.2.2-.5.2-.3.1-.6 0-.3-.1-.5-.3-1.9-1.9-4.2-3.9c-.5-.4-1.1-.4-1.6-.9q-2.4-2.2-5.5-1.8-1.2.1-2.1 1.1z"/><path d="m235.1 826.3q.9 2.3 3.2 4.1.6.5 1.3.7.4.2.7.5.3.3.7.3c9.7 1.4 12.9-10.9 13.9-18q.1-.1.1-.2.1-.1.1-.2.1-.1.2-.2.1-.1.2-.2c.6-.4 1.4-.1 1.5.6 2.2 11.6 1.3 24.2-6.2 33.6-4.6 5.8-12.9 8.5-18.9 2.6q-3.1-3.1-5.1-6.9c-3.8-7.4-4.5-17.1-2.5-25.7q.9-3.8 1.7-7.3.7-2.9 1.9-6.3 1-3.1 2.2-6.2 4.6-12.7 9.5-25.6 1.1-3.2 2-8.3 0-.2.1-.4.1-.2.3-.4.1-.1.3-.2.2-.1.4-.1.6-.1 1 .3.4.3.5.9c.8 4.5-.4 10.3-1.6 14.5q-4.1 13.6-7 24.9-1.1 4.1-1.7 8.5-1 8.8 1.2 14.7z"/><path d="m379.6 936.3q1 3.1 4 5.3c1.8 1.3 6.2 1.2 8.1 0 5.2-3.6 7.1-11.3 8.1-17.3q.1-.3.3-.5.5-.3 1-.3.1.1.2.1.1.1.2.2.1.1.2.2.1.1.1.2c2 11.4 1.5 22.9-5.2 32.4-3.5 5-10 8.9-16 6.5-5.4-2.2-9.7-9.4-11.3-15.1q-1.6-6-1.2-12.7c.5-8.5 2.9-16.7 6.1-25.6q4.2-11.4 8.5-22.7 2.5-6.4 3.7-12.7.2-1.2 1.4-1.2.2 0 .5.1.2.1.4.2.1.2.2.4.1.2.2.5.5 5.9-1 11.4-2.3 8.7-5.9 20.8-2.4 8.4-3.4 15.5-1.2 8.3.8 14.3z"/><path d="m614.1 921.7q-2.2-1.6-4.4-2.9c-5-2.8-7.7 1.4-8.9 5.4q-1.7 6.2-2.6 13-.9 7.7-1.8 16.3-.3 3.2-.9 6.5-.6 3.2-1 6.6c-.3 1.9-1.2 3.6-1.4 5.5q-.1 2-1 3.6-.1.1-.1.2-.1.1-.1.2 0 .1 0 .2-.1.1 0 .3 0 1.4-1.1 2.2-2.4 2-5 4-.2.2-.5.3-.4 0-.6-.1-.3-.1-.5-.4-.2-.2-.3-.5-2.8-13.7-7-25.7-4.2-12.1-10.9-21.6-.7-1-1.4 0l-1.7 2.4q-.1.2-.2.3-.2.1-.3.2-.2 0-.4 0-.2.1-.3 0-4.1-.8-7.5-2.2c-4.3-1.9-9.3-6.4-8.7-11.5q.2-2 1.7-4.6 2.6-4.7 4.9-9.2c.8-1.5 2.2-2.3 3.9-1.9 14.2 3.1 22.6 16.9 27.6 30.1q3.6 9.4 5.1 17 0 0 0 0 0 .1 0 .1 0 0 .1 0 .3.4.5.1 0 0 0-.1c2.4-16.4 4-27.7 7.6-41.3q2-7.5 5.7-12 3.3-4.2 7.8-3.1c5.2 1.3 10.7 8.2 13.3 12.8q0 .1.1.2 0 .1 0 .2 0 .1 0 .2 0 .1-.1.1l-4.7 11.6q-.1.3-.3.5-.2.2-.5.2-.3.1-.6 0-.3-.1-.5-.3-.8-.8-1.5-1.5-.6-.7-1.5-1.4z"/><path d="m664.3 1019.1q.1.1.1.2 0 .1-.1.1-19.1 4.5-40.6 8-2.1.3-3.9.4-.4 0-.7-.2-.4-.2-.5-.6-.2-.3-.1-.7 0-.4.3-.7.7-.7 1.6-1.1 9.5-3.8 19.4-7.9c27.4-11.4 54.7-26.6 80.8-42.1 4.9-2.9 9.6-6.6 13.9-10.4 7.2-6.3 11-13.4 14.8-22q1.3-2.9 3.7-5.5.1-.1.2-.1.1-.1.1-.1.1-.1.2-.1.1 0 .3 0 1 .1 1.7 1 .4.5.7 0 5-8.4 15.2-9.8c10-1.4 15.1 5.3 14.8 14.5q-.3 5.9-2 10.4-1.6 4.1-4.2 9.3c-3.2 6.3-11.1 4.7-16.1 2.4q-7.9-3.6-13.9-10.1 0 0-.1-.1-.1 0-.2 0-.1.1-.2.1 0 .1-.1.2-6.4 19.2-22.3 32.3-5.8 4.7-11.9 8.5-12.8 7.8-28.6 16.5-2.9 1.6-5.9 2.7-7 2.6-14.8 4.7-.8.2-1.5.1-.2 0-.1.1zm110.4-69.2q.5.2.9.2.5 0 .3-.5-3.1-8.5-11.8-6.5-.1 0-.2 0-.1.1-.1.2 0 .1 0 .2 0 .1.1.2 5 4.1 10.8 6.2z" fill-rule="evenodd"/><path d="m774.7 949.9q-5.8-2.1-10.8-6.2-.1-.1-.1-.2 0-.1 0-.2 0-.1.1-.2.1 0 .2 0 8.7-2 11.8 6.5.2.5-.3.5-.4 0-.9-.2z" fill="#fff"/></svg>