<svg height="1080" viewBox="0 0 1080 1080" width="1080" xmlns="http://www.w3.org/2000/svg"><clipPath><path d="m67 47h946.22v985.65h-946.22z"/></clipPath><path d="m606.9 125.2c-12.1-12.5-7-31.3-1.7-45.7q4-11 8.2-21.9 1.6-4.5 2.6-9.7 0-.1 0-.3.1-.1.2-.2.1-.1.2-.2.1 0 .2-.1c1.2-.4 1.8.6 1.8 1.6q.3 5.5-.9 9.6-3.1 11.3-6.5 23c-2 7.2-3.9 17.9-.1 24.3q2.5 4.4 7.1 3.7c6.6-.9 9-10.2 9.9-16.2q0-.1 0-.2.1 0 .1-.1.1-.1.2-.2 0-.1.1-.1.8-.5 1.2 0 .3.3.3.7c1.6 10.1 1.3 19.2-4 27.8-4.1 6.5-12.5 10.7-18.9 4.2z"/><path d="m372.7 101.5q-.7-.3-1.4-.7-10.7-5.8-24.6-12.6-.2-.1-.4-.3-.2-.2-.3-.5-.1-.3-.1-.6 0-.3.1-.6l14.5-31.1q.1-.2.3-.4.2-.2.5-.3.3-.1.5 0 .3 0 .5.1 15.3 7.4 30.2 15.6c.7.4 1 1.2.6 2q-7.3 15.9-14.5 31.1-.1.2-.2.4-.2.2-.4.2-.2.1-.5.1-.2 0-.4-.1-1.5-.5-2.9-1.5-.7-.4-1.5-.8z"/><path d="m717.9 144.9q-3-1.9-5.9-4-.1-.1-.2-.1-.1 0-.2 0-.1 0-.2.1-.1 0-.2.1-9.1 12-21.7 24.7-8.1 8.1-15.6 13.5-.1.1-.1.2-.1 0-.1.1 0 .1-.1.2 0 .1 0 .2c2.3 38.6 4.4 79.4 7.3 116.3q1.4 18.5 3.1 37.9 1 12.2 4.8 24.5c2.8 9.4 7.9 19 17.3 23.1 15.9 7 35 5.6 50-1.6q4.9-2.4 9.7-5.4.4-.3.3-.7c0-.9-.5-1.7-.6-2.7-1.9-14-7.7-28.2-14.8-40.3q-.2-.4-.1-.9l5.9-33.8q0-.1.1-.2 0-.1 0-.1.1-.1.1-.2.1 0 .1-.1c.6-.5 1.3-.4 1.8.2q2.4 3 4.4 6.2c12.3 19.5 18.5 43.5 16.4 66.8q-.4 4.3-1.3 8.1c-1.9 8.7-4.7 17.1-9.3 24.5-3.2 5.4-7.5 9.4-13.1 12.1-2.6 1.3-5.1 2.7-7.7 3.9-15.5 6.3-34.7 7.1-49.9-.4-10.8-5.3-19-16.9-23.6-28.2q-.7-1.9-1.5-3.9-.8-2-1.4-3.9-1.4-4.6-2.5-9.2-.2-.7-.4 0-3.1 10.8-8.6 19.8c-1.9 3.1-4.3 6.1-6.5 9.1q-5.7 7.9-13.1 13.7-.2.3-.2.6.5 6 .8 12c.6 10.8-1 20.5-4.1 30.6q-1.4 4.3-3.3 8.1-5.1 10.2-12.3 19.1-10.6 13.1-24.4 26.2c-19.8 18.7-42.5 35.9-66.6 48.7q-13.9 7.4-27.6 11.6c-9.4 2.8-20.4 4.7-29.9 3.1-20.5-3.5-34.3-20.4-41.5-38.8q-.2-.5-.7-.3c-36.9 13.7-79.6 14.6-113.7-6.2q-23.4-14.3-36.3-38.5-7.7-14.4-11.6-30.6c-5.8-23.7-6.8-48.9-2.5-73.1q6.2-35.3 22.2-67.9.2-.3-.1-.6-8.7-8.9-17-20.3-.5-.7-.7-1.5 0-.1 0-.2 0-.1 0-.2 0-.1 0-.1.1-.1.1-.2 1-1.1 2.4-.3 10.3 6.7 21 11.6.1.1.2.1.1 0 .2-.1.1 0 .2 0 0-.1.1-.2 9.1-16.2 20.9-30c4.2-4.9 8.9-9.5 13.5-13.9q.3-.4-.1-.6-19.4-9-37.2-24.8c-15.2-13.5-26.1-33.7-27.1-54q-.5-9.3 2.1-17.4 1.8-5.8 3.5-11.3 1.9-6.3 4-10.9c7.9-17.7 26.1-32.9 45.1-37.4 27-6.5 56.1-1.6 79.3 14q6.2 4.2 10.5 10.2c.6.8 1.6 1.5 1 2.7q-.2.2-.4.4-.2.2-.4.3-.3.2-.6.2-.3 0-.5-.1-4.3-1-8.4-1.9-13.3-3-27.7-2.6-27.5.9-54.4 11.7-21.5 8.6-40.5 20.1-.1 0-.2.1 0 0 0 .1-.1.1-.1.2 0 0 .1.1c5.1 15.9 14.2 31 26.5 42.3 13.8 12.7 30.7 23.6 48.8 27.8 7.3 1.8 16.1-.9 22.3-5.1q18-12.3 30.7-20.1 29.2-18 56.6-35.3.1-.1.2-.1.1-.1.2-.1.1 0 .2 0 .1.1.2.1.9.4.7 1.5-4.2 15.8-8.8 32.9-.1.1-.1.2-.1.2-.2.3-.1.1-.2.2-.1.1-.2.2c-24.2 15.6-49 31.4-72.3 47.6-26.5 18.4-49.1 36.1-69.8 58.6q0 0 0 0 0 .1 0 .1 0 0 0 .1.1 0 .1 0c11.6 3.2 24.4 3.9 36.5 4.2q15.6.4 37.1-.6 19.8-.9 37.8-1.6c15.9-.6 32.8-.5 48.8 1.6 22.9 3.2 41.7 15.7 52.6 35.9 9.2 16.8 12 37.3 10.2 56.5q-.6 7.3-2.5 14.6c-11.2 45.4-43 81.3-83.8 103.2q0 0-.1 0 0 .1 0 .2 0 0 0 .1 0 .1.1.1c11.7 9.6 27.7 12.4 42.7 10q13-2.2 27-8.3 15.4-6.7 30.1-16.1 35.4-22.7 64.4-53.5c6-6.3 11.6-13.4 16.7-20.5q0-.1.1-.2 0-.1 0-.1 0-.1 0-.2 0-.1-.1-.2l-6.4-14.7q-.1 0-.1-.1 0 0-.1 0 0 0-.1-.1 0 0-.1.1-20.2 7.3-41.1 6.2-4.2-.2-8.2-1.6c-15.2-5.4-22.7-17.9-22.7-33.4q0-6 1.8-13.1 4.2-16.8 15-28.1c5.9-6.2 14.4-11.9 23-10.4 7.7 1.5 14.8 6.4 20.3 11.9q13.5 13.2 20.6 30.1.2.3.5.2 1.2-.3 2.2-.8 10.8-4.9 20.1-12.6c2.2-1.8 4.4-3.5 6.2-5.6q.1-.2.3-.4.1-.2.2-.4.1-.2.1-.5.1-.2.1-.4c.2-9.6.3-19.1-.3-28.8q-4-71.7-8.5-143.3 0-.6-.6-.3c-10 5.5-19.7 10.7-30.4 16.1q-7 3.5-12.8 5.7-.5.2-1.1.2-.3 0-.5-.1-.3-.2-.4-.4-.2-.2-.2-.5-.1-.3 0-.6.5-1 1.3-1.6c14.7-9.7 29.2-19.3 43.7-29.4q.1 0 .1-.1.1 0 .1-.1 0 0 0-.1 0-.1 0-.1-2.9-47.8-6.6-94.4 0 0 0-.1 0-.1 0-.1 0-.1 0-.1.1-.1.1-.1l13.3-31.5q.1-.2.3-.4.2-.2.4-.2.2-.1.5-.1.2 0 .4.1.7.3.8 1.1 3.7 18.4 5.4 34.1 4.1 37.8 6 75.7 0 .1.1.2 0 0 .1.1 0 0 .1 0 .1 0 .1-.1 10.1-8.3 21.5-18.7 5.4-5.1 9.9-10.5.1-.1.1-.2.1-.1 0-.2 0-.1 0-.2-.1-.1-.2-.2c-6.4-3.7-13.5-8.8-15.8-15.7s.8-15.1 5.7-20.3q5.6-6 13.2-9.2c6.1-2.6 13.5-2.6 16.7 4.1q1.4 2.8 1.8 6.9c.6 7.7-1.7 15.4-4.9 22.5q-.2.4.2.6l7.6 5.6q.1.2.2.3.2.2.2.4 0 .2 0 .4 0 .2-.1.4l-7.8 14.1q-.1.1-.2.2-.1.1-.2.2-.1 0-.3.1-.1 0-.2 0c-1-.1-1.8-.9-2.6-1.4zm-17.1-34.7c2.5 3.7 7.8 7 12.3 9.4q.1.1.1.1.1 0 .2-.1.1 0 .2-.1 0-.1 0-.2.2-2 .3-4c.1-2.7-.8-7.6-3.5-8.8-2.9-1.4-6.8-.1-9.4 1.8q-1 .7-.2 1.9zm-262.3 388.1c18.7-7 35.3-17.9 50.7-31q12.8-10.9 22.2-23.1c6.1-7.9 11.7-17.8 12.5-27.5 1.8-22.2-5.7-41.4-25.6-52.8q-15.1-8.6-34.1-11-10.6-1.3-20.8-1.6-17.5-.4-42.8-.3-17.3.1-32.9-1.1c-14.3-1-28.7-3.3-42.3-7.8-8.8-3-17.2-7.4-24.6-13q-.5-.3-.7.1c-13.2 20.2-18.7 43.9-21.7 67.7-3 24.9 1.5 48.7 16.2 69.1 10.7 14.9 26 27.3 43.2 34.5 27.2 11.3 58 11 86.2 2.8q.3-.1.2-.4-1.3-13.6.6-27.5 3.5-25.8 14.4-51.6 2.4-5.6 5.2-10.2c1-1.7 3.3-1.3 3 1q-.8 5.7-2 9.7-3.7 12.5-7.1 24.5c-4.6 16.4-7.5 34.5-4.7 50.9q.1.3.4.2c1.6-.2 3.3-1.1 4.5-1.6zm166.9-105.3c-5.6-7.9-13.7-14.5-23.5-13.2q-8.1 1-11.2 8-.1.2-.1.4 0 .2 0 .4.1.2.2.3.1.2.3.3 2 1.4 4.5 2.2c9.4 3.2 19.8 3.1 29.7 1.8q.1 0 .1-.1 0 0 0 0 0 0 0-.1 0 0 0 0z" fill-rule="evenodd"/><path d="m444.5 108.5q-5.6-3.3-9.3-8.5c-4.8-6.7-3.3-15.8 1.4-22.1 4.9-6.6 15.7-14.5 24.5-13.2q7 1 8.7 9.3 1 4.8.5 9-.8 6.4-2.4 10.7-1.2 3-2.4 6-.1.4.1.6l7.7 5.6q.1.1.2.3.1.2.2.4 0 .2 0 .4 0 .2-.1.3l-7.8 14q-.1.3-.3.4-.2.2-.4.2-.3.1-.5.1-.3-.1-.5-.2l-7.9-5.3q-.1 0-.2-.1 0 0-.1 0-.1.1-.1.1-.1 0-.1.1-8.8 11.5-20.7 23.6-10.2 10.4-19.6 16.8-5.7 3.8-13 7.9c-13.7 7.7-27.3 15.3-41.5 21.9q-4.3 2.1-8 3.3-.3.1-.6.1-.2 0-.4-.2-.3-.1-.4-.3-.2-.2-.2-.5c-.3-1.4 2.3-2.9 3.3-3.5 11.5-7.6 22.4-15 33.3-22.3q29.6-20 55.1-44.7 3.1-3 5.9-6.7.1 0 .1-.1 0-.1 0-.2 0-.1-.1-.2 0-.1-.1-.1c-1.5-.8-2.9-2.1-4.3-2.9zm13.3-13.3c.8-4.1.9-13.1-4.7-13.5q-4.6-.4-8.3 2.7 0 .1-.1.2 0 0 0 .1 0 .1 0 .2 0 .1 0 .1c2.2 4.3 8.3 7.9 12.9 10.4q.2.1.2-.2z" fill-rule="evenodd"/><path d="m570.1 122c-1.6-1.6-3.5-2.8-5.6-3.4-5.3-1.6-7.1 7.6-7.7 11-2.1 13.1-2.7 28.2-6.6 41.6q-.1.4.3.5c8.2 3.6 14.7 11 19.4 18.6q.2.3.1.7l-2.8 12.3q0 .2-.1.3-.1.2-.3.3-.1 0-.3.1-.1 0-.3 0c-10.7-1.7-26.6-2.7-33 8.1-.6 1-.6 2-.4 3.1q.9 6.1 2 11.7 3.5 17.8 6.8 34.5 2.9 14.5 4.3 32.7.6 7.6.3 13.3c-.4 8.2-1.4 16.4-4 24.3q-.1.2-.2.3-.1.1-.2.2-.2 0-.3.1-.2 0-.3-.1-.9-.4-.9-1.4c.6-19.1-1.4-38.5-5.2-57.2q-3.6-18.6-8.4-38.8-2.4-9.9-1.9-20 .2-4.6 1.7-8.9c3.6-10.6 12.2-14.9 22.8-16.2q.6-.1.1-.4c-3.9-2.6-8.7-3.9-12.2.3q-2.5 3-4.7 5.7-.1.1-.2.1 0 .1-.1.1-.1.1-.2.1-.2 0-.3 0c-.9.1-1.3-.7-1.2-1.5q1-5.8 2.6-11.2c1.3-4.6 4-9.3 8.6-11.3q.3-.2.2-.6c-2.8-13.1-7.4-27-15.3-38q0-.1-.1-.1-.1 0-.2 0 0 0-.1 0-.1 0-.1.1l-1.9 2.6q-.4.7-1.2.5c-7.2-1.3-18.3-6.8-13.2-16q2.4-4.3 4.7-8.6 1.2-2.3 3.6-1.7c10.1 2.2 16.8 10.4 21.3 19.5q5.6 11.1 7.8 22.5.4 1.9.7 0 1.4-9.2 2.8-18.2 1.4-8.6 3.4-16.6c1.2-4.6 2.9-9.7 6-13.1 6.9-7.7 15.6 3.9 18.7 9.1q0 .1 0 .1 0 .1 0 .2 0 0 0 .1 0 0 0 .1l-4.3 10.5q-.1.2-.3.4-.2.2-.4.2-.3.1-.6.1-.2-.1-.4-.2-1.5-1.2-2.7-2.5z"/><path d="m717.5 192.6c2.4-6.2 4.8-12.4 6-18.9q.2-.9 1.1-1.1.2 0 .5.1.2 0 .4.1.1.2.2.4.2.2.2.4c.6 4.4-.3 9.1-1.6 13.5q-3.1 10.7-5.8 20.4c-2 7.1-3.8 18 .2 24.2 3.9 5.9 10.6 3.5 13.4-1.9q2.5-4.7 3.4-10.9.2-1.2 1.3-1 .1 0 .2.1.1 0 .1.1.1.1.2.2 0 0 0 .1c1.9 10.4 1.4 20.6-4.6 29.2-3.2 4.6-9.3 8.2-14.8 5.6q-2.5-1.2-4.6-3.7c-8.1-9.8-7.2-23-3.7-34.5q3.1-10.4 7.9-22.4z"/><path d="m819.7 208q-.5 1.8-1.4 3.6-.2.3.1.6l7.5 5.5q.9.7.4 1.8l-7.6 13.6q-.8 1.3-2 .5l-7.9-5.2q0 0 0 0-.1-.1-.1-.1-.1.1-.1.1 0 0-.1 0-13.1 17-29.6 32.1-3.8 3.6-10 7.9-6 4.2-13.4 8.3c-13.3 7.5-28.1 15.7-42.5 22.4q-3.4 1.6-6.9 2.8-1.3.5-2-.5-.1-.1-.2-.3 0-.2 0-.4 0-.2.1-.3.1-.2.2-.3 1.2-1.1 2.3-1.9 15.2-10.2 31.4-21 31.2-20.8 57.5-46.1 3.3-3.3 6.4-7.2.1-.2-.1-.4c-8.6-5.7-18.7-12-16.4-24.1 1.7-8.9 7.8-15 15.7-19.5 6.9-4 18-6.2 21.1 4.1 2.2 7.4.9 15.3-1.8 22.7q-.2.4-.4.8-.2.2-.2.5zm-9.5-.8q.4.2.4-.2c.9-4 .8-12.9-4.8-13.4q-4.6-.4-8.1 2.7-.1.1-.1.2-.1.1-.1.2 0 .1 0 .3 0 .1.1.2c2.4 4.2 8.2 7.6 12.6 10z" fill-rule="evenodd"/><path d="m236.7 266.5q1.3-9.3 4.8-19 4.2-11.4 8.7-23.1 1.7-4.6 2.6-9.7.2-1.3 1.5-1.2.2 0 .4.1.2.1.3.2.2.2.2.4.1.1.1.3.4 6.6-1.5 13-3.8 12.5-6.6 23.4-1.8 7.2-1.4 14.4c.3 5.3 3.3 12 9.7 10.4 6.5-1.6 8.4-10.8 9.4-16.3q.1-.1.1-.2.1-.1.2-.2.1-.1.2-.2.1 0 .2-.1c.6-.1 1.1.3 1.1.9 1.8 11 1.2 21.7-5.9 30.3q-1.5 2-3.9 3.3-6.9 3.9-12.3-.9c-7-6.2-9.2-16.6-7.9-25.8z"/><path d="m455.3 249.2c-2 7.3-5.1 22.7 2.6 27.5 2.7 1.7 6.4.8 8.6-1.4 3.4-3.4 4.9-9.3 5.7-14.2q.1-.5.6-.7 1-.3 1.2.7c2 11 1.2 22.5-6.3 31q-1.9 2.1-5 3.5c-5.6 2.5-10.1-.1-13.5-4.6-6.7-9-6.4-20.7-3.5-31.4 3.1-11.6 7.7-22.8 11.9-33.7q1.6-4.5 2.6-9.6 0-.1 0-.1 0-.1 0-.2 0 0 .1-.1 0 0 0-.1.6-.9 1.4-.7c.9.3 1 1.5 1 2.2q.1 5.5-1.2 10.1-2.9 10.3-6.2 21.8z"/><path d="m593.5 276.5c.2-1.7.3-3.5.7-5.2q1.7-7.6 4.2-14.4 4-11.2 7.8-20.8 2.3-5.9 3.4-11.9.2-1 1.1-1.2.2 0 .4 0 .2.1.3.1.2.1.3.3.1.1.2.3.3 1 .3 2c.1 4.2-.8 8.3-2 12.4q-3.6 12.4-5.9 20.8c-1.5 5.8-2.6 13-1.3 18.9.7 3.2 2.8 6.9 6.3 7.6 3.6.7 7-1.7 8.7-4.8q2.6-4.7 3.6-11.3c.1-.6.5-1.1 1.2-1q.1 0 .2.1.1 0 .2.1.1.1.2.2 0 .1 0 .2c1.8 9.9 1.4 19.8-4.1 28.3-3.8 6-11.6 10.2-17.7 4.8-7.1-6.1-9.3-16.2-8.1-25.5z"/><path d="m815 375.8c3.1 2.2 7.2.6 9.4-2.1 3-3.4 4.4-9.1 5.1-13.4q0-.2.1-.3 0-.1.1-.2.1-.1.3-.2.1 0 .2 0 .9-.2 1.1.7 1.3 7.3.7 13.9c-.7 8.1-4.9 18.2-13.1 21-5.5 1.9-9.8-1.2-12.8-5.6-5.9-8.3-6.1-18.9-3.7-28.8q1.6-6.8 3.6-12 4.3-11.7 8.9-24.2c.7-1.9 1.6-4.4 2-6.7q.2-1.7.8-2.9.6-1.3 1.6-.3.8.8.8 2.5c-.1 3.9-.7 7.3-1.7 11q-2.5 8.7-5.2 18.1c-2.3 7.9-6.1 23.9 1.8 29.5z"/><path d="m361 405.4c4.1 3.8 8.4 7 13.6 8.2.7.1 1.5.1 2.1-.4q9.4-7.5 17.1-16.7.4-.5 1-.2.1.1.2.2.2.1.2.3.1.1.1.3 0 .1 0 .3-1.4 5.1-2.7 9.5c-1.2 4.5-5.4 8.8-9.2 12.1q-7.5 6.3-14.9 12.6c-4.8 4.1-11.6 10.8-12.3 16.9q-.8 5.8 3.4 8.8c3.5 2.6 9.7 2.9 14.1 2.4q21.4-2.3 37.5-15.8 3.2-2.6 6.5-5.7.1-.1.3-.2.2 0 .3 0 .2 0 .4 0 .1.1.3.3.3.3.2.7 0 .3-.2.6-2.4 4-4.8 7.7-3.8 5.7-10 11.6-12.4 11.9-29.5 13.3c-11.2.9-21.4-1.2-25.1-13.4q-1-3.4-.7-7.1c1-11.5 6.9-19.9 15-27.5q.1 0 .1-.1.1-.1 0-.2 0-.1 0-.1-.1-.1-.1-.1-7.9-4.2-11.5-10.9c-1.9-3.3-1.6-6-.1-9.5q1-2.4 2.1-4.8c3.2-7.2 14-19 22.9-13 2.5 1.6 2.5 4.6 1.8 7.2q-1.1 3.9-3 8.5c-.5 1.2-2 .7-2.5-.1-4.7-6.6-10.7-5-15.7-.1q-.1.1-.1.1 0 .1 0 .2 0 0 0 .1 0 0 .1.1c.9 1.3 1.9 2.7 3.1 3.9z"/><path d="m735.6 451.6-81.1 29.6q-.2.1-.5 0-.3 0-.5-.2-.3-.2-.4-.5-.1-.3 0-.6l1.9-11.3q.1-.2.1-.3.1-.1.2-.2.1-.2.2-.2.1-.1.3-.2l81.1-29.6q.2-.1.5 0 .3 0 .6.2.2.2.3.5.1.3 0 .6l-1.9 11.3q-.1.1-.1.3-.1.1-.2.2-.1.1-.2.2-.1.1-.3.2z"/><path d="m772.4 495.2c-10.6-5.7-20.3-10.7-30.1-15.7q-.3-.1-.5-.3-.1-.2-.2-.5-.1-.2-.1-.5 0-.3.1-.5l14.5-31.2q.1-.2.3-.4.2-.2.5-.3.3-.1.5 0 .3 0 .6.1 14.9 7.2 30 15.5c.8.5 1.2 1.3.8 2.1q-7.4 15.9-14.5 31.1-.1.2-.3.4-.3.2-.5.3-.3.1-.6 0-.2 0-.5-.1z"/><path d="m633.7 550.7c3.6 5.7 10.2 3.8 13.1-1.3 2.1-3.5 3.1-7.7 3.8-11.8q.1-.4.4-.5.5-.2 1 0 .3.1.4.4c1.7 9.6 1.4 18.9-3.5 27.4q-3.1 5.3-8.1 7.4c-9 3.8-15.4-6.1-17.5-13.2-2.3-8.1-1.1-17.4 1.4-25.4q3.7-12.1 10-27.9 2.7-6.9 3.9-13 .1-.9 1-1.1.2-.1.4 0 .2 0 .3.1.2.1.3.3.2.1.2.3c1 3.7-.2 9.5-1.3 13.1q-3.3 11.2-6.1 21.7c-2 7.4-3.5 17.3.3 23.5z"/><path d="m753.1 543.9c1.4 9.7 1.4 19.1-3.8 27.5-4.5 7.2-13.2 11.3-19.8 3.7-10.5-11.9-6.8-28.8-2-42.2q4-11.1 8.7-23.2 1.9-5.2 3-11 .1-.2.2-.4.1-.1.2-.3.2-.1.4-.2.2 0 .4 0 1.2 0 1.3 1.6.2 6.4-1.7 12.8-4 13.2-6.5 23.2-2.1 8.3-1.2 15.5c.4 3.7 2.5 8.3 6.2 9.1 3.1.7 6.1-.7 8-3.1 2.7-3.5 4-8.7 4.7-13q0-.2.1-.3 0-.1.1-.2.1-.1.2-.2.2-.1.3-.1 1-.3 1.2.8z"/><path d="m690.4 582.5 4.3 52.8q0 .1 0 .1.1.1.1.1 0 0 .1 0 .1 0 .1 0l47.1-16.8q.1 0 .1 0 .1 0 .1 0 .1 0 .1 0 .1 0 .2 0 1 .1.9 1.2-1 5.5-2 11.1 0 .2-.1.4-.1.2-.2.4-.2.2-.3.3-.2.1-.4.2l-44.4 15.8q-.1.1-.1.1-.1.1-.2.2 0 0 0 .1-.1.1-.1.2 4.4 55.5 8.7 108.2c1.5 19 4.2 37.6 8.7 56q0 .2.1.2 0 .1.1.2.2 0 .3 0 .1 0 .2 0 11-4.8 23.2-7.6 7.1-1.7 13.6-1.6c11.1.1 21.5 6.5 28 15.8 7.1 10.2 10.2 24 7.9 36.5q-1 5.7-3.4 12.2c-5.6 15.6-16.1 27.1-33.7 26.5-15.5-.5-29.4-7-38.9-19.3q-7.5-9.8-11.6-21.9-.1-.4-.5-.2-7.4 3.7-14.4 8.1-3.6 2.2-7.2 3.6c-9.7 3.5-20.1 5.7-30.1 4.9q-.4-.1-.3.4 6 26.5-3.7 51.2-4.1 10.6-9.3 17.5-4.8 6.3-11.2 13-25.4 26.6-57 48.5-18.6 12.9-37.1 21.5c-12.9 6-27.8 10.9-41.5 10.6q-9.5-.2-18.4-4.7c-20.8-10.5-31-33.9-34.7-55.9q-2.9-17.3-1.6-32.2c1.7-20.1 7.5-40.6 15.6-59.4q2.2-5.2 4.8-9.3c1-1.6 3.2-1.2 3 .9q-.7 5-1.8 8.8c-4.1 14.6-9 29.2-11.6 44.5-4.7 28.4.1 58.4 30.8 68.2 12.7 4.1 26.4 2.8 39.5-1.4q15-5 30.7-14c23-13.2 44.2-29.8 64-48.3q15.9-14.9 28.2-30.9.1-.1.1-.2.1 0 .1-.1 0-.1 0-.2 0-.1 0-.2-7.3-31.2-25.2-57.1-.3-.5-.2-1.1l6.4-34.5q0-.2.1-.3 0-.1.1-.2.1-.1.2-.2.1-.1.2-.1c.7-.4 1.3-.1 1.7.4q8.5 10.4 16.1 19.5 6.5 8 17.5 9.1 9.1.9 19.9-1.7 7.2-1.8 12-3.9 3.5-1.5 8.1-4.6.3-.2.2-.5-3-17.2-4.8-41.3-4.9-63.7-9.6-127.1 0-.1 0-.2-.1-.1-.1-.1-.1-.1-.2-.1-.1 0-.2 0-36.7 12.9-62.5 22.1-.6.2-1.2-.1-.1 0-.2-.2-.1-.1-.2-.2 0-.1-.1-.3 0-.1 0-.3l2-11.2q.2-.9 1-1.2l60.3-21.3q.4-.1.4-.5-2.8-37.3-6.2-74.4-.3-2.3-1.1-4.5-2.7-7.5-5.2-13.7 0-.1 0-.2-.1-.1-.1-.2 0-.1.1-.2 0-.1 0-.2 6.6-15.8 13-31.5.2-.4.5-.7.2-.1.5-.2.3-.1.5 0 .3.1.5.2.2.2.3.5c8.4 21.4 16.6 43.2 23.2 65.4q1.7 5.7 2.5 10.9.2 1.6-.4 3-.1.3-.3.5-1.7 1-3.2-.6-5.8-6.5-10.9-13.1 0-.1-.1-.1 0 0-.1 0 0 0 0 .1-.1 0-.1.1zm67.8 260c-10.8-3.9-23-2.4-34 1.2q0 0-.1 0 0 .1 0 .1 0 .1 0 .1 0 .1 0 .1 7.3 9.6 18.5 12.9 9.5 2.8 19.4 2c3-.3 7-.9 9.2-2.7q.1-.1.1-.2.1 0 .1-.1 0-.1 0-.2 0-.1 0-.1c-1.9-6.3-7.2-10.9-13.2-13.1z" fill-rule="evenodd"/><path d="m574.1 611.9q-.5-.7-.5.1l3.1 40.4q.1.6.6.4l40.5-14.5q.1 0 .1 0 .1 0 .1 0 .8 0 1 .6.2.4.1.7-.9 5.6-1.9 11.2-.1.2-.1.3-.1.2-.2.3-.2.2-.3.3-.2.1-.4.2l-38 13.6q-.1 0-.2.1-.1.1-.1.1-.1.1-.1.2 0 .1 0 .2 6 78.2 12.3 159 .6 7.1.8 13.4c.2 8.7.1 17.8-1.4 26.2q-1.4 7.7-3.9 17.8-2.4 9.1-5.1 15.6-.5 1.1-1.8.9-.2 0-.4-.1-.2-.1-.3-.2-.2-.2-.2-.4-.1-.1-.2-.3-.5-3-.7-6.6c-.6-10.2-.9-20.9-1.7-31.2q-7.8-93.8-15.4-187.9 0 0-.1-.1 0 0 0-.1-.1 0-.1 0-.1 0-.1 0-35.6 12.4-64.3 22.7-.2.1-.5.1-1.4 0-1.1-1.4l1.9-11.2q.1-.1.2-.3 0-.1.1-.3.1-.1.3-.2.1-.1.3-.1l62.1-22q0 0 .1 0 0-.1 0-.1.1-.1.1-.1 0-.1 0-.2-2.4-29.5-4.8-61.5-.3-2.8-1.1-5.7c-1.3-4.4-2.4-8.8-4.3-12.5q-.3-.6-.1-1.2l13.1-31.6q.1-.1.1-.2.1-.1.2-.1.1-.1.2-.2.1-.1.2-.1c.7-.3 1.3.1 1.6.8q3 7.8 5.6 15.3 4.6 12.8 9.6 27.3 5.1 15 8.9 29.7c.3 1.5 1.5 6.2 0 7.2q-.2.2-.4.2-.3.1-.5.1-.2 0-.5-.1-.2-.1-.4-.2-.8-.7-1.5-1.5-5.7-6.5-10.5-12.8z"/><path d="m827.9 616q-.1 0-.1.1 8.3 107.8 16.5 212.5.6 7.6.8 13.3c.2 9.3.2 18.6-1.5 27.8-1.9 10.2-4.7 21.8-8.7 32.1-.4 1.1-1.3 1.8-2.4 1.1q-.2 0-.3-.1-.1-.1-.2-.2-.1-.2-.1-.3-.1-.1-.1-.3-.5-2.8-.7-5.6c-.6-10.6-.9-21.1-1.7-31.6-7.2-87.4-14.5-175-21.3-262.6q-.3-3.5-1.1-6.1c-1.3-4.3-2.3-9-4.4-12.8q0-.1-.1-.2 0-.1 0-.2 0-.1 0-.2 0-.1.1-.2l13.2-31.9q0 0 0-.1.1-.1.1-.1.1-.1.1-.1.1-.1.1-.1c.9-.6 1.6-.1 1.9.7q2.8 7.6 5.7 14.9c.4 1.1.6 2.4 1 3.5q7.4 20.3 13.7 40.5 2.7 8.8 4.3 16.5.3 1.5.1 3.1-.1.3-.2.6-.2.2-.5.4-.3.2-.6.3-.3 0-.6-.1-.7-.2-1.2-.7-6.3-7.1-11.5-13.9 0 0-.1-.1 0 0 0 0-.1 0-.1 0-.1 0-.1.1z"/><path d="m258.4 619.6c3 2.5 7.5.9 9.7-1.7 3-3.5 4.4-9 5.1-13.5q0-.2.1-.3.1-.2.2-.3.2-.1.3-.2.2 0 .4 0 .7 0 .8.8 1.8 10.8.1 18.1c-1.6 6.8-5.2 13.7-11.8 16.5-3.9 1.6-8 .7-10.9-2.3-8.7-8.7-9-21.4-6-32.9 3.2-12.4 8.5-24.9 12.6-36.2q1.4-3.6 2.1-8 .2-1 1.1-1.2.2-.1.4-.1.3.1.5.2.2.2.3.4.2.2.2.5.5 5.4-1.1 11.5-2.6 9.1-5.6 19.6c-2.3 7.8-5.9 23.1 1.5 29.1z"/><path d="m771.9 655.2c7.5-.6 9.8-10.7 10.8-16.5q0-.2.2-.4.1-.1.2-.2.2-.1.4-.1.2-.1.4 0 .5.2.6.8c1.6 10.1 1.3 19.6-4.1 28.1q-3.5 5.3-8.9 6.9c-9.1 2.7-15.3-9-16.7-16q-1.4-7.3.1-15 1.6-8.1 4.5-16.4 3.7-10.1 7.8-20.6 2.3-6 3.4-11.8.2-1.4 1.6-1.3.1 0 .3.1.2.1.3.2.1.2.2.3.1.2.1.3.4 6.4-1.5 12.7-3.1 10.8-6.2 22.1-2.4 8.6-1.8 16.7c.3 3.2 1.5 6.6 4.1 8.8q1.7 1.4 4.2 1.3z"/><path d="m341.5 649.3q.5 2.1.7 0 1.7-12.1 4-24.8 1.2-6.6 2.9-12.3c1.2-4 3.1-9.1 6.4-11.8 6.5-5.3 13.6 4.2 16.9 8.9.4.7.9 1.3.6 2.2q-2.1 5.1-4.1 10-.4.9-1.3.6-.7-.2-1.2-.7-3.5-3.8-7.3-5.2c-4.5-1.8-6.6 4.6-7.3 8q-1.3 6-1.9 11.6-1.4 13.5-3 22.9-.7 4.6-2.4 10.1-.1.4.3.5c8.1 3.3 14.6 10.9 19.4 18.4q.1.1.1.2.1.1.1.2 0 .1 0 .2 0 .1 0 .2l-2.9 12.4q0 .2-.1.3-.1.1-.2.2-.2.1-.3.2-.2 0-.4 0c-10.7-2-27.5-2.7-33.4 8.8q0 .1-.1.2 0 .1 0 .2 0 0 0 .1 0 .1 0 .2.7 5.4 1 7 3.7 19.1 7.1 36.6c2.7 13.4 4.7 27.8 5.4 40.7q.7 13.4-2.2 27.5-.6 3.1-1.8 6.4 0 .1-.1.1 0 .1-.1.2-.1 0-.2.1-.1 0-.2 0-1.2.1-1.2-1.2.4-26.7-4-50.7-3.9-21.4-9.6-45-2.8-12-1.7-22.8.7-7.7 5.1-13.5c4.4-5.9 11.8-8.4 19.2-9.3q.7 0 .1-.4c-4.3-2.6-8.8-3.9-12.3.4q-2.3 2.8-4.8 5.7-.1.1-.4.2-.2.1-.5.1-.2 0-.4-.2-.2-.1-.3-.4-.3-.6-.2-1.4c1.5-7.4 3.3-18.8 11.1-22q.3-.2.3-.6-3.3-15.9-10-29.4c-1.5-3-3.4-5.9-5.4-8.7q-.1 0-.1 0-.1-.1-.1-.1-.1 0-.2.1 0 0-.1.1l-2 2.8q-.3.4-.7.3c-6.7-1-18.6-6.6-13.7-15.6q2.7-5 5-9.3 1-1.9 3.1-1.5c11.1 2.1 18.3 11.9 22.8 21.8q4.5 9.7 6.6 20.2z"/><path d="m430.9 638.5q-2.6 3.5-5.2 7.7-.6 1.1-1.6.6-.1-.1-.3-.2-.1-.1-.2-.3 0-.1-.1-.3 0-.2.1-.3 1.3-7.5 3.9-14.9c3-8.6 9.8-18.5 18.9-21.4 5.4-1.6 9.7 1.8 11.9 6.4 3.4 7 3.4 15.8 1.8 23.5-4.3 20.7-17.9 37.5-33.5 51.3q-.9.9-1.8.2-.1-.1-.2-.1 0-.1 0-.2-.1-.1-.1-.2 0 0 0-.1.1-1 .7-1.8 2.9-4.7 5.9-8.5c7.4-9.3 14.1-18.7 17.2-30.1 1.4-5 2.6-16.6-4.5-17.9-3.7-.7-7.8 1.4-10.3 4-.9.8-1.9 1.6-2.6 2.6z"/><path d="m625.6 767.5c-5.5-11.5-2-25.5 2.1-36.8q4-11.2 8.9-23.9 1.6-4.3 2.6-9.6.1-.8 1-1.1.2-.1.4-.1.2 0 .4.1.1.1.3.2.1.2.1.4c1 3.3 0 8.5-.8 11.6q-2.4 8.5-5.5 19.1-2.8 9.4-3.1 17.1-.2 6.5 2.4 10.6c2.1 3.3 5.9 4.4 9.3 2.5 4.8-2.8 6.7-10.2 7.5-15.5q0 0 .1-.1 0-.1 0-.2.1 0 .1-.1 0-.1.1-.1.5-.5 1.2-.2.3.2.4.6c1.6 10.3 1.3 19.9-4.4 28.6-2.5 3.7-6.9 7-11.4 6.9-5.5-.1-9.5-5.3-11.7-10z"/><path d="m745.3 766.5q2.8-.3 4.8-2.5c3.1-3.6 4.6-9.2 5.3-13.8q0-.1.1-.3 0-.1.1-.2.2-.1.3-.2.1-.1.3-.1.4-.1.7.3.3.3.4.7c1.6 10.5 1.2 20.5-4.9 28.9-4.2 5.8-11.8 9-17.7 3.4-11.3-10.9-8.3-28-3.7-41.5q3.8-11.1 7.8-21.1 3-7.3 4.7-15.1 0-.3.2-.5.2-.2.5-.3.3-.1.6 0 .3 0 .5.2.5.5.5 1.3c.4 4.2-.4 8.4-1.6 12.4q-2.8 9.8-5.4 19.3c-2.2 7.5-5.4 22.1 1.6 27.9q2 1.6 4.9 1.2z"/><path d="m499.1 832.1q2.6 10.3 3.3 21.9.1 1-.5 1.6-.1.1-.1.2-.1 0-.2.1-.1 0-.2 0-.1.1-.2.1-1.1 0-1.9-1.5-5.2-9.5-11.3-19-.1 0-.1-.1 0 0-.1 0-.1-.1-.1-.1-.1 0-.1.1-49.2 12.8-91 43.6-16.2 12-31.7 26.5c-13.4 12.6-26.3 26.2-39.5 39.3q-9.6 9.6-17.4 15.4c-6.3 4.8-14.9 8.1-23.1 8.5-15.5.9-29.3-7.7-38.1-20.3-19-26.8-14.1-62.6-2.9-91.6 6.4-16.7 15.8-33.5 27.6-47.2q2.4-2.8 4.8-4.3 1.1-.7 2 0c1.1.8.5 2.5 0 3.4q-1.7 3.7-3.9 6.9c-17.4 24.7-32 53.7-31.5 84.1q.3 11.9 3.8 21.3c5.3 14 17.2 20.7 31.9 17.5 11.3-2.4 21.2-8.9 30.4-16.2q8-6.4 15.9-14 14.2-13.7 27.6-26.4 21.4-20.2 43.6-36.3 33.5-24.3 70.5-38 .3-.1.1-.4c-10.2-11.4-12.6-26.7-6.7-40.9q3.6-8.3 11.4-16.6 2.9-3.1 6.5-4.9c16.5-7.8 34.3 1.6 47.5 11.6q12.5 9.4 24.9 21.6c1.9 1.9 4.2 4.9 3.3 7.9q-5 16.4-9.5 32.8-.1.2-.2.4-.1.2-.3.4-.1.1-.3.3-.2.1-.5.1l-43.4 11.7q-.4.1-.3.5zm-3.9-52.9c-7.1-2.9-16.9-4.5-23.5-.2-4 2.5-.9 6.2 1.2 8.5q6.2 6.8 11.6 13.9.1 0 .1.1 0 0 .1 0 0 0 .1 0 .1 0 .1 0c9.9-2.6 19.9-5.9 30.3-8.4q.6-.1.1-.5-9.6-9.1-20.1-13.4z" fill-rule="evenodd"/><path d="m282.3 891.8c9 1.5 11.8-9.9 12.8-16.2q.1-.2.2-.4.1-.2.2-.3.2-.1.4-.1.2 0 .4 0 .6.2.7.9 0 .3.1.5c1.5 10.3 1 19.7-4.7 28.1-4.1 6-12.2 9.6-18.2 3.4-12.1-12.3-7.2-31-2.1-45.1q4.1-11.3 6.6-17.7c2.1-5.2 3.6-9.9 4.4-14.2q.1-1 1-1.1.2-.1.5 0 .2 0 .4.2.3.1.4.4.1.2.1.4.5 5.8-1.2 11.7-3.4 11.7-6.4 22.8-2.5 9.1-1.8 17.2.5 5.1 3.9 8.3c.5.4 1.7 1.1 2.3 1.2z"/><path d="m536 932.9c-1.1 7-4.9 14.8-11.2 17.9-5.9 2.9-10.7.2-14.1-4.5-5.6-7.7-6.3-17.2-4.5-26.4q1.4-7.6 4.2-15.3 4.2-11.5 8.7-23.2 1.7-4.6 2.6-9.7 0-.2.1-.4.1-.2.3-.3.1-.2.3-.3.2-.1.3-.2.9-.2 1.2.6c1.1 3.1 0 8.7-.8 11.6-2.5 9.6-6 19.5-7.8 29.3-1 5.5-1.4 12.5 1.5 17.4 2 3.2 5.4 4.5 8.8 2.9 5.4-2.3 7.3-10.5 8.2-15.7q0-.1 0-.2.1-.1.1-.2.1-.1.2-.2.1 0 .2-.1c.6-.3 1.2 0 1.3.6q1.6 9.3.4 16.4z"/><path d="m802.5 926.4c-7.9-.8-14.4 8.5-17.6 14.5q-.1.2-.3.4-.2.2-.5.2-.3.1-.5 0-.3-.1-.5-.2-.6-.4-.4-1.1 1.5-8.3 4.1-15.4c3.2-8.7 10.5-19.1 20-21.1q2.6-.5 5 .7c5.4 2.8 7.7 9.7 8.2 15.6 1.4 16.1-5.8 32.3-15.6 45.3q-7.9 10.5-18.9 20.1-.1.1-.2.1 0 .1-.1.1-.1 0-.2 0-.1.1-.2.1c-1 0-1.4-.8-1-1.6q.8-1.8 1.9-3.3 3.5-5.1 9.5-12.7c7.2-9.3 15.9-25 12.5-37.1q-1.2-4.1-5.2-4.6z"/><path d="m700.8 968.9c7.2-.6 9.6-10.7 10.5-16.3q0-.1.1-.2 0-.1.1-.2.1-.1.2-.2.1-.1.2-.1c.5-.3 1.1 0 1.2.6q1.2 6.5.8 13.1c-.5 8.7-5.2 20.1-14.3 22.1q-5.2 1.2-9.3-3c-7.8-8.1-8.8-19.7-6.3-30.5 2.8-12.1 7.6-23.8 12.1-35.3q2.2-5.8 3.1-11.1.2-.9.9-1.2.3-.1.6-.1.2.1.5.2.2.2.4.4.1.2.1.5.5 6-1.5 12.9c-2.7 9.5-5.9 19.1-7.5 28.3-1 5.8-1.4 14.1 3.2 18.5q2 1.9 4.9 1.6z"/><path d="m271.3 1027.5q-.1.2-.2.2-4.7 1.6-7.8 4.7-.1 0-.2.1 0 0-.1.1-.1 0-.2 0-.1 0-.2.1-.7 0-1.1-.7 0-.1 0-.2-.1-.1-.1-.2 0-.1 0-.2 0-.1.1-.2 3.5-9.7 7-19.3.6-1.8 2.7-2.9 4.4-2.3 9.8-4.4 62.4-23.8 120-45.8.1 0 .2 0 0 0 .1 0 .1 0 .2 0 .1 0 .2 0 .7.3.8.9 0 .5-.2.9-3.5 9.6-6.8 18.8-.1.2-.2.3-.1.2-.2.3-.2.2-.3.3-.2.1-.4.2-59.1 22.3-118.9 45.4-2.1.8-3.9 1.3-.3 0-.3.3z"/></svg>