<svg height="1080" viewBox="0 0 1080 1080" width="1080" xmlns="http://www.w3.org/2000/svg"><clipPath><path d="m67 47h946.22v985.65h-946.22z"/></clipPath><path d="m668.9 106.3c.6-2.4.6-4.9 1.1-7.3q.9-4.4 1.4-8.9.3-2.2.7-4.3.4-2.2.7-4.4.3-2.2.8-4.4c.4-2 .8-4.2 1.5-6.1.3-.9.1-1.8.4-2.7q1.9-7.1 4.3-13 1.1-2.5 2.7-4.6 4.7-5.8 11.2-2.2 3 1.7 5.6 4.7 2.8 3.2 5.3 7 .1.1.2.3 0 .1 0 .3.1.2 0 .3 0 .2 0 .4l-4.6 11.8q-.1.3-.4.5-.3.3-.7.4-.3 0-.7-.1-.3-.1-.6-.3-1-1.1-1.9-2.3-.8-1.1-1.7-1.5-2-.9-2-.9-.6-.4-1.2-.8-.7-.5-1.3-.7-4.2-1.8-6.7 1.5-.9 1.2-1.3 2.6c-.4 1.2-1.1 2.3-1.3 3.5q-2.3 10.7-3.3 22.3-.7 7.4-2.1 14.7c-.2 1.3 0 2.4-.3 3.7q-.8 3.6-1.4 6.9c-.3 1.9-1.2 3.6-1.5 5.4q0 .1 0 .2 0 .1 0 .1.1.1.1.2.1.1.2.1c1.1.7 2.2.8 3.4 1.5 7.6 4.5 14.4 12.2 19.1 19.9q.2.3.2.7l-3.4 14.5q0 .2-.1.3-.1.2-.3.3-.1.1-.3.1-.1 0-.3 0c-8.7-1.6-18.4-1.9-26.3.4q-8 2.2-11.9 8.8c-1.3 2.1 0 8.2.6 10.7q.3 1 .4 2.1c.1 1 .1 2 .4 3.1q.9 2.9 1.1 5.7.2 1.9.7 3.7.6 2 .9 3.9.4 2.8 1 5.5.5 1.9.9 3.7.4 1.6.7 3.8.5 3.2 1.2 6.8.2.6.3 1.2.7 3.1 1.3 6.3 3.6 19 5.1 39.2c1.1 14.1.1 29.5-4.3 42.9q-.1.3-.3.5-.2.1-.4.2-.3 0-.5-.1-.3-.1-.5-.3-.6-.8-.5-1.9.3-9.7-.2-19.6-1.3-23.1-5.3-43.2-1.5-8-3.3-16.6-1.5-7.4-3.4-15.8-1.9-8.1-3.6-15.9-1.9-8.7-2.3-17.8-.4-9.3 2.9-17.3 3.7-8.9 12.1-12.9 6-2.9 13.7-3.6.6-.1.1-.5c-4.2-2.9-9.6-4.7-13.6-.4q-2.9 3.1-6 7-.7.9-1.7.5-.2-.1-.3-.2-.2-.1-.3-.3-.1-.2-.1-.4-.1-.2 0-.4 1-6.2 2.6-12.3c1.6-5.8 4.6-11.4 10.1-14.1q.5-.3.4-.9-1.8-7.7-4.1-15.6c-.3-1-1.1-2.1-1.2-3.1q-.1-.6-.3-1.3-1.5-3.8-3.1-7.6-3.5-8.4-8.5-15.6-.2-.2-.4-.3-.2-.1-.5-.1-.3.1-.5.2-.2.2-.3.4-.7 1.5-1.9 2.6-.1.1-.2.1-.1.1-.2.1-.1.1-.2.1-.1 0-.2-.1-8.2-1.4-13-5.6c-4-3.5-5.3-8-2.7-12.7q3.1-5.5 5.7-10.4c.7-1.3 2.1-2.2 3.6-1.9 11.2 2.4 18.6 10.6 24.1 20.5q3.1 5.8 5.2 11.6.9 2.6 1.9 5.1.9 2.3 1.4 4.8.9 4.2 1.9 7.6.2.6.3 0z"/><path d="m448.4 109.8 93.9-34.3q.3-.1.7 0 .3 0 .6.3.3.2.4.5.1.3 0 .7l-2.2 13q0 .2-.1.4-.1.1-.2.3-.1.1-.3.2-.1.1-.3.1l-93.8 34.4q-.4.1-.7.1-.4-.1-.6-.3-.3-.2-.4-.6-.1-.3-.1-.6l2.2-13.2q.1-.1.1-.3.1-.2.2-.3.1-.1.3-.2.1-.1.3-.2z"/><path d="m772.8 150c10.3 2.4 13.8-11.4 14.9-18.6q.1-.1.1-.2 0-.1.1-.2 0-.1.1-.1.1-.1.1-.2.8-.6 1.4-.1.3.2.3.5 1.4 7.5 1 15.1c-.5 8.9-4.6 19.8-12.6 24.3q-5.3 3-10.2 1.1-3.3-1.3-6-4.7c-7.6-9.5-8.5-21.4-6-33q2.1-9.4 6.3-20.6 4.3-11.6 8.5-22.9 2.2-5.8 3.1-11.4.1-.3.3-.6.3-.3.6-.4.4-.1.7 0 .4.1.7.4.5.6.6 1.6c.1 4.6-.4 8.9-1.7 13.4q-3.7 12.8-7 24.6-1.9 6.8-2.4 13.9-.5 6.4.6 10.3 1.2 3.9 4.1 6.5.2.3.5.5.3.2.6.3.3.2.6.3.4.1.7.2z"/><path d="m898.4 165.4q0 .2-.1.4-13 17.1-30 33.1-6.2 5.8-13.4 11.2-6.2 4.7-17.7 11.1c-17.1 9.7-34.8 19.5-52.9 27.7q-2.4 1-4.9 1.7-.4.1-.7.1-.3-.1-.5-.3-.3-.2-.4-.5-.1-.3-.1-.6c.1-1.5 2.1-2.7 3.2-3.4q18.6-12.4 38.6-25.8 35.1-23.7 65.7-53.5 2.8-2.7 5.6-6.5.2-.3-.2-.5-6.1-4.1-10.8-7.9-2-1.6-4-4.2-5.9-7.6-3.7-17.1 2-8.6 9-14.9 6.8-6.1 14.3-8.9c7.1-2.7 15.1-2 18.4 5.5 3.3 7.7 2.1 17.7-.8 25.8q-1.6 4.6-2.9 8.1-.2.4.2.6l8.4 6.3q1.2.8.5 2.1l-8.9 16q-.1.2-.3.4-.3.2-.6.3-.2 0-.5 0-.3-.1-.6-.2l-9-6.1q-.2-.2-.4-.1-.1 0-.3-.1-.2 0-.2.2zm-7.3-39.9c-1.6.5-3 1-4.4 2.1q-1.2 1-.2 2.3 2.9 3.8 7.3 6.6 3.3 2.1 6.5 4.1.8.4 1-.4 1.4-6.9-1.3-12.1-.5-.9-1.1-1.7-.7-.8-1.7-1.1-3.1-.9-6.1.2z" fill-rule="evenodd"/><path d="m313 169q-2.4-1.6-4.6-3.1-.1 0-.3-.1-.1 0-.3 0-.1.1-.2.1-.1.1-.2.2-13.2 17-29.2 32.4c-10.2 9.8-20.9 17-34.2 24.4q-14.7 8.1-29.9 16.3-13.3 7.1-23.9 11.3-1.1.5-2.4.6-.3 0-.5-.1-.3-.2-.5-.4-.1-.2-.2-.5 0-.3.1-.6.6-1.6 2.2-2.6c16.7-11 34.2-22.6 50.2-33.8 18.8-13.2 36.5-28.1 53-44.1q4-3.8 7.5-8.2.1-.2.1-.3.1-.1 0-.3 0-.1-.1-.2 0-.1-.2-.2c-5.7-3.4-11.6-7.5-15.5-12.9q-2-2.8-2.9-6.2-1.2-4.6-.3-8.8.7-3 2.1-6.4 1.4-3.3 3.8-5.9 9.2-10.5 21.2-13.6c1.8-.5 5.2-.6 6.9-.1q6.5 1.8 8.4 7.8 2.7 8.8 1 17-1.8 8.1-5.1 15.4 0 .1 0 .3 0 .1 0 .2 0 .2.1.3.1.1.2.2l8.6 6.4q.2.2.3.4.1.2.2.4 0 .2 0 .5-.1.2-.2.4l-9 16.3q-.1.2-.2.3-.2.2-.4.2-.2.1-.5.1-.2 0-.4-.1-1.3-.6-2.4-1.4-1.1-.8-2.3-1.6zm-7.7-43.4q-6.3-1-10.3 3.2-.1.1-.1.2-.1 0-.1.1 0 .1 0 .2 0 .1.1.2c.9 1.2 1.7 2.5 2.8 3.6q3.2 2.9 7.3 5.3 2.1 1.3 4.4 2.8.1 0 .2.1.1 0 .2-.1.1 0 .2-.1 0-.1.1-.2c.9-4.3.8-10.7-2.4-14.1q-.9-.9-2.4-1.2z" fill-rule="evenodd"/><path d="m490.3 128q.2.1.4.2 15.2 7.3 30.3 15.7 1.7.9.9 2.7l-16.7 35.7q-.1.3-.4.5-.2.3-.6.4-.3.1-.6 0-.4 0-.7-.2-1.4-.8-2.9-1.6-13.7-7.5-31.7-16.3-.3-.1-.5-.4-.3-.3-.4-.7-.1-.3-.1-.7 0-.4.2-.8l16.6-35.8q.2-.3.3-.5.2-.2.5-.3.2-.1.5-.1.3 0 .5.1 1.8.6 3.5 1.7.4.3.9.4z"/><path d="m400.5 260.9q-1.5-2.1-2.5-4.8-2.2-5.4-2.3-9.8 0-.7-.1-1.3-.2-.7-.2-1.5 0-10.4 3.2-20.5.2-.6.5-1.2c.5-.7.2-1.2.4-1.9q5.6-16.3 11.6-31.6 2.4-6.2 3.3-12.1.2-1.4 1.5-1.3.3 0 .5.1.3.1.5.3.2.2.3.4.1.3.1.5.5 6.4-1.2 12.8-2.7 9.6-5.5 19.1-2.9 9.7-4 17.2-.6 4.4 0 11.7.1 1.7.7 3.1.8 1.6 1.2 3.1 0 0 0 .1 0 0 0 0 0-.1.1-.1 0-.1.1-.1.1 0 .1.1.8 1.5 2.3 2.5 3.2 2.1 7.5 1.1 1.1-.2 1.8-.9 3.4-3.1 4.9-6.7 2.2-5.1 3-10.8.1-.2.2-.3 0-.2.2-.4.1-.1.3-.2.1-.1.3-.1.9-.3 1.1.7 1.5 7.6 1 15.7c-.6 8.3-4.4 18.3-11.7 23.1-4.3 2.8-9.4 3.3-13.7.2q-1.5-1.1-2.9-2.8-1.4-1.6-2.6-3.4z"/><path d="m882 494.7q8 100.9 16.5 210.9 2 25.4 2.2 50.2c.1 9-.2 18.4-1.3 27.1q-1.1 9.5-3.1 16.4-2 6.7-4.1 13.4c-4.4 13.4-14 21.8-26.6 27.3q-10.6 4.6-23.6 3.6c-10.5-.8-20.2-4.6-26.8-12.9q-9.2-11.4-12.2-24.9-1.1-5.3-2.3-10.3-.4-1.9-1.6-3.9 0-.1-.1-.1-.1-.1-.3-.1-.1-.1-.2-.1-.1.1-.2.1-.5.3-.9.7-14.3 18.6-26.9 30.9c-15 14.5-38.5 18.4-57.7 12.9-12.1-3.5-21-13.3-26-24.5q-1.4-3.1-2.8-6.4-.1-.1-.2-.2-.2-.1-.3-.2-.2 0-.4 0-.1 0-.3.1-.8.5-1.3 1.5c-4.3 8.8-9.4 17.7-16 24.9q-14.9 16.1-36.2 16.2c-13.6 0-24.2-10-27.8-22.7q-1.1-4-1.9-8.2-.5-2.4-1.6-.2c-6.9 12.4-16.1 24.2-27.8 31.5q-20 12.5-42.4 8.1-13.8-2.8-22.8-13.1c-6.9-8-9.8-19.8-10.9-30.5q-.2-1.5-1.3-2.5-.4-.3-.8-.2c-2.7.8-6.2 4.8-7.7 6.7-6.4 8.3-13.2 17-21.1 23.6q-5.6 4.7-13.5 8.4c-23.9 11.5-57 15-80.2-.3-14.3-9.5-23.2-22.1-28.4-38q-5.5-16.7-6.7-34.2-1-13.6-1.6-27.5-1.5-30.1-5-85.1 0-.1-.1-.1 0 0 0 0-.1.1-.1 0-.2-9.2-1-17.3-.5-4.2-.6-7.9-.1-4-.4-8-3.8-53.4-9.5-107.1 0-.1-.1-.2 0-.2-.1-.2-.1-.1-.3-.1-.1-.1-.2 0-21.6 3.3-43.3 0c-3.3-.5-6.3-1.5-9.6-2q-.7-.1-1.4-.5c-.7-.4-1.4-.4-2.2-.6-27.5-9.7-46.6-30.3-57.4-57q-6.3-15.5-8.7-33.1-3.5-26.6 1.9-55.8 1.4-7.7 4-15.6 2.8-8.3 6.3-17.2 1.2-2.9 2.4-5.9 3.3-7.8 6.7-14.3c.8-1.5 2.2-4.3 4-4.8q1-.3 1.6.5.7.9.6 2.2c-.4 4.4-1.4 8.8-2.7 12.9q-7.2 22.7-10.2 46.6-4.4 34.2 10.8 63.8 10.9 21.5 32.9 32c17.7 8.4 38.9 8.8 58 7.1q0 0 .1 0 .1-.1.1-.1.1-.1.1-.2 0 0 0-.1l-3.3-14.4q-.3-1.4.2-2.6l14.7-35.7q.1-.1.2-.3.1-.1.2-.2.1-.1.3-.2.1-.1.3-.1.6-.1 1.1.2.4.3.5 1 .8 3.4 1.7 6.7.5 1.8.8 3.7.3 1.9.9 3.8.6 1.9.8 4 .3 2.5 1 4.7.5 1.5.5 3.1.1 1.7.5 3.3.6 2.6 1.2 5.4.6 2.8.8 5.3.3 3.9 1 7.9 0 .1.1.3.1.1.2.2.1 0 .3.1.1 0 .3 0c46.6-10.5 88.8-32.9 128.5-61.9q18.6-13.6 30.8-27.1.6-.7.5-1.5-6-51.5-29.7-95.9-.5-.9-.3-2 3.5-20.2 7.1-40.5 0-.1.1-.3.1-.1.1-.3.1-.1.2-.2.1-.1.2-.2.8-.6 1.5-.1.4.3.7.8 8.8 12.3 15.5 19c2.6 2.7 7.7 6.5 11.4 8.2 14.4 6.5 34.8-1.5 42-15.6 4.7-9.3 7.4-19.7 10.9-29.3 1.9-5.2 5.5-12.8 12.6-8.8 2 1.1 3.7 3 4.9 4.9q3.4 6 5.4 13.9 4.3 17.7 5.9 38.1.5 6.9 3.7 20 2.2 9 7.3 19.4 4.5 9.3 10.6 14c10 7.7 23.7 12.4 36.2 13.9q8 .9 16.7.7 41.5-.8 82.4-10.8c33.4-8.3 66.5-20.2 98.7-33.3q23.3-9.5 45.3-17.8 7.7-2.9 17.6-5.9 12.1-3.7 22.6-1.7c5.3 1 11.8 3.6 15.1 8.2 5.3 7.2 4.7 18.7 1.8 27q-4.5 12.6-14.7 24.7-10.7 12.6-22.4 25.4c-10.9 11.9-20.7 23.5-28.4 37q-3.1 5.5-6.2 10.7-1.2 2.1-2.5 3.4-.9 1-1.9.9c-2.9-.2-1.4-6.1-1-7.8q2-7.2 4.8-13.2 2-4.4 5.5-11 9-16.8 23.3-32.2 7.6-8.2 14.6-15.3c3.4-3.5 9.3-9.8 8.2-14.7q0-.1-.1-.2 0-.1-.1-.2-.1-.1-.2-.2-.1-.1-.2-.1-.7-.5-1.4-1c-1.8-1.3-6-1.3-8-1.2q-7.2.7-16 3.5-18.2 5.8-33.1 11.9-32.2 13.1-64.7 25.2c-49.3 18.4-102.2 31.3-153.5 30.5q-18.9-.3-36.6-8.7c-7-3.3-14-8.5-18.1-15q-4.3-6.9-7.4-14.5-5.1-12.8-8.7-28.2-2.1-9-3.7-17.1c-.2-.7-.1-1.3-.2-2q-1.2-4.7-2.1-9.2-2-9.9-4.9-16.8-.8-2-2.2-3.9-.5-.7-1.4-.9c-2.3-.6-4.3 2.4-5.1 4.2-4.3 9.4-8.5 18.1-14.8 26.2-8.3 10.8-19.3 17-33.2 17q-.6 0-.5.6.9 3 1.4 5.9.6 3 1.3 6 .8 3.3 1.3 6.6c3.3 20.8 3.7 43.2-.8 62.7-4.5 19.4-16.4 34.8-32 47-41.2 32.1-86.1 57-135.8 70.1q-.4.1-.4.6 2.5 23.2 4.3 44.7 6.7 83.3 10.3 170.5.5 11.2 3 27.8 2.8 17.6 8.1 29.1c9.3 20.1 31.8 26.8 52.3 25.9 22-1 46.1-8.9 61.4-25.3q7.5-8.1 15.1-15.7 5.6-5.6 10.3-9c1.7-1.3 8.6-5.6 10-2.2q.6 1.4.1 2.8-1.6 5.2-2.9 10.5c-1.3 5-1.9 12 0 16.9 6.1 15.1 21.7 21.1 37.4 21.3q10.3.1 19.1-3.9c18.5-8.4 28.2-27.7 39.8-43.2 2.9-3.9 7-8 12.1-8.8 2.6-.4 3.9 2 2.9 4.3-3 7-5.7 14.5-5.1 21.3q.1 1.5.8 4.9.5 2.7 1.4 4.7 3.1 6.7 9.7 9.4 5.2 2.2 12.7 1.4c15.9-1.5 27.3-11.7 36.2-24.9q6.3-9.2 9.4-15.1 1.3-2.3 3-4.8c1.7-2.6 3.4-4.9 6.6-5.6q.3-.1.6 0 .4 0 .6.1.3.2.6.4.2.2.3.5.6 1 .2 2.4-1.1 4.7-1.7 8.8c-.3 1.6-.1 3 0 4.5q.1.9.5 1.7 4.9 9.7 13 15.9 3.5 2.6 8.4 4.3c18.5 6.5 42.1 2.4 56.5-11.2 8.3-7.8 15.5-16.6 22.7-25.1q3.7-4.2 8.5-7.3c3.1-2.1 6.5-.9 6.4 3.2q-.1 4.9 0 9.2 0 3.2 1.1 7.9 1 3.8 2.4 7 3 6.5 8 12.8c10.8 13.5 33.1 14.1 47.9 7.6q5.3-2.4 10.2-5.3.1 0 .2-.1.1-.2.2-.3.1-.1.1-.3 0-.1 0-.2-1.1-19.6-2.5-39-3.6-49.3-7.7-100c-.1-2.2 0-4.4-.3-6.6q-.2-1.3-.4-2.6-4.7-61.6-9.5-120.6-1.8-23.2-4.1-47-.3-3.6-1.4-6.8-2.6-7.2-5.3-14.2 0-.2-.1-.3 0-.2 0-.3 0-.2 0-.3.1-.2.1-.3l14.7-35.3q1.8-4.5 3.6 0 3 7.7 6.1 15.1c.7 1.9 1.2 3.9 2 5.8q10.3 26.2 18.1 50.2c1.5 4.8 2.8 9.7 3.6 14.7q.3 1.7-.2 3.2c-.7 2-2.9 1.8-4.2.7q-2.6-2.3-4.4-4.4-1.8-2.1-3.7-4-2.3-2.3-4.5-5-.8-.9-.7.3z"/><path d="m304.2 255.9q2.5-5.3 4.5-9.4.8-1.6 2.3-.7.3.2.6.3 13 6.3 33.5 17.3c1.1.6 1.9 1.5 1.3 2.8q-8.5 18.2-16.7 35.9-.2.3-.4.5-.3.2-.6.3-.3.1-.6.1-.3 0-.6-.2-16.6-9.1-34.8-18-.3-.1-.5-.4-.3-.3-.4-.6-.1-.4-.1-.7 0-.4.2-.7 6.2-13.1 12.3-26.5z"/><path d="m330.5 420.1q-2.6 2.6-5.6 4.7-.4.2-.8.1-1.2-.2-1.2-1.4 0-.9-.2-1.7-2.8-12-6.2-22.4-4.4-13.6-12.3-25-.1-.1-.2-.2-.1 0-.3 0-.1 0-.2 0-.2.1-.2.2l-2.1 2.8q-.2.4-.7.5c-1 .3-1.9-.2-2.9-.4q-8.8-2.2-12.8-7.8c-2.6-3.6-2.1-7 0-10.7q3.2-5.9 5.5-10.1c.8-1.5 2.4-1.8 4-1.4q10.2 2.5 16.9 10.7 7.6 9.4 12.3 22.7 3 8.3 4.4 15.3.1.6.3.1.6-1.4.9-2.9 1.8-12.3 3.9-25 .3-1.8.8-3.8c.4-1.6.6-3.7 1.3-5.2.4-.7.1-1.5.4-2.3q1.3-4.7 3.1-9.4 1.8-4.9 5.1-8.1c3.3-3 8.2-2.1 11.4.6q5.3 4.3 9 10.5.1.2.2.4.1.2.1.4 0 .2 0 .4-.1.2-.1.4l-2.9 7q-.2.4-.5.6-.3.3-.4.7-.1 1.7-1 3.1-.1.4-.5.6-.3.2-.6.2-.4.1-.8 0-.3-.1-.6-.4-1.8-1.6-3.6-3.4-.7-.8-1.8-1.3c-.9-.5-1.5-1.2-2.5-1.5q-4-1.2-6.1 1.4-1.5 1.8-2.7 4.8-.1.2 0 .4.1.1 0 .3-.5 2-1 4-.5 2.1-.8 4.2-1.6 12.6-3.2 26.4-.9 7.1-2.9 15.5c-.3 1.2-.9 2.2-1 3.4q-.1 1.2-.9 2z"/><path d="m859.1 393.7q-.1.1 0 .3 0 0 0 0 0 0-.1 0 0 0 0 0-6.8 2.6-12.8 1.8-3.5-.4-6.5-3.3-.1-.1-.2-.1-.1-.1-.2 0-.1 0-.2.1-.1 0-.1.1c-4.9 12.8-17.8 22-31.4 15.9q-2-.9-4.1-1.8c-3.9-1.8-7.9-1.8-12-.5-8.5 2.9-16.2 9.9-22 16.2-7.7 8.5-14.9 17.4-24 23.8q-6.3 4.3-13.6 8.5-10.4 5.8-22.5 9.1-6 1.6-12.5 3-.5.1-.9.2-.5.1-1 .2-.5.1-1 .2-.5.1-.9.2-7.6 1.5-15.7 2.9-.7.1-1.5.2c-.9.1-1.5-.7-1.4-1.6q.1-.1.1-.2 0-.1.1-.2 0-.1.1-.1.1-.1.1-.2 1.4-1 2.8-1.6 11.7-5.1 23.2-9.9 15.3-6.3 30.1-14.8c11-6.2 20.4-14.2 28.8-23.6q6.7-7.4 14.3-15.5 7.5-8.1 15-12.5 9.2-5.4 17.2-.1c7.8 5.1 20.7 3.1 25.6-5.4q2.8-4.7 5.7-9 1.2-1.9 3-3.8.1-.1.4-.2.2-.1.4-.1.2 0 .5.1.2.1.4.2.7.8.6 2.1-.3 2.3-.4 4.4 0 .5.3.9 1.2 1.6 3 2.1 5.8 1.7 14.6-.1.5-.1.3-.6-1.1-3.5-3.3-6.1-.2-.3-.1-.7l3.1-11.5q.1 0 .1 0 0 0 0-.1 0 0 0 0 .8-1.3 1.7-.5.8.6 1.2 1.5 3.9 7.2 2.6 13.8-.6 2.9-1.5 6.5-.8 2.8-1.7 5.8-1 2.9-3.6 4-.1 0-.1 0z"/><path d="m969.4 469.6q.2.1.3.3 8.6 23.9 15.5 47.6.7 2.2 1.2 4.6c.7 3.1 1.9 7.2 1.6 10-.2 1.3-1.6 2.1-2.8 1.3q-.9-.6-1.5-1.4-1.7-2-3.5-4.1-1.9-2-3.6-4.2-2.7-3.5-5.2-6.6-.8-.9-.7.2 10.3 133.5 19.4 252.2 1.3 16.1.1 31.9-.7 8.8-4.1 22.5-.2.6-.5 1.1c-.3.6-.1 1.1-.2 1.7q-2.4 10-6.4 20.8-.6 1.6-2 2-.1 0-.2 0-.1 0-.2 0-.1 0-.2-.1-.1 0-.2-.1-1.1-.9-1.3-2.7-1-15.2-1.5-26.6-.5-9.5-1-16.2-12.6-151.6-24.7-303.2-.1-1.7-.3-3.5-.3-1.4-.7-2.8-1.9-6.4-3.6-11.5-.6-1.9-1.6-3.9-.1-.1-.1-.3-.1-.1-.1-.2 0-.1 0-.3.1-.1.1-.2 7.5-18.1 15-36.2.5-1.4 1.7-1.5.1 0 .2 0 .1 0 .2.1.1 0 .2.1.1.1.1.2c1 1.3 1.2 3 1.8 4.5q4 9.8 7 18.9 0 .1.9 2.3.7 1.5.7 3 0 .2.2.3z"/><path d="m581.7 481.8q-.4-.1-.8.1-4.9 2.2-9.9 3.7-1.2.3-2.4.9-1.2.7-2.6 1.2-8.2 3-16.7 6-5.8 2.1-11 4.5-1.8.9-3.5 2.1c-1.4 1-2.6 1.3-3.3 3.1q-.2.4 0 .7.8 1.1 1.7 2 4.9 4.1 10.7 7.3.2.1.3.2.2.2.3.3.1.2.1.4 0 .3 0 .5l-2.3 13.3q-.1.4-.6.6-.9.4-1.9-.2-7.6-4.7-11.7-9.1-7.6-8.2-6.9-18 .1-1 .5-2c.3-.8.2-1.6.5-2.4q2.7-6.6 8.9-10.2c2.8-1.7 5.6-3.4 8.8-4.6q42.1-15.9 84.7-30.6.1-.1.2-.1.1 0 .2 0 .1 0 .2 0 .1.1.1.1 1.1.4.8 1.8-1.1 6.4-2.1 12.5-.1.2-.2.4 0 .1-.2.3-.1.2-.2.3-.2.1-.4.2-2.3 1-5 1.7-1.3.4-2.4.9-1.3.7-2.5.8-1.4.2-2.7.9-1.5.8-3 1.3-12.5 4.2-25.2 9-.2.1-.5.1z"/><path d="m632.5 509q-2.1-.8-4.2-1-2-.2-3.1.7-1.3 1.2-2 2.7c-1.5 3.4-2.4 6.7-3.1 10.6q-.9 5.4-1.3 9.5-.6 5.4-1.2 10.2-.6 4.4-1.1 8.8-.7 5.4-1.9 11.5-.5 2.5-1.4 4.8-.2.3-.1.6.2.5-.1.9-.1.1-.2.4 0 .2.1.4 0 .2.2.3.1.2.3.3c9.1 4.1 16.4 12.5 22 21.1q.4.6.2 1.2l-3.3 14.3q0 .2-.1.3-.1.2-.2.3-.2.1-.3.1-.2 0-.3 0c-11.4-2-32.3-3.2-38.6 9.7q-.5 1.1-.4 2.3 1 5.9 2.1 12.8.1.6.2 1.2.9 3.4 1.4 6.8.4 3 1 5.3.5 1.9.7 3.7.3 1.9.7 3.5.6 2.4 1 4.7.4 2.6.9 4.7.6 2.7 1.1 5.5.5 3.1 1.2 6.1.5 2 .8 4.1.2 2 .6 4 2.2 13.3 3.6 29.1 1.2 14.7-1 30-1 7-3.1 14-.3.9-1.3 1-.2 0-.4-.1-.1 0-.3-.2-.1-.1-.2-.3-.1-.2-.1-.4.7-38.9-8.3-77.2c-.3-1.6-.4-3.2-.7-4.7q-2.9-12.8-6.2-27-1.2-5.3-2-10.4-1.7-10.4-.3-20.5.8-5.6 3.3-9.9 4.8-8.4 11.7-11.1 6.3-2.4 12.8-3.3.1 0 .2-.1 0 0 0-.1.1-.1 0-.2 0-.1-.1-.1c-4.9-3.2-10.2-4.5-14.3.6q-2.6 3.1-5.2 6.3-.2.1-.4.2-.2.2-.4.2-.2 0-.5 0-.2-.1-.4-.2-.8-.6-.6-1.6c1.6-8.8 3.7-22 12.9-26q.4-.2.3-.6-1.2-6.2-3.4-12.3c-.1-.5 0-.9-.2-1.3q-2-6.6-4.6-13.2-3.8-9.2-9.4-17.1-.1-.1-.2-.1-.1-.1-.2-.1-.1 0-.2.1-.1 0-.2.1l-2 2.7q-.2.2-.4.4-.2.1-.4.2-.2.1-.4.1-.3 0-.5 0-6-1.1-10.5-4-2.2-1.4-4-3.7-3.8-5-.7-10.6 3-5.5 5.6-10.4 1.3-2.5 3.9-1.7 1.6.5 3.2.7 1.5.3 3 1.1 9.7 5.1 16.2 16.1 3.7 6.4 6.1 12.6 3.2 8.6 5.4 17.8.2.7.7.2.2-.3.3-.7 2.2-16 4.7-29.5.5-2.9 1.3-5.9c.3-.9.7-1.3.8-2.5q.1-1.6.7-3.2.6-1.6 1.1-3.2 1.8-6.4 5.1-10.2c7.8-9.4 18.1 4 21.7 10.1q.1.1.1.3.1.1.1.3 0 .1 0 .3-.1.1-.1.3-1.9 4.5-3.6 9-.7 1.7-1.4 2.8-.1.2-.4.4-.2.1-.5.2-.2 0-.5 0-.2-.1-.5-.2-3.2-2.2-5.6-5.3-.3-.3-.7-.4z"/><path d="m824.7 514q-1.1.6-2.5 1.1-18.8 6.9-37.6 13.6c-1.2.4-2.4.7-3.5 1.2q-.7.4-1.4.7-7.7 2.8-15.4 5.7-1 .3-2 .7-4 1.4-7.9 2.9-2.6 1-5.2 1.9-2.5.8-5.2 1.9-2.1.9-4.1 1.5-2.3.7-4.5 1.4-1 .4-1.4-.7-.3-.5-.2-1.3 1.3-6.3 2.2-12.5 0-.1.1-.3.1-.2.2-.3.1-.1.2-.2.2-.1.4-.2 48.4-17.5 93.1-34.1.6-.2 1.3-.2.3 0 .5.1.3.1.5.3.1.2.2.5.1.3 0 .5l-2.3 13.1q0 .4-.4.7-1.2.8-2.8 1.2-1.2.3-2.3.8z"/><path d="m230.5 580.4q-6.7-5-9.3-12.3-1.6-4.1-.1-8 1-2.8 2.6-5.4 1.7-2.7 3-5.1 1.7-3.1 3.8-6.3c5.6-8.4 14.7-20.7 25.6-20.7q6.8-.1 11 5.8 1.1 1.6 1.8 3.3.6 1.4.5 2.9c0 2.2.2 4.3-.5 6.5q-.4 1.6-.8 3.1-.6 2.3-2.6 5.5 0 .1-.1.2 0 .1 0 .2-.1.1-.1.2 0 .1 0 .2 0 2-1.1 2.9-.3.3-.7.4-.4.1-.8 0-.3-.1-.6-.3-.3-.3-.5-.6-.6-1.1-1.3-2.2-.7-1-1-2.1-.4-1.2-1.4-1.8-1.1-.5-2-1.4-2.6-2.5-5.2-3-5.4-.9-10.2 1.7-4.7 2.5-8.3 6.3-.1.1-.2.3-.1.1-.1.3 0 .1 0 .3 0 .1 0 .3 1 2.8 2.7 5.3 1.9 2.6 4 4.6 2.8 2.6 7.1 3.5c.8.1 1.2.7 2.2.8q2.1.2 4.4.6c4.5.6 10.3-.4 14-2.2q12.7-6.4 25.4-14.6.1-.1.3-.2.1 0 .3 0 .2 0 .4 0 .1.1.3.2 1 .6.8 2c-.6 4.7-.6 9.4-1.3 14.1q0 .1-.1.2 0 .1-.1.2 0 .1-.1.2-.1 0-.2.1-7.2 4.5-14.8 9.1-21 12.9-39.6 25.2-4.4 3-9 6.5-.2.1-.5.2-.2.1-.4.1-.3-.1-.5-.2-.2-.1-.4-.3-.5-.5-.3-1.3 1.3-5 2.3-10.3c.8-4.6 3-7.8 6.2-11q0 0 0-.1.1-.1.1-.2 0-.1-.1-.2 0 0-.1-.1-1-.9-2.3-1.7c-.8-.5-1.4-1.2-2.1-1.7z"/><path d="m452.1 668.3q-.5 2.6-1.7 4.9-.3.7.4.5c4.6-1.3 9.6-.9 13.8 1.2 8.3 4 10.5 13.4 10.6 21.7q.1 2.7-.6 7.3-.6 4.4-1.1 8.8-.7 5.7-2.1 8.6-3.3 6.5-9.7 9.8-6.7 3.5-13.7 2.1c-11.9-2.3-15.3-14.1-14.8-25.2q.4-8.5 3-17 3.5-12.1 4.9-15.7 1.3-3.6 2.5-7.3 1.2-3.8 2.6-7.6.8-2.4 1.5-4.9.6-2.4 1.2-4.9 6.4-25.6.8-52.6-1.4-6.5-3.3-12.2-2.6-7.9-6.7-16.3-3.8-7.8-9.2-14.3-.1-.1-.2-.3-.1-.1-.1-.3 0-.1 0-.3 0-.2.1-.3l7.9-17.5q.1-.3.3-.4.3-.2.6-.3.3-.1.6 0 .3.1.5.3 1.9 1.9 3.3 4 6.9 9.9 11.5 22.2 2.5 6.8 4.2 13.3 1.2 5.3 2.4 11.7 1.1 6.3 1.5 11.6 2.3 35.6-10.7 69.1 0 .1-.2.1-.1.1-.1.2zm6.6 41.6c3.3-1.1 6.7-2.1 9.5-4.3q.3-.3.1-.7-3.2-6.9-9-8.8-7.8-2.5-15.8.5-.1.1-.3.2-.1.1-.2.2-.1.2-.1.4 0 .1 0 .3.2 1.8 0 3.5-.1 1.4.3 2.8 1.9 5.2 7.3 6.2 4.6.8 8.2-.3z" fill-rule="evenodd"/><path d="m752.4 559.9q0-.2.1-.4 2.4-3.2 5.1-6.4.1-.2.4-.3.2-.1.4-.1.3 0 .5.1.2.2.4.4c3.6 5.2 2.5 9.8 1.7 15.6q-.3 2.4-.8 4.8-2.5 10.5-.8 18.3.8 3.8 3.1 6.9c1.1 1.5 2.5 2.2 4.1 3.2q.9.6 1.9.9 8 1.8 14-3.1c2.7-2.3 5.5-5 6.6-8.5 1.4-4.6.3-9.4-.4-14q-.3-1.9-.9-3.9-1.8-6.3-3.8-12.1-.2-.4 0-.9l4.6-10.8q.2-.3.4-.5.3-.2.6-.2.3 0 .6.1.3.2.4.5c1.5 2.7 2.5 5.4 3.1 8.6q.9 4.6 1.9 9.1c.4 2.1 0 4.4.8 6.3.4.9.2 2 .5 3q1.1 3.8 1.5 7.7 0 .4.2.7.3.3.4.8 2.9 10.8 14.1 11.5 3.9.2 6.9-1.3c3.8-2 2.7-5.8 1.2-8.8q-2.6-5.2-5.5-10.3-1.6-3.1-2.9-7.1-.6-2.1-.6-4.2c0-1.9-.2-3.8.3-5.6q1.9-6.6 4.6-12.4 0-.2.1-.3.1-.1.3-.2.1-.1.2-.2.2 0 .3-.1 1.9-.2 2.1 1.8.6 7.4 3.4 13.4 3.3 7.3 5.7 13 .7 1.6 1.1 3.5.5 1.8 1 3.6c.9 3.4.5 8.4-.6 12.2q-2.4 8.6-8.8 15.2c-6.5 7-14.8 8.9-22.8 3.1q-4.2-3-6.4-7.1-.1-.1-.2-.2-.1 0-.2 0-.2 0-.3 0-.1.1-.1.2c-5.8 11.8-18.2 23.2-31.8 13.9-5.5-3.7-8.3-9.2-9.5-15.8-1.8-9.4-1.2-17.9-.3-27.2.1-1.3-.5-2.2-.9-3.3q-2.8-7.5 2.8-12.8.1-.1.1-.1 0 0 0-.1.1 0 .1-.1 0 0 0 0z"/><path d="m301.1 638.5q1.5-.1 3-.5 1.2-.3 2.1-1 4.6-3.6 6.2-9.6c.8-2.9 1.6-5.5 2.1-8.3q.1-.4.4-.6.7-.4 1.2.1.4.3.5.9c1.7 11.7 1.5 22-4.6 32q-3.9 6.3-10.7 8.3c-5.8 1.7-10.7-1.9-13.9-6.5q-6.3-8.9-5.9-21.2.2-9.2 2.6-15.6c.2-.5 0-.9.1-1.4q1.7-5 3.4-10.3 1.6-4.9 3.7-10.1 3.6-9.3 6.8-18.2.1-.4.5-.8.3-.4.3-.9-.1-.3 0-.6l1.7-7.4q0-.1.1-.2 0-.1.1-.2.1-.1.2-.1.1-.1.2-.1.6-.2 1.2-.1.2.1.3.2.2.1.3.2.1.2.2.3.1.2.1.4.3 4.1-.2 8c-.3 1.5-1 3-1.1 4.5q0 1-.3 1.9-3.2 11-6.5 22.6-1.9 6.9-2.8 14.8-.7 6.5.7 11.7 1.1 3.6 4.4 6.5 1.6 1.3 3.6 1.3z"/><path d="m157.4 643.3q.4 1.8.7 0 2-14.7 4.6-29.2.8-4.4 1.9-8.5 1.2-4.4 2.4-8.3 1.2-3.7 3.3-7.1c8.1-13 19.3 1.1 23.4 8.2q.1.1.1.2 0 0 .1.1 0 .1-.1.2 0 .1 0 .2l-4.9 12q-.2.3-.4.5-.2.2-.5.2-.3.1-.6 0-.3 0-.5-.2-2.8-2.4-5.6-4.8-1.4-1.2-2.6-1.5-1.5-.5-3.1-.5c-4.9-.1-6.8 10.1-7.4 13.6q-1.5 9.7-2.9 23.1-1.2 12.4-4.5 24.2-.5 1.6-1.6 2.5-2.4 2-4.8 3.9-.2.2-.6.2-.4.1-.7 0-.3-.2-.6-.4-.2-.3-.2-.7-2.9-15.6-8.7-30.6-3.9-10-10-18.7-.1-.1-.3-.2-.1-.1-.3-.1-.1 0-.3.1-.1.1-.2.2l-1.9 2.8q-.1.1-.3.2-.1.2-.3.2-.2.1-.4.1-.2.1-.4 0c-6-1.1-12.6-3.8-15.6-9.2q-2.4-4.2-.3-8.1 3.1-5.8 6.1-11.4c.7-1.1 1.9-2.2 3.3-1.9 18.9 3 28.9 26.7 33.2 43.1q.7 2.8 1.5 5.6z"/><path d="m251.2 643c1.9 1.6 2.8 3.8 4.5 5.7q11.6 12.7 24.5 25.6c2.1 2.1-.1 4-2.3 4.1q-6.2.2-12.2-.9-.1 0-.3.1-.1 0-.1.1-.1.1-.1.2-.1.2 0 .3 3.8 8.7 7.9 16.8c7 14.1 11.6 28.7 12.6 44.3q1.7 24.1-10.7 44.6c-6 10.1-16.1 18-26.7 22.6q-5.6 2.5-15.6 4.9-17.9 4.4-36.4 10.5-23 7.5-43.2 17.4c-18.1 8.9-34.6 20.3-47.3 35.8q-.1.1-.2.3 0 .1-.1.3 0 .2 0 .4.1.2.1.3c2.2 5.9 8.8 9 14.8 10.7q10.7 3.1 20.7 4 16.4 1.4 35.9 1.9 28.6.7 54.6.5 69.7-.3 139.5-3.5 9-.5 16.3-1 50.9-3.4 105.9-5.5 7.7-.3 15.2.2 1.4.1 2.4.6.3.2.5.4.2.2.3.5.1.3.1.6-.1.3-.2.5c-2.1 3.8-5 5.6-9.3 7.4-6 2.5-12.7 5.1-19 7.2q-47 15.4-95.5 26.5-5.1 1.1-10.7 1.5-14.7.9-30.5 1.6-75 3.2-148.7 3.1-27.3-.1-55-1.3-13.1-.6-24.5-2.5-11.4-1.8-18.8-7.1c-9.6-6.8-11.9-18.5-10-29.5.4-2.2.6-4.4 1.2-6.5q1.5-5.5 3.2-11.1 1.1-3.3 2.4-6.7 3-8.6 7-16.9 6.2-13.1 12.9-21.7c11.5-15 29.9-26.6 47.4-35 25-12 50.8-19.6 78.4-26.3q9.8-2.4 19.3-7.5 4.2-2.3 7.3-4.9.2-.2.4-.5.1-.2.2-.5 0-.2 0-.5 0-.3-.1-.5-2.4-5-4.4-10.1c-2.8-6.7-5.8-12.7-9-19.1q-8.9-17.8-15.6-36.4-1.5-4.1-4.5-15.1-.1-.4-.5-.6l-6.3-2.6q-.2-.1-.3-.3-.2-.1-.3-.3-.1-.2-.1-.4 0-.2 0-.4 4-17.4 8.6-37.8.2-.6.5-1.1.2-.2.4-.4.3-.1.5-.1.3 0 .6.1.2.1.4.3 6 6.1 11.9 12.5 0 0 0 .1 0 0 0 .1 0 0 .1 0z"/><path d="m787.6 655.2c11.8 6.1 23.9 11.9 34.9 18.2q.2.1.4.4.2.2.3.5.1.3.1.6 0 .3-.2.6-8.1 17.4-16.2 34.9-.4.8-1 1.7-.1.1-.3.3-.2.1-.4.1-.2.1-.4.1-.3-.1-.5-.2-17.4-9.6-34.9-18.1-.4-.1-.6-.4-.2-.3-.4-.6-.1-.3-.1-.7.1-.3.2-.7l16.8-35.9q.1-.3.4-.5.2-.3.5-.4.4-.1.7-.1.4.1.7.2z"/><path d="m124.9 725.9q-.5.9-1.3 1.7-.7.8-1.1 1.9-.8 2.3-1.8 4.6-1 2.1-1.5 4.6-.9 5-1.8 10.2-.2.9-.5 1.7-.1.3-.4.5-.3.2-.6.2-.3 0-.6-.2-.2-.1-.4-.4-.5-1.1-.7-2.4c-.9-6.2-1.5-12-.8-18.4q.6-5.4 2.2-8.8c2.9-6.3 9.8-14.2 17.4-13.3 5.6.6 6.1 5.7 5.6 10.4q-1 9.4-.8 15.9.1 3.2 2 7 1.9 3.8 5 5.3c8 3.7 15.9-.9 19.1-8.4q.8-2.1.6-4.2-.4-5.1-2.7-11.1-2.3-5.8-4.9-10.9-.1-.1-.1-.3-.1-.1-.1-.2 0-.2 0-.3 0-.2.1-.3l2.6-9.5q.1-.3.4-.5.2-.2.5-.3.3-.1.6 0 .3.2.5.4 2.2 2.9 3.3 6.2 3 8.8 5.7 19 .4 1.7 1.3 3.4c.8 1.5 1.4 3.2 2.5 4.5q1.7 2.1 4.4 3.6.8.5 1.7.6.9.1 1.9.2 5 .9 8.8-1.6c3-1.9.5-7.4-1-9.5-2.9-4.2-6.9-8.5-8.5-13.2q-1.3-3.9-.5-7.8.7-3.8 1.4-8.1.2-1.6.8-2.8.1-.3.4-.4.3-.2.7-.2.3 0 .6.2.2.3.3.6c1.4 4.2 3 8.6 5.4 12.3q3.8 6.1 6.6 11.2 2.5 4.7 2.7 8.3.1.2.2 0 .1 0 .1 0 .9 6.4-1.9 14.1-3 8.2-9.5 11.4-3.2 1.6-7.4 1.6c-2.3 0-3.9-.8-6.1-1.4q-1.1-.3-2.2-1.1-2.2-1.6-4-3.8 0-.1-.1-.1-.1-.1-.3 0-.1 0-.1.1-.1 0-.2.1-2.2 6.4-6.6 11.2c-8.7 9.4-22 5-26.9-5.5q-3.5-7.2-3.7-14.2-.2-5.7.3-12.4.2-1.4-.3-2.7 0-.2-.1-.3-.1-.1-.3-.2-.1-.1-.2-.1-.2-.1-.3-.1-2.1.1-3.8 1.4-.4.3-.9.2-.4 0-.7.4z"/><path d="m654.4 887.8q-2.5-.9-4.2-2.6-.1-.1-.1-.1-.1 0-.2 0 0 0-.1.1 0 0 0 .1c-3 8.2-9.6 15.4-18.1 17.4q-4.7 1.1-10.7-.3-.4-.1-5.5-2.4-7.2-3.4-15.1-.2c-7.4 2.9-14.1 9.1-19.6 14.9-8.5 9.2-15.9 18.5-26.4 25.5q-10.5 7.2-19.7 11.2-7 3.1-16.2 5.6-.5.2-1.1.2-.8.1-1.6.4-3.3 1.1-6.7 1.8-10.9 2.3-22.1 4.1-.2.1-.5.1-.2-.1-.4-.2-.2-.1-.3-.2-.2-.2-.3-.3-.7-1.2.9-2.1 2.1-1.3 3.9-2 16.1-6.7 30.5-13.1 15.1-6.8 27.5-14.8c12.2-7.9 22-19 32-30.3q5.4-6.1 11.5-11.4c5.4-4.8 12.3-9.6 19.7-8.4 3.6.6 6.1 3.2 9.6 4.3 5.8 1.9 13.6.6 18.3-3.4q2.3-1.9 4.3-5.4c2-3.7 4.6-7.8 7.5-11.1q.1-.2.3-.3.2-.1.4-.1.2-.1.4-.1.2 0 .4.1 1 .4.9 1.4 0 2.3-.3 4.4c-.3 2.2 1.8 3.6 3.7 4q5 .8 9.1.3 2.2-.2 4.7-.4.2 0 .3-.1.2 0 .3-.2.1-.1.1-.3 0-.2 0-.4-1-2.9-3.1-5.4-.6-.7-.3-1.7 1.8-5.8 3.1-10.8.1-.4.4-.6.2-.2.6-.3.3-.1.6.1.4.1.6.4c2.9 4 3.8 8.3 3.7 13.3q-.1 2.2-.8 4.4-.6 2.1-1.1 4.3-.3 1.6-1.8 5.5-1.4 3.4-4.6 4.5-5.5 1.9-10.9 1.4-1.7-.1-3.5-.8z"/><path d="m275.3 1030.3q-.8-.4-1.9-1-13.6-8.3-27.4-15.7-.3-.1-.4-.4-.2-.2-.3-.5-.1-.2-.1-.5 0-.3.1-.6l16.9-36.1q.1-.2.3-.5.2-.2.5-.3.3-.1.6-.1.3 0 .6.1 1.2.4 2.3 1 13.1 7.3 34 20.1.3.2.5-.2l17.2-30.8q.1-.2.3-.4.2-.1.5-.2.3-.1.5-.1.3 0 .5.1 3.1 1.4 6.1 3.1 13.7 7.8 28.7 17.1 1.4.8.7 2.3-9.1 19-16.9 35.3-1.1 2.3-3.3 1-17.3-10.8-35.7-21.1-.1-.1-.3-.1-.1 0-.3 0-.1 0-.2.1-.2.1-.2.3l-16.8 30q-.1.3-.3.4-.2.2-.5.3-.2.1-.5.1-.2 0-.5-.1-1.5-.5-2.9-1.6-.8-.6-1.8-1z"/></svg>