<svg height="1080" viewBox="0 0 1080 1080" width="1080" xmlns="http://www.w3.org/2000/svg"><clipPath><path d="m67 47h946.22v985.65h-946.22z"/></clipPath><path d="m687 147.7q2.8-5 3.9-12.4.1-.7.5-1.2.2-.2.5-.2.2-.1.5 0 .2 0 .4.2.2.2.2.5.9 5 1 10.5.2 5.6-1 10.3-1.6 6.2-5 10.9-2.6 3.8-6.6 6-3 1.6-6.7 1.3-1.8-.2-3.5-1.1c-1.5-.9-3.2-1.8-4.1-3.3q-.4-.8-1-1.5-4.1-5-5.3-10.8-2.1-9.8.3-20.7 1.8-7.8 4.7-15.8 4.6-12.5 9.1-24.5c1.2-3.2 2.2-6.7 2.8-10.2q.3-1.4 1.5-1.7.2 0 .4 0 .3.1.4.2.2.1.3.3.1.2.2.4.6 5.8-1.2 12.4-3.1 11.5-6.3 22.6-1.9 6.5-2.7 13.2-1.1 8.2.9 13.8.5 1.5 2.7 4 1.3 1.5 3.3 1.8 2.5.3 4.8-.5c1.7-.5 2.4-1.6 3.6-2.7q.9-.8 1.4-1.8z"/><path d="m456.3 173.8q-.5-.5-.9-1.1-1.1-1.7-2.2-3.6c-2.7-5-3.5-12.2-3.1-17.5q.7-9.2 3.8-18.5 4-12.2 10.4-28.5c1.7-4.3 3-8.9 3.9-13.4q0-.2.1-.4.1-.1.2-.3.1-.1.3-.2.1-.1.3-.1c.8-.2 1.5.3 1.6 1.1.8 3.9-.2 9.2-1.3 12.9q-4.2 14.5-7 25.3-3.4 12.7-1.5 21.4.5 2.2 2.1 4.5 2.9 4.2 8.1 3 3.7-.9 5.6-4 3.4-5.4 4.5-12.9c0-.6.4-1.2.8-1.4q.2-.1.4-.1.2 0 .4.1.2 0 .3.2.1.2.2.4c2.2 11.9 1.4 27.5-8.8 35.8q-7.5 6.2-15.3.6-1-.7-2-2.1-.4-.6-.9-1.2z"/><path d="m837.8 150.8q-1.5-.3-2.6-1.3-.5-.4-.9.1-15.9 20.4-32.6 35.2-9.9 8.7-23.8 16.6-25.4 14.4-47.9 25.4-3.7 1.8-8.2 3.3-.5.2-1.1.2-.3 0-.5-.2-.3-.1-.4-.3-.2-.3-.2-.6 0-.2.1-.5.6-1.4 1.8-2.2 20.9-13.8 40.8-27.3 31-21.1 58.2-47.4 3.5-3.5 6.4-7.2.1-.2.1-.3 0-.1 0-.3 0-.1-.1-.2-.1-.1-.2-.2-5.3-3.1-10.1-7.2-5.1-4.3-6.9-9.2-1.9-5.3-.4-11.5c.4-1.3 1-2.4 1.3-3.8q.2-.7.6-1.4 5.6-9.9 16.6-15.4 1.9-.9 4-1.5c1.9-.4 3.8-1.5 5.7-1.4q3.2 0 6.1 1.1 2.4.9 3.8 2.9 1.2 1.8 2 4.4 3 10.5-1 21c-.2.7-.1 1.4-.3 2.1q-1 2.6-1.9 5.3-.1.4-.4.7-.5.6-.5 1.2 0 .5.3.8l8.1 6q.2.1.3.3.2.2.2.4.1.2 0 .5 0 .2-.1.4l-8.5 15.4q-.2.2-.4.4-.2.2-.5.2-.3.1-.6 0-.3 0-.5-.2-1.6-1.2-3.2-2.1c-.9-.5-1.4-1.3-2.1-2q-.1 0-.1 0-.1-.1-.1-.1-.1 0-.2 0 0-.1-.1-.1zm-6.8-28.2c1.3.8 2.7 1.9 4.1 2.7q.1 0 .1.1 0 .1 0 .1-.2.1 0 .2.6.1 1.1.3.5.3.6-.3.4-6.9 0-8.2-.7-2.4-1.6-4.4-.3-.5-.6-.9-.4-.4-.8-.6-.4-.3-.9-.5-.5-.1-1-.1-1.4 0-2.8 0-1.4 0-2.8.5-2.2.9-3.7 2.7-.5.6 0 1.3 3.5 4.5 8.3 7.1z" fill-rule="evenodd"/><path d="m405.2 400.5q-.3 1.4.7.3 13.7-16.5 28.7-29.7c22.6-19.9 50.9-35 81.4-27.9q17 3.9 30.8 12.8c13.2 8.4 25 20.6 29.7 35.4q2.8 8.5 1.8 15.9-.6 4.4-2.6 11.3-3.4 11.9-8.1 19.4c-5.8 9.3-15.1 15.9-24.7 21q-17.6 9.4-39.3 17.5-10.9 4.1-20.5 7.1-7 2.2-14 4.1-37.7 10.4-75.6 14.7-7.6.8-15.8 1.5-18.3 1.5-33.1 2.5c-10.6.7-22.2.3-32.5-2.7q-6.5-2-13.5-6.6c-15.1-10.1-23.7-25-28.2-42.4q-3.9-14.8-4.6-29.9-2.4-45.7-4.7-83.2-3.9-64.7-9.1-120.5-.7-7.2-1.4-14.6-1.4-14.2-3.5-30.7-.6-4.8-1.4-9.5-2.5-15.6-6.5-31.5-.3-1.2.1-2.3 3.9-9.4 8-18.7.4-1.1.9-2 .4-.8.6-1.6.2-.9.5-1.6 2-4.3 3.5-8.9.4-1 1.1-1.8.2-.2.4-.3.3-.1.5 0 .3 0 .5.2.2.1.3.4 1 1.9 1.1 4.1.1 1.5.6 2.8c.6 1.6.9 3.1 1.5 4.9q.4 1.2.3 2.7-.1 1.2.4 2.5.4.9.6 2 .1 1.1.4 2 1.7 5.4 2 10.8 0 0 0 .1.1 0 .1 0 .1.1.2.1 0-.1.1-.1 0-.1.1-.2c-.1 1.4-.1 2.9.3 4.3.7 2.3.4 4.7.8 7.1q.7 4 1.3 7.9c.2 1.3 0 2.6.5 3.9.6 1.5.3 3.8.6 5.6q1.3 7.7 2.1 15 .2 1.3.3 2.6 2.8 27.1 4.3 45.1 5.4 63.7 8.5 128.8 1 22.1 2.2 42.6.9 17 4.7 33.7 1.7 7.3 4.8 14.8c6.6 15.5 20.7 23.1 36.8 24.9q13.6 1.6 27 0 .1 0 .1 0 .1 0 .1 0 .1-.1.1-.1 0 0 .1-.1 16.7-25 34.3-48 .6-.8.6-1.8c-.5-25.9-2.2-51.4-4.5-76.7q-.7-7.8-1.3-16-2.2-28.4-4.4-53.5-1.2-13.1-2.4-26.3-4.3-45.6-9.2-88.5-.4-3.6-1.4-6.4-2.1-5.7-4.2-11.2-.4-1-.9-2-.8-1.5-.1-3.1 7.3-17.6 14-33.7 0-.1.1-.3.1-.1.2-.2.1-.1.2-.2.2-.1.3-.1 1.3-.5 1.8.8.8 1.9 1.4 4 .4 1.5 1 2.9.7 1.4 1.4 2.9c.2.6.1 1.3.4 2 .9 1.7 1.7 3.3 2.2 5.2q.4 1.7 1.1 3.6.8 1.9 1.5 3.9.6 2 1.4 4 .2.4.2.8c-.1 1 .6 1.7.9 2.4q6.7 19 12.5 38.4 2 6.7 3.3 14 .3 1.7-.4 2.9-.3.3-.6.5-.4.2-.8.2-.4.1-.8-.1-.4-.2-.6-.5l-10.8-12.9q-.6-.6-.6.2c-.1 2.2.7 4.4.8 6.3q.5 9.6 1.7 19.1.2 1.6.2 3.2 0 1.6.2 3.3 2.1 20.5 4.5 47.1 3 33.7 5.7 68.8 1.9 25 1.8 48.4 0 16.4-3.1 31.1zm-142.2-270.6q0-.1 0-.3 0-.2 0 0 0 .2 0 .3zm114.6 331.4q-.1.1-.2.1-.1 0-.1.1l-2 2.9q-.3.4.2.4 70.4-4.3 135.5-28.5 26.2-9.7 47.6-22.5.9-.5 1.7-1.2.1 0 .2-.2 0-.1 0-.2 0-.1 0-.2-.1-.2-.2-.2-2.8-2.4-5.7-4.9c-15.9-13.6-36.7-24.2-57.6-26.8-23.8-3-46.6 8-65.3 23.1q-14.9 11.9-28.1 26.6-13.7 15.2-26 31.5z" fill-rule="evenodd"/><path d="m296.7 122.4q-.3.3-.6.5-2.9 2-5.2 4.1-1.2.9-.6 2.3 1.6 3.4 4 6.7c1 1.3 3.6 3.3 5.1 3.8q2.7.9 5.3 2 1.3.5 2.8.7 1.5.1 3 .2 7 .5 13.8-2.9 11-5.6 22.4-12.9.1-.1.2-.1.1-.1.3-.1.1-.1.2-.1.2 0 .3.1 1.5.2 1.3 1.6-.5 6.7-1.2 13.4 0 .1 0 .3-.1.1-.2.2-.1.2-.2.3-.1.1-.2.2-15.3 9.6-30.8 19.1-15.3 9.4-28.5 18.8-3.5 2.5-2.5-1.6 1-4.1 1.8-8.5c.7-3.5 1.7-5.9 3.9-8.4q.9-1 1.9-2 .1-.2.1-.3.1-.2.1-.4 0-.2-.1-.3-.1-.2-.3-.3-3.3-2.1-6-4.6c-4.7-4.1-8.9-11.1-7-17q.8-2.4 2.3-5 5-8.9 10.2-16.3c4.9-7 13.1-15.3 21.9-14.8q3.9.2 7.2 3.2c3.5 3.1 5.3 7.5 4.3 12.2q-1.1 5.8-3.4 10.8-.4.8-.5 1.7-.1.7-.8 1.2-1.4 1-2.5-.3-1.2-1.5-1.9-3.2-.1-.4-.5-.7-.9-.8-1.3-1.8-.1-.1-.1-.2-.1-.1-.2-.2 0 0-.1-.1-.1-.1-.2-.1-1.2-.9-2.3-1.9-1.1-1-2.7-1.4-1.8-.4-3.4-.6-1.1-.2-2.2.1-3.3.9-6.5 2.2-.2.1-.4.4z"/><path d="m464.9 248.2q-3.1 1.8-6.9 3.2-4.7 1.7-9.8 4-2.4 1.1-4.6 3.3-.2.2-.5.2-.2.1-.5.1-.3 0-.5-.2-.2-.1-.4-.4c-.5-.9.1-1.7.4-2.5q1.4-4.1 3-7.7.5-1 .6-2 .3-1.5.9-2.6.7-1.2.9-2.5.2-1.1.6-2c.9-1.7.9-3.6 2.4-4.9 2.1-1.9 5.3-3.1 7.8-4.1q69.1-26.7 136.7-52.2.4-.2.9 0 .2 0 .4.2.2.1.3.3.1.3.1.5 0 .2-.1.4l-7.7 21.2q0 .1-.1.3-.1.1-.2.2-.1.1-.2.2-.2.1-.3.2-2.3 1.1-5.2 2.2-63.9 24-111.3 42.3-1.8.8-4 1.1c-1.1.2-1.7.7-2.7 1.2z"/><path d="m693.6 230.2q-1-.5-2.1-.8-2.7-.7-4.7 1.6-1.3 1.6-1.9 3.5-.9 2.5-1.5 5-.6 2.5-.9 5.1-1.6 12.6-3.3 26.2-1 8.5-3.8 17.8-.2.4-.5.7l-5.1 4.2q-.3.2-.6.3-.3 0-.6-.1-.4-.1-.6-.4-.2-.2-.3-.5c-3.1-16.4-8.2-33.4-17.7-47q-.1-.1-.2-.2-.2 0-.3 0-.2 0-.3 0-.1.1-.2.2l-1.9 2.7q-.1.1-.2.2-.2.1-.3.2-.2.1-.3.1-.2 0-.3 0-9-1.6-13.6-6.8-2.6-2.8-2.5-6.2 0-2.1 1.2-4.3 3.1-5.5 5.3-9.9 1.4-2.6 4.5-1.8 9.4 2.5 15.6 10.1 6.5 7.9 10.3 17.5 2.7 7.1 4.5 13.9.7 2.8 1.4 5.2.2 1.1.4 0 1.3-8.3 2.5-16.2.2-1.7.5-3.6 1-6.2 2.4-12.6 1.8-8.6 4.4-15c1.2-2.9 3.7-6.9 6.7-8.1s6.1-.2 8.6 1.9q5.4 4.5 8.8 10.1 0 .1.1.3 0 .1 0 .2 0 .1 0 .2 0 .2 0 .3-.8 2.5-2.2 4.7-.2.2-.2.5-.2 1.7-1.1 3.1-.2.4-.3.7 0 1.1-.6 2.2c-.6 1.3-2.5 1.4-3.2 0q-.4-.7-1-1.2-2-1.7-3.9-3-.3-.2-.5-.5-.2-.3-.5-.5z"/><path d="m337.3 338.9q1.7 2.1 4.1 3.2 1.2.5 2.7.2.9-.2 1.7-.9 3.4-3.1 4-6.5.5-3.2.8-7 0-.1 0-.2 0-.2.1-.3 0-.1.1-.1 0-.1.1-.2.9-1.1 2-.3.1 0 .2.1.1.1.2.3.1.1.1.2.1.1.1.3 2.7 13.6-2.6 25.5c-1.6 3.7-4.7 6.5-9 6.7q-4 .1-7-2.1c-.7-.5-1.5-.8-2.1-1.5q-3-3.6-3.9-6.3-2.4-7.2-1.9-16.4.5-9.5 3.7-22.4 3.2-12.3 6.3-24.6 1.4-5.6.9-14.6-.4-5.9-2.9-12.7c-3.3-8.5-9-16.2-15.7-22.4q-.1-.1-.2-.3 0-.1-.1-.2 0-.1 0-.3 0-.1.1-.2l5.7-14.9q.1-.2.3-.4.2-.1.4-.2.3 0 .5.1.3.1.4.2c9.4 10.5 16 21.4 18.3 35.3q.4 2.2.2 4.4c-.1 1 .5 1.8.5 2.8q.6 15.9-4.1 31.8-3.2 10.5-5.4 19.1c-1.7 6.4-2.5 13.6-.9 20.1q.6 2.7 2.3 4.7z"/><path d="m585.4 309.5q1-1.3 1.9-2.4.3-.4.6-.8.3-.4.5-.8.2-.4.4-.8.2-.5.4-.9c.7-2.2 1.9-4.6 2.1-6.9q0-1.4.5-3 .2-.6.6-.8.5-.2.9 0 .4.2.5.6 1.6 9.4.6 17.3c-1 7.5-5.1 16.7-12 20.2q-6.7 3.5-12-.6-2.4-1.9-4.8-5.2-2-2.7-3-5.8c-2.7-7.8-2.4-14.9-1-22.9q.5-3.1 1.4-5.9 1.6-5 3.1-9.8 0-.2.1-.2.2-.1.3-.3.2-1.9.8-3.3 1.2-2.8 1.2-2.8.8-2.2 1.6-4.3 3.3-9.1 7-19.1c.8-2.1.9-4.5 1.6-6.8q.4-1.2 1.6-.9.2 0 .4.1.1.1.2.2.2.1.2.3.1.2.1.4.6 5.2-.8 10.9-2.3 9.4-4.7 16.4-.5 1.6-.9 3.2-1.5 6-2.8 11.7-1.9 7.6-1.1 15.4.3 3.1 2.4 6.1 3.7 5.4 9.7 3.3 1.5-.5 2.4-1.8z"/><path d="m697.8 501.5q3.7 5.5 4.6 12.1.1.3.3.6.7 1 1.2 2.1 4.9 12.9 9.6 25.9 4.7 13.2 7 22.1c.5 2 3.4 11.5-.4 11.6q-1.7.1-3.1-1.4-5.4-5.4-11.2-11.9-.5-.6-.5.1-.1 3.3.2 6.5.7 5.7.7 5.8 7.3 93.2 14.5 186.4c1.4 18.1 2.4 37.5 2.3 53.4q-.1 12-1.4 23c-1 8.4-3.4 16.2-5.9 24.2q-1.5 5.1-3.5 9.1-4.2 8.4-13.6 14.6-13.9 9.3-30.1 8.8c-14.3-.4-26.9-5.4-36.1-16.3q-6.8-7.9-11-17.4-4.6-10.2-7.6-21.1c-.4-1.4-.4-2.9-.9-4.3q-.2-.8-.5 0-4.3 9.7-10.5 18.5-5.8 8.2-13.8 14-11.9 8.5-24.9 13.3-14.4 5.3-30.6 9.3-44.3 11.2-91.4 16-4.9.5-9.6 1.1c-5.2.7-10.2 1.3-15.6 1.4q-3 0-6 .4-.2 0-.4 0-.2-.1-.3.1 0 0 0 .1-.1 0-.1 0 0 0-.1 0 0 .1-.1.1-77.4 6.1-154.6.9-27.1-1.8-49-5-4.5-.6-8.7-1.1c-3.9-.5-8.2-1.2-12.1-2q-21.8-4.6-40.6-16.6-21.8-14-40.9-26.6-8-5.3-17.4-12.7-4.2-3.3-6.3-7.3c-3.8-7.1-3.7-17.1-2.6-24.9q1.5-11.1 3.9-20 2.8-10.5 5.1-20c4.7-19.2-2.8-37.5-17.2-50.6q-.1-.1-.2-.3-.1-.2-.2-.4 0-.2 0-.4 0-.2.1-.4l5.6-14.5q.1-.3.3-.4.2-.2.5-.2.3-.1.5 0 .3.1.4.3c7 7.8 12.7 16 16 25.9q2.5 7.6 2.9 16.2.7 15.7-3.7 30.6c-1.9 6.6-3.8 13.3-5.6 19.8-1.6 5.9-2.6 13-1.4 19.3q.6 3.7 2.5 6.2 2.1 2.8 5.9 3.2 2.1.2 3.6-1.4c3.8-4 3.5-8.1 4-13q0-.3.3-.6.2-.3.5-.4.4-.2.7-.1.4.1.7.3.6.6.9 1.7 1.6 8.2-.8 18.8-.9 3.6-2.2 5.4-.2.4-.3.8-.4 1.6-1.6 3.1-.5.5.3.7 3.1.5 6.1 1.4 2 .5 4.1.9 2 .3 4 .8 41.8 10 85.2 16.8 41.4 6.5 88.3 8.4 82.4 3.5 163.4-5.6 38-4.2 73-11.9c23.7-5.2 47.6-12.3 69.8-22.6q5-2.4 10.1-6 .1 0 .2-.1.1-.1.2-.3.1-.1.1-.2.1-.2.1-.3c1.3-8.5 1.3-17.5 1.4-26.5q0-7.6-.3-15.9-1.7-40.1-3.8-83-3.6-71.5-11.2-140.9 0-.1 0-.2-.1-.1-.2-.2-.1 0-.3 0-.1 0-.2 0-20.3 12.7-41.2 23.7-9.1 4.9-17.4 8.2-3.4 1.4-9.6 2.5-16.7 2.8-35.6 4.5-22.4 2.2-46.2 3.1-9.4.3-17.7-.1-1.7-.1-3.4-.7-.4-.1-.7-.5-.3-.3-.4-.7-.1-.4 0-.8.1-.4.4-.7.7-.6 1.6-1 5.4-2 8.9-3.2 51.4-17.2 102.3-41.2 7.6-3.6 14.2-7.1 25.1-13.3 49.6-28.6.1-.1.2-.2.1 0 .1-.1.1-.1.1-.2.1-.1.1-.2l5.7-15.7q.1-.2.2-.3.1-.1.2-.2.2-.1.3-.2.2 0 .4 0 1.3 0 1.5 1.2.9 4.7 1.7 8.7 0 .1.1.2 0 .1.1.1.1 0 .2 0 .1 0 .1 0 20.3-12.9 39.7-26.8c16.8-12.2 33.6-25.5 46.8-41.1q2.4-2.8 4.2-5.7 0-.1.1-.3 0-.1.1-.3 0-.1-.1-.3 0-.2-.1-.3l-5.6-13.4q-.1-.1-.1-.1-.1-.1-.1-.1-.1-.1-.2-.1-.1 0-.1 0-20.6 4.9-42.3 3.3-9.5-.7-15.1-2.8c-17.6-6.7-25.6-23.7-23.2-41.9q3.1-23.4 17.7-39.2 5.8-6.4 13-9.9c13.1-6.3 26.5 2.6 35.9 12q15.8 15.9 23.8 37.2 0 .2.1.3.1.1.3.1.1.1.2.1.2 0 .3 0c11-3 22.9-7.6 32-14.3 9.3-7 17-16.4 22.4-26.8q3.1-5.9 6.4-11.5c1.3-2.2 4.2-6.2 7.1-3.8q.7.6 1.4 1.2.1.1.3.1.1.1.2 0 .1 0 .2 0 .1-.1.2-.2 7.2-10.5 15.4-19.7c7.9-8.8 18.1-17.9 30.4-18.9 17.5-1.3 29.7 18.4 34.9 32.6 5.3 14.7 8.4 32.4 3.2 47.3-3.2 9.1-6.7 18.3-11.8 26.2-1.5 2.2-3.5 4-6.2 3.6-24.8-3.5-49.4-11.7-70-26q-5.5-3.8-10.4-8.3-.1-.1-.2-.1-.1 0-.2 0-.1 0-.2.1-.1.1-.1.2c-3.1 7.5-6.4 15.4-10.4 22.7-8.2 15.2-21.4 24.9-37.3 30.8q-.4.2-.4.6.1 4 .2 8.2.2 11.6-2.3 21.8-1.7 6.8-4.9 15.9c-2.9 8.6-7.1 15.5-13.2 22.5-9.2 10.6-19.8 19.9-30.9 28.6q-21.3 16.6-44.8 32-.1.1-.3.2-.1.1-.1.3-.1.1-.1.3 0 .1 0 .3 3.1 21.7 5.3 44.1 3.5 35.4 5.5 70.8 2 34.6 4.2 70 2.1 36.6 6.6 74.6c1.4 12 3.8 24.6 10.1 34.2 10.3 15.7 36.4 18.2 52.4 11.6q6.3-2.5 11.5-5.7.1-.1.2-.2.1-.1.1-.2.1-.1.1-.2.1-.2.1-.3-2-34.3-4.7-68.4-3.9-49.2-7.6-98.4-.6-7-1.1-13.4-.5-5.4-1-13.5-.6-8.2-1.5-17.1-.2-1.9-.4-5.9-.2-2.9-.5-5.8-3.9-49.6-6.4-76.6-.3-3.8-1.3-6.7-2.5-7.1-5.2-14.1-.2-.4 0-.8 2.8-6.8 5.8-14.1.3-.6.7-1.2c.5-.7.2-1.3.6-2q.8-1.5 1.3-3 1-2.7 2.4-5.4.5-.9.7-1.9.3-1.4 1.1-2.7.6-1 .9-2.2.4-1.5 1.2-2.7.2-.2.4-.4.3-.1.6-.1.3 0 .5.1.3.1.5.4c1 1.2.9 2.8 1.7 4.2q1 1.6 1.3 3.6 0 .3.2.6 1.4 1.8 1.4 3.9 0 .4.2.7zm105.6-155.2q13.2 5.7 27.2 9.5.1 0 .2 0 .2 0 .2-.1.1-.1.2-.2 0-.2 0-.3-3.6-12.1-8.8-20.7-2.4-4.2-5.8-6.8-2.8-2.3-6.5-2.7c-10.2-1.2-19.4 3.2-27 9.6q-.1.1-.1.2-.1.1-.1.3 0 .1.1.2 0 .1.2.2 9.2 6 20.2 10.8zm-154.4 22.3c-7.6-2-17.5.5-20.1 8.9q0 .1 0 .2 0 .1 0 .3.1.1.1.2.1.1.2.1c3.1 2.3 7.2 3.2 10.8 4.6 1 .3 1.7-.1 2.7.1q12.4 1.9 25.4 1.6 0 0 .1-.1.1 0 .1-.1 0-.1 0-.1 0-.1 0-.2c-4.2-6.1-9.9-12-16.8-14.8q-.7-.3-1.3-.4-.6-.1-1.2-.3z" fill-rule="evenodd"/><path d="m751.4 431.8q-.9 1.8-2 3.4c-.5.7-.9 1.9-2.1 1.7q-.2-.1-.4-.2-.2-.1-.3-.3-.2-.2-.2-.4-.1-.3 0-.5c2.2-11.4 5.2-21.8 12.4-30.7 3.9-4.8 10.1-9.9 16.4-9.6 5.2.3 8.9 5.5 10.5 10q3.6 10.4.9 22.7-4 18.7-15.3 33.9-9.4 12.6-21.9 23.4-.1.1-.3.2-.2.1-.4.1-.2 0-.4-.1-.2 0-.4-.1-.8-.7-.3-1.7 1.9-3.7 5.3-8 6.7-8.6 11.3-15.4 6.7-9.9 9.6-20.9c.7-2.7.9-5.7.9-8.5q-.1-2.6-.9-5.4-.7-2.6-2.8-3.9-2.4-1.3-5.4-1-4.2.4-7.6 3.7-1.2 1.2-2.3 2.4-1.1 1.2-2.3 2.4-1.3 1.3-2 2.8z"/><path d="m821.8 474.9q0-.1 0-.2 4.2-11.9 9.4-25.3 2.4-6.2 3.7-12.9.1-.3.2-.5.1-.2.3-.3.2-.1.5-.2.2-.1.4 0 1.1.1 1.2 1.3.5 6.3-1.1 11.9-3.8 13.4-7.3 26.2-2.9 10.6-1.7 19.8.6 4.2 3.8 7.8 1.2 1.3 3.1 1.5 3.7.4 5.5-.8c5.2-3.1 7.4-11.1 8.3-17q0-.2.1-.3.1-.2.2-.4.2-.1.4-.2.2 0 .4 0 .7-.1.8.6 2 10.4.3 19.2c-1.3 6.9-4.9 14.4-11 18-13.6 8.1-22.1-11.1-22.5-21q-.4-12.7 5-26.9 0-.2 0-.3z"/><path d="m919.5 845.6c-.7-.5-1.5-.8-2.2-1.4q-2.5-2.3-5.3-4.6 0 0-.1-.1-.1 0-.2 0-.1.1-.1.1-.1.1-.1.1-3.5 8.7-7.5 17.3c-11.9 25.8-36.2 40.8-64.9 37.4q-10.3-1.3-18.6-6.8c-14.3-9.5-22.8-22.6-27.6-38.9-3.7-12.5-5.4-25.5-6-38.3-2.7-54.9-6.1-109.7-10.4-164.2q-.7-8.8-1.5-17.8-2.9-32.2-6-58.8-1-7.9-2.4-15.8-2.6-15.3-6-28.7-.3-1.4.4-3 3.7-8.4 6.8-16.4.3-.7.6-1.3 1-2.3 1.8-4.7.4-1.2 1-2.3.7-1.3 1.2-2.6.9-2.5 1.9-4.8 1.7-4.3 3.3 0 .8 2.1 1.2 5 .2 2 .8 3.8c.6 1.9 1.2 4 1.2 6q-.1 1 .2 2 1.3 4.5 2.3 9 .4 2 .3 4-.2 2 .6 3.9.7 1.6 1 3.6 7.1 51.7 11.2 105.6 5.2 69.5 8.2 139.3.3 8.7 1 16 1.1 11.7 3.5 23.9 1.7 9.6 5.4 18.6c7.6 19.1 25.4 26.1 45.2 24.2q17.5-1.8 30.8-12.7c8.7-7.1 15.7-15.9 20.7-25.8q2.9-5.5 6.3-11.2c1.1-1.7 3.3-4.7 5.5-4.1 1.1.3 1.9 1.2 2.9 1.9q.4.3.7-.1 6.9-10 15.3-19.5c7.3-8.3 17-17 27.7-18.7q9.2-1.6 16.2 2.7c18.5 11.5 27.3 39.9 27.4 60.1.1 5.3-.6 10.4-2.2 15.3q-3.4 10.2-7.5 18.9c-1.3 3.1-4.9 10.8-8.4 11.9q-1.6.5-4.2.1-11.9-1.7-23.2-5-2.8-.8-5.8-1.7-2.8-.8-5.1-1.7-2.5-1-5.1-2-15.1-5.7-29.5-15.5c-.9-.7-1.7-1.5-2.7-2.2zm34.9-23.9q.5.2.9.5c9.9 4.8 21.4 9.3 32.4 11.9q.7.2.5-.5-3.6-12.4-9-21.2-2.3-3.9-5.7-6.6c-4.2-3.3-11.3-3.1-16.2-2q-8.7 2.2-17.2 9.3 0 0-.1.1 0 .1 0 .2 0 .1.1.1 0 .1.1.2 6.8 4.7 14.2 8z" fill-rule="evenodd"/><path d="m173.4 567.9q1.5 1.1 3.7.9 2.1-.1 3.5-1c5.4-3.2 7.3-10.9 8.3-16.9q.2-1.2 1.4-1.1.1.1.2.1.1.1.2.1.1.1.1.2.1.1.1.2 2 11.7.1 20.1c-1.8 8.4-7 17.7-16 19.1-4.6.7-8.4-2.3-11.2-5.8-5.8-7.6-7.1-17.4-5.7-26.6q1.6-10.2 6-22 4.8-12.8 9.4-25.3c1.1-2.9 1.6-6 2.4-9q.1-.3.3-.5.1-.2.4-.3.3-.1.6-.1.2.1.5.3c1.9 1.5.3 10.3-.5 13q-3.3 12.2-6.8 24.5-3 10.6-2.3 19.9.5 6.8 5.3 10.2z"/><path d="m360.4 588.3c.5.5.8 1.2 1.3 1.6q3.6 3.6 8.7 1.7 1.3-.5 2.3-1.7c.9-1.1 1.8-2 2.5-3.3q2.9-5.4 3.8-11.9.2-1.3 1.4-1.3.1 0 .2.1.1 0 .2.1.1.1.2.2.1.1.1.2 1.2 6.8.9 13.5c-.3 9-4.3 20-12.6 24.3-10.2 5.1-17.5-5.3-20-13.4q-2.4-7.6-1.3-15.9 1.4-10.6 5.6-22.1 5-13.8 9.1-24.5c1.5-3.8 2.4-7.6 3.2-11.5q.1-.3.4-.6.2-.2.6-.3.3 0 .6.1.3.1.5.4c1.8 2.7-.2 11.1-1.1 14.3q-2.8 10.4-5.8 20.8-2.8 9.7-3.1 14.6-.3 5.9.1 8.4c.1.9 1 4.8 2.2 6.2z"/><path d="m885.5 624.6q.9-4.3 1.6-9.5.5-4.1 1.3-8.8.4-2.2.7-4.5.3-2.3.8-4.5.4-1.9 1.3-6.6.6-3.2 2-6.7.8-2.2 1.2-4.2.8-3.5 3.7-7.5c2.3-3 5.5-4.6 9.1-3.5q1.7.6 3.6 2.2 4.9 4.1 8.3 9.4.8 1.2.2 2.4-1.4 2.9-2.5 6.4-.7 2.4-1.9 4.4-.1.2-.3.4-.2.1-.5.1-.2 0-.5 0-.2-.1-.3-.3-3.4-3.9-8.8-6.1-1.4-.6-2.8-.4-1.8.3-2.4 1.4-.7 1.2-1.6 2.2-.3.3-.2.7 0 .8-.1 1.1-.9 2-1.6 5.6-1.5 8.3-2.2 14.8-.5 4.5-.9 8.3-.6 4.3-1.1 8.3-.6 4.7-1.5 8.3-1 4.1-2.1 8.2-.1.4-.5.7-2.2 1.9-4.7 3.9-1.1.9-2.3.2-.3-.2-.3-.5-2.6-13.9-7.3-26.7-4.1-11.2-10.4-20.2-.1-.1-.2-.2-.2-.1-.3-.1-.1 0-.3.1-.1 0-.2.2l-2.1 2.8q-.3.5-.9.4-8.9-1.5-13.6-6.8c-3.4-3.7-3.1-7.4-.8-11.6q2.6-4.4 4.9-8.8c.6-1.3 1.9-2.2 3.4-2 14 2.8 22.4 16.3 27.2 28.8q3.4 8.7 5.5 18.2.2.8.4 0z"/><path d="m482.6 663.1q0 .3-.2.4-3 1.4-6.1 2.6-1.8.6-3.4 1.5-1.1.6-2.3 1-1.1.5-2.2 1.3-1.8 1.3-3.7 2.6-3 1.9-4.7 4.6-.8 1.2-1.3 2.8-.1.4.1.7c1.2 2.8 5.4 3.8 8.1 4.1q11.4.9 22.7.7 2.1 0 4.3.2c4.1.3 9.9.2 12.1 4.4 4.4 8.8 1.5 20.6-2 29.2q-8.5 20.6-24.8 33.9c-12.5 10.2-29.1 8.6-44 6.2q-1.6-.2-3.1-.3-1.7-.1-3.3-.3-5.7-.8-12.2-1.4-4.1-.4-5.8-1.2c-1.6-.7-.9-2.5.3-3q3.6-1.5 7.6-2.4 21.2-4.9 27-6.3 9.1-2.4 19.9-6.8 11.3-4.5 21.4-11.3.4-.3.7-.6.9-1.1-.4-1.6-2.4-1-5.3-1c-8.5-.1-17.1.3-25.4-1.2-6.2-1-12.5-4.4-13.8-11q-.7-3.8.1-9.9 1-8.4 3.4-15.9.6-2.1 1.3-4.2.7-2.2 1.7-4.7 1.2-2.6 2.4-5.4 1.8-4.4 6.6-12.3c9.4-15.9 23.9-30.5 41.7-36q.5-.2 1.1 0 .2.1.3.2.2.2.3.4.1.2.1.4 0 .2-.1.4-5.5 15.7-12.3 35-.3 1.1-1.3 1.6-2.6 1.7-5.2 2.3-.1 0-.1 0-.1.1-.1.1-.1 0-.1.1 0 .1 0 .1z"/><path d="m252.2 633.1q0-.2.1-.2 1.1-.9 2.4-1.8 1.3-.9 2.6-1 3.2-.2 6.4 2.1 1.4 1 2.6 2.3 3.6 3.5 6.5 8.3.1.1.1.2 0 0 0 .1 0 .1 0 .2 0 .1 0 .2l-4.8 11.8q-.1.2-.3.4-.2.2-.5.3-.3 0-.6 0-.2-.1-.4-.3-2.4-1.9-4.5-4.2-.7-.8-1.6-1.2-1-.5-2-1.1-1-.5-2.2-.5c-5.3.2-7.1 10.8-7.6 14.7q-1.7 12-3 24.3-1.2 10.7-4.4 20.5 0 .1-.1.2 0 .1-.1.2 0 0-.1.1-.1.1-.2.2l-4.9 4q-.1.1-.3.2-.1 0-.2 0-.2.1-.3.1-.1 0-.3-.1-.9-.3-1.1-1.5-3-15.9-8.8-30.2-3.5-8.8-8.9-16.2-.1-.1-.2-.1-.1-.1-.2-.1-.2 0-.3 0-.1.1-.2.2c-1.1 1.3-1.7 3.6-3.8 3.1-7.6-1.6-19.5-7.5-13.9-17.5q2.7-4.9 5.2-9.6c1.4-2.7 3.3-2 5.9-1.2 11.4 3.3 18.7 14.2 23.4 24.9q3.4 7.9 4.9 14.1.9 3.7 2 7.2.1 0 .1 0 .1.1.1.1.1 0 .1-.1 0 0 0-.1.8-5.1 1.7-10.5 0-.1 1.5-10 1.7-10.9 4.9-21.6.6-2.1 1.5-4.3.9-2 1.8-4.1.3-.8 1.8-2.1.1 0 .1-.1 0 0 0-.1.1 0 .1-.1 0 0 0-.1z"/><path d="m647.9 671.5q-.6.9-1.4 1.8-.7.6-1.1 1.5-1.4 2.7-2.9 4.8-.2.3-.5.4-.2.1-.5.1-.3 0-.6-.2-.2-.2-.3-.4-.4-.9-.1-2 1-3.9 1.9-8 .4-1.9 2.8-8.5c3.3-9 10.2-18.3 19.5-22q4.3-1.7 8 .4 2.8 1.5 4.5 4.1 2.8 4.5 3.3 7.2c.6 3.5 1.2 7 1.1 10.6-.6 26.6-19 50.5-38.4 67.2q-.2.2-.5.2-.3 0-.6-.1-.3-.1-.4-.4-.2-.2-.2-.5 0-1.4.8-2.5 5.7-8.1 12.4-16.8c6.2-8 11.2-17.8 13.3-27.3q1.8-7.8-.7-13.8c-.7-1.8-2.3-3.3-4.2-3.7-5.1-1-9.9 1.9-13.1 5.6q-.6.6-1.2 1.2-.5.5-.9 1.1z"/><path d="m919.5 719q-6 2.2-11.2 4-3.7 1.3-7.2 2.7-1.5.6-2.8.5-.2 0-.3-.1-.2-.1-.3-.2-.1-.1-.1-.3-.1-.1 0-.3.8-6.6 2.2-12.8 0-.2.1-.3.1-.2.2-.3.1-.1.3-.2.1-.1.3-.2l89-32.5q.3-.2.6-.1.4.1.6.3.3.2.4.5.1.3 0 .7-1.2 6-2 12-.2 1.3-1.6 1.5c-1.7.3-3.5 1.4-5 2q-1.6.8-3.4 1.2-1.2.4-2.3.9c-1.8.8-3.9 1.2-5.8 2-1 .5-2.6.5-3.8 1.2q-.7.5-1.4.7-1.9.7-3.8 1.4-7.7 2.8-15.1 5.6-3.5 1.4-7.3 2.6-3.5 1.1-7.2 2.6-.6.3-1.2.5-6.3 2.4-11.9 4.4z"/><path d="m536.3 789.4c8.6.3 11.6-11.5 12.6-18.1q0-.1.1-.3 0-.1.2-.2.1-.1.2-.2.1-.1.3-.1 1-.2 1.2.9c2 11 1.4 21.5-4.5 30.9q-3.1 4.8-8.1 7c-6.2 2.7-11.3-.4-14.8-5.3-8.4-11.7-6.6-26.4-2.2-39.8q4.7-14.3 11.2-30.8 2.3-5.8 3.2-11.5 0-.2.1-.4.1-.2.3-.3.1-.2.3-.3.2-.1.4-.2 1-.3 1.3.7c1.2 4.1-.1 9.8-1.2 13.8-3.1 11.4-7.3 22.8-8.7 33.5q-1 7.8.3 12.5 1.3 5.1 4.6 7.4 1.1.7 3.2.8z"/><path d="m279.8 765q.2-1.5.7-3 4.7-13.6 10-27.3 2.4-6.1 3.7-12.8 0-.3.2-.5.2-.2.4-.3.2-.1.5-.2.3 0 .5.1 1 .4 1 1.6.4 6-1.2 11.8-3.1 11.2-6.7 23.6-.7 2.4-1.3 5.1c-.6 3.3-1.6 6.4-1.3 9.9q.2 2.8 0 5.4-.1 2 1.1 5 .8 2.1 2.3 3.7 3.1 3.4 7.6 2.3 2.9-.7 4.8-3.3 1.8-2.6 2.9-5.6.5-1.3 1-2.7.5-1.2.6-2.6.2-2 .8-3.8.1-.1.1-.2.1-.1.2-.2.1-.1.2-.1.1-.1.3-.1 1-.1 1.1 1c2 12 1.4 23.5-6.1 32.9-3.3 4.1-9.1 7.1-14.2 5.3-5.7-1.9-10.1-9.4-11.7-14.9q-2.3-8.4-.6-18.1 1-6.5 2.8-11.7 0-.1.1-.2 0 0 .1 0 .1 0 .1-.1z"/><path d="m922.1 877.8q.1.1.2.2.2.1.3.1.2-.1.3-.1.1-.1.2-.3 2-3.8 5.7-6.1 5.1-3.1 10.5-3.5 7.5-.5 11.6 5.7.8 1.3.9 2.7c.1 1.3.5 2.4.6 3.7q.3 4-1 7.7-.4 1.2-.4 2.6 0 3-2 5.1-.1.1-.1.2-.1 0-.1.1-.1.1-.1.2 0 .1 0 .1 0 1.8-1.1 3c-1.2 1.4-.8 2.9-2.1 4.2q-3.8 3.7-8.4 2.9-2.1-.4-4.6-1.1-2.5-.7-4.1-1.9-1.2-.8-2.5-1.5-1.3-.7-2.6-1.8-3.3-2.5-6.5-5.5 0-.1-.1-.1-.1-.1-.2 0-.1 0-.1 0-.1.1-.1.2-6.9 20.1-23.9 33.3-6.2 4.8-12.5 8.5-10.5 6.3-21.7 12.5-3.5 1.9-7.3 3.8-2 .9-3.9 1.6-2 .6-4.1 1.5-.3.2-.7.1-.4-.1-.7 0-4.2 1.8-8.2 2.7-.5.2-1.1.3-4.3 1-8 2.1c-.9.3-1.9 0-2.8.3q-3.2 1-6.5 1.4-2.6.3-5 .8-2.5.6-5 1.1c-1 .2-2 0-2.9.3q-.6.3-1.2.4-5 .9-9.9 1.7-1.5.3-3 .1-.4-.1-.6-.4-.3-.6-.1-1.3.1-.5.4-.7 1-.5 1.7-.8 11.9-5 24-9.9 4.5-1.9 9.6-4.3 3.3-1.5 6.5-3 3.2-1.5 6.3-3.1 24.1-12.5 49-27.1 9.6-5.7 17.1-12.3c5.1-4.7 8.7-9.8 11.8-15.9q.2-.4.2-.8 0-.3.2-.6 2-3.3 2.6-5 1-2.8 3.2-4.7.4-.3.8-.3 1 .1 1.5.9zm18.5 12.4q.5.2 1.2.2.1 0 .3 0 .1-.1.2-.3.1-.1.1-.3 0-.1-.1-.3-.9-1.5-1.8-2.9-.6-1-1.6-1.9-.7-.7-1.6-1-3.7-1.1-6.7-.1-.1.1-.1.1-.1.1-.1.1 0 .1 0 .2.1 0 .1.1 4.5 3.9 10.1 6.1z" fill-rule="evenodd"/><path d="m940.6 890.2q-5.6-2.2-10.1-6.1 0-.1-.1-.1 0-.1 0-.2 0 0 .1-.1 0 0 .1-.1 3-1 6.7.1.9.3 1.6 1 1 .9 1.6 1.9.9 1.4 1.8 2.9.1.2.1.3 0 .2-.1.3-.1.2-.2.3-.2 0-.3 0-.7 0-1.2-.2z" fill="#fff"/><path d="m193.5 971.2c.9 1.2 2.6 2.6 4.1 2.8q5.1.7 8.2-3c3.4-4.1 4.8-9.7 5.7-15q.1-.5.5-.7.5-.2 1 0 .3.2.4.5 2.1 10.9.2 20c-1.8 8.4-7.4 18.5-16.7 19.2q-4.9.3-9-4.1c-7.1-7.7-8.8-18.2-7.2-28.4q1.3-8.6 4.1-16.8 2.9-8.1 10.5-28.4 1.1-2.9 1.7-5.4.7-2.7 1.3-5.3.1-.5.5-.9.5-.5 1.2-.2.2 0 .4.1.1.2.3.3.1.2.2.4 0 .1 0 .3.6 5.9-1 11.7-4.1 14.3-7.4 26.4-2.4 8.9-2 17.3.2 5.6 3 9.2z"/><path d="m626.4 990.3q-.4.5-.9 1c-.9.7-1.8 2.2-3 1.1q-.2-.1-.3-.3-.1-.1-.1-.3-.1-.2-.1-.4 0-.2.1-.4.8-2.2 1.6-4.2.8-1.7 1.4-3.5 1.5-5 3.5-9.7.6-1.3.9-2.8.9-3.3 4.7-4.8 1.3-.5 2.6-1.1 3.7-1.8 7.8-3.4 63.4-24.1 126.7-48.4 2.3-.8 4.3-1.5.2 0 .3 0 .2 0 .3 0 .2.1.3.1.1.1.3.2.6.6.3 1.4-3.8 10.5-7.6 20.9-.3.8-1 1.1-5.6 2.2-11.6 4.5-54 20.3-105.3 40.2-1 .4-1.9.9c-1.4.7-2.9.8-4.2 1.5q-1 .5-2.1.9-3.1.9-6.3 2.3-.8.3-1.6.7-4.7 2.1-8.5 3.5-.4.2-.6.5z"/><path d="m418.5 952.4q-.5-.1-.9-.6-.1 0-.2-.1 0-.1-.1-.1-.1-.1-.2-.1-.1 0-.2 0-1.5-.3-2.8-.9-1.3-.6-2.7-1-2.2-.8-4.5-1.7c-1-.5-1.6-1.5-2.9-1.3q-.4 0-.8-.2-1.6-1.1-3.4-1.5-1.4-.3-2.5-1.1-1.1-.9-2.4-1.6-.1 0-.2-.1-.1 0-.2 0-.1-.1-.2-.1-.1 0-.2 0-.4 0-.8-.2-1.3-.8-2.7-1.6-1.2-.6-2.3-1.6-1-.9-2.2-1.4-.4-.2-.6-.5-.3-.5-.8-.8-.4-.1-.6-.4c-1.5-1.8-2.4-4.3-.8-6.4q4.2-5.3 8.5-8.9 2.2-1.9 5.3-3.4 3.4-1.7 6-2.3 2.2-.5 4.3-1.1 2.2-.7 4.3-1 10.1-1.4 19.1-.6 3.3.3 6.6 1.7 1 .4 1.9.6 1.4.2 2.5 1.1.8.8 1.7 1.4c1.9 1.3 2.1 3.2 1.8 5.3q-.1 1.6-.8 2.9-2.4 4.3-5.3 7.7-2.3 2.6-2.4-.8c0-1.2.2-3.3-.6-4.3q-1-1.1-2.1-2.2-1-1-2.4-1.3c-1.4-.3-2.5-1-3.9-1.3q-9.4-1.7-18.6-1.3-4.8.3-8.7 1.3-1.5.4-3 .6c-1.6.2-2.8.9-4.3 1.2q-.1 0-.2.1-.1.1-.1.2-.1.1-.1.3.1.1.2.2 2.8 3.3 6.4 5.2.5.2.9.5.5.4 1.1.4.4 0 .8.3 1.8 1.2 3.8 1.8c1.6.5 2.9 1.4 4.5 1.9q2.4.8 4.5 2.1.3.2.7.2 1.4 0 2.5.7 1.8 1.2 3.6 1.6 1.6.4 2.9 1.2 1.4.9 2.7 1.8.4.3.8.3.5 0 1 .2 12.1 4.9 20.2 11.6c6.2 5 8.8 12.4 3.5 19.3q-4.3 5.6-8.7 8.2c-4 2.3-9.3.1-13.1-1.8q-11.1-5.7-23.9-11.6-13.3-6.3-26.2-12.4c-11.8-5.6-22.5-13.6-19.8-28.2q.8-4.3 1.9-9.1 0-.1.1-.2 0-.1.1-.2.1-.1.2-.2.1-.1.2-.1.6-.2 1 .3.2.3.2.7.5 5.6 4.1 10.5 2 2.9 4.4 5.2 2.4 2.2 5.6 4.4 11.4 8 24.2 13.6 2 .9 3.9 1.9 1.9.9 3.9 1.7c1 .4 1.8 1.2 2.8 1.4q.6.2 1.2.4 14.9 6.9 29.8 14 .1 0 .2 0 .1 0 .2 0 .1-.1.2-.2.1-.1.1-.2.4-1.4-.2-2.7-1.9-4.5-6.3-7.4-2.2-1.4-10.5-5.6-1.7-.9-3.5-1.5-1.8-.7-3.4-1.9-.3-.2-.7-.1-1 .1-1.7-.5-.1-.1-.2-.1 0-.1-.1-.1-.1-.1-.2-.1-.1 0-.2 0z"/></svg>