<svg height="1080" viewBox="0 0 1080 1080" width="1080" xmlns="http://www.w3.org/2000/svg"><clipPath><path d="m67 47h946.22v985.65h-946.22z"/></clipPath><path d="m489.3 828.2c6.5-7.7 12.6-15.5 19.4-22.8 6.7-7.3 14.4-13.4 24.2-16.1 11.2-3.2 21.3-1.1 29.5 7.4 7.3 7.6 14.3 15.5 21.5 23.1 14.5 15.6 32.8 23.1 53.7 25.2 24.6 2.5 48.5-1.5 72.2-8 22.8-6.2 44.4-15.6 65.8-25.4 6.7-3 13.4-5.9 20.8-9.1-1.4-.5-2.2-.9-3.1-1.1-32.5-9.3-65-18.9-96.5-31.2-2.4-1-4.1-.9-5.5 1.3-3.1 4.4-6.7 5-12.3 4.1-14.2-2.4-28.6-3.7-43-5-9.5-.8-19-.9-28.6-1.2-2.4 0-2.6-1.1-1.8-3 4.7-11.3 9.4-22.8 14.2-34.1.3-.9 1.3-1.7 2.1-2 11.8-5.2 23.9-9.1 36.7-10.3 10.9-1 21.7.1 32 3.7 16.5 5.7 32.8 12 49.3 17.5 32.3 10.6 64.6 20.8 97.7 28.4 20.5 4.8 41.2 8.7 62.1 10.2 11.4.9 22.8.6 34.2.9 4 0 4.4.5 3.1 4.2-4 10.9-8 21.8-11.9 32.8-.7 2.2-1.9 3-4.3 3-10.5-.1-21 .2-31.5-.1-30.7-.7-59.7 5.9-87.6 18.3-21.6 9.5-43.2 19-65.1 28.1-20.3 8.4-41.4 14.6-63.2 17.9-21.3 3.2-42.5 3.7-63.4-2.8-8.8-2.7-17.2-6.2-24.2-12.3-.4-.4-1-.7-1.3-.9-3 7.9-5.8 15.8-8.9 23.6-1.6 3.9-3.8 7.5-6 11.1-1.6 2.7-4 3.8-7.2 3.3-20.4-3.3-40.3-8.2-58.3-18.5-9.8-5.6-18.7-12.7-28.2-19.3-.2.4-.7 1.3-1.4 2.3-4 6.2-7.9 12.6-12.3 18.7-6.9 9.5-16.9 14.9-27.7 18.7-16.5 5.8-33.4 7.5-50.7 3.7-14.2-3.1-24.4-11-31-24-7.7-15.3-12.6-31.5-16.2-48.1-3-13.6-5.2-27.4-7.9-41.5-.8 3.5-1.7 6.8-2.3 10.2-2.7 13.8-6 27.5-14.4 39.2-5.7 8-11.8 16-18.6 23.1-27 28.1-56.6 52.9-90.5 72.5-14.4 8.3-29.2 15.8-45.4 20-10.2 2.7-20.7 3.9-31.2 1.4-15.4-3.7-24.9-13.9-30.3-28.3-5.3-14.3-6.4-29.1-5.6-44.1 2-39.4 11.9-76.9 26.4-113.4 1.4-3.5 3.2-6.9 5.1-10.2.4-.9 1.8-1.1 2.7-1.7.4 1 1.2 2 1 2.9-1.8 8.8-3.5 17.6-5.7 26.3-4.2 16.5-9.1 32.7-12.9 49.3-3.6 16-4.9 32.3-2 48.6 2.8 16 11.1 27.4 27 29.8 9.4 1.4 18.7-.2 27.6-3.1 21-6.7 40.3-17.1 58.7-29 30-19.3 56.5-42.6 81.7-67.6 7.3-7.1 13.6-15 18.7-23.9 1.6-2.9 2.5-5.8 2.6-9.2.3-17.1-1.4-34-4.1-50.8-7.2-44.9-20.2-88.1-36.9-130.3-.4-1-.5-2.3-.2-3.3 3.1-12.8 6.4-25.6 9.7-38.4.2-.9 1-1.7 1.5-2.6.8.7 1.8 1.4 2.4 2.3 20.5 36.5 34.1 75.5 43.3 116.2 6 26.8 9.9 53.9 11.9 81.3 1.7 21.9 3.8 43.9 10 65.1 2 6.9 4.9 13.7 7.9 20.2 5.7 12.1 16 18.6 28.8 20.6 23 3.7 44.4-1.3 63.5-14.7 9.8-6.8 17-16.2 22.3-27 2.8-5.7 3-5.7 7.8-2.1zm13.4 11.6q0 0 0 0zm57.6 26.3c0-1.1.1-1.5 0-1.9-3.2-10.1-6.9-20-13.3-28.6-3.3-4.4-7.7-6.8-13.3-7.3-12.1-1.2-21.7 3.9-31 11.5 16.9 14.1 37 20.5 57.6 26.3z" fill-rule="evenodd"/><path d="m903.7 435.8c-4.8 1.3-9.5 2.8-14.3 3.6-18 2.9-35.1.3-50.4-10.1-7.8-5.3-12.7-13-16.5-21.5-.8-2-1.7-3.9-3-6.7-1.5 2.5-2.6 4.2-3.6 6-5 10-10.8 19.4-19.2 27-10.5 9.4-22.9 13.6-36.9 12.7-13.1-.8-23.9-11.4-27.1-25.8-.5-2.7-1.1-5.3-1.8-8.6-2.2 3.5-3.9 6.3-5.7 9.1-9 13.9-20.1 25.6-36 31.5-15.6 5.8-31.2 6.1-46.2-1.7-12.5-6.5-18.6-17.6-21.3-30.9-.7-3.5-1.1-7-1.7-10.5-.6-2.9-2-3.7-4.2-1.6-3.6 3.4-7.1 6.9-9.9 10.9-15.6 21.4-36.6 34.7-62.1 41-12 2.9-24.1 3.9-36.1-.3-6.4-2.1-11.6-5.9-15.9-11.2-8.1-10-12-21.7-14.2-34.1-.5-2.5-1.5-4.8-2.4-8-1.2 1.3-1.9 2.1-2.6 2.8-7.7 9.1-15.4 18.2-23.3 27.1-9.9 11.1-22.5 17.8-36.7 21.8-15.1 4.3-30.4 5.5-46.1 3-19-3.1-31.7-13.6-39.5-31.2-7.1-16.3-11.9-33.4-15.3-50.8-2.1-10.6-3.7-21.3-5.5-31.9-.1-.5-.3-.9-.8-2.1-1.6 7.6-3.1 14.4-4.6 21.1-3.4 15.8-10.9 29.5-21.5 41.4-32.6 36.6-69.8 67.5-113.5 90.1-12.4 6.4-25.1 12-39.1 14.2-13.8 2.2-27.1 1.5-38.8-7.3-10-7.5-14.9-18.1-17.8-29.8-3.4-14-3.6-28.2-2.5-42.5 2.8-37 12.5-72.4 26.1-106.8 1.2-2.9 2.5-5.7 4.1-8.5.7-1.2 2.4-3.1 3.3-2.9 2.4.5 1.6 3 1.3 4.5-1.5 7.3-3.1 14.6-5 21.8-4.4 17-9.4 33.8-13.4 50.9-3.8 16.7-5.1 33.7-2.1 50.7 2.5 13.4 9 24.1 23.1 28.1 8.6 2.4 17.2 1.4 25.7-.8 18.1-4.5 34.6-12.8 50.6-22 26.8-15.5 51-34.4 73.6-55.4 10.6-9.8 20.7-20.2 30.7-30.6 3.2-3.3 5.6-7.4 8.2-11.2 3-4.5 4.4-9.3 4.3-14.9-.1-23.5-3.4-46.5-8-69.3-7.6-37.2-18.9-73.3-32.9-108.6-.5-1.2-.7-2.7-.4-3.9 3.2-12.6 6.4-25.2 9.6-37.8.1-.4.1-.8.3-1.1.5-.7 1-1.5 1.7-1.7.3-.1 1.3.8 1.6 1.4 3.1 5.7 6.2 11.4 9.1 17.2 17.1 34.8 29.1 71.3 36.5 109.4 3.7 18.7 6.2 37.7 8.8 56.7 1.5 11.6 1.9 23.3 3.2 34.9 2.1 19.8 5.1 39.3 12.3 58 8 20.9 23.7 29.8 45.1 30.9 19.4.9 37.6-3.2 54.4-13.3 9-5.3 15.8-13.2 22.7-20.9 5.7-6.2 11.3-12.5 17.2-18.6 1.9-2 4.4-4.4 7.5-3 3 1.5 2.3 4.8 2.1 7.5-1.2 14.6 4.3 26.8 13.8 37.3 8.8 9.7 20.7 11.7 33 10.6 27.6-2.4 50.4-14.4 69.3-34.4 7.2-7.6 14.8-14.8 22.4-21.9 2.1-1.9 5-3.1 7.6-4.2 3.1-1.3 5 .4 4.2 3.6-1 4.1-2.3 8.1-3.3 12.2-4.5 20.1 8 32.2 22.7 36.7 20 6.1 38.2 2.7 52.9-12.7 6.9-7.2 12.6-15.7 18.8-23.7 3.5-4.6 6.5-9.5 10.3-13.7 2.3-2.5 5.5-4.5 8.6-5.7 3.5-1.4 5.2.8 4.1 4.4-1.6 5.2-3.6 10.2-4.8 15.4-1.5 6.8-.2 13.4 3.5 19.3 5.5 8.7 14 10 23.3 8.9 14.6-1.8 25.1-10.3 33.5-21.6 5.2-7 9.4-14.7 14.2-22 1.8-2.7 3.7-5.4 5.9-7.7 1.1-1 3.2-1 4.8-1.5.2 1.6.7 3.1.7 4.6-.1 1.5-.6 3.1-.9 4.6-1.2 5.1-.4 9.7 2.4 14.3 8 12.8 20.1 19 34.3 21.8 9 1.8 17.9 1.8 27 .2 2.1-.4 2.6-1.3 2.6-3.3-.5-19.9.7-39.5 6-58.8 4.7-17.6 12.5-33.6 24.1-47.7 2.1-2.6 4.6-4.9 7.2-7 8.9-7.1 17.8-6.6 26.1 1.4 6.6 6.3 10.4 14.3 13.1 22.7 8.7 27.4 8.5 54.4-5 80.4-8.5 16.6-22.2 28.1-38.3 36.9-6.4 3.5-13.2 6.4-19.9 9.4-1.6.7-2.2 1.5-2.2 3.2.1 3 0 5.9-.4 8.9-.1 1-1.1 1.9-1.7 2.9-.8-.8-2-1.6-2.4-2.6-1-2.8-1.8-5.7-2.7-8.6zm7.3-42c15.4-5.3 29.6-11.9 42-21.7 3.9-3 7.1-6.8 10.2-10.5 1-1.2 1.2-3.5.9-5.2-1.6-9.6-4.8-18.8-9.9-27.1-2.3-3.8-5.5-7.1-8.6-10.4-1.9-1.9-4.6-2-6.8-.4-2.6 1.9-5.2 3.9-7.2 6.4-15.7 20.2-19.2 44-20.7 68.9z" fill-rule="evenodd"/><path d="m990.7 559.1c.6 7.4 1 14 1.5 20.7.9 11.5 1.9 23.1 2.8 34.7q1.6 21.3 3.3 42.6 1.3 16.6 2.6 33.2c1.1 14.4 2.2 28.8 3.3 43.3q1.3 16.6 2.6 33.2c1.1 14.3 2.2 28.6 3.3 42.9 1.4 17.4 3.1 34.8 1.3 52.2-1.6 15.3-5 30.3-10 45-.2.4-.3 1-.6 1.3-.7.8-1.5 1.4-2.3 2.1-.6-.9-1.6-1.8-1.7-2.7-.5-5.4-.8-10.8-1.2-16.2-1.3-18.7-2.6-37.5-4-56.2q-1.5-19.8-3.1-39.7c-1.3-15.5-2.7-31.1-4-46.7-1-13.1-2-26.2-3.1-39.4-1.1-13.3-2.3-26.6-3.3-39.9-1.1-13.4-2.1-26.7-3.2-40-1.1-13.5-2.2-27.1-3.3-40.6-.9-11-2-21.9-2.5-32.9-.6-12.3-2.4-24.2-7.4-35.5-.3-1-.2-2.4.2-3.4q6.8-16.7 13.8-33.3c.3-.9 1.3-1.4 2.1-2.1.5.6 1.3 1.1 1.5 1.8 10.2 26.8 20.2 53.6 27.8 81.2.8 3 1.5 6 1.8 9 .1 1.2-.7 2.5-1.2 3.9-1.1-.6-2.6-.9-3.3-1.8-4.5-5.3-8.8-10.7-13.7-16.7z"/><path d="m985.8 186.8c-4-2.9-7.9-5.3-11.4-8.1-11.3-9.1-12.9-20.7-4.3-32.3 5.4-7.3 12.5-12.6 21.4-14.9 2.4-.7 5.1-.8 7.6-.4 4.1.7 6.9 3.6 8.3 7.6 2.9 8.4 1.7 16.6-1 24.8-1.1 3.4-2.5 6.8-3.8 10.2 3.1 2.3 6.2 4.6 9.3 6.9 1.5 1 1.7 2.1.8 3.7-2.4 4.1-4.7 8.2-6.9 12.4-1 1.9-2 2.1-3.7.9-3.2-2.1-6.4-4.2-9.6-6.3-4.5 5.5-9 10.9-13.6 16.3-19.4 22.6-42.3 40.7-69 53.9-12.5 6.2-24.8 12.8-37.2 19.1-1.3.6-2.5 1.2-3.9 1.4-.8.2-1.8-.2-2.7-.3.4-.9.4-2 1-2.5 1.1-1.1 2.5-2 3.8-2.9 18.9-12.7 38.1-25 56.8-38.1 19.5-13.6 37.5-28.9 53.9-46.2 1.4-1.6 2.7-3.3 4.2-5.2zm9.7-17.3c.4-2.8.7-5.1.9-7.4.1-1.5 0-3-.2-4.4-.8-6.3-4.4-9.3-10.1-8.3-1.9.3-3.8 1-5.6 1.9-3.6 1.8-3.8 3.1-1.2 6.2 4.2 5.2 10 8.4 16.2 12z" fill-rule="evenodd"/><path d="m227.2 264.1q0 0 0 0zm-10.4-7.2c-2.3-1.8-4.4-3.7-6.3-5.9-4.2-4.9-5.5-10.6-4-17 2.8-12 16.9-24.4 29.1-25.8 6.7-.7 11.6 2.5 13.4 8.9 2.4 8.2 1.2 16.2-1.4 24-1.1 3.3-2.5 6.6-3.8 9.9 3.1 2.3 6.1 4.7 9.3 6.8 1.5 1.1 1.7 2.2.8 3.8-2.4 4.1-4.8 8.3-7 12.6-1 1.8-2 1.8-3.6.8-3.1-2.2-6.3-4.3-9.7-6.5-3.3 4.1-6.6 8.3-10 12.3-19.9 23.8-43.1 43.5-71.1 57.3-12.1 5.9-23.9 12.4-35.8 18.5-2.3 1.1-4.7 2-7.1 2.8-.6.2-1.4-.2-2.2-.3.2-.8.2-1.9.6-2.4 1.1-1.1 2.4-2 3.7-2.9 17-11.3 34-22.4 50.8-33.8 19.4-13.1 37.2-28.1 54-44.3 3.8-3.5 7.1-7.5 10.7-11.5-3.8-2.6-7.2-4.8-10.4-7.3zm19.6-10.2c1.6-5.6 2-10.9-.4-16.1-1-2.3-2.8-4.1-5.3-3.8-3.2.3-6.4.8-9.3 2-3.3 1.4-3.5 2.7-1.2 5.7 4.3 5.4 10.3 8.6 16.2 12.2z" fill-rule="evenodd"/><path d="m832.5 284.6c-14.4-1.8-28-4.9-41.9-2.5-2.5.5-4.8 1.7-7.1 2.7-1.9.8-3.6 2.2-5.4 3-1.1.4-2.4.2-3.6.3 0-1.1-.5-2.4-.1-3.3 5.1-10.1 9.7-20.4 17.5-28.9 3.7-4.1 8.4-6.5 14-6.2 9.2.7 18.2 1.8 27.3 2.4 6.4.5 12.8.5 19.2.5 6.5.1 8.8 2.9 6.3 9-3.6 9.1-7.3 18.1-11.5 26.9-4.1 8.9-10.5 16-20.2 18.6-11.6 3.2-23.5 5.5-35.3 8-1.4.3-3-.5-4.6-.8 1.1-1.2 1.8-2.9 3.2-3.7 12.3-7.6 24.9-15 37.3-22.5 1.5-.9 2.8-2 4.8-3.5z"/><path d="m866.1 630.7c-4.2-4-8.4-7.3-11.8-11.3-5.4-6.5-6-13.6-1.4-21.1 5.7-9.2 11-18.5 19.4-25.4 2.2-1.8 4.7-3.3 7.2-4.5 5.1-2.4 10.2-2.3 14.7 1.5 4.8 3.9 6.9 9 5.4 15.2-.7 3.3-2 6.5-3.2 9.7-.4.9-1.5 1.6-2.3 2.3-.7-.7-1.7-1.3-2.1-2.2-3.4-6.9-9-10.6-15.6-9.8-6.8.9-11.6 5.4-16.2 10.1-.4.4-.2 1.6 0 2.4 2.6 8.1 8.4 12.6 16.6 14.7 7.9 2.1 15.4 1 22.5-2.7 7.8-4.1 15.3-8.8 23-13.1.9-.5 1.9-.7 2.9-1 .2 1 .6 2 .6 3-.1 3.1-.2 6.3-.7 9.4-.3 1.3-1.4 2.8-2.6 3.5-15.8 10-31.7 19.8-47.4 29.7-5.6 3.6-10.8 7.6-16.2 11.3-.8.6-1.9.7-2.8 1-.1-1-.4-2.1-.2-3.1 1.2-7.8 3.5-15.1 10.1-19.6z"/><path d="m892.1 694c-3.4 4.2-3.4 4.3-8.4 2.6-4.6-1.5-8.8-3.6-11.5-7.8-2.1-3.2-2.5-6.5-.6-10q2.4-4.2 4.6-8.5c1.2-2.1 2.7-2.8 5.1-2.3 8.3 1.9 14.5 6.9 19.4 13.6 8.5 11.5 12.7 24.9 15.7 38.7.3 1.2.5 2.4 1.2 3.6.8-5.2 1.4-10.4 2.4-15.6 2.2-12.2 4.5-24.5 7.1-36.6.8-3.5 2.7-6.8 4.7-9.8 3.1-4.8 8-5.8 12.4-2.2 3.8 3.2 6.9 7.4 10.2 11.3.3.4.5 1.2.4 1.6-1.3 3.4-2.7 6.8-4.2 10-.1.4-1.9.4-2.5 0-2.3-1.6-4.4-3.7-6.7-5.2-4.7-3-8.4-2.1-10.1 3.1-2.1 7-3.6 14.3-4.8 21.5-2.1 13.5-2.8 27.2-7.1 40.2-.7 2-2.7 3.8-4.5 5-1.6 1.2-2-.6-2.3-1.9-1.9-7.1-3.5-14.3-5.7-21.3-3.2-10-7.3-19.7-13.4-28.3-.4-.6-.9-1.1-1.4-1.8z"/><path d="m588 349.5c-.4-.9-.9-1.8-1.1-2.8-3.4-15.6-7.9-30.8-16-44.6-1.3-2.2-2.8-4.3-4.5-6.9-2.4 6.3-6.6 4-10 2.3-3.5-1.7-6.8-3.9-9.5-6.7-2.8-3-2.9-6.9-.8-10.6 1.4-2.4 2.6-4.9 3.9-7.3 2-3.6 2.9-4 6.9-2.9 7.7 2.1 13.5 7 18.2 13.3 8.1 11 12.2 23.8 15.3 37 .4 1.7.8 3.5 1.2 5.5 2.6-15.2 4.9-30.2 7.8-45 1-5.2 2.9-10.4 5.3-15.2 3.8-7.4 9.7-8.3 15.8-2.7 3.1 2.8 5.5 6.3 8.2 9.7.4.5.5 1.7.2 2.3-1.1 3-2.3 5.9-3.5 8.8-.8 1.8-1.8 1.7-3.1.6-2.4-2-4.7-4-7.3-5.6-4.1-2.5-7.3-1.7-9 2.8-1.9 5.3-3.3 10.9-4.3 16.5-2.4 13.9-4.4 27.9-6.6 41.8-.7 4.1-2.1 7.8-7.1 9.7z"/><path d="m499.9 287.2c-.5 1.3-.7 2-1 2.7-5 10.7-10 21.3-14.9 32-1 2.2-2.1 2.6-4.3 1.4-11.2-5.9-22.4-11.8-33.7-17.4-2.7-1.4-2.9-2.6-1.7-5.3 5-10.3 9.8-20.7 14.6-31.1 1.1-2.6 2.3-3.1 4.9-1.7 11 5.9 22.2 11.5 33.3 17.3 1.1.6 1.9 1.4 2.8 2.1z"/><path d="m406.4 651c3 .2 5.9 0 8.7.5 10.2 2.1 16.2 10.2 15.7 21.5-.3 5.7-1.2 11.5-2.4 17.1-1.3 6-4.7 10.8-9.6 14.5-12 8.8-26.6 3.3-29.8-11.3-2.2-10.5.4-20.3 4.4-29.8 1.9-4.3 4-8.5 6.1-12.8 2.4-5.1 4.1-10.3 4.4-16 0-.4 0-.9.1-1.2.5-.8 1-1.5 1.5-2.3.6.7 1.6 1.4 1.6 2.1.1 5 0 10-.1 15 0 .8-.4 1.7-.6 2.7zm1.8 17.8q-9.4-.2-10.5 6.9c-1 6 1.8 11.1 7.8 12.7 3.6 1 7.6 1 11.2.5 3.9-.5 7.9-2.6 8.7-6.5.9-4.1-2.2-7.4-5.5-9.8-4.1-3-8.9-3.8-11.7-3.8z" fill-rule="evenodd"/><path d="m475.4 741.5c.7-3.8 1-7 1.9-10.1.3-1.1 1.8-2.3 3-2.7 23.1-8.5 46.3-17 69.5-25.4 8.7-3.2 17.3-6.4 26-9.6 2.9-1.1 3.5-.5 3 2.5-.2 1.1-.6 2.1-.5 3.2.2 5.7-3.1 8-8.2 9.8-30.4 10.8-60.6 22-90.9 33-1.5.6-3.3 1.7-3.8-.7z"/><path d="m939.2 500.2c-.6 3.7-.9 7-1.8 10.1-.3 1.1-1.8 2.2-3 2.7-22 8.1-44 16.1-66 24.2q-14.7 5.4-29.5 10.7c-3 1.1-3.6.5-3-2.5.5-2.7.8-5.5 1.5-8.1.3-1.2 1.3-2.5 2.3-2.9 32.1-11.8 64.2-23.6 96.3-35.3 1.6-.6 3.2-1 3.2 1.1z"/><path d="m523.6 213.1c-.9 4.9-1.5 9-2.4 12.9-.2.8-1.7 1.4-2.8 1.8q-37.8 13.9-75.7 27.8-9.9 3.6-19.9 7.2c-2.7.9-3.4.3-2.9-2.5.2-1.5.8-2.9.8-4.4-.2-5 2.8-6.7 7.1-8.2 30.5-11 60.8-22.2 91.2-33.3 1.1-.4 2.4-.7 4.6-1.2z"/><path d="m543.3 650.7c-.4 10.4-2 19.5-8 27.2-6.8 8.7-16.3 8.6-22.9-.3-6.1-8.1-7.3-17.4-6.1-27.1 1.4-12.6 6.2-24.3 10.4-36.1 2.9-8.3 5.5-16.8 8.4-25.1.3-.9 1.1-1.6 1.7-2.3.5.8 1.5 1.8 1.4 2.6-.9 5.7-1.7 11.5-3.1 17.1-2.6 10.5-5.9 20.9-8.1 31.6-1 5.1-.4 10.8.3 16 .7 4.3 3 8.1 8 8.8 5.2.7 9.1-2 11.1-6.5 1.7-3.8 2.5-8 3.8-12 .2-.8.9-1.4 1.4-2.2.3.8.9 1.4 1 2.2.4 2.3.5 4.7.7 6.2z"/><path d="m193.3 395c.1 4.6.5 9.2.2 13.8-.5 7.5-2.4 14.7-7.1 20.9-1.4 1.8-3.1 3.5-5 4.8-6 4-12.2 3.1-16.9-2.3-6.6-7.6-8.7-16.7-7.9-26.6 1-12.9 5.7-24.8 10-36.8 3.2-8.8 6-17.8 9.1-26.7.3-.9 1-1.7 1.6-2.6.5 1.1 1.5 2.2 1.4 3.2-.7 5.1-1.4 10.2-2.6 15.3-2.6 10.1-6 20.1-8.1 30.4-1.1 5.7-.9 11.9-.3 17.8.8 6.8 5.7 10.4 11.2 9.5 3.7-.6 6.5-2.9 7.9-6.1 1.7-3.8 2.6-8 3.8-12 .3-1 .7-1.9 1.1-2.8q.9.1 1.7.2z"/><path d="m280.5 749.8c-.3 10.3-1.9 19.3-7.7 27-6.9 9.1-16.5 9.1-23.3 0-5.9-8-7.1-17.1-6.1-26.6 1.5-13.4 6.7-25.6 11.1-38.1 2.8-7.7 5.1-15.6 7.8-23.4.3-1 1.1-1.7 1.6-2.5.6.9 1.6 2 1.5 2.8-.9 5.7-1.7 11.4-3.1 17-2.6 10.6-5.9 21-8.1 31.6-1 5.1-.4 10.6.3 15.8.6 4.2 2.9 8.1 7.9 8.9 4.5.7 8.9-1.5 11.2-6.4 1.7-3.9 2.5-8.2 3.8-12.3.2-.7.8-1.3 1.3-2 .4.7 1 1.4 1.1 2.1.3 2.3.5 4.7.7 6.1z"/><path d="m189.1 840.9c.1 4.4.5 8.8.2 13.1-.4 7.8-2.3 15.3-7.2 21.7-1.3 1.8-2.9 3.3-4.6 4.5-6.2 4.3-12.5 3.4-17.3-2.3-6.8-7.9-8.7-17.2-7.8-27.3 1.3-13.7 6.6-26.2 11.1-38.9 2.8-7.9 5.2-15.9 7.9-23.7.3-1 1.2-1.7 1.9-2.6.4 1 1.4 2.1 1.2 3-1.1 6.5-2.3 13-3.8 19.3-2.4 10-5.6 19.7-7.4 29.7-.9 5.3-.1 11.1.8 16.6.6 3.8 3.2 7 7.6 7.6 4.8.5 8.5-1.6 10.5-5.6 1.9-4 2.8-8.5 4.2-12.8.3-.9.7-1.7 1.1-2.6q.8.2 1.6.3z"/><path d="m375.2 171.7c.2 1.9.9 3.9.5 5.7-1.2 6.1-2.6 12.2-4.1 18.3-2.3 9.1-5 18.2-7 27.3-1.2 5.8-1.4 11.8.7 17.5 1.4 3.8 3.4 7 7.8 7.5 4.6.4 8.3-1.5 10.3-5.5 1.9-3.9 2.8-8.3 4.3-12.4.3-1 .9-1.9 1.4-2.8.5.9 1.2 1.9 1.3 2.9 1.2 11.5-.1 22.6-7.3 32.2-1.6 2.2-4.1 4.1-6.5 5.4-4.8 2.7-9.9 1.7-13.8-2.1-6.1-6-8.7-13.4-9.2-21.8-.6-11.6 3-22.5 6.6-33.3 4.2-12.3 8.5-24.6 12.7-36.9.2-.7.6-1.4.9-2z"/><path d="m825.6 200.6c-.3 10.4-1.9 19.5-8 27.2-6.8 8.8-16.2 8.7-22.8-.2-6-7.9-7.3-17-6.3-26.6 1.5-13.4 6.7-25.7 11.2-38.3 2.7-7.7 5-15.5 7.6-23.1.3-1 1.2-1.8 1.8-2.7.5 1.1 1.6 2.2 1.4 3.2-.6 4.9-1.3 9.8-2.5 14.5-2.6 10.1-5.7 20.2-8.2 30.3-1.6 6.4-1.9 12.9-.3 19.3 1.6 6.2 5.3 9.3 10.4 8.9 3.4-.3 6.4-1.9 7.7-4.8 2-4.4 3.3-9.2 4.9-13.7.3-.8.9-1.5 1.4-2.2.3.7.9 1.4 1 2.1.4 2.3.5 4.7.7 6.1z"/><path d="m186.2 630.1c.3 1 .9 2.2.8 3.2-.8 5.3-1.4 10.7-2.7 15.9-2.6 10.1-5.6 20.2-8.1 30.4-1.5 6.1-1.8 12.5.2 18.6 1.3 4.3 3.6 8 8.4 8.3 4.7.4 8.4-2 10.3-6.1 1.7-3.7 2.5-7.8 3.8-11.7q.5-1.6 1.1-3.2.4 0 .9 0c.3.8.7 1.6.8 2.3 1.2 9.9.2 19.5-4.2 28.5-2 3.9-4.6 7.3-8.6 9.5-5.7 3.2-11.4 2.3-15.9-2.8-6.4-7.2-8.5-15.9-8-25.4.6-12.6 5.2-24.3 9.3-36 3.3-9.8 6.5-19.5 9.8-29.3.3-.8.8-1.4 1.2-2.2q.4 0 .9 0z"/><path d="m442.8 780.6c.3 1.2.7 2.4.8 3.6 1 11.3-.3 22.2-7.3 31.6-1.8 2.4-4.5 4.5-7.2 5.8-4.6 2.2-9.1 1.4-12.8-2.1-6.2-5.9-9-13.3-9.5-21.6-.8-11.3 2.5-21.9 6.1-32.4q6.5-19.2 13.1-38.4c.3-.7.7-1.3 1.1-2.1 2.5 1.6 2.2 3.7 1.8 5.6-1.5 6.9-3.1 13.8-4.8 20.6-2.1 8.5-4.8 16.8-6.3 25.4-.9 5.2-.5 10.7.3 16 .6 4.5 3.2 8.5 8.4 9 5.1.4 8.8-2.4 10.8-6.8 1.6-3.7 2.4-7.8 3.6-11.7.3-.9.6-1.7.9-2.5z"/></svg>