<svg height="1080" viewBox="0 0 1080 1080" width="1080" xmlns="http://www.w3.org/2000/svg"><clipPath><path d="m67 47h946.22v985.65h-946.22z"/></clipPath><path d="m656.3 214.9q2-13.5 4.4-27 1.6-8.9 4.4-16.2c1.9-4.8 5.2-10.2 11.2-8.3q1.3.4 2.7 1.3c3.4 2.4 6.4 6.3 8.5 9.8q.1.1.1.2.1.1.1.2 0 .1 0 .2-.1.1-.1.2-2.1 5.4-4.2 10.2-.2.4-.5.6-.1.2-.3.2-.2.1-.4.1-.2 0-.4-.1-.2-.1-.4-.3-1.8-2-4.2-3.6c-2.6-1.8-6.2-4-8.6-.2s-3.3 9.4-3.9 14c-1.5 12.5-2.4 25.2-5.8 37.2q-.1.1 0 .2 0 .1 0 .2.1 0 .1.1.1.1.2.1.8.1 1.5.5c7.5 4 13.4 10.8 18.1 18q.2.3.1.6l-2.9 12.6q0 .2-.1.3-.1.1-.3.2-.1.1-.3.2-.2 0-.3 0-7.9-1.7-16.2-1c-5.8.5-11.7 2.3-15.4 6.8q-1.6 1.9-1.9 2.4-.8 1.4-.3 3.3.2 1.1.4 2.3.1 1.2.4 2.4.9 3.7 1.5 7.1.7 4.1 1.3 7.2 3 14.7 5.5 27.7 3.8 20 4.5 37.6.7 16.9-3.8 32.3-.2.7-.8.9-.3 0-.5 0-.2 0-.4-.2-.1-.1-.2-.3-.1-.2-.1-.4.5-27.8-4.8-55.3-3.7-19.1-8.5-39.7-1.6-6.5-2.3-13.6-.8-8.2.6-13.7.7-3 2.2-6.7 1.1-3 3.6-5.6 4.8-5 12.6-7 2.6-.6 5.5-.8.7-.1.1-.5-3.9-3-8.4-2.4-1.1.2-1.9.8-1 .7-1.8 1.6-2.3 2.8-4.8 5.9-.1.1-.3.2-.1.1-.2.1-.2.1-.3.1-.2 0-.3-.1-1.1-.3-.9-1.6.9-5 2.1-9.5c1.3-5.3 3.9-10.7 9.1-13q.4-.2.3-.7-1.8-7.8-4.4-15.7-4.2-12.7-10.9-22.2-.1-.1-.2-.2-.1-.1-.3-.1-.1 0-.3.1-.1.1-.2.2l-1.7 2.5q0 .1-.1.2-.1.1-.2.1-.1.1-.2.1-.1 0-.2 0c-5.9-.6-15.6-5.3-15-12.3q.1-1.9 1.4-4.2 2.4-4.2 4.5-8.2 1.3-2.5 4.1-1.8c9.1 2.2 15.6 9.3 19.9 17.4q6.5 12.1 9.3 26 .1.6.2 0z"/><path d="m545.1 201.2-81.7 29.8q-.3.1-.6.1-.3-.1-.5-.3-.2-.2-.3-.4-.1-.3-.1-.6l2-11.4q.1-.2.1-.3.1-.1.2-.3.1-.1.2-.2.1 0 .2-.1l81.7-29.8q.3-.1.6-.1.3.1.5.3.3.2.4.4.1.3 0 .6l-2 11.5q0 .1-.1.3 0 .1-.1.2-.1.1-.2.2-.1.1-.3.1z"/><path d="m749 252.7c7.5-.5 9.8-10.8 10.8-16.6q.1-.4.4-.5.5-.3 1 0 .3.2.4.6c1.9 10.7 1.2 21.3-5.1 29.7-4.4 5.8-12.1 8.6-17.9 2.6-11.1-11.4-7.9-28.6-3-42.3q4.3-12.4 9.3-25.3 1.8-4.5 2.9-10.4 0-.1.1-.3.1-.2.3-.3.1-.1.3-.1.2 0 .4 0 1.1.2 1.2 1.3c.4 4.3-.3 8.6-1.5 12.7q-3.1 10.4-5.9 20.9c-1.8 6.3-3.1 13.7-1.7 20.1.8 4 3.5 8.3 8 7.9z"/><path d="m868.8 240.7-1.9 6.6q-.1.3-.3.6-.4.4-.6.9-.1.4.3.7l7.6 5.6q.1.1.2.3.2.2.2.4 0 .2 0 .4 0 .2-.1.3l-7.8 14.1q-.7 1.2-1.9.4l-7.9-5.2q0-.1-.1-.1-.1 0-.1 0-.1 0-.1.1-.1 0-.1 0-9.2 11.9-20.3 23.3-13.9 14.2-27.4 22c-16.2 9.4-33.2 18.6-48.2 25.8q-4 1.9-7.8 3.1-.3.1-.6 0-.3-.1-.6-.3-.2-.3-.3-.6 0-.3.1-.6c.7-1.8 4.8-4.2 6.6-5.3q14.5-9.6 30.8-20.6 29.9-20.3 55.3-45.1 3.1-3 5.6-6.3.1 0 .1-.1 0-.1 0-.1 0-.1-.1-.1 0-.1-.1-.1c-10.2-6.6-20.5-13.9-15.4-27.9.5-1.3.9-2.9 1.7-4.1 5.1-7.5 15.5-15.9 25-15.3 12.1.7 11.4 17.2 9.1 25.1q-.3.8-.6 1.4-.2.3-.3.7zm-13.6 2.3q1.2.7 2.7 1.4.4.2.5-.3c.7-3.7.7-10-2.4-12.5-2.6-2.1-8.6-.5-10.7 1.9q0 .1-.1.2 0 .1 0 .1 0 .1 0 .2 0 .1 0 .2.9 1.8 2.2 2.9 3.4 3 7.8 5.9z" fill-rule="evenodd"/><path d="m352.9 250.5q.6.2 1.2.6 3 2.3 6 4.7.1.1.2.2 0 .1.1.2 0 .2 0 .3 0 .1-.1.2-4 7.3-7.8 14-.3.5-.7.8-.1.1-.2.2-.1.1-.2.1-.2 0-.3 0-.1-.1-.2-.2l-8.3-5.4q-.1-.1-.1-.1-.1 0-.1 0-.1 0-.2 0 0 .1 0 .1-11.8 15.2-25.7 28.6-11.6 11-27.5 19.9-18.7 10.5-36.1 19.4-6.7 3.4-13.1 5.9c-.5.2-1.3.3-1.8.3q-.4 0-.6-.2-.3-.2-.4-.5-.1-.3-.1-.7.1-.3.3-.5 1.4-1.5 3-2.6 19.8-12.8 38.2-25.5 28-19.4 51.7-42.7 2.8-2.7 5.2-5.9.3-.4-.1-.6c-8.2-5-18-11.9-16.5-23q.9-7.5 6-13c5-5.4 12.2-10.3 19.5-11.1 14.3-1.7 14 16.6 11.4 25.2q-.8 2.4-1.5 4.8-.3 1.3-.9 2.5-.6 1.3-1.1 2.4-.1.2-.1.5 0 .2.1.5.2.2.3.4.2.1.5.2zm-9.2-15.8q-1.1-3.5-4.5-3.6-4.6-.3-7.7 2.6-.1.1-.2.2-.1.1-.1.3 0 .1 0 .3 0 .2.1.3.9 1.7 2.3 3 4.5 3.9 10.3 7 .4.2.6-.3.9-4.1-.1-8.3-.1-.5-.4-.9-.2-.3-.3-.6z" fill-rule="evenodd"/><path d="m506.6 236.1q.1 0 .2.1.1.1.2.1.1.1.3.2.1 0 .2.1 11.1 5.2 20.6 10.9.2.1.4.3.2.2.2.4.1.3.1.5 0 .3-.1.5l-14.6 31.2q-.7 1.5-2.2.7-14.6-8-30.1-15.6-.2-.1-.4-.3-.2-.2-.3-.5-.1-.3-.1-.6 0-.3.1-.5 6-12.9 12.3-26.4c.4-.9 1.1-1.5 1.2-2.6.1-.8.6-1.5 1-2.2q.7-1.3 2-.8 2.1.8 3.9 1.9 1.1.7 2.3 1.2 1.5.5 2.8 1.4z"/><path d="m435 336.9c2.9.5 5.8-1 7.5-3.3 2.8-3.7 4-8.7 4.8-13.3q0-.4.4-.5.4-.1.9 0 .1 0 .1 0 .1.1.1.1.1.1.1.2.1 0 .1.1c2.1 10.3 1.3 21.6-5.1 30-3.6 4.7-10.1 8-15.6 4.4q-1.9-1.2-3.5-3.2c-10.5-13-5.6-30.6-.5-44.6q3.9-10.6 7.9-21.2 1.9-5 3-10.5.2-1 1.1-1 .2 0 .5.1.2.1.4.2.1.2.2.4.1.2.2.4.5 5.7-1.2 11.7-3.1 10.8-6.3 22.2-2.7 9.6-2 17.8c.3 4.1 2.4 9.3 6.9 10z"/><path d="m572.6 321.9c.6 1.5 1.5 2.8 1.9 4.3q1.7 5.7 2.9 12 1.1 5.4 1.9 11.8.8 6.2 1.5 13c1.2 11 3.6 21.6 8 31.4 2.4 5.3 5.1 10.5 9.4 14.2 8.3 7.2 20.1 11.3 31.2 13q6.1.9 14.6.9c38.2-.3 75.5-8.4 112.2-20.8 25.6-8.7 50.7-19.1 75.6-29q16.1-6.4 29.2-10c9-2.5 20.7-1.8 28 4.7 6.1 5.4 5.8 17.2 3.4 24.4-3.2 9.6-9.2 18-15.8 25.5q-10.6 12.2-21.5 24.3-10 11-17.3 22.5c-3.1 4.7-5.7 10-8.8 14.9q-.8 1.4-1.9 2.2-.3.2-.7.2-.4.1-.8 0-.4-.2-.6-.5-.3-.3-.4-.7-.3-1.7.1-3.6 1.2-5.6 3.6-11.2 7.4-17.5 20.6-33.8c6.3-7.7 13.7-14.5 20.4-21.9 2.4-2.6 8-9.6 3-11.8-3.7-1.6-9-.9-12.7 0-12 2.9-24.3 7.5-35.6 12q-26.6 10.7-48.9 19.2c-35 13.4-70.4 23.9-106.7 27.9q-21.2 2.4-38 1.6-17.3-.7-32.6-9.2c-7-3.8-11.7-9.1-15.4-16.5q-5.1-10.2-8.4-22.2-3-10.7-4.4-17.8-2.1-10.1-4.3-19.9-.9-4.3-2.7-9.6c-.8-2.4-3.2-8.2-6.4-4.7q-1.4 1.6-2.4 3.8c-8.1 18-18.4 36.2-41.2 36.5q-.1 0-.1 0-.1 0-.2.1 0 .1 0 .1-.1.1 0 .2c4.6 18.8 6.6 37.4 4.9 56.6-1.1 12.4-4.1 24-11 34.6-5.3 8.1-12.4 15.2-20.1 21.2-31.7 24.5-65.8 44.1-103.1 56q-20.3 6.5-37.8 8.8-12.6 1.6-27.5.3c-13-1.1-25.1-5.3-36-12.6-27.9-18.5-40.1-53-40.5-85.5q-.2-14.1 2.1-28.2 1.3-8.1 3.3-14.8 5.5-17.4 13.3-33.6 1.3-2.6 2.9-4.9.7-.9 1.7-1.1.4 0 .7.1.3.1.5.3.2.2.4.5.1.3.1.7-.1 3.9-1 7.1-2.1 7.8-4.3 15.6-3.3 11.8-5.4 26.7-1.2 8.1-1.3 14.2c-.4 18.6 4.9 39.1 16.2 54.1 10.3 13.6 25.5 21.6 42.6 23.9q19.8 2.7 41.3-1.1c40.5-7.2 78.5-25.3 112.1-48.7q6-4.1 11.9-8.5 13.7-9.9 25.2-22.3 0-.1.1-.2.1-.1.1-.3.1-.1.1-.2 0-.2 0-.3-4.9-44.6-25.9-84-.1-.1-.1-.2-.1-.1-.1-.3 0-.1 0-.3 0-.1 0-.2 3.2-18.3 6.3-35.7.1-.7.6-1 .2-.1.4-.1.2 0 .5 0 .2.1.4.2.2.1.3.3 5.5 8.1 11.9 15.2 3.2 3.5 8.5 7.1c8.7 5.9 20.1 4.3 29-.9q7.9-4.5 11.6-12.9 3.3-7.2 5.8-15.4c1.2-3.9 2.3-7.1 3.7-10.5q.8-2 2.5-4c2.8-3.3 6.1-2.5 9.2-.1q.9.7 1.5 1.6 1.7 2.5 2.7 5.3z"/><path d="m328.5 367.6 14.6-31.3q.1-.3.4-.5.2-.2.5-.3.3-.1.6-.1.3.1.5.2l30.3 15.6q.3.1.5.4.2.2.3.5 0 .2 0 .5 0 .3-.1.6l-14.6 31.2q-.1.3-.3.5-.3.2-.5.3-.3.1-.6.1-.3 0-.6-.2l-30.3-15.6q-.3-.1-.4-.3-.2-.3-.3-.5-.1-.3-.1-.6 0-.3.1-.5z"/><path d="m360.4 467.5q1.6-12.2 3.7-24.4 1.2-6.5 3.2-13.5c1.2-4.5 3-9.6 6.5-12.6 6.7-5.7 14.7 5.4 17.7 10.1q.2.3.1.7-2.2 5.4-4.2 10-.2.5-.5.9-.2.2-.3.2-.2.1-.4.1-.1 0-.3 0-.2-.1-.3-.2c-2.3-2.3-8.6-8.4-12-5.2-2.9 2.7-4.1 9.2-4.6 12.9q-1.5 11.6-2.7 21.9-1 8.8-3.4 17.2-.4 1.6-1.5 2.5-2 1.6-3.9 3.2-.3.2-.6.3-.3 0-.6-.1-.4-.1-.6-.4-.2-.2-.3-.5-3.3-18.2-10.1-32.8-2.7-5.7-6.2-10.2 0-.1-.1-.1-.1-.1-.3-.1-.1 0-.2.1-.1 0-.1.1l-1.8 2.6q-.1.1-.2.2-.1.1-.2.1-.2.1-.3.1-.1 0-.3 0-4.5-.8-8.4-2.9c-4.4-2.5-8.3-7.4-5.4-12.6q2.7-5 5-9.4c.6-1.1 1.7-2 3-1.8 17.3 3 25.9 25 29.6 40.3q.3 1.7.8 3.3.1.6.2 0z"/><path d="m794.8 458.4c-2.8 6.8-7.9 12.7-15 14.8-5.1 1.5-10 .4-14.7-2.1-7.9-4.2-16.5.3-22.7 5.6-9.8 8.3-16.9 19.1-27.1 26.9q-17.2 13.1-38.3 18-11.3 2.6-22 4.5-1.3.2-2.5.1-.2-.1-.4-.2-.1-.1-.2-.2-.2-.2-.2-.4 0-.2 0-.3.2-.8.9-1.2 1.8-1.1 4.1-2c16.1-6.7 31-12.8 46-21.6q11.4-6.7 21.1-17.2 6.5-7.1 13.6-14.8 4.1-4.5 9-8.4c5.7-4.6 12.9-8.2 19.9-3.5 6.4 4.4 17.8 2.8 22-4.1 2.4-4.1 4.7-8.1 7.8-11.6q.1-.1.2-.2.1-.1.3-.1.1 0 .2 0 .2 0 .3 0 1.1.3 1 1.6-.1 2-.4 3.9 0 .5.2.9c2.4 4.1 11.5 2.8 15.4 2.1q.1 0 .2-.1.1 0 .1-.1.1-.1.1-.2 0-.1 0-.2-1-3-2.8-5.1-.1-.1-.2-.2-.1-.1-.1-.3 0-.1 0-.3 0-.1 0-.3l2.9-9.8q0-.3.2-.4.2-.2.5-.3.2 0 .5.1.2 0 .4.2c3.4 3.9 4 10.4 2.8 15.2q-.9 3.7-1.9 7.3c-.8 2.9-2.6 5-5.6 5.9-5.3 1.4-10.9 2-15.1-2q-.1 0-.1-.1-.1 0-.2 0-.1.1-.1.1-.1.1-.1.1z"/><path d="m812.6 769.2q-1.7 7.7-3.6 15.4c-4 15.7-12.9 28.1-23.9 39.7-21.8 22.8-46.6 43.6-73.5 59.6q-14.1 8.4-29.1 14.5c-12.9 5.2-29.2 8-42.3 2.7-25.3-10.3-25.9-46.7-23.7-69.5q2.1-20.7 8.5-44.7 4.9-18.4 11.5-35.1 2.3-6 5-11.4c.5-1.1 1.5-3 3-2.9q.3.1.5.2.2.1.4.3.1.1.2.4.1.2.1.4c-.1 7.9-2.2 15.9-4.4 23.3-7.8 26.3-16.4 54.2-12.3 80.9q.5 3.4 2.2 7.6c8 20 28 19 44.8 13.1q15.9-5.6 31.8-14.6c28.9-16.3 54.7-37.8 78.9-61.7q11.4-11.3 17.8-22.3c.8-1.3 1.2-2.9 1.3-4.4.7-20.7-2.1-42.2-6.3-62.5q-9.5-45.3-27.2-88.8-.1-.4 0-.7l9.1-36.2q.1-.1.1-.1 0-.1.1-.2 0-.1.1-.1 0-.1.1-.2.7-.7 1.3-.4.4.3.6.7 15.8 28.4 25.9 58.7 13.6 41.2 18.4 83.4 1.8 15.5 3.3 34.4.7 10 3.2 25.1c2.2 12.6 5.4 25.2 11.8 35.8 5.4 9 15.1 13.5 25.6 14.8q23.6 2.9 45-9.2 1.1-.6 1.7-1.2.1 0 .1-.1.1-.1.1-.2.1 0 .1-.1 0-.1 0-.2-1.5-26-2.8-43.3-7.1-92.6-13.9-177.5-1.3-16.9-4.5-52.4c-.1-2.2-.3-4.1-1-6.2q-2.4-6.8-5-13.5 0-.1 0-.2 0 0 0-.1 0-.1 0-.2 0-.1 0-.2 2.2-5.6 4.7-11.2.9-2 1.7-4.2.5-1.4 1.2-2.9.6-1.3 1.1-2.7.6-2 1.6-3.9.9-1.8 1.5-3.7.6-2 1.7-3.8.2-.2.4-.3.2-.2.5-.2.2 0 .5.2.2.1.3.3 1.2 1.9 1.8 4.1.7 2.2 1.5 3.9 1 2.4 2.1 4.6.1.3 0 .7-.2.6.3 1.2.3.5.6 1 1 2.7 1.9 5.3.2.5.2 1.1 0 .3.2.7 1.3 2.6 2.3 5.2 5.2 13.6 10.2 28.2 2.7 7.6 4.7 15.4 1 3.6.9 6.6c0 1.4-1.4 2.8-2.8 2.1q-1-.5-1.8-1.2-5.5-5.5-10.3-11.2-.6-.7-.6.2 6.8 84.9 14.9 190 1.2 16 1.5 35.3.1 13.5-1 24.6c-1 9.4-3.5 17.3-6.2 26.3q-4.7 15-20.2 22.7c-13.4 6.8-29.7 8.6-44.3 6.3-9.9-1.6-20.1-5.8-25.8-14-3.1-4.3-5.8-9.3-7.8-14q-6.1-14.5-9.4-29.5-.9-4.1-1.7-7.6-1-4.1-1.7-7.9c-.3-1.2 0-2.4-.3-3.5q-1.7-7.1-2.7-14.7-.3-2.1-.8-.1z"/><path d="m588 493.4q.3-1.1.7-2.1.5-1.4 1.7-1 .4.1.5.4l2.8 6.8q0 .1 0 .2 0 .1 0 .1 0 .1.1.2 0 .1-.1.1 0 .8.5 1.7 1.4 2.8 2.4 5.3.2.5.1 1-.1.4 0 .7 1.3 3.7 3.1 7.6.2.3.2.6 0 .6.2 1.3 8.8 23.6 15 46.4c.6 2.3 1 4.9 1 7.3q0 .3-.2.6-.1.3-.4.6-.2.2-.6.2-.3.1-.6 0-.8-.1-1.4-.8-6.3-7.3-11.2-13.5-.7-.9-.6.2 8.6 112.1 16.9 219.4c.9 12.2.9 25.2-1.4 37.3q-3 15.4-7.8 29.3-.5 1.4-1.4 2.4-.3.3-.6.4-.4.1-.7 0-.4-.1-.6-.4-.3-.2-.3-.6-.7-3.1-.9-6.3c-.6-11.4-1-22.9-1.9-34.1q-10.8-130-21.2-261.4-.4-4.3-1.3-7.4-1.5-4.7-2.9-9.1c-.7-2-2-2.5-1-5q2.7-6.6 5.2-12.2.8-1.8 1.4-3.7.7-2.1 1.7-3.8.6-1 .8-2 .6-2.4 2-4.7.6-1 .8-2z"/><path d="m989.7 514.2q.2 1 .6 2.1l2.6 6.8q.2.3.2.7-.1.9.4 1.8.8 1.6 1.5 3.4 7.4 20.6 13.4 41.6c.8 2.6 1.3 5.4 1.8 8.1q.4 1.7 0 3.2 0 .3-.3.6-.2.2-.5.3-.3.2-.6.2-.3-.1-.6-.2-.8-.4-1.4-1.1-5.8-6.8-11.1-13.5-.5-.6-.4.2 8.5 110.4 17 220.4.8 10.8.2 23-.4 7.1-1.8 14.2-3 15.3-7.3 27.7-.6 1.8-1.6 3.3-.2.3-.5.5-.3.1-.6.1-.3 0-.6-.2-.3-.2-.4-.5-.7-1.3-.8-2.9c-.7-11.2-1.1-22.6-2-33.9q-10.8-131.9-21.5-265.8-.3-3-.5-3.8-1.9-6.7-3.6-12.1-.5-1.7-1.4-3-.1-.1-.1-.2-.1-.2-.1-.3 0-.1 0-.2.1-.1.1-.2l13.3-32.1q.2-.4.5-.6.3-.1.6-.1.4 0 .7.2.3.2.4.5.8 1.9 1.5 3.9.4.9.6 2 .2 1.1.9 2.3 1 1.8 1.4 3.6z"/><path d="m553.4 534.8c-2.3 3.1-3.4 8-3.9 11.9q-1 7.9-2.8 22.7-.9 7.8-3.2 16.3-.5 1.9-1.6 2.9-2 1.7-4 3.2-.3.2-.6.2-.4.1-.7 0-.3-.2-.5-.4-.2-.3-.3-.6-3.1-17.8-10.1-32.7-2.4-5-6.1-10.1 0-.1-.2-.2-.1 0-.2 0-.2 0-.3.1-.1 0-.2.1l-1.6 2.4q-.1.1-.2.3-.1.1-.3.1-.1.1-.3.1-.2 0-.4 0c-7-1.1-18.5-6.9-13.4-16 1.8-3.3 3.4-6.7 5.5-9.7q1-1.4 3-.9 6.6 1.7 11.1 5.7 6.2 5.6 10.4 14.3 5.6 11.5 8.1 23.7.1.4.1 0c2.1-13.7 3.8-28.5 8.1-41.5 1.7-5.2 6-13.5 13-9.8q2.4 1.3 4.1 3 3.1 3.2 6 7.6.3.5.1 1l-4.3 10.4q-.1.3-.3.4-.2.2-.5.3-.3 0-.5-.1-.3-.1-.5-.3c-2.3-2.3-7.1-6.6-10.3-6q-1.2.3-2.2 1.6z"/><path d="m179.9 562.7q-13.9-2.8-28.7-2-3.4.2-7.4.5-3 .1-5.6.6-2.7.5-5.6 1-.2.1-.5 0-.2 0-.4-.2-.2-.1-.3-.3-.2-.2-.2-.5c-.3-1.3 1.3-2.8 1.9-4.1q2.2-4 4.9-8.4 5-8.1 9.6-16 .1-.2.2-.3.2-.2.4-.3.1-.1.3-.2.2-.1.5-.1 22.3-3.2 44.8 1.5c4.1.9 8.1 2.3 11.8 4.5q.2.1.4.4.2.2.3.5.1.3 0 .7 0 .3-.2.6-5.3 9.3-10.9 19.5c-4.7 8.5-10 15.4-16.8 21.4q-4.4 3.9-9.8 4.6-20.2 2.7-39.1 4.2c-1.4.1-3.1-.1-3.2-1.9q0-.5.4-.7.8-.7 1.9-1.1c7-2.4 13.2-6.1 20-8.9q11.9-4.7 25.3-11.3 2.9-1.4 6-3.3.6-.3 0-.4z"/><path d="m845.3 593.2c2.3-14.2 4-29 8.4-41.9 1.6-4.6 5.7-11.7 11.8-9.2 4.5 1.9 8.4 6.9 10.9 10.9.5.8-.1 1.5-.4 2.3q-1.8 4.7-3.8 9.2-.1.3-.3.4-.2.2-.5.2-.3.1-.5 0-.3-.1-.5-.3-3.2-3.4-6.9-5.3c-4.5-2.3-6.6 1.6-7.7 5.1q-1.5 5-2.1 10.2-1.5 13.7-3.1 25.1-.9 6.1-3.1 13 0 .1-.1.3 0 .1-.1.2-.1.1-.2.2-.1.1-.2.2l-4.7 3.8q-.2.2-.5.2-.2.1-.5 0-.2-.1-.4-.3-.2-.2-.2-.5c-3-15.4-7.5-30.8-16.6-43.5q0 0-.1-.1 0 0-.1 0-.1 0-.1 0-.1.1-.2.1l-1.9 2.8q-.1.1-.2.2-.1.1-.3.2-.1 0-.3 0-.2 0-.3 0c-6.7-1.1-18.3-6.6-13.7-15.5q2.8-5.3 5.3-9.7c.7-1.3 2.2-1.6 3.6-1.3 17.6 4.1 25.6 26.5 29.3 43q.2.8.3 0z"/><path d="m647.5 619.6c3.6 2.3 8-.4 10-3.5 2.3-3.5 3.4-8 4.1-12.2q.2-.8.9-.9.2 0 .3 0 .2.1.3.2.2.1.2.2.1.2.2.3 1.1 6.5.8 12.8c-.4 8-4.1 18-11.7 21.8-5.6 2.7-10.3.5-13.9-4.2-9.6-12.7-5.2-29.7-.2-43.4q4.3-11.5 8.9-23.9 1.3-3.6 2.1-8.1.2-.9.9-1.2.2-.1.4-.1.3 0 .5.1.2.1.3.3.2.2.2.4c.9 3.4-.1 8.5-1 11.9q-2.6 9.4-5.6 19.7c-2.2 7.7-6.2 24.4 2.3 29.8z"/><path d="m300 753.1q.1-.2.3-.4.1-.2.2-.3.1-.2.2-.4 0-.2.1-.4 3.2-6.8 8-12.8 1-1.3 2.5-1.6.4 0 .7.3c1.7 1.6 0 5.3-.7 7.2q-.8 2.1-1.8 4.2-8.7 18.9-14.1 33.3-5.4 14.4-7.9 29.4-.1.4.3.3 33.5-6.1 62.8-17.4c21.6-8.3 41.8-19 59.7-33.3 3.9-3.1 7.3-6.5 10.5-10.3q0 0 .1-.1 0-.1 0-.1 0-.1-.1-.2 0 0-.1-.1-4.5-2.7-10-4.3-14-4.1-28.3-7.8-7.5-2-14.2-3.3-14.3-2.9-29.7-6.6-7.1-1.7-13.1-3.9-2.6-.9-5-2.5-2.1-1.4-1.6-3.5 3.9-17 7.6-33.1.1-.5.6-.6 18.5-4.6 35.8-13.4c7.9-4 16.8-8.4 23.6-13.6 10.1-7.9 18.8-18.4 25.4-29.2q1.4-2.4 2.9-4.8 1.5-2.3 2.7-4.7 3.4-6.4 6.9-12.2c1-1.7 3.3-4.5 5.6-3q.9.6 1.8 1.4.1 0 .3.1.1 0 .2-.1.2 0 .2-.1.1-.1.1-.3.1-.3.3-.6.3-.1.4-.4c6-8.8 13.7-18 21.6-24.9 8.9-7.7 21.6-13.1 32.5-5.8 6.1 4 11.2 10.4 14.6 16.7q10.2 19.4 9.7 40.8-.1 4.8-1.4 9.3-3.7 12-9.7 23.6c-1.2 2.4-3.9 7-7.1 6.7q-3.7-.4-7.6-1.1c-24.6-4.6-48.5-13.9-66.7-30.3q0-.1-.2-.1-.1 0-.2 0-.1 0-.2.1 0 .1-.1.2-2.2 5.6-4.7 11.2-7.8 17.5-19.2 31.1-8.6 10.2-19.2 16.8-.8.4.1.6 2.3.4 4.2.8 5.4 1.3 10.8 2.6 11.7 2.8 23.3 7 7 2.5 12.9 5.6 2.7 1.5 4.7 3.8 7.2 8.5 6.4 20.8-1.6 24.4-17.4 43.4-7.3 8.7-17.2 16.4c-26.1 20.2-56.3 34.5-88.1 43.3q-12.2 3.4-25.2 6.2-.1 0-.2.1-.1 0-.2.1 0 .1 0 .2 0 .1 0 .2 1 2.8 2.1 5.7 1.4 3.1 2.7 5.3c8.2 13 23 16.6 37.7 13.2 12.4-2.8 23.4-10 33.4-18.1q15.1-12.5 29.1-27 17.7-18.4 35.7-38.5 23.1-25.8 49.6-44.7c16.3-11.5 35.9-21.7 55.7-23q16.4-1.1 30.7 8.6 9.4 6.6 12.3 18.7 2.9 11.7 2.1 25.1c-.1 1.5-1.5 2.7-3 2.1q-1.5-.5-2.6-1.3-8.1-5.7-17.7-10.7-7.7-4-14.1-5.2c-11.7-2.1-24.2.5-35.2 5.1q-14.7 6-27.5 15.3-17 12.1-28.6 24.3c-8 8.4-16.3 17.1-24.2 25.9-14.5 16-28.2 31.1-44 46.2q-12.9 12.2-25.9 21.3c-4.9 3.4-11.1 7.1-16.7 9-25.9 8.8-48.4-8.1-57.6-31.6q-4.6-11.5-6-23.8-.1-.4-.5-.3c-13.7 1.8-27.4 3.5-41.3 4.1q-46 1.9-91-13c-11.4-3.7-20.7-8.3-30.1-15.6q-10.2-8-18.3-16.9-12.7-14.1-26-29-1.5-1.8-2.8-4-1-1.7.5-2.7.1 0 .1 0 .1-.1.1-.1.1 0 .2 0 0 0 .1 0 1.6.1 3 .8c10.4 5.4 20.6 11.1 30.8 16q13.2 6.4 26.7 12 7.1 2.9 14.9 5.2 43.8 13.2 87.9 10.8 23.3-1.3 46.3-4.8.1-.1.1-.1.1 0 .2-.1 0-.1.1-.1 0-.1 0-.2 3.8-19.3 11.4-38 2.8-7 5.8-13.7c.8-1.7 1.9-3.2 2.6-4.8q.7-1.9 1.8-3.6zm159.6-129.7q14.2 6.5 28.7 10.4.1.1.2 0 .1 0 .2-.1.1 0 .1-.1 0-.2 0-.3c-2.5-8.7-8.3-24.9-17.2-27.2-9.5-2.5-19.2 2-26.7 8.2q-.1.1-.1.3-.1.1-.1.2 0 .2.1.3.1.2.2.2 7.7 5 14.6 8.1z" fill-rule="evenodd"/><path d="m286.4 645.4q.6-3 1.3-6 .1-.1.1-.2.1-.1.1-.2.1 0 .2-.1.1 0 .2-.1.9-.3 1.1.7 1.4 6.6.9 13.5c-.6 8.2-5 19.4-14 21.8-5.3 1.4-9.4-1.8-12.2-5.9-9.1-13.1-4.2-29.9.7-43.4q3.7-10 7.5-19.9 2.1-5.6 3.3-11.5 0-.1.1-.2 0-.1.1-.2.1-.1.2-.2 0-.1.1-.2.6-.4 1.2-.1.4.2.6.7.1.6.2 1.2c.3 5.7-1.4 11.6-3 17q-3.1 10-5.4 19.2c-1.5 6.4-2.6 15.4.9 21.2 3.2 5.3 9.9 4.1 12.8-.6q1-1.5 1.8-3.2.8-1.4 1.2-3.3z"/><path d="m170.3 668.7q.2.8.3 0 1.3-9.1 3.1-20.1 2.1-13.1 5.1-21.7c1.2-3.3 3.2-7.4 6.4-9.2 6.5-3.7 13.9 6.3 16.6 11q.1 0 .1.1 0 .1 0 .1 0 .1 0 .2 0 .1 0 .1l-4.4 10.6q-.1.2-.3.4-.2.1-.4.2-.3 0-.5 0-.2-.1-.4-.2c-2.6-2.4-5.2-5-8.4-6-7-2.2-8.5 15.2-8.9 18.9q-1.2 11.1-2.6 21.2-.9 5.9-2.8 12.6c-.7 2.4-3.7 4.4-5.7 5.8q-.2.2-.5.2-.3 0-.6-.1-.2-.1-.4-.3-.2-.2-.3-.5c-2.2-12.4-6.1-25-11.5-35.4q-2.2-4.3-5-7.8-.1-.1-.1-.1-.1 0-.1 0-.1 0-.1 0-.1 0-.1.1l-2.1 2.9q-.1.1-.2.2 0 0-.1.1-.1 0-.3 0-.1 0-.2 0c-7.7-1.4-18.8-7-13.3-16.7q2.7-4.6 4.6-8.4c.7-1.3 2-1.9 3.5-1.5 10.2 2.3 17 10.5 21.5 19.5q5.5 11.2 8.1 23.8z"/><path d="m752.3 634.3-81.7 29.8q-.3.1-.6.1-.3-.1-.5-.3-.2-.2-.3-.5-.1-.2-.1-.5l2-11.4q0-.2.1-.3.1-.1.2-.3.1-.1.2-.2.1 0 .3-.1l81.6-29.8q.3-.1.6 0 .3 0 .5.2.3.2.4.5.1.3 0 .6l-2 11.3q0 .2-.1.3 0 .2-.1.3-.1.1-.3.2-.1.1-.2.1z"/><path d="m566.1 669.7q.1-.6.6-1.1.1-.1.3-.2.3-.1.5 0 .2.1.3.2.1.2.2.4c1.7 9.7 1.4 19.1-3.6 27.7-4.1 6.9-12.9 11.8-19.5 4.7-8-8.6-8.7-20.3-6-31.5 3-12.4 8-24.2 12.3-35.9q1.8-4.8 2.9-10.2.2-.8 1-1 .2-.1.4 0 .2 0 .4.1.1.1.2.3.2.1.2.3c1 3.5-.1 8.9-1.1 12.3-2.5 9.2-5.6 18.5-7.5 28q-1.6 8-.2 14.5c.7 3.1 3 6.9 6.5 7.4 8 1.1 11.2-10.1 12.1-16z"/><path d="m722.7 718.3c-2.5 4.7-5.6 9-9.9 12.1-9.2 6.8-20.8 1.5-24.6-8.2-3.5-9-3-19.1-1.7-29.3q.1-.3 0-.7c-.7-1.7-1.6-3.5-1.7-5.4q-.1-3.6 2.2-6.6 2.9-3.7 5.6-7 .2-.3.4-.4.3-.1.6-.1.3 0 .5.2.3.2.4.4 2.8 4.8 1.7 10.7-1.2 6.1-2.3 13c-.9 5.9.1 14.2 5.5 17.8 4.7 3.2 10.3 2.3 14.7-1.1 4.4-3.3 7.1-7 6.6-12.8q-.9-9.9-5-20.5 0-.1-.1-.3 0-.1 0-.2 0-.2 0-.3.1-.2.1-.3l4.1-9.5q.1-.1.1-.2.1-.1.2-.1.1-.1.2-.1.1-.1.2 0 .7 0 1.1.6c1.5 3 2.5 6.2 3 9.4q1.5 8.5 2.8 17.7c.3 1.9 1 3.8 1.6 5.7 2.4 7.1 10.1 10.1 17 7.8 4.6-1.5 3.5-5.7 1.7-8.9q-3.5-6.1-5.9-11.5-2.9-6.4-.8-13c1-3 2-6.9 3.8-9.4q.2-.2.4-.4.3-.1.6-.1.3.1.5.2.2.2.3.5.4.8.5 1.8c.5 3.9 1.4 7.6 3 11.1 2.4 5.3 5.4 11 6.6 16.6 1.9 9.4-2.1 18.5-8.7 25.2-4.6 4.6-10.8 6.5-16.9 3.4q-5.2-2.8-7.9-7.8 0-.1-.1-.1-.1 0-.1 0-.1 0-.2 0 0 0-.1.1z"/><path d="m868.4 731.8c2.5 6.1 9.4 6.8 13.2 1.5 2.7-3.7 3.8-8.4 4.6-12.9q.1-.5.5-.7.5-.3 1 0 .3.2.3.6 1.4 7.6.7 14.6c-.8 8.1-5 18-13.5 20.7-3.7 1.2-7.4-.1-10.1-2.8-9.7-10.1-8.5-24.6-4.8-37.1 3.2-10.6 7.6-21 11.3-31.3q1.6-4.3 2.5-9.2.3-1.4 1.6-1.1.2 0 .3.1.2.1.3.2.2.1.2.3.1.2.1.4.4 6.3-1.5 13-3.1 10.2-5.9 20.3c-2 7.2-3.6 16.5-.8 23.4z"/><path d="m200.1 762q-.1 0-.1 0 0-.1-.1-.1 0 .1-.1.1 0 0 0 .1c-3.3 8.6-10.7 17.7-21 13.2q-4.8-2.1-7.2-6-4.6-7.5-4.4-16.4.1-4.8.3-10.5 0-1.4-1.4-1.3c-8.3.2-10 16.9-11.2 22.6q-.4 1.9-1.8.7 0 0-.1-.1 0 0 0-.1-.1-.1-.1-.1 0-.1 0-.2-1.8-7.2-1.4-15.8c.4-8.5 4.5-16.4 11.9-20.1 3.1-1.6 7.9-1.9 9.6 1.8q1 2.3.7 5.4c-.7 8.2-3.6 24.3 8.3 26.4 7.6 1.3 15.5-6 14-13.8q-1.4-7.5-6.3-16.8-.4-.8-.2-1.6 1.1-4.3 2.3-8.3.1-.2.3-.4.2-.1.4-.2.2 0 .4 0 .2.1.4.3c2.5 2.7 3.9 7.6 5 11.3q1.6 5.7 3.2 11.2c2 6.7 5.9 11.5 13.8 10.4 1.7-.2 5-1.3 5.1-3.4.1-2.4-.9-4.8-2.3-6.7-3-4.3-7-8.6-7.7-13.8q-.4-2.5.5-6.5.6-3.4 1.3-6.7 0-.1.1-.3 0-.1.1-.2.1-.1.3-.2.1-.1.2-.1 1-.4 1.3.7 1.8 5.7 4.8 10.7c2.7 4.6 6.1 9.4 7.6 14.5 2.2 7.9-.9 19.9-8.7 24.1-5.8 3.2-13.8 1.7-17.8-3.8z"/><path d="m408.7 903.9q-2.2 1.4-4.2 3.1-.1.1-.2.2-.1 0-.2 0-.1.1-.2.1-.2-.1-.3-.1-1.1-.4-.6-1.6 3.4-9.8 7-19.3c1.1-3 6.5-4.9 9.3-6q59-22.6 124.1-47.4.3-.1.7-.1.3.1.5.3.2.3.3.6.1.3 0 .6l-6.9 19q-.1.3-.3.5-.1.2-.3.4-.2.2-.4.4-.2.1-.5.2-56.7 21.5-112.9 43.1c-.7.3-1.3.2-1.8.4q-4.1 2-8.3 3.5-3.2 1.2-4.8 2.1z"/><path d="m179.6 871.4q11.9 7 21.8 13 .2.1.3.1.1 0 .3 0 .1 0 .2-.1.1-.1.2-.2l14.7-26.5q.2-.2.3-.4.2-.1.5-.2.2-.1.5-.1.2.1.5.2 2.3 1.1 4.6 2.4 10.6 6 25.6 15.2.3.1.4.3.2.2.2.5.1.2.1.4 0 .3-.2.5l-14.8 31.1q-.9 1.8-2.6.7-15.8-9.8-31.4-18.5-.1-.1-.2-.1-.1 0-.2 0 0 .1-.1.1-.1.1-.1.1l-14.7 26.3q-.1.3-.4.5-.3.2-.6.2-.3.1-.6.1-.3-.1-.6-.2-14.7-9-29-16.7-.2-.1-.4-.3-.1-.2-.2-.4-.1-.3-.1-.5 0-.2.1-.5l14.7-31.4q.1-.3.3-.5.2-.1.5-.2.3-.1.5-.1.3 0 .6.1 4.7 2.4 9.3 5.1z"/></svg>