<svg height="1080" viewBox="0 0 1080 1080" width="1080" xmlns="http://www.w3.org/2000/svg"><clipPath><path d="m67 47h946.22v985.65h-946.22z"/></clipPath><path d="m813.6 237.5q0 0 0-.1-.1 0 0-.1 12.7-4.3 24.8-8.8.7-.2 1.3-.2.2 0 .3 0 .2-.1.3-.2.2-.1.2-.3.1-.2.1-.4-.5-6.4-.9-12.4-3.1-40.4-5.9-70-.3-3.1-1.4-6-2.4-6.4-4.8-12.6-.1-.1-.1-.2 0-.1 0-.1 0-.1 0-.2 0-.1.1-.2 6.3-15 12.9-30.9.2-.5.4-.6.2-.1.4-.2.2 0 .5 0 .2.1.4.2.2.2.4.4c.7 1.3.7 2.6 1.3 4q1.2 2.5 2 5.1.6 1.8 1.3 3.1.6 1.1.8 2.1.2 1.1.5 2 7 19 13.2 38.5 3.1 9.8 5.1 18.9.3 1.3.2 3.1c-.1 1.8-1.9 2.1-3 .9-1.9-2.2-3.9-4.3-5.6-6.6q-2.5-3.1-4.8-5.9-.6-.5-.5.2 1.9 27 4.4 53.5 0 .1 0 .2 0 .1-.1.2 0 .1 0 .2 0 .1-.1.2-.2.2-.2.5 0 1 .3 2 .3 1 .3 1.9 0 1.1.1 2.1 0 1.1 1 .7l42.9-15.4q.3-.1.6-.1.3.1.5.3.2.2.3.5.1.2.1.5l-2.4 11q-.1.4-.4.6-2 1.4-4.2 1.7-1.7.2-2.7.7-1.4.8-2.5 1.4c-1.4.8-3.1.7-4.6 1.4-.9.5-1.7.9-2.7 1.1q-1.7.3-3.3 1-3.6 1.7-9 3.5-.3.1-1.2 0-.4 0-.8.2-1.4.7-2.8 1.4-1.3.7-2.8.9-2.3.2-4.4 1.8-.3.2-.3.6.6 8.2 1.1 17 .2 3.6.7 8.3.5 3.9.8 8.3 2.3 30.1 4.7 59.9 1 11.9 1.8 25.3 1.3 19.1.8 37.7-.4 21.1-7.9 40.6c-.4 1-1.3 1.8-1.4 2.8q-.2.6-.5 1.1-1.8 3.2-4.1 6-.3.3.1.4.9.2 1.9.4 41.3 6.2 73.8 9.9.9.1.9-.9 0-4.1-.4-8.2-2.4-27.4-4.8-56.6-1.1-12.5-2.2-26.2-4.3-54.3-8.2-104-.4-4.7-1.4-8.3-1.9-6.7-4-11.9-.3-.5 0-1l12.7-30.8q.2-.4.5-.6.3-.2.6-.2.4 0 .7.2.3.2.4.5c.8 1.7 1 3.6 1.8 5.2q1 2 1.6 4.1.4 1.6 1.1 2.8 1.4 2.3 1.4 4.9 0 .4.3.7 1.4 1.8 1.3 4.1 0 .4.3.7c.5.6.4 1.2.8 1.8q1.2 1.8 1.7 3.9.5 1.9 1.1 3.7 3.5 9.6 7.6 22.6 3.5 11.2 5.1 19.3c.3 1.3.8 3.4-.4 4.3q-.3.2-.6.3-.3 0-.6 0-.3 0-.6-.2-.2-.1-.4-.3l-11.2-13.5q-.3-.4-.4.1-.2.8-.1 1.6.7 3.4.6 6.7-.1 3.3.3 6.7.9 9.2 1.7 18.6 4.6 61.1 9.4 122.2.3 4.5.6 8.9.3 5.3.7 8.9.5 5.2.9 10.7.1.2.1.4.1.1.2.3.2.1.3.2.2.1.4.1 10 .8 20.6 1.3c13.6.6 27.1.3 40.7.4q.3 0 .6.1.3.2.4.4.2.3.2.6 0 .3-.1.6l-15.3 32.8q0 .1-.1.1-.1.1-.2.2 0 0-.1.1-.1 0-.3 0c-14.5.2-29.2-.5-44.3.9q-.5 0-.5.5c.3 9.9-.2 19.1-2.2 28.8q-3.1 14.5-7.5 27-.4.9-1.1 1.4-.3.2-.6.2-.4 0-.7-.1-.4-.2-.6-.4-.2-.3-.3-.7-.5-2.3-.6-4.8-.7-15-1.6-28.5-.5-9.2-1.6-20.7-.1-.5-.5-.4-2.2.4-4.4.9-14 2.9-27.4 9.3-17.1 8.2-37.8 18.3-10.8 5.4-24 10.9-.4.1-.8.2c-.8 0-1.1.4-1.8.7q-9.6 4.2-23.3 8.5-17.3 5.6-33.2 7c-9.7.9-20-.1-28.8-3.9-13.7-5.9-20.5-19.9-25.4-33.7q-3.9-11.3-6.9-24.6c-.2-1-.1-1.9-.4-2.8q-1.1-3.1-1.4-6.1-.4-3.5-1.2-6.7-.8-3.5-1.1-6.2 0-.4-.1 0 0 .1 0 .1-.1.1-.1 0-.4-3.7-.9-7.1-.2-1.5-.6-.1-.5 1.4-.8 3.2-1.2 5.4-2.7 10.8-.2.9-.7 1.7-.3.6-.2 1.2 0 .7-.2 1.4-3.9 12.9-12.4 23.8-5 6.5-10.4 12.1c-20.1 20.9-42.8 40.2-67.5 55.3q-16.6 10.3-31.9 16.2c-17.6 6.9-39.5 9.3-52.7-5.8q-6.5-7.4-9.4-18.9c-3.5-14.1-3.2-29.5-1.4-44.2q2.9-23.5 9.7-46.2c.6-2.2 1-4.5 1.9-6.7q.6-1.4 1-2.9.5-2 1.2-3.8.9-2.3 1.6-4.7.7-2.4 1.9-4.7.6-1.2.8-2.4.2-1.4 1-2.8.8-1.3 1.2-2.8.7-1.9 1.4-3.6.2-.4.1-.8-.9-6.1-1.9-12.9-.1-.9-.7-1.7-.6-1-1.7-.4-28.8 15.3-48.6 22.5-20.2 7.3-50.6 13.4-30.1 6-64.3 9.5-75.7 7.7-151.2 3.2-26.8-1.5-53-5.1-10.5-1.4-16.1-2.5-19.5-4-35.1-13.9-19.2-12.3-37.5-24.4-9.4-6.2-16.2-11.8-1.6-1.2-2.7-3.1 0-.1 0-.2-.1-.1-.1-.2 0-.1 0-.2.1-.1.1-.2.9-1.8 2.8-1.4c5.3 1.2 10.6 3 15.9 4.2q15.2 3.5 31.4 7.1 18 3.9 47.3 8.8c33.3 5.5 69.6 8.4 106.9 9.1q64.4 1.1 126.9-6.2 33.9-4 65.2-11.2c17.9-4.1 34.5-9.1 50.7-16.3q12.8-5.7 20-9.5 7.4-3.9 14.7-7.6 2.7-1.3 5.9-1.7c3.6-.5 4.8 2.3 4.4 5.3q-.7 5.4-2.1 10.7-.6 2-.8 4.3c-.4 6.4 1.5 12 5.9 17.1 9.7 11 25.8 11.6 39.6 8.4q13-3.1 24.5-10.1 1.6-1 2.7-2.4.1-.1.1-.3.1-.1.1-.2 0-.2 0-.3 0-.1-.1-.3-2-4.1-3.7-8.2-2-5-3.6-8.2-3.9-8.1-7.8-16.2-8.2-17.3-13.3-35.7-.2-.4-.6-.6l-5-2.1q-.2 0-.3-.2-.2-.1-.3-.3-.1-.2-.1-.4 0-.3 0-.5 3.7-15.7 7.3-31.8.1-.5.4-.9.1-.2.3-.3.2-.1.5-.1.2-.1.4 0 .2.1.4.3 5.9 6 10.7 11.3c1.4 1.6 2.5 3.3 3.9 4.9q9.6 10.6 19.7 20.6c1.8 1.8 1.1 3.8-1.4 3.9q-4.9.1-10.3-.7-.1 0-.3 0-.1.1-.2.2-.1.1-.1.3 0 .1 0 .3 4.7 9.8 9 19 7.3 15.6 8.4 32.4 1 16-5.3 30.4-8.1 18.6-27 26.7-1.3.5-2.5 1-1.4.5-2.7.8-1.7.3-3.2 1.2-1.6.9-3.7 1.2-1.8.2-3.8.7-9.4 2.5-19.5 1.2-4.2-.5-8.5-2.1-1.4-.5-2.6-1.3-.9-.5-1.8-.9-.9-.3-1.6-.9-6.4-4.8-10.3-11.7-.6-1.1-.8.1-.2 1.1-.6 2.2-.4 1-.6 2.1c-.3 2-1.4 3.8-1.5 5.7-.1 1.2-.8 2.2-1.1 3.4q-1.9 7.4-4.2 14.2c-.3.7-.1 1.7-.4 2.5q-3.8 14.1-5.3 28.3-1.1 9.8-.3 20.3c.9 12.1 6.3 23.6 18.2 27.3 7.8 2.5 17.5 1.2 25.1-1.2q14.1-4.6 28.8-12.4c26.8-14.3 50.6-33.2 73.4-54.6 10.1-9.4 19.6-18.8 26-30.3.6-1.1.9-2.1 1-3.3.8-17-1.1-34.2-4.2-51.4q-1.9-11.1-4.6-22.3-8.9-37.5-23.6-73.9-.2-.4-.1-.8l8.7-34.3q1-4 2.9-.4l7.3 13.9q0 0 .1 0 0 .1 0 .1 0 .1 0 .1 0 0 0 .1-.1.6.3 1 .2.2.3.3 5.4 11 10 22.6 11.2 28.5 17.8 58.6 6.9 31.9 9.1 65.1c.4 5.6.9 11.3 1.8 16.9.4 2.5.2 5.2.7 7.7q1.1 5.6 1.9 11.2.3 2.5 1 4.6.7 2.4.7 4.6 0 .9.4 1.7.5.9.5 1.9.1.3.4.4.1 0 .2.2 1.3 5 3.2 9.6 1.8 4.6 4.3 8.8c13.1 22.4 41.9 19.2 63 13.6 22.9-6 46-16.8 68.9-28.1q.5-.2.9-.6.1 0 .1-.1 0 0 0-.1 0-.1-.1-.1 0 0-.1 0-26-4-52.2-8.1-41-6.3-80.8-9.2-1.7-.1-3.5-.1-.3 0-.5-.2-.3-.1-.4-.3-.2-.2-.2-.5-.1-.2 0-.5 2.9-8.1 6.1-16 .1-.3.3-.7 2.7-7.4 5.7-15c.9-2.1 5.5-3.2 7.9-3.6 6-1.1 12.4-2.3 18.2-3.2 20.1-2.8 40.7-5.8 60.9-9.4 4.2-.7 7.8-1.7 11.6-3.2q.6-.2.6-.9-1.5-25.1-3.3-49.2-3.4-46.2-6.6-87c-.1-1.7-.1-5.3-.4-7.9q-.3-2.2-.4-3.1-.6-9.9-1.6-20c-.1-1 .2-2 0-3q0-.4-.4-.3c-1.9.1-3.3 1.2-5.2 1.6q-2.1.5-4.2 1.5-.5.2-1.1.2-.5.1-1 .3-2.7 1.2-5.4 2.1-.3.1-.6 0-.3-.1-.6.3-.2.2-.4.3l-38.3 13.5q-.2.1-.4.1-.2-.1-.3-.2-.2-.1-.3-.3-.1-.2-.1-.4.6-5.7 2-11.8.1-.5.5-.6l13-4.6q.2 0 .4 0 .2 0 .3-.1.2-.1.3-.1 6.6-2.8 13.6-4.8.1 0 .1-.1z"/><path d="m913.2 124.5c9-.9 16.3 3.6 17.9 12.8 1.1 6-.5 12-1.3 17.9q-1.1 8-7.1 13.3c-9.5 8.4-22.9 4.1-25.5-8.3q-1.9-9.3 1.3-18.8.2-.5.4-1.1.6-1.5 1.1-3 1.7-4.8 4.2-9.6 2.4-4.6 3.5-8.6 1.2-4.6 1.8-9.4.1-.2.1-.4.1-.2.2-.3.2-.2.3-.3.2-.1.3-.1 1-.3 1.3.6 1.2 3.4 2.1 7.5.4 2-.9 7.4-.1.4.3.4zm-6.7 25.7q.9 1.9 2.6 3.1.5.3 1 .4.7.2 1.3.5 1 .5 2 .7c4.9.9 10.1-.2 13.2-4.3q.2-.3.1-.7-1-3.2-3.6-5.4-1-.9-2.1-1.8-1-.7-2.2-.9-1.4-.2-2.8-.6c-2.7-.9-6.1-.6-9-.4q-.2 0-.3 0-.1.1-.2.2-.1.1-.2.2-.1.1-.1.2-1.4 4-.7 8 .1.3.3.6.1.3.2.5.3.6.2 0 0-.1 0-.2 0-.7.3-.1z" fill-rule="evenodd"/><path d="m405.7 172.8c2.8-3.8 4-8.4 4.8-13q.1-.2.2-.3.1-.2.2-.3.1-.1.3-.1.2 0 .3 0 .6.1.7.7c1.9 10.8 1.2 22.3-6 30.2q-5.1 5.5-11.8 4.2-1.7-.4-3.1-1.6-1.5-1.3-2.5-2.5-4.9-6-5.9-13.8-1.1-9.2 2.2-20 4-13.4 10.1-28.4c.9-2.1 1.6-4.5 2.3-6.8.5-1.9.8-3.7 1.4-5.5q.1-.4.4-.6.7-.4 1.3-.1.3.3.4.7.6 5.3-.8 10.5-2.5 9.3-5.4 19-2 7-2.9 13.4-.7 6.1.4 10.3c.6 2.2 1.9 4.6 3.7 6.1 1.7 1.5 4.9 1.3 6.7.4q1.6-.7 3-2.5z"/><path d="m523.5 167.6q.8-2.1 1.7-4.2 1.1-2.3 1.8-4.2 1.4-4.3 3.1-7.8 1-2.3 1.6-4.6.7-2.6 1.5-4.6 2.3-6.3 4.8-13.6.5-1.5 1.3-2.5.3-.3.6-.4.3-.1.7 0 .3.1.5.4.3.2.3.6.2 1.9-.2 4.1-2.8 16.6-7.3 30-3.6 10.7-8.2 23.7-3.2 9-5.1 18.7c-1.4 7.5-1.5 15.2 1.3 22.2q3.6 8.6 10.9 11.6 2.7 1.1 6.7.4 3.2-.5 5.8-1.9c3.9-2.1 6-7.7 7.4-11.7q0-.2.2-.4.1-.1.2-.2.2-.1.4-.1.1 0 .3 0 1.3.2 1.2 1.6-.9 12.1-5.2 23.8c-3.1 8.6-9.6 14.4-19 14.1-11.4-.4-19.9-10-22.7-20.7-2.6-9.9-1.9-20.8.3-30.9q2.9-13 8.6-27.4 2-5.1 4.4-11.3c.6-1.6 1.5-3.1 2.1-4.7z"/><path d="m208.7 175.2q-1.6 10-6.5 18.9-2.2 4-8.1 11.3c-13.5 16.8-30.1 31-49.7 39.4q-7.8 3.3-15.2 5.8-17.6 5.9-34.7 11.6-.4.1-.8 0-.3-.1-.6-.3-.2-.3-.3-.7 0-.4.1-.7.4-.8 1.6-1.6c12-7.4 24.9-13.6 36.7-20q22.7-12.4 43.8-30.6 12.9-11.2 23.5-25 4.2-5.3 7.1-11.2.1-.1.1-.2 0-.1 0-.2-.1-.1-.1-.2-.1-.1-.2-.1l-4-1.5q-.3-.1-.6-.1-.2 0-.5-.1-1.7-.7-3.4-1.7-6-3.4-9.3-9.2-2-3.6-.2-7 2.3-4.2 4.6-8.6c.9-1.8 2.4-1.3 3.9-.9q4.3 1.1 7.2 3 6.9 4.6 11.7 13.4 6.2 11.2 9 24 0 .2.3.2.1 0 .2.1.1 0 .1-.1.6-1.9.7-3.7.1-1.7.4-3.6 1.2-8.4 2.6-16.3 1.2-7 3.6-15.2.5-1.3 1-2.6.6-1.2 1.2-2.4 1.5-3 4.1-4.8 1.1-.7 2.6-.9c2.9-.2 5.5 1.5 7.8 3.8q3.2 3.2 5.9 7.2.1.1.1.2.1.2.1.3 0 .2 0 .3 0 .2-.1.3l-4 9.9q-.1.3-.3.5-.2.2-.5.2-.3.1-.5 0-.3-.1-.5-.3-3.1-3.1-6.8-5c-4.3-2.2-6.5 1.8-7.5 5.2q-1.3 4.6-1.8 8.8-1.3 11.8-2.7 23.3-.9 7.4-3.2 14.7-.1.1-.1.2-.1.2-.2.3-.1.1-.2.2-.1.1-.2.2l-4.5 3.7q-.2.2-.5.2-.2.1-.5 0-.2-.1-.4-.3-.2-.2-.2-.5-2.3-12-6.6-23.6-1.6-4.3-3.5-8.2-.8-1.6-1 .2z"/><path d="m638.5 159q.1 0 0 .2 0 0-.1 0-1.3.5-2.6 1.2-1.1.5-1.9 1.3c-.8.9-1.8 1.2-2.4 2.2q-.9 1.7-2.4 2.9-1.1.9-1.6 2.1-.9 2.1-2.2 3.7-2.2 2.7-2.2-.8 0-1.1.3-2.3 1.7-6.5 3.4-11.5 3.5-10.1 10.8-16.6 2.9-2.5 6.4-4 6.1-2.4 10.4 2.1c6.4 6.8 6.2 19.4 3.9 27.8-.3.8-.1 1.5-.4 2.3-5 18.8-17.6 34.2-32.4 47.2q-.2.2-.4.2-.3.1-.5 0-.2-.1-.4-.3-.1-.2-.2-.4-.1-1.2.6-2.3 5.5-7.8 11.1-15.1 6.5-8.3 10.9-20.1.7-2 1.4-7 .6-4.6-.6-8.4 0-.1-.1-.1 0-.1 0-.1-.1-.1-.1-.1 0 0-.1-.1-.3-.2-.2-.6 0-.1 0-.2 0-.1 0-.2 0-.1-.1-.2 0 0-.1-.1-.6-.8-1.4-1.6-1.9-1.9-4.4-1.8-.7 0-1.2.4-.6.3-1.2.2 0 0 0 0 0 .1 0 .1z"/><path d="m763.9 162.4q-1.7-1.1-3.5-2.1-.1 0 0-.1 0 0 0 0 0 0 0-.1-4.2-3-6.8 1.1-1.1 1.8-2 5.4-.6 2.5-1 5.2-1.1 7-1.9 13.8c-.1.7-.5 1.2-.5 1.8q.1 5.2-1.2 11.9-1.2 6.9-2.5 11.2-.4 1.4-1.7 2.5-1.7 1.5-3.7 3.1-.2.2-.5.2-.3.1-.6 0-.3-.1-.5-.4-.2-.2-.2-.5-2.1-11.6-6.2-22.7-.3-.9-.4-1.8 0-.3-.2-.5-.5-.5-.7-1.1-3.1-8.4-8.2-15.4-.1-.2-.3-.3-.1 0-.3 0-.2 0-.4.1-.1 0-.2.2l-1.4 2q-.1.1-.2.2-.1.1-.3.2-.1.1-.3.1-.2 0-.3 0-6.5-.8-11.2-5-2.3-2-2.9-4.6-.8-3.1.7-5.6 2.6-4.3 4.9-8.8c.5-1.2 1.8-2.1 3.2-1.8q4.8 1.1 8 3.2 6.8 4.3 11.9 13.4 3.6 6.4 6.4 14.9.4.9.5 1.9.2 1.1.5 2 .8 2.3 1.5 4.6.6 1.7.9 0c.5-3.1.8-6.4 1.7-9.4q.4-1.4.2-2.8-.1-.4.3-.5.2-.1.1-.3-.1-.2-.1-.4.6-5.5 1.9-10.9.5-2.1.8-4.3.4-2.2 1.2-4.3.6-1.4.9-2.9.9-4.7 3.6-8.6 2.8-3.9 6.4-3.6 3.7.3 6.5 3 2.8 2.7 5.2 6.1 1.1 1.6.8 3.1-.8 3-2.5 6.3-.4.7-.5 1.8-.2 1.1-.7 1.8-.2.2-.4.3-.3.2-.5.2-.3 0-.5-.1-.3 0-.5-.2-1.1-1-2.2-2-.1-.1-.1-.3 0 0 0 0 .1-.1 0-.2z"/><path d="m345.3 255.1q-.7-.5-1.2.1-5.8 7.5-11.9 14.3c-9 9.9-18.6 19.3-29.5 26.4-9.7 6.3-20.5 11.8-31.1 17.6q-10.2 5.5-21.1 10.7-3.1 1.5-6.8 2.7-.3.1-.5.1-.3-.1-.5-.2-.3-.2-.4-.4-.1-.2-.1-.5c-.1-1.3 2-2.5 2.9-3.1q17.5-11.7 32.6-21.8 30.1-20.4 55.5-45.2 2.6-2.6 4.4-5.1 0-.1.1-.2 0-.2 0-.3 0-.2-.1-.3-.1-.1-.2-.2c-6.6-4.1-15.7-10.2-15.9-18.9q-.1-7.7 3.9-13.3 6.9-9.6 18.7-13 5.9-1.7 10.5 1.8 2.3 1.8 3.4 5.8 2.3 8.8-1 17.3-.4 1.2-.5 2.3c-.1.9-.5 2.3-1.1 2.9q-.3.3-.3.7.1.5-.1.8l-.9 2.1q-.1.1-.1.3 0 .1 0 .2.1.1.1.2.1.1.2.2l7.3 5.4q.1.1.3.2.1.2.1.4 0 .2 0 .4 0 .2-.1.3l-7.3 13.3q-.9 1.7-2.5.6zm-11.4-30.6q1.9 2.9 4.6 4.8 3.3 2.3 7.4 4.7.1 0 .2 0 .1 0 .2 0 .1-.1.2-.2.1 0 .1-.2.4-2.5.3-5.3c-.1-1.4-.6-2.6-.6-4q0-.5-.3-.8-1-1.6-2.5-2.6-.4-.3-.8-.3-1.5.1-3.1 0-1.5-.1-2.9.7-1.4.8-2.6 1.9-.2.2-.2.3-.1.2-.2.4 0 .1.1.3 0 .2.1.3z" fill-rule="evenodd"/><path d="m445.6 285.6c2.9-9.7 6.9-19.4 10.4-28.9q2-5.4 3-10.5.2-.9 1-1.2.2-.1.5-.1.2.1.4.2.2.1.3.3.1.2.2.5.5 5.5-1 11-3.6 12.3-6.3 22.4c-1.8 6.3-3.2 14.5-1.1 20.9 1.3 3.7 4.3 6.6 8.5 5.7 6.2-1.4 8.5-10.4 9.3-15.7q0-.2 0-.3.1-.2.2-.3.1-.1.3-.2.1-.1.3-.1.8-.2.9.6c2.1 10.3 1.2 21.6-5.6 29.9-3.3 3.9-9.1 6.5-13.9 3.8q-2.3-1.3-4.2-3.7c-7.9-10-6.6-22.7-3.2-34.3z"/><path d="m877.8 285.9 5.1-13.1q.1-.2.3-.3.1-.2.3-.2.2 0 .4 0 .1.1.3.2 4.3 4.7 7.8 9.8c11.7 17.2 11.1 38.6 5 58.4q-3 9.3-4.9 17.9c-1.5 6.4-2.5 20 6.4 22 3.7.9 6.4-4.1 6.7-6.9q.3-2.8.7-5.8.2-1.4 1.6-1 .2 0 .4.1.1.1.3.3.1.1.2.3.1.2.1.3 1.3 7.7 0 14.9-1.1 6.4-4.1 10.4c-3.4 4.5-9.5 4.2-13.6.8-3.9-3.2-5.5-9.3-5.8-14.2-.6-9.9 1.2-19.2 3.7-29.1q2.3-8.6 4.6-18.1 3.8-15.5-2.8-28.9-4.7-9.5-12.4-16.5-.1-.2-.2-.3-.1-.1-.1-.3-.1-.2-.1-.4 0-.1.1-.3z"/><path d="m771.7 337.7c.4-1.1.5-2.3.9-3.4q5.1-13.9 10.3-27.8c.9-2.5 1.3-5.2 2-7.8q.1-.2.2-.4.2-.2.4-.3.2 0 .5 0 .2 0 .4.1.7.4.8 1.3.3 5.7-1.4 11.5-3.4 11.6-6.5 23.3c-.4 1.4-.5 2.8-.8 4.2q-1.7 8.8.5 15.4.6 1.9 2.1 3.4 1.5 1.5 3.4 1.8 2.3.4 4.4-.8 2.7-1.5 4.1-4.1c2-3.6 2.8-7.3 3.6-11.2q0-.1 0-.1.1-.1.1-.2.1 0 .1-.1.1 0 .2-.1 1.1-.5 1.4.8c1.4 9.1 1.2 18.1-3.4 26.2-3.2 5.6-10.1 10.9-16.5 7.1-2.1-1.3-3.9-3.2-5.3-5.4q-4.8-7.5-4.6-16.8.2-4.1.9-8.4.8-4.2 2.2-8.2z"/><path d="m345.9 353.5q-4.5-2.1-9-4.5-7-3.8-8.9-4.7-5.7-2.9-11.5-5.7-.3-.1-.5-.3-.1-.2-.2-.5-.1-.2-.1-.5 0-.2.1-.5l14.2-30.3q.1-.2.2-.3.2-.2.4-.2.2-.1.4-.1.2 0 .4.1l6 3q.2.1.4.4.1.3.5.2.3 0 .6.1 11.4 5.5 22.1 11.6.2.2.4.3.1.2.2.4 0 .2 0 .5 0 .2-.1.4l-4 8.7q-.2.2-.4.4-.5.2-.4.7.1 0 .1.1 0 .1 0 .1-.1.1-.1.2 0 0 0 .1-3.6 7.4-7 15c-.9 1.9-1.9 3.5-2.9 5.3q0 .1-.1.2 0 0-.1.1-.1 0-.2 0-.1.1-.2.1-.3-.1-.3-.4z"/><path d="m164.6 348.6c3.3-10.9 7.7-21.5 11.5-32.1.9-2.5 1.5-5.1 2-7.7q.1-.2.1-.4.1-.1.3-.3.1-.1.3-.2.1-.1.3-.1 1-.2 1.3.8c1 4.4-.7 10.7-2 15q-2.8 9.4-5.5 19.2-2.5 9.4-1.5 17.4c1.3 10.6 11.9 11.6 15.8 1.9q1.9-4.6 2.7-9.4.1-.4.5-.6.5-.1.9.1.3.2.4.8 1.2 6.7.7 13.5c-.6 6.7-3.7 14.7-9.4 18.7-6.2 4.4-12.1 2.1-16-3.7-6.8-9.8-5.7-21.7-2.4-32.9z"/><path d="m354.8 362.4q.7-1.7 1.6-3.3 1-1.6 1.8-3.3 2.5-5 5.4-9.6.8-1.3 1.4-2.7.6-1.4 1.4-2.7.4-.7 1.2-.6 1.9.3 2.9 1.7.2.3.6.4 1.2.1 2.3.8c.7.5 1.6.5 2.3 1.1 1.9 1.5 4.6 2.8 6.1 3.7q7.8 4.8 15.4 9.3.2.1.3.3.1.2.2.4.1.3.1.5-.1.2-.2.4l-14.3 30.1q-.7 1.5-2 .6-11.9-7.4-25.7-15.3-1.9-1.1-4.2-2.3-.1-.1-.3-.1-.1 0-.3 0-.1.1-.3.2-.1.1-.2.2l-14.4 25.9q-.2.3-.4.4-.2.2-.4.2-.3.1-.5.1-.3-.1-.5-.2-13.9-8.5-28.2-16.2-.2-.1-.3-.2-.1-.2-.2-.4 0-.1 0-.3 0-.2.1-.4l14.2-30.4q.1-.2.2-.4.2-.1.4-.2.2-.1.4 0 .2 0 .4.1 7.2 3.3 14.5 7.8 7.9 4.9 15.4 9.3.6.4.9-.2 1-1.8 2-3.8.1-.2.4-.3 0-.1.1-.1.1-.1.2-.1 0-.1.1-.2 0-.1.1-.2z"/><path d="m567.4 476.5q.3-.9 1-1.1.5-.3 1.2 0 2.2.9 4.1 2.1c.7.4 1.2 1.2 2.1 1.4q.6 0 1.1.3 11.6 6.8 22.9 13.7.1.1.2.1.2 0 .3 0 .1-.1.2-.2.1-.1.2-.2 3.2-6.1 7.3-13 1.7-2.9 2.8-5.2.3-.7.9-1.4.7-.7 1-1.7.3-1.3 1.4-2.4c.5-.4.7-1.1.9-1.8q0-.2.2-.4.2-.2.4-.3.3-.1.5-.1.3-.1.5.1 2.5 1.1 5.2 2.6 12.6 7.3 24.3 14.5.2.1.4.3.1.2.2.4.1.3 0 .5 0 .3-.1.5l-14.5 30.5q-.2.3-.4.4-.2.2-.5.3-.2.1-.5.1-.3-.1-.5-.2-9.4-5.5-18.3-11-.8-.5-1.7-.8-.1 0-.2 0-.1-.1-.1-.1-.1-.1-.2-.1-.1-.1-.1-.1c-1.4-1.2-2.9-1.7-4.4-2.6q-2.8-1.8-6.2-3.5-.1 0-.2 0 0 0-.1 0-.1 0-.1.1-.1 0-.1.1-7.9 14.3-14 24.9-.3.6-.8 1-.1.2-.3.3-.2 0-.4.1-.2 0-.4-.1-.1 0-.3-.1-13.6-8.3-28.3-16.2-.2-.1-.4-.3-.1-.2-.2-.5-.1-.2-.1-.5 0-.3.1-.5 3.5-7.4 6.9-14.8 1.2-2.8 2.7-5.3.8-1.5 1.4-3.2.6-1.6 1.6-3 .2-.4.3-.8.1-1.2.8-2.2.3-.3.3-.6z"/><path d="m139.5 501.2c-5 2.2-8.8 7-11.4 11.9q-.7 1.3-1.8 2-.1.2-.4.2-.2 0-.4-.1-.2-.1-.3-.2-.1-.2-.1-.4-.2-1.2.1-2.3 1.1-4.7 2.3-8.8 2.5-8.9 7.8-15.9c4.9-6.3 14.8-14.1 21.7-5.9 1 1.2 2 2.8 2.5 4.2q3.6 9.2 1.6 19.8-3.1 16.7-13.6 31.1-8.7 11.9-19.8 21.4-.1.1-.3.1-.1.1-.3.1-.1.1-.3.1-.2-.1-.3-.1-.7-.3-.6-1c.2-1.8 3.6-5.9 4.6-7.4 6.5-8.4 11.3-14.3 15.4-22.9q2.8-5.9 3.9-12.3 1.1-6.3-.9-11.8-.4-.9-1.3-1.6-.8-.6-1.9-.8-3.5-.6-6.2.6z"/><path d="m479.6 519.7q-.4 6.1-1.2 11.6-.5 3.1-.9 6-.3 3-1 5.7-.9 3.6-1.8 6.9 0 .2-.1.3-.1.2-.2.4-.1.1-.2.2-.1.2-.2.3l-4.5 3.5q-.3.2-.5.2-.3.1-.6 0-.3-.1-.4-.3-.2-.3-.3-.5-2.9-16.4-9.4-30.9c-1.7-3.8-4-7.6-6.5-11.1q0 0-.1-.1-.1 0-.2 0-.1 0-.2 0-.1.1-.1.1l-1.7 2.3q-.1.2-.2.3-.2.2-.4.2-.2.1-.4.1-.2.1-.4 0c-5.1-.9-10.2-3.1-13-7.5q-2.2-3.5-.1-7.5 2.3-4.4 5.1-9.4c1.1-2.1 3-1.5 5.1-.8q7.1 2.1 12.1 7.9 4.7 5.5 8.1 13 2.7 5.8 4.2 11.2.3 1.1.5 2.1.2 1.1.6 2 .8 1.9 1.2 4 .1.4.4.4.1.1.2 0 .1-.1.1-.3.6-5.2 1.7-11 .8-4 1.3-8.1.6-4.2 1.6-8c.3-1.3.3-2.6.7-3.8q.8-2.5 1.4-5.1c.6-2.5 1.7-4.7 2.7-7.1q1-2.4 4.2-5 1.1-.9 2.7-1c3.3-.2 5.9 1.6 8.2 4.1q3.1 3.3 5.7 7 0 .1.1.2 0 .2 0 .3.1.1 0 .2 0 .2 0 .3c-.6 1.2-1 2.8-1.9 3.8q-.3.4-.3.9 0 .6-.2 1.2-.8 2.1-2.1 4-.2.3-.5.3-1.1 0-1.8-.8-.2-.3-.5-.3-.1 0-.2-.1-.3 0-.5-.2-1.2-1.4-2.6-2.5-.8-.7-1.7-1c-2.4-.5-3.5-1.4-5.8.4q-.9.6-1.1 1.6-.5 1.6-1.1 3-.5 1.1-.7 2.5-1.7 8-2.2 15.7 0 .1 0 .1 0 0 0-.1l-.1-1.8q0-.5 0 0z"/><path d="m259.6 540.1c3.2 5.2 9.7 3.7 12.5-.9 2.2-3.6 3.1-7.5 4-11.5q.5-2.4 1.7-.4.2.3.3 1.1.8 5.9.5 11.1c-.3 8.6-4.8 20-13.9 22.2q-4.9 1.2-8.8-2.6c-10.7-10.5-8.4-26.6-4-39.6q4.3-12.5 9.3-25.4 2-5.1 3.1-10.8 0-.2.1-.4.1-.2.3-.3.1-.1.3-.2.2-.1.4-.1 1.1-.2 1.2 1 .6 4.8-.8 10.2-2.7 9.9-5.7 20.2c-2.3 7.7-4.9 19.2-.5 26.4z"/><path d="m358.2 566.9c6.8-.6 9.2-10.3 10.1-15.8q.2-1 1.1-.9.2 0 .3.1.1.1.2.1.1.1.2.3 0 .1 0 .2 1.1 6.3.8 12.1c-.2 6.5-3 15.2-8.3 19.4q-8.9 7.1-16-1.4c-10.2-12.1-5.6-29.4-.8-42.7q3.9-10.8 8.1-21.8 1.7-4.5 2.7-9.7 0-.2.1-.3.1-.2.2-.3.1-.1.3-.2.1-.1.3-.1.6-.2 1 .2.4.4.4.9.5 5.4-.9 10.3-3.2 11.6-6.4 22.8c-1.8 6.3-2.9 13.7-1.3 20.1 1 3.9 3.8 7.2 7.9 6.7z"/><path d="m846.1 554.9q1.1-3.1 2.2-6.1.3-.7.3-1.5 0-.5.1-1 1.1-4.1 1.6-7.4.1-1.2 1.4-1.1.5 0 .6.5.3 1 .3 2-.1.4.2.7c2.5 3.7 1.9 7.8.9 12.1q0 .1 0 .1.1.1.1.2.1.1.1.1.1 0 .2 0c6.8 0 13.4 1.9 16.4 8.6q2.1 4.7 1.5 10.4-.4 4.2-.9 8.5-.4 2.6-1.1 5.6-1.9 8.7-9.1 13-4.9 2.9-9.7 2.4-6-.6-9.6-4.8c-4.6-5.3-5.3-15-3.7-21.7q.5-1.8.9-3.5.5-2.2 1-3.5c.7-1.6 1.3-3.1 1.9-4.7q.6-2.1 1.9-4 .6-.9.9-1.8.3-1.2 1-2.1.4-.4.6-1zm3.3 27.1q2.4 1.8 4.4 2.2 4.5.7 9.5-.9 1.1-.4 1.9-1.2c.9-1 2.1-1.5 2.3-3q.1-1.3-.9-2.1-.9-.7-1.2-1.9-.1-.3-.4-.6l-1.6-1.5q-.3-.3-.7-.4-1-.4-1.8-1.2-.3-.4-.8-.4c-1-.1-1.5-.7-2.5-.8q-5-.4-9.6-.2-.3 0-.6.1-.3.2-.5.4-.3.2-.4.5-.2.3-.2.6-.2 2.5-.3 5.1 0 1.6 1 2.9 1.1 1.3 2.4 2.4z" fill-rule="evenodd"/><path d="m585 617.2q.3-1.7 1.1-3.1.6-.9.7-2 .5-3.5 4.4-5.2 3-1.4 5.9-2.6c.8-.3 1.6-.3 2.3-.6q2.8-1.6 5-2.3 2.9-1 6.1-2.4.4-.2.9-.3.4-.1.9-.3 2.6-1.1 5.9-2.3 46-17.4 98.6-37.6.2 0 .3-.1.2 0 .4 0 .1 0 .3.1.2 0 .3.1.7.4.4 1.2-2.8 7.9-6.8 18.8-.1.4-.5.6-1.8 1-3.9 1.7-30.7 11.6-100 38.2-.3.1-.6 0-.4 0-.7.2-6.3 3.2-13.2 5-.4.1-.6.3-1 1.1-2.3 1-1 0-1.9.5-.9.5-1.5 1.1c-.8.8-1.6.6-2.3 1.3q-1.1 1-2.1 2-.2.2-.5.2-.3 0-.6-.1-.3-.1-.4-.4-.1-.2-.1-.5.1-1.4.9-2.7c.7-1.1.4-2.3 1-3.4q1.3-2.7 2.2-5.2.1-.2.1-.3.1-.2.1-.3.1-.2.1-.3 0-.2.1-.3z"/><path d="m653.3 854.4q-.3-1.7-.7 0-1.6 6.8-3.4 14.4-2 8.3-6.3 16.5-5 9.7-14.1 19.5-16.3 17.7-35.6 33.7c-20.2 16.8-42.4 31.6-66.7 41.4q-13.6 5.6-26.5 5.7c-22.1.2-33.7-14.8-37.3-34.9-2.9-15.6-1.8-32.2.9-48.9q1.7-10.2 4.2-21 .3-1.4.5-3 0-.1 0-.1.1 0 .1 0 0 .1 0 .1v.9q0 0 0 0 0 .1.1.1 0 0 0 0 0-.1 0-.1.6-4 2-7.9c.2-.8.2-1.6.5-2.4q1.9-6.6 4.1-13.6.3-1.1.6-2.2c.5-1.8 1.5-3.3 1.9-5.1q.4-1.6 1-3.1 1.1-2.6 2.2-5.5 2.2-6 4.7-11.2c.6-1.2 1.8-3.5 3.1-3.9q.3 0 .6 0 .3.1.5.3.2.2.4.4.1.3.1.6c-.1 2.7-.2 6.7-1.1 9.3-.4 1-.1 1.9-.4 2.9q-1.4 5.2-2.8 10.5-.3 1.3-.9 2.7-.8 1.8-.9 2.5-.4 3.4-1.8 6.6-.1.1-.1.2 0 .1 0 .2-.1.1-.1.2 0 .1 0 .2.1.5-.1 1-.8 2.9-1.8 6.1-.6 1.9-1 3.9c-.4 2.1-1.3 4.1-1.6 6.3q-.1 1.2-.4 2.4-4.8 19.4-4.2 37.9c.6 14.5 6.3 29.3 22.4 31.7 7.6 1.2 16-.4 23.4-2.9 23.4-8 45.7-21.6 65.6-37q23.9-18.3 44.9-39.6 8.8-8.9 14.9-18.8 1.4-2.4 1.6-4.9.7-16.2-1.7-34.2-2.5-19.4-6.7-37.1-9.1-38.7-23.8-75.1-.4-1-.1-2.1 2.6-10.7 5.6-22.4.1-.4.2-.8 1.4-5 2.5-10.1 1-4.4 3.2-.4 17.5 31.4 28.3 67.9 13.1 44.6 16.3 90.4 1.4 21.2 4.8 40.1.5 2.7 1.3 5.9.7 3 1.5 5.9 2.6 9.8 7 17.7 7 12.4 21.2 16.4 12.1 3.4 27.3 1.8 17.2-1.8 33.8-8.4.1 0 .1-.1 0 0 .1-.1 0 0 0-.1 0 0 0-.1c-4.2-10.3-5.8-21.4-6.1-32.3q-.2-6.7 1.2-13 .8-3.1 1.1-4.1 7.5-25.3 27.2-43.4 6.4-5.9 13.5-8.3c11.6-3.9 20.3 10.4 23.9 19.1q9.2 21.7 4.9 45.7c-2.3 13-8.1 24.7-16.3 35q-.3.4.2.7 1.5.9 3.2 1.3.9.3 1.8.5 21.4 6.1 43.7 2.9 17.9-2.6 33.4-11.5.2-.1.3-.2.2-.2.3-.4.1-.1.1-.3.1-.2.1-.5-1.3-21.7-2.5-37.8-4.6-61.1-9.2-119.5-3.2-40.6-6.3-78.9-1.2-14.1-2.5-27.9-.2-1.4-.2-2.7-.1-2.6-1.2-5.3c-1.5-3.5-2.5-7.1-4.1-10.8-.7-1.7-.2-3.3.5-4.9q2.6-5.7 5-11.8 2.6-6.6 6.3-15.3 1.8-4.2 3.4.1 1.6 4.4 3.5 8.6.1.1.1.2 0 .1 0 .2 0 .1 0 .1 0 .1 0 .2 0 .3 0 .7.1.4.3.7 2.2 2.7 2 5.6 0 .5.3.9.3.4.5 1 .2.6.5 0 0-.1.1-.3.1 1.3.6 2.3c.5.9.6 1.6.5 2.5q0 .5.4.7.3.3.4.6 3.5 9.1 7.4 19.7 4.4 12.2 7.7 24.4.7 2.4.8 5.7 0 1.7-1.5 2.3c-1.1.6-2.8-1-3.5-1.7q-5.6-5.9-9.6-10.4-.4-.5-.4.1c.1 2.6.5 5.1.5 7.8q0 2.6.3 5.2 0 .3-.1.6-.1.2.1.4.2.1.3.4 2.1 26 4 50.3 4.3 56.2 8.9 114.8 1.7 22 1.8 41.1c.1 12.7-.4 24.6-3.5 36.2q-1.7 6.6-3.7 12.3c-3.7 10.8-10.5 17.5-20.9 22.4q-19.1 9-42.5 8.7-30.9-.2-56.8-17.6-.1-.1-.2-.1-.1-.1-.2-.1-.2 0-.3.1-.1 0-.2.1-7.3 4.3-15.2 8.4-12 6.2-31.5 10.4-14.5 3.1-29.2 2.2c-14.1-.9-27.8-5.9-35.7-18.4-4.5-7.3-7.7-15.3-10.5-23.6q-.3-.9-.5-1.8c-.1-.9-.6-1.6-.8-2.5q-2.6-9.1-4.4-17.1-.9-4.3-1.9-8.8-.2-1.1-.3-2.3 0-1.2-.3-2.3-.8-3.4-1.5-6.9c-.5-2.5-.5-5-.9-7.6zm242.4-258.5q0 0 0-.1 0 0 0 0 0-.1 0 0 0 0 0 0 0 .1 0 .1zm-119.4 275.4q4.2 6.5 9.9 12.3 2.9 2.9 5.6 4.8.1.1.2.1.1 0 .2 0 .1 0 .1 0 .1 0 .2-.1 12.8-7.4 22.2-16.3 1.6-1.5 2.7-3.2c.6-1 .3-2 .1-3q-2.5-13.8-10.9-27c-1.3-2.2-3.6-3.8-6.1-2.7-6 2.7-10.5 6.5-15.6 10.5q-2.2 1.7-3.7 3.4-4.1 4.6-6.8 9.3-.3.6-.7 1.2c-.5 1.1-.2 2.9-.3 4q0 1.3.5 2.4 1.3 2.5 2.4 4.3z" fill-rule="evenodd"/><path d="m971.5 616.6q5.3 14.6 10.8 31.9 3.5 10.9 5.6 20.1.4 1.9.1 3.8 0 .3-.2.6-.1.2-.4.4-.3.2-.6.2-.3 0-.6-.1-.9-.3-1.6-1.1-5.8-6.9-10.5-12.7-.5-.6-.5.2 0 .2 0 .5 8.1 106.8 16 207.5.5 6.8.7 13c.2 8.5.2 17.1-1.2 25.5q-2.9 16.5-8.1 31.2-.4 1.2-1.1 2.3-.2.3-.5.4-.4.2-.7.2-.4-.1-.7-.3-.3-.2-.5-.5-.4-1.2-.5-2.2c-.9-13-1.2-24.5-2.2-36.7q-10.8-130.5-20.7-255-.4-4.3-1.5-7.9-1.7-5.5-3.9-10.9-.1-.4.1-.8l12.9-31.1q.1-.2.2-.3.1-.2.3-.3.2 0 .4-.1.2 0 .4.1.9.2 1 1.2.1.8.4 1.6 3.7 9.4 7.2 19 0 .2 0 .4 0 .3-.1 0 0-.1 0-.1-.1-.2 0 0z"/><path d="m266.5 620.3q-.4 1.4-.7 2.9-.2 1.4-.9 2.5-1 1.7-1.3 3.7-.1.4.3.6l7.1 5.4q.2.1.3.3.2.2.2.4.1.2 0 .4 0 .3-.1.5l-7.5 13.5q-.1.2-.3.4-.2.1-.5.2-.3.1-.5 0-.3 0-.5-.2l-7.5-5q-.1 0-.2 0-.1-.1-.2-.1-.1.1-.2.1-.1.1-.2.2-11.9 15.4-26.3 28.9c-9.2 8.6-19.9 15.1-32.2 21.9q-21.1 11.6-35 18.2-3.7 1.7-6.9 2.8 0 0-.1 0-.1 0-.2 0-.1 0-.2 0-.1 0-.2 0-1.3-.3-.9-1.6.2-.8 2-2 19.5-12.9 38.8-26.2 26.9-18.7 48.9-40.2 3-2.9 5.6-6.3.1-.1.2-.2 0-.2 0-.3-.1-.2-.1-.3-.1-.1-.3-.2c-9.2-5.3-18.1-12.6-15.4-24.3.9-3.5 2.4-6.9 4.7-9.6q7.5-8.6 17.8-11.3 5.9-1.6 10.2 1.9 2.6 2.1 3.6 6.7 1.5 7.4-.6 14.8c-.2.6-.5.9-.7 1.5zm-13.8 2.8q1.4.8 2.6 1.7.1 0 .2.1.1 0 .3-.1.1 0 .2-.1.1-.1.1-.2 1.3-6.5-1.6-11.4-.1-.2-.2-.4-.2-.1-.4-.3-.2-.1-.4-.3-.2-.1-.5-.1-3.1-.8-6.8.4-.7.2-1.2.7-.5.5-1.1.9-.2.1-.4.3-.1.2-.2.4 0 .2 0 .5.1.2.2.4 3.3 4.5 9.2 7.5z" fill-rule="evenodd"/><path d="m443.2 633.6q0-1.2.3-1.9 4.2-11.4 8.7-23.3 1.8-4.8 2.9-10.4 0-.1 0-.2.1-.1.1-.2.1-.1.2-.2.1 0 .2-.1.8-.5 1.4.1c1.5 1.7-.1 9.8-.8 12.2q-2.9 10.4-5.8 20.5-1.4 4.7-1.9 9-.6 5-.2 9.6.3 4.1 3.3 8.2.3.4.8.5 1.2.4 2.4.8 1.1.4 2.2.1 3.8-1.1 5.5-3.8 3.1-4.9 3.8-9.5.2-1.6.6-3 0-.1.1-.2 0-.1.1-.1 0-.1.1-.1 0-.1.1-.1.6-.3 1.1.2.2.2.3.6c1.6 10.3 1.2 19.6-4.6 28.1-4.1 6-12.3 9.3-18 3-1.3-1.5-2.8-3.1-3.6-4.8q-4.9-9.9-3.1-21.1 1.1-6.6 3.5-13.5 0-.2.2-.2.1 0 .1-.2z"/><path d="m561.4 635.8q-.7 1-1 2.1 0 .2-.5 1.3-.3.9-.1 1.7.1.4.5.7l6.9 5q1 .7.4 1.7l-7.4 13.4q-.7 1.3-2 .5l-6.7-4.6q-1.1-.7-1.8.3-9 11.4-19.8 22.5-11.2 11.4-23.4 19.1-7.6 4.7-17 9.8c-11 5.9-22.2 12-33.2 17.2q-3.3 1.6-6.6 2.7-.2 0-.4.1-.2 0-.4-.1-.2 0-.3-.1-.2-.1-.4-.2-.7-.7 0-1.5 1.3-1.5 3-2.6 20.3-13.2 39.7-26.8c15.5-10.7 30.4-23.2 44.7-36.6q3.9-3.7 7.7-8.3.1-.1.2-.3 0-.2 0-.3 0-.2-.1-.4-.1-.1-.3-.2c-9.7-5.6-18.8-13.3-14.9-25.9q0-.2.5-1.1c.4-.6.3-1.2.5-1.8q1.2-2.8 4.2-6.1 6.3-6.7 14.4-9.6c3.1-1.1 7.2-1.5 10.1-.3q2.2.9 3.7 2.7 1.3 1.6 1.8 3.6 2.4 8.5.2 15.4-.5 1.6-.8 3.4-.2 1.8-1.1 3.5 0 .1-.1.2-.1 0-.1-.1 0-.1-.1 0zm-9.5-8.9q-.3-1.1-1-2.1-.8-1.2-2.5-1.6-4.6-.9-8.5 2.3-.7.5-.2 1.3.9 1.5 2.1 2.6 3.9 3.6 9.1 6.4 1.2.6 1.5-.7c.6-2.8.2-5.4-.5-8.2z" fill-rule="evenodd"/><path d="m692.9 644.1q3.8-10.7 9-24.3 2-5.1 2.7-9.8.2-1.1 1.2-1.2.2 0 .4.1.3.1.4.2.2.2.3.4.1.2.1.4.5 5.4-1 10.9-3.1 10.7-6.1 21.6c-2.1 7.4-4.7 20.3 1.7 26.2 1.5 1.4 4.4 1.7 6.1 1 5.8-2.1 7.9-10 8.7-15.6q0-.1 0-.2.1-.1.1-.2.1-.1.1-.1.1-.1.2-.2.6-.4 1.1 0 .2.2.3.5 1.2 6.5.7 13.1c-.5 8.2-4.8 18.8-13.2 21.2q-5.8 1.7-10.3-3.3c-10.3-11.4-7.1-27.7-2.5-40.7z"/><path d="m808.5 678.7q-.2.3-1.1 1.8-.2.1-.3.2-.2.2-.4.2-.2 0-.4 0-.2-.1-.4-.2l-7.5-4.9q-.1-.1-.2-.2-.2 0-.3 0-.2.1-.3.1-.2.1-.3.2-10.2 13.3-22.6 25.4-12.4 12.2-28.2 21.1-17 9.5-32.8 17.6-7.6 4-15.3 7.2-1 .4-2.1.4-.2 0-.5-.2-.3-.1-.4-.4-.1-.3-.1-.6.1-.3.2-.5 1.1-1.4 2.6-2.4 20.3-13.2 40.5-27.2 24.2-16.8 47.9-39.9 2.5-2.4 4.5-5.2 0-.1 0-.2.1-.1 0-.2 0-.1 0-.2-.1-.1-.2-.1c-9.6-5.8-19.7-13.6-15-26.7q1.7-4.7 4.7-8.1c4.4-4.9 10.6-9 17-10.6 6.8-1.6 12.3 1.2 13.8 8q1.5 6.8 0 13.3-.4 1.7-.7 3.4c-.4 2.1-1.5 3.7-2 5.8q-.4 1.5-1.2 3-.1.2-.1.3 0 .2 0 .4 0 .1.1.3.1.1.2.2l7.2 5.3q.2.1.3.3.1.1.1.3.1.2 0 .4 0 .2-.1.3-2.5 5-5.7 10.5-.5.9-.9 1.8zm-18.7-30.5q3.1 2.7 7.1 5 .4.2.6.6.7.8 1.8.9.4 0 .5-.4.9-4.3-.2-8.6c-1.6-6.1-8.5-4.9-12.2-1.9q-.2.1-.3.3-.1.2-.1.4 0 .2 0 .5.1.2.2.3 1.3 1.7 2.6 2.9z" fill-rule="evenodd"/><path d="m359.1 650q-.1-.2-.3-.4-.2-.1-.4-.3-.2-.1-.4-.2-.3 0-.5 0-6.5-.5-11.2 4.3-4 4.3-7 9.7-.4.8-1.3.7-.3 0-.5-.1-.2-.1-.3-.3-.2-.1-.2-.4-.1-.2 0-.4c1.4-6.9 3.2-14.1 6.3-20.1 3.4-6.6 9.6-14 17.1-15.6 6.8-1.4 11 5.5 12.4 11.3 2.7 11.3-.5 24-5.5 34.3-6.6 13.4-16.5 24.7-27.7 34.5q-.2.1-.4.2-.3 0-.5-.1-.3-.1-.4-.3-.2-.2-.2-.4-.2-1 .4-1.8 4.9-7.3 10.3-14.2 9.9-12.6 12.9-25.5 1.1-4.5.1-10.3-.1-.8-.5-1.5-.3-.8-.7-1.5-.2-.4-.5-.6-.6-.4-1-1z"/><path d="m132.9 735.2q4.4-1.2 6.7-5.6 2.5-4.6 3.2-10.4.2-1.1 1.3-1.1.4 0 .5.4c2 8.8 1.3 18.8-3 26.5-3.5 6.2-11.2 11.7-17.7 6.6-7.8-6.1-9.9-17.3-8.4-26.8q1.4-8.7 4.6-17.5 3.6-10.3 7.8-21 2.2-5.7 3.2-11.3.2-.7.8-1.1.5-.3 1 0 .4.3.5.8c.9 3-.1 8.5-1 11.4q-3.5 12.1-6.5 23.3-2.3 8.6-1.4 17.2.2 2.8 1.7 4.7 1.7 2.3 4 3.5 1.4.8 2.7.4z"/><path d="m284.9 727.4q.2.1.1.4-.1.2-.1.4.3 4.1-.2 5.9-2 7.6-7.4 13.6c-3.7 3.9-8.2 6.5-13.4 5.8q-1.5-.2-2.8-1-1.5-.9-3-1.6-.8-.5-1.7-1.3-.8-.8-1.6-1.5-1-.7-2.5-3.4-.4-.6-.7 0c-3.3 5.7-7.6 11.9-14.2 13.9-8.8 2.7-17.4-3.7-19.9-12.1q-1.5-4.9-1.8-9.7-.4-8.3.7-16.6c.2-1.4-.6-2.2-1-3.4q-1.7-5 1.5-9.3 2.6-3.4 5.6-7.1.1-.1.3-.2.2-.1.4-.1.2 0 .4.1.2.1.3.3c2.8 3.7 2.5 8 1.6 12.7q-1.1 5.7-1.8 10.7c-1.3 8 1.3 19 11.5 19 5.9.1 13.2-5.6 14.3-11.5q.4-1.7.1-4.4c-.6-6.7-2.4-13.2-4.8-19.6q0-.1 0-.2 0-.1 0-.2 0-.1 0-.2 0-.1 0-.2l3.9-9.2q.2-.2.4-.3.2-.2.4-.2.3 0 .5.1.3.1.4.3c2.5 4.3 3.2 9.8 4 14.5q.2 1.2.1 2.3 0 1 .3 2c.5 1.7.3 3.4.8 5.1q.9 3 1.2 6.3.2 1 .7 2.1.6 1.1 1.1 2.2.7 1.3 1.7 2.3.9.9 1.8 1.9 0 .1.2.2.1.1.2.1.1.1.2.1.1 0 .3 0 1.3-.1 2.7.3 0 0 .1 0 0-.1 0-.1-.2 0-.4 0-.5.2 0 .3.1.1.2.1.2 0 .3.2.1.1.1.2 0 .2.2.3 4.3.9 8.4-.9 3.3-1.3 2.8-4.3-.7-3.6-2.7-6.4-.5-.8-.8-1.8c-.3-.8-.9-1.3-1.3-2.1q-1.6-2.9-2.5-5.3-1.9-5.2-1.3-9 .9-5.1 3.8-11.9.4-1 1.5-1 .1 0 .3.1.2 0 .4.2.1.1.2.3.1.1.1.3.5 2.3.8 4.8.4 2.2 1.2 4.3 1.8 4.7 4.1 9.5.8 1.9 1.4 3.6.4 1.2.9 2.3c1 1.9.9 4.3 1.1 6.4q0 .3.3.6z"/><path d="m932.3 777.3q-.1-.1 0-.3 3.4-11.4 3.8-17.6 1.4-16.8-10-31.2-3-3.9-6.4-6.9-.1-.1-.2-.3 0-.1-.1-.3 0-.2 0-.3 0-.2.1-.4l5.1-13.1q.1-.2.2-.3.1-.1.3-.2.2 0 .3.1.2 0 .3.1 8.8 9.1 13.4 20.1 1 2.5 1.5 4.9c.5 2.1 1.3 4.3 1.6 6.3q2.1 16.2-2.2 32-2.7 9.6-5.1 18c-2 7-5.2 24.6 5.3 26.9 3.6.7 6.3-4.1 6.6-6.7q.4-3 .7-6.2 0-.1 0-.2.1-.1.1-.2.1-.1.2-.2 0-.1.1-.1c.7-.5 1.7-.4 2 .4 2.5 7.9.7 31.4-12.4 28.9-6-1.1-9-6.3-10.1-11.9q-1.1-5.2-.9-10 .2-4.5.8-9.8.7-5.6 5.1-21 0-.2-.1-.5zm4.1-24.2v5.8q0 0 0 .1 0 0 0 0 0 0 0-.1 0-2.9 0-5.9 0 0 0 0 0 0 0 .1z" fill-rule="evenodd"/><path d="m372.1 823.8q11.5 6.3 24.1 8.4 11.9 1.9 27.5 4.1 5.1.7 10.5 2.3c11 3.4 15.3 13.7 15.7 24.5.5 10.9-1 21.2-5.2 30.9-6.5 15-17.2 26.5-30.1 36.3q-25.3 19.1-54.6 30.7-11.8 4.8-23.6 8.3-31.1 9.3-64.8 12.5-8.1.7-15.8 1.1-43.8 2.4-87.2-11.2c-8.7-2.8-17.3-6-25-10.9q-13.3-8.6-24.8-21.2-11.4-12.4-26.1-29.1-2.8-3.1-3-4.3-.4-1.9 1.4-2.1c.7-.1 1.8.3 2.5.6q6.5 3.3 13.8 7.2 19 10.4 40.3 19.3 12.2 5.1 25.4 8.5 35.8 9.2 69.3 8.1c36.4-1.1 73.4-7 108.2-18.3 24-7.8 46.8-18.5 67.4-33.4q10.4-7.4 18.2-17.2.1-.2.2-.4 0-.2 0-.4 0-.2 0-.4-.1-.2-.2-.4c-3.5-4.3-11-5.8-16.3-6.7-8.3-1.4-16.6-2.6-24.9-3.7-20.4-2.8-44.1-11.4-48.9-34.1q-2.9-13.6 1.5-29.1.2-.8.3-1.5.1-.9.3-1.6 11.3-35.2 40-58.1 11.6-9.2 24.1-13.9c4.3-1.6 9.2-3.2 13.7-2.6 17.5 2.1 21.6 23.9 30.8 35.3 8.3 10.2 19.4 12.6 31.7 8.8 18.7-5.6 29.3-21.9 40.6-36.6 3-3.9 7.5-9 11.9-10.5 2.4-.9 4.2.9 3.3 3.3q-1.6 4.4-3.6 9.3c-1.6 3.7-2.5 8.4-.9 12.2q.1.3.1.7 0 .4.2.7.9 1.6 1.8 3.1c6.3 10.6 20.3 12.4 31.6 10.2q5.7-1.1 10.3-4.1.6-.3.4-.9-.4-1.7-1.3-3.4-2.5-4.5-5.5-9.5-.1-.3-.2-.5-.1-.2-.1-.5 0-.2 0-.5 0-.2.1-.5l8.3-31q.9-3.5 2.7-.3 1.6 2.8 3.2 7.5 2.5 7.7 3.9 16 1.5 8.6.9 15-.6 6.4-3.5 15.9-3.5 11.7-9.2 19.6c-5.8 8.2-14.6 14.2-24.7 13.2-15.1-1.4-26.2-15.2-30.5-28.6q-.1-.3-.3-.5-.2-.2-.5-.3-.3-.1-.6 0-.3.1-.5.3-2.1 1.8-3.4 3.6c-9.1 12.5-19.8 28.8-35.7 33.3q-5.7 1.7-12.8 2c-15.5.7-27.2-7.2-34.6-20.3-3.6-6.6-6.5-13.3-11.3-19.1q-6.8-8.1-17.8-5.2c-7.8 2-15.3 6.6-21.7 11.3q-12.6 9.1-23 20.4-4.5 4.8-7.9 10.3-.3.4-.2.8 1.2 4.2 2.9 7.2c2.2 4 7 7.8 11.2 10.1z"/><path d="m777.3 730.7q10 5.8 19.7 11.8.1.1.2.1.1 0 .3 0 .1-.1.2-.1 0-.1.1-.2 6.1-11 12.2-22c.8-1.4 1.3-2.9 2.4-4.1q.2-.1.3-.2.2-.1.4-.2.3 0 .5 0 .2.1.4.2 3.9 2 7.7 4.1 1 .6 2 1.3c.9.7 2 1 3 1.6q8.4 5.2 16.6 10 .2.2.3.4.2.2.3.4 0 .2 0 .5 0 .3-.1.5l-14.6 30.5q-.1.2-.3.4-.3.2-.6.3-.2.1-.6.1-.3-.1-.5-.2-13.1-8.1-24.7-14.8-2.9-1.6-6.1-3.3-.1-.1-.2-.1-.1 0-.3 0-.1 0-.2.1-.1.1-.1.2l-14.1 25.3q-.2.3-.4.5-.3.2-.6.2-.3.1-.6.1-.3-.1-.6-.2-13.6-8.4-27.9-16.1-1.3-.7-.7-2l14.1-30.3q.1-.3.3-.5.2-.1.4-.2.3-.1.6-.1.2 0 .4.1c3.8 1.6 7.2 3.9 10.8 5.9z"/><path d="m936.4 758.9c0-2 0-3.9 0-5.8q0-.1 0-.1 0 3 0 5.9 0 .1 0 .1 0-.1 0-.1z" fill="#fff"/><path d="m699.6 829.7c.5-1.7.5-3.5 1.1-5.2q4.8-15 11-30.8 1.8-4.3 2.9-10.2.1-.7.6-1c.7-.4 1.5 0 1.7.7.8 3.8-.4 9.2-1.5 13q-3 10.6-5.9 21.2-1.9 7.1-1.8 14.4.1 4.6 1.6 7.6.6 1.1 2 2.5c2.9 2.6 7.3 1.7 9.7-.9q2.1-2.3 3.2-5.3 1.2-3.4 2.2-8.3 0-.4.4-.6.5-.3 1 0 .4.2.4.5c1.2 8.4 1.4 16.1-1.9 23.6q-3.2 7.4-8.9 10-6.1 3-11-1.6c-8-7.4-9.3-19.4-6.8-29.6z"/><path d="m503.8 852.8q1.5-1 3.1-1.4 1.6-.5 3.3-1.2 2.3-1 4.7-1.9 55.4-21.2 111.1-42.4.1 0 .3-.1.1 0 .3 0 .1 0 .3.1.1 0 .2.1.8.4.5 1.2-3.4 9.4-6.7 18.3-.5 1.4-2.2 2-3.6 1.2-6.6 2.5c-.5.2-.9.1-1.5.4q-2.7 1.2-5.7 2.3-26.9 10.1-87.7 33.5-.1 0-3 1.3-1.7.8-3.5 1-1.7.3-2.7.8-1.3.6-2.5 1.3-1 .6-2.3.7-1.1.2-2.3.6-.4.2-.7.5-.7.9-2 .9-.5 0-.9.2l-1.8.9q-.1 0-.1.1-.1 0-.1.1-.1 0-.1.1 0 0-.1.1-.1.5-.6.6c-1.1.2-2.2 1.3-2.9 2.2q-.5.7-1.3.5-.3-.1-.5-.3-.2-.1-.3-.4-.1-.2-.1-.5 0-.3.1-.5.7-1.8 1.5-3.7.8-1.7 1.3-3.6.6-2.3 1.7-4.2.2-.4.2-.7 0-.6.2-1.1.7-2 1.3-4 .6-2.1 1.8-3 1.3-1.1 3.1-1.8.8-.4 1.7-.7.8-.4 1.5-.8z"/><path d="m194 885.3c2.8.9 5.9-.6 7.7-2.8 2.9-3.4 4.2-8.6 4.9-12.9q0-.5.4-.7.5-.4 1-.1.3.2.4.5c1.7 9.2 1.3 18.7-3.5 26.8-4.5 7.6-13.5 11.6-20 3.6-9.9-12.2-6-28.4-1.2-41.9q3.8-10.5 7.5-20.1 2.4-6 3.7-12.5.1-.3.3-.6.3-.2.6-.3.3 0 .6.1.3.2.5.4c1.2 2 .1 8.2-.6 10.6q-2.4 9-5.8 21c-2 6.9-6.2 25.5 3.5 28.9z"/><path d="m329.2 869.1q.6.4 1.2.8 8.6 5.2 16.3 9.9.3.1.4.3.2.2.3.5 0 .2 0 .5 0 .3-.1.5l-14.4 30.2q-.8 1.6-2.3.7-10.3-6.2-20.5-12.3-4.8-2.9-10.1-5.6-.1-.1-.3-.1-.1 0-.2.1-.2 0-.3.1-.1.1-.1.2l-14 25q-.9 1.6-2.5.6-13.9-8.5-27.9-16-.2-.1-.4-.3-.2-.2-.2-.4-.1-.3-.1-.5 0-.3.1-.5l14.3-30.6q0-.2.2-.3.1-.1.3-.2.1-.1.3-.1.2-.1.4 0c.8.1 1.7.3 2.5.9q.8.6 1.9 1 0 0 .1.1.1 0 .2.1.1 0 .1.1.1.1.2.2c.5.7 1.3.6 2.1 1q11.8 7 23.8 14.2.1 0 .3.1.1 0 .2 0 .1-.1.2-.2.1 0 .2-.1l14.4-25.8q.1-.2.2-.4.2-.1.4-.1.2-.1.4-.1.2 0 .4.1 5.9 2.7 12 6.4z"/></svg>