<svg height="1080" viewBox="0 0 1080 1080" width="1080" xmlns="http://www.w3.org/2000/svg"><clipPath><path d="m67 47h946.22v985.65h-946.22z"/></clipPath><path d="m938.3 401.8q6.2 67.5 12 132.9c1.7 19.1 2.3 38.4 1.8 57-.7 25.2-9.2 49.7-24.9 69.4q-7.4 9.3-14.7 15.5-3.1 2.7-7.7 5.3-6.1 3.4-11.6 5.7-15.6 6.5-32.3 11.4-12.7 3.8-25.1 7.5-1.2.3-2.6.4-.2 0-.4 0-.1-.1-.3-.2-.1 0-.2-.2-.2-.1-.2-.3-.3-.8.5-1.5 1.4-1 2.7-1.8 10.7-6.4 21.8-12.9c8.7-5 17.6-10.4 25.8-16.2q13-9.2 26.8-22.2 12.3-11.5 21.7-23.6 4.7-6.1 7.8-12.5c1-2.1 1.3-4.5 1.4-6.8q.2-8.1-.7-17.3-1.8-18.1-3-32.6-4.3-48.8-8.8-101.7-2.7-32.3-6.1-65.8-.4-4.1-1.4-7.4-1.5-4.8-3.4-9.6-.1-.2 0-.4 5.2-12.5 10.5-25.2.2-.6.9-.7.1 0 .3 0 .1 0 .3.1.1.1.2.2.1.1.2.3 2 5.6 4.4 11.6c.5 1.3.8 2.7 1.3 4q6.6 18.3 12.1 36.8 1.3 4.4 2.1 9.1.2 1.1-.4 1.9-.2.2-.5.3-.2.2-.5.2-.3 0-.6-.1-.2-.1-.4-.4l-8.7-10.3q-.1-.2-.1.1z"/><path d="m886.8 360.6-64.7 23.6q-.2.1-.5.1-.2-.1-.4-.2-.2-.2-.3-.4 0-.3 0-.5l1.6-9q0-.1.1-.2 0-.1.1-.2.1-.1.2-.2.1 0 .2-.1l64.6-23.6q.3-.1.5-.1.3.1.5.2.1.2.2.4.1.2.1.5l-1.6 9q0 .1-.1.2 0 .1-.1.2-.1.1-.2.2-.1 0-.2.1z"/><path d="m687.9 371.5q3.3-8.2 5.1-15.5 0-.2.2-.3c.6-.3 1.2-.1 1.4.5.7 2.4-.2 7.1-.9 9.6q-2.6 9.2-5.2 18.5-1.5 5.8-1.5 11.5c.1 3.5 1.5 8.5 5.3 9.5 3 .7 5.8-1.3 7.2-3.9q2-3.7 2.8-9 0-.1.1-.2 0-.1.1-.2.1-.1.2-.2.1-.1.2-.1.8-.2.9.6.6 3.6.7 7.7c.2 7.4-2.9 17.3-10.4 20-5.6 2.1-9.8-2.5-12.1-7.2-3.5-7.2-2.7-15.6-.5-23.1q2.6-8.8 6.4-18.2z"/><path d="m421.1 405.6c2.8-2.6 4.1-7.5 4.6-11.2q0-.1 0-.1 0-.1.1-.2 0 0 .1-.1 0-.1.1-.1.5-.4.9-.1.2.2.3.6.8 4.5.7 9.2c-.2 6.8-3.3 15.5-10 18.3-4.2 1.8-7.8-.1-10.4-3.5-7.1-9.6-4.6-22-.7-32.8q3.5-9.7 7.2-19.5 1.3-3.3 2.2-7.8 0 0 0-.1 0 0 0-.1.1-.1.1-.1 0-.1.1-.1c.5-.5 1.3-.5 1.5.2.9 2.8-.2 7.4-.9 10.1q-2.5 8.4-4.9 17.4c-1.6 5.7-3.5 16 1.4 20.5 2.2 2.1 5.6 1.5 7.6-.5z"/><path d="m682.9 617.3q-.2.1 0 .3c16.9 13.6 39.7 18.4 61.1 16.4q11.4-1 21.3-4.8 2.9-1.1 5.4-3.1.3-.2.2-.5c-.8-3.7-1.3-7.3-2.3-10.9q-3.5-12.1-10-23.3 0 0-.1-.1 0-.1 0-.2 0-.1 0-.2 0-.1 0-.2 2.5-14 4.7-26.8.1-.3.2-.6.2-.1.3-.2.2-.1.4-.1.2 0 .4 0 .2.1.4.3c11 14.3 16.8 33 17 50.7.1 11.4-2.9 23.3-8.3 32.8q-4.7 8.2-12.9 11.3-9.9 3.7-21.2 4.7c-20.5 2-43-2.3-59.7-14.7q-11.3-8.3-22.1-16.4 0-.1-.1-.1 0 0-.1 0 0 0 0 0-.1 0-.1.1c-3.1 1.8-6.1 3.8-9.2 5.5q-12.5 6.9-25.3 14-4.8 2.6-10.8 4-17.2 4.1-34.2-1.4c-7.8-2.5-14.2-6.7-19.6-13q-7.2-8.6-9.9-19.7-.9-3.6-1.7-7.2-.1-.6-.3 0-1.6 7.4-3.7 14.1-3.1 10.1-11.3 18.1-2.5 2.3-5 3.8c-7.7 4.6-18.6 5.2-27 2.4-10-3.3-16.3-10.9-18-21.1q-.6-3.6-1.1-7.2-.1-1.1-1.2-1.4-.3-.1-.5.1-1 .5-1.5 1.4-6.6 11.1-17.8 20.5c-9.1 7.5-21.6 11.3-33.4 11.8-8.3.3-17.4-1.2-24.6-5.6-10.8-6.6-17.6-16-21.3-27.8q0-.1-.2-.1-32.9 7-69.4 10.2-63.7 5.6-125.7.8-23.9-1.8-43.8-5.3-10.8-1.9-22.1-7.5-4.4-2.2-10.3-6-13.1-8.4-27.5-18-7-4.6-11.9-8.4c-.9-.8-3.2-2.6-3.2-3.9.2-1.9 2.7-1.4 3.8-1q8.4 2.5 17.9 4.5c8.7 1.9 17.2 4 25.7 5.7q22.2 4.4 44.2 7.7 5.8.8 11.8 1.5c45.8 5.1 92.6 5.3 138.6 1.7q34-2.7 64.7-8.4 1.2-.2 2.4-.6.3 0 .3-.3c-2.4-48.4-5.3-96.5-9.7-144.1-2.3-24.4-4.2-43.8-9.7-65.5q-.1-.3.1-.5 5.7-13.8 10.4-25.3.2-.4.6-.6.2 0 .4 0 .2 0 .3.1.2.1.3.2.1.2.2.3c3.2 12.5 5.4 25.4 7 38q3.9 29.4 6.2 59.1 4.3 53.4 6.9 113.4.3 9.1 2.4 21.5.1.4.4.3 23.7-5.5 43.3-14.3 3.8-1.8 7.7-4.3.3-.1.2-.5-1.1-3.6-2.6-6.8-7-15.3-17.6-28.1 0-.1-.1-.2 0-.1-.1-.2 0-.1 0-.2.1-.1.1-.2l10.4-25q.1-.3.3-.4.1-.2.4-.2.2 0 .4 0 .2.1.4.3c16.2 17.2 22.8 39.7 17.5 63q-1.2 5.3-4.1 10.7c-.4.5-.9.9-1.2 1.5q-4.5 9.5-13.2 15.8-8.8 6.3-18.4 9.8-6.6 2.4-13.2 4.2-.1.1-.1.1-.1 0-.1.1 0 0 0 .1 0 0 .1.1c14.1 13.5 38.3 11.6 54.2 3.4q4.2-2.2 9.5-6.7 9.2-7.7 17.1-18.1 1.9-2.5 5.1-4.1c1.8-.9 4.1-.6 4.4 1.9.4 4.2-2.5 7.8-2.2 11.9q.4 4.8 3 8.5c5.4 7.7 14.4 10.8 23.6 10.6 6.9-.1 13-2.1 18.4-6.8q4.9-4.3 8.1-9.3 0-.1.1-.2 0-.1 0-.2.1-.1.1-.1 0-.1 0-.2-2.4-29.4-8.7-56-1.8-7.7-4.8-16.4-.1-.3 0-.6 3.4-12.5 7.1-26.3.1-.6.6-.8.2 0 .3 0 .2 0 .4 0 .1.1.3.2.1.1.2.3c7.4 14.9 11.1 31.5 12.6 48.2q1.1 13.2 2.4 25.1.5 4.9 2 11.4 2.6 11.9 11.4 21.3c11 11.7 29.5 14.9 44.9 12.7q7.9-1.2 14-4.2 3.2-1.6 11.9-6.5.2-.1 0-.3-8.9-7.1-18.8-12.5-13.6-7.4-28.2-1.9-.2.1-.5 0-.3-.1-.5-.3-.2-.2-.3-.5-.1-.3 0-.6l9.4-25.6q0-.1 0-.1.1-.1.1-.2 0 0 .1-.1.1 0 .1 0c9.3-5.3 20.5-8.5 31.9-10.7q16.4-3.1 32.7-3.2c16.2-.1 31.8 3.6 46.8 10.3q7.3 3.3 16.6 7.8 0 .1.1.1.1.1.1.2.1.1.1.2 0 .1-.1.2l-9.4 26q-.1.1-.2.2-.1.1-.2.2-.1.1-.2.1-.2.1-.3.1-4.5-.2-9.3 1.1c-8.4 2.4-16.6 6-24.3 10zm-19.8-14.8c6.6-3.5 13-6.8 19.6-9.9q.4-.2-.1-.3c-12-2.9-24-3.1-36.3-2.2q-.4 0 0 .2l16.2 12.2q.3.2.6 0z" fill-rule="evenodd"/><path d="m491.5 410.8c5.9-.4 7.8-8.4 8.5-13q0-.1 0-.2.1-.1.1-.1.1-.1.1-.2.1 0 .1-.1.6-.4 1 .1.1.1.1.3c1.7 8.7 1 18.2-5 24.8-3.8 4.2-9.6 5-13.6.5-6.2-7.1-6.5-16.6-4.2-25.5 2.6-10 6.9-20.1 10.2-29.2q1-2.8 1.7-6.5.1-.7.8-.7.2 0 .4 0 .2.1.4.2.1.2.2.3.1.2.1.4.3 4.8-1.1 9.5-2.7 9.3-5.2 18.8c-1.2 4.4-1.9 9.8-.9 14.4.6 3.1 2.7 6.4 6.3 6.2z"/><path d="m586.2 411.2c5.3-1.1 7-8.4 7.7-12.9q0-.2.1-.3.1-.1.2-.2.1-.1.2-.1.1-.1.3-.1.6 0 .7.7 0 .3.1.6 1.1 6.9.2 12.2c-1 6.4-4.5 13.6-11.2 15.2-3 .7-5.8-.7-7.8-3-7.9-8.9-5.9-21.3-2.4-31.6q3.1-9 7.6-20.7 1.7-4.5 2.5-8.8 0-.2.1-.3.1-.2.3-.3.1-.1.3-.1.2 0 .4 0 .8.2.8 1.1.3 4.6-.9 8.9-2.9 9.8-5.4 19.1-1.4 5.4-1.4 11.1c.1 4 2.1 10.7 7.6 9.5z"/><path d="m232.7 402.5q1.2-9.8 2.9-19.7c1-5.5 2.3-11.5 4.8-16.5q1.1-2.1 2.7-3.4c5.5-4.3 11.6 4.3 14 8.1q.1 0 .1.1 0 0 0 .1 0 0 0 .1 0 0 0 .1l-3.4 8.3q-.1.3-.3.4-.1.2-.4.2-.2.1-.5 0-.2-.1-.4-.2c-1.8-1.9-7.1-6.9-9.6-3.7q-1.3 1.7-1.9 3.7-1.2 4.2-1.7 9.1-1.1 10.2-2.2 18.6-.7 4.5-2.1 9.5-.3 1.4-1.2 2.1-1.6 1.3-3.2 2.5-.2.2-.4.2-.3 0-.5 0-.2-.1-.4-.3-.2-.2-.2-.5-2.6-14-8.4-26.4-.3-.6-.4.1c-1.3 6.6-3 12.4-6.7 18.1-5.9 8.9-13.6 17.3-21.9 24.3q-11.3 9.7-24.6 15.4-5.8 2.4-11.1 4.2-14.5 4.9-28.5 9.6-.7.2-1.3-.1-.2-.1-.4-.2-.1-.2-.1-.4-.1-.2 0-.5 0-.2.2-.3.8-.9 1.9-1.6c8.3-5 16.8-9.2 25.4-13.8q21.8-11.4 40.5-27.9c9.5-8.4 18.3-18 24.2-28.9q.1-.2-.1-.2-9.2-2-14.1-9.1c-1.4-1.9-2.2-4.4-1-6.7q2-3.8 3.8-7.2.6-1.2 1.7-1.1c14.4 1.8 21.8 22 24.4 34q.2 1.2.4-.1z"/><path d="m999.7 421.7q-.4-.4-.3.1 6.8 87.7 13.4 173.9.8 10.3.1 21.3-.2 3.5-1.1 8-2.5 13.1-6.4 24-.4 1.2-1.3 1.9-.2.2-.5.1-1-.4-1.2-1.5-.3-2-.4-4.3c-.5-9.1-.8-18.3-1.5-27.3q-8.8-104.8-16.9-207.9-.2-2.4-1-4.8c-1-3-1.7-6.5-3.3-9.4q-.2-.5 0-1.1 5.4-13 10.3-24.9.2-.4.5-.7.2-.1.4-.1.2-.1.4 0 .2 0 .3.2.2.1.3.3 9.8 25.6 17.5 51.5c1 3.4 2 7 2.4 10.5q.1 1.2-.9 1.9-.3.2-.6 0-.8-.3-1.4-1-4.7-5.5-8.8-10.7z"/><path d="m796.6 411.2q12.9 17.6 27.3 34.9c25.1 30.4 50.7 60.8 74.2 92.4q3 3.9 8.3 12.4c11.4 18.2 19.5 37.1 20.9 57.9q.4 6.4.1 16.3 0 1.2-.1 2.3-.1.3-.3.4c-.6.3-1.3.2-1.5-.5q-3.9-15.2-11.5-30.1c-6.3-12.3-13.6-24.2-22-35.2-21.9-28.9-45.4-55.9-69.1-83.9q-14.2-16.9-25.8-32.5c-8.9-11.9-17.5-24.8-23-38.1q-1-2.6-2.7-4.4-1.9-2.1-4-3.9-.3-.3-.3-.8 0-14 0-27 0-.5.3-1 .1-.1.2-.2.2-.1.3-.1.2 0 .4 0 .1.1.3.2 16 15.3 30.5 29.5c3.7 3.6 8.2 7.9 11.1 12.3.8 1.2.3 2.9-1.4 2.6q-6-1.1-12.1-3.7-.4-.1-.1.2z"/><path d="m324.4 421.7c6.2.1 8.2-8.3 8.9-12.9q0-.2.1-.3.1-.1.2-.2.1-.1.2-.2.1-.1.3-.1.5 0 .6.5 1.2 6.2.6 12.1c-.6 5.1-3.2 11.7-7.9 14.6q-6.6 4.1-11.6-1.7c-7.6-8.9-5.6-21.3-1.9-32.1q3.4-9.7 6-16.1 2.4-6 4-12.8 0-.2.2-.4.1-.1.3-.2.2-.1.5 0 .2 0 .3.2c1.3 1.3.2 7.4-.2 9-2.3 8.4-5.2 16.7-6.6 25-.7 4.6-.9 10.7 2.5 14.1q1.4 1.5 3.5 1.5z"/><path d="m750 411.1c1.4 8.1 1.2 17.1-4.3 23.8-2.8 3.5-7.8 6-12 3.3-5.6-3.6-8-11.5-7.8-18 .2-7.1 2.3-14.1 4.8-20.7q3.3-8.8 6.3-17c.9-2.3 1.5-4.8 2-7.3q0-.1.1-.2 0-.2.1-.2.1-.1.2-.2.1-.1.2-.2.7-.3 1.1.3c1 1.9-.2 7.8-.7 9.8q-2.5 8.7-5.1 18.1-.8 2.9-1.3 6c-.6 4.6-.8 9.5 1.8 13.3 1.6 2.3 4.6 3 7 1.6 4-2.1 5.5-8.1 6.2-12.4q0-.1 0-.2.1-.1.2-.2 0-.1.1-.1.1-.1.3-.1.7-.1.8.6z"/><path d="m118.6 427.1c-.7 4.3-2.9 9.2-6.1 12-3.6 3.1-8.1 3.9-11.8.6-7.1-6.4-7.5-16.9-5.3-25.7 2.3-9.7 6.3-19.1 9.8-28.5q1.4-3.6 2.1-7.6.1-.6.6-.9.1-.1.3-.2.2 0 .4 0 .2.1.3.2.2.2.2.4c.8 2.8-.1 7.3-.8 9.8q-3 10.3-5.2 18.5c-1.4 5.1-3.6 18.5 3.5 20.8 2.9.9 5.8-1 7.2-3.4q2.3-4 3.1-9.4 0-.1 0-.1.1-.1.1-.2 0-.1.1-.1 0-.1.1-.1.4-.4.8-.2.3.2.3.4 1.4 7.6.3 13.7z"/><path d="m861.3 427.5c-4.2-2.4-7.9-6.3-9.5-10.5-1.4-3.8 0-6.6 1.9-9.9q3.7-6.6 7.5-11.8 2.6-3.6 6.3-6.6c4-3.2 9.7-5 13.9-1.3q5.1 4.4 3.2 10.8-1.2 3.9-2.8 7.6-.2.7-.9 1-.2.1-.4.1-.2 0-.4-.1-.2-.1-.3-.2-.2-.2-.3-.4-1.4-3.6-4.6-5.8c-5.4-3.9-11.9.3-15.7 4.2q-.1.1-.1.1 0 .1 0 .1 0 .1 0 .2 0 0 0 .1 1.2 4 4.4 6.9 2.3 2 6.8 3.1 7.3 1.7 14.4-2.1 8.5-4.5 15.6-9.1.2-.1.5-.1.2 0 .5.1.2.1.3.3.2.2.2.5 0 1.6-.2 3.3-.4 3.2-.5 6.3 0 .2-.1.4 0 .2-.2.4-.1.2-.2.4-.2.1-.3.2c-14.4 9-29.3 17.7-42.7 27.4q-2.8 2-2-1.3.8-3.2 1.3-6.1c.6-3.3 2.1-5.6 4.4-7.7q.4-.3 0-.5z"/><path d="m509.8 448.9c2.4-9.8 6.4-19.1 9.8-28.4q1.5-4 2.2-8.1.1-.1.2-.3.1-.1.2-.2.1-.1.3-.2.2 0 .4 0 .7.1.8.9.5 4.2-.9 9.2-2.7 9.4-5.2 18.7-1.7 6.1-1.5 12 .1 2.7 1.3 5.3c2 4.5 7.1 5 10.1 1.2 2.3-2.8 3.3-6.9 3.9-10.5q0-.1.1-.3 0-.1.1-.2.1 0 .2-.1.2 0 .3-.1.7 0 .8.7 1 6.2.5 11.1c-.4 5.2-2.7 11.4-6.9 14.8-3.8 2.9-8.4 3.3-11.9-.4-6.4-6.7-6.9-16.4-4.8-25.1z"/><path d="m634 457.5q1.6-12 3.5-22 1-5.3 2.8-10.5 1-3 2.5-5.2c5.6-8.3 12.9 1.3 15.8 5.9q.1.1.1.2 0 0 0 .1 0 .1 0 .2 0 .1 0 .1l-3.4 8.3q-.1.2-.3.4-.1.1-.4.2-.2 0-.4-.1-.2 0-.4-.2c-2-1.9-4.6-4.4-7.3-4.7-4.2-.5-5.6 9.8-5.9 12.5q-1.3 11.1-2.6 20.3-.6 4.3-2.3 10.1-.1.3-.4.5l-3.7 3.1q-.2.1-.4.2-.3 0-.5-.1-.2-.1-.4-.2-.2-.2-.2-.5c-2.2-11.8-6-24.5-13-34.2q-.1-.1-.1-.1-.1 0-.1 0-.1 0-.2 0 0 0-.1.1l-1.6 2.2q-.2.3-.6.3c-3.8-.6-8-2.3-10.4-5.4-1.7-2.3-1.8-4.8-.5-7.3q2-3.5 3.8-7 .6-1 1.6-1.5.2-.1.5 0c14.8 2.3 21.6 21.6 24.3 34.3q.2.8.3 0z"/><path d="m268.7 479.9c2.3 2.8 6.4 2.1 8.6-.5 2.4-2.8 3.5-7.1 4-10.7q.1-.2.1-.3.1-.1.2-.2 0-.1.2-.1.1-.1.2-.1.6-.2.8.5c1.5 7.8 1.1 16-3.5 22.8-2.7 4-8 7.3-12.7 4.5q-1.9-1.2-3.5-3.3c-7.3-9.8-4.2-22.9-.4-33.5q3.4-9.1 7.1-19.1c.9-2.4 1.5-4.9 2.1-7.4q0-.2.2-.4.1-.2.3-.2.2-.1.5-.1.2.1.4.2.4.4.4 1.1.3 4.5-.9 8.7-2.9 9.9-5.5 19.9-1.8 6.9-.9 13.2.4 2.8 2.3 5z"/><path d="m477.5 448.7-64.7 23.6q-.2.1-.5 0-.2 0-.4-.2-.2-.1-.3-.3-.1-.3 0-.5l1.5-9q.1-.1.1-.2.1-.1.1-.2.1-.1.2-.2.1-.1.2-.1l64.7-23.6q.2-.1.5-.1.2.1.4.2.2.2.3.4.1.2 0 .5l-1.6 9q0 .1 0 .2-.1.1-.2.2 0 .1-.1.1-.1.1-.2.2z"/><path d="m907.1 499.3c4.1-1.8 5.8-8.1 6.4-12.3q.1-.3.3-.7.3-.4.9-.2 0 0 .1.1 0 0 .1.1 0 0 .1.1 0 .1 0 .1c1.5 8.1 1.1 16.2-3.5 23.1-3.4 4.9-9.9 7.7-14.8 2.6-8.2-8.6-6.3-21.4-2.8-31.7q3-9.2 7.8-21.5 1.5-3.7 2.3-8.3.1-.1.1-.2 0-.1.1-.2 0-.1.1-.1.1-.1.2-.1.7-.4 1.1.1c1.2 1.4-.1 8-.5 9.4q-3.1 10.7-5.5 20-1.7 6.3-1.2 12.3c.5 4.4 3.5 9.6 8.7 7.4z"/><path d="m696.3 502c3.3-2.2 4.8-8 5.4-11.8q0-.2 0-.3.1-.1.2-.2.1-.1.2-.1.1-.1.2-.1.7-.1.8.6 1.2 6.7.5 12.2c-.6 4.9-3 11.1-7.3 14q-6.9 4.8-12.3-1.5c-7.3-8.8-5.4-21.1-2-31.1q3.6-10.4 7.6-20.6 1.5-3.7 2.5-8.9 0-.1 0-.1.1-.1.1-.1 0-.1 0-.1.1-.1.1-.2.5-.6 1.1-.3.4.2.5.6c.9 3.2-.4 8.2-1.3 11.4q-2.7 8.9-4.8 16.8c-1.2 4.8-2.2 11-.7 15.8 1.3 4.3 5.1 6.9 9.2 4z"/><path d="m956.6 464.8 4.2-10.7q0-.1.1-.2.1-.1.2-.2.1 0 .2 0 .1 0 .2 0 .4 0 .6.4.2.3.5.5c7.6 8.6 12.4 17.8 13 29.3q.6 10.7-1.9 20.1-2.4 8.7-4.7 17c-1.6 5.5-3.7 19 4.4 20.9 3.1.7 5.3-3.3 5.6-5.7.2-1.5.1-3.8.8-5.2q0-.2.2-.3.2-.1.4-.1.2-.1.4 0 .2.1.3.3.5.6.7 1.4c.9 5.4.5 11.3-1.5 16.5-1.7 4.2-4.9 7.1-9.5 5.8-9.1-2.4-9-15.9-8-23.3 1.4-10.3 4.7-20.5 6.8-29.7 3.1-14-2.7-26.3-12.8-36q-.1-.1-.2-.2 0-.1 0-.2 0-.1 0-.2 0-.1 0-.2z"/><path d="m790.3 478q2.6-.3 4.7.2c9.5 2 11 10.2 9.8 18.7q-.5 3.4-1.1 6.7-1.4 8.2-8.3 12.1c-6.5 3.7-14.6 1.1-17.3-5.9-3.6-9.4.1-20 4.5-28.5 2.5-5 4-9.7 4.7-15.3q0-.8.7-1 .2 0 .4 0 .2 0 .3.1.2.1.3.2.1.2.2.4.5 1.8 1 3.7c.9 2.8.6 5.7-.2 8.3q-.1.4.3.3zm11 20.7c-2.4-6.7-10-8.3-16.4-7.3q-.4 0-.5.3-.7 2.3-.6 4.2c.2 5.2 5.2 7.5 9.8 7.1q4.7-.3 7.6-3.6.2-.3.1-.7z" fill-rule="evenodd"/><path d="m190.3 519.5c6.2 0 8.2-8.3 9-13q0-.1.1-.2 0-.1.1-.2.1-.1.2-.2.1-.1.2-.1.3-.1.6 0 .2.2.2.5c1.6 9 1 18.7-5.2 25-4 4.1-9.6 4.7-13.5.1-9.1-10.4-4.9-25.1-.6-36.6q2.8-7.6 5.8-15.5 1.7-4.4 2.5-8.9.1-.2.2-.3 0-.1.1-.2.2-.1.3-.2.2-.1.3-.1c.6 0 1 .5 1.1 1q.3 4.5-.8 8.4-2.6 9.1-5.3 18.8-1.4 5.3-1.6 10.9c-.1 3.8 1.2 10.8 6.3 10.8z"/><path d="m464.3 487-11.5 24.6q-.1.2-.2.4-.2.1-.4.2-.2.1-.4 0-.2 0-.4-.1-11.7-6.5-24-12.4-.2-.1-.4-.3-.2-.2-.3-.4 0-.2 0-.5 0-.2.1-.5l11.6-24.8q.1-.2.2-.3.2-.2.4-.2.2-.1.4-.1.2 0 .4.1 12.6 6.1 23.9 12.4 1.2.6.6 1.9z"/><path d="m603.3 511.4c1.3 7.9 1.1 16-3.5 22.7q-2.8 4.1-6.8 5.3c-5.5 1.5-9.4-3.1-11.6-7.6-4.8-10.2-1-22.4 2.7-32.4q3-8 6-16 1.4-3.7 2.2-7.9 0-.2.1-.3 0-.1.1-.2.2-.1.3-.2.1-.1.3-.1.5-.1.9.4c1 1.8-.3 8.5-1 10.5q-4.1 13.8-5.6 20.8-1.2 5.4-.7 10.5.3 2.8 1.9 5.2c2.8 4.2 8 2.5 10.2-1.3q2.2-3.8 3-9.3 0-.1.1-.2.1-.2.2-.3.1-.1.2-.1.2-.1.3-.1.6.1.7.6z"/><path d="m116.3 535.8c1.4 8.3 1.1 16.6-3.8 23.3q-2.8 3.8-7 4.8c-5.1 1.3-9-3.5-11-7.5-4.9-10.1-1.1-22.6 2.6-32.5q3.2-8.5 6.2-16.7c.9-2.4 1.5-4.9 2-7.3q.2-.9 1-.8.2 0 .4.1.1.1.3.2.1.1.1.3.1.2.1.4.4 4.2-.8 8.7c-2.2 8.2-5.2 16.6-6.5 24.6q-.5 3.6-.2 7.2c.3 3.9 2.5 9.3 7.5 8.2 5.3-1.2 6.9-8.5 7.7-13q0-.1.1-.2 0-.1.1-.2.1-.1.2-.1.1-.1.2-.1.7-.1.8.6z"/><path d="m339.1 542.5q1.5-11.6 3.7-22.9 1-5.2 2.8-10.4 1.1-2.9 2.7-5.1c5.2-7.2 12.1 1.5 14.9 5.7.3.5.8.9.5 1.6q-1.6 4-3.3 8.1-.1.2-.3.4-.2.1-.4.2-.3 0-.5-.1-.2-.1-.4-.2-2.5-2.8-5.5-4.3c-3.4-1.7-5.2 1.5-6 4.1q-1.4 5.1-2.1 11.3c-.9 8.8-1.7 17.6-4.1 26.3q-.3 1.1-1.2 1.8-1.5 1.2-3.2 2.5-.2.2-.5.2-.2 0-.4 0-.3-.1-.4-.3-.2-.2-.2-.5c-2.2-11.9-6-24.2-13-34.2q-.1-.1-.1-.1-.1 0-.1 0-.1 0-.2 0 0 0 0 .1l-1.6 2.1q-.1.2-.2.2-.1.1-.2.2-.1 0-.2 0-.2 0-.3 0c-4.1-.8-8.1-2.4-10.4-5.7-1.5-2.1-1.6-4.5-.3-6.8q2-3.6 3.7-7 .6-1 1.7-1.6.2-.1.5-.1c15 2.5 21.4 21.7 24.3 34.5q.2.6.3 0z"/><path d="m499 556.4c3.3-2.4 4.6-7.7 5.2-11.7q0-.1.1-.2 0-.1.1-.2.1-.1.2-.2 0 0 .2-.1.7-.3.9.6 1.1 6.3.5 11.6c-.6 5.3-3.1 11.9-7.8 14.9q-6.8 4.3-11.9-2c-8.2-10-4.6-23.8-.6-34.9q3-8.2 6.6-17.6c1-2.6 1.6-5.4 2.2-8.1q.1-.2.2-.3.1-.2.3-.3.2-.1.4-.1.1 0 .3.1.7.4.8 1.3.1 4.8-1.2 9.3-3.4 11.5-5.5 19.7-1.1 4.3-1.1 9.4 0 5.1 2.5 8.2c2 2.4 5.3 2.4 7.6.6z"/><path d="m255.6 541.1q0 0 0 0 0 0 .1 0 0 0 0 0 0-.1.1-.1l11.8-21.2q.1-.2.3-.4.2-.1.5-.2.2-.1.5 0 .2 0 .5.1 11.8 6.5 23.5 13.8.9.6.5 1.6l-11.7 24.5q-.7 1.4-2.1.6-12.2-7.7-24.9-14.7-.3-.2-.4.1-6 10.7-11.6 20.7-.7 1.2-2 .5-12.3-7.5-22.7-13.1-.2-.1-.4-.3-.1-.1-.2-.3 0-.2 0-.4 0-.2.1-.4l11.5-24.8q.1-.3.3-.4.2-.2.5-.3.2-.1.5 0 .3 0 .5.1 12.6 7 24.8 14.6z"/><path d="m694.5 543.1 64.7-23.7q.2-.1.5 0 .2 0 .4.2.2.1.3.4.1.2 0 .4l-1.6 9q0 .1 0 .2-.1.2-.2.3 0 0-.1.1-.1.1-.2.1l-64.7 23.7q-.3 0-.5 0-.2 0-.4-.2-.2-.2-.3-.4-.1-.2 0-.5l1.5-8.9q.1-.2.1-.3.1-.1.1-.2.1-.1.2-.1.1-.1.2-.1z"/><path d="m833.3 563.1c1.1 2.7 2.2 5.6 3.5 8.2 6.6 13.4 11.4 27.2 9.2 42.2q-.6 4.6-2.5 9.9-1.8 5.2-3.6 9.7-2.5 6.2-7.6 12.2c-9.1 10.6-20.9 20.2-32.3 28.5-22.6 16.6-47.2 32.2-72.5 45.3q-5.5 2.8-10.3 4.5-2.1.7-7.2 1.6-4.1.7-7.5 1.2-24.3 3.2-49.8 4.1-7 .3-14.3-.1-1.1 0-2.1-.5-.2-.1-.4-.3-.1-.2-.2-.4 0-.2 0-.5 0-.2.1-.4.4-.5 1-.8c6.7-2.6 13.8-4.8 20.7-7.3q29.6-10.8 59.4-24.6 6.7-3.1 13.1-6.6 26.5-14.3 53.4-32.2 17.4-11.5 32.5-23.6 10.3-8.2 19.1-18.2.3-.4.1-.8c-2.2-6.4-5.6-12.5-8.6-18.6q-8.6-17.8-12.1-33-.4-1.9-1.4-3.1-1.8-2.1-3.7-3.8-.2-.2-.2-.4-.2-.7 0-1.4 2.7-12.6 5.4-25.7.1-.4.3-.6.1-.2.3-.4.2-.1.4-.1.3 0 .5.1.2.1.4.3c7.8 10.6 15.9 20.5 23.5 31q1.9 2.5 2.9 5.1.3.8-.3 1.5-.2.2-.4.3-.2.1-.4.2-.2 0-.4 0-.2 0-.4-.1l-7.2-2.9q-.8-.3-.4.5z"/><path d="m887 619.2c-5 12-13.8 22.3-23.8 30.9q-.2.1-.3.1-.2.1-.4 0-.2 0-.3-.2-.2-.1-.2-.3-.2-.7.2-1.3 1.9-3.1 3.8-5.6c6.4-8.2 12.4-16 15-26.1 1-3.8 1.7-12.4-3.3-13.7-3.7-.9-7.4 1.5-9.8 4.2q-2.9 3.3-5 7.3-.1.1-.2.2-.1.1-.2.2-.2.1-.3.1-.2 0-.3 0-1-.3-.8-1.2 1.5-7.4 3.6-13c2.6-6.6 9.1-15.6 16.5-16.1 3.8-.3 6.8 3.2 8.1 6.4 3.5 8.6 1.3 19.5-2.3 28.1z"/><path d="m131.6 691.2c2.8 2.3 6.5.8 8.4-2q2.5-3.4 3.4-9.5.1-.4.3-.8.3-.5.9-.3 0 0 .1.1.1 0 .1.1.1.1.1.1.1.1.1.2 1 5.6.6 11c-.5 6.5-3.8 14.4-10.2 16.8-3 1.2-6.1.4-8.4-1.8-10.2-10.3-5.7-26.1-1.2-38.1q3.1-8.2 6-15.9 1.3-3.6 2.1-7.6.1-.6.6-.9.1-.1.3-.2.2 0 .4 0 .1.1.3.2.1.1.2.3c.9 2.6-.1 7.1-.7 9.5q-2.8 9.6-5.3 18.8c-1.4 5.3-3.2 16.1 1.9 20z"/><path d="m368.5 662.2c-6.4-2.4-12.5 5.9-15.2 10.9q-.3.6-1 .8-.2.1-.4 0-.2 0-.3-.2-.2-.1-.3-.3 0-.2 0-.4c1.8-9.5 4.5-18.2 11.5-24.9 2.9-2.8 8.1-5.9 12-3.7 5.5 3.1 6.7 11.1 6.4 17.1-.9 18.9-14 35.7-27.8 47.6q-.1.1-.3.1-.2.1-.4 0-.2-.1-.3-.2-.2-.1-.2-.3-.2-.7.2-1.3c3.1-5 6.9-9.5 10.3-14.2q6-8.3 8.3-16.9c1-3.5 2-12.3-2.5-14.1z"/><path d="m472.5 675.8c-.9-1.9-3.3-2.5-5.2-2.2q-3.9.7-6.7 3.8-3.1 3.4-5.6 7.9-.1.1-.2.2-.1.1-.2.1-.1.1-.3.1-.1 0-.2 0-1.2-.2-.8-1.5c1.3-4.7 2.1-8.8 3.3-11.8 2.4-6.5 7.2-13.5 13.7-16.3q5.6-2.3 9.4 2.7c2.5 3.2 3.4 7.7 3.5 11.6q.2 7.3-2.4 15c-4.5 13.9-14.1 25.5-25.2 35.2q0 0-.1.1-.1.1-.2.1-.1 0-.2.1-.1 0-.2 0c-.6.1-1-.4-.8-1q.4-1.2 1.1-2.1 3.5-5.1 8.1-11.1c5.7-7.3 13.9-21.9 9.2-30.9z"/><path d="m610.1 721c-2.5.9-5.1 2-7 4q-.1.1-.2.2-.2.1-.3.1-.1 0-.2 0-.2 0-.3-.1-.8-.4-.5-1.2 2.6-7.2 5.4-14.8.8-2.3 3-3.3 3.2-1.4 5.8-2.5 46.9-17.9 97.1-37 .3-.1.5-.1.3.1.5.3.2.2.2.4.1.3 0 .5l-5.5 15.2q-.1.2-.2.4-.1.1-.2.2-.1.1-.3.2-.1.1-.3.2-55.9 21.1-97.5 37.3z"/><path d="m312.9 689.4c-33.6 12.7-66.1 24.9-98.3 37.6-2.2.8-4.8 2-6.5 3.8q-.1.2-.3.2-.1.1-.3.1-.2 0-.4-.1-.2-.1-.3-.2-.4-.5-.1-1.1 2.8-7.7 5.6-15.3c.3-.9 1.1-1.7 2-2.2q2.9-1.5 5.8-2.7 48.8-18.6 97.8-37.3.1 0 .2-.1.1 0 .2 0 .1 0 .2.1.1 0 .2 0 .7.4.4 1.1-2.7 7.6-5.6 15.4 0 .1-.1.2 0 .1-.1.2-.1.1-.2.2-.1 0-.2.1z"/><path d="m538.6 696.9q0 .1.1.1 0 0 0 0 0 0 .1-.1 0 0 0 0l11.9-21.2q.1-.3.3-.4.2-.2.4-.2.2-.1.5-.1.2 0 .5.2 11.9 6.5 23.6 13.8.9.6.4 1.6l-11.8 24.7q-.1.2-.3.4-.2.1-.4.2-.3.1-.5 0-.3 0-.5-.1-10.6-6.6-20.8-12.4-2.1-1.3-4.4-2.5-.3-.1-.4.2l-11.6 20.8q-.2.2-.4.4-.2.1-.4.2-.2.1-.5 0-.2 0-.4-.2-11.5-6.9-23.1-13.2-.1-.1-.3-.2-.1-.2-.2-.3 0-.2 0-.4 0-.2.1-.4l11.6-24.9q.1-.2.3-.4.2-.1.4-.2.3-.1.5-.1.3.1.5.2 12.5 6.9 24.8 14.5z"/><path d="m776 711.6c3.8-8.2 7.7-16.4 11.5-24.7q.5-1.1 1.7-.5.6.4.8.5 12.3 5.9 23 11.9.2.1.4.3.1.2.2.4.1.2.1.5 0 .2-.1.4l-11.6 24.8q-.1.2-.3.4-.1.1-.3.2-.3.1-.5 0-.2 0-.4-.1-11.7-6.4-23.9-12.4-1.2-.5-.6-1.7z"/></svg>