<svg width="48" height="50" viewBox="0 0 48 50" fill="none" xmlns="http://www.w3.org/2000/svg">
<g clip-path="url(#clip0_27_5)">
<path d="M8.55191 13.1228C8.18872 13.1228 7.82427 13.1329 7.46108 13.1215C6.134 13.0762 4.80691 13.0045 3.47983 12.9819C2.76728 12.9706 2.05472 13.0385 1.34091 13.0737C1.1612 13.0825 0.982749 13.1027 0.803039 13.1115C0.629613 13.1203 0.614533 13.1014 0.671085 12.9391C0.806809 12.5503 0.967668 12.1678 1.07952 11.7728C1.19388 11.3702 1.4226 11.0833 1.74808 10.8254C3.02113 9.82008 4.2992 8.82234 5.66273 7.93784C6.91065 7.12758 8.18872 6.37393 9.58492 5.84298C10.0336 5.67312 10.491 5.53724 10.9799 5.54982C11.3481 5.55863 11.6484 5.69074 11.8583 6.00402C12.121 6.39783 12.3748 6.79919 12.65 7.18545C13.1967 7.94791 13.903 8.53799 14.6872 9.04001C15.9351 9.83895 17.2885 10.3787 18.7463 10.6417C19.7668 10.8254 20.7935 10.8719 21.7976 10.5574C22.2588 10.4127 22.7012 10.2038 23.1863 10.0101C22.7779 9.8704 22.4096 9.75214 22.0452 9.61751C20.9393 9.2086 19.8346 8.79592 18.73 8.38072C18.642 8.34801 18.5716 8.33291 18.5113 8.4235C18.3555 8.65375 18.1657 8.68017 17.888 8.62355C16.9631 8.43356 16.0193 8.38575 15.0755 8.36562C14.946 8.36311 14.8153 8.35304 14.6859 8.3543C14.5854 8.3543 14.5439 8.32662 14.5879 8.22219C14.804 7.70382 15.0164 7.18419 15.2338 6.66708C15.2489 6.6306 15.2828 6.59033 15.318 6.57523C16.0168 6.28082 16.7306 6.05561 17.5022 6.09209C18.0476 6.11726 18.5578 6.28334 19.063 6.47081C20.468 6.98918 21.8693 7.52139 23.2793 8.0234C24.4769 8.44992 25.706 8.76195 26.9627 8.96829C27.7946 9.10543 28.6329 9.10543 29.4711 9.09662C29.7036 9.09411 29.7099 9.10166 29.6294 9.32184C29.451 9.81127 29.2688 10.3007 29.0953 10.7914C29.0614 10.8895 29.0111 10.9235 28.9118 10.9235C28.5575 10.921 28.2031 10.9285 27.8487 10.926C27.7293 10.926 27.6815 10.9524 27.6991 11.0896C27.7796 11.7011 28.237 12.193 28.9106 12.3616C29.6948 12.5579 30.4438 12.4081 31.1714 12.1062C31.6087 11.925 31.9933 11.6608 32.3301 11.3249C32.7021 10.955 33.0778 10.5888 33.4599 10.229C33.5705 10.1246 33.6999 10.034 33.8356 9.96603C33.9802 9.89431 34.082 9.97735 34.0606 10.1409C34.043 10.2793 34.0028 10.4139 33.9764 10.5511C33.8545 11.1865 34.0933 11.6834 34.567 12.0873C34.6462 12.1553 34.7354 12.2106 34.8335 12.2811C34.8624 12.2245 34.8862 12.1779 34.9089 12.1314C35.5799 10.7474 36.4144 9.47282 37.4889 8.36688C38.072 7.76673 38.7255 7.25088 39.4556 6.83442C40.1368 6.44564 40.8368 6.40035 41.5707 6.66205C42.419 6.96401 43.1441 7.43835 43.6895 8.1618C44.4699 9.19728 44.5415 10.3196 44.0678 11.501C43.6618 12.5101 42.9367 13.2084 41.9691 13.6802C41.1107 14.0991 40.2034 14.3495 39.2696 14.5219C38.4277 14.6766 37.5831 14.776 36.7248 14.732C36.1945 14.7043 35.6729 14.6225 35.1791 14.4187C34.2051 14.0186 33.5592 13.3329 33.348 12.276C33.3279 12.1754 33.294 12.0772 33.2576 11.9426C33.059 12.1628 32.8868 12.3603 32.7071 12.5491C32.3175 12.9567 31.9531 13.392 31.463 13.689C30.6863 14.1595 29.8494 14.3885 28.9382 14.3093C27.9681 14.225 27.2806 13.5204 27.1713 12.5252C27.1135 12.0043 27.1273 11.4909 27.2354 10.9587C26.8986 10.9889 26.5756 11.0078 26.2564 11.0468C25.4546 11.1437 24.6554 11.2657 23.8888 11.5262C23.2918 11.73 22.7024 11.964 22.1256 12.2182C21.2773 12.5906 20.3914 12.7038 19.4802 12.6472C17.976 12.5541 16.5672 12.1163 15.2301 11.4318C14.2951 10.9537 13.4317 10.3712 12.7179 9.5936C12.4603 9.31177 12.2403 8.99345 12.0167 8.68143C11.8043 8.38575 11.6057 8.08002 11.4034 7.7768C11.1897 7.45596 10.8768 7.35279 10.5111 7.36663C10.0499 7.38299 9.62262 7.53271 9.20037 7.69879C7.85192 8.22974 6.61155 8.95822 5.41767 9.76975C4.81068 10.1824 4.21626 10.6115 3.61555 11.033C3.5967 11.0468 3.58037 11.0632 3.53512 11.1009C3.60424 11.1009 3.64069 11.1009 3.67839 11.1009C4.78052 11.1374 5.88391 11.1739 6.98605 11.2129C7.86449 11.2443 8.74167 11.2884 9.62011 11.3085C11.2325 11.3462 12.8448 11.3714 14.4584 11.4003C14.5653 11.4029 14.6042 11.428 14.5602 11.5425C14.3667 12.0634 14.182 12.5881 13.9847 13.109C13.9658 13.1605 13.8942 13.2109 13.8376 13.2272C12.4351 13.6248 11.0213 13.9846 9.63016 14.4187C7.63577 15.0403 5.91659 16.1412 4.38969 17.5629C3.08899 18.772 2.3136 20.2743 1.85239 21.9615C1.68274 22.5843 1.56335 23.2172 1.55455 23.8639C1.53319 25.4454 2.15274 26.7489 3.28253 27.8322C4.03404 28.5531 4.94892 28.9431 5.93921 29.1922C6.86163 29.4238 7.80291 29.5433 8.75172 29.5483C9.76463 29.5533 10.7788 29.5345 11.7892 29.4841C12.5306 29.4464 13.2683 29.3432 14.0073 29.2627C14.7311 29.1834 15.4538 29.0979 16.1764 29.0136C16.5132 28.9746 16.8487 28.9268 17.1855 28.8941C17.2584 28.8878 17.3363 28.9331 17.413 28.9557C17.3627 29.0224 17.3275 29.1193 17.2609 29.1507C16.767 29.386 16.2731 29.6263 15.7667 29.8314C14.3969 30.3863 13.017 30.9185 11.5931 31.3211C11.2475 31.4192 10.8756 31.4444 10.5136 31.4645C9.8614 31.5023 9.20665 31.535 8.55316 31.5262C7.29017 31.5098 6.0498 31.3412 4.85844 30.8958C3.03998 30.2164 1.90894 28.8941 1.31578 27.0785C0.952588 25.9688 0.820633 24.8226 0.931224 23.6638C1.13481 21.5148 1.76065 19.5005 2.99474 17.7089C3.79526 16.5463 4.81445 15.5901 5.92664 14.7295C6.70329 14.1293 7.54654 13.6386 8.44383 13.2398C8.48279 13.2222 8.52175 13.2033 8.55945 13.1844C8.55568 13.1631 8.55191 13.1429 8.54814 13.1215L8.55191 13.1228ZM35.4153 12.5478C35.4832 12.5705 35.5335 12.5931 35.585 12.6032C36.0248 12.6837 36.4634 12.802 36.907 12.8322C38.111 12.9114 39.296 12.7768 40.4522 12.422C41.577 12.0772 42.6313 11.5991 43.5286 10.8153C43.6468 10.7121 43.6593 10.6278 43.5789 10.4982C42.9229 9.45017 42.0143 8.73553 40.8154 8.41972C40.5754 8.35682 40.3102 8.34801 40.0614 8.36814C39.4921 8.41469 38.9957 8.67513 38.5181 8.97206C37.1232 9.83895 36.2133 11.1261 35.4141 12.5491L35.4153 12.5478Z" fill="#3C2A21"/>
<path d="M32.9358 36.6658C33.1746 36.6985 33.3694 36.7262 33.5654 36.7539C34.3848 36.8697 35.2029 36.9879 36.0223 37.1024C36.8166 37.2144 37.6095 37.3377 38.4063 37.4308C39.3224 37.539 40.2398 37.6485 41.1597 37.7038C42.101 37.7604 43.0461 37.7554 43.9886 37.773C44.2915 37.7793 44.2915 37.773 44.1658 38.0435C43.9408 38.5254 43.7134 39.0073 43.4947 39.4917C43.4469 39.5974 43.3917 39.6376 43.271 39.6376C42.6125 39.6389 41.9527 39.6414 41.2942 39.6616C39.991 39.7018 38.7607 40.0138 37.5919 40.6077C36.6293 41.0959 35.6453 41.5463 34.655 41.9779C33.7263 42.3817 32.7561 42.6711 31.7482 42.8032C30.9025 42.9139 30.063 42.9014 29.2612 42.5642C28.2094 42.1213 27.5722 41.3173 27.2656 40.2277C27.072 39.5408 27.0042 38.8374 26.9677 38.1278C26.9225 37.2547 26.8747 36.3815 26.8245 35.5083C26.783 34.7748 26.7428 34.0413 26.695 33.309C26.6435 32.5214 26.5844 31.7338 26.5241 30.9474C26.465 30.1761 26.4072 29.4036 26.3343 28.6324C26.2577 27.8221 26.186 27.0106 26.0704 26.2053C25.9598 25.4416 25.794 24.6867 25.657 23.9268C25.6457 23.8676 25.6545 23.7959 25.6771 23.7393C25.8782 23.2398 26.0843 22.7428 26.2929 22.2471C26.3105 22.2056 26.3507 22.1741 26.3808 22.1389C26.4085 22.1804 26.4525 22.2182 26.4613 22.2635C26.6121 23.0511 26.7805 23.8362 26.9011 24.6288C27.0255 25.4429 27.1122 26.262 27.1977 27.081C27.2731 27.8057 27.3309 28.533 27.3875 29.2602C27.4591 30.1912 27.5282 31.1236 27.5885 32.0559C27.6388 32.8334 27.6753 33.6122 27.7192 34.391C27.7783 35.4492 27.8198 36.5073 27.9077 37.5629C27.9505 38.0662 28.0636 38.5682 28.1817 39.0614C28.4054 39.9899 29.0338 40.5322 29.9235 40.8015C30.6499 41.0216 31.3888 41.0191 32.1315 40.9084C33.6773 40.6769 35.0974 40.0818 36.4923 39.4099C36.6368 39.3407 36.7814 39.269 36.9171 39.1671C36.5602 39.113 36.202 39.0589 35.8451 39.0035C35.0371 38.8802 34.2315 38.7494 33.4222 38.6336C32.687 38.5279 31.9506 38.4273 31.2129 38.3468C30.5041 38.27 29.7915 38.2209 29.0815 38.1618C28.9684 38.153 28.932 38.1127 28.9759 37.9995C29.1795 37.4761 29.3655 36.9464 29.5867 36.4318C29.6433 36.2984 29.7853 36.1714 29.9185 36.1085C30.3634 35.8983 30.822 35.7159 31.277 35.5297C32.1705 35.1648 33.0778 34.8289 33.9588 34.4376C34.9189 34.0111 35.7295 33.377 36.3264 32.4975C36.4521 32.3125 36.5552 32.1112 36.6595 31.9137C36.8392 31.5727 37.0541 31.2607 37.3858 31.0569C37.509 30.9814 37.6573 30.9285 37.8006 30.9109C38.0104 30.8832 38.1323 30.9839 38.204 31.189C38.3133 31.5035 38.4 31.8294 38.537 32.1314C39.0183 33.1945 39.7849 33.5757 40.9348 33.5606C41.5518 33.5518 42.1199 33.3719 42.6552 33.07C42.7608 33.0096 42.8085 32.9479 42.7997 32.812C42.7193 31.7011 42.6565 30.5888 42.5748 29.4766C42.4856 28.2662 42.3813 27.0571 42.2857 25.8468C42.2103 24.8805 42.1425 23.9142 42.0671 22.9479C41.9829 21.8873 41.8949 20.8266 41.8069 19.7672C41.7466 19.04 41.7014 18.3115 41.6109 17.5893C41.5757 17.3088 41.4412 17.0395 41.3382 16.7703C41.303 16.6784 41.3043 16.6079 41.342 16.5186C41.5493 16.0292 41.7479 15.536 41.954 15.0453C41.9716 15.005 42.013 14.9748 42.0432 14.9396C42.0721 14.9685 42.1148 14.9937 42.1287 15.0289C42.5735 16.238 43.0184 17.4484 43.4557 18.66C43.5073 18.8035 43.5224 18.9607 43.5387 19.1142C43.5437 19.1633 43.511 19.2514 43.4784 19.2627C43.4294 19.2778 43.3451 19.2577 43.3074 19.2199C43.1466 19.0564 42.997 18.8815 42.8437 18.7104C42.8023 18.6638 42.7633 18.6147 42.6979 18.5355C42.7118 18.7456 42.7218 18.9167 42.7356 19.0891C42.8324 20.2843 42.9304 21.4784 43.0247 22.6736C43.1101 23.7645 43.1893 24.8553 43.2735 25.9461C43.3477 26.9024 43.4469 27.8573 43.4972 28.8148C43.5525 29.8679 43.5839 30.9222 43.5902 31.9766C43.594 32.6799 43.4369 33.3619 43.1742 34.0161C42.9493 34.5785 42.5245 34.9434 41.9829 35.1749C41.2201 35.502 40.4321 35.5586 39.6291 35.3347C38.8373 35.1132 38.361 34.5546 38.0594 33.8261C37.9363 33.5279 37.8621 33.2096 37.749 32.9064C37.7063 32.7919 37.6271 32.6246 37.5429 32.6107C37.4411 32.5944 37.2903 32.6912 37.2086 32.7818C37.0591 32.9467 36.9309 33.1354 36.8203 33.3291C36.3277 34.1922 35.722 34.961 34.9353 35.575C34.3886 36.0015 33.7703 36.3022 33.1369 36.5765C33.0829 36.6004 33.0301 36.6256 32.9358 36.6683V36.6658Z" fill="#3C2A21"/>
<path d="M1.60482 37.8749C1.90894 38.2448 1.5734 39.3986 1.07826 39.7421C1.09082 39.7559 1.09962 39.7735 1.1147 39.7811C2.27213 40.4064 3.43836 41.0154 4.71266 41.3739C6.25213 41.8067 7.81799 41.9867 9.41652 41.891C11.3657 41.7753 13.2746 41.4532 15.1295 40.8354C16.5081 40.3762 17.8151 39.7672 18.9688 38.8689C19.2968 38.6135 19.5783 38.2964 19.8824 38.0096C19.9741 37.924 19.9653 37.8296 19.8711 37.7755C19.6876 37.6724 19.4991 37.5516 19.298 37.5088C18.7576 37.3956 18.2097 37.3176 17.663 37.232C17.002 37.1288 16.3435 37.0181 15.7516 36.6822C15.1584 36.3463 14.8518 35.8317 14.799 35.1522C14.711 34.0123 15.0365 32.968 15.5568 31.9804C16.2493 30.6643 17.1993 29.5647 18.4296 28.7217C18.8142 28.4587 19.2289 28.2499 19.7102 28.226C20.3524 28.1945 20.879 28.7733 20.786 29.4112C20.7332 29.776 20.6729 30.1409 20.6088 30.5033C20.5975 30.5649 20.556 30.6505 20.5082 30.6668C20.4617 30.6832 20.3801 30.6354 20.3298 30.5964C20.2431 30.5297 20.1677 30.4479 20.0885 30.3724C19.7894 30.0843 19.4375 30.0277 19.0492 30.1371C18.5339 30.2831 18.1004 30.575 17.6945 30.9097C16.943 31.5325 16.3121 32.2647 15.7792 33.0813C15.7001 33.2021 15.6322 33.3317 15.5744 33.4625C15.3771 33.9092 15.4663 34.2854 15.8333 34.6037C16.2304 34.9497 16.6979 35.1648 17.2031 35.273C17.8013 35.4001 18.4095 35.4781 19.014 35.58C19.2201 35.6153 19.4275 35.6467 19.6298 35.6983C20.223 35.848 20.5397 36.2192 20.6151 36.8319C20.7546 37.9655 20.3939 38.9444 19.6926 39.8151C19.1359 40.5058 18.4183 41.0053 17.6744 41.4683C16.1512 42.4157 14.4899 43.0146 12.7405 43.3782C11.3644 43.6638 9.97324 43.8299 8.56699 43.7896C6.96091 43.7443 5.40134 43.4474 3.9046 42.8447C3.2021 42.5617 2.60516 42.1213 2.08614 41.5815C1.51811 40.9914 0.9551 40.3938 0.436079 39.7609C0.0502698 39.2891 -0.0728877 38.7154 0.0402161 38.1014C0.16463 37.4245 0.446133 36.8005 0.663544 36.1538C0.73769 35.9323 0.799268 35.7058 0.873414 35.4844C0.888495 35.4404 0.93248 35.4077 0.962641 35.3686C0.980235 35.4152 1.02171 35.4668 1.01291 35.5096C0.953844 35.8317 0.892265 36.1538 0.816862 36.4721C0.713812 36.9137 0.575574 37.3478 0.498915 37.7919C0.459957 38.0196 0.501428 38.2688 0.545413 38.5003C0.579344 38.6764 0.705015 38.8173 0.903575 38.8374C1.10088 38.8563 1.26676 38.7657 1.35222 38.5971C1.4427 38.4185 1.4892 38.2159 1.55329 38.0234C1.56963 37.9769 1.58345 37.929 1.60356 37.8687L1.60482 37.8749Z" fill="#3C2A21"/>
<path d="M22.4825 33.7921C22.529 33.8362 22.5542 33.8538 22.5705 33.8764C23.0832 34.5458 23.5972 35.2151 24.1074 35.8883C24.1854 35.9914 24.2557 36.1022 24.3148 36.2167C24.3387 36.262 24.3437 36.3462 24.3161 36.3777C24.2909 36.4066 24.2055 36.4066 24.1565 36.3903C24.0056 36.34 23.8599 36.2758 23.6764 36.2016C23.7179 36.3135 23.7455 36.3941 23.7782 36.4733C23.9918 36.9879 24.257 37.4874 24.4128 38.0196C24.864 39.5596 24.536 40.9499 23.4753 42.1527C22.8269 42.8875 22.0452 43.4726 21.256 44.0438C19.7052 45.1636 18.0865 46.1739 16.395 47.0684C15.7868 47.3905 15.1408 47.5415 14.4685 47.6158C13.7245 47.6975 12.9818 47.7881 12.2366 47.8422C11.5856 47.89 10.9296 47.8925 10.2774 47.9152C10.2623 47.9152 10.2447 47.919 10.2334 47.9127C10.1668 47.88 10.1014 47.846 10.0361 47.812C10.0901 47.768 10.1366 47.7051 10.1982 47.6824C11.24 47.2999 12.2843 46.9238 13.3261 46.5438C15.7528 45.6568 17.976 44.3848 20.1212 42.9643C21.124 42.2999 22.1143 41.6142 23.0078 40.8052C23.3069 40.5347 23.5759 40.229 23.8611 39.9421C23.9227 39.8805 23.9328 39.8201 23.8951 39.7433C23.6638 39.2627 23.4301 38.7833 23.2051 38.3015C22.8922 37.6321 22.622 36.9464 22.4624 36.2229C22.4159 36.0103 22.2726 35.8769 22.1306 35.7398C22.0716 35.6819 22.0515 35.6354 22.0716 35.546C22.191 35.0138 22.299 34.4779 22.4121 33.9444C22.4222 33.9004 22.4511 33.8588 22.48 33.7959L22.4825 33.7921Z" fill="#3C2A21"/>
<path d="M46.9557 26.3274C46.9909 26.7954 47.0223 27.2333 47.0562 27.6724C47.1014 28.2599 47.1479 28.8475 47.1944 29.4351C47.251 30.1623 47.3088 30.8895 47.3641 31.6168C47.4181 32.3138 47.4697 33.0121 47.5237 33.7091C47.579 34.4313 47.6368 35.1535 47.6921 35.8757C47.7336 36.4092 47.7864 36.9414 47.8153 37.4748C47.8567 38.2725 47.9145 39.0715 47.9032 39.8704C47.8919 40.6719 47.6833 41.4482 47.4232 42.2056C47.4056 42.2559 47.3415 42.2911 47.2988 42.3339C47.2736 42.2836 47.2284 42.2345 47.2246 42.1817C47.1907 41.6784 47.1681 41.1739 47.1329 40.6706C47.0926 40.0931 47.0424 39.5156 46.9959 38.9381C46.9519 38.3958 46.9079 37.8523 46.8639 37.31C46.8074 36.6281 46.7508 35.9462 46.6955 35.2642C46.6415 34.6024 46.5887 33.9394 46.5347 33.2776C46.4794 32.5956 46.4216 31.9137 46.3663 31.2318C46.3223 30.6844 46.2783 30.1359 46.2343 29.5886C46.1778 28.8915 46.1212 28.1945 46.0659 27.4975C46.0219 26.9401 45.9679 26.3827 45.939 25.8241C45.9164 25.3938 45.792 24.9937 45.6437 24.5961C45.6236 24.542 45.6185 24.4691 45.6386 24.4175C45.8435 23.9104 46.0534 23.4059 46.2657 22.9026C46.2821 22.8636 46.3261 22.8359 46.3575 22.8032C46.3851 22.8334 46.4253 22.8598 46.4379 22.8963C46.8451 24.0727 47.251 25.2479 47.6506 26.4268C47.7122 26.6092 47.7461 26.803 47.7801 26.9942C47.7889 27.0483 47.7499 27.1112 47.7323 27.1704C47.6783 27.1465 47.6079 27.1364 47.574 27.0949C47.3679 26.852 47.1718 26.6029 46.9532 26.3324L46.9557 26.3274Z" fill="#3C2A21"/>
<path d="M7.80039 47.1892C7.54025 47.6573 7.28765 48.109 7.03505 48.5619C6.94331 48.7255 6.93703 48.7255 6.77366 48.6324C6.2848 48.3518 5.79719 48.0712 5.30708 47.7957C5.22288 47.7491 5.2078 47.7013 5.24801 47.6158C5.47925 47.1238 5.70922 46.6319 5.93543 46.1387C5.9857 46.0292 6.04351 46.0179 6.14405 46.077C6.65427 46.379 7.16701 46.6772 7.67849 46.9753C7.71996 46.9992 7.76269 47.0232 7.81798 47.0533C7.95496 46.808 8.08817 46.5689 8.22139 46.3312C8.35208 46.0959 8.48655 45.8631 8.61348 45.6253C8.665 45.5284 8.7203 45.5108 8.81581 45.5662C9.33483 45.8719 9.85636 46.1751 10.3779 46.4784C10.4495 46.5199 10.4684 46.5689 10.4282 46.6507C10.1894 47.1439 9.95313 47.6384 9.72064 48.1354C9.66911 48.2461 9.61508 48.2524 9.51328 48.192C8.98295 47.8737 8.45011 47.5629 7.91726 47.2496C7.88333 47.2295 7.84689 47.2131 7.80039 47.1892Z" fill="#3C2A21"/>
<path d="M12.2491 16.3211C11.9865 16.7929 11.7276 17.2471 11.4788 17.7076C11.4134 17.8296 11.3544 17.8447 11.235 17.7743C10.7449 17.4862 10.251 17.2056 9.75584 16.9275C9.67038 16.8797 9.65907 16.8306 9.69928 16.7463C9.93178 16.2506 10.1643 15.7536 10.393 15.2554C10.447 15.1384 10.5174 15.1648 10.5978 15.2126C11.0628 15.4831 11.5278 15.7549 11.9928 16.0254C12.082 16.077 12.1712 16.1298 12.268 16.1877C12.5294 15.7184 12.7832 15.2617 13.0384 14.8037C13.1326 14.6351 13.1439 14.6276 13.3123 14.7245C13.8125 15.0138 14.3101 15.3095 14.8091 15.6001C14.8933 15.6492 14.9159 15.7021 14.8706 15.7952C14.6319 16.2884 14.3981 16.7841 14.1644 17.2798C14.1128 17.3893 14.0525 17.378 13.9646 17.3251C13.4644 17.0244 12.963 16.7287 12.4603 16.4318C12.3962 16.3941 12.3296 16.3626 12.2504 16.3211H12.2491Z" fill="#3C2A21"/>
<path d="M21.7938 46.0757C21.7737 46.1387 21.7612 46.1764 21.7486 46.2141C21.6581 46.462 21.5752 46.7136 21.4734 46.9565C21.4432 47.0282 21.3716 47.1062 21.3 47.1339C19.1887 47.9467 17.0737 48.7531 14.9611 49.5634C14.6608 49.6792 14.3416 49.7572 14.0953 49.9874C14.0802 50.0013 14.0337 50.0038 14.0198 49.9912C14.0023 49.9761 13.9909 49.9358 13.9985 49.9132C14.1166 49.5861 14.2285 49.2552 14.368 48.9356C14.4031 48.8538 14.52 48.7909 14.6118 48.7531C15.2615 48.4914 15.915 48.2335 16.5685 47.9819C18.2361 47.3427 19.9038 46.7074 21.5727 46.0707C21.6141 46.0544 21.6569 46.0304 21.6983 46.0292C21.7298 46.0292 21.7612 46.0594 21.7913 46.0745L21.7938 46.0757Z" fill="#3C2A21"/>
<path d="M6.52232 38.9029C6.51226 38.8538 6.48838 38.8123 6.49844 38.7833C6.6128 38.46 6.72213 38.1329 6.85911 37.8196C6.89681 37.734 7.0162 37.6673 7.11297 37.6271C7.5302 37.4522 7.95119 37.2849 8.37345 37.1238C10.2786 36.3941 12.1838 35.6681 14.089 34.9421C14.1405 34.922 14.2008 34.9233 14.2561 34.9132C14.2486 34.9736 14.2523 35.0365 14.2335 35.0931C14.1531 35.3284 14.0613 35.5599 13.9847 35.7977C13.9444 35.9235 13.8703 35.9889 13.7484 36.0367C11.6007 36.8533 9.45296 37.6711 7.30902 38.4977C7.06144 38.5934 6.83398 38.7393 6.59772 38.8626C6.58012 38.8714 6.56379 38.8815 6.52232 38.9054V38.9029Z" fill="#3C2A21"/>
<path d="M18.2713 19.2778C18.2575 19.2325 18.2286 19.191 18.2386 19.1633C18.353 18.8387 18.4623 18.5128 18.5968 18.197C18.6307 18.1178 18.735 18.0498 18.8217 18.0133C19.3269 17.8045 19.8359 17.6032 20.3461 17.4069C22.1709 16.7074 23.9981 16.0103 25.8241 15.3145C25.8794 15.2932 25.9435 15.2982 26.0038 15.2919C25.9963 15.3485 25.9963 15.4089 25.9774 15.4618C25.8907 15.7109 25.7952 15.9575 25.711 16.2066C25.6796 16.301 25.6281 16.3513 25.5351 16.3865C23.3182 17.232 21.1027 18.0788 18.8883 18.9318C18.6961 19.006 18.5239 19.1281 18.3429 19.2287C18.3253 19.2388 18.3103 19.2501 18.2713 19.2753V19.2778Z" fill="#3C2A21"/>
<path d="M7.10794 1.95395C7.25624 2.06593 7.40201 2.17036 7.54025 2.2836C7.56916 2.3075 7.5968 2.37544 7.58298 2.40187C7.46234 2.63589 7.33164 2.86362 7.19214 3.11525C6.99987 2.98818 6.82267 2.87242 6.66684 2.76925C6.28857 3.19326 5.92412 3.61097 5.55088 4.01862C4.78177 4.85909 3.84553 5.47182 2.84016 5.98642C2.33496 6.2456 1.83479 6.51359 1.32834 6.77152C1.20015 6.83694 1.05815 6.87595 0.923679 6.92753C0.909855 6.9074 0.894775 6.88727 0.880951 6.8684C0.921166 6.81807 0.952583 6.7539 1.00411 6.71868C1.44144 6.42174 1.88003 6.12733 2.32365 5.83795C3.32399 5.18621 4.308 4.51309 5.19398 3.70911C5.59235 3.34802 5.97439 2.96805 6.37905 2.58178C6.30868 2.52768 6.27475 2.50126 6.24081 2.4761C6.09001 2.36915 5.93041 2.27353 5.79091 2.154C5.31462 1.7451 5.25555 1.24812 5.61874 0.734779C5.83741 0.425267 6.13148 0.20257 6.48462 0.0679448C7.00866 -0.130847 7.36557 0.115756 7.3995 0.684452C7.42338 1.07323 7.32535 1.43558 7.17706 1.78913C7.15444 1.84323 7.13182 1.89734 7.10794 1.95395ZM6.73219 1.77403C6.74852 1.76019 6.76486 1.74761 6.78246 1.73377C6.83901 1.53624 6.8566 1.33745 6.79879 1.13488C6.73093 0.892052 6.57007 0.798946 6.3225 0.856823C6.24584 0.874437 6.16918 0.900859 6.10006 0.938604C5.94423 1.02164 5.92035 1.08707 6.04854 1.20785C6.26344 1.41042 6.50347 1.58657 6.73219 1.77403Z" fill="#3C2A21"/>
<path d="M41.0567 24.6288C41.2062 24.7408 41.352 24.8452 41.4903 24.9572C41.5192 24.9811 41.5481 25.0491 41.5355 25.0742C41.4174 25.2994 41.2904 25.5196 41.1648 25.7398C41.1585 25.7511 41.1409 25.7562 41.1158 25.7713C40.9461 25.6593 40.7727 25.5461 40.6194 25.4454C40.2361 25.8732 39.8666 26.2934 39.4883 26.7036C38.7594 27.4962 37.886 28.0939 36.9334 28.5833C36.3403 28.8878 35.7483 29.196 35.1539 29.5005C35.0886 29.5345 35.0169 29.5596 34.9453 29.5785C34.9189 29.5861 34.8674 29.5722 34.8561 29.5521C34.8435 29.5307 34.8536 29.4779 34.8737 29.4602C34.9315 29.4061 34.9956 29.3583 35.0622 29.3143C35.9632 28.7066 36.8731 28.1115 37.7654 27.4899C38.5332 26.9552 39.2345 26.3387 39.8993 25.6819C40.0237 25.5599 40.133 25.4228 40.2486 25.2906C40.265 25.273 40.2738 25.2491 40.2901 25.2227C40.1355 25.1158 39.9809 25.0151 39.8352 24.9044C39.2407 24.454 39.1729 23.879 39.6492 23.304C39.8528 23.0574 40.1066 22.8737 40.4032 22.7542C40.9474 22.5365 41.3181 22.7831 41.3495 23.3732C41.3734 23.8161 41.2389 24.2187 41.0542 24.6276L41.0567 24.6288ZM40.7274 24.4363C40.7991 24.1759 40.8267 23.9343 40.7036 23.7079C40.6621 23.6311 40.5666 23.5493 40.4836 23.5342C40.2675 23.4927 40.0727 23.5632 39.9043 23.733C40.079 24.0828 40.4082 24.2388 40.7262 24.4363H40.7274Z" fill="#3C2A21"/>
<path d="M16.5257 3.81228C15.881 3.73176 15.2765 3.58581 14.662 3.69653C14.4635 3.73176 14.2812 3.85758 14.089 3.93559C14.0286 3.95949 13.9608 3.96326 13.8967 3.97585C13.8992 3.90665 13.8791 3.82361 13.908 3.76825C14.0827 3.4386 14.2674 3.11274 14.4521 2.78813C14.7374 2.2836 15.1836 2.15652 15.7277 2.23075C16.2957 2.3075 16.8613 2.39935 17.4393 2.35783C17.7221 2.3377 17.8314 2.48616 17.7246 2.75416C17.5474 3.20207 17.3639 3.64872 17.1478 4.07902C16.9178 4.53574 16.537 4.81128 16.0243 4.90816C15.5744 4.99371 15.1308 5.10443 14.6834 5.20383C14.6545 5.21012 14.6218 5.2227 14.5954 5.21641C14.5514 5.20634 14.51 5.18244 14.4672 5.16482C14.4873 5.12331 14.4974 5.07046 14.5301 5.04404C14.5866 4.99623 14.657 4.96477 14.7198 4.92703C15.2577 4.60242 15.7956 4.27907 16.3322 3.9532C16.3875 3.92049 16.4365 3.87771 16.5245 3.81228H16.5257Z" fill="#3C2A21"/>
<path d="M17.8239 14.3734C17.3853 14.0891 16.9316 14.0136 16.4428 14.1495C16.3711 14.1696 16.302 14.1998 16.2291 14.2174C16.1311 14.2413 16.0809 14.1872 16.1286 14.1054C16.292 13.8274 16.4541 13.5455 16.6501 13.2901C16.7155 13.2046 16.8763 13.1656 16.9982 13.1517C17.4481 13.0989 17.8591 13.2084 18.2147 13.4977C18.4246 13.6688 18.4196 13.7368 18.3555 13.9935C18.2185 14.5433 17.8767 14.9572 17.5148 15.3649C17.3828 15.5133 17.2634 15.6769 17.1641 15.848C16.9618 16.1978 17.1189 16.5325 17.5135 16.6218C17.8352 16.696 18.1494 16.6444 18.456 16.5463C19.1183 16.3337 19.7115 15.994 20.2406 15.541C20.2858 15.502 20.3336 15.4643 20.3851 15.4353C20.4152 15.419 20.4555 15.4227 20.4906 15.4165C20.4906 15.4529 20.5045 15.4995 20.4869 15.5247C20.3863 15.6794 20.2871 15.8354 20.1714 15.9789C19.8811 16.34 19.6223 16.7325 19.2201 16.9867C18.7325 17.2949 18.2235 17.5579 17.6341 17.5906C17.4431 17.6007 17.2421 17.5856 17.0586 17.5365C16.5471 17.3993 16.3159 16.9351 16.4629 16.3752C16.5886 15.8946 16.8675 15.5008 17.1767 15.1258C17.3828 14.8754 17.5977 14.6326 17.8227 14.3709L17.8239 14.3734Z" fill="#3C2A21"/>
<path d="M37.1672 44.2526C36.8304 44.0274 36.4735 43.9243 36.0839 43.9721C35.918 43.9922 35.7559 44.0513 35.5912 44.0878C35.5535 44.0966 35.5033 44.0916 35.4719 44.0702C35.4568 44.0601 35.4643 43.9935 35.4819 43.9645C35.6315 43.7116 35.7722 43.4524 35.9456 43.2159C36.0097 43.1278 36.148 43.0687 36.2611 43.0473C36.7663 42.9542 37.2199 43.0762 37.607 43.4197C37.7365 43.5355 37.7616 43.6525 37.7151 43.84C37.563 44.4426 37.1722 44.8817 36.7851 45.3322C36.672 45.463 36.5715 45.6102 36.4898 45.7625C36.3264 46.0694 36.4521 46.3639 36.7839 46.4758C37.0855 46.5778 37.3871 46.54 37.6824 46.457C38.3736 46.2619 38.9881 45.9197 39.5361 45.458C39.6002 45.4039 39.6705 45.3535 39.7409 45.3082C39.7648 45.2932 39.8012 45.2994 39.8326 45.2969C39.8339 45.3296 39.8477 45.3686 39.8352 45.3925C39.7912 45.4756 39.7434 45.5599 39.6843 45.6329C39.438 45.9411 39.2181 46.2783 38.9341 46.5463C38.2932 47.149 37.5404 47.5239 36.6293 47.4635C36.0148 47.4232 35.6528 46.9212 35.7898 46.3198C35.9117 45.7876 36.2234 45.3611 36.5627 44.9522C36.7562 44.7194 36.9573 44.4917 37.1646 44.2514L37.1672 44.2526Z" fill="#3C2A21"/>
<path d="M10.1881 34.7974C10.0449 34.9912 9.92046 35.1988 9.75834 35.3712C9.15009 36.0116 8.45136 35.5486 8.26788 35.0289C8.12085 34.6087 8.12588 34.1759 8.16358 33.7418C8.17866 33.5745 8.20379 33.416 8.1309 33.2461C8.05299 33.0649 8.11833 32.8837 8.23144 32.7252C8.29302 32.6409 8.36088 32.5604 8.42246 32.4761C8.50037 32.3692 8.55316 32.4006 8.60342 32.5C8.70647 32.7001 8.66375 32.9077 8.64113 33.1165C8.60342 33.4524 8.54562 33.7884 8.54185 34.1256C8.53808 34.3999 8.65746 34.6427 8.92263 34.776C9.10736 34.8692 9.29838 34.8641 9.48815 34.7911C9.92297 34.6213 10.1328 34.2778 10.0562 33.811C10.0047 33.499 9.92171 33.1907 9.83626 32.885C9.80232 32.763 9.7885 32.6598 9.85134 32.544C9.90914 32.4396 9.94936 32.3251 10.0097 32.1867C10.163 32.3717 10.2082 32.5554 10.2409 32.7378C10.3088 33.1102 10.3565 33.4864 10.4269 33.8576C10.4885 34.1797 10.6318 34.454 10.9887 34.5156C11.1407 34.542 11.3079 34.5294 11.4587 34.4942C11.6333 34.4527 11.6937 34.3193 11.6371 34.1444C11.5919 34.0035 11.5177 33.8714 11.4599 33.7343C11.3606 33.5015 11.2488 33.2725 11.1709 33.0322C11.0703 32.7227 11.2211 32.4472 11.3368 32.1729C11.3468 32.1477 11.3921 32.12 11.4172 32.1226C11.4386 32.1251 11.47 32.1691 11.4725 32.1968C11.5001 32.6535 11.7263 33.0423 11.901 33.4487C12.1926 34.1268 11.9324 34.737 11.4574 35.1611C11.0138 35.5574 10.4897 35.2969 10.2384 34.8981C10.217 34.8654 10.202 34.8276 10.1869 34.8L10.1881 34.7974Z" fill="#3C2A21"/>
<path d="M4.56436 36.0996C4.60081 35.8543 4.62845 35.609 4.6737 35.3661C4.778 34.8138 4.87854 34.2602 5.00672 33.7129C5.04568 33.5455 5.15125 33.3858 5.25807 33.2461C5.37368 33.0939 5.56847 33.0561 5.71174 33.1769C5.90778 33.3405 6.06864 33.5455 6.23956 33.738C6.25715 33.7582 6.24584 33.8135 6.23327 33.8475C6.18803 33.9683 6.13274 34.0866 6.08875 34.2073C6.04979 34.3118 6.00329 34.3093 5.92538 34.2426C5.81479 34.1507 5.7042 34.0551 5.57978 33.9859C5.41138 33.8915 5.28194 33.9243 5.21534 34.1029C5.1236 34.347 5.05322 34.6037 5.00672 34.8616C4.8798 35.5574 4.77549 36.2557 4.64605 36.9514C4.62971 37.042 4.53043 37.1288 4.45126 37.193C4.38842 37.2446 4.35324 37.1892 4.33564 37.1175C4.2615 36.8181 4.19112 36.5174 4.10064 36.2217C3.9536 35.7436 3.76635 35.2831 3.47857 34.8691C3.45594 34.8364 3.43081 34.8062 3.39311 34.7572C3.29257 35.0088 3.12292 34.9283 2.95703 34.8666C2.76098 34.7937 2.5863 34.6943 2.47571 34.5068C2.39403 34.3684 2.38397 34.225 2.46189 34.0803C2.53226 33.9482 2.60138 33.8161 2.67302 33.6852C2.72454 33.5908 2.79994 33.5581 2.91053 33.5845C3.31896 33.6814 3.60675 33.9381 3.83798 34.2715C4.18107 34.7685 4.36078 35.3309 4.49273 35.9122C4.50655 35.9751 4.52038 36.038 4.5342 36.1009C4.54426 36.1009 4.55557 36.0996 4.56562 36.0984L4.56436 36.0996Z" fill="#3C2A21"/>
<path d="M23.2818 4.44766C23.2818 4.30045 23.2655 4.11424 23.2843 3.93055C23.3333 3.46628 23.7128 3.28385 24.071 3.57952C24.3638 3.82109 24.6277 4.11047 24.8627 4.40992C25.3265 5 25.5263 5.69829 25.5866 6.43684C25.6117 6.74006 25.6155 7.0458 25.6105 7.34902C25.6092 7.43458 25.5401 7.51887 25.5024 7.60317C25.4546 7.52894 25.3906 7.45974 25.3604 7.37922C25.2121 6.96779 25.0902 6.5463 24.9231 6.14243C24.7924 5.82662 24.5636 5.56996 24.2897 5.35732C24.2092 5.29442 24.1351 5.27806 24.0295 5.30574C23.9026 5.33845 23.7644 5.35229 23.6324 5.34097C23.4326 5.32335 23.3245 5.1925 23.3107 4.99245C23.2994 4.8226 23.2918 4.65274 23.2805 4.4464L23.2818 4.44766Z" fill="#3C2A21"/>
<path d="M41.0642 42.4899C41.0429 42.544 41.0315 42.5768 41.0165 42.6082C40.794 43.0863 40.5678 43.5632 40.3492 44.0438C40.2951 44.1621 40.2423 44.1834 40.1229 44.118C39.624 43.8488 39.1201 43.5883 38.6136 43.3317C38.5005 43.2738 38.4716 43.2209 38.5294 43.1014C38.7569 42.6258 38.9781 42.1465 39.1968 41.6658C39.2433 41.5639 39.2935 41.5287 39.4016 41.5866C39.9118 41.8558 40.4258 42.12 40.936 42.388C40.9838 42.4132 41.0228 42.456 41.063 42.4887L41.0642 42.4899Z" fill="#3C2A21"/>
<path d="M33.0062 30.5284C32.9836 30.5851 32.9723 30.6178 32.9572 30.6492C32.7347 31.1273 32.5098 31.6054 32.2911 32.0848C32.2396 32.198 32.1856 32.2194 32.0737 32.1603C31.5648 31.8898 31.0533 31.6218 30.5393 31.3601C30.4299 31.3047 30.4224 31.2494 30.4702 31.1487C30.6976 30.6668 30.9213 30.1837 31.1438 29.6993C31.1903 29.5986 31.2393 29.5672 31.3499 29.6251C31.8588 29.8956 32.3728 30.1585 32.8843 30.4265C32.9321 30.4517 32.9685 30.4957 33.0075 30.5272L33.0062 30.5284Z" fill="#3C2A21"/>
<path d="M33.2839 24.3785C33.2462 24.5949 33.2211 24.7798 33.1771 24.961C33.1671 25.0013 33.0879 25.0327 33.0351 25.0516C31.8387 25.4844 30.6398 25.9122 29.4434 26.3488C29.2298 26.4268 29.0237 26.5312 28.8264 26.6457C28.6341 26.7577 28.6291 26.8483 28.7975 26.9917C28.9408 27.1137 29.1004 27.2182 29.26 27.3201C29.3379 27.3704 29.3705 27.4157 29.3429 27.5138C29.309 27.6384 29.3027 27.7705 29.27 27.8951C29.2625 27.9265 29.1908 27.9706 29.1632 27.9617C28.7083 27.8133 28.2998 27.2421 28.3086 26.7828C28.3149 26.4545 28.4833 26.2141 28.7585 26.0732C29.1066 25.8946 29.4686 25.7373 29.8368 25.6014C30.91 25.2051 31.9883 24.8239 33.064 24.4376C33.1218 24.4162 33.1834 24.4061 33.2839 24.3797V24.3785Z" fill="#3C2A21"/>
<path d="M26.4914 5.4454C26.4512 5.96251 26.4148 6.47836 26.3645 6.99422C26.357 7.06719 26.2828 7.13513 26.2401 7.20433C26.2062 7.13261 26.1496 7.06467 26.1433 6.99044C26.1119 6.67841 26.0855 6.36387 26.0767 6.05058C26.0579 5.3221 26.0378 4.59235 26.0453 3.86387C26.0491 3.44489 26.1194 3.02844 26.2828 2.63714C26.4035 2.34902 26.5681 2.09864 26.8961 2.00805C27.1185 1.9464 27.2832 2.00428 27.4176 2.19175C27.591 2.43206 27.5973 2.70634 27.5621 2.98188C27.537 3.17439 27.4981 3.36563 27.444 3.55184C27.3837 3.76195 27.2618 3.80347 27.067 3.70156C26.7943 3.55813 26.7277 3.57826 26.5957 3.86513C26.4437 4.19477 26.4211 4.54832 26.4311 4.90438C26.4361 5.0843 26.45 5.26296 26.46 5.44288C26.4701 5.44288 26.4814 5.4454 26.4914 5.4454Z" fill="#3C2A21"/>
<path d="M21.1328 32.0546C21.1881 32.032 21.2434 32.0055 21.3 31.9879C21.7938 31.8357 22.2563 31.623 22.6786 31.3211C23.3698 30.8266 23.8071 29.7295 23.2479 28.7884C22.9689 28.3191 22.617 27.8925 22.2978 27.4472C22.1583 27.2521 22.0113 27.0634 21.8806 26.8634C21.7147 26.6105 21.643 26.34 21.7838 26.0455C21.8328 25.9424 21.8604 25.8304 21.9007 25.7222C21.9145 25.6844 21.9371 25.6505 21.9622 25.5989C21.9924 25.6329 22.0138 25.6467 22.0138 25.6605C22.0251 25.9109 22.147 26.1173 22.2827 26.3161C22.6182 26.8055 22.9626 27.2886 23.2893 27.7843C23.5457 28.1731 23.7367 28.5946 23.8184 29.0601C23.9252 29.6779 23.7895 30.2516 23.4741 30.7826C23.3471 30.9952 23.2039 31.2028 23.043 31.3915C22.71 31.7803 22.2463 31.9187 21.7649 32.0118C21.6141 32.0408 21.4621 32.0722 21.3113 32.0986C21.2572 32.1087 21.2019 32.1112 21.1479 32.1163C21.1429 32.0961 21.1378 32.0747 21.1328 32.0546Z" fill="#3C2A21"/>
<path d="M45.9717 13.1731C45.9641 13.1392 45.9453 13.1014 45.9528 13.07C46.0835 12.4673 46.2808 11.8961 46.742 11.4582C46.835 11.3702 46.9456 11.2947 47.0587 11.2368C47.3729 11.0757 47.6431 11.16 47.8178 11.4708C47.9874 11.7728 48.0201 12.1037 47.9887 12.4434C47.9058 13.3317 47.5049 14.0803 46.9469 14.7521C46.7144 15.0327 46.4568 15.2906 46.2067 15.5561C46.1677 15.5976 46.1087 15.6215 46.0584 15.653C46.0433 15.6404 46.0282 15.6266 46.0132 15.614C46.0521 15.5398 46.0835 15.4605 46.1325 15.3938C46.3525 15.0906 46.585 14.7974 46.7986 14.4904C47.0688 14.1029 47.2849 13.6852 47.3553 13.2134C47.383 13.0247 47.3754 12.8234 47.339 12.6359C47.2862 12.3666 47.0801 12.2672 46.8162 12.354C46.5121 12.4547 46.3298 12.6887 46.1728 12.9504C46.1237 13.0322 46.0672 13.109 46.0144 13.1882C45.9993 13.1844 45.9855 13.1794 45.9704 13.1756L45.9717 13.1731Z" fill="#3C2A21"/>
<path d="M40.5088 2.14268C40.4673 2.37041 40.4384 2.56291 40.3931 2.75163C40.3856 2.78309 40.3152 2.80574 40.27 2.82209C38.8273 3.35179 37.3833 3.88022 35.9394 4.40866C35.7936 4.46276 35.7886 4.43759 35.7886 4.28913C35.7886 3.91545 35.9884 3.7695 36.3252 3.65249C37.6598 3.18822 38.9819 2.68873 40.3077 2.20307C40.358 2.18545 40.4095 2.17161 40.5088 2.14142V2.14268Z" fill="#3C2A21"/>
</g>
<defs>
<clipPath id="clip0_27_5">
<rect width="48" height="50" fill="white"/>
</clipPath>
</defs>
</svg>
