<svg viewBox="0 0 383.72 407.67" xmlns="http://www.w3.org/2000/svg"><path d="m123.92 235.05c-.19-4.04-.36-7.86-.56-11.68-.37-7.1-.73-14.19-1.16-21.28-.56-9.24-1.12-18.49-1.8-27.72-.6-8.2-1.35-16.39-2.06-24.57-.2-2.3-.47-4.61-.8-6.9-.26-1.78-.16-3.41.64-5.1 1.44-3.02 2.64-6.15 3.96-9.23.3-.7.66-1.38 1-2.07h.55c.22.6.53 1.19.64 1.81.89 5.02 1.94 10.03 2.57 15.09 1.87 14.99 2.42 30.07 3.07 45.14.55 12.68 1.2 25.36 1.83 38.04.12 2.38.36 4.75.56 7.24 1.25.08 2.38.15 3.64.23-.16 2.3-2.35 2.2-3.33 3.53.2 3.21.37 6.55.64 9.89.36 4.54.88 9.06 2.23 13.43.31.99.62 1.98 1.01 2.94 2.88 7.13 7.37 11.76 17.62 12.28 4.19.22 8.26-.49 12.23-1.82 4.09-1.36 7.68-3.49 10.65-6.63 2.09-2.2 4.15-4.42 6.31-6.56 1.3-1.29 2.7-2.49 4.17-3.58.92-.68 1.97-1.42 3.56-.81-.06.71-.04 1.48-.19 2.22-.24 1.17-.62 2.31-.9 3.47-1.47 5.97 1.35 10.22 5.73 12.37 6.57 3.21 13.1 3.08 19.28-1.14 2.94-2.01 5.17-4.73 7.22-7.6 1.81-2.53 3.49-5.17 5.43-7.59.96-1.2 2.34-2.11 3.63-2.99.39-.26 1.27-.14 1.7.15.28.19.3 1.03.17 1.51-.45 1.61-1.12 3.16-1.49 4.79-.28 1.22-.39 2.54-.28 3.79.42 4.77 3.77 7.65 8.56 7.46 3.37-.13 6.38-1.27 9.06-3.32 2.38-1.81 4.29-4.06 5.93-6.53 1.28-1.93 2.44-3.93 3.68-5.88.6-.94 1.2-1.89 1.89-2.76.54-.69 1.25-1.43 2.22-.98.99.46.45 1.38.31 2.12-.33 1.8-.93 3.61.07 5.38 1.52 2.67 3.36 5.12 6.19 6.48 7.02 3.39 13.9 3.21 20.4-1.29 3.73-2.58 6.58-6.02 8.81-9.97 1.06-1.88 2.05-3.79 3.15-5.64 1.33-2.23 1.59-2.3 3.97-1.59 1.83-2.31 3.52-4.75 5.54-6.89 2.18-2.31 4.53-4.5 7.04-6.43 2.46-1.89 5.4-2.74 8.58-2.19 2.64.46 4.66 1.99 6.42 3.92 3.71 4.08 5.57 9.03 6.85 14.29 2.08 8.58-.5 16.23-4.49 23.63-.78 1.45-1.87 2.27-3.69 1.96-9.61-1.66-18.73-4.61-26.9-10.08-1.71-1.15-3.31-2.45-5.16-3.84-.67 1.52-1.32 2.95-1.94 4.4-1.87 4.36-4.18 8.42-7.73 11.68-6.02 5.55-12.99 6.77-20.68 4.59-4.94-1.4-8.14-4.83-10.34-9.32-.45-.91-.86-1.85-1.5-3.23-.62 1.02-1.03 1.73-1.47 2.41-1.59 2.48-3.02 5.09-4.83 7.39-3.44 4.36-8.11 6.59-13.64 7-5.12.38-9.58-2.56-11.47-7.66-.52-1.41-.81-2.91-1.32-4.77-.62.91-1.12 1.57-1.55 2.27-2.07 3.36-4.5 6.4-7.61 8.85-4.71 3.73-10.07 5.51-16.06 4.94-8.74-.83-13.89-5.85-15.22-14.54-.19-1.23-.46-2.44-.71-3.75-1.59.26-2.31 1.26-3.06 2.14-1.67 1.93-3.21 3.98-4.9 5.89-7.97 8.97-18.08 11.07-29.39 8.89-4.2-.81-7.63-3.15-10.39-6.44-.49-.59-1.01-1.15-1.92-1.54.33 2.33.54 4.69 1.01 6.99.66 3.19 1.36 6.4 2.33 9.51 1.74 5.56 5.72 9.03 10.97 11.27 2.85 1.22 5.6 2.68 8.39 4.05.63.31 1.27.64 1.27 1.55-.02 4.7 0 9.39 0 14.55-1.16-.5-2.01-.81-2.81-1.22-4.2-2.17-8.59-3.79-13.18-4.94-7.69-1.93-15.02-.66-22.22 2.2-6.48 2.57-12.54 5.95-18.33 9.8-4.45 2.95-8.75 6.14-13.17 9.15-1.26.86-1.69 1.85-1.75 3.36-.09 2.3-.5 4.59-.85 6.88-.12.8-.46 1.56-.71 2.34-.2-.03-.39-.07-.59-.1v-9.2c-.99.6-1.58.89-2.09 1.27-4.31 3.17-8.56 6.41-12.91 9.52-2.14 1.53-4.39 2.92-6.67 4.22-6.3 3.59-12.63 3.24-18.57-.64-6.93-4.53-11.17-11.03-12.54-19.28-1.29-7.78.2-15.26 2.68-22.58 2.75-8.15 6.79-15.64 11.69-22.69.5-.71.97-1.44 1.48-2.18-4.27-2.88-5.44-7.01-5.1-11.75.26-3.61 1.4-7.03 2.58-10.42 1.52-4.36 2.99-8.75 4.5-13.12.07-.2.28-.35.72-.87.19.85.47 1.41.39 1.92-.26 1.73-.57 3.46-1.01 5.16-.9 3.47-1.96 6.91-2.81 10.39-.55 2.25-.87 4.56-.32 6.88.14.62.3 1.25.58 1.81 1.21 2.43 3.92 2.92 5.66.83.93-1.11 1.37-2.65 1.94-4.03.29-.71.38-1.49.99-2.26.15.48.39.95.43 1.43.32 4.85-.63 9.28-3.65 13.29-5.28 7.03-9.95 14.47-13.4 22.6-2.61 6.15-4.32 12.47-4.07 19.27.42 11.26 9.93 16.94 19.46 14.85 3.09-.68 5.89-2.02 8.44-3.84 4.74-3.38 9.43-6.84 14.14-10.28 1.8-1.31 3.57-2.65 5.53-4.11-1.06-5.01-2.15-9.98-3.15-14.97-.68-3.36-1.42-6.72-1.78-10.11-.22-2.02 0-4.16.42-6.17.88-4.25 3.65-6.78 7.85-7.77.89-.21 1.79-.42 2.78-.65-2.85-2.45-4.53-2.31-6.68.43-.46.59-.96 1.15-1.57 1.88-.84-3.47 1.45-8.26 4.81-10.59-.68-5.5-3.93-13.66-7.02-17.45-1.5 1.75-3.1.79-4.66.07-1.74-.8-3.1-2-3.42-4.01-.08-.51.1-1.11.29-1.61.25-.67.63-1.29.97-1.92 1.59-2.96 1.99-3.1 5-1.69 2.08.97 3.68 2.51 5.02 4.34 2.69 3.67 4.14 7.88 5.3 12.22.2.75.41 1.5.96 2.22.51-3.35.93-6.71 1.55-10.04.53-2.9 1.19-5.78 1.97-8.62.33-1.2 1.01-2.36 1.76-3.36 1.08-1.44 2.64-1.86 3.99-.81 1.54 1.2 2.78 2.8 4.07 4.29.24.27.2.95.06 1.35-.39 1.11-.91 2.18-1.46 3.45-.61-.37-1.07-.62-1.49-.92-.59-.41-1.11-.92-1.72-1.29-1.85-1.11-3.06-.84-3.78 1.17-.71 2.01-1.18 4.14-1.52 6.25-.87 5.43-1.61 10.87-2.45 16.61 2.58 1.15 4.82 3.24 6.85 5.64 1.55 1.84 2.43 3.69 1.4 6.08-.28.64-.37 1.36-.59 2.21-1.11-.09-2.13-.14-3.15-.25-2.65-.28-5.27-.19-7.81.66-1.04.35-2.05.9-2.94 1.54-1.55 1.11-2.16 2.59-1.76 4.58 1.66 8.2 3.23 16.42 4.9 24.95.87-.57 1.59-1 2.28-1.49 7.83-5.53 15.85-10.75 24.43-15.05 5.57-2.8 11.32-5.15 17.45-6.47.22-.05.41-.21.7-.37-.03-.3 0-.62-.1-.9-2.47-6.83-3.3-13.97-3.71-21.15-.79-14.11-1.42-28.23-2.13-42.34-.05-.95-.16-1.89-.26-3.08-.79.25-1.44.44-2.07.67-9.05 3.32-18.13 6.59-27.15 10-5.3 2-10.8 2.74-16.38 3.1-7.17.47-14.35.64-21.53.02-7.98-.69-15.79-2.12-23.3-5.01-14.17-5.45-23.09-15.81-27.89-29.95-3.71-10.94-4.42-22.18-2.82-33.57 1.71-12.19 5.33-23.78 11.03-34.72 5.02-9.63 12.07-17.61 19.93-24.95 8.41-7.85 17.76-14.3 28.23-19.09.48-.22.92-.51 1.8-1.01-11.04-.48-21.6-.86-32.15-1.4-10.53-.55-21.02.26-31.84.98.24-.99.35-1.67.58-2.3 1.39-3.91 2.77-7.82 4.24-11.69.32-.85.87-1.74 1.56-2.31 15.79-13 32.1-25.28 50.1-35.14 5.95-3.26 12-6.34 18.52-8.3 2.57-.78 5.27-1.28 7.95-1.53 3.49-.32 6.4.97 8.37 4.06 1.07 1.68 2.34 3.25 3.34 4.97 4.79 8.21 11.6 14.36 19.53 19.37 11.07 7 23.08 11.53 36.07 13.32 7.26 1 14.49.89 21.57-1.28 3.48-1.07 6.71-2.72 10.37-4.31-12.44-4.59-24.44-9.02-36.41-13.44-.27.17-.54.24-.66.42-1.46 2.21-3.35 2.15-5.78 1.68-7.77-1.51-15.68-1.82-23.58-2.06-.86-.03-1.72 0-2.8 0 .18-.81.22-1.36.42-1.84 1.53-3.77 3.06-7.54 4.67-11.27.26-.6.79-1.27 1.36-1.52 6.31-2.72 12.84-4.57 19.76-3.48 3.28.51 6.52 1.52 9.66 2.64 11.55 4.15 23.01 8.56 34.58 12.67 10.01 3.55 20.26 6.24 30.79 7.79 5.14.76 10.3 1.18 15.5 1.03 1.8-.05 3.61.06 5.88.1-1.83 5.06-3.53 9.75-5.26 14.54-3.71.11-7.27.21-10.94.31-.04 3.24 1.2 5.66 3.22 7.72 2.84 2.9 6.46 4.14 10.37 4.3 8.66.36 16.38-2.23 22.84-8.09 3.66-3.33 7.13-6.87 10.71-10.28 1.03-.98 2.1-2 4.01-1.62.1.52.32 1.11.28 1.68-.07.87-.31 1.72-.5 2.58-1.27 5.82 1.37 11.35 6.89 14.25.42-.84.85-1.68 1.27-2.52 5.73-11.33 12.73-21.77 21.89-30.64 3.67-3.56 7.76-6.61 12.03-9.45 6.9-4.6 14.04-5.09 21.59-1.8 6.21 2.7 11.55 6.49 15.46 12.07 4.49 6.4 6.05 13.42 4.15 21.13-2.34 9.49-7.59 16.72-16.18 21.51-7.27 4.05-15.1 6.4-23.21 7.94-6.83 1.3-13.7 2.25-20.68 1.97-4-.16-7.94-.72-11.77-1.93-4.68-1.48-8.63-4.06-11.89-7.73-2.35-2.64-3.64-5.78-4.49-9.14-.29-1.13-.64-2.25-1.15-4.05-.75 1.01-1.12 1.63-1.6 2.14-2.62 2.8-5.15 5.69-7.92 8.33-6.89 6.58-15.24 9.5-24.68 8.96-8.42-.48-13.83-5.97-14.98-14.4-.57-4.17-.31-8.26.41-12.71-2.28.17-4.39.28-6.49.5-11.6 1.17-22.77 3.93-33.32 8.97-7.86 3.76-16.12 4.82-24.71 3.98-17.54-1.73-33.19-8.13-47.03-19-4.81-3.78-8.85-8.27-12.03-13.53-1.36-2.25-2.97-4.35-4.42-6.55-1.95-2.94-4.82-3.99-8.1-3.44-3.12.52-6.25 1.31-9.22 2.41-9.68 3.62-18.67 8.63-27.27 14.33-5.85 3.88-11.57 7.96-17.34 11.96-.38.26-.72.58-1.38 1.12 29.8 1.18 59.2 2.74 88.92 2.65-.17.87-.21 1.4-.38 1.88-1.29 3.6-2.67 7.18-3.87 10.81-.48 1.47-1.29 2.12-2.77 2.51-9.32 2.48-18.64 4.95-27.9 7.64-11.78 3.43-22.94 8.29-33.03 15.38-7.53 5.29-14.73 11.02-20.61 18.15-8.41 10.19-13.28 22.07-15.81 34.96-1.38 7.05-1.75 14.15.3 21.11 4.28 14.53 13.56 24.49 27.81 29.72 6.63 2.43 13.55 3.65 20.56 4.27 15.41 1.36 30.77.56 46.09-1.28 6.18-.74 12.37-1.37 18.55-2.06.54-.06 1.08-.17 1.94-.31zm158.09-133.75c.24.22.34.37.47.42.44.18.89.34 1.35.48 4.15 1.24 8.42 1.75 12.74 1.85 10.88.25 21.42-1.56 31.61-5.38 6.84-2.56 13.23-5.93 18.81-10.71 1.67-1.43 1.71-1.67.64-3.36-5.17-8.15-12.35-13.64-21.64-16.32-2.73-.79-5.47-.85-8.27-.26-5.03 1.07-9.31 3.62-13.46 6.5-8.17 5.67-14.06 13.35-19.23 21.67-1.05 1.68-2.01 3.42-3 5.12zm49.77 161.09c-1.42-4.39-2.78-8.1-5.22-11.33-1.6-2.12-3.81-2.8-6.34-2.55-3.72.37-6.74 2.18-9.62 4.85 6.44 4.31 13.36 6.91 21.18 9.02z"/><path d="m79.58 122.41c5.05 2.95 9.72 5.68 14.66 8.57 2.29-4.09 4.57-8.14 6.99-12.46 5.14 2.42 9.64 5.49 14.6 8.39-2.23 4.68-4.37 9.17-6.68 14-5.08-2.98-9.92-5.81-14.95-8.77-2.36 4.17-4.62 8.17-7.05 12.46-4.73-2.71-9.31-5.34-14.15-8.11 2.17-4.64 4.27-9.15 6.56-14.07z"/><path d="m174.16 343.94c-.95 2.59-1.82 5.22-2.92 7.75-.25.57-1.26.88-1.98 1.16-16.21 6.21-32.43 12.38-48.63 18.61-3.17 1.22-6.26 2.63-9.64 4.06.85-3.17 1.5-6.45 3.57-9.05.85-1.07 2.58-1.51 3.98-2.05 6.53-2.54 13.08-5.02 19.63-7.52 11.01-4.21 22.01-8.42 33.02-12.62.8-.3 1.62-.54 2.43-.81.18.16.36.32.54.48z"/><path d="m205.74 124.04c-.56 1.62-1.29 3.2-1.65 4.86-.57 2.64-2.19 3.85-4.65 4.77-16.03 6-32.01 12.14-47.99 18.27-2.87 1.1-5.67 2.39-8.59 3.63 0-.32-.12-.85.02-1.29.6-1.81 1.37-3.58 1.92-5.4.5-1.67 1.52-2.74 3.11-3.36 3.49-1.35 6.96-2.75 10.46-4.08 14.87-5.69 29.75-11.37 44.62-17.05.73-.28 1.48-.52 2.22-.78.18.15.35.29.53.44z"/><path d="m1.74 55.53c1.08-.87 1.85-1.6 2.72-2.19 6.68-4.5 13.42-8.9 20.06-13.46 6.45-4.44 12.36-9.56 18-14.99 1.3-1.25 2.44-2.67 3.77-4.14-1.41-.99-2.58-1.79-3.72-2.63-5.25-3.82-5.21-8.7-1.23-13.35 1.73-2.03 3.9-3.53 6.47-4.36 3.76-1.23 6.27.32 6.91 4.21.49 3.01-.14 5.87-1.15 8.67-.29.81-.62 1.61-.96 2.49 1.36 1.09 2.64 2.11 4.03 3.22-.75 1.38-1.41 2.63-2.11 3.88-.38.69-.81 1.35-1.38 2.3-1.47-.92-2.85-1.79-4.68-2.95-.16.35-.25.79-.51 1.07-3.56 3.98-7.05 8.02-10.74 11.88-3.77 3.94-8.17 7.15-12.93 9.78-6.21 3.43-12.51 6.69-18.8 9.96-.98.51-2.01 1.24-3.74.59zm47.89-41.43c.81-1.96.74-3.67.12-5.36-.48-1.31-1.35-1.91-2.72-1.84-1.43.07-2.77.44-3.77 1.77 1.36 2.71 3.86 3.9 6.37 5.43z"/><path d="m323.13 172.98c1.36 1.09 2.65 2.12 4.03 3.22-1.14 2.05-2.21 3.99-3.44 6.22-1.55-.97-2.92-1.84-4.4-2.77-.46.52-.87.99-1.28 1.44-3.6 3.94-7.11 7.98-10.84 11.79-4.1 4.19-8.93 7.46-14.08 10.24-5.68 3.06-11.4 6.05-17.14 9.02-.98.51-2 1.24-3.71.6 1-.83 1.7-1.53 2.51-2.07 5.44-3.63 10.91-7.22 16.35-10.84 7.79-5.19 15.01-11.09 21.75-17.58 1.36-1.31 2.55-2.78 3.94-4.31-1.33-.94-2.43-1.7-3.53-2.48-5.65-4.02-5.36-9.02-1.28-13.67 1.65-1.88 3.7-3.27 6.09-4.11 3.97-1.39 6.63.23 7.17 4.36.39 2.93-.17 5.72-1.18 8.44-.3.81-.61 1.61-.95 2.5zm-9.35-7.12c1.39 2.73 3.91 3.98 6.48 5.47.18-.88.39-1.49.43-2.11.1-1.77.12-3.7-1.55-4.71-1.76-1.06-3.51-.29-5.03.9-.06.05-.09.13-.33.45z"/><path d="m127.98 30.58c-3.95-.28-7.91-.58-11.86-.84-2.22-.15-4.24.49-6.14 1.62-.72.43-1.52.71-2.75 1.27.15-1.07.07-1.73.33-2.21 1.57-2.86 3.15-5.72 4.85-8.5 2.07-3.38 5.24-4.44 9.05-3.95 2.13.27 4.26.62 6.4.77 2.78.2 5.56.24 8.35.35 2.37.09 3.13.98 2.26 3.2-1.48 3.77-3.03 7.54-4.87 11.15s-5.02 5.62-9.03 6.39c-3.2.61-6.36 1.43-9.55 2.11-.89.19-1.83.2-2.8.3-.19-1.56.94-1.78 1.68-2.22 3.55-2.13 7.14-4.19 10.7-6.32 1.21-.72 2.35-1.56 3.53-2.35-.05-.26-.1-.52-.15-.77z"/><path d="m238.28 217.31c.66-.49 1.28-1.04 1.98-1.45 3.97-2.38 7.96-4.72 11.92-7.1.79-.48 1.52-1.06 2.71-1.89-4.06-.72-7.57-1.05-11.12-1.33-3.67-.29-6.72 1.36-10.23 2.95.12-1.03.03-1.62.26-2.04 1.62-2.93 3.22-5.87 4.97-8.72 2.03-3.29 5.15-4.31 8.87-3.88 4.99.57 9.95 1.37 15.01 1.16 2.06-.08 2.91.96 2.19 2.88-1.68 4.46-3.11 9.08-5.96 13-1.76 2.42-4.16 3.93-7.07 4.59-3.57.81-7.15 1.63-10.73 2.4-.81.17-1.66.15-2.49.21-.1-.26-.21-.53-.31-.79z"/><path d="m161.07 125.04c-.28.6-.45 1.28-.85 1.78-2.38 2.99-4.53 6.25-7.3 8.84-4.21 3.95-9.38 6.26-15.22 6.82-1.02.1-2.08.03-3.1-.1-4.89-.62-7.71-4.45-6.45-9.22.64-2.42 1.78-4.8 3.13-6.91 1.67-2.6 3.81-4.91 5.76-7.33.64-.8 1.33-1.55 2.14-2.49-3.34-2.26-6.73-2.8-10.39-2-1.05.23-2.09.51-3.72.9.7-1.46 1.09-2.37 1.57-3.24.5-.91 1.12-1.75 1.6-2.67 1.12-2.14 2.9-3.03 5.27-3.07 3.4-.06 6.48.78 9.07 3.04 1.64 1.43 1.65 1.88 1.03 3.94-1.09 3.66-2.9 6.86-5.56 9.63-1.43 1.49-2.66 3.19-3.82 4.9-2.27 3.34-.41 6.53 3.4 6.8 2.18.15 4.49-.12 6.59-.72 4.72-1.34 8.99-3.66 12.84-6.73 1.11-.88 2.26-1.72 3.39-2.57.2.14.41.27.61.41z"/><path d="m333.05 299.34c-.14.24-.32.49-.42.76-2.62 7.1-7.82 11.89-14.05 15.76-1.83 1.13-3.75 2.12-5.56 3.28-7.72 4.94-16.23 7.67-25.21 9.13-1.57.26-3.13.59-4.7.84-.82.13-1.66.13-2.66.19.24-1.44 1.25-1.52 1.97-1.82 2.79-1.16 5.62-2.25 8.43-3.37 10.78-4.28 20.79-10.05 30.69-16.02 4.83-2.91 8.61-6.81 10.74-12.15.29-.73.73-1.42 1.12-2.11.16-.27.43-.73.59-.71 1.85.29 2.35-1.59 3.62-2.18 1.42-.67 2.89-1.39 4.42-1.65 2.6-.44 4.73 1.22 5.17 3.83.56 3.37-.31 6.5-2.04 9.38-.61 1.02-1.65 1.43-2.85 1.47-1.74.06-3.33-.48-4.75-1.39-1.53-.98-2.96-2.13-4.51-3.26zm4.66-4.14c1.94 1.61 3.7 2.83 5.97 3.34-.39-3.47-2.22-4.56-5.97-3.34z"/><path d="m267.11 296.78c.18 1.03.3 1.46.33 1.9.12 1.81.59 2.53 2.35 2.68 1.63.14 3.29-.1 5.35-.18-.64-1.63-1.43-2.82-1.5-4.04-.06-1.17.63-2.39 1.07-3.87 1.97 1.74 2.2 3.72 2.07 5.8-.04.63-.24 1.25-.39 1.87-1.21 4.9-5.24 6.51-9.59 3.85-.13-.08-.28-.12-.6-.25-.31.58-.62 1.18-.94 1.78-2.26 4.33-7.11 6.82-12.09 4.11-2.22-1.21-4.48-1.13-6.64.03-1.53.83-3.02 1.8-4.33 2.94-1.74 1.52-3.4 3.16-4.88 4.92-7.14 8.45-16.33 13.32-26.98 15.71-2.02.45-4.06.82-6.1 1.18-.42.07-.88-.06-1.5-.55.75-.44 1.47-.96 2.26-1.29 3.67-1.54 7.37-3.02 11.05-4.55 8.15-3.38 15.35-8.06 21.01-14.97 1.86-2.28 3.97-4.37 6.1-6.41 1.2-1.15 2.59-2.13 4.02-2.97 2.06-1.22 4.22-1.33 6.33.01 1.86 1.18 3.87 1.41 5.97.84 2.01-.54 3.65-1.57 4.59-3.51.45-.93.92-1.86 1.44-2.75.37-.64.84-1.22 1.58-2.27z"/><path d="m272.48 186.31c-1.69-6.92-3.39-13.69-7.72-19.77-1.04 1.75-2.38 1.37-3.59.74-1.25-.64-2.49-1.41-3.53-2.34-1.01-.91-1.27-2.27-.76-3.54.54-1.32 1.28-2.56 2-3.8.53-.92 1.4-.9 2.32-.63 2.3.66 4.16 1.97 5.72 3.74 2.09 2.36 3.55 5.1 4.6 8.05.85 2.39 1.53 4.84 2.38 7.58.25-.59.48-.94.54-1.31.82-4.79 1.52-9.6 2.45-14.36.36-1.85 1.05-3.7 1.95-5.35 1.45-2.7 3.55-2.93 5.88-.93.12.1.24.21.35.33 3.51 3.92 3.28 3.36.87 8.03-.76-.59-1.47-1.17-2.2-1.72-2.56-1.92-4.06-1.55-4.94 1.47-.7 2.44-1.06 4.98-1.49 7.48-.77 4.47-1.48 8.95-2.22 13.42-.22 1.35-.86 2.37-2.62 2.91z"/><path d="m75.2 197.07c.65-4.09 1.23-8.19 1.97-12.26.41-2.27 1.09-4.49 1.65-6.72.08-.31.21-.6.34-.89 1.81-4.11 4.41-4.58 7.45-1.33 2.66 2.83 2.71 3.64.32 7.43-.87-.65-1.7-1.34-2.59-1.94-2.22-1.5-3.62-1.19-4.33 1.39-.88 3.21-1.33 6.54-1.92 9.83-.68 3.84-1.29 7.7-1.98 11.54-.23 1.32-.91 2.34-2.57 2.82-1.75-6.78-3.37-13.6-7.67-19.62-1.34 1.65-2.82 1.08-4.28.42-1.72-.77-3.29-1.77-3.75-3.74-.17-.72-.05-1.6.22-2.29.43-1.11 1.1-2.12 1.65-3.18.53-1.02 1.32-1.25 2.4-.94 2.13.61 3.91 1.75 5.43 3.34 2.82 2.97 4.44 6.59 5.7 10.41.62 1.88 1.09 3.81 1.62 5.72.11 0 .23.02.34.03z"/><path d="m198.72 167.51c-.9 1.5-1.95 1.5-3.05.99-1.08-.49-2.22-.94-3.16-1.64-1.99-1.5-2.28-3.21-1.13-5.46.33-.64.67-1.27 1.02-1.9 1.07-1.88 1.34-1.99 3.44-1.28 3.11 1.05 5.22 3.29 6.94 5.97 2.27 3.53 3.58 7.46 4.6 11.5.15.6.34 1.19.85 1.79.53-3.48.98-6.97 1.61-10.42.52-2.82 1.18-5.61 1.95-8.38.31-1.12.93-2.22 1.63-3.16 1.17-1.58 2.87-1.94 4.4-.72 1.41 1.12 2.54 2.61 3.71 4 .25.29.28.95.15 1.34-.41 1.18-.95 2.31-1.54 3.71-1.12-.85-1.96-1.55-2.87-2.15-2.11-1.41-3.51-1.1-4.21 1.31-.84 2.89-1.3 5.9-1.82 8.88-.72 4.08-1.3 8.19-2.02 12.27-.25 1.43-.84 2.75-2.69 3.17-1.72-6.81-3.37-13.64-7.8-19.82z"/><path d="m162.18 242.1c-1.7-7-3.42-13.78-7.55-19.61-2.03 1.31-4.56.83-6.69-1.13-1.73-1.59-1.98-3.16-.86-5.35.25-.5.53-.98.8-1.47 1.29-2.36 1.6-2.48 4.14-1.47s4.4 2.84 5.93 5.04c2.78 4 4.21 8.55 5.33 13.22.07.3.13.61.54.95.32-1.97.62-3.95.97-5.92.62-3.53 1.22-7.06 1.93-10.57.25-1.24.68-2.46 1.19-3.62 1.76-3.99 4.37-4.45 7.31-1.28.86.93 1.57 1.99 2.47 3.15-.61 1.43-1.21 2.85-1.93 4.54-.94-.75-1.59-1.3-2.28-1.81-2.65-1.98-4.19-1.59-5.02 1.66-.82 3.23-1.2 6.57-1.77 9.86-.64 3.68-1.28 7.37-1.94 11.05-.23 1.26-.96 2.16-2.55 2.78z"/><path d="m201.65 61.52c-1.2-.31-1.17-1.3-1.43-2.08-1.03-3-1.93-6.06-3.11-9-1.05-2.61-2.8-4.8-4.97-6.63-.81-.68-1.64-1.28-2.8-.69-.34.17-.78.15-1.17.19-3.05.33-4.31-.64-4.53-3.72-.17-2.3-.17-4.61-.21-6.92 0-.55.06-1.12.21-1.65.8-3.02 3.16-3.98 5.87-2.39.61.36 1.18.81 1.71 1.29 6.28 5.67 10.06 12.65 10.89 21.13.23 2.37.37 4.76.43 7.15.03 1.15-.03 2.36-.88 3.32z"/><path d="m207.2 58.72c-.29-1.14-.61-1.87-.66-2.62-.5-8.92-1.21-17.84-.54-26.78.23-3.03.8-6.01 2.15-8.78.94-1.91 2.19-3.51 4.33-4.21 1.94-.63 3.42-.2 4.57 1.48 1.13 1.65 1.51 3.53 1.27 5.48-.2 1.66-.52 3.31-.92 4.94-.53 2.17-1.47 2.57-3.47 1.65-1.96-.89-2.4-.79-3.37 1.09-1.48 2.86-1.67 5.97-1.49 9.1.29 4.95.38 9.89-.24 14.82-.16 1.23-.12 2.55-1.63 3.83z"/><path d="m40.64 398.4c.2-2.01.36-3.56.53-5.2 14.74-5.56 29.36-11.06 44.38-16.72-.19 1.78-.3 3.1-.49 4.41-.16 1.09-1.16 1.21-1.95 1.51-6.02 2.31-12.04 4.59-18.06 6.87-7.29 2.76-14.58 5.51-21.88 8.26-.66.25-1.33.46-2.53.87z"/><path d="m40.31 407.67c.22-2.03.38-3.51.56-5.16 14.64-5.52 29.27-11.04 43.99-16.59.74 1.73 0 3.18-.27 4.59-.09.5-1.18.93-1.88 1.2-8.17 3.15-16.34 6.26-24.52 9.37-4.98 1.89-9.97 3.77-14.96 5.63-.8.3-1.62.53-2.92.95z"/><path d="m217.65 213.08c1.38 2.58.62 4.91.51 7.35.51.06 1.04.13 1.56.18 4.46.46 7.13 2.97 7.16 7.43.02 2.74-.57 5.54-1.26 8.21-.6 2.32-2.31 3.97-4.49 5.03-3.84 1.86-7.89.2-9.3-3.82-.81-2.32-.96-4.75-.31-7.07.75-2.67 1.73-5.3 2.87-7.83 1.22-2.7 2.49-5.34 2.68-8.36.02-.26.26-.51.59-1.12zm-2.31 14.47c-.79 2.02-1.19 3.98.37 5.66 1.53 1.66 3.57 1.92 5.71 1.53.31-.06.62-.16.91-.29 3.14-1.37 3.44-3 .89-5.51-.28-.27-.63-.5-.98-.67-2.21-1.08-4.5-1.4-6.9-.73z"/><path d="m367.34 106.38c-.06-.22-.21-.45-.17-.65.89-4.52 2.39-8.8 5.62-12.21 1.12-1.18 2.59-2.13 4.06-2.84 1.89-.91 3.53-.34 4.85 1.32 1.23 1.55 1.75 3.38 1.93 5.32.38 4.15-.47 8.1-2.07 11.89-2.78 6.59-7.26 11.96-12.41 16.81-.27.26-.65.4-1.34.37.2-.52.3-1.1.62-1.54 1.44-2 2.97-3.95 4.43-5.95 2.75-3.77 5.09-7.75 5.7-12.48.18-1.39.08-2.88-.23-4.25-.47-2.05-1.98-2.77-4.04-2.17-2.29.67-3.73 2.37-4.97 4.26-.51.77-.97 1.56-1.46 2.34-.17-.08-.34-.16-.52-.24z"/><path d="m323.03 17.42c-.3 1.88-.55 3.41-.82 5.11-12.36 4.52-24.67 9.02-37.14 13.57-.42-1.77-.11-3.26.45-4.61.24-.57 1.19-.94 1.89-1.2 8.29-3.06 16.61-6.07 24.91-9.11 2.77-1.01 5.53-2.05 8.3-3.05.65-.23 1.32-.4 2.41-.72z"/><path d="m282.65 220.04c.59 1.7.48 2.93.16 4.13-.92 3.46-1.88 6.91-2.83 10.37-.77 2.77-1.48 5.56-1.23 8.47.1 1.09.27 2.24.72 3.23 1.15 2.56 4.01 2.99 5.8.81.82-1 1.22-2.37 1.72-3.61.33-.83.51-1.72 1-2.52 1.07 4.95.62 9.64-2.83 13.55-2.42 2.74-5.47 2.46-7.77-.4-1.43-1.79-2.22-3.84-2.46-6.12-.35-3.31.18-6.53 1.17-9.66.88-2.81 1.94-5.56 2.89-8.35.92-2.71 1.8-5.44 2.72-8.15.16-.46.46-.87.94-1.73z"/></svg>