<svg height="1080" viewBox="0 0 1080 1080" width="1080" xmlns="http://www.w3.org/2000/svg" xmlns:xlink="http://www.w3.org/1999/xlink"><clipPath id="a"><path d="m67 47h946.22v985.65h-946.22z"/></clipPath><g clip-path="url(#a)" fill="#3c2a21"><path d="m235.5 305.7q0 0 0 0 0 0 .1 0zm-21.4 0c-26.2-.9-52.4-2.3-78.5-2.8-14.1-.2-28.1 1.2-42.2 1.8-3.5.2-7.1.6-10.6.8-3.4.2-3.7-.2-2.6-3.4 2.7-7.7 5.9-15.2 8.1-23 2.2-7.9 6.7-13.6 13.1-18.7 25.1-19.8 50.3-39.5 77.2-56.9 24.6-16 49.8-30.8 77.3-41.3 8.9-3.3 17.9-6 27.5-5.8 7.3.2 13.2 2.8 17.3 9 5.2 7.7 10.2 15.7 15.6 23.3 10.8 15 24.7 26.6 40.2 36.5 24.6 15.8 51.3 26.4 80 31.6 20.1 3.6 40.4 4.5 60.2-1.7 9.1-2.8 17.8-6.9 27.3-10.7-8-2.8-15.3-5.1-22.4-7.8q-32.7-12.1-65.4-24.4c-1.7-.6-3.1-.9-4.3.9-3.1 4.5-6.8 5-12.3 3.9-18.2-3.7-36.8-4.7-55.4-5.1-2.6 0-5.2-.2-7.7-.2-2 0-2.8-.5-2-2.6 4.3-10.2 8.5-20.5 12.8-30.6.3-.8.9-1.6 1.6-1.9 13.8-5.8 27.9-10.2 43.1-9.5 10.7.5 20.8 3.8 30.8 7.5 27.7 10.2 55.3 20.7 83.1 30.6 23.6 8.4 47.8 14.6 72.6 18.6 16.4 2.7 32.9 2.7 49.4 2.5 4.6 0 4.7.1 3.2 4.5-3.6 9.6-7.1 19.3-10.6 29-.6 1.9-1.6 2.6-3.6 2.6-7-.1-14 .1-20.9 0-2.4 0-3.3.5-3 3.2 1.6 12.1 10.6 21.8 23.9 25.1 15.4 3.9 30.2.9 44.6-5 8.6-3.6 16.2-8.8 22.8-15.4 7.3-7.3 14.7-14.5 22.3-21.6 2.1-2.1 4.7-3.9 7.4-5.2 2.8-1.4 4.8.2 4.4 3.4-.3 2.8-1.1 5.4-1.6 8.1-2.5 12.5 2.3 22.3 11.6 30.3 1.6 1.3 3.3 2.4 5.2 3.8.6-1.1 1.1-2 1.5-2.9 13.3-27.3 29.7-52.4 50.9-74.2 11.5-11.9 24.4-22 38.8-30.2 13.4-7.7 27.2-8.6 41.7-3.4 16.7 5.9 31 15.3 41.7 29.5 15.4 20.4 16.8 42.6 7.5 65.8-8 19.9-22.3 33.7-41.4 43-16.9 8.3-34.8 13.2-53.2 16.6-16.6 3-33.2 5-50.2 4.1-10.4-.5-20.7-2.1-30.4-6.1-19.2-7.9-32-21.4-36.1-42.3-.4-2-1.1-3.9-1.8-6.5-3.9 4.3-7.3 8.2-10.9 11.9-7.7 8-14.8 16.6-24.5 22.5-15.3 9.3-31.8 13.8-49.8 12.2-19.1-1.7-32.6-15.5-34.8-35.2-1.1-10.2-.9-20.4 1.3-30.8-6.7.6-13 .9-19.3 1.7-15.8 1.9-31.6 4.3-46.7 9.4-11.8 4.1-23.4 8.7-34.8 13.7-16.7 7.3-34.1 9.6-52.1 8.4-29.7-1.8-57.4-10.4-83.8-23.9-18.4-9.4-35.4-20.9-49.5-36.3-5.1-5.5-9.4-11.8-13.8-17.9-4.2-5.9-8.1-11.9-12.1-17.9-4.2-6.3-10.4-8.3-17.6-8.1-9.1.4-17.5 3.3-25.9 6.6-26.5 10.5-51 24.8-74.5 40.8-12 8.2-23.7 16.6-35.6 24.9-.3.3-.6.6-1.5 1.4h2.8c21.7.7 43.5 1.4 65.2 2.2 17.3.6 34.6 1.5 51.9 1.9 31.8.7 63.6 1.2 95.4 1.8 2.1 0 2.9.5 2 2.8-3.8 10.2-7.5 20.6-11.3 30.8-.4 1.1-1.8 2.1-2.9 2.4-27.7 7.8-55.6 14.9-83 23.5-39.3 12.2-73.2 33.9-103.3 61.9-25.6 23.9-40.9 53.5-50 86.8-3.4 12.2-5.7 24.7-5.9 37.5-.4 31.1 11.8 56.8 34.1 78.2 14.8 14.2 32.8 21.9 52.4 26.8 18.1 4.6 36.7 6.9 55.4 7 20 .1 40-.3 59.9-1.3 14.6-.7 29.1-2.7 43.7-4.3 14.3-1.6 28.5-3.3 42.8-4.9 6.6-.8 13.2-1.7 19.9-2.4 1.4-.1 2.9.8 4.4 1.2-1 1.3-1.6 3.3-3 3.9-9.7 4.6-19.4 9.3-29.4 13.4-27 10.9-54.2 21.4-82.3 29.4-6.8 1.9-14.1 2.4-21.3 2.8-12.8.7-25.7 1.4-38.6 1.2-24.9-.3-49.4-3.6-72.9-12.4-35.8-13.4-58.1-39.5-69.8-75.3-7.1-21.9-9.7-44.4-7.6-67.3 4-42.4 16.4-82.1 40.7-117.4 15.8-22.9 35.9-41.7 57.8-58.7 15.3-11.8 31.9-21.5 49.6-29.4q1.2-.5 2.3-1.1-.1-.6-.2-1.2c-7.1 0-14.3.2-21.4 0zm551-11.3c1.4.4 2.3.9 3.4 1.1 8.6 1.6 17.3 3.9 26 4.5 23.8 1.5 47.1-1.1 69.9-8.1 22.2-6.8 43-16.2 60.7-31.7 2.3-2 2.5-3.7.9-6.2-12.9-20.7-30.8-34.8-54.4-41-4.8-1.2-10-1.4-14.9-1-11.2.9-21 6-30.4 11.9-27.5 17.1-45.5 42.5-61.2 70.5z" fill-rule="evenodd"/><path d="m716.3 769.8c4.7.6 8.5 1.2 12.4 1.7 16.1 2.3 32.3 4.6 48.4 6.9 15.7 2.2 31.3 4.6 47 6.5 18.1 2.1 36.1 4.3 54.3 5.4 18.5 1.1 37.2 1 55.7 1.3 6 .1 6 0 3.5 5.4-4.4 9.5-8.9 19-13.2 28.5-.9 2.1-2 2.9-4.4 2.9-13 0-26 .1-39 .4-25.7.8-49.9 7-73 18.7-18.9 9.6-38.3 18.5-57.8 27-18.4 8-37.5 13.7-57.3 16.3-16.7 2.2-33.3 1.9-49.1-4.7-20.7-8.8-33.3-24.6-39.3-46.1-3.8-13.5-5.2-27.4-5.9-41.4q-1.3-25.8-2.8-51.6c-.8-14.5-1.6-28.9-2.6-43.4-1-15.5-2.1-31-3.3-46.5-1.2-15.2-2.3-30.5-3.8-45.7-1.5-15.9-2.9-31.9-5.2-47.8-2.2-15.1-5.4-30-8.1-44.9-.2-1.2-.1-2.6.4-3.7q5.9-14.8 12.1-29.4c.4-.9 1.2-1.5 1.7-2.2.6.8 1.5 1.6 1.6 2.5 3 15.5 6.3 31 8.7 46.6 2.5 16.1 4.2 32.2 5.8 48.3 1.5 14.3 2.7 28.7 3.8 43 1.4 18.4 2.8 36.7 4 55.1.9 15.3 1.7 30.7 2.5 46.1 1.2 20.8 2 41.7 3.7 62.5.9 9.9 3.1 19.8 5.4 29.5 4.5 18.3 16.8 29 34.4 34.3 14.3 4.4 28.9 4.3 43.5 2.1 30.5-4.5 58.5-16.3 86-29.5 2.8-1.4 5.7-2.8 8.3-4.8q-10.5-1.6-21.1-3.2c-15.9-2.5-31.8-5-47.7-7.3-14.5-2.1-29.1-4.1-43.6-5.7-14-1.5-28-2.5-42-3.6-2.2-.2-3-1-2.1-3.2 4-10.3 7.7-20.8 12-30.9 1.2-2.6 4-5.2 6.6-6.4 8.8-4.1 17.8-7.7 26.8-11.4 17.6-7.2 35.5-13.8 52.8-21.5 19-8.4 34.9-20.9 46.7-38.3 2.5-3.6 4.5-7.6 6.6-11.5 3.5-6.7 7.7-12.9 14.3-16.9 2.4-1.5 5.3-2.5 8.2-2.9 4.1-.5 6.5 1.5 7.9 5.5 2.2 6.2 3.9 12.7 6.6 18.6 9.5 21 24.6 28.5 47.2 28.2 12.2-.2 23.4-3.7 34-9.7 2-1.2 3-2.4 2.8-5.1-1.6-21.9-2.8-43.8-4.4-65.7-1.8-23.9-3.8-47.7-5.7-71.6-1.5-19-2.8-38.1-4.3-57.1-1.7-20.9-3.4-41.8-5.2-62.7-1.1-14.4-2-28.7-3.8-43-.7-5.5-3.4-10.8-5.4-16.1-.7-1.8-.7-3.2.1-5 4.1-9.6 8-19.3 12-29 .4-.8 1.2-1.4 1.8-2.1.6.6 1.4 1.1 1.7 1.8 8.8 23.8 17.5 47.7 26.1 71.5 1.1 2.9 1.4 6 1.7 9 .1 1-.6 2.7-1.2 2.9-1 .3-2.6-.1-3.4-.8-3.2-3.2-6.1-6.7-9.1-10.1-.8-.9-1.6-1.8-2.9-3.4.3 4.1.5 7.5.7 10.9 2 23.6 3.9 47.1 5.7 70.7 1.7 21.5 3.3 43 5 64.5 1.4 18.8 3.4 37.7 4.4 56.5q1.6 31.2 1.8 62.4c.1 13.8-3 27.3-8.2 40.2-4.4 11-12.8 18.2-23.5 22.8-15 6.5-30.6 7.6-46.4 3.2-15.6-4.4-25-15.4-30.9-29.8-2.5-5.9-3.9-12.1-6.2-18.1-.8-2.3-2.4-5.6-4-5.8-2-.4-5 1.5-6.6 3.3-3 3.3-5.5 7-7.7 10.8-9.7 17-21.6 32.2-37.1 44.3-10.8 8.4-23 14.3-35.5 19.7-1 .5-2.1 1-3.9 1.8z"/><path d="m98.6 793.6c6 7.3-.6 30.1-10.3 36.8.2.3.4.7.7.8 22.8 12.3 45.8 24.3 70.9 31.4 30.3 8.5 61.2 12.1 92.7 10.2 38.5-2.3 76.1-8.6 112.6-20.8 27.2-9.1 53-21.1 75.7-38.8 6.5-5 12-11.3 18-16.9 1.8-1.7 1.7-3.6-.2-4.6-3.6-2.1-7.3-4.4-11.3-5.3-10.6-2.2-21.4-3.8-32.2-5.4-13-2.1-26-4.3-37.7-10.9s-17.7-16.7-18.8-30.1c-1.7-22.5 4.7-43.1 15-62.6 13.6-25.9 32.4-47.6 56.6-64.2 7.6-5.2 15.8-9.3 25.2-9.8 12.7-.6 23.1 10.8 21.3 23.4-1.1 7.2-2.3 14.4-3.5 21.5-.3 1.2-1.1 2.9-2 3.2-.9.4-2.5-.6-3.5-1.4-1.7-1.3-3.2-2.9-4.8-4.4-5.9-5.6-12.8-6.8-20.5-4.6-10.1 2.9-18.7 8.6-26.7 15.2-14.8 12.3-27.2 26.7-37.7 42.8-1.6 2.4-2.9 5-4.1 7.5-3.9 8.9-2.1 16.3 5.1 22.5 7.9 6.9 17.1 11.1 27 13.2 11.8 2.5 23.8 4.1 35.7 6.1 4.1.7 8.2 1.3 12.2 2.3 11.7 3 17.9 10.3 19.4 22.4 2.7 22.3-4.4 41.6-18.2 58.8-11 13.6-25.1 23.4-39.8 32.6-30 18.6-62.8 30.4-97.2 37.6-27.2 5.6-54.6 8.9-82.3 8.1-31.7-.9-62.4-6.7-91.9-18.6-13.9-5.6-25.6-14.3-35.9-24.9-11.2-11.6-22.3-23.4-32.5-35.9-7.6-9.3-10-20.6-7.8-32.7 2.4-13.4 8-25.7 12.3-38.4 1.4-4.4 2.7-8.8 4.1-13.2.3-.9 1.2-1.5 1.8-2.3.3.9 1.1 2 1 2.8-1.2 6.4-2.4 12.7-3.9 19-2 8.7-4.8 17.2-6.3 26-.7 4.5.1 9.4 1 14 .6 3.4 3.1 6.2 7 6.6s7.2-1.4 8.9-4.7c1.7-3.6 2.7-7.5 3.9-11.3.3-1 .6-1.9 1-3.1z"/><path d="m510.2 713.1c.9.9 1.4 1.3 1.7 1.7 10.1 13.2 20.3 26.4 30.3 39.7 1.6 2 3 4.2 4.1 6.4.5.9.6 2.6 0 3.2-.5.6-2.1.6-3.1.3-3-1-5.8-2.3-9.5-3.8.9 2.2 1.4 3.8 2 5.4 4.3 10.1 9.5 20 12.5 30.5 8.9 30.3 2.5 57.7-18.4 81.5-12.8 14.4-28.2 26-43.8 37.2-30.6 22.1-62.5 42-95.8 59.7-12 6.3-24.7 9.3-38 10.8-14.6 1.6-29.3 3.3-44 4.4-12.8 1-25.7 1-38.6 1.5-.3 0-.6 0-.9-.1q-1.9-1-3.9-2c1.1-.8 2-2.1 3.2-2.5 20.6-7.6 41.2-15 61.7-22.5 47.8-17.5 91.7-42.5 133.9-70.5 19.8-13.1 39.3-26.7 57-42.6 5.8-5.3 11.2-11.4 16.8-17 1.2-1.2 1.4-2.4.6-3.9-4.5-9.5-9.1-19-13.6-28.5-6.1-13.2-11.5-26.7-14.6-40.9-.9-4.2-3.7-6.9-6.5-9.6-1.2-1.1-1.6-2-1.2-3.8 2.4-10.5 4.5-21 6.7-31.6.2-.8.8-1.6 1.3-2.9z"/><path d="m992.6 566c.7 9.2 1.4 17.9 2 26.5q1.4 17.4 2.7 34.8c1.2 14.3 2.3 28.6 3.4 43 1.1 13.7 2.1 27.5 3.1 41.2 1.1 14.2 2.3 28.5 3.4 42.7.8 10.5 1.8 21 2.4 31.5.8 15.8 1.9 31.5 1.7 47.3s-4.3 31.1-9.4 46c-.4 1-1.7 1.7-2.5 2.5-.5-1-1.4-1.9-1.5-3-.6-9.9-1.1-19.8-1.8-29.8-.8-11.3-1.8-22.7-2.7-34.1q-1.3-16.1-2.6-32.1-1.6-20.2-3.3-40.3c-1.1-13.1-2.1-26.2-3.2-39.2-1.1-13.4-2.2-26.9-3.3-40.3q-1.3-16.2-2.6-32.4-1.7-20.6-3.3-41.2c-.9-11-1.9-22-2.5-33-.4-8.5-2.9-16.4-5.8-24.2-.4-1.1-.5-2.5-.1-3.6q6-14.9 12.3-29.8c.4-.8 1.2-1.3 1.8-2 .6.6 1.4 1.1 1.6 1.9 8.1 23.1 16.1 46.3 23.9 69.6 1.3 3.5 1.9 7.4 2.6 11.1.2 1.1-.6 2.3-1 3.5-1-.5-2.4-.7-3.1-1.5-4-4.8-7.9-9.7-12.2-15z"/><path d="m220.8 977.2c-5.2 9.3-10.1 18.2-15.1 27.1-1.8 3.2-2 3.2-5.2 1.4-9.6-5.5-19.2-11.1-28.9-16.5-1.6-.9-1.9-1.9-1.1-3.5q6.8-14.6 13.5-29.2c1-2.1 2.1-2.3 4.1-1.2 10.1 6 20.2 11.8 30.3 17.7.8.5 1.6 1 2.7 1.6 2.7-4.9 5.3-9.6 8-14.3 2.5-4.6 5.2-9.2 7.7-13.9 1-1.9 2.1-2.2 4-1.2 10.2 6.1 20.5 12.1 30.8 18 1.4.8 1.8 1.8 1 3.4q-7.1 14.6-14 29.3c-1 2.2-2.1 2.3-4.1 1.1-10.4-6.3-20.9-12.4-31.4-18.6-.7-.4-1.4-.7-2.3-1.2z"/><path d="m308.5 368.7c-5.2 9.3-10.3 18.3-15.2 27.4-1.3 2.4-2.5 2.7-4.8 1.3-9.7-5.7-19.4-11.2-29.2-16.7-1.7-.9-1.9-1.9-1.1-3.6 4.6-9.8 9.2-19.5 13.7-29.4 1-2.3 2.4-1.8 4-.8q13.8 8 27.5 16c1.8 1 3.5 2.1 5.4 3.2 5.2-9.2 10.2-18.2 15.2-27.3 1.9-3.3 2.1-3.4 5.4-1.5 9.9 5.7 19.7 11.5 29.5 17.2 1.7 1 2.1 2 1.2 3.9-4.7 9.7-9.3 19.5-13.9 29.2-1 2.2-2.2 2-3.9.9-9.9-5.9-19.8-11.7-29.7-17.6-1.2-.7-2.5-1.3-4.1-2.2z"/><path d="m496.6 955.3c-.4 1.2-.6 2-.9 2.7-1.8 4.9-3.4 9.9-5.4 14.7-.6 1.4-2 2.9-3.4 3.5-41.6 16-83.3 31.9-125 47.8-5.9 2.3-12.2 3.9-17 8.4-.3.3-1.3.3-1.5.1-.4-.3-.6-1.1-.4-1.6 2.3-6.4 4.5-12.9 7.2-19.2.7-1.6 3-2.9 4.8-3.6 12.9-5.2 25.7-10.3 38.6-15.2 32.9-12.6 65.8-25.2 98.7-37.7.8-.3 1.6-.8 2.4-.8.7 0 1.3.6 1.9.9z"/><path d="m195.6 813.9c-.2-1-.7-1.8-.5-2.4 2.3-6.3 4.4-12.8 7.1-19 .8-1.6 3.1-3 5-3.8q12.4-5.1 24.9-9.9c37.5-14.4 75.1-28.7 112.6-43 1.1-.4 2.2-.4 3.3-.6-.1 1.2 0 2.5-.4 3.6-1.6 4.6-3.4 9.2-4.9 13.9-.8 2.5-2.3 3.7-4.7 4.7-42.3 16.1-84.7 32.2-126.9 48.5-4.9 1.9-9.4 4.8-14 7.2-.4.2-.7.4-1.5.8z"/><path d="m427.2 427c-.3-.9-.9-1.7-.7-2.2 2.3-6.4 4.4-12.9 7.1-19.1.7-1.5 2.7-2.9 4.4-3.6 10-4.1 20-8.1 30.1-12 36-13.7 72-27.5 108-41.2 1.1-.4 2.3-.3 3.5-.5-.1 1.2-.1 2.4-.5 3.4-1.7 4.9-3.6 9.8-5.3 14.7-.6 1.8-1.6 2.8-3.4 3.5-43.7 16.7-87.4 33.4-131.1 50.2-3.7 1.5-7.1 3.9-10.7 5.9-.4.2-.6.4-1.4.9z"/><path d="m207.1 85.5c2.9 2.2 5.8 4.3 8.5 6.5.6.5 1.2 1.8.9 2.3-2.4 4.7-5 9.2-7.7 14.1-3.8-2.5-7.3-4.8-10.4-6.8-7.4 8.3-14.6 16.6-22 24.6-15.1 16.6-33.6 28.7-53.4 38.8-10 5.1-19.8 10.4-29.8 15.5-2.5 1.3-5.3 2-8 3.1q-.4-.6-.8-1.2c.8-1 1.4-2.3 2.4-3 8.6-5.8 17.3-11.6 26-17.3 19.7-12.9 39.1-26.1 56.6-42 7.8-7.1 15.4-14.6 23.4-22.2-1.4-1.1-2.1-1.6-2.8-2.1-2.9-2.1-6.1-4-8.8-6.3-9.4-8.1-10.6-17.9-3.4-28 4.3-6.1 10.1-10.5 17-13.2 10.4-3.9 17.4 1 18.1 12.2.4 7.7-1.5 14.8-4.4 21.8q-.7 1.6-1.4 3.2zm-7.4-3.5q.5-.4 1-.8c1.1-3.9 1.5-7.8.3-11.8-1.3-4.8-4.5-6.6-9.4-5.5-1.5.3-3 .9-4.3 1.6-3.1 1.6-3.6 2.9-1.1 5.3 4.3 4 9 7.5 13.5 11.2z" fill-rule="evenodd"/><path d="m876.4 532.5c2.9 2.2 5.8 4.3 8.5 6.5.6.5 1.1 1.8.9 2.3-2.3 4.4-4.8 8.8-7.3 13.1-.1.2-.5.3-1 .6-3.3-2.2-6.7-4.4-9.8-6.4-7.5 8.4-14.8 16.7-22.3 24.8-14.3 15.6-31.6 27.4-50.3 37.1-11.7 6-23.4 12-35.1 18-1.3.7-2.7 1.2-4.1 1.6-.5.1-1.6-.1-1.8-.5-.2-.5 0-1.5.4-1.9 1.1-1 2.4-2 3.7-2.8 17.7-12 35.7-23.7 53.3-36 15.1-10.5 28.9-22.7 42-35.6 2.5-2.4 4.6-5.1 6.9-7.7.3-.4.5-.9.8-1.4-3-2.1-6.1-4.1-8.9-6.3-11.7-8.8-13.1-20.2-3.7-31.5 4-4.9 9-8.5 14.9-10.8 10.7-4.3 18 .5 18.6 12.2.5 8.7-2.2 16.6-5.8 24.7zm-6.5-3.8c1.4-5.1 2-9.9-.5-14.4-.8-1.5-2.7-3.1-4.3-3.4-4.3-.8-8.1.6-11.4 3.9 3.4 6.9 9.9 10 16.2 13.9z" fill-rule="evenodd"/><path d="m392.8 122.2c-12.7-1.6-24.7-4.5-36.8-2.3-3.9.7-7.5 3.1-11.3 4.7-1.2.5-2.5.5-3.8.8.1-1.4-.3-3 .3-4.1 3.4-6.5 7.1-12.9 10.7-19.3 5.6-10 14.4-12.5 25.1-11 11.2 1.5 22.4 3.3 33.8 2.5 5.6-.4 7.7 2.5 5.6 7.8-3.5 8.8-7.1 17.6-11.4 26.1-4.5 9-12 14.4-22.1 16.4-8.9 1.6-17.6 3.8-26.4 5.8-.6.1-1.3.4-1.8.2-.8-.2-1.7-.6-2.5-1 .4-.8.6-1.8 1.2-2.4 1.1-.9 2.5-1.5 3.8-2.3 10.6-6.4 21.2-12.7 31.8-19.2 1-.6 2-1.5 3.7-2.7z"/><path d="m418.4 330.3c-8.7-5.6-17.6-7-27.3-4.4-1.4.4-2.7 1-4.2 1.4-1.9.4-2.9-.6-2-2.2 3.3-5.5 6.5-11.1 10.3-16.1 1.3-1.7 4.5-2.5 6.9-2.7 8.9-1.1 17 1.1 24 6.8 4.1 3.4 4 4.7 2.7 9.8-2.7 10.8-9.4 19-16.5 27-2.6 2.9-5 6.1-6.9 9.5-4 6.9-.9 13.5 6.8 15.3 6.4 1.4 12.6.4 18.6-1.5 13.1-4.2 24.8-10.9 35.2-19.8.9-.8 1.8-1.6 2.9-2.1.5-.3 1.3-.3 2-.4 0 .7.3 1.6 0 2.1-2 3.1-4 6.2-6.3 9-5.7 7.1-10.8 14.8-18.7 19.9-9.6 6-19.7 11.2-31.3 11.9-3.7.2-7.7-.1-11.3-1.1-10.1-2.7-14.7-11.9-11.8-22.9 2.5-9.5 8-17.2 14.1-24.6 4.1-5 8.3-9.7 12.7-14.9z"/><path d="m799.7 919.4c-6.7-4.5-13.7-6.5-21.4-5.6-3.2.4-6.4 1.6-9.7 2.3-.7.2-1.7.1-2.3-.3-.3-.2-.2-1.6.2-2.1 2.9-5 5.7-10.1 9.1-14.8 1.3-1.7 4-2.9 6.2-3.3 10-1.8 18.9.6 26.5 7.3 2.6 2.3 3.1 4.6 2.2 8.3-3 11.9-10.7 20.6-18.4 29.4-2.2 2.6-4.2 5.5-5.8 8.5-3.2 6.1-.7 11.9 5.8 14.1 6 2 11.9 1.2 17.7-.4 13.7-3.8 25.8-10.6 36.6-19.7 1.2-1.1 2.6-2 4-2.9.5-.3 1.2-.2 1.8-.3 0 .7.3 1.5.1 1.9-.9 1.7-1.8 3.3-3 4.8-4.9 6-9.2 12.7-14.8 18-12.6 11.8-27.5 19.2-45.4 18-12.1-.7-19.3-10.6-16.6-22.5 2.4-10.5 8.6-18.9 15.3-27 3.8-4.5 7.7-9 11.8-13.8z"/><path d="m267.8 733c-2.8 3.8-5.2 7.9-8.4 11.3-12 12.6-25.8 3.5-29.4-6.8-2.9-8.3-2.8-16.8-2.1-25.3.3-3.3.8-6.5-.6-9.8-1.6-3.6-.3-7.2 2-10.3 1.2-1.6 2.5-3.2 3.7-4.9 1.6-2.1 2.6-1.5 3.6.5 2 3.9 1.2 8 .7 12.1-.7 6.6-1.8 13.3-1.9 19.9-.1 5.4 2.3 10.2 7.5 12.8 3.6 1.9 7.4 1.8 11.1.3 8.6-3.3 12.7-10.1 11.2-19.3-1-6.1-2.6-12.2-4.3-18.2-.7-2.4-.9-4.5.3-6.8 1.1-2 1.9-4.3 3.1-7 3 3.6 3.9 7.3 4.6 10.9 1.3 7.3 2.3 14.7 3.6 22 1.3 6.4 4.1 11.8 11.1 13 3 .5 6.3.3 9.3-.4 3.4-.8 4.6-3.5 3.5-6.9-.9-2.8-2.4-5.4-3.5-8.1-1.9-4.6-4.2-9.1-5.7-13.8-2-6.1 1-11.6 3.3-17 .2-.5 1.1-1 1.6-1 .4.1 1 1 1.1 1.5.5 9 5 16.7 8.4 24.7 5.8 13.3.6 25.4-8.7 33.7-8.8 7.8-19.1 2.7-24.1-5.2-.4-.6-.7-1.3-1-1.9z"/><path d="m157 758.6c.7-4.8 1.2-9.6 2.1-14.4 2.1-10.9 4.1-21.8 6.6-32.6.8-3.3 2.8-6.5 5-9.2 2.2-3 6.1-3.8 8.9-1.4 3.9 3.2 7 7.3 10.4 11.1.3.4.1 1.5-.1 2.1-.9 2.4-2 4.7-2.9 7.1-.7 2.1-1.7 2-3.2.7-2.2-1.8-4.4-3.7-6.8-5-3.3-1.9-5.9-1.2-7.2 2.3-1.8 4.8-3.2 9.8-4.1 14.9-2.5 13.7-4.6 27.5-7.1 41.2-.3 1.8-2.3 3.5-3.9 4.8-1.2 1-1.9-.1-2.2-1.5-1.5-5.9-2.9-11.8-4.7-17.7-2.9-9.4-6.6-18.5-12.2-26.6-.5-.7-1-1.3-1.7-2.2-2 4.9-5.3 3.3-8.6 2.1-3.9-1.4-7.3-3.4-9.5-7.1-1.6-2.7-1.8-5.5-.3-8.4 1.4-2.6 2.8-5.2 4.2-7.8 1-1.8 2.5-2.5 4.7-1.9 8 1.9 13.7 6.9 18.3 13.5 6.7 9.8 10.3 20.9 12.9 32.3q.4 1.9.8 3.8.3 0 .6-.1z"/><path d="m526 134.7c0-2.9-.4-6.6 0-10.2 1-9.2 8.5-12.8 15.5-6.9 5.8 4.7 11 10.4 15.6 16.3 9.2 11.7 13.1 25.4 14.3 40 .5 6 .6 12 .5 18-.1 1.7-1.4 3.3-2.2 5-.9-1.5-2.2-2.8-2.8-4.4-2.9-8.1-5.3-16.5-8.6-24.4-2.6-6.2-7.1-11.3-12.5-15.5-1.6-1.2-3-1.6-5.1-1-2.5.6-5.2.9-7.8.7-4-.4-6.1-2.9-6.4-6.9-.2-3.3-.3-6.7-.6-10.7z"/><path d="m876.5 884.6c-.4 1.1-.6 1.7-.9 2.3-4.4 9.5-8.9 18.9-13.2 28.3-1.1 2.4-2.1 2.8-4.5 1.5-9.8-5.3-19.7-10.4-29.7-15.5-2.2-1.1-2.8-2.2-1.7-4.5 4.5-9.4 8.9-18.9 13.2-28.3.9-2.1 1.9-2.7 4-1.6 10.1 5.3 20.2 10.5 30.3 15.8.9.5 1.7 1.3 2.5 2z"/><path d="m717.7 648.8c-.5 1.1-.7 1.8-1 2.4-4.4 9.4-8.8 18.8-13.1 28.3-1.1 2.2-2.1 2.6-4.3 1.5-10.1-5.4-20.1-10.6-30.3-15.8-2.1-1.1-2.3-2.2-1.3-4.2q6.7-14.2 13.2-28.5c1-2 1.9-2.6 4.1-1.5 10 5.3 20.2 10.5 30.2 15.8 1 .5 1.7 1.4 2.5 2z"/><path d="m723.1 527.6c-.7 4.2-1.2 7.9-2.1 11.5-.2.8-1.7 1.4-2.8 1.7-23.6 8.6-47.2 17-70.8 25.6-4.2 1.6-8.3 3.6-12.1 5.9-3.8 2.2-3.9 4-.6 6.8 2.8 2.4 6 4.5 9.1 6.5 1.5 1 2.2 1.8 1.6 3.8-.6 2.4-.8 5-1.4 7.5-.1.6-1.6 1.5-2.1 1.3-9-2.9-17-14.2-16.9-23.2.2-6.5 3.5-11.2 8.9-14 6.9-3.5 14-6.6 21.3-9.3 21.1-7.8 42.4-15.3 63.6-23 1.1-.4 2.3-.6 4.3-1.1z"/><path d="m589.2 154.3c-.8 10.2-1.5 20.4-2.5 30.6-.1 1.4-1.6 2.8-2.4 4.1-.7-1.4-1.8-2.7-1.9-4.2-.7-6.1-1.2-12.3-1.3-18.5-.4-14.4-.8-28.8-.7-43.1.1-8.3 1.5-16.5 4.7-24.2 2.4-5.7 5.6-10.6 12.1-12.4 4.4-1.2 7.6-.1 10.3 3.6 3.4 4.7 3.5 10.2 2.8 15.6-.5 3.8-1.2 7.5-2.3 11.2-1.2 4.2-3.6 5-7.4 3-5.4-2.9-6.7-2.5-9.3 3.2-3 6.5-3.5 13.5-3.3 20.5.1 3.5.4 7 .6 10.6z"/><path d="m138.1 516.6c0-2.9-.3-6.6.1-10.2.9-9.2 8.4-12.8 15.5-7 5.8 4.8 11 10.5 15.6 16.4 9.1 11.6 13.1 25.4 14.3 40 .5 5.9.5 12 .4 18 0 1.6-1.4 3.3-2.1 5-.9-1.5-2.2-2.9-2.8-4.5-2.9-8.1-5.3-16.4-8.6-24.3-2.6-6.3-7.1-11.3-12.5-15.5-1.6-1.2-3-1.6-5.1-1-2.5.6-5.3.9-7.9.7-3.9-.4-6-3-6.3-6.9-.2-3.4-.4-6.7-.6-10.8z"/><path d="m201.4 536.2c-.8 10.2-1.5 20.4-2.5 30.6-.1 1.4-1.6 2.7-2.5 4.1-.6-1.4-1.7-2.8-1.9-4.2-.6-6.2-1.1-12.4-1.3-18.5-.3-14.4-.7-28.8-.6-43.1.1-8.3 1.5-16.5 4.7-24.2 2.4-5.7 5.6-10.6 12.1-12.4 4.4-1.2 7.6-.1 10.3 3.6 3.4 4.7 3.5 10.1 2.8 15.6-.5 3.8-1.3 7.5-2.3 11.2-1.2 4.1-3.6 5-7.5 3-5.3-2.9-6.6-2.5-9.2 3.2-3 6.5-3.5 13.4-3.3 20.5.1 3.5.4 7 .6 10.6z"/><path d="m483.6 678.9c1.1-.5 2.2-1 3.3-1.3 9.7-3 18.8-7.2 27.2-13.2 13.6-9.7 22.2-31.3 11.2-49.9-5.5-9.2-12.5-17.7-18.7-26.4-2.8-3.9-5.7-7.6-8.3-11.5-3.2-5-4.7-10.4-1.9-16.2 1-2 1.5-4.2 2.3-6.3.3-.8.7-1.5 1.2-2.5.6.7 1.1 1 1.1 1.2.2 5 2.6 9.1 5.3 13 6.6 9.6 13.4 19.1 19.8 28.9 5.1 7.7 8.8 16 10.4 25.2 2.1 12.1-.5 23.5-6.8 33.9-2.5 4.2-5.3 8.3-8.5 12-6.5 7.7-15.7 10.4-25.1 12.2-3 .6-6 1.2-9 1.8-1.1.2-2.1.2-3.2.3q-.2-.6-.3-1.2z"/><path d="m973.2 306.7c-.1-.7-.5-1.4-.3-2.1 2.5-11.8 6.4-23.1 15.5-31.7 1.9-1.8 4-3.2 6.3-4.4 6.2-3.2 11.5-1.5 14.9 4.6 3.4 6 4 12.5 3.4 19.2-1.6 17.5-9.5 32.3-20.5 45.5-4.6 5.5-9.7 10.6-14.6 15.9-.8.8-2 1.2-3 1.9q-.4-.4-.8-.8c.7-1.5 1.3-3 2.3-4.3 4.3-6 8.9-11.8 13.1-17.9 5.4-7.6 9.6-15.8 11-25.1.6-3.7.4-7.7-.3-11.4-1-5.3-5.1-7.3-10.3-5.6-6 2-9.6 6.6-12.7 11.8-1 1.6-2.1 3.1-3.1 4.7-.3-.1-.6-.2-.9-.3z"/><path d="m804.4 402.7c-.1-.6-.5-1.4-.4-2 2.6-11.9 6.5-23.1 15.6-31.8 1.8-1.7 4-3.2 6.2-4.3 6.2-3.2 11.6-1.5 15 4.6 3.3 5.9 4 12.5 3.4 19.2-1.7 17.5-9.6 32.2-20.6 45.5-4.6 5.5-9.6 10.6-14.6 15.8-.7.8-1.9 1.3-2.9 1.9q-.4-.4-.9-.7c.8-1.5 1.4-3.1 2.4-4.4 4.3-6 8.9-11.7 13.1-17.8 5.3-7.6 9.6-15.9 11-25.2.5-3.7.4-7.6-.3-11.3-1.1-5.4-5.1-7.3-10.3-5.6-6 2-9.6 6.6-12.7 11.8-1 1.6-2.1 3.1-3.2 4.6-.2 0-.5-.1-.8-.2z"/><path d="m736.4 564.7c-.1-.6-.5-1.4-.4-2 2.6-11.9 6.5-23.1 15.6-31.8 1.8-1.7 4-3.2 6.2-4.3 6.2-3.2 11.6-1.5 15 4.6 3.3 5.9 4 12.5 3.4 19.2-1.7 17.5-9.6 32.2-20.6 45.5-4.6 5.5-9.6 10.6-14.6 15.8-.7.8-1.9 1.3-2.9 1.9q-.4-.4-.9-.7c.8-1.5 1.4-3.1 2.4-4.4 4.3-6 8.9-11.7 13.1-17.8 5.3-7.6 9.6-15.9 11-25.2.5-3.7.4-7.6-.3-11.3-1.1-5.4-5.1-7.3-10.3-5.6-6 2-9.6 6.6-12.7 11.8-1 1.6-2.1 3.1-3.2 4.6-.2 0-.5-.1-.8-.2z"/><path d="m686.4 416.7c-.1-.6-.5-1.4-.4-2 2.6-11.9 6.5-23.1 15.6-31.8 1.8-1.7 4-3.2 6.2-4.3 6.2-3.2 11.6-1.5 15 4.6 3.3 5.9 4 12.5 3.4 19.2-1.7 17.5-9.6 32.2-20.6 45.5-4.6 5.5-9.6 10.6-14.6 15.8-.7.8-1.9 1.3-2.9 1.9q-.4-.4-.9-.7c.8-1.5 1.4-3.1 2.4-4.4 4.3-6 8.9-11.7 13.1-17.8 5.3-7.6 9.6-15.9 11-25.2.5-3.7.4-7.6-.3-11.3-1.1-5.4-5.1-7.3-10.3-5.6-6 2-9.6 6.6-12.7 11.8-1 1.6-2.1 3.1-3.2 4.6-.2 0-.5-.1-.8-.2z"/><path d="m481.4 473.7c-.1-.6-.5-1.4-.4-2 2.6-11.9 6.5-23.1 15.6-31.8 1.8-1.7 4-3.2 6.2-4.3 6.2-3.2 11.6-1.5 15 4.6 3.3 5.9 4 12.5 3.4 19.2-1.7 17.5-9.6 32.2-20.6 45.5-4.6 5.5-9.6 10.6-14.6 15.8-.7.8-1.9 1.3-2.9 1.9q-.4-.4-.9-.7c.8-1.5 1.4-3.1 2.4-4.4 4.3-6 8.9-11.7 13.1-17.8 5.3-7.6 9.6-15.9 11-25.2.5-3.7.4-7.6-.3-11.3-1.1-5.4-5.1-7.3-10.3-5.6-6 2-9.6 6.6-12.7 11.8-1 1.6-2.1 3.1-3.2 4.6-.2 0-.5-.1-.8-.2z"/><path d="m352.4 535.7c-.1-.6-.5-1.4-.4-2 2.6-11.9 6.5-23.1 15.6-31.8 1.8-1.7 4-3.2 6.2-4.3 6.2-3.2 11.6-1.5 15 4.6 3.3 5.9 4 12.5 3.4 19.2-1.7 17.5-9.6 32.2-20.6 45.5-4.6 5.5-9.6 10.6-14.6 15.8-.7.8-1.9 1.3-2.9 1.9q-.4-.4-.9-.7c.8-1.5 1.4-3.1 2.4-4.4 4.3-6 8.9-11.7 13.1-17.8 5.3-7.6 9.6-15.9 11-25.2.5-3.7.4-7.6-.3-11.3-1.1-5.4-5.1-7.3-10.3-5.6-6 2-9.6 6.6-12.7 11.8-1 1.6-2.1 3.1-3.2 4.6-.2 0-.5-.1-.8-.2z"/><path d="m256.4 466.7c-.1-.6-.5-1.4-.4-2 2.6-11.9 6.5-23.1 15.6-31.8 1.8-1.7 4-3.2 6.2-4.3 6.2-3.2 11.6-1.5 15 4.6 3.3 5.9 4 12.5 3.4 19.2-1.7 17.5-9.6 32.2-20.6 45.5-4.6 5.5-9.6 10.6-14.6 15.8-.7.8-1.9 1.3-2.9 1.9q-.4-.4-.9-.7c.8-1.5 1.4-3.1 2.4-4.4 4.3-6 8.9-11.7 13.1-17.8 5.3-7.6 9.6-15.9 11-25.2.5-3.7.4-7.6-.3-11.3-1.1-5.4-5.1-7.3-10.3-5.6-6 2-9.6 6.6-12.7 11.8-1 1.6-2.1 3.1-3.2 4.6-.2 0-.5-.1-.8-.2z"/><path d="m865.6 89.2c-.9 4.5-1.4 8.3-2.3 12-.2.7-1.6 1.1-2.5 1.4q-42.6 15.7-85.3 31.3c-2.9 1.1-3 .6-3-2.3 0-7.4 3.9-10.3 10.6-12.6 26.3-9.1 52.4-19 78.5-28.6 1-.3 2-.6 4-1.2z"/></g></svg>