<svg height="1080" viewBox="0 0 1080 1080" width="1080" xmlns="http://www.w3.org/2000/svg"><clipPath><path d="m67 47h946.22v985.65h-946.22z"/></clipPath><path d="m411.5 615.3c-.4-9.8-.9-19-1.3-28.2-.9-17.2-1.8-34.3-2.8-51.5-1.4-22.3-2.8-44.7-4.4-67-1.5-19.8-3.3-39.6-5-59.4-.5-5.6-1.1-11.2-1.9-16.7-.6-4.3-.4-8.2 1.5-12.3 3.5-7.3 6.4-14.9 9.6-22.3.7-1.7 1.6-3.4 2.4-5h1.4c.5 1.4 1.2 2.8 1.5 4.3 2.2 12.2 4.7 24.3 6.2 36.5 4.5 36.3 5.9 72.7 7.4 109.1 1.4 30.7 2.9 61.4 4.5 92 .3 5.8.8 11.5 1.3 17.5 3 .2 5.8.4 8.8.6-.4 5.5-5.7 5.3-8 8.5.4 7.8.9 15.9 1.5 23.9.9 11 2.1 21.9 5.4 32.5.8 2.4 1.5 4.8 2.4 7.1 7 17.2 17.9 28.4 42.6 29.7 10.2.5 20-1.2 29.6-4.4 9.9-3.3 18.6-8.4 25.8-16 5-5.4 10-10.7 15.2-15.9 3.2-3.1 6.5-6 10.1-8.7 2.2-1.6 4.8-3.4 8.6-1.9-.1 1.7-.1 3.6-.4 5.4-.6 2.8-1.5 5.5-2.2 8.3-3.6 14.5 3.2 24.8 13.8 30 15.9 7.7 31.7 7.4 46.6-2.8 7.2-4.9 12.5-11.4 17.5-18.4 4.4-6.1 8.4-12.5 13.1-18.3 2.3-2.9 5.7-5.1 8.8-7.3.9-.6 3.1-.3 4.1.4.7.5.7 2.5.4 3.7-1.1 3.9-2.7 7.6-3.6 11.5-.7 3-.9 6.2-.7 9.2 1.1 11.5 9.2 18.5 20.7 18 8.2-.3 15.5-3 21.9-8 5.8-4.4 10.4-9.8 14.4-15.8 3.1-4.6 5.9-9.5 8.9-14.2 1.4-2.3 2.9-4.6 4.6-6.7 1.3-1.6 3-3.4 5.3-2.3 2.4 1.1 1.1 3.3.8 5.1-.8 4.3-2.3 8.7.1 13 3.7 6.5 8.2 12.4 15 15.7 17 8.2 33.6 7.7 49.3-3.2 9-6.2 15.9-14.5 21.3-24.1 2.6-4.5 5-9.1 7.6-13.6 3.3-5.4 3.9-5.6 9.6-3.8 4.5-5.6 8.6-11.5 13.4-16.7 5.3-5.6 11-10.9 17.1-15.5 5.9-4.6 13-6.7 20.7-5.3 6.4 1.1 11.3 4.8 15.5 9.4 9 9.9 13.5 21.9 16.6 34.6 5 20.7-1.2 39.2-10.9 57.1-1.9 3.5-4.5 5.5-8.9 4.8-23.2-4.1-45.3-11.2-65-24.4-4.2-2.8-8-5.9-12.5-9.3-1.6 3.7-3.2 7.1-4.7 10.6-4.5 10.6-10.1 20.4-18.7 28.3-14.5 13.4-31.4 16.4-50 11.1-11.9-3.4-19.7-11.7-25-22.6-1.1-2.2-2.1-4.4-3.6-7.8-1.5 2.5-2.5 4.2-3.6 5.9-3.8 6-7.3 12.3-11.6 17.8-8.4 10.6-19.7 16-33 17-12.4.9-23.2-6.2-27.8-18.6-1.2-3.4-1.9-7-3.1-11.5-1.5 2.2-2.8 3.8-3.8 5.5-5 8.1-10.9 15.5-18.4 21.4-11.4 9-24.3 13.3-38.8 11.9-21.2-2-33.6-14.1-36.8-35.1-.5-3-1.1-5.9-1.7-9.1-3.9.6-5.6 3.1-7.4 5.2-4.1 4.7-7.8 9.6-11.9 14.2-19.3 21.7-43.7 26.8-71 21.5-10.2-1.9-18.5-7.6-25.2-15.6-1.1-1.4-2.4-2.7-4.6-3.7.8 5.7 1.3 11.4 2.4 16.9 1.6 7.7 3.3 15.5 5.7 23 4.2 13.5 13.8 21.9 26.5 27.3 6.9 2.9 13.5 6.4 20.3 9.8 1.5.7 3.1 1.5 3.1 3.7-.1 11.4 0 22.7 0 35.2-2.9-1.2-4.9-2-6.8-3-10.2-5.2-20.8-9.1-31.9-11.9-18.6-4.7-36.3-1.6-53.7 5.3-15.7 6.2-30.3 14.4-44.3 23.7-10.8 7.1-21.2 14.8-31.9 22.1-3 2.1-4.1 4.5-4.2 8.1-.2 5.6-1.2 11.1-2.1 16.7-.3 1.9-1.1 3.8-1.7 5.6-.5 0-.9-.1-1.4-.2v-22.2c-2.4 1.4-3.8 2.1-5.1 3-10.4 7.7-20.7 15.5-31.2 23-5.2 3.7-10.6 7.1-16.1 10.2-15.2 8.7-30.5 7.9-44.9-1.5-16.8-11-27-26.7-30.3-46.6-3.1-18.8.5-36.9 6.5-54.6 6.6-19.7 16.4-37.8 28.2-54.9 1.2-1.7 2.4-3.4 3.6-5.2-10.3-7-13.2-17-12.3-28.4.6-8.8 3.3-17 6.2-25.2 3.7-10.6 7.2-21.2 10.9-31.8.2-.4.7-.8 1.7-2.1.5 2.1 1.2 3.4 1 4.7-.7 4.2-1.4 8.3-2.5 12.5-2.2 8.3-4.7 16.7-6.8 25.1-1.3 5.4-2.1 11-.7 16.6.3 1.5.7 3 1.4 4.4 2.9 5.9 9.4 7 13.6 2 2.3-2.7 3.4-6.4 4.7-9.8.7-1.7 1-3.6 2.4-5.4.4 1.1 1 2.3 1.1 3.4.7 11.8-1.6 22.5-8.9 32.2-12.7 17-24 35-32.4 54.6-6.3 14.9-10.4 30.2-9.8 46.6 1 27.2 24 41 47.1 35.9 7.4-1.6 14.2-4.9 20.4-9.3 11.4-8.1 22.8-16.5 34.1-24.8 4.4-3.2 8.7-6.4 13.4-10-2.5-12.1-5.2-24.1-7.6-36.2-1.6-8.1-3.4-16.2-4.3-24.4-.5-4.9 0-10.1 1-14.9 2.1-10.3 8.8-16.4 19-18.8 2.1-.5 4.3-1 6.7-1.6-6.9-5.9-10.9-5.6-16.1 1.1-1.2 1.4-2.4 2.7-3.8 4.5-2.1-8.4 3.5-20 11.6-25.6-1.6-13.3-9.5-33-17-42.2-3.6 4.2-7.5 1.9-11.2.2-4.3-2-7.5-4.9-8.3-9.7-.2-1.2.2-2.7.7-3.9.6-1.6 1.5-3.1 2.3-4.6 3.9-7.2 4.8-7.5 12.1-4.1 5.1 2.3 8.9 6 12.2 10.5 6.5 8.8 10 19 12.8 29.5.5 1.8 1 3.6 2.3 5.4 1.2-8.1 2.2-16.3 3.7-24.3q2-10.5 4.8-20.8c.8-2.9 2.4-5.8 4.3-8.2 2.6-3.4 6.3-4.5 9.6-1.9 3.7 2.9 6.7 6.7 9.8 10.3.6.7.5 2.3.2 3.3-1 2.7-2.2 5.3-3.5 8.4-1.5-.9-2.6-1.5-3.6-2.3-1.5-1-2.7-2.2-4.2-3.1-4.5-2.7-7.4-2-9.1 2.8-1.8 4.9-2.9 10-3.7 15.1-2.1 13.2-3.9 26.3-5.9 40.2 6.2 2.8 11.6 7.8 16.5 13.6 3.8 4.5 5.9 9 3.4 14.7-.7 1.6-.9 3.3-1.4 5.4-2.7-.2-5.2-.4-7.6-.6-6.4-.7-12.8-.5-18.9 1.6-2.5.8-5 2.2-7.1 3.7-3.8 2.7-5.2 6.3-4.3 11.1 4 19.8 7.8 39.7 11.9 60.3 2.1-1.4 3.8-2.4 5.5-3.6 18.9-13.4 38.3-26 59-36.4 13.5-6.8 27.4-12.4 42.2-15.6.6-.2 1-.5 1.7-.9 0-.8 0-1.5-.2-2.2-6-16.5-8-33.8-9-51.1-1.9-34.2-3.4-68.3-5.1-102.4-.2-2.3-.4-4.6-.7-7.5-1.9.6-3.4 1.1-5 1.7-21.8 8-43.8 15.9-65.6 24.1-12.8 4.9-26.1 6.7-39.6 7.5-17.3 1.2-34.7 1.6-52.1.1-19.3-1.7-38.1-5.1-56.3-12.1-34.3-13.2-55.8-38.3-67.4-72.4-9-26.5-10.7-53.7-6.8-81.2 4.1-29.5 12.8-57.5 26.6-83.9 12.2-23.3 29.2-42.6 48.2-60.4 20.3-19 42.9-34.5 68.3-46.1 1.1-.6 2.2-1.3 4.3-2.5-26.7-1.1-52.2-2-77.7-3.4-25.5-1.3-50.8.7-77 2.4.6-2.4.8-4 1.4-5.5 3.4-9.5 6.7-19 10.3-28.3.7-2.1 2.1-4.2 3.7-5.6 38.2-31.4 77.6-61.1 121.2-85 14.3-7.8 29-15.3 44.7-20 6.2-1.9 12.8-3.1 19.3-3.7 8.4-.8 15.4 2.3 20.2 9.8 2.6 4.1 5.6 7.9 8.1 12 11.5 19.9 28 34.7 47.2 46.8 26.7 17 55.8 27.9 87.2 32.2 17.5 2.5 35 2.2 52.1-3 8.5-2.6 16.3-6.6 25.1-10.5-30.1-11.1-59.1-21.8-88-32.5-.7.5-1.3.6-1.6 1.1-3.5 5.3-8.1 5.2-14 4-18.8-3.6-37.9-4.4-57-5-2.1 0-4.2 0-6.8 0 .5-1.9.6-3.3 1-4.4 3.7-9.1 7.4-18.2 11.3-27.3.7-1.4 1.9-3 3.3-3.6 15.3-6.6 31.1-11.1 47.8-8.4 7.9 1.2 15.8 3.6 23.4 6.3 27.9 10.1 55.6 20.7 83.6 30.7 24.2 8.6 48.9 15.1 74.4 18.8 12.4 1.8 24.9 2.9 37.5 2.5 4.3-.1 8.7.1 14.2.2-4.4 12.3-8.5 23.6-12.7 35.2-9 .3-17.6.5-26.5.7-.1 7.9 2.9 13.7 7.8 18.7 6.9 7 15.6 10 25.1 10.4 20.9.9 39.6-5.4 55.2-19.6 8.9-8 17.2-16.6 25.9-24.8 2.5-2.4 5.1-4.9 9.7-3.9.2 1.2.8 2.7.7 4-.2 2.1-.8 4.2-1.2 6.3-3.1 14 3.3 27.4 16.6 34.4q1.6-3 3.1-6.1c13.8-27.4 30.8-52.6 52.9-74.1 8.9-8.6 18.8-15.9 29.1-22.8 16.7-11.1 33.9-12.3 52.2-4.4 15 6.6 27.9 15.7 37.4 29.2 10.8 15.5 14.6 32.5 10 51.1-5.6 23-18.3 40.4-39.1 52-17.6 9.8-36.5 15.5-56.1 19.2-16.5 3.2-33.1 5.5-50 4.8-9.7-.4-19.2-1.8-28.5-4.7-11.3-3.6-20.8-9.8-28.7-18.7-5.7-6.4-8.8-13.9-10.9-22.1-.7-2.7-1.5-5.4-2.8-9.8-1.8 2.5-2.7 4-3.8 5.2-6.4 6.8-12.5 13.8-19.2 20.2-16.6 15.9-36.8 22.9-59.6 21.6-20.4-1.1-33.5-14.4-36.3-34.8-1.3-10.1-.7-20 1-30.7-5.5.4-10.6.6-15.7 1.2-28 2.8-55 9.5-80.5 21.7-19 9.1-39 11.6-59.8 9.6-42.4-4.2-80.2-19.7-113.7-45.9-11.6-9.2-21.4-20-29.1-32.8-3.2-5.4-7.1-10.5-10.6-15.8-4.8-7.1-11.7-9.6-19.6-8.3-7.6 1.2-15.1 3.2-22.3 5.8-23.4 8.8-45.2 20.9-66 34.7-14.1 9.3-27.9 19.2-41.9 28.9-.9.6-1.7 1.4-3.3 2.7 72 2.8 143.1 6.6 215 6.4-.4 2.1-.5 3.4-.9 4.5-3.2 8.7-6.5 17.4-9.4 26.2-1.2 3.5-3.1 5.1-6.7 6-22.5 6-45.1 12-67.5 18.5-28.4 8.3-55.4 20.1-79.8 37.2-18.2 12.8-35.6 26.6-49.8 43.9-20.4 24.6-32.1 53.3-38.3 84.5-3.3 17-4.2 34.2.8 51 10.3 35.2 32.7 59.3 67.2 71.9 16 5.9 32.8 8.8 49.7 10.3 37.3 3.3 74.4 1.4 111.4-3.1 15-1.8 29.9-3.3 44.9-5 1.3-.1 2.6-.4 4.7-.7zm382.2-323.4c.6.6.8.9 1.1 1q1.6.7 3.3 1.2c10 3 20.4 4.2 30.8 4.5 26.3.6 51.8-3.8 76.4-13 16.6-6.2 32-14.4 45.5-25.9 4-3.5 4.1-4.1 1.6-8.2-12.5-19.7-29.9-32.9-52.4-39.4-6.6-1.9-13.2-2.1-20-.6-12.1 2.5-22.5 8.7-32.5 15.7-19.8 13.7-34 32.3-46.5 52.4-2.5 4-4.9 8.2-7.2 12.3zm120.3 389.5q0 0 0 0zm-12.6-27.3c-3.9-5.2-9.3-6.8-15.4-6.2-9 .9-16.3 5.3-23.2 11.7 15.5 10.4 32.3 16.7 51.2 21.8-3.5-10.6-6.7-19.5-12.6-27.3z" fill-rule="evenodd"/><path d="m304.3 343c12.2 7.1 23.5 13.7 35.5 20.7 5.5-9.9 11-19.7 16.9-30.1 12.4 5.8 23.3 13.2 35.3 20.2-5.4 11.4-10.6 22.2-16.2 33.9-12.3-7.2-24-14.1-36.1-21.2-5.8 10.1-11.2 19.7-17.1 30.1-11.4-6.5-22.5-12.9-34.2-19.6 5.2-11.2 10.3-22.1 15.9-34z"/><path d="m533 878.6c-2.3 6.2-4.4 12.6-7.1 18.7-.6 1.4-3 2.1-4.8 2.8-39.2 15-78.4 29.9-117.5 45-7.7 3-15.2 6.4-23.4 9.8 2.1-7.6 3.7-15.6 8.7-21.9 2-2.5 6.2-3.6 9.6-4.9 15.8-6.2 31.6-12.2 47.5-18.2q39.9-15.3 79.8-30.5c1.9-.7 3.9-1.3 5.9-2q.6.6 1.3 1.2z"/><path d="m609.3 346.9c-1.3 3.9-3.1 7.7-4 11.8-1.3 6.3-5.3 9.3-11.2 11.5-38.8 14.5-77.4 29.3-116 44.2-7 2.6-13.7 5.7-20.8 8.7 0-.7-.3-2 .1-3.1 1.4-4.4 3.3-8.6 4.6-13 1.2-4.1 3.7-6.7 7.5-8.2 8.5-3.2 16.8-6.6 25.3-9.8q53.9-20.7 107.9-41.2c1.7-.7 3.6-1.3 5.3-1.9q.7.5 1.3 1z"/><path d="m116.1 181.2q0 0 .1 0-.1 0-.1.1zm6.6-5.3c16.1-10.9 32.4-21.5 48.5-32.5 15.6-10.8 29.8-23.1 43.5-36.3 3.1-3 5.9-6.4 9.1-10-3.4-2.4-6.2-4.3-9-6.3-12.7-9.3-12.6-21.1-3-32.3 4.2-4.9 9.5-8.5 15.7-10.6 9.1-2.9 15.1.8 16.7 10.2 1.2 7.3-.4 14.2-2.8 21-.7 1.9-1.5 3.9-2.3 6 3.3 2.6 6.4 5.1 9.7 7.8-1.8 3.3-3.4 6.4-5.1 9.4-.9 1.6-1.9 3.2-3.3 5.5-3.6-2.2-6.9-4.3-11.3-7.1-.4.8-.6 1.9-1.3 2.6-8.6 9.6-17 19.4-25.9 28.7-9.1 9.5-19.8 17.3-31.3 23.7-15 8.3-30.2 16.1-45.4 24-2.4 1.3-4.9 3-9.1 1.5 2.6-2.1 4.5-3.9 6.6-5.3zm109.2-94.9c1.9-4.7 1.8-8.8.3-12.9-1.2-3.2-3.3-4.6-6.6-4.5-3.5.2-6.7 1.1-9.1 4.3 3.3 6.6 9.3 9.4 15.4 13.1z" fill-rule="evenodd"/><path d="m893.2 465.2c3.2 2.7 6.4 5.2 9.7 7.8-2.8 5-5.3 9.7-8.3 15.1-3.8-2.4-7.1-4.5-10.7-6.7-1.1 1.2-2.1 2.3-3.1 3.4-8.7 9.6-17.1 19.3-26.2 28.5-9.9 10.2-21.6 18.1-34 24.8-13.7 7.4-27.6 14.6-41.4 21.8-2.4 1.2-4.9 3-9 1.5 2.4-2 4.1-3.7 6.1-5 13.1-8.8 26.3-17.5 39.5-26.3 18.8-12.5 36.3-26.8 52.6-42.5 3.3-3.1 6.1-6.7 9.5-10.4-3.2-2.3-5.9-4.1-8.5-6-13.7-9.7-13-21.8-3.1-33 4-4.6 8.9-7.9 14.7-10 9.6-3.3 16 .6 17.3 10.6 1 7.1-.4 13.8-2.8 20.4-.8 1.9-1.5 3.9-2.3 6zm-22.6-17.2c3.3 6.6 9.4 9.6 15.6 13.2.5-2.1 1-3.6 1.1-5.1.2-4.2.3-8.9-3.8-11.3-4.2-2.6-8.5-.8-12.1 2.1-.2.1-.3.3-.8 1.1z" fill-rule="evenodd"/><path d="m421.3 120.9c-9.5-.6-19.1-1.4-28.6-2-5.4-.4-10.3 1.2-14.9 3.9-1.7 1.1-3.7 1.7-6.6 3.1.3-2.6.1-4.2.8-5.3 3.8-7 7.6-13.9 11.7-20.6 5-8.2 12.7-10.7 21.9-9.5 5.1.6 10.3 1.5 15.4 1.8 6.8.5 13.5.6 20.2.9 5.8.2 7.6 2.3 5.5 7.7-3.6 9.1-7.3 18.2-11.8 27-4.4 8.7-12.1 13.5-21.8 15.4-7.8 1.5-15.4 3.5-23.1 5.1-2.2.5-4.4.5-6.8.7-.4-3.7 2.3-4.3 4.1-5.3 8.6-5.2 17.2-10.2 25.9-15.3 2.9-1.8 5.6-3.8 8.5-5.7q-.2-.9-.4-1.9z"/><path d="m688 572.4c1.6-1.2 3.1-2.5 4.8-3.5 9.6-5.8 19.2-11.4 28.8-17.2 1.9-1.1 3.7-2.5 6.6-4.5-9.9-1.8-18.3-2.6-26.9-3.2-8.9-.8-16.3 3.2-24.8 7.1.3-2.5.1-3.9.7-4.9 3.9-7.1 7.8-14.2 12-21.1 4.9-8 12.4-10.5 21.4-9.4 12.1 1.4 24.1 3.3 36.3 2.8 5-.2 7.1 2.3 5.3 7-4 10.7-7.5 21.9-14.4 31.4-4.2 5.8-10 9.5-17.1 11.1-8.6 1.9-17.3 3.9-25.9 5.8-2 .4-4 .3-6 .5-.3-.6-.6-1.3-.8-1.9z"/><path d="m501.3 349.3c-.6 1.5-1.1 3.1-2 4.3-5.8 7.3-11 15.1-17.7 21.4-10.2 9.5-22.7 15.1-36.8 16.5-2.4.2-5 .1-7.5-.3-11.8-1.5-18.6-10.7-15.6-22.2 1.6-5.9 4.3-11.7 7.6-16.8 4-6.2 9.2-11.8 13.9-17.7 1.6-1.9 3.2-3.7 5.2-6-8.1-5.5-16.3-6.8-25.1-4.8-2.6.5-5.1 1.2-9 2.1 1.7-3.5 2.6-5.7 3.8-7.8 1.2-2.2 2.7-4.2 3.9-6.4 2.7-5.2 7-7.4 12.7-7.5 8.2-.1 15.7 1.9 21.9 7.4 4 3.4 4 4.5 2.5 9.5-2.6 8.9-7 16.6-13.4 23.3-3.5 3.6-6.5 7.7-9.3 11.8-5.5 8.1-1 15.8 8.3 16.5 5.2.3 10.8-.3 15.9-1.8 11.4-3.2 21.7-8.8 31-16.2 2.7-2.2 5.5-4.2 8.2-6.2.5.3 1 .6 1.5.9z"/><path d="m917.1 770.7c-.3.6-.7 1.2-1 1.9-6.3 17.1-18.9 28.7-34 38.1-4.4 2.7-9 5.1-13.4 7.9-18.7 12-39.2 18.6-60.9 22.1-3.8.6-7.6 1.4-11.4 2-2 .3-4 .3-6.4.5.5-3.5 3-3.7 4.7-4.4 6.8-2.8 13.6-5.5 20.4-8.2 26.1-10.3 50.3-24.3 74.2-38.7 11.7-7 20.8-16.5 26-29.4.7-1.7 1.7-3.4 2.7-5.1.4-.6 1-1.8 1.4-1.7 4.5.7 5.7-3.8 8.8-5.3 3.4-1.6 6.9-3.3 10.6-4 6.3-1 11.5 3 12.5 9.3 1.4 8.1-.7 15.7-4.9 22.7-1.5 2.4-4 3.4-6.9 3.5-4.2.2-8-1.1-11.5-3.3-3.7-2.4-7.1-5.2-10.9-7.9zm11.3-10c4.7 3.9 8.9 6.8 14.4 8.1-.9-8.4-5.3-11.1-14.4-8.1z" fill-rule="evenodd"/><path d="m757.7 764.5c.4 2.5.7 3.6.8 4.6.3 4.4 1.4 6.2 5.7 6.5 3.9.4 7.9-.2 12.9-.4-1.5-4-3.4-6.8-3.6-9.8-.1-2.8 1.5-5.8 2.6-9.3 4.7 4.2 5.3 9 5 14-.1 1.5-.6 3-1 4.5-2.9 11.9-12.6 15.7-23.1 9.3-.4-.2-.7-.3-1.5-.6q-1.1 2.1-2.3 4.3c-5.4 10.5-17.2 16.5-29.2 9.9-5.4-2.9-10.8-2.7-16 .1-3.7 2-7.4 4.4-10.5 7.1-4.2 3.7-8.2 7.7-11.8 11.9-17.3 20.5-39.5 32.2-65.2 38-4.9 1.1-9.9 2-14.8 2.9-1 .1-2.1-.2-3.6-1.4 1.8-1 3.5-2.3 5.4-3.1 8.9-3.7 17.9-7.3 26.8-11 19.7-8.2 37.1-19.5 50.8-36.2 4.5-5.5 9.6-10.5 14.7-15.5 2.9-2.8 6.3-5.1 9.7-7.2 5-2.9 10.2-3.2 15.3.1 4.5 2.8 9.4 3.4 14.5 2 4.8-1.3 8.8-3.8 11.1-8.5 1-2.2 2.2-4.5 3.4-6.6.9-1.6 2.1-3 3.9-5.5z"/><path d="m770.7 497.5c-4.1-16.8-8.2-33.1-18.7-47.8-2.5 4.2-5.7 3.3-8.7 1.7-3-1.5-6-3.4-8.5-5.6-2.4-2.2-3.1-5.5-1.8-8.6 1.3-3.2 3.1-6.2 4.8-9.2 1.3-2.2 3.4-2.1 5.6-1.5 5.6 1.6 10.1 4.8 13.8 9.1 5.1 5.7 8.6 12.3 11.2 19.4 2 5.8 3.7 11.7 5.7 18.4.6-1.5 1.2-2.3 1.3-3.2 2-11.6 3.7-23.2 6-34.7.8-4.5 2.5-9 4.7-13 3.5-6.5 8.6-7.1 14.2-2.2q.4.3.8.8c8.5 9.5 8 8.1 2.1 19.4-1.8-1.4-3.5-2.8-5.3-4.2-6.2-4.6-9.8-3.7-11.9 3.6-1.7 5.9-2.6 12-3.6 18.1-1.9 10.8-3.6 21.6-5.4 32.4-.5 3.3-2.1 5.8-6.3 7.1z"/><path d="m293.7 523.5c1.6-9.9 3-19.8 4.8-29.7 1-5.5 2.6-10.8 4-16.2.2-.8.5-1.5.8-2.2 4.4-9.9 10.7-11 18-3.2 6.4 6.9 6.6 8.8.8 18-2.1-1.6-4.1-3.3-6.3-4.7-5.4-3.6-8.7-2.9-10.5 3.4-2.1 7.7-3.2 15.8-4.6 23.7-1.6 9.3-3.1 18.6-4.8 27.9-.5 3.2-2.2 5.7-6.2 6.8-4.2-16.4-8.1-32.8-18.5-47.4-3.3 4-6.9 2.6-10.4 1-4.1-1.8-7.9-4.3-9.1-9-.4-1.8-.1-3.9.6-5.6 1-2.6 2.6-5.1 4-7.7 1.2-2.4 3.2-3 5.8-2.2 5.1 1.4 9.4 4.2 13.1 8.1 6.8 7.1 10.7 15.9 13.8 25.1 1.5 4.6 2.6 9.2 3.9 13.8.3 0 .6.1.8.1z"/><path d="m592.4 452c-2.2 3.6-4.8 3.6-7.4 2.4s-5.4-2.3-7.7-4c-4.8-3.6-5.5-7.7-2.7-13.2q1.2-2.3 2.5-4.6c2.6-4.5 3.2-4.8 8.3-3.1 7.5 2.6 12.6 8 16.8 14.5 5.5 8.5 8.6 18 11.1 27.8.4 1.4.8 2.9 2.1 4.3 1.2-8.4 2.3-16.8 3.8-25.2 1.3-6.8 2.9-13.5 4.8-20.2.7-2.8 2.2-5.4 3.9-7.7 2.8-3.8 6.9-4.7 10.6-1.7 3.4 2.7 6.2 6.3 9 9.6.6.7.7 2.3.4 3.3-1 2.8-2.3 5.6-3.8 9-2.7-2.1-4.7-3.8-6.9-5.2-5.1-3.5-8.5-2.7-10.2 3.1-2 7-3.1 14.3-4.4 21.5-1.7 9.9-3.1 19.8-4.9 29.7-.6 3.4-2 6.6-6.5 7.6-4.1-16.4-8.1-33-18.8-47.9z"/><path d="m504 632.3c-4.1-16.9-8.3-33.3-18.2-47.4-4.9 3.2-11.1 2-16.2-2.7-4.2-3.8-4.8-7.6-2.1-12.9.6-1.2 1.3-2.4 1.9-3.6 3.2-5.7 3.9-6 10-3.5 6.2 2.4 10.7 6.8 14.4 12.1 6.7 9.7 10.2 20.7 12.9 32 .1.7.3 1.5 1.3 2.3.8-4.8 1.5-9.5 2.3-14.3 1.5-8.5 3-17.1 4.7-25.6.6-3 1.6-5.9 2.9-8.7 4.2-9.7 10.5-10.8 17.6-3.1 2.1 2.2 3.8 4.8 6 7.6-1.5 3.5-2.9 6.9-4.7 11-2.2-1.8-3.8-3.2-5.5-4.4-6.4-4.8-10.1-3.8-12.1 4s-2.9 15.9-4.3 23.9c-1.5 8.9-3.1 17.8-4.7 26.7-.5 3-2.3 5.2-6.1 6.7z"/><path d="m599.4 195.7c-2.9-.7-2.8-3.1-3.4-5-2.5-7.2-4.7-14.6-7.5-21.7-2.6-6.4-6.8-11.6-12.1-16.1-1.9-1.6-3.9-3.1-6.7-1.6-.8.4-1.9.3-2.8.4-7.4.8-10.5-1.5-11-9-.4-5.5-.4-11.1-.5-16.7 0-1.3.1-2.7.5-4 1.9-7.3 7.6-9.6 14.2-5.8 1.5.9 2.8 2 4.1 3.1 15.2 13.8 24.3 30.6 26.4 51.1q.8 8.6 1 17.3c.1 2.8-.1 5.7-2.1 8z"/><path d="m612.9 189c-.7-2.8-1.5-4.5-1.6-6.4-1.2-21.5-3-43.1-1.3-64.7.5-7.3 1.9-14.5 5.2-21.2 2.2-4.7 5.3-8.5 10.4-10.2 4.7-1.5 8.3-.5 11.1 3.6 2.7 4 3.6 8.5 3 13.2-.4 4-1.2 8-2.2 12-1.3 5.2-3.5 6.2-8.4 3.9-4.7-2.1-5.8-1.9-8.1 2.7-3.6 6.9-4.1 14.4-3.6 22 .7 12 .9 23.9-.6 35.8-.4 3-.3 6.2-3.9 9.3z"/><path d="m210.2 1010.2c.4-4.8.8-8.6 1.2-12.5 35.7-13.5 71-26.8 107.3-40.5-.4 4.3-.7 7.5-1.1 10.7-.4 2.6-2.8 2.9-4.8 3.7-14.5 5.5-29.1 11.1-43.6 16.6q-26.5 10-52.9 19.9c-1.6.6-3.2 1.1-6.1 2.1z"/><path d="m209.4 1032.7c.5-5 .9-8.5 1.3-12.5 35.4-13.4 70.8-26.7 106.4-40.1 1.8 4.1 0 7.7-.7 11.1-.2 1.2-2.8 2.2-4.5 2.9-19.8 7.6-39.5 15.1-59.3 22.6q-18.1 6.9-36.2 13.6c-1.9.8-3.9 1.3-7 2.3z"/><path d="m638.1 562.2c3.4 6.2 1.5 11.9 1.3 17.8 1.2.1 2.5.3 3.7.4 10.8 1.1 17.3 7.2 17.3 18 .1 6.6-1.3 13.3-3 19.8-1.5 5.6-5.6 9.6-10.9 12.2-9.2 4.5-19 .4-22.4-9.3-2-5.6-2.4-11.5-.8-17.1 1.8-6.4 4.2-12.8 6.9-18.9 3-6.5 6.1-12.9 6.5-20.2.1-.6.7-1.2 1.4-2.7zm-5.6 35c-1.9 4.8-2.8 9.6.9 13.7 3.7 4 8.7 4.6 13.8 3.6q1.2-.2 2.2-.7c7.6-3.3 8.4-7.2 2.2-13.3-.7-.6-1.5-1.2-2.4-1.6-5.3-2.6-10.9-3.4-16.7-1.7z" fill-rule="evenodd"/><path d="m907.4 362c-.1-.5-.5-1.1-.4-1.6 2.2-10.9 5.8-21.2 13.6-29.5 2.7-2.8 6.3-5.1 9.8-6.9 4.6-2.2 8.6-.8 11.7 3.2 3 3.8 4.3 8.2 4.7 12.9.9 10-1.1 19.6-5 28.7-6.7 16-17.5 29-30 40.7-.6.6-1.6 1-3.2.9.4-1.3.7-2.7 1.5-3.7 3.4-4.9 7.1-9.6 10.7-14.4 6.6-9.1 12.3-18.8 13.8-30.2.4-3.4.1-7-.6-10.3-1.1-4.9-4.8-6.7-9.8-5.2-5.5 1.6-9 5.7-12 10.3-1.2 1.8-2.3 3.7-3.5 5.6q-.6-.3-1.3-.5z"/><path d="m892.9 89.1c-.7 4.6-1.3 8.3-2 12.4-29.9 10.9-59.6 21.8-89.8 32.8-1-4.3-.2-7.9 1.1-11.2.6-1.3 2.9-2.2 4.6-2.9 20-7.4 40.1-14.6 60.2-22 6.7-2.4 13.4-4.9 20.1-7.4 1.6-.5 3.2-.9 5.8-1.7z"/><path d="m795.3 579c1.4 4.1 1.1 7.1.4 10-2.3 8.4-4.6 16.7-6.9 25.1-1.8 6.7-3.6 13.4-2.9 20.4.2 2.7.6 5.5 1.7 7.9 2.8 6.1 9.7 7.2 14 1.9 2-2.4 3-5.7 4.2-8.7.8-2 1.2-4.2 2.4-6.1 2.6 12 1.5 23.3-6.9 32.8-5.8 6.6-13.2 5.9-18.7-1-3.5-4.3-5.4-9.3-6-14.8-.8-8 .5-15.8 2.8-23.4 2.2-6.8 4.7-13.4 7-20.2 2.3-6.5 4.4-13.1 6.6-19.7.4-1.1 1.1-2.1 2.3-4.1z"/></svg>