<svg height="1080" viewBox="0 0 1080 1080" width="1080" xmlns="http://www.w3.org/2000/svg"><clipPath><path d="m67 47h946.22v985.65h-946.22z"/></clipPath><path d="m651.8 112.2q-2.8 5.9-3.8 14.8-1.6 13.9-3.1 25.7-.4 3-1.4 6.3-.6 2-.9 4.4 0 .4-.3.7-.2.3-.2.6 0 .4.4.6c8.4 3.7 15.1 11.3 20.1 19.3q.2.3.1.7l-3 13q0 .1-.1.2-.1.2-.2.2-.2.1-.3.2-.2 0-.3 0-7.6-1.5-16.3-1.1-5.6.3-10.1 2.3-5.6 2.5-8.4 7.8-.2.3-.1.7.4 7.1 2.4 13.9c.3 1.3.3 2.6.3 4q.1 1.3.6 2.6c.5 1.2.3 2.4.8 3.6q.7 1.6.9 3.4c.3 3.1.8 5.3 1.4 8.1q.6 2.3.9 4.7.4 2.8 1.1 5.7.7 2.7 1.2 5.7.9 5.6 1.8 11.4 1.4 8.5 2.5 24.9 1.1 17.5-4 34.9 0 .2-.2.4-.1.1-.4.2-.2.1-.4.1-.3-.1-.5-.2-.5-.4-.5-1.2.6-33.7-6.9-66.6c-1-4.1-1.5-8.3-2.6-12.4q-.1-.5-.2-1.1 0-.5-.1-.9-1.9-8.6-4.1-16.9-.4-1.8-.7-3.7-.2-1.9-.6-3.6-1.9-10.2-.6-19.2 2.3-15 15-20 2.2-.9 5-1.5 2.4-.5 4.9-1 .6-.1.1-.6c-.9-.6-2-1-3-1.5q-5.5-2.6-9.5 2.1-2.2 2.6-4.4 5.3-.6.7-1.5.8-.2 0-.4-.1-.2 0-.4-.2-.1-.2-.2-.4-.1-.2 0-.4.8-5.6 2.5-11.6c1.4-5 4.1-9.9 9.1-12.3q0 0 .1-.1.1 0 .1-.1.1-.1.1-.2 0-.1 0-.2-2.1-8.4-4.1-15-3.9-12.6-11.5-23.8-.1-.2-.3-.3-.2-.1-.5-.1-.2 0-.4.1-.2.2-.3.4-.6 1.2-1.7 2.2-.1.1-.2.1-.1.1-.2.1-.1.1-.2.1-.1 0-.2 0-8.3-1.3-12.8-6.3-4.2-4.6-1.3-9.9 2.6-4.9 5-9.4 1.3-2.4 3.7-1.8c14.6 3 22.9 18.9 27.1 31.8.9 2.9 2 5.7 2.6 8.8q.3 1.9.9 3.6.3.6.4 0 .6-2.6.8-5 .3-2.5.7-5c.5-3 .9-6 1.6-9 .3-1 .1-2.1.3-3.1q1.2-6 2.5-12c.3-1.5 1-4.4 1.9-5.6.4-.7.1-1.4.4-2.2 1.4-3.7 2.7-7 5.8-9.5q2.1-1.6 4-1.6 2.3 0 4.4 1.3 2.4 1.4 4.4 3.5 2.4 2.7 4.7 6.1c.9 1.3.9 2.4-.1 3.6q0 .1-.1.1 0 .1 0 .2-.1 0-.1.1 0 .1 0 .1-.1.8-.2 1.5 0 .2-.1.1 0-.1-.1-.1 0 .1-.1.1-1.7 3.5-2.7 6.6-.1.3-.3.6-.3.2-.6.3-.3.1-.7 0-.3-.1-.5-.3-2-2-4.6-3.6-.1 0-.2-.1-.1 0-.1-.1-.1-.1-.1-.1-.1-.1-.1-.2-.1-.2-.2-.4-.2-.2-.4-.3-1-.5-2.1-.9c-1.5-.8-2.9-.6-4.3.4q-1 .7-1.5 1.7z"/><path d="m503.2 139.1q0 .2-.3.3-7 2.9-13.7 5.1c-2.2.7-4.2 1.9-6.5 2.4-1.4.4-2.6 1.1-4 1.5q-3.4 1.1-6.4 2.4c-.8.4-1.5.3-2.4.6-2.1 1-4.1 1.9-6.3 2.5q-1.3.3-2.5.9-.3.2-.8.2-1.7-.1-3.4 1.1-1.7 1.1-4.8 1.9-1.5.4-2.9 1c-2 1-4.2 1.4-6.2 2.3q-1.7.8-3.3.9-.3 0-.5 0-.2-.1-.3-.3-.2-.1-.2-.4-.1-.2-.1-.4l1.8-11.4q0-.2.1-.4.1-.3.3-.5.2-.1.4-.3.2-.1.4-.2 11.3-4.1 23.1-8.5c.5-.1 1 .1 1.5-.1q2.8-1.5 6.7-2.9 26.4-9.4 52.9-19.4.1 0 .2 0 .1 0 .2 0 .1 0 .2 0 .1 0 .2.1.9.5.7 1.5-1.1 5.8-2 11.2 0 .3-.1.5-.1.2-.3.4-.2.2-.4.3-.2.2-.4.3-3 1-5.8 2.1-1.1.4-2.2.5-.9.1-1.7.6-.6.6-1.4.9-4.2 1.8-9 3.1-.2.1-.5 0-.2 0-.3.2z"/><path d="m730.4 132.7q2.3-5.8 3.4-12.1.1-.1.1-.2.1-.2.2-.3.1-.1.2-.1.1-.1.2-.1.5-.2 1 0 .2 0 .3.1.1 0 .1.1.1.1.2.2 0 .1 0 .2c.9 3.8 0 8.8-1.1 12.5q-3.3 11.6-6.6 23.6c-2 7.2-4.5 21 2.1 26.6 3.7 3.1 8.7 1.3 11.2-2.3q3.2-4.8 4.5-13.1.1-.2.2-.4.1-.2.2-.3.2-.1.3-.2.2 0 .4 0 .7 0 .8.7c2 11 1.3 22.6-5.6 31.2-4.2 5.3-11.5 8.1-17.2 3.1-10.5-9.3-9.9-25.2-6.2-37.5q3.9-13.1 11.3-31.7z"/><path d="m858.8 172.9q-.2 2.6-1.8 5-.8 1.3-.9 2.9-.1.4.3.7l7.7 5.7q.9.6.4 1.5l-8.1 14.5q-.7 1.3-1.9.5l-7.9-5.3q-.1 0-.2-.1-.2 0-.3 0-.1.1-.3.1-.1.1-.2.2c-7.4 9.7-15.6 18.7-24.3 27.2q-13 13-30.8 22.8-18.1 10.1-35 18.8-7.7 4-15.2 7-1 .4-2 .4-.3 0-.6-.1-.3-.2-.4-.5-.2-.3-.1-.6 0-.4.2-.6 1.2-1.5 2.6-2.4 20.9-13.7 41.8-28.2 26.1-18 51.1-42.1 3.3-3.2 5.9-6.7.1-.1.1-.1 0-.1 0-.2 0-.1-.1-.2 0 0-.1-.1c-10.2-6.4-20.8-14-16-28.2q1.2-3.4 1.9-4.5 7.2-10.9 19.1-15c5.1-1.9 11.2-1.7 14.5 3q1.4 2 2.2 5 1.7 6.8 0 14.4-.6 2.6-1.3 5.1-.1.1-.2.2 0 0-.1-.1 0-.1 0 0zm-11.8-8.3q-.8-2-2.7-2.6c-1-.4-2 0-3.1-.1-2.1-.1-4.4 1.2-5.9 2.4q-1.3 1-.3 2.2c3.3 4.2 7.7 6.5 12.2 9.5q.7.4.9-.4c.8-3.5.4-7.6-1.1-11z" fill-rule="evenodd"/><path d="m327.1 176q0 .5-.3 1.1-.9 1.9-1.8 3.9-.2.5.3.9l7.5 5.5q.3.2.4.4.2.2.2.5.1.3 0 .5 0 .3-.1.5l-7.9 14.5q-.1.2-.4.2-.2-.1-.1-.2 0 0 0-.1 0 0 0 0-.8.7-1.7.2-3.8-2.4-7.4-5-.2-.1-.3-.2-.2 0-.4 0-.1 0-.3.1-.1.1-.2.2-12.1 15.7-26.9 29.7-11.1 10.6-26.1 19.1-22.9 13-45.3 24-3.7 1.9-8.3 3.4-1.1.4-1.7-.5-.1-.2-.2-.4-.1-.1 0-.3 0-.2 0-.4.1-.2.3-.3 1.3-1.4 3-2.5 34.5-22.7 50.8-34.7 20.4-15 41.4-35.1 3.5-3.4 6.1-7 .1-.1.1-.1 0-.1 0-.2 0-.1-.1-.2 0-.1-.1-.1-3.7-2.5-7.6-5.1-1.4-1.1-2.7-2.3-.8-.9-1.6-1.7-.9-.9-1.6-1.9c-5.1-6.8-4.4-13.7-.8-21.2q.9-1.9 2.3-3.6c5.3-6.3 13.4-12 21.6-12.9q4.6-.5 8.1 2 2.7 2 3.9 6.6 1.1 4.2.9 8.5-.3 7.6-2.9 13.5-.1.3-.1.7zm-15.4-2.4c1.7.9 3.1 2.2 4.9 2.8q.5.2.5-.3 1.2-5.8-.7-10.1-1.4-3.2-3.7-3.5-2.2-.3-4.7.3-2.4.7-4.2 2.3-.2.1-.3.3 0 .2-.1.4 0 .2.1.3 0 .2.1.4 3.2 4.3 8.1 7.1z" fill-rule="evenodd"/><path d="m472.4 165.6q.1-.3 1.1-2 .6-1.1 1.7-.7 3.7 1.2 6.7 3.1.7.4 1.4.6.1 0 .2 0 .1.1.2.1 0 .1.1.1.1 0 .2.1 1.3 1.1 2.9 1.5.2.1.3.1.2.1.3.1.2.1.4.2.1 0 .3.1l18.7 10.3q.3.1.4.3.2.2.3.5.1.3.1.5-.1.3-.2.6l-15 32.2q-.7 1.6-2.4.7-14.7-8.1-30.7-15.9-1.6-.8-.9-2.4 6.7-14.4 13.2-28.1.4-.9.7-2z"/><path d="m409 215.4c.9-2.4 1.3-5.2 2-7.8q.1-.1.1-.2.1-.1.2-.2.1-.1.2-.2.1-.1.2-.1.7-.3 1.2.2.5.4.5 1 .5 5.6-1 11-2.9 10.6-6.2 21.8c-2.3 7.9-5.5 23 1.1 29.1 4.5 4.1 10.3.7 12.6-3.9q2.5-5 3.5-11.3.1-.5.5-.8.3-.2.7-.1.1 0 .2.1.1 0 .2.1.1.1.1.2.1.1.1.2c2.2 11.7 1.3 24-6.6 32.5-5.1 5.5-12.6 6.3-17.8.3-8.2-9.3-8.2-22-5.2-33.7 3.4-12.9 8.9-25.5 13.4-38.2z"/><path d="m394.5 495.4q-2.6 1.7-6 2.3-.9.2-1.5.8-.9.8-2 1-1 .2-1.9.6c-1.3.7-2.9 1.8-4.4 2-1 .1-1.9.5-2.6 1.1q-.5.5-1.2.6-3 .6-5.8 2.1-1.2.7-3.2 1.1-1.4.3-2.6 1-1.9 1.1-3.9 1.4-1.8.2-3.3 1-2.1 1-4.2 1.4-2.4.4-4.8 1.3-2.1.9-4.2 1.1-2.2.2-4.3 1.1c-1.9.8-3.7.4-5.6.9q-7.7 2.3-10 2.5-5.2.4-10.1.9c-13 1.2-27 .6-39.2-3-25.6-7.6-44.1-27.1-54.1-51.7q-8.8-21.7-9.1-46.7c-.2-17.4 2.1-35.4 8.2-52.1q4.3-11.9 9.1-22.7 1.6-3.7 3.7-7.2.9-1.6 2-2.8.3-.3.7-.4.4-.1.8-.1.4.1.7.4.3.2.4.6.5 1 .3 2.4c-.6 3.3-1.1 6.7-2.1 9.9q-6 18.2-9.2 40-4.1 28.1 6.2 53.2 13 31.8 46.1 40.1 8.6 2.1 20.6 2.5 16.5.4 33.5-3 20.1-4.1 39.5-11.2c26.7-9.9 51.4-23.9 77-41.7q20.1-14 33.2-28.2c1-1.1.6-1.7.5-2.9q-3.2-26.5-11.8-51.3-6.2-17.6-15-34-.2-.4-.1-.8 3.2-18 6.5-36.9.1-.8.9-1.1.2-.1.4-.1.2 0 .4 0 .1.1.3.2.2.1.3.2 4.4 6.3 9.8 12.9 6.2 7.4 13.6 11.5 6.3 3.5 15.5 2.2c9.6-1.4 18.9-7.3 23.4-16.2q3.5-6.9 5.8-14.8c.7-2.4 1.7-4.7 2.4-7.1q.7-2.6 1.8-4.8.7-1.5 1.4-3.1.8-1.8 2.6-3.6 1-1.1 2.5-1.2 2.9-.2 4.5.8 3.1 1.9 5.1 6 .7 1.5 1.4 2.9.8 1.7 1.3 3.5 1.7 5.4 2.7 10.2 2.5 12.4 3.9 27.7.9 8.5 3 17.3 2.7 11.3 8.5 22c8.4 15.4 30.5 21.8 46.8 22.5q7.5.4 16.1 0 28.1-1.2 55.4-7c42.8-9.2 82.7-25.4 123.5-41.9q13.2-5.3 26.7-9.9 7-2.4 13.1-3.5c8.7-1.6 20.7-.1 26.6 6.9 3.2 3.7 4.2 10 3.9 15.1-.6 12.8-9.5 25.7-17.8 35q-14.2 16-26.4 29.9-11.6 13.2-19.4 28.1-2.2 4.2-5 7.9-.1.1-.3.3-.2.1-.4.2-.2 0-.4.1-.3 0-.5-.1c-2.7-.7-1.3-5.9-.8-7.7q4.2-13.5 12.9-27.5 8.3-13.6 18.3-23.8 10.8-11.3 14.6-15.4 3-3.3 4.5-6.9c3.5-8.6-13-5.5-16.2-4.8q-3.4.8-15.6 4.8-9.8 3.2-32.7 12.5-22.1 8.9-38.9 15.3-14.4 5.4-30.5 10.7-.7.2-1.3.2-.5 0-.9.3-.3.3-.8.4c-1.8.5-3.5 1.2-5.3 1.8q-8.6 2.4-17.1 4.7-6.2 1.6-13 3.2-20.3 4.7-40.7 7-17.7 2-34.1 1.8c-12.3-.2-23.3-2.5-34.4-7.7q-13.3-6.1-19.2-18.1-4.2-8.3-7.1-16.9-2-6.1-3.5-12.3-1.1-4.4-2.2-8.4c-.4-1.5-.3-3.1-.7-4.5q-1.7-5.6-2-7.9-.5-4.7-1.8-9.3c-.3-1.1-.2-2.1-.5-3.2q-1.5-5.2-3-10c-.5-1.5-1.4-2.9-2-4.3q-1.3-2.8-4.3-1.3-.8.4-1.9 2.6-2.9 5.7-5.7 11.7-3.5 7.2-10 14.8-10.8 12.7-27.9 12.9-.5 0-.4.6 1.1 4.1 2.1 8.4.2 1 .3 2.1.1.9.3 1.9.9 4 1.5 8.7.8 5.7 1.2 11.3 1.6 20.6-2.2 38.9c-3.9 19.1-15.6 33.5-30.8 45.1q-22.7 17.5-46.1 30.9-.3.2-.6.2-.2 0-.4.1-.2 0-.3.1-1.7 1.4-3.6 2.2-1 .4-1.7 1-.9.7-1.9.9-.7.2-1.3.5-.7.5-1.5.7-.3.1-.3.5 0 .2-.3.3-3.1 1.5-6.4 3-2 1-4 2.3z"/><path d="m327.9 319q-1.8-1.1-3.7-2.1-10.9-5.4-22.9-11.5-.2-.1-.4-.3-.2-.2-.3-.5-.1-.3-.1-.6 0-.2.2-.5l15.2-32.6q.1-.2.3-.4.2-.2.5-.3.3-.1.5 0 .3 0 .5.1 5.9 3.1 11.9 6.1 9.8 4.8 19.4 10.2 1.4.8.7 2.3l-12.9 27.8q-.2.3-.5.6-.3.3-.3.7 0 .3-.1.6-.6 1.5-1.4 2.6-.2.2-.4.3-.2.2-.5.3-.3 0-.6 0-.2-.1-.5-.2-3.5-1.9-4.6-2.6z"/><path d="m333.7 406.1q1.1-8 2.9-19.2 2.3-13.8 3.5-17.3.5-1.3.8-2.5.4-1.9.7-2.6 1.3-3 2.5-5.6 1-2.3 3.4-4.5 1.8-1.6 4.2-1.4 4.2.2 7.5 3.5 3.1 3.1 6.1 7.5 1 1.3.2 2.8-1.3 2.5-2.4 4.9-.3.6-.4 1.4c-.1 1.1-1 2.1-1.5 3.1q-.1.3-.4.5-.3.2-.6.2-.3.1-.6-.1-.3-.1-.5-.4-.7-.9-1.6-1.5-.9-.6-1.7-1.3c-1.6-1.5-5.6-4.2-7.9-2.5-3.6 2.7-4.7 9.6-5.3 13.8q-1.2 9-2.3 18.4-.9 8.4-2.5 16.2-.5 2.4-1.3 4.5c-.5 1.3-.1 2.5-1.4 3.5q-2.3 1.8-4.5 3.6-.3.2-.6.3-.3 0-.6-.1-.3-.1-.5-.3-.3-.3-.3-.6-2.5-13.4-7.1-25.7-3.9-10.5-9.7-18.5-.1-.2-.2-.2-.1-.1-.2-.1-.2 0-.3.1-.1 0-.2.1c-1.2 1.4-1.4 3.3-3.8 2.8-7.3-1.5-18.1-7.3-12.9-16.6q2.6-4.7 4.9-9.1 1.2-2.1 3.4-1.6 6.4 1.4 11 5.2 6.6 5.5 11.2 14.6 4.2 8.3 6.9 17.5c.1.6.2 1.5.4 2.2q.7 2.5 1.4 5 .2.8.3 0z"/><path d="m783.1 396.9q-.1 0-.2 0-.3-.1-.5.2c-3.3 8.2-10.5 16.1-20 16q-3.9 0-7.9-1.4-.7-.3-1-.7 0-.1-.1-.2-.1-.1-.1-.1-.1-.1-.2-.1-.1-.1-.2-.1-2-.7-4.2-1.5-1.8-.8-4.3-.6-2.3.1-4.3.9-8.5 3-15.5 10-6.6 6.6-13.8 14.8c-6.8 7.7-15.1 13.5-24.3 18.6q-9.6 5.4-20.7 8.4-.3.1-.7.1-.9.1-1.6.4-3.8 1.3-7.3 1.9-9 1.9-18.4 3.7-1.4.3-2.6-.3-1.2-.6-.2-1.5 1-1 3.8-2.2 9.7-4.2 19.3-8.2 14-5.8 27.3-13.4 13.8-7.9 24.5-19.7 7.3-8 14.7-16 6.8-7.3 14.2-11.4 3.2-1.8 7.9-1.6 2.4 0 4.4 1.2 2.2 1.2 4.3 2.4 1.8 1 3.9 1 2.1.1 4.3.2 2 0 3.8-.7 2.9-1.2 5.4-2.9 1.6-1.1 2.9-3.4 3.7-6.2 7.9-11.8.1-.1.3-.2.1-.1.3-.2.2 0 .4 0 .2 0 .3.1 1.2.6.9 2-.3 2.3-.2 4.2 0 .4.3.8.9 1.2 2.1 1.4 6.5 1.6 13.6.1.5-.1.3-.5-.9-2.8-3-5.2-.3-.4-.2-.8l3.1-10.4q.1-.3.3-.5.2-.2.5-.2.3-.1.6 0 .2.2.4.4 4.9 7 2.6 16.3-1.4 5.9-2.9 9.3-1.6 3.4-5.7 3.7-1.3.1-2.5.3-1.4.3-2.6.5-3.2.5-5.7-.9-.8-.5-2-.8-.8-.3-1.3-1.1-.2-.2-.4-.3z"/><path d="m907 486.2c6.9-.6 9.7-10.4 10.5-15.9q.1-.8.7-1.5 1-1.4 1.4.3 1.5 6.5.8 14.8c-.7 8.1-5.2 18.5-13.2 21.4-5.4 1.8-9.6-.4-12.8-4.5-10.4-13.3-5.7-31.1-.4-45.5q4.5-12.3 8.5-22.7 1.5-4.1 2.7-10.1c.2-.9 1.1-1.7 2-1.1q.4.2.5.6c.8 3.9-.2 9-1.3 12.9q-2.7 10.1-5.8 20.6-3 9.9-2.7 19.1c.2 5.3 2.9 12.1 9.1 11.6z"/><path d="m567.1 534q.3.1.4.4 1.7 2.3 2.8 3.1 2.1 1.4 4.4 2.8.8.5 1.6.7 5.3 1.3 10.8-.5c5.7-1.9 8-7.7 9.8-13 .3-.8 1.2-1.6 2.2-1q.1.1.2.2.1.1.2.3 0 .1.1.2 0 .2 0 .3-.8 13.2-5.6 26.1c-3.8 10.2-12.1 16.1-23.2 14.3-7-1.2-13.1-6.1-16.8-11.9q-4.1-6.3-5.5-16.6-.9-6.4-.4-10.9.2-1.1.2-2.1 0-.9 0-1.7 1.3-11.8 5.3-24.3 3.3-10.6 6.4-18.2 5.2-13.1 10.4-25.9 1.9-4.4 3.7-9.1 1.2-3 2.2-6 2.9-8.8 5.9-16.9.3-1.1 1.4-1.5.2-.1.5 0 .3 0 .5.1.3.2.4.4.2.3.2.6.1 2.4-.3 4.5-4.1 22.3-9 35.9-5.1 13.9-9.6 27.9c-2.9 8.8-4.8 18.1-4.1 27.2.1 2.9 1 5.4 1.7 8.2q.5 1.6 1.3 2.9 1 1.4 1.4 3 .1.4.5.5z"/><path d="m662 776.4q-.8-.4-1.6-.9-4-2.5-7.9-5.1-.1-.1-.1-.2 0-.1 0-.1.1-.1 0-.1-1-.7-2.1-1.4c-1.9-1.1-3.5-3-5.1-4.4q-.1-.1-.2-.1-.1-.1-.2 0-.1 0-.2.1-.1 0-.2.1c-3.2 7.8-6.4 15.7-10.7 23q-8.6 14.8-23.6 22.8-7.3 3.8-14.7 5.2c-13.1 2.4-27 1.3-37.9-6.4q-9.2-6.4-15.6-15.3 0 0-.1 0 0-.1-.1-.1-.1 0-.1.1-.1 0-.1.1-12.3 21.3-21.4 45-.5 1.3-1.7 5.2-.7 2.4-1.9 5-.7 1.4-.8 3.3c0 .9-.6 1.7-.9 2.6q-1.6 5.9-3 11.9-3.3 14.7-3.9 29.7-.5 12.7 2.6 24.7c5.1 19.7 21 29.3 40.8 27.4 6.4-.6 12.7-1.4 18.9-3.2 15.2-4.5 30-13 43-21.5q25.4-16.5 49.8-35.6 5.6-4.4 12.3-10 19.3-16.4 39.4-34.1c44.3-38.9 88.6-74.3 139.8-101 13.3-7 27-11.1 42.2-11.3 14.9-.3 30.8 3.8 42.3 13.2 7.6 6.3 12.6 14.5 12.8 24.4q.1 3.4-1.5 10.5-2.1 8.9-4.1 17.2c-.9 3.5-4.4.9-5.6-.5-6.2-7.3-12.2-14.1-19.8-19.3q-18.7-12.9-41.6-8.6-13.2 2.5-27 10-27.3 14.8-53.5 33.8-29.1 21.1-58.5 46.7-29.1 25.4-59.3 51.9c-19.3 16.9-40 31.8-62.9 48.1-18.3 13-36.6 24.7-58.1 26.6q-8.2.8-15.1-.6c-29.8-5.9-46.2-32.2-49.5-60.8q-1.4-11.7-.4-21.7.4-4.5.5-9.1.1-4.4 1.1-9.1.9-4.1 1.6-8.6.6-4 1.7-8.3 2-8.2 4.4-15.7 1.2-3.9 2-6 .4-1 .6-2 .2-1.1.8-2 .2-.3.3-.7 0-.9.6-1.5.3-.3.3-.7c.2-.9.3-1.8.8-2.7q1-2.2 2.3-5.2.7-1.9 1.5-3.8 1-2.3 2.2-4.5.6-1.2 1.1-2.4.4-1.4 1.3-2.7c.9-1.2 1.3-2.9 2-4.3 5-9.6 10.4-19.4 17-27.8q.1-.1.1-.2 0-.1.1-.2 0-.1-.1-.2 0-.1 0-.2-1.7-2.8-2.8-5.8-5.3-14.9-6.9-30.9-.5-6.1-.9-12.3-3.5-71.7-7.7-126.8-.4-5.2-.6-10.2-.1-1.1-.2-2.1-3-38.7-6.2-68.4-.4-3.4-.6-6.1-.2-3.1-.7-6.1-1.1-7.5-1.7-14.6c-.1-.9-.5-1.6-.6-2.4q-2.4-16.3-6.3-31.7c-.7-2.6.6-5.1 1.8-7.3q.9-1.8 1.5-3.8.7-2 1.5-3.9 1.2-2.7 2.5-5.9 3-7.2 6.1-14.5.1-.2.4-.4.2-.2.5-.2.3 0 .6.1.2.1.4.4c1 1.6.7 3.4 1.3 5.1q1.3 3.5 1.4 6.5 0 .8.3 1.5c.3.7.2 1.4.5 2.2q1.4 3.7 1.5 7.4.1 2 .6 3.9.6 2 .9 4 .2 1.6.7 3.1.4 1.4.6 3.3 3.6 26 6.9 57.4.3 2.2.5 4.4 2.9 31.8 5.1 64.8 3.4 49.9 6.2 110c.7 15.4 2.6 31.3 7.3 45.9q.6 1.8 2.4 5.8c5.5 12.4 16.2 19.8 30 21.2q22.5 2.4 39.9-10.8c8.5-6.5 15.6-15.3 20.7-24.9q2.7-5.1 5.6-10.3c1.8-3 4.8-7.1 8.2-3.1q.1.2.2.2.2.1.3.1.2 0 .3-.1.2-.1.3-.2 7.7-11.5 17.4-21.6c11.3-12 28.3-22 43.3-8.3q5.5 5 8.8 10.5 13.3 21.9 12.2 47.1-.2 4-1.6 8.9c-1.5 4.9-10.4 31.1-16.6 30.7q-2.8-.2-5.3-.6-13.4-2.2-26.9-6.7-1.5-.5-2.9-1.1-1-.4-2.1-.7-1-.3-2.1-.7-3.5-1.5-7-3-1.8-.7-4.1-2-2.1-1-4.2-2c-.8-.3-1.2-1-2.1-1.3q-1.1-.4-2.1-1.2-.8-.6-1.6-.9zm9.7-36.6c5.6 3.6 11.4 6.8 17.5 9.4 8.8 3.9 18 7.3 27.4 9.8q.7.1.5-.6-2.7-9.4-7.1-17.8-2.2-3.9-5.6-7.3-2.3-2.3-5.4-3c-9.9-2.5-19.5 2.1-27.4 8.6q0 .1-.1.2-.1.1 0 .3 0 .1 0 .2.1.1.2.2z" fill-rule="evenodd"/><path d="m995.3 518.4q.1 1.7.2 3.9 7.4 94 16.9 217.6c.8 10.2 1 19.4.7 28.8q-.2 5.5-1.2 10.9-3.2 18.7-9 34.7-.4 1.2-1.3 1.9-.2.2-.5.3-.3 0-.6 0-.3-.1-.5-.3-.2-.2-.3-.5-.7-1.7-.8-3.6c-.9-13.1-1.2-26.5-2.3-39.8q-7-84-14.8-179.4-3.6-44.1-7.1-88.5-.3-4.8-1.4-8.4-2.1-7-4.3-12.7-.2-.4 0-.8l13.1-31.6q1.8-4.2 3.3.1 1.6 4.3 3.1 8.3.5 1.4 1.1 2.7.5 1.3.9 2.7.9 2.8 2.1 5.6c.3.5.2 1.2.4 1.8q8.7 23.7 15.5 47.1 1.8 6 2.4 10.9.1.8-.2 1.8-.2.3-.4.6-.3.2-.6.3-.4.2-.7.1-.4-.1-.7-.3-.8-.6-1.4-1.3-5.4-6.3-10.9-13.2-.7-.8-.7.3z"/><path d="m474.3 506.7q-1.6 3-2.4 5.9-1.6 6.8-2.4 15.3-.4 5.2-1.2 10.2-.7 4.1-1.2 8.6-.9 6.9-3.2 14 0 .1-.1.2 0 .1-.1.1-.1.1-.1.2-.1.1-.2.2l-4.8 3.8q-.2.2-.5.3-.3 0-.6-.1-.3-.1-.5-.3-.2-.3-.3-.6-2.3-11.5-5.8-22-4.1-12.4-11-22.3-.1-.2-.2-.2-.1-.1-.3-.1-.1 0-.3.1-.1 0-.2.2l-1.8 2.5q-.1.1-.2.2-.1.1-.3.2-.2.1-.3.1-.2 0-.4 0c-7.9-1.7-19.1-7.3-13.5-17.1q2.6-4.6 4.7-8.6 1.2-2.5 4.1-1.8c14.6 3.7 22.6 19.3 26.8 32.5q.8 2.6 1.4 4.3c.8 2.5 1.2 4.8 1.8 7.3q.2.7.4 0 .9-3.5 1.3-7.1.4-3.9 1-7.2.9-4.6 1.5-9.2.5-3.7 2.2-9.6.5-1.9.9-3.9.3-1.4.9-2.8.5-1.4.9-2.8c1.3-4.8 5.5-11.6 11.3-10.1q3.1.9 6.3 4.2 3.6 3.7 5.8 7.2.7 1.2-.3 2.3-.3.3-.2.8 0 .4-.1.7-1.9 4.4-3.6 8.1-.1.3-.3.4-.3.2-.5.3-.3 0-.6 0-.2-.1-.5-.3-1.5-1.3-2.9-2.7-1.2-1.1-2.6-2-1.6-1-2.9-1.5c-2-.7-4 .3-4.9 2.1z"/><path d="m754.2 558.4q1.2-.1 2.3-.2c2.9-.3 5.7-4.3 6.7-6.9q2-4.9 2.8-10 .1-.4.4-.6.5-.3 1.1 0 .3.1.4.5c1.9 10.6 1.4 21-4.6 29.9-4.3 6.4-12.8 10.2-19 3.8-12.5-12.8-7.7-32-2.3-46.9q4-10.9 8.4-22.4 2.1-5.4 3.1-10.8.2-.9.9-1.3.2-.1.5-.1.2 0 .4.1.3.1.4.3.2.2.2.4c.9 4.7-.5 10.7-1.8 15.3q-2.4 8.1-4.8 16.2c-2.3 8.1-4.3 16.9-2.7 24.8q.9 4.4 4.4 6.9 1.4 1.1 3.2 1z"/><path d="m386 520q-.5.5-1.3.8-2.8 1-5.9 1.9-1 .4-2 .9-.9.5-2.1.8c-2.2.6-4.2 1.7-6.5 2.3-1.9.5-3.5 1.5-5.3 2-2.3.6-4.1 1.7-6.3 2.3q-2.4.7-4.3 1.5-1.4.6-2.8 1-1.5.5-2.9 1-5.2 2-10.2 3.8-9.1 3.3-16.8 6.1-2.1.7-4.4 1.3-.2 0-.4-.1-.2 0-.4-.2-.1-.1-.2-.3-.1-.2-.1-.5l2.1-12.1q0-.4.5-.6 1.3-.7 2.6-.9 1.3-.3 2.4-.9 1.8-1 3.9-1.4 1.3-.3 2.6-1 1.4-.8 3-1.1 1.9-.5 3.7-1.4 1.5-.7 3.1-1.1c2.3-.5 4.2-1.7 6.5-2.3 2.2-.6 4-1.7 6.3-2.3q1.7-.5 5.1-2c.6-.3 1.1 0 1.7-.3q2.4-1 4.9-2.1.5-.2 1-.2.4 0 .8-.1 2.7-1.4 5.1-2 1.6-.5 3-1.1 1.5-.8 3.1-1.2 1.6-.4 3.1-1.1c1.4-.6 2.8-1.6 4.4-1.6q.5 0 .9-.2 2.3-1.4 4.7-1.9c2.3-.5 3.9-1.9 6.1-2.2q1.3-.2 2.3-.9c1.2-.7 2.8-1.2 4.1-1.7q.9-.3 1.6.4.2.1.2.2.1.2.2.3 0 .2 0 .3 0 .2 0 .4-1.5 5.5-2.1 11.4 0 .1 0 .2-.1.1-.1.2-.1.1-.2.2-.1.1-.2.1-1.9 1-4 1.6-2 .6-3.8 1.4-2.9 1.4-5.9 2-.1 0-.2 0-.1.1-.2.1-.1.1-.2.1-.1.1-.2.2z"/><path d="m78.7 532.1q0-.1 0-.3 0-.1 0-.2 5.1-8.6 10.1-16.9.6-1 1.7-1.2 24.8-3.5 48.9 2.3 5.4 1.3 9.5 4.1.3.1.4.4.2.2.3.5 0 .3 0 .6-.1.3-.2.6-5.5 9.5-11.6 20.5c-4.9 9.1-12 18.7-20.6 24.4q-1.8 1.2-4.3 1.6-4.9.9-9.8 1.5-16.3 2-32 3.3-1.8.2-2.9-.1-.4-.1-.6-.3-.3-.3-.5-.6-.1-.3-.1-.7 0-.3.2-.6.4-1 1.5-1.3 3.8-1.1 6.8-2.6 7.2-3.6 13.2-6.2.2-.1.4-.1.4-.1.8-.2 1.9-.9 3.8-1.6 1.9-.7 3.8-1.5 9.7-4.5 19-9 3-1.4 5.6-3.1.7-.5-.1-.6-15.1-3-31.1-1.9-5.7.4-10.5.7c-2.4.1-4.6.8-6.9 1.3q-.2 0-.4 0-.2 0-.3 0-.2-.1-.4-.2-.1-.1-.3-.3-.6-.8 0-1.8 1.9-3 3.6-5.9.1-.3.4-.4.1 0 .2-.1 0 0 0-.1.7-2.2 2.3-3.8.1-.1.1-.2z"/><path d="m650 592.4c-.8.5-1.5 1.3-2.1 2q-.2.3-.7.3-1.3.1-1.6-1.5c-.4-2-.6-4-1.1-6.1q-1.1-4.1-2.2-8.1-2.4-8.9-6.6-18.1-2.8-6.1-6.7-11.5-.1-.1-.2-.2-.2 0-.3 0-.1 0-.3 0-.1.1-.2.2l-1.7 2.4q-.1.2-.3.3-.1.1-.3.2-.1 0-.3 0-.2.1-.4 0-4.5-.9-8-2.7-5-2.5-6.7-6.9-.6-1.5-.2-3.7.2-1.8 1.1-3.3 1.9-3.3 3.6-6.6c.9-1.8 2.4-5.1 5-4.2q1.3.5 2.6.8 1.6.3 2.8.9 7.2 3.5 12.5 11.2 5.9 8.6 9.2 19 .7 2.3 1.5 4.6.7 1.8 1 3.8.4 1.9 1.1 3.7.2.7.3 0 .6-2.8 1-5.8.3-3.1.8-5.9.7-3.7 1.2-7.3.5-3.8 1.3-7.3.8-3.8 1.6-7.5 1.4-5.9 3.7-11.4c1.6-3.7 4.7-8 9.1-7.5q2.5.3 4.7 1.8 2.2 1.5 3.8 3.4 2.2 2.6 4.7 6.2.1.1.2.3.1.2.1.4 0 .2 0 .4 0 .2-.1.4l-4 10.3q-.2.3-.4.5-.3.2-.6.3-.3.1-.6 0-.3 0-.6-.3-2.6-2.2-5.3-4.5-.7-.6-1.5-.8-1.1-.3-2-.6c-3-.9-5.1 2.3-5.9 4.7q-2.4 7.5-3.1 15.9-.7 7.9-1.9 15-.7 3.9-1.1 7.8-.4 4.2-1.7 7.7-.3.9-.4 1.9c-.2 1.4-.6 3.3-1.9 4.1q-1 .6-1.9 1.3z"/><path d="m846.6 586.8q1.4-1 3.1-1.7.8-.3 1.2-.9.2-.3-.2-.4-17.8-3.3-35-1.6-2.1.2-4.7.6-2.3.3-4.5.3-1.5 0-3.1.6-.9.3-1.8.1-.3-.1-.6-.3-.2-.2-.3-.5-.2-.3-.1-.6 0-.3.1-.6 8.2-13.8 17-28.2.5-1 1.6-1.1 19.5-2.7 38.9.3 7.7 1.2 14.3 3.5 3 1 5.1 2.6.3.2.4.4.2.3.3.6 0 .3 0 .6-.1.3-.2.5-5.3 9.2-10.3 18.2c-5.5 10.3-11.4 18.3-19.8 25.2q-2.7 2.3-5.4 2.9-5.6 1.2-11.7 1.9-16.3 1.8-32 3.2-1.1.1-2.4-.4-.3-.1-.5-.4c-.7-1.3-.1-2.3 1.1-2.7q7.3-2.5 13.9-6.1c1.1-.5 2.3-.7 3.3-1.5q.5-.4 1.1-.6 4-1.5 8.2-3.1 1.6-.6 3.1-1.5 1.1-.6 2.3-1 1.1-.3 2.2-.9 6.3-3.1 12.6-5.9 1.4-.6 2.8-1.5z"/><path d="m164 718.1q-1.2 4.3-2.8 8.3-.2.4-.3.8-3.8 10.9-12.7 18c-12.7 10-29.3 16.4-45.2 19.1-13 2.1-26.8.4-30.6-14.5-1.4-5.5-1.1-10.9-1.1-16.6 0-3.3.6-6.6 1.6-9.7q.4-1.2.5-2.4c.2-1.6 1.1-2.9 1.6-4.4q5.1-13.6 14.9-26.4 10.5-13.7 22.9-23.9 15.8-13 32.1-25 .1-.1.2-.1 0-.1 0-.2.1-.1 0-.1 0-.1 0-.2l-8.4-19.5q-.2-.3-.1-.7.3-1.9.9-3.5.7-1.9 1-3.5.3-1.9.9-3.6.6-1.8.9-3.6.6-2.7 1.5-5.6.7-2.1 1.2-4.3.4-2.1 1.1-4.3.5-1.5.8-2.9.2-1.8 1.1-3.6.2-.4.6-.4c1.4-.2 1.5.9 2.1 1.8q4.6 8.2 7 13.7.7 1.6 1.5 3.2.8 1.6 1.4 3.1 1.8 4.6 3.7 9.4c.9 2.4 1.8 5.6 3 8.4q.2.4.6.1 12.4-11.1 21-26.4 2.9-5 6.1-9.5.1-.2.2-.3.2-.2.4-.2.2-.1.4-.1.2-.1.4-.1 1.6.3 1.6 1.9c0 4.3-1.1 8.6-1.9 12.9q-.9 4.9-2.2 9.1c-4 12.3-12 22.2-21.2 31.5q-.2.2-.3.3 0 .2-.1.4-.1.1-.1.3 0 .2.1.4 1.2 5.7 2 11.2 4 27.5 6.5 41.6.4 2.5.7 5 .4 2.7.9 5c2.2 10.2 4.5 20.2 8.6 29.5q1.6 3.5 4.1 7.6c9.1 15.2 25.7 24.8 43 27.8q.4.1.5-.3 13-30.9 35.9-56.3 6.9-7.5 14.9-14.9 0-.1 0-.2.1 0 .1-.1 0-.1-.1-.2 0 0-.1-.1c-11.8-10-25.2-18.4-38.1-27.3q-14.1-9.7-22.8-19c-7.6-8.2-12.2-17.8-12.3-29.1q0-5.9 2.4-11.6c10.3-24.5 34.3-30.8 58.9-31.9q14.4-.5 28.7-.1c33.9 1 68.1 2.5 100.9 3.2q38.5.7 70.5 1.3.2 0 .5.1.2.1.4.4.2.2.2.5 0 .2-.1.5l-12 33.1q-.3.9-1.2 1.4-27.1 14.3-54.9 29.3c-32.1 17.2-63.6 36-93 57.5q-.1.1-.2.2 0 .1-.1.3 0 .1-.1.2 0 .2.1.3 2.1 9.5 3.2 19.5 0 .3-.1.5-.1.2-.2.4-.1.1-.3.2-.2.1-.4.2-1.4.1-2.3-1-5-6-9.9-11.7-.1-.2-.3-.2-.1-.1-.3-.1-.2-.1-.3 0-.2 0-.3.2c-9.4 7.4-19.2 15.4-27.3 24q-13.4 14.5-23.1 32-.3.5.2.5 7.1.3 12.8-.2 21-1.6 43.5-6.8 24.3-5.5 49.1-11.2 12.2-2.8 26.9-5.1c22.4-3.6 45.6-4.7 66.2 2.5 24.5 8.4 40.2 27.6 46.9 52.2q.3 1 .2 2-.1.4.1.8.7 1 .7 2.2-.1.5.2.8.7 1.2.6 2.7-.1 0 0 .1 0 0 .1.1 0 0 .1-.1 0 0 0-.1.1-.3.1-.6 0-.1 0-.1.1 0 .1.1 0 3.2.2 6.4.1 1.4.4 2.8.3 1.3.4 2.6.1 2.3.4 4.6c.4 3.6.3 7.4-.1 10.9q-.4 4-.5 8.1-.1 2.6-.9 5.6-.7 2.8-1.1 5.6-.7 3.6-4 13.3-.7 2-1.3 3.8-.7 1.9-1.5 3.8-.2.6-.5 1.4-.9 2.6-2.6 5.3-.2.3-.3.7 0 .2 0 .4.1.2 0 .4-19 39.6-56.7 66.4c-45.2 32.1-110 44.7-159.4 14-31.6-19.7-47.4-53.3-52.3-89.8q-3.3-25.2-.1-50.6 1.1-8.2 3.5-19.6.1-.5-.4-.6c-27.2-7-43-25.7-51.3-52.1q-1.3-4.2-2.6-8.5-.3-.9-.3-1.8c0-.9-.6-1.6-.8-2.5q-1.3-5.7-2.4-11.3-.8-4-1.5-8.6-.5-3.3-1.3-6.5-.2-.6-.3 0zm77.2-95.1c-.5.2-1.1.1-1.5.3q-2.7 1.3-5 2.8-.1.1-.2.2-.1.2-.1.4 0 .2.1.4.1.2.3.3 19.6 10.8 38.8 24.2 18.7 13.1 30.7 33.7.1.1.2.2.1.1.3.1.1 0 .3 0 .1-.1.2-.1c30.4-24.8 64.3-45.2 99.4-62.9q1.5-.7-.1-.7-35.3 0-71.5-1.4c-17.8-.6-35.6-.8-53.7-1.1q-14.9-.2-25.9.9c-4.3.5-8.6 1.1-12.3 2.7zm-84.8 53.9q-.1-.3 0-.5 0-.2 0-.5-1.9-7.3-4.1-14.6 0-.1-.1-.2-.1 0-.2-.1 0 0-.1 0-.1 0-.2.1-24.7 18.2-43.9 35.5-9.2 8.4-18.2 21.8-.8 1.1-1.8 2.2-.8 1-1.1 2.2-.1.5.2.8 1.4 1.3 3.1 1.9 7.1 2.7 15.4 1.6 26-3.3 46.3-18c2.3-1.6 9.7-7.4 9.4-10.4q-.4-3.8-1.4-7.9c-1.1-4.4-1.7-9.3-3.3-13.9zm329.8 190.8c.4-1.5 1.4-2.7 1.8-4.2q.2-1 .6-2 1.2-3.2 1.6-6.3 1.4-13.8-2.2-26.5-5.6-19.2-24.6-30-15.2-8.7-35.3-11.5-14.3-2-30.6-.5-19.1 1.8-38.1 5.9-1.4.3-2.9.7-3.5.8-6.7 1.4-3.4.7-6.8 1.5-9.1 2.2-18.7 4.4-6.8 1.5-14.1 3.2-18.7 4.4-38.1 7-17 2.3-33 1.1-.4 0-.5.4-3.5 14.2-4.4 28.2-3.2 47.3 30.3 79.2c46.5 44.3 119.3 35.4 168.8 2.4 15.7-10.5 30.4-23 42.4-37.7q4.7-5.9 9.7-14.6.5-.9.8-2.1z" fill-rule="evenodd"/><path d="m951.6 659.5q.6-2.7 1.1-5.8.1-.1.1-.2 0-.1.1-.2.1-.1.1-.2.1-.1.2-.1.8-.5 1.2.1.3.3.3.7c1.7 10 1.4 19.6-4 28.5-4.4 7.5-13.8 11.8-20.6 3.9-11.4-13.2-6.6-31.6-1.2-46.3q4.2-11.3 8.4-22.4 1.9-5.2 2.9-10.5.1-.1.1-.1 0-.1 0-.2.1-.1.1-.2.1 0 .1-.1.8-1 1.6-.6.4.2.5.7c.8 3.5 0 8.9-1 12.1q-3.9 13.6-7.1 25.4c-1.9 7.5-4.1 22.7 4.7 26.5 3.9 1.7 8.3-2.1 10-5.4.9-1.8 1.9-3.8 2.4-5.6z"/><path d="m637.9 654.8q0 .2-.2.3-2.2.8-4.5 1.7-1.5.7-1.7-.9-.1-.9 0-1.9.6-3.8 1.5-7.6c.3-1 .1-2 .5-3q.1-.4.5-.5 2.1-.8 4.1-1.4 1.6-.4 3.2-1.1 1.6-.6 3.2-1.2 12.4-4.5 25-9.1.8-.3 1.6-.6 6-2.4 11.4-4.1 1.5-.4 2.6-.9.7-.4 1.6-.7 6.9-2.6 13.8-5 7.9-2.8 13.7-5.3.6-.2 1.2-.2.4 0 .7-.2 1.2-.7 2.5-1 .3-.1.6 0 .3.1.5.3.2.2.3.5.1.2 0 .5-1 5.1-1.8 11.1c-.3 2.3-2.8 1.8-4.3 2.4q-.7.3-1.3.6-3 1.9-6.5 2.6-.3 0-.5.2-.1.2-.3.3-3.7 1.3-7.6 2.8-2.1.8-4.2 1.5-2.1.7-4.3 1.5-2.5.9-4.9 1.7-2.3.8-4.4 1.8-2.2 1-4.3 1.6-1.6.5-3.1 1.1-1.1.4-2.2.7-1.1.3-2.1.7-4.8 1.7-9.4 3.6-.9.4-1.7.5-.7.1-1.2.4-.6.3-1.2.5-8.3 3-14.7 5.4-.9.3-1.8.2-.2 0-.3.2z"/><path d="m590.3 707.2q-.2 0-.3-.2-3.4-4.6-4.7-8-.5-1.4-.8-2.9-2.7-10.8 1-23.3.2-.5.3-1.1 3.8-13.1 10.8-30.7 2.5-6.3 4-13.5.1-.3.3-.5.2-.2.5-.3.3 0 .6.1.3.1.5.3c1.7 2.2 0 10.2-.7 12.7q-3.2 11.5-6.5 22.8-.7 2.7-1.2 5.4-.5 2.8-.8 5.5-.8 6 .4 10.2.3 1 .5 2 .2 1 .8 1.9c1.1 1.6 2.2 3.5 4.5 3.3q-.3.1-.3.2.1.1.1.1 4.8 1.6 8.3-2.4c3.3-3.7 4.6-9.1 5.4-14.1q0-.6.5-.7.5-.1.9 0 .4.1.5.5c2 11.3 1.2 23.1-6.3 32q-1.8 2.2-5.2 3.8-3 1.5-5.9 1.1-3.6-.4-6.9-3.9-.1-.2-.3-.3z"/><path d="m480.4 694.3c8.7.8 11.5-10.8 12.5-17.1q.1-.4.4-.7.5-.3 1.1 0 0 .1.1.1.1.1.1.2.1 0 .1.1 0 .1.1.2 1.5 8.9.4 16.6c-1.1 8.3-6 18.1-14.7 20.2-8.9 2.1-15.1-9.8-16.5-16.8q-1.7-8.2.5-18.4 1.1-4.8 2.4-8.6.6-1.6 1-3.2.5-1.7 1.1-3.3 4.9-13.2 9.6-25.8c.9-2.3 1.2-5 1.8-7.5.4-1.3 2.2-1.3 2.5.1.7 3.6-.3 9.1-1.2 12.2q-3.5 12-6.7 23.7c-.7 2.3-1.1 4.9-1.5 7.3q-1.6 9.4 1.1 15.8.7 1.8 2.2 3.2 1.6 1.5 3.6 1.7z"/><path d="m824.8 663.6q.5-2 1.7-3.7.2-.4.3-.8.2-1.4 1.1-2.5.8-1 1.2-2.3 2.2-6.7 3.1-14 .1-.3.2-.5.2-.2.4-.4.2-.1.5-.1.3 0 .5.1.8.3 1 1.2c.7 2.8 2 5.7 1.8 8.7q-.2 2.8-.7 5.9 0 .2 0 .4.1.2.2.3.1.2.3.2.2.1.4.1 2.5-.2 5 .2.5.1 1.9.7.7.3 1.5.3.7.1 1.3.4 5.4 2.5 7.8 8.5.1.5.2 1 0 .6.1 1 1.2 3.4 1 5.7-.3 2.8-.7 5.5-.1 1-.3 2-.4 1.5-.4 3.3c0 3.6-1.1 8.3-2.8 11.6-3.9 7.6-12.3 12.9-20.9 10.6q-7.5-2-10.4-9.6-4-10.6.3-22.4c.2-.4.1-.8.2-1.2q1.6-4.8 3.5-9.4.1-.2.3-.3.3-.1.4-.5zm21 23.8q2.5-1.1 4.4-3.2.1-.1.2-.2.1-.1.1-.3 0-.1 0-.3 0-.1 0-.3-.2-.4-.2-.8 0-.4-.2-.6-.7-.7-1.1-1.6-.4-.8-1-1.3-2.1-2-4-3.4-.3-.3-.7-.3-1.1-.2-2.1-.6-4.2-1.4-10-1.2c-1.2 0-2.7.1-3 1.5-.6 2.9-1.1 6.3.6 8.9q2.7 4.3 7.8 4.8 4 .4 7.7-.4c.5-.1 1-.5 1.5-.7z" fill-rule="evenodd"/><path d="m773.4 666.1q.8.4 1.6.7.8.2 1.5.6 5.9 3 12 6.2 5 2.6 9.7 5.3.2.2.4.4.2.2.3.4 0 .3 0 .5 0 .3-.1.5-7.4 15.9-14.9 32.1-.9 1.8-2.7.8-14.8-8.3-30.6-15.9-1.6-.7-.9-2.3l15-32q.1-.3.4-.5.2-.3.6-.4.3-.1.7-.1.3.1.6.2 2.6 1.5 5.2 2.6.4.1.6.4.2.3.6.5z"/><path d="m140.3 831.8q.3 1.9.7 0 1.2-6.3 2-12.9.6-4.5 1.7-10.1 1-5.2 2.3-11.2.6-2.6 1.5-5.3 1-2.6 2-5.2 1.3-3.5 3.8-5.8 3.6-3.4 8.1-1.3 3.2 1.6 5.8 4.7 2.4 2.8 4.6 5.8.2.2.2.4.1.2.1.4.1.2 0 .4 0 .2-.1.4-.8 1.9-1.5 4-.3 1-1 1.8-.8 1-1 2.3-.2 1.5-.8 2.8-.1.2-.4.4-.2.1-.4.2-.3 0-.6-.1-.2-.1-.4-.2l-4.1-4.1q-.3-.3-.6-.4l-.7-.1q-.1-.1-.2-.1 0 0-.1 0 0-.1-.1-.1 0-.1-.1-.1-1.3-1.4-3.7-1.4c-2.2 0-3.6 1.9-4.6 3.6q-.7 1-1 2.3-.3 1.5-.7 2.9-1.2 4.7-1.9 10.8-.8 7.9-1.8 16.3-1.2 9.8-3.6 18.4-.5 1.9-1.7 2.9-2.2 1.8-4.2 3.3-.3.2-.6.3-.3 0-.6-.1-.3-.1-.5-.4-.2-.2-.2-.5c-2.8-15.5-7.8-31.3-16.8-44.4q-.1-.1-.2-.1-.1-.1-.2-.1-.1 0-.2.1-.1 0-.2.1l-2 2.7q-.1.1-.2.2-.1 0-.2.1-.1 0-.3.1-.1 0-.2 0c-7.6-1.3-19.4-7.1-13.9-16.9q2.6-4.7 4.9-9c1.3-2.4 4.3-1.7 6.3-.9q7.1 2.6 12.1 8.3 4.8 5.5 8.4 13.2 2.8 5.8 4.4 11.3.1.6.3 1.2 1.7 4.7 2.4 9.1z"/><path d="m663.7 864.5q0 .1 0 .1-.1.1-.1.1-5.9 1.8-10.2-2.3c-12.6-11.9-8.8-30.9-3.3-46q4.9-13.5 10-26.8.8-2.1 1.1-4.1.3-2.1 1-4.3.1-.1.2-.3.1-.1.2-.2.2-.1.3-.2.2 0 .3 0 1.3 0 1.4 1.3.4 4.7-.6 9c-.4 1.4-.5 2.7-.9 4.1q-3 10-5.9 20.2c-2.1 7.5-5.6 23.2 1.9 29q2.3 1.8 5.1 1.3c6.9-1.3 9.4-10.4 10.3-16.8q.1-.4.4-.7.5-.5 1-.2.1 0 .2.1.1.1.2.1 0 .1.1.2 0 .1.1.3c1.9 11 1.2 22.3-5.8 31.3q-2.8 3.4-6.9 4.7 0 .1-.1.1z"/><path d="m851 851.1 15.1-32.2q.1-.3.3-.5.3-.2.6-.3.3-.1.6-.1.3 0 .6.1l31.2 16.2q.3.1.5.3.2.2.3.5.1.3.1.6 0 .3-.2.6l-15 32.3q-.1.2-.4.5-.2.2-.5.3-.3.1-.6 0-.3 0-.6-.1l-31.3-16.1q-.3-.2-.5-.4-.2-.2-.3-.5 0-.3 0-.6 0-.3.1-.6z"/><path d="m567.1 852.9q0-.3.1-.5 2.8-8 5.8-15.9.7-1.7 1-3.6.3-1.9.8-3.8.1-.3.5-.5.6-.2 1.2 0 .1 0 .2.1.1 0 .1.1.1 0 .1.1.1.1.1.2c1 4.5-.4 10.3-1.7 14.8q-4 13.7-6.5 23.1-2 7.9-1.4 15.8c.2 3.5 2.2 9.8 6.4 10.3q1.1.2 2.4.2c7.1.2 9.9-10.9 10.8-16.1q.2-.8.5-1.3.2-.2.4-.3.2-.1.5-.1.2.1.4.2.1.2.2.5 1.1 5.7.9 12.3c-.2 9-4.5 20.9-13.5 24.1-6.5 2.3-11.5-2-14.6-7.3q-4.9-8.1-4.2-18.2.5-8.6 3.3-17.3 2.5-7.6 5.2-14.8.3-.7.7-1.4 0-.1.1-.2 0-.1.1-.2 0 0 0-.1 0-.1.1-.2z"/><path d="m361 838.8q.4.1.7.2 12.7 6.2 24.7 13 .3.1.4.4.2.2.3.5.1.2.1.5 0 .3-.2.6l-15 32.3q-.2.3-.4.5-.2.2-.5.3-.3.1-.6 0-.3 0-.5-.1-15.1-8.4-31-16.1-1.7-.8-.9-2.5 7.3-15.5 14.7-31.5.9-2.1 2.8-1 2.3 1.3 4.7 2.3.2.1.2.3.2.3.5.3z"/></svg>