<svg height="1080" viewBox="0 0 1080 1080" width="1080" xmlns="http://www.w3.org/2000/svg"><clipPath><path d="m67 47h946.22v985.65h-946.22z"/></clipPath><path d="m806.2 462.9q0 0 .1 0 0 .2-.1.2-4.4 1.8-9 3.2-.1.1-3.2 1.2-2.4.9-5.1 1.1-.4 0-.7.3-1.9 1.3-4.2 1.3-.4-.1-.7.2-1.8 1.4-4.4 1.8-1.3.3-2.5.7-.8.4-1.6.7-.7.2-1.7.4-1.9.4-3.7 1.1c-1.4.6-2.9.8-4.4 1.2q-9.1 2.7-18.4 5.4-1.1.3-2.2.1-.3-.1-.6-.3-.3-.3-.4-.6 0-.4 0-.7.1-.4.4-.6 1.6-1.4 3.5-2.6 9.6-5.8 18.8-11.1 16.3-9.3 32.6-19.8 5.9-3.7 12.7-9 26.4-20.2 46.2-43 3.3-3.9 6-7.8 1.7-2.3 3.4-4.6 3.9-5.1 6.6-11.4 1.1-2.5 1.3-5.7.5-9.5-.2-16.9-2.5-24.9-4.9-53.3-7.1-83.3-12.3-142.8-2.3-25.5-4.8-50.6-.7-6.5-2-11-1.8-5.6-3.8-10.6-.3-.6 0-1.3l12.6-30.4q0-.1.1-.2 0-.1.1-.1 0-.1.1-.2.1 0 .2-.1.7-.3 1.2.1.3.3.4.7 3.1 8.1 6.2 16.2.1.2.1.6 0 .3.1.5 6.6 18.2 12.5 36.7 3.2 9.9 5.2 19.3.2 1.2 0 2.5c-.2 1.4-1.8 1.9-2.7.8q-5.6-6.2-10.3-12.1-.5-.6-.4.1 6.8 76.7 13.2 144.3.3 3.6.5 6.6.2 3.7.5 6.5 3.1 33 2.6 68.4c-.5 29.1-8.3 56.7-24.8 80.6q-6.9 10-17.3 20.7c-6.2 6.4-12.5 10.7-20.3 14.6q-7.3 3.6-15.4 7-2.3.9-4.5 1.1 0 0 0 0-.1.1-.1.1 0 0-.1 0 0 .1 0 .1-.1.2-.3.2-.2 0-.1.2z"/><path d="m805.3 77.9q-.2.1-.3.3-.1.1-.3.2-35.4 13-70.1 25.5-.3.1-.6.1-.3-.1-.5-.3-.3-.2-.4-.5-.1-.3-.1-.6 0-.1 0-.3 1-5.4 1.9-10.6 0-.1.1-.2 0-.1.1-.2 0 0 .1-.1.1-.1.2-.1l78.6-28.7q.2-.1.5 0 .3 0 .5.2.3.2.4.5.1.2 0 .5l-1.8 10.8q-.1.6-.7.9-3.5 1.5-7 2.2-.4.1-.6.4z"/><path d="m946.4 136.5q0 0 0 0 0 .1-.1.1 0 0 0 .1 0 0 0 0 4.9 64.5 9.9 129 3.5 44.5 6.6 85.6.5 6.8 0 17.6-.3 7.8-1.8 15.4-2.9 14.6-7.6 27.8-.3.9-1 1.6-.3.3-.6.3-.4.1-.7 0-.3-.1-.6-.3-.2-.3-.3-.6-.6-2.4-.7-4.6c-.7-13.6-1.3-26.6-2.4-40q-10-119.7-20-245.7-.3-3.7-1.3-6.8-1.2-3.9-2.4-7.6c-.5-1.4-2-3.7-1.4-5.1q6-14.3 11.9-28.7 1.8-4.4 3.3.1 1.2 3.6 2.9 7.6.1.2.1.4-.1.2 0 .3c1.2 2.4 2.7 5.6 2.8 8.2 0 1.3 1 2 1.4 3.2q6.9 19.2 13.1 39.5 1.9 6.3 3.2 13.3.3 1.8-.4 2.8-.2.3-.5.4-.3.2-.6.2-.3 0-.6-.1-.3-.1-.5-.4-6.1-6.8-11.3-13.6-.1-.1-.4 0z"/><path d="m701.5 123.8q-1.3-.5-.5.7 14.7 19.9 31.7 40.3 32.3 39.1 54.5 66.3 20.3 24.8 36 46.4c16.5 22.6 30.1 48 34.6 75.4q1.2 7.6 1.3 16.1.1 8.5 0 16.3-.1.5-.5.7-1.6.7-2-1-2.5-9.7-5.9-18.3c-10.4-26.2-25.4-49.2-43.2-71.6-22.3-28.3-44.2-54-66.8-80.6q-16.5-19.5-32-39.1-14.5-18.5-25.5-36.6-5.7-9.4-10-19.7-1.2-3-3-5-2.4-2.8-5.1-5.1-.4-.3-.4-.8v-33.2q.1-.3.2-.6.2-.3.5-.4.3-.2.7-.1.3.1.5.3 16.8 16 33.5 32.2 6.7 6.4 13.5 13.8c1.3 1.4 4.4 4.8 3.7 6.6q-.1.2-.2.5-.2.2-.4.3-.3.2-.5.2-.3.1-.6 0c-4.8-.7-9.4-2.2-14.1-4z"/><path d="m393.5 89.7q-1.1 3.4-2.8 7.1 0 .1-.2.2-.1.2-.3.2-.2 0-.4 0-.1-.1-.3-.2-2.4-2-5.1-4.1c-2.6-2-6.1-2.9-8 .8q-2.4 4.7-3.2 11.7-.8 6.8-1.7 13.5c-.6 3.9-.5 7.6-1.6 11.3q-.4 1.6-.5 3.3 0 2.1-.8 4.1c-.6 1.6-.8 3.3-1.3 5q-.3.9-1 1.5-1.8 1.4-3.5 2.9-.6.5-1.4.7-.2 0-.3 0-.1 0-.2-.1-.1 0-.2-.1-.1-.1-.1-.3-1.7-7.8-3.8-15.3-.9-3.3-2.2-6.7c-2.7-7.1-5.3-13.3-9.9-19.6q-.1-.1-.2-.2-.1 0-.2 0-.2 0-.3 0-.1.1-.2.2l-1.7 2.4q-.3.4-.9.3-8.2-1.5-12.1-6.1c-2.8-3.4-2.5-6.6-.4-10.3q2.3-3.9 4-7.3 1.2-2.4 4-1.7c14.5 3.5 21.5 19.3 25.6 32.3q.6 2 1.1 3.9.4 1.9 1.1 3.7.4 1.2.7 0 .5-2.5.8-5.4.4-2.6.8-5.4.8-4.6 1.5-8.8 1.7-10.2 4.7-19.2 1.2-3.4 3.2-6 4.6-6 10.8-1.4 3 2.3 5.2 5.4 1.1 1.5 2.2 2.9c.9 1.1.5 2.5-.2 3.4q-.5.7-.7 1.4z"/><path d="m270.4 101.2q-.2 0-.4 0-.2-.1-.3-.2-2.8-2.8-4.9-4.1-2.1-1.2-4.6-.5-.4.1-.7.4-1.4 1.7-1.7 2.4-2.2 5-2.9 12.4-1.5 13.3-2.9 23.6-.6 4.9-2.3 11.4-.5 1.9-1.6 2.8-2 1.6-4 3.2-.2.2-.5.2-.2.1-.5 0-.2-.1-.4-.3-.2-.2-.2-.5-1.8-8.5-4.1-16.2-2.4-7.8-6.1-15.4-.4-1-.7 0c-.6 2.6-1.1 5.2-1.8 7.8q-2.7 9.5-9.7 18.7c-15.4 20.3-34.9 36.7-58.9 45.5q-.4.1-.8.2-.4 0-.7.3-.3.3-.7.5-18.2 6-39.3 13.1-1 .4-1.8.1-.3-.1-.6-.3-.2-.3-.3-.7 0-.3.1-.7.2-.3.5-.5 5.1-3.4 9.7-6 6.7-3.6 22.8-12 22-11.4 42.8-28.4c13.9-11.3 27.2-24.8 35.7-40.3q.3-.5-.2-.6-9-2.1-15.2-8.9-1.4-1.5-2.6-3.6c-1.3-2.5-1.3-4.7 0-7.1q2.3-4.1 4.4-8.2.7-1.5 2.3-1.3c12.1 1.9 19.7 13.6 24.1 24.6q2.9 7.3 5 15.5 0 .1.1.1 0 .1.1.1.1 0 .2 0 .1 0 .1-.1.3-.3.4-.8 1.8-13.8 4-26.1c.5-2.4 1.2-4.6 1.8-7.1q1.1-4.5 3.1-8.5c2.8-5.7 7.6-8.3 13.1-3.6q3.8 3.2 6.9 7.9.7 1.1.2 2.2-1.8 4.4-3.4 8.6-.1.1-.1.2-.1.1-.2.2-.1.1-.1.2-.1.1-.2.1-1.1.7-1.7-.2 0 0 0 0-.1 0-.1-.1-.1 0-.1 0 0 0-.1 0z"/><path d="m527.2 139.7q-2.3-1.4-4.5-3-.1-.1-.2-.1-.1 0-.3 0-.1 0-.2.1-.1.1-.2.2-12.9 16.8-28.8 31.1-8.5 7.5-22.3 15.3-15.2 8.5-31 16.7-8.5 4.4-16.5 7.6-1.5.6-2.1-.6-.1-.2-.1-.4-.1-.2 0-.4 0-.1.1-.3.1-.1.3-.3 2.1-1.7 4.4-3.3 26.1-17.1 40.8-27.6 16.7-11.8 33.4-27c5.4-4.9 10.8-9.6 15.3-15.2q.1-.1.1-.3.1-.1 0-.2 0-.2-.1-.3 0-.1-.2-.2c-8.8-5.3-17.7-12.1-15.4-23.7 2-9.7 11.4-17.5 20.5-20.6 7.1-2.4 13.7 0 15.4 7.8 1.8 8.6-.4 17.1-4 25q0 .1-.1.3 0 .1.1.3 0 .1.1.3.1.1.2.2l7 5.1q.8.7.3 1.7-3.1 5.5-6.6 12-.5.9-1.2 1.7 0 .1-.1.1-.1.1-.2.1-.1 0-.2 0-.1 0-.1 0c-1.4-.3-2.7-1.6-3.6-2.1zm-5.1-35.7c-2.3-2.6-7.9-.6-10.2 1.3q-.7.5-.3 1.3c2.3 3.9 8 7.2 12 9.4q.1.1.2.1 0 0 .1-.1 0 0 .1 0 0-.1 0-.1c1-3.7.7-8.8-1.9-11.9z" fill-rule="evenodd"/><path d="m602.7 144.9c3.5-4 4.5-8.6 5.5-13.7q0-.2.2-.4.1-.1.3-.2.2-.1.4 0 .2 0 .4.1.3.3.4.8 1.2 7.1.7 12.9c-.7 7.6-4 16.2-10.9 19.8-3.9 2.1-7.9 1.8-11.2-1.2-12.3-11.1-7.8-29.9-2.9-43.4q3.9-10.8 8-21.4 1.8-4.8 2.9-10.3.2-1.1 1.4-1.1.1 0 .2 0 .1 0 .2.1.1.1.1.1.1.1.1.2c1.2 2.7 0 8.8-.7 11.2q-3.1 11.2-6.1 21.6c-1.7 6.2-3.1 14.4-1.4 20.7.6 2.3 2.7 5.3 5.1 6.2 2.5.8 5.5 0 7.3-2z"/><path d="m776.5 153.6q-5.5-3.7-8.3-9.6-2.8-5.6 0-10.4c5.6-9.5 10.9-20.2 20.3-26.6q4.9-3.3 10.2-2.5 2.5.4 4.4 2 1.8 1.4 3.2 3.6 1.9 3 1.6 6.4-.4 3.7-1.8 6.7-.3.6-.3 1.1-.1.3-.2.6-.9 2.5-1.9 4.6-.1.4-.5.7-.4.2-.8.2-.5 0-.8-.3-.4-.2-.6-.7-2.6-6.6-8.3-8.4-1.8-.6-4.2-.3-2 .2-3.6 1-4.4 2-8.3 5.8-.4.3-.2.8 2.6 7.7 8.9 10.5 3.9 1.6 9.1 2.1 5 .5 10.1-1.7c7.5-3.3 14.9-7.9 22-12.4q.1-.1.3-.1.1 0 .3 0 .1 0 .3.1.1 0 .2.1.6.5.5 1.2-.5 6.3-1 11.6 0 .2 0 .4-.1.2-.2.4-.1.2-.3.3-.1.2-.3.3-16.6 10.2-33.4 20.7-10 6.3-19.4 13.2-.1 0-.1 0-.1.1-.2.1-.1 0-.1 0-.1 0-.2 0-1.2-.2-.9-1.5 1-4.5 1.9-8.6c.8-4 2.4-6.3 5.1-8.9q.4-.4 0-.7c-.9-.5-1.6-1.3-2.5-1.8z"/><path d="m423.5 167q1.6-2.3 2.3-4.5 1.2-3.8 2-7.8.1-1 1.1-.7.4.1.5.5 2.1 11.2-.3 19.6-.9 2.9-2.6 6.1-2 4-5.6 6.5-7.6 5.2-13.8-1.2-1.4-1.4-2.5-3.1c-3.9-5.6-5.1-13.6-4.2-20.3q.9-7.6 3.6-15.5 4.1-12.2 8.8-23.9 1.8-4.6 3.4-11.6.2-1.1 1.5-.8.4.1.5.5c1 2.7.1 7.8-.8 10.9q-2.2 8.1-5.1 18-2.3 7.8-3 15.9c-.5 5.4.2 10.1 4.1 14.1q1 1 2.3 1.2 2 .3 3.6-.6 2.8-1.4 4.2-3.3z"/><path d="m307 199.6c5.5-2.2 7.2-10.3 8.1-15.4q0 0 0-.1.1-.1.1-.2.1 0 .1-.1.1 0 .1-.1.6-.3 1 0 .4.2.4.6 1.7 9.7.2 17.1c-1.3 6.3-5 13.5-11 16.1-5.6 2.5-10 0-13.2-4.4-8.9-12.2-4.8-28-.1-40.9q3.6-9.9 7.8-21 1.9-4.9 2.9-10.3.2-1 1.1-1.1.3-.1.5 0 .2.1.4.2.2.2.3.4.1.2.1.4.4 5.8-1.3 11.7-3 10.5-5.9 20.8c-1.7 6.2-3.1 14.1-1.3 20.5 1.3 4.3 5 7.7 9.7 5.8z"/><path d="m835.8 232.3q3.1-5.5 3.8-11.5 0-.1 0-.2.1-.1.2-.2 0 0 .1-.1.1-.1.2-.1.4-.2.8 0 .4.1.5.6 1.8 10.1 0 17.8c-1.4 6-4.8 12.6-10.5 15.3q-6.4 3-11.4-2-5.5-5.5-6.8-12.8-1.2-7.1-.1-13.5.5-3 1.4-6.4.9-3.3 2-6.5 3.4-10.5 8.9-24.4 2-5.4 3.2-11.1 0-.2.1-.4.1-.2.3-.3.1-.1.3-.2.3 0 .5 0 .9.1 1 1.2c.4 3.8-.2 7.9-1.2 11.4q-3.2 11-6.2 22.1-1 3.8-1.5 7.9-.9 6.2.6 11.9.2.8.7 1.4.4.4.6.9.2.6.6 1 3.5 3.9 7.8 2.1 2.6-1.1 4.1-3.9z"/><path d="m562.5 221.1 109.8-39q.2-.1.5 0 .3 0 .5.2.3.2.4.5.1.3 0 .6l-2 10.9q0 .2-.1.3-.1.1-.2.3-.1.1-.2.1-.1.1-.2.2l-109.8 38.9q-.3.1-.5.1-.3-.1-.6-.3-.2-.2-.3-.5-.1-.2 0-.5l2-11q0-.1 0-.3.1-.1.2-.2.1-.1.2-.2.1-.1.3-.1z"/><path d="m165.4 228.5 78.6-28.7q.2-.1.5 0 .3 0 .5.2.2.2.3.4.1.3.1.6l-2 11.1q0 .1-.1.3-.1.1-.2.2 0 .1-.2.2-.1 0-.2.1l-78.4 28.5q-.2.1-.5.1-.3-.1-.5-.2-.2-.2-.3-.5-.1-.3-.1-.5l1.9-11q0-.1 0-.3.1-.1.2-.2.1-.1.2-.2.1-.1.2-.1z"/><path d="m456.7 384.9q0 0 0 0-.2 0-.2-.1-.8-2.1-1.9-4.2-.1-.3-.5-.3-2.1.2-4.1.7-14.1 3.6-31.6 3.6-8.5 0-14.4-2.4c-13.7-5.6-20.4-17.5-20.2-31.9q.1-5.6 1.7-12.4c3.4-14.5 13.9-32 29-36.7 10.6-3.4 22.5 5.6 29.4 12.9 8.4 8.8 14.6 18.7 19 29.8q.1.1.1.1.1.1.2.2.1 0 .2 0 .1 0 .2 0 16.1-4.4 30.2-12 6.7-3.6 13.4-7.3 0-.1.1-.1 0-.1 0-.2 0 0 0-.1 0-.1-.1-.1c-10.9-8.2-23.1-17.2-36.1-19.8q-3.5-.7-8.9-.3c-.8.1-1.2-.3-1.9-.1q-2.2.5-4.4 1.1-1.1.3-2.3.2-.3 0-.6.2-1.5 1-3.2 1.2-.3.1-.5 0-.3-.1-.5-.3-.2-.3-.2-.5-.1-.3 0-.6l11.4-31.3q.2-.5.7-.7 13.1-6.7 28.2-10.4 23.7-5.8 49-6.1c18.5-.3 36.7 3.7 53.8 10.9q9.2 3.9 19.8 9.2 1.6.8 3.5 1.5.2.1.3.2.2.2.3.4.1.2.1.4 0 .2-.1.4l-11.4 31.3q0 .2-.1.3-.1.1-.3.2-.1.1-.2.1-.2.1-.4.1-2.6-.3-5.4.1c-11.5 1.8-24.6 7.8-35 13.3q-.5.2 0 .5 10.7 8.5 22.5 13c23.9 9.1 52 10.1 76.4 1.3 2.7-1 5.1-2.5 7.3-4.2q.1 0 .2-.1 0-.1 0-.2.1-.1.1-.2-.1-.1-.1-.1c-.8-1.9-.7-4-1.1-5.9q-.9-3.5-1.8-7-.8-3.5-2.1-7-2.6-6.7-5.2-12.5-1.9-4.1-4.3-8.2-.2-.2-.3-.5-.1-.2-.1-.5-.1-.3-.1-.6 0-.2.1-.5.4-3.4 1.1-6.6.6-2.5.9-5.1.3-2.6 1-5.1c.4-1.4.3-2.8.6-4.3q1.1-5.2 1.7-9.9.1-.9.6-1.5.1-.3.3-.4.3-.2.6-.2.3 0 .5.1.3.2.4.4 12.6 17.1 17.6 38.2 1.8 7.6 2.6 15.9 1.5 16.9-3.8 33.4-4.1 12.5-10.1 19.4-5.3 6.1-14.6 9-28.5 8.9-58.3 2.6-1.2-.3-2.5-.5-1.3-.2-2.5-.6-3.2-1.1-6.5-2-.5-.1-.6.4-2.7 8.7-5.5 18-4.7 16-6.1 31.9-.7 8.3.3 16.6.9 7.9 3.7 14.6 7 16.9 24.5 23.5c21.9 8.3 46.4-.6 66.5-11.3q22.8-12.2 45.2-30.5c16.9-13.9 33.4-29.3 46.1-46.9q.3-.3.1-.7l-1.2-3.3q-.1-.2-.1-.4 0-.3-.3-.6-.2-.2-.4-.5-3.1-6.3-6.2-12.6-7.7-15.7-12.5-30.9-2.1-6.4-3.4-12.5 0-.2-.1-.5-.1-.2-.2-.4-.1-.2-.3-.4-.1-.2-.3-.4l-5.1-5.3q-.1-.1-.1-.2-.1-.1-.1-.2 0-.1 0-.2 0-.1 0-.2l6.9-32.5q.1-.4.3-.6.2-.2.6-.3.3-.1.6 0 .3.2.5.4 12.9 16.8 26.2 34.1 3.2 4.1 5.7 8.9.6 1.2 0 2.5-.1.1-.2.2 0 .1-.1.2-.1 0-.2.1-.1 0-.2.1-1.2.2-2.4-.3-3.9-1.8-7.9-3.2-.1 0-.2 0-.1 0-.1.1-.1 0-.1.1 0 .1 0 .2c1.7 4.2 3.3 8.2 5.5 12.6q3.4 6.8 6 14.1 3.4 9.4 4.3 19.2c1 9.8-.2 19.5-3.9 28.8-2.9 7.2-5.8 14.3-10.4 20.6q-5.1 7.2-12.6 15.1-24.7 26.3-56.2 47.6-16.7 11.3-34 19-14.3 6.4-27.8 8.7c-9.2 1.6-18 1.4-26.8-2.3-21.7-9.1-32.5-32.5-36.3-54.3q-4.1-23.2-.1-45.3 1.4-7.7 3.5-15.5 3.4-13.2 9-26.9.3-.7-.4-1-10.4-4.3-19.3-10.9-12.9-9.6-25.5-18.9-.1-.1-.2-.2-.1 0-.2 0-.1 0-.2 0-.1.1-.2.1-3.9 2.5-8.1 4.9-16.2 9.1-31.9 17.7-10.2 5.7-20.7 9.4-.4.2-.4.7.3 3.3.3 6.7.3 11.9-1 17.3-.9 3.3-1.1 4.3-1.1 5.1-2.6 9.3c-3.5 10-10.5 19.8-17.4 28-18.3 21.7-41.8 41.6-66.2 57.6-17.8 11.7-38 21.9-58.8 25.1-32.3 5-52.5-21-59.4-49q-5.2-21.6-3.1-43.5c.3-3.3 1-6.4 1.3-9.6q.3-1.9.7-3.9 1.3-5.9 2.8-11.4 4.2-16.2 10.4-30.1.1-.1 0-.2 0-.1 0-.1-.1-.1-.2-.1-.1.1-.1.1c-16.9 15.7-35.1 31.1-55.1 42.1-9.9 5.4-20.5 8.8-32.5 9.4-14.9.8-27.3-4.4-35.4-17.5-10.5-17-13-40-9.6-59.2q3-17.7 11.5-36.6 11.2-25.2 26.7-45.5c1.6-2 5.4-7.1 7.9-7.7q.3-.1.6 0 .4 0 .6.2.3.2.4.5.1.3.1.6 0 1.6-.9 3.3-5.6 11.4-11.7 21.9-12.2 20.8-19.2 41.6-.4 1.4-.7 2.6c-.4 1.5-1.2 3.1-1.4 4.6q-.2 1-.4 2-3.3 12-2 24.6.8 7.5 4 14.4 1.1 2.6 2.9 4.7 6.8 7.8 17.6 9.8c13.3 2.4 28.2-1.2 40.3-7.5q15.7-8.2 32.9-22.4 15.3-12.7 27.2-24.1c26.4-25.1 51.4-50.5 78.5-75.4q20.8-18.9 43.5-35 16.2-11.6 35.4-19.5 8.1-3.3 15.9-4.3 5-.7 10-.1 12.4 1.4 20.5 10.1c4.6 5 8.2 10.1 9.4 17.1q.6 3.5.3 9.3-.4 9.2-.7 18.2 0 .3-.1.6-.1.2-.3.5-.1.2-.4.4-.2.2-.5.3c-1.4.5-2.9-1.4-3.7-2.3-5.5-7.4-9.6-13.5-18.9-17s-20.1-2-29.5 1.5c-15.5 5.8-30.4 14.9-43.9 24.7-20.6 15.3-39.7 32.5-58.5 50.7q-26 25.2-53.2 51.5-.2.2-.2.5-.9 6.1-2.7 12-4.2 13.4-6.7 23-2.3 8.4-3.8 18.2-1.6 10.3-1.1 19.9.4 8.9 3.2 17.1 5.4 15.7 19.7 23.5c17.9 9.6 38.8 5.9 56.9-1.5 24.2-9.8 46.8-25.4 66.8-42.2q19.8-16.5 34.4-33.6 4.6-5.3 9.5-12.2.6-.8.2-1.7-1-2.4-2.2-4.9-.5-1.2-.6-2.4-.1-.2-.2-.1zm103.1-88.3 2.2-1q.7-.3 0-.5-12.1-2.6-21.4-3.1-9.2-.5-22.7.5 0 0-.1.1 0 0 0 0 .1.1.1.1.2 0 .3 0 .1.1.2.1 9.4 7.3 19.2 14.5.2.1.3.1.2.1.4.1.2 0 .4 0 .1 0 .3-.1 9.6-5.3 19.7-10.1.2-.1.4-.2.3-.3.7-.5zm-156.5 48.5q.8.7 1.7 1.1 4.3 1.9 8.7 2.5 10.8 1.7 22.3.5.1 0 .2-.1 0 0 .1-.1 0-.1 0-.2 0 0-.1-.1c-4.9-6.8-11.9-13.1-20.6-13q-9.2 0-12.9 7.5 0 0-.1.1 0 .1 0 .1 0 .1 0 .2 0 0 0 .1 0 1.3.5 1.4.1 0 .2 0z" fill-rule="evenodd"/><path d="m704.3 223.6c1.5-.1 3.2-.2 4.8.1 10.4 1.9 13.9 10.1 12.8 19.9q-.5 4.6-1.4 9.6-.9 5.6-2.9 8.9c-3.6 6-10.5 10.3-17.6 9-11.8-2.3-14-15.6-11.9-25.6q1.7-8.1 5.6-15.9c3.7-7.5 5.8-13.2 6.7-20.4q.2-1.5 1.3-1.4.1 0 .3.1.1 0 .3.1.1.1.2.3 0 .1.1.2 1.1 3.5 1.8 6.5.5 2.4-.5 8.1-.1.5.4.5zm-6.9 25.9q2.5 3.7 7.7 4.3 7.1.9 11.5-3.6 1.1-1.1.5-2.4c-3.5-7.5-12.1-9.1-19.6-8q-.4 0-.5.4-1.9 5.6.4 9.3z" fill-rule="evenodd"/><path d="m264.9 309.9q-11.7-6.1-23.4-11.9-.3-.1-.5-.3-.2-.2-.3-.5 0-.3 0-.5 0-.3.1-.6l14-30q.6-1.2 1.8-.6 15.3 7.3 29.1 15 .2.1.4.4.2.2.3.5.1.3.1.6 0 .3-.2.6l-13.8 29.7q-.6 1.4-2 .8-1.5-.6-2.9-1.5-1.3-.9-2.7-1.7z"/><path d="m196.4 360.4c4.1-3.1 5.8-9.5 6.6-14.5q0-.2.1-.3 0-.1.1-.2.1-.1.3-.2.1-.1.2-.1 1-.2 1.1.8c1.6 9.3 1.3 18.6-3.8 26.7-2.9 4.8-8.7 9-14.4 6.9q-2-.8-3.7-2.5-5.4-5.2-6.8-12.9-1.2-6.4 0-13.5 1-6.6 3.2-13 3.1-9.3 8.7-23.5 2.3-5.8 3.4-11.9.1-.2.1-.3.1-.2.3-.3.1-.1.3-.2.1-.1.3-.1 1.1-.1 1.3 1c.6 4.2-.4 8.9-1.6 13q-4.6 15.9-6.3 22.8-1.5 6.1-1.4 12.8.1 1.7.6 3.5.8 2.6 1.2 3.4c.6 1.2 2.6 2.9 4 3.5q3.2 1.4 6.2-.9z"/><path d="m322.1 442.9c3.5 3.2 8.6 1.1 10.8-2.4 2.4-3.7 3.1-7.5 4.1-11.9q.1-.4.4-.6.5-.3.9 0 .3.2.4.6c1.7 9.1 1.3 19.2-4 27.2q-3.3 5.1-8 6.6-2.4.8-5.4.1-2.5-.6-4.5-2.7c-7.7-7.9-8.5-19-6.2-29.5q1.1-5.1 1.6-6.6 3.8-12 9.3-25.7 2.5-6.3 3.9-13.1.1-.3.3-.5.2-.2.4-.3.3-.1.6 0 .3.1.5.3c1.7 1.6-.1 10.1-.8 12.3q-3.3 11.6-6.4 22.9-1.9 7.1-1.5 14.5c.1 3.2 1.3 6.6 3.6 8.8z"/><path d="m598.3 435 14-30q.1-.2.3-.4.2-.2.5-.3.3-.1.6-.1.2 0 .5.2l29.1 14.9q.2.2.4.4.2.2.3.4.1.3.1.6 0 .2-.2.5l-13.9 30q-.2.3-.4.5-.2.2-.5.3-.2.1-.5 0-.3 0-.6-.1l-29.1-15q-.2-.1-.4-.3-.2-.2-.3-.5-.1-.3-.1-.5.1-.3.2-.6z"/><path d="m510.3 467.3c1.3 0 2.3.5 3.5-.2 5.4-2.7 7.4-9.5 8.2-15.1q0-.6.4-1 .4-.3.9-.1.1 0 .2 0 0 .1.1.2 0 0 .1.1 0 0 0 .1c2 9.7 1.4 20.4-4.5 28.4-4.4 6-11.8 8.8-17.6 2.8-6-6.1-7.7-14.6-6.9-23.1q.7-7.6 4.1-17.3 4.2-12.1 8.8-24 1.9-5.1 2.9-10.1 0-.1.1-.2 0-.1.1-.2 0-.1.1-.2.1-.1.2-.1.8-.5 1.4.1.1.1.2.2 0 .1.1.2 0 0 0 .1 0 .1 0 .2.5 5.7-1.1 11.3-2.5 8.9-5 17.5-2.5 8.3-3.1 17.3-.2 2.8.8 6.6.8 3.6 3.8 5.8 1 .7 2.2.7z"/><path d="m920.4 441.4c-8.9-3.1-15.2 7.9-19.1 13.7q-.6.9-1.4.3-.2-.1-.3-.2-.1-.2-.1-.4-.1-.2-.1-.4 0-.1 0-.3 1-4.6 2.3-9.2c2.7-10.3 9-21.6 19-25.3q4.9-1.9 8.6 1.2c4.9 3.8 6.5 11.4 6.4 17.5-.1 23.5-16.4 44.7-33.3 59.5q-.1 0-.2.1-.1 0-.2.1-.1 0-.2.1-.1 0-.2 0-.8.2-1.2-.4-.2-.4 0-.9.5-1.1.7-1.5c4.9-7.2 10.9-14.1 15.6-21.7q5.9-9.6 7.5-19.5.8-5.6-1.3-10.3-.8-1.8-2.5-2.4z"/><path d="m218.5 501.5q-1.3-1.7-2.1-3.6-2.7-6.5-2.4-13.4.4-7.1 2.4-14.4c2.8-9.6 6.6-19.1 10.2-28.3q2.2-5.7 3.3-11.6 0-.1.1-.2 0-.1.1-.2 0-.1.1-.2.1 0 .2-.1.9-.7 1.4.1c1.5 2.5-.1 9.6-.8 12q-3.7 12.8-6.6 23.8-2.2 8.7-1 16.4.5 3.2 2.5 5.5 2.8 3.1 6.2 2.3c6.5-1.6 8.4-10.1 9.4-15.7q0-.3.2-.5.3-.4.8-.3.1 0 .3 0 .1.1.2.2.1.1.2.2.1.1.1.3 1.1 6.7.7 13.1c-.6 7.6-4.6 17.8-12.5 20.5q-6 2-10.4-2.8-1.3-1.4-2.6-3.1z"/><path d="m394.8 852.1q-.7.7-1.7 1.1-3 1.3-5.8 2.2-5.8 1.8-13 2.7-2.8.4-5.8.4-3-.1-6-.2-3 0-5.9-.8-2.2-.6-4-1.2-.5-.2-.6.3-1.2 3.5-1.7 6.3c-.6 2.7-1.4 5.2-1.7 7.9q-.1 1.5-.5 3.1-.4 1.3-.5 2.9c-.4 4.3-1.4 8.7-1.3 12.9q0 2 .8.2 3.8-8.7 7.1-15.3 1.3-2.6 2.6-5.8.7-1.8 1.8-3.2.1-.2.3-.4.3-.1.5-.2.3 0 .5 0 .3 0 .5.1 4.9 2.5 10.4 5.7 3 1.8 5.9 3.5 6.7 4.1 13.2 7.8.2.1.4.2.2 0 .3-.1.2 0 .4-.1.1-.2.2-.3l13.7-24.7q.2-.3.5-.6.3-.2.6-.3.4-.1.8 0 .3 0 .7.2 14.5 8.1 28.4 16.8.2.1.3.3.2.2.3.4 0 .2 0 .4 0 .3-.1.5l-14.1 29.6q-.9 1.8-2.7.8l-29.4-17.5q-1-.6-1.6.5l-13.7 24.6q-.2.3-.4.5-.2.2-.5.2-.3.1-.6.1-.3-.1-.6-.2l-25.8-15q-.1 0-.2 0-.2 0-.3 0-.1.1-.2.3 0 .1 0 .2.3 4.1 1.1 8.5.9 5.2 3.3 10.7.3.6.5 1.1 6.2 13.5 19.5 19.9c22.4 10.9 48.6 2.3 69.6-8.7q16.1-8.4 30.7-18.7.3-.3.3-.8c-.2-3.9-.8-7.9-.8-11.9q-.3-15.4 3.2-31.6 3.5-15.6 9.2-30.6 0-.1 0-.2 0-.1 0-.1-.1-.1-.2-.2 0 0-.1 0c-12.9-3.1-19.9-12.6-21.1-25.2q-.6-6 .3-11.9.2-1.6.4-3.1.2-1.6.6-3.1 1.4-5.2 3.1-9.5c4.5-11.4 15.9-27.2 29.4-28.4 7.8-.8 16.5 4.3 22.2 9.4q17.4 15.4 24.6 36.5 7.8 23.3 5.2 48.5-.7 6.3-2.7 14-1.9 7.2-5.3 13.2-5.9 10.5-13.4 19.3-14.6 17.1-32.6 32.3-.1.1-.1.2-.1.2-.1.3 0 .1.1.2 0 .2.1.3c14 12.5 33.3 14.2 50.9 9.6 19.1-5.1 36.9-14.8 53.6-26q33.7-22.7 60.5-52.5c4.2-4.7 8.1-9.8 11.6-15q0-.1.1-.2 0-.1 0-.2 0-.1 0-.2 0-.1-.1-.2l-4.5-10.8q0-.1-.1-.2-.1-.1-.2-.1 0-.1-.1-.1-.1 0-.2 0-17.5 3.8-38.1 3.1-6.9-.2-11.8-2c-15.2-5.7-22.5-20.3-20.8-36 1.9-17 11.2-36.3 27.1-44.1q7.1-3.4 14.5-.9 8.4 2.8 16.3 10.5 14.5 14.2 21.6 33.1 0 .1.1.2 0 .1.1.1.1.1.2.1.1 0 .2 0 16.7-4.2 27.9-13.1c8.3-6.6 15.6-16 22.8-24.3 1.6-1.7 8-8.3 10.6-5.7q1.2 1.3 1.2 3.2-.1 4-.1 8c.1 8.6 5.2 17.7 10.9 24.1 8.6 9.6 26.5 9.8 37.5 5.4q5.2-2.2 9.6-4.9.2-.1.3-.2.1-.1.2-.3 0-.1.1-.3 0-.1 0-.3-.8-14.4-1.7-26-4.3-59.6-9.5-125.3-4.5-57.1-8.5-104.5-.4-4.2-.8-7.8-.5-3.9-1.9-7.6-1.9-4.7-3.6-9.6-.1-.2-.1-.3 0-.1 0-.3 0-.1 0-.3 0-.1.1-.2l12.5-30.5q.2-.3.5-.5.3-.2.7-.2.4 0 .7.2.3.2.5.5 3.9 9.7 7.2 18.8.9 2.5 2 4.8.4.9.6 1.9.1.7.4 1.3 6.3 16.1 11.8 32.9 2 6.2 3.1 12.5.4 1.8-.2 3.4-.1.3-.3.5-.3.3-.6.4-.3.2-.6.2-.4 0-.7-.1-1.3-.6-2.3-1.6-5.3-5.4-9.5-10.3-.6-.7-.5.2 6.3 79.4 12.8 164 .4 4.2.7 8.3 2.1 26.2 2.1 50.2 0 13.6-2.3 26.2c-1 5.5-3 11.1-4.7 16.5-1.9 6.2-5.5 11.9-10.6 16q-9.4 7.6-19.8 9.6c-11.3 2.1-25.4-.1-33.2-9.2q-7.4-8.7-10.3-19.1-1.3-4.9-2.2-9.8-.5-2.3-1.7-4.6 0-.2-.2-.3-.1-.1-.3-.1-.1 0-.3.1-.2 0-.3.2-7 9.2-15.7 18.8c-8.1 9-15.8 15.2-27.6 20.1q-.4.1-.4.6.4 5 .4 9.8-.1 8.9-2.9 19.7-2.1 8.1-4.9 13.4-6.4 12-16.2 23.2-21.5 24.7-51.3 46.6-15.6 11.5-33 20.7c-14.4 7.5-29.9 13.3-45.5 14.1-23 1.1-40-16-48.3-35.8q0-.1-.1-.2-.1-.1-.1-.1-.1 0-.2 0-.1 0-.2.1-14.3 11-29.5 19.9-1.1.6-2.3 1.2-1.3.5-2.3 1.4-.1.1-.2.1 0 .1-.1.1-.1.1-.2.1-.1 0-.2 0-.9 0-1.5.6-.5.5-1.2.9-2.8 1.4-5.7 2.8 0 0-1.8.7-.8.3-1.4.8-.3.3-.8.4-1.9.5-3.5 1.6-.4.2-.9.2-.8 0-1.5.5-.6.4-1.5.7-2.3.9-4.5 1.8-2.2.9-4.8 1.6-3.8.9-7.6 1.9-.5.1-1.9.2-.9.1-1.7.3-17.9 3.8-32.5-4.8c-13.4-7.9-22.4-21.7-27.1-36.5q-9.5-29.9-3.7-61.8 2.1-11.1 5.6-22.8 0 0 0-.1 0-.1 0-.1 0-.1 0-.2-.1 0-.1-.1-3.1-3-5.8-6.2-2.7-3.3-5-7.1-4.7-8.2-7.7-16.9-3.9-11.5-6.4-24.3-.8-4-1.5-7.6c-.5-2.5-.6-5-1.3-7.4q-.2-.7-.3 0-2 7.3-4.9 13.3c-3.9 8-11.6 13.9-19.3 18.3-12.8 7.2-51.2 22.3-59.8 1.1q-2-4.9-2.1-10.5-.1-3.5-.1-6.9 0-3.8.7-6.9 3.4-15.2 12.6-28.6c8.3-12.1 17.8-22 29.2-31q13.2-10.7 25.6-19.9.7-.5.4-1.2l-7.7-17.8q-.2-.3-.1-.7 2.4-8.9 5.1-18.7 1.8-6.5 3.2-12.8.2-.7.8-1.1.2-.1.4-.1.2-.1.4 0 .2 0 .4.2.2.1.3.3 6.8 11.9 12 24.9 1.1 2.7 1.9 5.3.9 2.8 1.9 5.5.1.2.3.4.1.1.4.1.2.1.4 0 .2 0 .3-.2 3.9-3.7 7.8-8c5.5-6.3 9.5-13.1 13.6-20.1q1.5-2.6 3.3-4.8.2-.3.6-.5.4-.1.8-.1.4.1.7.3.3.2.5.6.4.9.2 2-1.2 9.4-3.1 16.4c-3.2 12.5-11.3 23.1-20.5 32.2q-.1.1-.2.2-.1.1-.1.2-.1.2-.1.3 0 .2 0 .3 1.1 5.5 2 11.9 3.2 21.4 6.7 42.1c2.7 16.5 7.1 35.2 19.1 47.7 10.5 10.8 30.4 8 43.6 3.6q5.5-1.8 9.2-4.8.3-.2.3-.6-1-5.5-2-9.7-.9-3.5-2-7.2-1.1-3.7-2.4-7-3.7-9.1-8.5-17.6 0 0-.1-.1 0-.1 0-.2 0-.1 0-.2 0-.1 0-.2 1.2-6.7 2.2-13.2.3-2 .6-4.3.3-1.9.8-3.8.5-1.9.8-3.7.5-4.2 1.4-7.8 0-.3.2-.5.3-.2.6-.3.3-.1.5 0 .3.1.5.4 3.4 4.2 5.9 8.5 9.2 15.5 12.7 33.3c3.9 19 2.5 36.8-5.3 54.2-2.8 6.3-6.8 12.3-12.7 16.1q-.9.5-1.8.7-.4.1-.6.3zm-81.5-94.9c-1.5-7-2.7-12.7-4.5-19.2q-1.1-4.1-2.3-8-.1-.2-.2-.3-.1-.1-.2-.1-.2-.1-.3 0-.1 0-.3.1-11.6 8.8-22.7 17.7-10.7 8.5-18.3 15.6-7.8 7.3-15.5 18.7-.6.8-1.3 1.4-.7.8-1.1 1.7c-.3.8-.8 1.4-1.4 2q-.2.4.1.6 1.5.9 3 1.9 1.4.8 2.9 1 1.2.2 2.5.5 1.2.2 2.5.3 9 .3 20.2-2.9c12.5-3.6 24.7-9.3 34.3-18q2-1.9 3.8-4.2 0-.1.1-.2.1-.1.1-.3 0-.1 0-.3.1-.1 0-.2-.5-3.8-1.4-7.8zm299.7 39.6c4 2.6 9.7 4.1 14.4 4.5q9.5.8 19.3.2.1 0 .1 0 .1 0 .1-.1 0-.1 0-.1 0-.1-.1-.1c-4.1-5.3-8.7-10.5-14.9-12.5-7-2.4-17-.7-19.2 7.3q-.1.1-.1.2.1.2.1.3 0 .1.1.2.1 0 .2.1zm-104.5.1q-3.4-3.1-7.3-4.9-9-4.3-17 .9-3.1 1.9-4.1 5.8-.1.5.2.9.6 1 1.7 1.5 5 2.2 10.9 1.8 8.5-.5 19.7-1.5.5-.1.2-.4c-1.4-1.4-2.9-2.7-4.3-4.1zm24.8 44.3c-6.1-4.2-13.5-4.9-20.6-4.4q-11.7.8-22.6.5-.5 0-.6.4-4.7 15.6-6.5 23.1-1.8 7.6-2.9 15.3-2.2 14.3.1 28.1.1.6.5.3c20.9-16.1 40.9-34.5 56.1-55.7.9-1.2.8-2.1.1-3.4q-1.3-2.6-3.6-4.2z" fill-rule="evenodd"/><path d="m869 559.1q-.5-.6-.4.2 8.4 108.5 16.3 211.3 1.2 15.8-.6 30.7-.3 2.5-1 4.7-.6 2.1-.8 4.2-.4 3-1.7 6.2c-.1.5-.1.9-.2 1.4q-1.6 7.8-5.3 17.7-.2.4-.4.6-.3.3-.7.3-.4.1-.7 0-.4-.1-.6-.4-.7-.8-.9-2-.3-3.9-.5-7.9c-.5-11.7-1.2-23-2.1-34.5q-4.2-52-8.6-104.8c-.2-1.8 0-3.8-.3-5.6q-.2-1.1-.3-2.2-8.2-99-10.5-131.4-.3-4.6-1.1-7.2-1.5-5.1-3.1-10-.5-1.7-1.3-3-.1-.1-.1-.3-.1-.1-.1-.3 0-.1.1-.3 0-.1 0-.2l12.2-29.5q1.7-4 3.1.1 2.6 7.1 5.5 14.3c.2.6.2 1.3.4 1.9q6.4 17.3 12.3 36 3.3 10.4 5.1 18.7.3 1.4.3 3.3.1 1-.5 1.6-.2.1-.5.2-.2.1-.5.1-.3 0-.5-.1-.2-.1-.4-.2-1-.9-1.8-1.9-5.1-6-9.8-11.7z"/><path d="m528.5 534.4q-2.1 5.4-3.2 14.3c-1.3 11.1-2.1 22.2-5.2 33q-.5 1.8-1.6 2.7-1.8 1.4-3.7 2.9-.3.2-.6.2-.3.1-.5 0-.3-.1-.5-.4-.2-.2-.3-.5c-2.7-14.5-7.2-29.2-15.6-41.3q-.1-.1-.2-.1-.1-.1-.2-.1-.1 0-.2.1-.1 0-.2.1l-1.8 2.5q-.3.5-.8.4c-7.1-1.2-17.9-6.7-13.1-15.3q2.4-4.3 4.5-8.4c.6-1.2 1.8-2.1 3.2-1.8q6.6 1.3 11.3 5.6c9.5 8.7 14.7 22.9 17.4 35.5q.2 1.1.4 0 1.4-8.3 2.6-16.7 1.2-8.2 3.1-15.7 1.2-4.7 2.9-8.9.8-2.2 2.4-4.5c4.1-5.7 9.8-3.4 13.7.8q2.8 3.1 5.1 6.6.1.1.1.3.1.1.1.3 0 .2 0 .3 0 .2-.1.3l-4.2 10q-.1.2-.3.4-.1.1-.3.1-.2.1-.5 0-.2 0-.3-.2-2.6-2.4-6-4.8-1.4-1-2.9-1.1-1.4-.2-2.5.8-1.5 1.4-2 2.6z"/><path d="m383 594c8.3 1.2 10.8-10.1 11.9-16q0-.1.1-.3.1-.1.3-.2.2-.1.3-.1.2 0 .4.1.6.3.7 1c1.6 9.9 1.1 20-4.9 28-3.9 5.3-11.3 8.4-16.8 3.2q-5.3-5.1-6.9-12.6-1.6-7.9.1-16.4 1.3-6 3.2-11.7 4.2-11.8 9.1-24.4 1.7-4.5 2.7-10 .1-.1.1-.3.1-.1.2-.3.1-.1.3-.2.1-.1.3-.1.7-.3 1.1.3c1.3 1.7 0 8.8-.5 10.7q-2.7 10-5.9 20.7-3 10.4-2.3 19.3.3 3.9 2.8 7 1.5 2 3.7 2.3z"/><path d="m601.5 598.1c6.5-1 8.7-10.4 9.5-15.7q.1-.3.4-.6.4-.3.9-.1.4.1.5.5c1.5 8.8 1.4 17.6-3 25.7-3.9 7.3-12.7 12.6-19.5 5.1-10.5-11.6-6.8-28.2-2-41.6q3.9-10.9 8.5-23 1.6-4.3 2.6-9.4.3-1.4 1.7-1 .4.1.5.6c.8 3.6-.1 8.7-1.2 12.1q-3.3 11.4-6.1 21.9c-1.8 6.7-3.9 19.3 2.2 24.3q2 1.7 5 1.2z"/><path d="m344.3 566.4-1.2 2.4q-.1.2-.3.4-.3.2-.5.2-.3 0-.5 0-.3-.1-.5-.3-3.2-3.3-7.2-5.1c-4.1-2-6.3 4.1-7 7.2q-1.4 6.4-2.1 12.4-.7 6.4-1.4 12.7-1.1 8.8-3.5 18.5-.2.9-.9 1.4-2.2 1.7-4.3 3.6-.1.1-.2.2-.2.1-.4.1-.1.1-.3.1-.2 0-.3-.1-.8-.2-.9-.9-2.1-12.8-7.4-26.2-3.1-7.7-7.9-14.6-.1-.2-.3-.3-.2-.1-.4-.1-.2 0-.4.1-.2.2-.3.3l-1.2 1.8q-.5.8-1.4.6-5.2-1-8.9-3.4-1.9-1.3-3.4-3.2-1.7-2.4-1.6-4.9.1-1.9 1.4-4.3 2.3-4.1 4.5-8.3c.7-1.2 1.9-1.7 3.3-1.4q8.2 1.8 13.8 8.5c7.6 9 12 20.5 14.4 32q.4 2 .7-.1 1.5-10 3.2-20.3.8-4.5 1.8-8.6 1.1-4.7 2.3-8.6 1.4-4.7 4.2-8.3c2.7-3.4 6.9-3.5 10.2-.9 3.3 2.4 5.7 5.6 7.9 9q.1.1.2.3 0 .2.1.4 0 .2-.1.4 0 .1-.1.3-1.4 3.2-2.7 6.6-.1.1-.2.2-.2.1-.2.2z"/><path d="m736.1 569.9q-.3.3-.7.4-8.3 3-17 6.1-4.8 1.8-9.7 3.6-3.9 1.4-7.8 2.5-.4.1-.7.3-.2.2-.5.3-15.6 5.6-31.4 11-.9.3-1.8.7-1 .5-2.1.8-3.6 1-6.9 2.4-1.8.7-3.7 1.3-2 .6-3.9 1.4-2.1.9-4.2 1.5-2.3.7-4.4 1.6-1.4.6-2.8.9-1.3.4-2.6.9-1.3.5-2.6.8-.2.1-.3.1-.2-.1-.3-.2-.1 0-.2-.2-.1-.1-.2-.2-.2-1.4 0-2.6.8-3.9 1.6-8.7.1-.2.2-.4.1-.2.2-.4.1-.2.3-.3.2-.1.4-.2l114.2-40.5q.2 0 .4 0 .2 0 .4.1.1.1.2.2.1.2.2.4.1.6-.1 1.4-.9 4.7-1.6 9.7-.1.2-.2.4-.1.2-.2.3-.1.2-.3.3-.2.1-.4.2-3.9 1.4-8.2 3.1c-1 .4-1.9.3-2.9.7q-.1 0-.1.1-.1 0-.1 0-.1 0-.1.1-.1 0-.1.1z"/><path d="m669.6 623.5c-.6.8-1.6 1.3-2.1 2.2q-1.8 2.8-2.1 3.8-.4 1.8-.9 3.5-.6 1.7-.9 3.4-.6 4-1.4 7.8-.1.3-.2.5-.2.2-.5.2-.2.1-.5 0-.2-.1-.4-.3-.5-.5-.6-1.2-1.9-10.4-.3-19.2.6-3.7 3.3-7.9 3.7-5.8 10.3-7.5 2.1-.6 4.1.5 1.7.8 2.2 2.6 1 2.8.6 5.3-.8 6.1-.8 12.7 0 2 .6 3.8.5 1.8 1.4 3.4c2.5 4.4 7.8 6 12.4 4.3q3.4-1.2 5.9-4.4c2.4-3.2 2.7-6.3 1.7-10q-2.1-7.7-5.7-14.4-.5-.8-.2-1.7 1-3.9 2.2-7.8 0-.2.2-.4.2-.1.5-.2.2 0 .4.1.3 0 .4.2 1.7 2.1 2.7 4.9 2.6 7.4 4.8 15.8c1.9 7.2 6.3 12.4 14.5 10.6q1.6-.3 3-1.3c2.6-1.8-.5-7.3-1.8-9-3.7-4.7-7.8-9.7-6.9-15.8q.7-4.7 1.8-9.4 0-.2.1-.3.1-.1.2-.2.1-.1.2-.2.2 0 .3 0 1-.1 1.3 1 1.5 5.3 4.2 9.7c2.8 4.7 6.2 9.5 7.6 14.8 2 7.8-1.7 21.6-11.5 23.7q-8.6 1.8-14.1-4.7-.1-.1-.1-.1-.1 0-.1 0-.1 0-.1 0-.1.1-.1.1c-2.7 7.6-8.5 15.2-17.4 13.5-5.6-1.1-9.5-5.2-11.5-10.6q-2.9-7.3-2.2-15.2.2-3.1.2-6.7 0-1-1-1.1-1.6-.1-3 .6-.4.2-.7.6z"/><path d="m234.3 664q-.1 0-.1.1-.1 0-.1 0-11.6-7-22.9-13.1-.3-.1-.4-.3-.2-.2-.3-.5-.1-.2-.1-.5.1-.2.2-.5l13.9-30q.2-.2.4-.4.2-.2.4-.3.3-.1.6 0 .3 0 .5.1 4.2 2.1 8.5 4.6 10.2 6 21.5 12.8.1 0 .2 0 .1.1.2 0 .1 0 .2-.1.1 0 .1-.1l14.3-25.6q.1-.2.3-.3.1-.2.4-.2.2-.1.4-.1.2 0 .4.1 3.6 1.8 7.4 4 10.7 6.2 21.5 12.8 1.3.8.7 2.1l-13.9 29q-.2.5-.5.8-.4.2-.8.4-.4.1-.9.1-.4-.1-.8-.3l-29.4-17.4q-.2-.1-.4-.1-.2-.1-.3 0-.2 0-.3.1-.2.1-.3.3l-13.9 25.1q-.2.2-.3.3-.2.2-.5.2-.2.1-.4.1-.3 0-.5-.1-2.3-1.1-4.8-3-.1 0-.2-.1z"/><path d="m472.8 627.4-78.4 28.5q-.2.1-.5.1-.3-.1-.6-.3-.2-.2-.3-.4-.1-.3 0-.6l1.9-10.9q0-.1 0-.3.1-.1.2-.2.1-.1.2-.2.1-.1.3-.1l78.4-28.6q.2-.1.5-.1.3.1.5.3.3.2.4.4.1.3 0 .6l-1.9 10.9q0 .1-.1.3-.1.1-.1.2-.1.1-.3.2-.1.1-.2.2z"/><path d="m822.5 682.9c0-.4-.1-.8 0-1.1q4.2-12 8.8-23.8 2.2-5.7 3.3-11.3 0-.1.1-.3.1-.1.2-.2.1-.2.3-.2.1-.1.3-.1 1.2-.1 1.4 1.2.4 5.6-1.4 11.6-3.5 12-6.7 24.1c-.5 2-.6 4-.9 6-.8 4.8-.6 11.5 2.8 15.3q2.9 3.2 7.7 1.6 1.4-.5 2.3-1.7.9-1.1 1.8-2.4.7-.8 1-1.8.2-.7.6-1.3.3-.6.5-1.4.9-3.2 1.5-6.6 0-.4.4-.6.4-.3.9-.1.4.1.5.6 1.4 7.8.6 14.7c-.8 6.6-4.9 16.3-11.7 18.7q-6.9 2.5-11.9-3.3-6.2-7.2-6.3-17.9-.1-3.4.5-6.9 1-6.1 3.1-12.8.1-.2.2-.1 0 0 .1.1 0 .1 0 0z"/><path d="m441.9 680.1q-.7 8.1-.4 15.2c0 .5.2.8.5 1.2q.3.3.4.7.2 1.2.9 2.2.1.1.2.1.3 0 .4.2c3.1 4.5 10 5.2 14.3 2.2q3.8-2.6 5.4-6.6.9-2.2.2-5.1-2.1-8.4-5.9-15.5-.6-1.2-.3-2.5 1-3.6 2-7.1 0-.2.1-.3 0-.1.1-.2.1 0 .2-.1 0-.1.1-.1.8-.4 1.2.3 2.3 3.2 3.5 7.1 2.3 7.6 4.4 14.8 1 3.5 3.2 6.3 2.1 2.5 6.2 3.1 4.4.6 7.5-1.4c2.4-1.6.3-6.3-.9-7.9q-2.4-3.3-4.8-6.7c-4.7-6.5-2.5-12.6-1.2-19.6q.1-.2.2-.3.1-.2.2-.3.2-.1.4-.2.1 0 .3 0 .7 0 .9.6c2 6.8 5.7 12.3 9.2 18.2q5.9 9.9 1.4 20.8-1.9 4.7-5.2 7.3-3.5 2.8-8.1 2.8-6.3-.1-10.8-5-.4-.4-.6.1c-2.2 5.7-6.4 12.3-12.9 13.3q-4.1.6-7.7-1.2-2.4-1.2-4.1-2.9-1.7-1.7-3-4.1-3.3-6.2-3.4-13.3 0-5.1.4-10.9 0-.2-.1-.5-.1-.2-.3-.4-.1-.2-.4-.3-.2-.1-.5-.1-2.2-.1-3.9 1.6-1.2 1.2-2.3 2.5-.3.3-.4.7-.3 1.5-1.2 2.8-.3.4-.4.9l-2.7 13.4q0 .3-.2.5-.2.2-.5.2-.2.1-.5 0-.3 0-.4-.2c-.6-.7-.6-1.7-.8-2.5q-1.5-7.5-.9-14.1.2-2.3 1.3-6 1.6-5.2 5.4-9c2.9-3 7.6-5.7 11.7-3.9q2.1.9 2.6 3.4.6 2.9.3 5.8-.1.3-.3.1 0 0 0-.1 0-.1 0 0z"/><path d="m724.4 720.5q-12-6.2-24.1-12.3-.2-.1-.4-.3-.2-.2-.3-.4-.1-.3 0-.6 0-.2.1-.5l14.1-30.2q.1-.2.3-.3.1-.2.4-.3.2-.1.4-.1.3.1.5.2 14.4 6.9 29.1 15 .3.2.5.4.2.2.3.5.1.3.1.7 0 .3-.2.6l-13.8 29.7q-.6 1.3-2 .7c-1.8-.8-3.6-2.1-5-2.8z"/><path d="m569.8 706.7q-6.5 2.3-13 4.8-1.1.4-2.2.7-1.1.3-2.1.8c-1.1.6-2.3.6-3.5 1.2q-.4.2-.8.2-.9 0-1.7.5-1.9 1.2-4.1 1.8c-2.1.6-4 1.5-6.3 2.2q-.7.2-1.2-.2-.1-.1-.2-.2-.1-.1-.2-.3 0-.1 0-.2 0-.2 0-.3l1.7-10.5q0-.2.1-.4.1-.2.3-.4.1-.2.3-.3.2-.2.4-.3 38.4-13.8 78-28.4.2-.1.4-.1.1 0 .3 0 .1 0 .3 0 .1.1.3.2.4.2.3 1-1 5.8-1.9 11.1-.1.1-.1.2 0 0-.1.1 0 .1-.1.2-.1 0-.2 0-3 1.4-6.4 2.5-1.8.6-3.6 1.5c-1.2.6-2.5.6-3.7 1.3-1.3.7-2.9 1-4.3 1.6q-13.3 4.9-26.7 9.7z"/><path d="m362.4 764.3c-1.5-.3-2.1-1.3-3.3-2.2q-1-.8-1.7-1.8-2.5-3.4-3.3-5.5-3.6-9.4-1.5-19.9 1.3-6.7 3.2-12.4 3.3-9.9 9.2-25.1c1.3-3.2 2-6.7 2.8-10q.3-1 1.2-.8.2 0 .4.1.2.1.3.2.2.2.2.3.1.2.2.4.6 5.4-1.3 11.8-4.2 14.1-6.7 24.1-1.9 7.5-1 14.6.4 4 3 6.9 1.9 2.1 4.9 2 2-.1 3.7-1.2 1.6-1 2.6-2.8 3.3-5.7 3.9-11.8.1-.1.1-.3.1-.1.2-.2.1-.2.3-.2.2-.1.3-.1 1-.1 1.1.9 0 .4.1.8 1.6 9.4-.2 17.5-.8 3.2-3.4 7.9-2.6 4.5-7.3 6.8-3.6 1.7-7.4.5-.1 0-.1-.2-.2-.2-.5-.3z"/><path d="m582.4 873.4q2.6-2.4 3.5-4.4 2-4.9 2.8-10 0-.1 0-.2.1-.1.1-.1.1-.1.1-.1.1-.1.2-.1 1.2-.3 1.4.9 1.1 7 .6 13.5c-.7 8.1-6 20.2-15.8 20.5q-2.6 0-4.8-1.5-2.6-1.9-4.1-4-2.3-3.2-3.7-7-1.2-3.3-1.4-7.2c-.2-4.4-.2-8.8.9-13.2q1.7-6.7 4.3-14 3.5-9.6 8.5-23c1-2.7 1.5-5.4 2.1-8.1q.1-.2.2-.3.1-.2.2-.3.2-.1.4-.2.2 0 .3 0 1.2.2 1.2 1.5c.3 4.1-.4 8.1-1.5 12q-3.5 11.7-6.6 23.5-.5 1.9-.7 3.8c-.4 4.9-1 9 .5 13.8q1 3 3.8 5.2c1.3 1 3.5.6 5 .3q1.3-.2 2.5-1.3z"/><path d="m849.6 869q-1.7 2.7-3.6 5.8-.2.3-.4.4-.3.1-.6.1-.3-.1-.6-.3-.2-.2-.3-.5-.1-.5 0-1 1.5-7.1 3.5-13.3 2.7-8 8.6-14.7 4.4-4.9 10.7-6.7 2.1-.6 4.2 0 .4.2.7.5.3.4.8.4.4 0 .7.2 4.2 3.1 5.9 9.4c1.5 5.9 1.2 11.2.3 17.2q-.3 2.5-1 5c-5 18.2-17.5 33.9-31.9 46.2q-.1.1-.3.2-.2.1-.3.1-.2 0-.4-.1-.2-.1-.3-.2-.4-.4-.3-.9 0-.5.3-.9c3.9-6.7 9.1-12.6 13.4-18.6q7.1-10.1 9.7-20.9.7-3 .4-8.2-.2-4-2.1-5.9c-2.7-2.6-6.5-1.9-9.7-.3q-1.5.8-2.6 1.9c-1.7 1.5-3.6 3.3-4.8 5.1z"/><path d="m747.3 893q.2-4-1-7.6-1.4-4.1-5.9-3.9c-7.1.3-12.5 7.8-15.7 13.8q-.6 1.2-1.9.7-.5-.1-.4-.6.1-1.6.5-3.2 1.8-8 3.9-13.2c3-7.5 8.6-15.4 16-18.5q7.1-3 11.7 3.2c4.6 6.4 4.8 16 3.5 23.6-3.7 20.4-17.1 37.5-33 51.4q-.2.1-.4.2-.2 0-.4 0-.2 0-.4-.1-.2-.2-.4-.3-.4-.7.1-1.6 4.2-6.7 10.1-14 8.2-10.2 12.2-22.2 1.4-4.1 1.5-7.7z"/><path d="m448.1 970.6q.6-.1 1.1-.3 5.9-2.4 11.7-4.6 5.1-1.9 10.6-4 .1-.1.4-.1.2 0 .4 0 .2.1.3.2.2.1.3.3.2.3 0 1-3.3 9.2-6.7 18.5 0 .1-.1.2-.1.2-.2.3-.1.1-.2.2-.2.1-.3.1-2.7 1.1-5.1 2-56 21.1-107 40.9-3.3 1.3-6.2 2.4-1.5.5-2.6 1.1-1.3.6-2.6 1.2-1.1.5-2 1.2-.8.8-1.6 1.5-.1.2-.3.2-.2.1-.3.1-.2 0-.4-.1-.2 0-.3-.2-.6-.5-.4-1.3 3.5-9.7 6.8-18.4.5-1.3 1.8-2.4 1.8-1.5 6.3-3.2 32.9-12.4 66.9-25.7 3.4-1.3 6.4-2.3 3.2-1.1 6.4-2.3 6.3-2.4 12.6-4.9c.7-.3 1.4-.3 2-.8q.3-.3.9-.5.7-.2 1.4-.3z"/></svg>