<svg height="1080" viewBox="0 0 1080 1080" width="1080" xmlns="http://www.w3.org/2000/svg"><path d="m23 73c0-27.6 22.4-50 50-50h934.5c27.6 0 50 22.4 50 50v934.5c0 27.6-22.4 50-50 50h-934.5c-27.6 0-50-22.4-50-50z" fill="#e6dac8"/><path d="m37 227c0-27.6 22.4-50 50-50h906c27.6 0 50 22.4 50 50v627c0 27.6-22.4 50-50 50h-906c-27.6 0-50-22.4-50-50z" fill="#f7f1ec"/><g fill="#3c2a21"><path d="m973.8 567v54.2h-759.4v-54.2z"/><path d="m973.8 621.2h-54.3v-162.8h54.3z"/><path d="m865.3 458.4v162.8h-54.3v-162.8z"/><path d="m756.8 458.4v162.8h-54.2v-162.8z"/><path d="m594.1 458.4v162.8h-54.2v-162.8z"/><path d="m431.4 458.4v162.8h-54.2v-162.8z"/><path d="m268.7 458.4v162.8h-54.3v-162.8z"/><path d="m268.7 458.4v54.3h-162.7v-54.3z"/><path d="m160.3 458.4v271.2h-54.3v-271.2z"/><path d="m214.4 675.4v54.2h-108.4v-54.2z"/><path d="m973.8 675.4v54.2h-542.4v-54.2z"/><path d="m973.8 350v54.3h-379.7v-54.3z"/><path d="m214.4 350v54.3h-108.4v-54.3z"/></g><path d="m539.9 350v54.3h-54.3v-54.3z" fill="#e6dac8"/><path d="m377.2 350v54.3h-108.5v-54.3z" fill="#e6dac8"/><path d="m377.2 675.4v54.2h-108.5v-54.2z" fill="#e6dac8"/></svg>